%TF.GenerationSoftware,KiCad,Pcbnew,(6.0.5)*%
%TF.CreationDate,2022-07-01T12:58:53+07:00*%
%TF.ProjectId,MARUKO_RS485_PoC,4d415255-4b4f-45f5-9253-3438355f506f,rev?*%
%TF.SameCoordinates,Original*%
%TF.FileFunction,Soldermask,Top*%
%TF.FilePolarity,Negative*%
%FSLAX46Y46*%
G04 Gerber Fmt 4.6, Leading zero omitted, Abs format (unit mm)*
G04 Created by KiCad (PCBNEW (6.0.5)) date 2022-07-01 12:58:53*
%MOMM*%
%LPD*%
G01*
G04 APERTURE LIST*
G04 Aperture macros list*
%AMRoundRect*
0 Rectangle with rounded corners*
0 $1 Rounding radius*
0 $2 $3 $4 $5 $6 $7 $8 $9 X,Y pos of 4 corners*
0 Add a 4 corners polygon primitive as box body*
4,1,4,$2,$3,$4,$5,$6,$7,$8,$9,$2,$3,0*
0 Add four circle primitives for the rounded corners*
1,1,$1+$1,$2,$3*
1,1,$1+$1,$4,$5*
1,1,$1+$1,$6,$7*
1,1,$1+$1,$8,$9*
0 Add four rect primitives between the rounded corners*
20,1,$1+$1,$2,$3,$4,$5,0*
20,1,$1+$1,$4,$5,$6,$7,0*
20,1,$1+$1,$6,$7,$8,$9,0*
20,1,$1+$1,$8,$9,$2,$3,0*%
G04 Aperture macros list end*
%ADD10O,1.700000X1.700000*%
%ADD11R,1.700000X1.700000*%
%ADD12R,3.200000X3.200000*%
%ADD13O,3.200000X3.200000*%
%ADD14C,1.600000*%
%ADD15O,1.600000X1.600000*%
%ADD16C,2.250000*%
%ADD17C,1.308000*%
%ADD18R,1.500000X1.050000*%
%ADD19O,1.500000X1.050000*%
%ADD20RoundRect,0.250000X0.600000X0.725000X-0.600000X0.725000X-0.600000X-0.725000X0.600000X-0.725000X0*%
%ADD21O,1.700000X1.950000*%
%ADD22R,1.800000X1.800000*%
%ADD23O,1.800000X1.800000*%
%ADD24C,2.600000*%
%ADD25R,2.600000X2.600000*%
%ADD26RoundRect,0.250000X0.750000X-0.600000X0.750000X0.600000X-0.750000X0.600000X-0.750000X-0.600000X0*%
%ADD27O,2.000000X1.700000*%
%ADD28R,3.000000X1.400000*%
%ADD29C,0.800000*%
%ADD30C,5.000000*%
%ADD31R,1.600000X1.600000*%
%ADD32O,3.500000X3.500000*%
%ADD33R,2.000000X1.905000*%
%ADD34O,2.000000X1.905000*%
%ADD35R,2.000000X2.000000*%
%ADD36C,2.000000*%
%ADD37C,1.800000*%
%ADD38R,1.800000X1.275000*%
%ADD39O,1.800000X1.275000*%
%ADD40O,1.050000X1.500000*%
%ADD41R,1.050000X1.500000*%
%ADD42RoundRect,0.250000X0.725000X-0.600000X0.725000X0.600000X-0.725000X0.600000X-0.725000X-0.600000X0*%
%ADD43O,1.950000X1.700000*%
%ADD44RoundRect,0.250000X0.600000X0.750000X-0.600000X0.750000X-0.600000X-0.750000X0.600000X-0.750000X0*%
%ADD45O,1.700000X2.000000*%
%ADD46R,0.600000X0.600000*%
%ADD47R,1.580000X0.580000*%
%ADD48R,0.500000X0.500000*%
G04 APERTURE END LIST*
D10*
%TO.C,J6*%
X120990000Y-65940000D03*
X120990000Y-63400000D03*
X123530000Y-65940000D03*
X123530000Y-63400000D03*
X126070000Y-65940000D03*
X126070000Y-63400000D03*
X128610000Y-65940000D03*
X128610000Y-63400000D03*
X131150000Y-65940000D03*
X131150000Y-63400000D03*
X133690000Y-65940000D03*
X133690000Y-63400000D03*
X136230000Y-65940000D03*
X136230000Y-63400000D03*
X138770000Y-65940000D03*
X138770000Y-63400000D03*
X141310000Y-65940000D03*
X141310000Y-63400000D03*
X143850000Y-65940000D03*
X143850000Y-63400000D03*
X146390000Y-65940000D03*
X146390000Y-63400000D03*
X148930000Y-65940000D03*
X148930000Y-63400000D03*
X151470000Y-65940000D03*
X151470000Y-63400000D03*
X154010000Y-65940000D03*
X154010000Y-63400000D03*
X156550000Y-65940000D03*
X156550000Y-63400000D03*
X159090000Y-65940000D03*
X159090000Y-63400000D03*
X161630000Y-65940000D03*
X161630000Y-63400000D03*
X164170000Y-65940000D03*
X164170000Y-63400000D03*
X166710000Y-65940000D03*
X166710000Y-63400000D03*
X169250000Y-65940000D03*
D11*
X169250000Y-63400000D03*
%TD*%
D12*
%TO.C,D4*%
X156650000Y-90020000D03*
D13*
X156650000Y-74780000D03*
%TD*%
D14*
%TO.C,R13*%
X126090000Y-101700000D03*
D15*
X115930000Y-101700000D03*
%TD*%
D16*
%TO.C,SW2*%
X126743333Y-126850000D03*
X114543333Y-126850000D03*
D17*
X124643333Y-126850000D03*
X122643333Y-126850000D03*
X120643333Y-126850000D03*
X116643333Y-126850000D03*
%TD*%
D18*
%TO.C,Q2*%
X144410000Y-100870000D03*
D19*
X144410000Y-99600000D03*
X144410000Y-98330000D03*
%TD*%
D14*
%TO.C,R6*%
X143050000Y-80605000D03*
D15*
X143050000Y-90765000D03*
%TD*%
D16*
%TO.C,SW3*%
X141826666Y-126850000D03*
X129626666Y-126850000D03*
D17*
X139726666Y-126850000D03*
X137726666Y-126850000D03*
X135726666Y-126850000D03*
X131726666Y-126850000D03*
%TD*%
D20*
%TO.C,J2*%
X124560000Y-135625000D03*
D21*
X122060000Y-135625000D03*
X119560000Y-135625000D03*
X117060000Y-135625000D03*
%TD*%
D22*
%TO.C,D3*%
X154650000Y-110120000D03*
D23*
X154650000Y-120280000D03*
%TD*%
D24*
%TO.C,L1*%
X162850000Y-106250000D03*
X162850000Y-109750000D03*
%TD*%
D25*
%TO.C,J5*%
X172055000Y-133305000D03*
D24*
X177135000Y-133305000D03*
%TD*%
D26*
%TO.C,J8*%
X185650000Y-126000000D03*
D27*
X185650000Y-123500000D03*
%TD*%
D28*
%TO.C,U26*%
X130450000Y-89700000D03*
X130450000Y-87700000D03*
X130450000Y-85700000D03*
X130450000Y-83700000D03*
X130450000Y-81700000D03*
X130450000Y-79700000D03*
X130450000Y-77700000D03*
X130450000Y-75700000D03*
X115050000Y-75700000D03*
X115050000Y-77700000D03*
X115050000Y-79700000D03*
X115050000Y-81700000D03*
X115050000Y-83700000D03*
X115050000Y-85700000D03*
X115050000Y-87700000D03*
X115050000Y-89700000D03*
%TD*%
D29*
%TO.C,H3*%
X187524175Y-138925825D03*
X186975000Y-137600000D03*
X190175825Y-138925825D03*
X188850000Y-135725000D03*
D30*
X188850000Y-137600000D03*
D29*
X188850000Y-139475000D03*
X190175825Y-136274175D03*
X187524175Y-136274175D03*
X190725000Y-137600000D03*
%TD*%
D14*
%TO.C,C4*%
X184250000Y-76294888D03*
D31*
X184250000Y-73794888D03*
%TD*%
D32*
%TO.C,Q1*%
X186480000Y-86200000D03*
D33*
X169820000Y-83660000D03*
D34*
X169820000Y-86200000D03*
X169820000Y-88740000D03*
%TD*%
D14*
%TO.C,R2*%
X112800000Y-120400000D03*
D15*
X102640000Y-120400000D03*
%TD*%
D24*
%TO.C,L2*%
X162850000Y-98750000D03*
X162850000Y-95250000D03*
%TD*%
D14*
%TO.C,C6*%
X142000000Y-114200000D03*
X144500000Y-114200000D03*
%TD*%
D35*
%TO.C,BZ1*%
X103550000Y-87900000D03*
D36*
X95950000Y-87900000D03*
%TD*%
D20*
%TO.C,J3*%
X139310000Y-135625000D03*
D21*
X136810000Y-135625000D03*
X134310000Y-135625000D03*
X131810000Y-135625000D03*
%TD*%
D22*
%TO.C,D2*%
X149250000Y-74135000D03*
D37*
X149250000Y-76675000D03*
%TD*%
D14*
%TO.C,R5*%
X136850000Y-80605000D03*
D15*
X136850000Y-90765000D03*
%TD*%
D14*
%TO.C,R3*%
X154650000Y-95520000D03*
D15*
X154650000Y-105680000D03*
%TD*%
D22*
%TO.C,D7*%
X143050000Y-76685000D03*
D37*
X143050000Y-74145000D03*
%TD*%
D31*
%TO.C,C1*%
X174850000Y-120200000D03*
X174179063Y-118600000D03*
D14*
X178020937Y-121800000D03*
X177350000Y-120200000D03*
%TD*%
D12*
%TO.C,D5*%
X162850000Y-90020000D03*
D13*
X162850000Y-74780000D03*
%TD*%
D32*
%TO.C,U2*%
X186510000Y-108000000D03*
D38*
X169850000Y-104600000D03*
D39*
X169850000Y-106300000D03*
X169850000Y-108000000D03*
X169850000Y-109700000D03*
X169850000Y-111400000D03*
%TD*%
D14*
%TO.C,R14*%
X113050000Y-96900000D03*
D15*
X102890000Y-96900000D03*
%TD*%
D14*
%TO.C,R1*%
X151250000Y-95520000D03*
D15*
X151250000Y-105680000D03*
%TD*%
D40*
%TO.C,Q3*%
X98570000Y-99710000D03*
X97300000Y-99710000D03*
D41*
X96030000Y-99710000D03*
%TD*%
D39*
%TO.C,U3*%
X169850000Y-100400000D03*
X169850000Y-98700000D03*
X169850000Y-97000000D03*
X169850000Y-95300000D03*
D38*
X169850000Y-93600000D03*
D32*
X186510000Y-97000000D03*
%TD*%
D14*
%TO.C,R4*%
X149250000Y-90765000D03*
D15*
X149250000Y-80605000D03*
%TD*%
D22*
%TO.C,D6*%
X136850000Y-76685000D03*
D37*
X136850000Y-74145000D03*
%TD*%
D14*
%TO.C,R7*%
X128970000Y-101700000D03*
D15*
X139130000Y-101700000D03*
%TD*%
D14*
%TO.C,R8*%
X150050000Y-110120000D03*
D15*
X150050000Y-120280000D03*
%TD*%
D14*
%TO.C,R11*%
X115930000Y-96900000D03*
D15*
X126090000Y-96900000D03*
%TD*%
D14*
%TO.C,R10*%
X140100000Y-120400000D03*
D15*
X129940000Y-120400000D03*
%TD*%
D31*
%TO.C,D8*%
X130240000Y-96900000D03*
D15*
X137860000Y-96900000D03*
%TD*%
D14*
%TO.C,C5*%
X142000000Y-109000000D03*
X144500000Y-109000000D03*
%TD*%
D16*
%TO.C,SW4*%
X156910000Y-126850000D03*
X144710000Y-126850000D03*
D17*
X154810000Y-126850000D03*
X152810000Y-126850000D03*
X150810000Y-126850000D03*
X146810000Y-126850000D03*
%TD*%
D29*
%TO.C,H4*%
X93524175Y-136274175D03*
D30*
X94850000Y-137600000D03*
D29*
X94850000Y-139475000D03*
X92975000Y-137600000D03*
X96175825Y-136274175D03*
X93524175Y-138925825D03*
X94850000Y-135725000D03*
X96175825Y-138925825D03*
X96725000Y-137600000D03*
%TD*%
D42*
%TO.C,J11*%
X96950000Y-114700000D03*
D43*
X96950000Y-112200000D03*
X96950000Y-109700000D03*
X96950000Y-107200000D03*
%TD*%
D31*
%TO.C,U5*%
X136500000Y-107350000D03*
D15*
X133960000Y-107350000D03*
X131420000Y-107350000D03*
X128880000Y-107350000D03*
X128880000Y-114970000D03*
X131420000Y-114970000D03*
X133960000Y-114970000D03*
X136500000Y-114970000D03*
%TD*%
D36*
%TO.C,SW5*%
X100600000Y-63100000D03*
X100600000Y-69600000D03*
X105100000Y-69600000D03*
X105100000Y-63100000D03*
%TD*%
D14*
%TO.C,R25*%
X109750000Y-81220000D03*
D15*
X109750000Y-91380000D03*
%TD*%
D44*
%TO.C,J9*%
X164310000Y-135600000D03*
D45*
X161810000Y-135600000D03*
%TD*%
D31*
%TO.C,C3*%
X175650000Y-76205113D03*
D14*
X175650000Y-73705113D03*
%TD*%
%TO.C,R12*%
X113050000Y-101700000D03*
D15*
X102890000Y-101700000D03*
%TD*%
D31*
%TO.C,C2*%
X163050000Y-120200000D03*
X162379063Y-118600000D03*
D14*
X166220937Y-121800000D03*
X165550000Y-120200000D03*
%TD*%
D16*
%TO.C,SW1*%
X111660000Y-126850000D03*
X99460000Y-126850000D03*
D17*
X109560000Y-126850000D03*
X107560000Y-126850000D03*
X105560000Y-126850000D03*
X101560000Y-126850000D03*
%TD*%
D29*
%TO.C,H1*%
X94850000Y-65475000D03*
X96175825Y-62274175D03*
X93524175Y-64925825D03*
X94850000Y-61725000D03*
X92975000Y-63600000D03*
X93524175Y-62274175D03*
X96725000Y-63600000D03*
D30*
X94850000Y-63600000D03*
D29*
X96175825Y-64925825D03*
%TD*%
D30*
%TO.C,H2*%
X188850000Y-63600000D03*
D29*
X186975000Y-63600000D03*
X190725000Y-63600000D03*
X187524175Y-64925825D03*
X190175825Y-64925825D03*
X190175825Y-62274175D03*
X188850000Y-65475000D03*
X187524175Y-62274175D03*
X188850000Y-61725000D03*
%TD*%
D20*
%TO.C,J4*%
X154060000Y-135625000D03*
D21*
X151560000Y-135625000D03*
X149060000Y-135625000D03*
X146560000Y-135625000D03*
%TD*%
D36*
%TO.C,SW6*%
X109350000Y-63150000D03*
X109350000Y-69650000D03*
X113850000Y-63150000D03*
X113850000Y-69650000D03*
%TD*%
D14*
%TO.C,R9*%
X126450000Y-120400000D03*
D15*
X116290000Y-120400000D03*
%TD*%
D46*
%TO.C,J7*%
X98850000Y-75700000D03*
D47*
X97850000Y-76660000D03*
D48*
X96850000Y-75700000D03*
D47*
X97850000Y-74740000D03*
%TD*%
D31*
%TO.C,U4*%
X122125000Y-107150000D03*
D15*
X119585000Y-107150000D03*
X117045000Y-107150000D03*
X114505000Y-107150000D03*
X111965000Y-107150000D03*
X109425000Y-107150000D03*
X106885000Y-107150000D03*
X106885000Y-114770000D03*
X109425000Y-114770000D03*
X111965000Y-114770000D03*
X114505000Y-114770000D03*
X117045000Y-114770000D03*
X119585000Y-114770000D03*
X122125000Y-114770000D03*
%TD*%
D20*
%TO.C,J1*%
X109810000Y-135625000D03*
D21*
X107310000Y-135625000D03*
X104810000Y-135625000D03*
X102310000Y-135625000D03*
%TD*%
M02*
