%TF.GenerationSoftware,KiCad,Pcbnew,(6.0.5)*%
%TF.CreationDate,2022-07-01T12:58:53+07:00*%
%TF.ProjectId,MARUKO_RS485_PoC,4d415255-4b4f-45f5-9253-3438355f506f,rev?*%
%TF.SameCoordinates,Original*%
%TF.FileFunction,Legend,Top*%
%TF.FilePolarity,Positive*%
%FSLAX46Y46*%
G04 Gerber Fmt 4.6, Leading zero omitted, Abs format (unit mm)*
G04 Created by KiCad (PCBNEW (6.0.5)) date 2022-07-01 12:58:53*
%MOMM*%
%LPD*%
G01*
G04 APERTURE LIST*
%ADD10C,0.150000*%
%ADD11C,0.010000*%
%ADD12C,0.120000*%
%ADD13C,0.127000*%
%ADD14C,0.200000*%
G04 APERTURE END LIST*
D10*
%TO.C,J6*%
X171032380Y-65003333D02*
X171746666Y-65003333D01*
X171889523Y-65050952D01*
X171984761Y-65146190D01*
X172032380Y-65289047D01*
X172032380Y-65384285D01*
X171032380Y-64098571D02*
X171032380Y-64289047D01*
X171080000Y-64384285D01*
X171127619Y-64431904D01*
X171270476Y-64527142D01*
X171460952Y-64574761D01*
X171841904Y-64574761D01*
X171937142Y-64527142D01*
X171984761Y-64479523D01*
X172032380Y-64384285D01*
X172032380Y-64193809D01*
X171984761Y-64098571D01*
X171937142Y-64050952D01*
X171841904Y-64003333D01*
X171603809Y-64003333D01*
X171508571Y-64050952D01*
X171460952Y-64098571D01*
X171413333Y-64193809D01*
X171413333Y-64384285D01*
X171460952Y-64479523D01*
X171508571Y-64527142D01*
X171603809Y-64574761D01*
%TO.C,D4*%
X153382380Y-83138095D02*
X152382380Y-83138095D01*
X152382380Y-82900000D01*
X152430000Y-82757142D01*
X152525238Y-82661904D01*
X152620476Y-82614285D01*
X152810952Y-82566666D01*
X152953809Y-82566666D01*
X153144285Y-82614285D01*
X153239523Y-82661904D01*
X153334761Y-82757142D01*
X153382380Y-82900000D01*
X153382380Y-83138095D01*
X152715714Y-81709523D02*
X153382380Y-81709523D01*
X152334761Y-81947619D02*
X153049047Y-82185714D01*
X153049047Y-81566666D01*
X154502380Y-90281904D02*
X153502380Y-90281904D01*
X154502380Y-89710476D02*
X153930952Y-90139047D01*
X153502380Y-89710476D02*
X154073809Y-90281904D01*
%TO.C,R13*%
X120367142Y-99652380D02*
X120033809Y-99176190D01*
X119795714Y-99652380D02*
X119795714Y-98652380D01*
X120176666Y-98652380D01*
X120271904Y-98700000D01*
X120319523Y-98747619D01*
X120367142Y-98842857D01*
X120367142Y-98985714D01*
X120319523Y-99080952D01*
X120271904Y-99128571D01*
X120176666Y-99176190D01*
X119795714Y-99176190D01*
X121319523Y-99652380D02*
X120748095Y-99652380D01*
X121033809Y-99652380D02*
X121033809Y-98652380D01*
X120938571Y-98795238D01*
X120843333Y-98890476D01*
X120748095Y-98938095D01*
X121652857Y-98652380D02*
X122271904Y-98652380D01*
X121938571Y-99033333D01*
X122081428Y-99033333D01*
X122176666Y-99080952D01*
X122224285Y-99128571D01*
X122271904Y-99223809D01*
X122271904Y-99461904D01*
X122224285Y-99557142D01*
X122176666Y-99604761D01*
X122081428Y-99652380D01*
X121795714Y-99652380D01*
X121700476Y-99604761D01*
X121652857Y-99557142D01*
%TO.C,SW2*%
X119576666Y-124165809D02*
X119690952Y-124203904D01*
X119881428Y-124203904D01*
X119957618Y-124165809D01*
X119995713Y-124127714D01*
X120033809Y-124051523D01*
X120033809Y-123975333D01*
X119995713Y-123899142D01*
X119957618Y-123861047D01*
X119881428Y-123822952D01*
X119729047Y-123784857D01*
X119652856Y-123746761D01*
X119614761Y-123708666D01*
X119576666Y-123632476D01*
X119576666Y-123556285D01*
X119614761Y-123480095D01*
X119652856Y-123442000D01*
X119729047Y-123403904D01*
X119919523Y-123403904D01*
X120033809Y-123442000D01*
X120300475Y-123403904D02*
X120490952Y-124203904D01*
X120643333Y-123632476D01*
X120795713Y-124203904D01*
X120986190Y-123403904D01*
X121252856Y-123480095D02*
X121290952Y-123442000D01*
X121367142Y-123403904D01*
X121557618Y-123403904D01*
X121633809Y-123442000D01*
X121671904Y-123480095D01*
X121709999Y-123556285D01*
X121709999Y-123632476D01*
X121671904Y-123746761D01*
X121214761Y-124203904D01*
X121709999Y-124203904D01*
%TO.C,Q2*%
X141397619Y-99695238D02*
X141350000Y-99790476D01*
X141254761Y-99885714D01*
X141111904Y-100028571D01*
X141064285Y-100123809D01*
X141064285Y-100219047D01*
X141302380Y-100171428D02*
X141254761Y-100266666D01*
X141159523Y-100361904D01*
X140969047Y-100409523D01*
X140635714Y-100409523D01*
X140445238Y-100361904D01*
X140350000Y-100266666D01*
X140302380Y-100171428D01*
X140302380Y-99980952D01*
X140350000Y-99885714D01*
X140445238Y-99790476D01*
X140635714Y-99742857D01*
X140969047Y-99742857D01*
X141159523Y-99790476D01*
X141254761Y-99885714D01*
X141302380Y-99980952D01*
X141302380Y-100171428D01*
X140397619Y-99361904D02*
X140350000Y-99314285D01*
X140302380Y-99219047D01*
X140302380Y-98980952D01*
X140350000Y-98885714D01*
X140397619Y-98838095D01*
X140492857Y-98790476D01*
X140588095Y-98790476D01*
X140730952Y-98838095D01*
X141302380Y-99409523D01*
X141302380Y-98790476D01*
%TO.C,R6*%
X145872380Y-85851666D02*
X145396190Y-86185000D01*
X145872380Y-86423095D02*
X144872380Y-86423095D01*
X144872380Y-86042142D01*
X144920000Y-85946904D01*
X144967619Y-85899285D01*
X145062857Y-85851666D01*
X145205714Y-85851666D01*
X145300952Y-85899285D01*
X145348571Y-85946904D01*
X145396190Y-86042142D01*
X145396190Y-86423095D01*
X144872380Y-84994523D02*
X144872380Y-85185000D01*
X144920000Y-85280238D01*
X144967619Y-85327857D01*
X145110476Y-85423095D01*
X145300952Y-85470714D01*
X145681904Y-85470714D01*
X145777142Y-85423095D01*
X145824761Y-85375476D01*
X145872380Y-85280238D01*
X145872380Y-85089761D01*
X145824761Y-84994523D01*
X145777142Y-84946904D01*
X145681904Y-84899285D01*
X145443809Y-84899285D01*
X145348571Y-84946904D01*
X145300952Y-84994523D01*
X145253333Y-85089761D01*
X145253333Y-85280238D01*
X145300952Y-85375476D01*
X145348571Y-85423095D01*
X145443809Y-85470714D01*
%TO.C,SW3*%
X134659999Y-124165809D02*
X134774285Y-124203904D01*
X134964761Y-124203904D01*
X135040951Y-124165809D01*
X135079046Y-124127714D01*
X135117142Y-124051523D01*
X135117142Y-123975333D01*
X135079046Y-123899142D01*
X135040951Y-123861047D01*
X134964761Y-123822952D01*
X134812380Y-123784857D01*
X134736189Y-123746761D01*
X134698094Y-123708666D01*
X134659999Y-123632476D01*
X134659999Y-123556285D01*
X134698094Y-123480095D01*
X134736189Y-123442000D01*
X134812380Y-123403904D01*
X135002856Y-123403904D01*
X135117142Y-123442000D01*
X135383808Y-123403904D02*
X135574285Y-124203904D01*
X135726666Y-123632476D01*
X135879046Y-124203904D01*
X136069523Y-123403904D01*
X136298094Y-123403904D02*
X136793332Y-123403904D01*
X136526666Y-123708666D01*
X136640951Y-123708666D01*
X136717142Y-123746761D01*
X136755237Y-123784857D01*
X136793332Y-123861047D01*
X136793332Y-124051523D01*
X136755237Y-124127714D01*
X136717142Y-124165809D01*
X136640951Y-124203904D01*
X136412380Y-124203904D01*
X136336189Y-124165809D01*
X136298094Y-124127714D01*
%TO.C,J2*%
X120476666Y-130052380D02*
X120476666Y-130766666D01*
X120429047Y-130909523D01*
X120333809Y-131004761D01*
X120190952Y-131052380D01*
X120095714Y-131052380D01*
X120905238Y-130147619D02*
X120952857Y-130100000D01*
X121048095Y-130052380D01*
X121286190Y-130052380D01*
X121381428Y-130100000D01*
X121429047Y-130147619D01*
X121476666Y-130242857D01*
X121476666Y-130338095D01*
X121429047Y-130480952D01*
X120857619Y-131052380D01*
X121476666Y-131052380D01*
%TO.C,D3*%
X157572380Y-115938095D02*
X156572380Y-115938095D01*
X156572380Y-115700000D01*
X156620000Y-115557142D01*
X156715238Y-115461904D01*
X156810476Y-115414285D01*
X157000952Y-115366666D01*
X157143809Y-115366666D01*
X157334285Y-115414285D01*
X157429523Y-115461904D01*
X157524761Y-115557142D01*
X157572380Y-115700000D01*
X157572380Y-115938095D01*
X156572380Y-115033333D02*
X156572380Y-114414285D01*
X156953333Y-114747619D01*
X156953333Y-114604761D01*
X157000952Y-114509523D01*
X157048571Y-114461904D01*
X157143809Y-114414285D01*
X157381904Y-114414285D01*
X157477142Y-114461904D01*
X157524761Y-114509523D01*
X157572380Y-114604761D01*
X157572380Y-114890476D01*
X157524761Y-114985714D01*
X157477142Y-115033333D01*
X157002380Y-110381904D02*
X156002380Y-110381904D01*
X157002380Y-109810476D02*
X156430952Y-110239047D01*
X156002380Y-109810476D02*
X156573809Y-110381904D01*
%TO.C,L1*%
X168302380Y-108166666D02*
X168302380Y-108642857D01*
X167302380Y-108642857D01*
X168302380Y-107309523D02*
X168302380Y-107880952D01*
X168302380Y-107595238D02*
X167302380Y-107595238D01*
X167445238Y-107690476D01*
X167540476Y-107785714D01*
X167588095Y-107880952D01*
%TO.C,J5*%
X174116666Y-125852380D02*
X174116666Y-126566666D01*
X174069047Y-126709523D01*
X173973809Y-126804761D01*
X173830952Y-126852380D01*
X173735714Y-126852380D01*
X175069047Y-125852380D02*
X174592857Y-125852380D01*
X174545238Y-126328571D01*
X174592857Y-126280952D01*
X174688095Y-126233333D01*
X174926190Y-126233333D01*
X175021428Y-126280952D01*
X175069047Y-126328571D01*
X175116666Y-126423809D01*
X175116666Y-126661904D01*
X175069047Y-126757142D01*
X175021428Y-126804761D01*
X174926190Y-126852380D01*
X174688095Y-126852380D01*
X174592857Y-126804761D01*
X174545238Y-126757142D01*
%TO.C,J8*%
X181552380Y-125083333D02*
X182266666Y-125083333D01*
X182409523Y-125130952D01*
X182504761Y-125226190D01*
X182552380Y-125369047D01*
X182552380Y-125464285D01*
X181980952Y-124464285D02*
X181933333Y-124559523D01*
X181885714Y-124607142D01*
X181790476Y-124654761D01*
X181742857Y-124654761D01*
X181647619Y-124607142D01*
X181600000Y-124559523D01*
X181552380Y-124464285D01*
X181552380Y-124273809D01*
X181600000Y-124178571D01*
X181647619Y-124130952D01*
X181742857Y-124083333D01*
X181790476Y-124083333D01*
X181885714Y-124130952D01*
X181933333Y-124178571D01*
X181980952Y-124273809D01*
X181980952Y-124464285D01*
X182028571Y-124559523D01*
X182076190Y-124607142D01*
X182171428Y-124654761D01*
X182361904Y-124654761D01*
X182457142Y-124607142D01*
X182504761Y-124559523D01*
X182552380Y-124464285D01*
X182552380Y-124273809D01*
X182504761Y-124178571D01*
X182457142Y-124130952D01*
X182361904Y-124083333D01*
X182171428Y-124083333D01*
X182076190Y-124130952D01*
X182028571Y-124178571D01*
X181980952Y-124273809D01*
%TO.C,U26*%
X128142694Y-91692640D02*
X128142694Y-92502164D01*
X128190313Y-92597402D01*
X128237932Y-92645021D01*
X128333170Y-92692640D01*
X128523647Y-92692640D01*
X128618885Y-92645021D01*
X128666504Y-92597402D01*
X128714123Y-92502164D01*
X128714123Y-91692640D01*
X129142694Y-91787879D02*
X129190313Y-91740260D01*
X129285551Y-91692640D01*
X129523647Y-91692640D01*
X129618885Y-91740260D01*
X129666504Y-91787879D01*
X129714123Y-91883117D01*
X129714123Y-91978355D01*
X129666504Y-92121212D01*
X129095075Y-92692640D01*
X129714123Y-92692640D01*
X130571266Y-91692640D02*
X130380790Y-91692640D01*
X130285551Y-91740260D01*
X130237932Y-91787879D01*
X130142694Y-91930736D01*
X130095075Y-92121212D01*
X130095075Y-92502164D01*
X130142694Y-92597402D01*
X130190313Y-92645021D01*
X130285551Y-92692640D01*
X130476028Y-92692640D01*
X130571266Y-92645021D01*
X130618885Y-92597402D01*
X130666504Y-92502164D01*
X130666504Y-92264069D01*
X130618885Y-92168831D01*
X130571266Y-92121212D01*
X130476028Y-92073593D01*
X130285551Y-92073593D01*
X130190313Y-92121212D01*
X130142694Y-92168831D01*
X130095075Y-92264069D01*
%TO.C,C4*%
X188357142Y-75211554D02*
X188404761Y-75259173D01*
X188452380Y-75402030D01*
X188452380Y-75497268D01*
X188404761Y-75640126D01*
X188309523Y-75735364D01*
X188214285Y-75782983D01*
X188023809Y-75830602D01*
X187880952Y-75830602D01*
X187690476Y-75782983D01*
X187595238Y-75735364D01*
X187500000Y-75640126D01*
X187452380Y-75497268D01*
X187452380Y-75402030D01*
X187500000Y-75259173D01*
X187547619Y-75211554D01*
X187785714Y-74354411D02*
X188452380Y-74354411D01*
X187404761Y-74592507D02*
X188119047Y-74830602D01*
X188119047Y-74211554D01*
%TO.C,Q1*%
X190947619Y-86295238D02*
X190900000Y-86390476D01*
X190804761Y-86485714D01*
X190661904Y-86628571D01*
X190614285Y-86723809D01*
X190614285Y-86819047D01*
X190852380Y-86771428D02*
X190804761Y-86866666D01*
X190709523Y-86961904D01*
X190519047Y-87009523D01*
X190185714Y-87009523D01*
X189995238Y-86961904D01*
X189900000Y-86866666D01*
X189852380Y-86771428D01*
X189852380Y-86580952D01*
X189900000Y-86485714D01*
X189995238Y-86390476D01*
X190185714Y-86342857D01*
X190519047Y-86342857D01*
X190709523Y-86390476D01*
X190804761Y-86485714D01*
X190852380Y-86580952D01*
X190852380Y-86771428D01*
X190852380Y-85390476D02*
X190852380Y-85961904D01*
X190852380Y-85676190D02*
X189852380Y-85676190D01*
X189995238Y-85771428D01*
X190090476Y-85866666D01*
X190138095Y-85961904D01*
%TO.C,R2*%
X107583333Y-118502380D02*
X107250000Y-118026190D01*
X107011904Y-118502380D02*
X107011904Y-117502380D01*
X107392857Y-117502380D01*
X107488095Y-117550000D01*
X107535714Y-117597619D01*
X107583333Y-117692857D01*
X107583333Y-117835714D01*
X107535714Y-117930952D01*
X107488095Y-117978571D01*
X107392857Y-118026190D01*
X107011904Y-118026190D01*
X107964285Y-117597619D02*
X108011904Y-117550000D01*
X108107142Y-117502380D01*
X108345238Y-117502380D01*
X108440476Y-117550000D01*
X108488095Y-117597619D01*
X108535714Y-117692857D01*
X108535714Y-117788095D01*
X108488095Y-117930952D01*
X107916666Y-118502380D01*
X108535714Y-118502380D01*
%TO.C,L2*%
X168302380Y-97166666D02*
X168302380Y-97642857D01*
X167302380Y-97642857D01*
X167397619Y-96880952D02*
X167350000Y-96833333D01*
X167302380Y-96738095D01*
X167302380Y-96500000D01*
X167350000Y-96404761D01*
X167397619Y-96357142D01*
X167492857Y-96309523D01*
X167588095Y-96309523D01*
X167730952Y-96357142D01*
X168302380Y-96928571D01*
X168302380Y-96309523D01*
%TO.C,C6*%
X143083333Y-112007142D02*
X143035714Y-112054761D01*
X142892857Y-112102380D01*
X142797619Y-112102380D01*
X142654761Y-112054761D01*
X142559523Y-111959523D01*
X142511904Y-111864285D01*
X142464285Y-111673809D01*
X142464285Y-111530952D01*
X142511904Y-111340476D01*
X142559523Y-111245238D01*
X142654761Y-111150000D01*
X142797619Y-111102380D01*
X142892857Y-111102380D01*
X143035714Y-111150000D01*
X143083333Y-111197619D01*
X143940476Y-111102380D02*
X143750000Y-111102380D01*
X143654761Y-111150000D01*
X143607142Y-111197619D01*
X143511904Y-111340476D01*
X143464285Y-111530952D01*
X143464285Y-111911904D01*
X143511904Y-112007142D01*
X143559523Y-112054761D01*
X143654761Y-112102380D01*
X143845238Y-112102380D01*
X143940476Y-112054761D01*
X143988095Y-112007142D01*
X144035714Y-111911904D01*
X144035714Y-111673809D01*
X143988095Y-111578571D01*
X143940476Y-111530952D01*
X143845238Y-111483333D01*
X143654761Y-111483333D01*
X143559523Y-111530952D01*
X143511904Y-111578571D01*
X143464285Y-111673809D01*
%TO.C,BZ1*%
X98869047Y-95028571D02*
X99011904Y-95076190D01*
X99059523Y-95123809D01*
X99107142Y-95219047D01*
X99107142Y-95361904D01*
X99059523Y-95457142D01*
X99011904Y-95504761D01*
X98916666Y-95552380D01*
X98535714Y-95552380D01*
X98535714Y-94552380D01*
X98869047Y-94552380D01*
X98964285Y-94600000D01*
X99011904Y-94647619D01*
X99059523Y-94742857D01*
X99059523Y-94838095D01*
X99011904Y-94933333D01*
X98964285Y-94980952D01*
X98869047Y-95028571D01*
X98535714Y-95028571D01*
X99440476Y-94552380D02*
X100107142Y-94552380D01*
X99440476Y-95552380D01*
X100107142Y-95552380D01*
X101011904Y-95552380D02*
X100440476Y-95552380D01*
X100726190Y-95552380D02*
X100726190Y-94552380D01*
X100630952Y-94695238D01*
X100535714Y-94790476D01*
X100440476Y-94838095D01*
X103179047Y-90511428D02*
X103940952Y-90511428D01*
X103560000Y-90892380D02*
X103560000Y-90130476D01*
%TO.C,J3*%
X135226666Y-130052380D02*
X135226666Y-130766666D01*
X135179047Y-130909523D01*
X135083809Y-131004761D01*
X134940952Y-131052380D01*
X134845714Y-131052380D01*
X135607619Y-130052380D02*
X136226666Y-130052380D01*
X135893333Y-130433333D01*
X136036190Y-130433333D01*
X136131428Y-130480952D01*
X136179047Y-130528571D01*
X136226666Y-130623809D01*
X136226666Y-130861904D01*
X136179047Y-130957142D01*
X136131428Y-131004761D01*
X136036190Y-131052380D01*
X135750476Y-131052380D01*
X135655238Y-131004761D01*
X135607619Y-130957142D01*
%TO.C,D2*%
X152662380Y-76143095D02*
X151662380Y-76143095D01*
X151662380Y-75905000D01*
X151710000Y-75762142D01*
X151805238Y-75666904D01*
X151900476Y-75619285D01*
X152090952Y-75571666D01*
X152233809Y-75571666D01*
X152424285Y-75619285D01*
X152519523Y-75666904D01*
X152614761Y-75762142D01*
X152662380Y-75905000D01*
X152662380Y-76143095D01*
X151757619Y-75190714D02*
X151710000Y-75143095D01*
X151662380Y-75047857D01*
X151662380Y-74809761D01*
X151710000Y-74714523D01*
X151757619Y-74666904D01*
X151852857Y-74619285D01*
X151948095Y-74619285D01*
X152090952Y-74666904D01*
X152662380Y-75238333D01*
X152662380Y-74619285D01*
%TO.C,R5*%
X139672380Y-85851666D02*
X139196190Y-86185000D01*
X139672380Y-86423095D02*
X138672380Y-86423095D01*
X138672380Y-86042142D01*
X138720000Y-85946904D01*
X138767619Y-85899285D01*
X138862857Y-85851666D01*
X139005714Y-85851666D01*
X139100952Y-85899285D01*
X139148571Y-85946904D01*
X139196190Y-86042142D01*
X139196190Y-86423095D01*
X138672380Y-84946904D02*
X138672380Y-85423095D01*
X139148571Y-85470714D01*
X139100952Y-85423095D01*
X139053333Y-85327857D01*
X139053333Y-85089761D01*
X139100952Y-84994523D01*
X139148571Y-84946904D01*
X139243809Y-84899285D01*
X139481904Y-84899285D01*
X139577142Y-84946904D01*
X139624761Y-84994523D01*
X139672380Y-85089761D01*
X139672380Y-85327857D01*
X139624761Y-85423095D01*
X139577142Y-85470714D01*
%TO.C,R3*%
X157472380Y-100766666D02*
X156996190Y-101100000D01*
X157472380Y-101338095D02*
X156472380Y-101338095D01*
X156472380Y-100957142D01*
X156520000Y-100861904D01*
X156567619Y-100814285D01*
X156662857Y-100766666D01*
X156805714Y-100766666D01*
X156900952Y-100814285D01*
X156948571Y-100861904D01*
X156996190Y-100957142D01*
X156996190Y-101338095D01*
X156472380Y-100433333D02*
X156472380Y-99814285D01*
X156853333Y-100147619D01*
X156853333Y-100004761D01*
X156900952Y-99909523D01*
X156948571Y-99861904D01*
X157043809Y-99814285D01*
X157281904Y-99814285D01*
X157377142Y-99861904D01*
X157424761Y-99909523D01*
X157472380Y-100004761D01*
X157472380Y-100290476D01*
X157424761Y-100385714D01*
X157377142Y-100433333D01*
%TO.C,D7*%
X140542380Y-76153095D02*
X139542380Y-76153095D01*
X139542380Y-75915000D01*
X139590000Y-75772142D01*
X139685238Y-75676904D01*
X139780476Y-75629285D01*
X139970952Y-75581666D01*
X140113809Y-75581666D01*
X140304285Y-75629285D01*
X140399523Y-75676904D01*
X140494761Y-75772142D01*
X140542380Y-75915000D01*
X140542380Y-76153095D01*
X139542380Y-75248333D02*
X139542380Y-74581666D01*
X140542380Y-75010238D01*
%TO.C,C1*%
X180483333Y-115557142D02*
X180435714Y-115604761D01*
X180292857Y-115652380D01*
X180197619Y-115652380D01*
X180054761Y-115604761D01*
X179959523Y-115509523D01*
X179911904Y-115414285D01*
X179864285Y-115223809D01*
X179864285Y-115080952D01*
X179911904Y-114890476D01*
X179959523Y-114795238D01*
X180054761Y-114700000D01*
X180197619Y-114652380D01*
X180292857Y-114652380D01*
X180435714Y-114700000D01*
X180483333Y-114747619D01*
X181435714Y-115652380D02*
X180864285Y-115652380D01*
X181150000Y-115652380D02*
X181150000Y-114652380D01*
X181054761Y-114795238D01*
X180959523Y-114890476D01*
X180864285Y-114938095D01*
%TO.C,D5*%
X167052380Y-82888095D02*
X166052380Y-82888095D01*
X166052380Y-82650000D01*
X166100000Y-82507142D01*
X166195238Y-82411904D01*
X166290476Y-82364285D01*
X166480952Y-82316666D01*
X166623809Y-82316666D01*
X166814285Y-82364285D01*
X166909523Y-82411904D01*
X167004761Y-82507142D01*
X167052380Y-82650000D01*
X167052380Y-82888095D01*
X166052380Y-81411904D02*
X166052380Y-81888095D01*
X166528571Y-81935714D01*
X166480952Y-81888095D01*
X166433333Y-81792857D01*
X166433333Y-81554761D01*
X166480952Y-81459523D01*
X166528571Y-81411904D01*
X166623809Y-81364285D01*
X166861904Y-81364285D01*
X166957142Y-81411904D01*
X167004761Y-81459523D01*
X167052380Y-81554761D01*
X167052380Y-81792857D01*
X167004761Y-81888095D01*
X166957142Y-81935714D01*
X160702380Y-90281904D02*
X159702380Y-90281904D01*
X160702380Y-89710476D02*
X160130952Y-90139047D01*
X159702380Y-89710476D02*
X160273809Y-90281904D01*
%TO.C,U2*%
X167332380Y-112011904D02*
X168141904Y-112011904D01*
X168237142Y-111964285D01*
X168284761Y-111916666D01*
X168332380Y-111821428D01*
X168332380Y-111630952D01*
X168284761Y-111535714D01*
X168237142Y-111488095D01*
X168141904Y-111440476D01*
X167332380Y-111440476D01*
X167427619Y-111011904D02*
X167380000Y-110964285D01*
X167332380Y-110869047D01*
X167332380Y-110630952D01*
X167380000Y-110535714D01*
X167427619Y-110488095D01*
X167522857Y-110440476D01*
X167618095Y-110440476D01*
X167760952Y-110488095D01*
X168332380Y-111059523D01*
X168332380Y-110440476D01*
%TO.C,R14*%
X107287142Y-94852380D02*
X106953809Y-94376190D01*
X106715714Y-94852380D02*
X106715714Y-93852380D01*
X107096666Y-93852380D01*
X107191904Y-93900000D01*
X107239523Y-93947619D01*
X107287142Y-94042857D01*
X107287142Y-94185714D01*
X107239523Y-94280952D01*
X107191904Y-94328571D01*
X107096666Y-94376190D01*
X106715714Y-94376190D01*
X108239523Y-94852380D02*
X107668095Y-94852380D01*
X107953809Y-94852380D02*
X107953809Y-93852380D01*
X107858571Y-93995238D01*
X107763333Y-94090476D01*
X107668095Y-94138095D01*
X109096666Y-94185714D02*
X109096666Y-94852380D01*
X108858571Y-93804761D02*
X108620476Y-94519047D01*
X109239523Y-94519047D01*
%TO.C,R1*%
X149102380Y-100766666D02*
X148626190Y-101100000D01*
X149102380Y-101338095D02*
X148102380Y-101338095D01*
X148102380Y-100957142D01*
X148150000Y-100861904D01*
X148197619Y-100814285D01*
X148292857Y-100766666D01*
X148435714Y-100766666D01*
X148530952Y-100814285D01*
X148578571Y-100861904D01*
X148626190Y-100957142D01*
X148626190Y-101338095D01*
X149102380Y-99814285D02*
X149102380Y-100385714D01*
X149102380Y-100100000D02*
X148102380Y-100100000D01*
X148245238Y-100195238D01*
X148340476Y-100290476D01*
X148388095Y-100385714D01*
%TO.C,Q3*%
X97204761Y-96697619D02*
X97109523Y-96650000D01*
X97014285Y-96554761D01*
X96871428Y-96411904D01*
X96776190Y-96364285D01*
X96680952Y-96364285D01*
X96728571Y-96602380D02*
X96633333Y-96554761D01*
X96538095Y-96459523D01*
X96490476Y-96269047D01*
X96490476Y-95935714D01*
X96538095Y-95745238D01*
X96633333Y-95650000D01*
X96728571Y-95602380D01*
X96919047Y-95602380D01*
X97014285Y-95650000D01*
X97109523Y-95745238D01*
X97157142Y-95935714D01*
X97157142Y-96269047D01*
X97109523Y-96459523D01*
X97014285Y-96554761D01*
X96919047Y-96602380D01*
X96728571Y-96602380D01*
X97490476Y-95602380D02*
X98109523Y-95602380D01*
X97776190Y-95983333D01*
X97919047Y-95983333D01*
X98014285Y-96030952D01*
X98061904Y-96078571D01*
X98109523Y-96173809D01*
X98109523Y-96411904D01*
X98061904Y-96507142D01*
X98014285Y-96554761D01*
X97919047Y-96602380D01*
X97633333Y-96602380D01*
X97538095Y-96554761D01*
X97490476Y-96507142D01*
%TO.C,U3*%
X167082380Y-101261904D02*
X167891904Y-101261904D01*
X167987142Y-101214285D01*
X168034761Y-101166666D01*
X168082380Y-101071428D01*
X168082380Y-100880952D01*
X168034761Y-100785714D01*
X167987142Y-100738095D01*
X167891904Y-100690476D01*
X167082380Y-100690476D01*
X167082380Y-100309523D02*
X167082380Y-99690476D01*
X167463333Y-100023809D01*
X167463333Y-99880952D01*
X167510952Y-99785714D01*
X167558571Y-99738095D01*
X167653809Y-99690476D01*
X167891904Y-99690476D01*
X167987142Y-99738095D01*
X168034761Y-99785714D01*
X168082380Y-99880952D01*
X168082380Y-100166666D01*
X168034761Y-100261904D01*
X167987142Y-100309523D01*
%TO.C,R4*%
X147332380Y-85851666D02*
X146856190Y-86185000D01*
X147332380Y-86423095D02*
X146332380Y-86423095D01*
X146332380Y-86042142D01*
X146380000Y-85946904D01*
X146427619Y-85899285D01*
X146522857Y-85851666D01*
X146665714Y-85851666D01*
X146760952Y-85899285D01*
X146808571Y-85946904D01*
X146856190Y-86042142D01*
X146856190Y-86423095D01*
X146665714Y-84994523D02*
X147332380Y-84994523D01*
X146284761Y-85232619D02*
X146999047Y-85470714D01*
X146999047Y-84851666D01*
%TO.C,D6*%
X134342380Y-76153095D02*
X133342380Y-76153095D01*
X133342380Y-75915000D01*
X133390000Y-75772142D01*
X133485238Y-75676904D01*
X133580476Y-75629285D01*
X133770952Y-75581666D01*
X133913809Y-75581666D01*
X134104285Y-75629285D01*
X134199523Y-75676904D01*
X134294761Y-75772142D01*
X134342380Y-75915000D01*
X134342380Y-76153095D01*
X133342380Y-74724523D02*
X133342380Y-74915000D01*
X133390000Y-75010238D01*
X133437619Y-75057857D01*
X133580476Y-75153095D01*
X133770952Y-75200714D01*
X134151904Y-75200714D01*
X134247142Y-75153095D01*
X134294761Y-75105476D01*
X134342380Y-75010238D01*
X134342380Y-74819761D01*
X134294761Y-74724523D01*
X134247142Y-74676904D01*
X134151904Y-74629285D01*
X133913809Y-74629285D01*
X133818571Y-74676904D01*
X133770952Y-74724523D01*
X133723333Y-74819761D01*
X133723333Y-75010238D01*
X133770952Y-75105476D01*
X133818571Y-75153095D01*
X133913809Y-75200714D01*
%TO.C,R7*%
X133883333Y-99782380D02*
X133550000Y-99306190D01*
X133311904Y-99782380D02*
X133311904Y-98782380D01*
X133692857Y-98782380D01*
X133788095Y-98830000D01*
X133835714Y-98877619D01*
X133883333Y-98972857D01*
X133883333Y-99115714D01*
X133835714Y-99210952D01*
X133788095Y-99258571D01*
X133692857Y-99306190D01*
X133311904Y-99306190D01*
X134216666Y-98782380D02*
X134883333Y-98782380D01*
X134454761Y-99782380D01*
%TO.C,R8*%
X152872380Y-115366666D02*
X152396190Y-115700000D01*
X152872380Y-115938095D02*
X151872380Y-115938095D01*
X151872380Y-115557142D01*
X151920000Y-115461904D01*
X151967619Y-115414285D01*
X152062857Y-115366666D01*
X152205714Y-115366666D01*
X152300952Y-115414285D01*
X152348571Y-115461904D01*
X152396190Y-115557142D01*
X152396190Y-115938095D01*
X152300952Y-114795238D02*
X152253333Y-114890476D01*
X152205714Y-114938095D01*
X152110476Y-114985714D01*
X152062857Y-114985714D01*
X151967619Y-114938095D01*
X151920000Y-114890476D01*
X151872380Y-114795238D01*
X151872380Y-114604761D01*
X151920000Y-114509523D01*
X151967619Y-114461904D01*
X152062857Y-114414285D01*
X152110476Y-114414285D01*
X152205714Y-114461904D01*
X152253333Y-114509523D01*
X152300952Y-114604761D01*
X152300952Y-114795238D01*
X152348571Y-114890476D01*
X152396190Y-114938095D01*
X152491428Y-114985714D01*
X152681904Y-114985714D01*
X152777142Y-114938095D01*
X152824761Y-114890476D01*
X152872380Y-114795238D01*
X152872380Y-114604761D01*
X152824761Y-114509523D01*
X152777142Y-114461904D01*
X152681904Y-114414285D01*
X152491428Y-114414285D01*
X152396190Y-114461904D01*
X152348571Y-114509523D01*
X152300952Y-114604761D01*
%TO.C,R11*%
X120367142Y-94982380D02*
X120033809Y-94506190D01*
X119795714Y-94982380D02*
X119795714Y-93982380D01*
X120176666Y-93982380D01*
X120271904Y-94030000D01*
X120319523Y-94077619D01*
X120367142Y-94172857D01*
X120367142Y-94315714D01*
X120319523Y-94410952D01*
X120271904Y-94458571D01*
X120176666Y-94506190D01*
X119795714Y-94506190D01*
X121319523Y-94982380D02*
X120748095Y-94982380D01*
X121033809Y-94982380D02*
X121033809Y-93982380D01*
X120938571Y-94125238D01*
X120843333Y-94220476D01*
X120748095Y-94268095D01*
X122271904Y-94982380D02*
X121700476Y-94982380D01*
X121986190Y-94982380D02*
X121986190Y-93982380D01*
X121890952Y-94125238D01*
X121795714Y-94220476D01*
X121700476Y-94268095D01*
%TO.C,R10*%
X134407142Y-118502380D02*
X134073809Y-118026190D01*
X133835714Y-118502380D02*
X133835714Y-117502380D01*
X134216666Y-117502380D01*
X134311904Y-117550000D01*
X134359523Y-117597619D01*
X134407142Y-117692857D01*
X134407142Y-117835714D01*
X134359523Y-117930952D01*
X134311904Y-117978571D01*
X134216666Y-118026190D01*
X133835714Y-118026190D01*
X135359523Y-118502380D02*
X134788095Y-118502380D01*
X135073809Y-118502380D02*
X135073809Y-117502380D01*
X134978571Y-117645238D01*
X134883333Y-117740476D01*
X134788095Y-117788095D01*
X135978571Y-117502380D02*
X136073809Y-117502380D01*
X136169047Y-117550000D01*
X136216666Y-117597619D01*
X136264285Y-117692857D01*
X136311904Y-117883333D01*
X136311904Y-118121428D01*
X136264285Y-118311904D01*
X136216666Y-118407142D01*
X136169047Y-118454761D01*
X136073809Y-118502380D01*
X135978571Y-118502380D01*
X135883333Y-118454761D01*
X135835714Y-118407142D01*
X135788095Y-118311904D01*
X135740476Y-118121428D01*
X135740476Y-117883333D01*
X135788095Y-117692857D01*
X135835714Y-117597619D01*
X135883333Y-117550000D01*
X135978571Y-117502380D01*
%TO.C,D8*%
X133311904Y-95232380D02*
X133311904Y-94232380D01*
X133550000Y-94232380D01*
X133692857Y-94280000D01*
X133788095Y-94375238D01*
X133835714Y-94470476D01*
X133883333Y-94660952D01*
X133883333Y-94803809D01*
X133835714Y-94994285D01*
X133788095Y-95089523D01*
X133692857Y-95184761D01*
X133550000Y-95232380D01*
X133311904Y-95232380D01*
X134454761Y-94660952D02*
X134359523Y-94613333D01*
X134311904Y-94565714D01*
X134264285Y-94470476D01*
X134264285Y-94422857D01*
X134311904Y-94327619D01*
X134359523Y-94280000D01*
X134454761Y-94232380D01*
X134645238Y-94232380D01*
X134740476Y-94280000D01*
X134788095Y-94327619D01*
X134835714Y-94422857D01*
X134835714Y-94470476D01*
X134788095Y-94565714D01*
X134740476Y-94613333D01*
X134645238Y-94660952D01*
X134454761Y-94660952D01*
X134359523Y-94708571D01*
X134311904Y-94756190D01*
X134264285Y-94851428D01*
X134264285Y-95041904D01*
X134311904Y-95137142D01*
X134359523Y-95184761D01*
X134454761Y-95232380D01*
X134645238Y-95232380D01*
X134740476Y-95184761D01*
X134788095Y-95137142D01*
X134835714Y-95041904D01*
X134835714Y-94851428D01*
X134788095Y-94756190D01*
X134740476Y-94708571D01*
X134645238Y-94660952D01*
X129978095Y-95552380D02*
X129978095Y-94552380D01*
X130549523Y-95552380D02*
X130120952Y-94980952D01*
X130549523Y-94552380D02*
X129978095Y-95123809D01*
%TO.C,C5*%
X143083333Y-106807142D02*
X143035714Y-106854761D01*
X142892857Y-106902380D01*
X142797619Y-106902380D01*
X142654761Y-106854761D01*
X142559523Y-106759523D01*
X142511904Y-106664285D01*
X142464285Y-106473809D01*
X142464285Y-106330952D01*
X142511904Y-106140476D01*
X142559523Y-106045238D01*
X142654761Y-105950000D01*
X142797619Y-105902380D01*
X142892857Y-105902380D01*
X143035714Y-105950000D01*
X143083333Y-105997619D01*
X143988095Y-105902380D02*
X143511904Y-105902380D01*
X143464285Y-106378571D01*
X143511904Y-106330952D01*
X143607142Y-106283333D01*
X143845238Y-106283333D01*
X143940476Y-106330952D01*
X143988095Y-106378571D01*
X144035714Y-106473809D01*
X144035714Y-106711904D01*
X143988095Y-106807142D01*
X143940476Y-106854761D01*
X143845238Y-106902380D01*
X143607142Y-106902380D01*
X143511904Y-106854761D01*
X143464285Y-106807142D01*
%TO.C,SW4*%
X149743333Y-124165809D02*
X149857619Y-124203904D01*
X150048095Y-124203904D01*
X150124285Y-124165809D01*
X150162380Y-124127714D01*
X150200476Y-124051523D01*
X150200476Y-123975333D01*
X150162380Y-123899142D01*
X150124285Y-123861047D01*
X150048095Y-123822952D01*
X149895714Y-123784857D01*
X149819523Y-123746761D01*
X149781428Y-123708666D01*
X149743333Y-123632476D01*
X149743333Y-123556285D01*
X149781428Y-123480095D01*
X149819523Y-123442000D01*
X149895714Y-123403904D01*
X150086190Y-123403904D01*
X150200476Y-123442000D01*
X150467142Y-123403904D02*
X150657619Y-124203904D01*
X150810000Y-123632476D01*
X150962380Y-124203904D01*
X151152857Y-123403904D01*
X151800476Y-123670571D02*
X151800476Y-124203904D01*
X151610000Y-123365809D02*
X151419523Y-123937238D01*
X151914761Y-123937238D01*
%TO.C,J11*%
X92852380Y-111759523D02*
X93566666Y-111759523D01*
X93709523Y-111807142D01*
X93804761Y-111902380D01*
X93852380Y-112045238D01*
X93852380Y-112140476D01*
X93852380Y-110759523D02*
X93852380Y-111330952D01*
X93852380Y-111045238D02*
X92852380Y-111045238D01*
X92995238Y-111140476D01*
X93090476Y-111235714D01*
X93138095Y-111330952D01*
X93852380Y-109807142D02*
X93852380Y-110378571D01*
X93852380Y-110092857D02*
X92852380Y-110092857D01*
X92995238Y-110188095D01*
X93090476Y-110283333D01*
X93138095Y-110378571D01*
%TO.C,U5*%
X138282380Y-111921904D02*
X139091904Y-111921904D01*
X139187142Y-111874285D01*
X139234761Y-111826666D01*
X139282380Y-111731428D01*
X139282380Y-111540952D01*
X139234761Y-111445714D01*
X139187142Y-111398095D01*
X139091904Y-111350476D01*
X138282380Y-111350476D01*
X138282380Y-110398095D02*
X138282380Y-110874285D01*
X138758571Y-110921904D01*
X138710952Y-110874285D01*
X138663333Y-110779047D01*
X138663333Y-110540952D01*
X138710952Y-110445714D01*
X138758571Y-110398095D01*
X138853809Y-110350476D01*
X139091904Y-110350476D01*
X139187142Y-110398095D01*
X139234761Y-110445714D01*
X139282380Y-110540952D01*
X139282380Y-110779047D01*
X139234761Y-110874285D01*
X139187142Y-110921904D01*
%TO.C,SW5*%
X99004761Y-67683333D02*
X99052380Y-67540476D01*
X99052380Y-67302380D01*
X99004761Y-67207142D01*
X98957142Y-67159523D01*
X98861904Y-67111904D01*
X98766666Y-67111904D01*
X98671428Y-67159523D01*
X98623809Y-67207142D01*
X98576190Y-67302380D01*
X98528571Y-67492857D01*
X98480952Y-67588095D01*
X98433333Y-67635714D01*
X98338095Y-67683333D01*
X98242857Y-67683333D01*
X98147619Y-67635714D01*
X98100000Y-67588095D01*
X98052380Y-67492857D01*
X98052380Y-67254761D01*
X98100000Y-67111904D01*
X98052380Y-66778571D02*
X99052380Y-66540476D01*
X98338095Y-66350000D01*
X99052380Y-66159523D01*
X98052380Y-65921428D01*
X98052380Y-65064285D02*
X98052380Y-65540476D01*
X98528571Y-65588095D01*
X98480952Y-65540476D01*
X98433333Y-65445238D01*
X98433333Y-65207142D01*
X98480952Y-65111904D01*
X98528571Y-65064285D01*
X98623809Y-65016666D01*
X98861904Y-65016666D01*
X98957142Y-65064285D01*
X99004761Y-65111904D01*
X99052380Y-65207142D01*
X99052380Y-65445238D01*
X99004761Y-65540476D01*
X98957142Y-65588095D01*
%TO.C,R25*%
X112572380Y-86942857D02*
X112096190Y-87276190D01*
X112572380Y-87514285D02*
X111572380Y-87514285D01*
X111572380Y-87133333D01*
X111620000Y-87038095D01*
X111667619Y-86990476D01*
X111762857Y-86942857D01*
X111905714Y-86942857D01*
X112000952Y-86990476D01*
X112048571Y-87038095D01*
X112096190Y-87133333D01*
X112096190Y-87514285D01*
X111667619Y-86561904D02*
X111620000Y-86514285D01*
X111572380Y-86419047D01*
X111572380Y-86180952D01*
X111620000Y-86085714D01*
X111667619Y-86038095D01*
X111762857Y-85990476D01*
X111858095Y-85990476D01*
X112000952Y-86038095D01*
X112572380Y-86609523D01*
X112572380Y-85990476D01*
X111572380Y-85085714D02*
X111572380Y-85561904D01*
X112048571Y-85609523D01*
X112000952Y-85561904D01*
X111953333Y-85466666D01*
X111953333Y-85228571D01*
X112000952Y-85133333D01*
X112048571Y-85085714D01*
X112143809Y-85038095D01*
X112381904Y-85038095D01*
X112477142Y-85085714D01*
X112524761Y-85133333D01*
X112572380Y-85228571D01*
X112572380Y-85466666D01*
X112524761Y-85561904D01*
X112477142Y-85609523D01*
%TO.C,J9*%
X162726666Y-130302380D02*
X162726666Y-131016666D01*
X162679047Y-131159523D01*
X162583809Y-131254761D01*
X162440952Y-131302380D01*
X162345714Y-131302380D01*
X163250476Y-131302380D02*
X163440952Y-131302380D01*
X163536190Y-131254761D01*
X163583809Y-131207142D01*
X163679047Y-131064285D01*
X163726666Y-130873809D01*
X163726666Y-130492857D01*
X163679047Y-130397619D01*
X163631428Y-130350000D01*
X163536190Y-130302380D01*
X163345714Y-130302380D01*
X163250476Y-130350000D01*
X163202857Y-130397619D01*
X163155238Y-130492857D01*
X163155238Y-130730952D01*
X163202857Y-130826190D01*
X163250476Y-130873809D01*
X163345714Y-130921428D01*
X163536190Y-130921428D01*
X163631428Y-130873809D01*
X163679047Y-130826190D01*
X163726666Y-130730952D01*
%TO.C,C3*%
X180207142Y-75366666D02*
X180254761Y-75414285D01*
X180302380Y-75557142D01*
X180302380Y-75652380D01*
X180254761Y-75795238D01*
X180159523Y-75890476D01*
X180064285Y-75938095D01*
X179873809Y-75985714D01*
X179730952Y-75985714D01*
X179540476Y-75938095D01*
X179445238Y-75890476D01*
X179350000Y-75795238D01*
X179302380Y-75652380D01*
X179302380Y-75557142D01*
X179350000Y-75414285D01*
X179397619Y-75366666D01*
X179302380Y-75033333D02*
X179302380Y-74414285D01*
X179683333Y-74747619D01*
X179683333Y-74604761D01*
X179730952Y-74509523D01*
X179778571Y-74461904D01*
X179873809Y-74414285D01*
X180111904Y-74414285D01*
X180207142Y-74461904D01*
X180254761Y-74509523D01*
X180302380Y-74604761D01*
X180302380Y-74890476D01*
X180254761Y-74985714D01*
X180207142Y-75033333D01*
%TO.C,R12*%
X107327142Y-99752380D02*
X106993809Y-99276190D01*
X106755714Y-99752380D02*
X106755714Y-98752380D01*
X107136666Y-98752380D01*
X107231904Y-98800000D01*
X107279523Y-98847619D01*
X107327142Y-98942857D01*
X107327142Y-99085714D01*
X107279523Y-99180952D01*
X107231904Y-99228571D01*
X107136666Y-99276190D01*
X106755714Y-99276190D01*
X108279523Y-99752380D02*
X107708095Y-99752380D01*
X107993809Y-99752380D02*
X107993809Y-98752380D01*
X107898571Y-98895238D01*
X107803333Y-98990476D01*
X107708095Y-99038095D01*
X108660476Y-98847619D02*
X108708095Y-98800000D01*
X108803333Y-98752380D01*
X109041428Y-98752380D01*
X109136666Y-98800000D01*
X109184285Y-98847619D01*
X109231904Y-98942857D01*
X109231904Y-99038095D01*
X109184285Y-99180952D01*
X108612857Y-99752380D01*
X109231904Y-99752380D01*
%TO.C,C2*%
X167883333Y-115357142D02*
X167835714Y-115404761D01*
X167692857Y-115452380D01*
X167597619Y-115452380D01*
X167454761Y-115404761D01*
X167359523Y-115309523D01*
X167311904Y-115214285D01*
X167264285Y-115023809D01*
X167264285Y-114880952D01*
X167311904Y-114690476D01*
X167359523Y-114595238D01*
X167454761Y-114500000D01*
X167597619Y-114452380D01*
X167692857Y-114452380D01*
X167835714Y-114500000D01*
X167883333Y-114547619D01*
X168264285Y-114547619D02*
X168311904Y-114500000D01*
X168407142Y-114452380D01*
X168645238Y-114452380D01*
X168740476Y-114500000D01*
X168788095Y-114547619D01*
X168835714Y-114642857D01*
X168835714Y-114738095D01*
X168788095Y-114880952D01*
X168216666Y-115452380D01*
X168835714Y-115452380D01*
%TO.C,SW1*%
X104493333Y-124165809D02*
X104607619Y-124203904D01*
X104798095Y-124203904D01*
X104874285Y-124165809D01*
X104912380Y-124127714D01*
X104950476Y-124051523D01*
X104950476Y-123975333D01*
X104912380Y-123899142D01*
X104874285Y-123861047D01*
X104798095Y-123822952D01*
X104645714Y-123784857D01*
X104569523Y-123746761D01*
X104531428Y-123708666D01*
X104493333Y-123632476D01*
X104493333Y-123556285D01*
X104531428Y-123480095D01*
X104569523Y-123442000D01*
X104645714Y-123403904D01*
X104836190Y-123403904D01*
X104950476Y-123442000D01*
X105217142Y-123403904D02*
X105407619Y-124203904D01*
X105560000Y-123632476D01*
X105712380Y-124203904D01*
X105902857Y-123403904D01*
X106626666Y-124203904D02*
X106169523Y-124203904D01*
X106398095Y-124203904D02*
X106398095Y-123403904D01*
X106321904Y-123518190D01*
X106245714Y-123594380D01*
X106169523Y-123632476D01*
%TO.C,J4*%
X149976666Y-130052380D02*
X149976666Y-130766666D01*
X149929047Y-130909523D01*
X149833809Y-131004761D01*
X149690952Y-131052380D01*
X149595714Y-131052380D01*
X150881428Y-130385714D02*
X150881428Y-131052380D01*
X150643333Y-130004761D02*
X150405238Y-130719047D01*
X151024285Y-130719047D01*
%TO.C,SW6*%
X107754761Y-67733333D02*
X107802380Y-67590476D01*
X107802380Y-67352380D01*
X107754761Y-67257142D01*
X107707142Y-67209523D01*
X107611904Y-67161904D01*
X107516666Y-67161904D01*
X107421428Y-67209523D01*
X107373809Y-67257142D01*
X107326190Y-67352380D01*
X107278571Y-67542857D01*
X107230952Y-67638095D01*
X107183333Y-67685714D01*
X107088095Y-67733333D01*
X106992857Y-67733333D01*
X106897619Y-67685714D01*
X106850000Y-67638095D01*
X106802380Y-67542857D01*
X106802380Y-67304761D01*
X106850000Y-67161904D01*
X106802380Y-66828571D02*
X107802380Y-66590476D01*
X107088095Y-66400000D01*
X107802380Y-66209523D01*
X106802380Y-65971428D01*
X106802380Y-65161904D02*
X106802380Y-65352380D01*
X106850000Y-65447619D01*
X106897619Y-65495238D01*
X107040476Y-65590476D01*
X107230952Y-65638095D01*
X107611904Y-65638095D01*
X107707142Y-65590476D01*
X107754761Y-65542857D01*
X107802380Y-65447619D01*
X107802380Y-65257142D01*
X107754761Y-65161904D01*
X107707142Y-65114285D01*
X107611904Y-65066666D01*
X107373809Y-65066666D01*
X107278571Y-65114285D01*
X107230952Y-65161904D01*
X107183333Y-65257142D01*
X107183333Y-65447619D01*
X107230952Y-65542857D01*
X107278571Y-65590476D01*
X107373809Y-65638095D01*
%TO.C,R9*%
X121233333Y-118502380D02*
X120900000Y-118026190D01*
X120661904Y-118502380D02*
X120661904Y-117502380D01*
X121042857Y-117502380D01*
X121138095Y-117550000D01*
X121185714Y-117597619D01*
X121233333Y-117692857D01*
X121233333Y-117835714D01*
X121185714Y-117930952D01*
X121138095Y-117978571D01*
X121042857Y-118026190D01*
X120661904Y-118026190D01*
X121709523Y-118502380D02*
X121900000Y-118502380D01*
X121995238Y-118454761D01*
X122042857Y-118407142D01*
X122138095Y-118264285D01*
X122185714Y-118073809D01*
X122185714Y-117692857D01*
X122138095Y-117597619D01*
X122090476Y-117550000D01*
X121995238Y-117502380D01*
X121804761Y-117502380D01*
X121709523Y-117550000D01*
X121661904Y-117597619D01*
X121614285Y-117692857D01*
X121614285Y-117930952D01*
X121661904Y-118026190D01*
X121709523Y-118073809D01*
X121804761Y-118121428D01*
X121995238Y-118121428D01*
X122090476Y-118073809D01*
X122138095Y-118026190D01*
X122185714Y-117930952D01*
%TO.C,J7*%
X94830380Y-75745333D02*
X95544666Y-75745333D01*
X95687523Y-75792952D01*
X95782761Y-75888190D01*
X95830380Y-76031047D01*
X95830380Y-76126285D01*
X94830380Y-75364380D02*
X94830380Y-74697714D01*
X95830380Y-75126285D01*
%TO.C,U4*%
X123907380Y-111721904D02*
X124716904Y-111721904D01*
X124812142Y-111674285D01*
X124859761Y-111626666D01*
X124907380Y-111531428D01*
X124907380Y-111340952D01*
X124859761Y-111245714D01*
X124812142Y-111198095D01*
X124716904Y-111150476D01*
X123907380Y-111150476D01*
X124240714Y-110245714D02*
X124907380Y-110245714D01*
X123859761Y-110483809D02*
X124574047Y-110721904D01*
X124574047Y-110102857D01*
%TO.C,J1*%
X105726666Y-130052380D02*
X105726666Y-130766666D01*
X105679047Y-130909523D01*
X105583809Y-131004761D01*
X105440952Y-131052380D01*
X105345714Y-131052380D01*
X106726666Y-131052380D02*
X106155238Y-131052380D01*
X106440952Y-131052380D02*
X106440952Y-130052380D01*
X106345714Y-130195238D01*
X106250476Y-130290476D01*
X106155238Y-130338095D01*
%TO.C,REF\u002A\u002A*%
G36*
X110203802Y-75714059D02*
G01*
X110239786Y-75535332D01*
X110289759Y-75373845D01*
X110353668Y-75229726D01*
X110431462Y-75103106D01*
X110523089Y-74994115D01*
X110628497Y-74902883D01*
X110673662Y-74871932D01*
X110774611Y-74815785D01*
X110877901Y-74776174D01*
X110987989Y-74752014D01*
X111109330Y-74742219D01*
X111201836Y-74743265D01*
X111331490Y-74754231D01*
X111444084Y-74776046D01*
X111542875Y-74809714D01*
X111631121Y-74856236D01*
X111679986Y-74890448D01*
X111709353Y-74912362D01*
X111731043Y-74927333D01*
X111739253Y-74931733D01*
X111740868Y-74920904D01*
X111742159Y-74890251D01*
X111743138Y-74842526D01*
X111743817Y-74780479D01*
X111744210Y-74706862D01*
X111744330Y-74624427D01*
X111744188Y-74535925D01*
X111743797Y-74444107D01*
X111743171Y-74351724D01*
X111742320Y-74261528D01*
X111741260Y-74176271D01*
X111740001Y-74098703D01*
X111738556Y-74031576D01*
X111736938Y-73977641D01*
X111735161Y-73939650D01*
X111734669Y-73932667D01*
X111727092Y-73862251D01*
X111715531Y-73807102D01*
X111697792Y-73759981D01*
X111671682Y-73713647D01*
X111665415Y-73704067D01*
X111640983Y-73667378D01*
X112546311Y-73667378D01*
X112546507Y-75352245D01*
X112546526Y-75586662D01*
X112546552Y-75799603D01*
X112546625Y-75992168D01*
X112546782Y-76165459D01*
X112547064Y-76320576D01*
X112547509Y-76458620D01*
X112548156Y-76580692D01*
X112549045Y-76687894D01*
X112550213Y-76781326D01*
X112551701Y-76862090D01*
X112553546Y-76931286D01*
X112555789Y-76990015D01*
X112558469Y-77039379D01*
X112561623Y-77080478D01*
X112565292Y-77114413D01*
X112569513Y-77142286D01*
X112574327Y-77165198D01*
X112579773Y-77184249D01*
X112585888Y-77200540D01*
X112592712Y-77215173D01*
X112600285Y-77229249D01*
X112608645Y-77243868D01*
X112613839Y-77252974D01*
X112648104Y-77313689D01*
X111789955Y-77313689D01*
X111789955Y-77217733D01*
X111789224Y-77174370D01*
X111787272Y-77141205D01*
X111784463Y-77123424D01*
X111783221Y-77121778D01*
X111771799Y-77128662D01*
X111749084Y-77146505D01*
X111726385Y-77165879D01*
X111671800Y-77206614D01*
X111602321Y-77247617D01*
X111525270Y-77285123D01*
X111447965Y-77315364D01*
X111417113Y-77325012D01*
X111348616Y-77339578D01*
X111265764Y-77349539D01*
X111176371Y-77354583D01*
X111088248Y-77354396D01*
X111009207Y-77348666D01*
X110971511Y-77342858D01*
X110833414Y-77304797D01*
X110706113Y-77247073D01*
X110590292Y-77170211D01*
X110486637Y-77074739D01*
X110395833Y-76961179D01*
X110329031Y-76850381D01*
X110274164Y-76733625D01*
X110232163Y-76614276D01*
X110202167Y-76488283D01*
X110183311Y-76351594D01*
X110174732Y-76200158D01*
X110174006Y-76122711D01*
X110176100Y-76065934D01*
X111005217Y-76065934D01*
X111005424Y-76159002D01*
X111008337Y-76246692D01*
X111014000Y-76323772D01*
X111022455Y-76385009D01*
X111025038Y-76397350D01*
X111056840Y-76504633D01*
X111098498Y-76591658D01*
X111150363Y-76658642D01*
X111212781Y-76705805D01*
X111286100Y-76733365D01*
X111370669Y-76741541D01*
X111466835Y-76730551D01*
X111530311Y-76714829D01*
X111579454Y-76696639D01*
X111633583Y-76670791D01*
X111674244Y-76647089D01*
X111744800Y-76600721D01*
X111744800Y-75450530D01*
X111677392Y-75406962D01*
X111598867Y-75366040D01*
X111514681Y-75339389D01*
X111429557Y-75327465D01*
X111348216Y-75330722D01*
X111275380Y-75349615D01*
X111243426Y-75365184D01*
X111185501Y-75408181D01*
X111136544Y-75464953D01*
X111095390Y-75537575D01*
X111060874Y-75628121D01*
X111031833Y-75738666D01*
X111030552Y-75744533D01*
X111020381Y-75806788D01*
X111012739Y-75884594D01*
X111007670Y-75972720D01*
X111005217Y-76065934D01*
X110176100Y-76065934D01*
X110181857Y-75909895D01*
X110203802Y-75714059D01*
G37*
D11*
X110203802Y-75714059D02*
X110239786Y-75535332D01*
X110289759Y-75373845D01*
X110353668Y-75229726D01*
X110431462Y-75103106D01*
X110523089Y-74994115D01*
X110628497Y-74902883D01*
X110673662Y-74871932D01*
X110774611Y-74815785D01*
X110877901Y-74776174D01*
X110987989Y-74752014D01*
X111109330Y-74742219D01*
X111201836Y-74743265D01*
X111331490Y-74754231D01*
X111444084Y-74776046D01*
X111542875Y-74809714D01*
X111631121Y-74856236D01*
X111679986Y-74890448D01*
X111709353Y-74912362D01*
X111731043Y-74927333D01*
X111739253Y-74931733D01*
X111740868Y-74920904D01*
X111742159Y-74890251D01*
X111743138Y-74842526D01*
X111743817Y-74780479D01*
X111744210Y-74706862D01*
X111744330Y-74624427D01*
X111744188Y-74535925D01*
X111743797Y-74444107D01*
X111743171Y-74351724D01*
X111742320Y-74261528D01*
X111741260Y-74176271D01*
X111740001Y-74098703D01*
X111738556Y-74031576D01*
X111736938Y-73977641D01*
X111735161Y-73939650D01*
X111734669Y-73932667D01*
X111727092Y-73862251D01*
X111715531Y-73807102D01*
X111697792Y-73759981D01*
X111671682Y-73713647D01*
X111665415Y-73704067D01*
X111640983Y-73667378D01*
X112546311Y-73667378D01*
X112546507Y-75352245D01*
X112546526Y-75586662D01*
X112546552Y-75799603D01*
X112546625Y-75992168D01*
X112546782Y-76165459D01*
X112547064Y-76320576D01*
X112547509Y-76458620D01*
X112548156Y-76580692D01*
X112549045Y-76687894D01*
X112550213Y-76781326D01*
X112551701Y-76862090D01*
X112553546Y-76931286D01*
X112555789Y-76990015D01*
X112558469Y-77039379D01*
X112561623Y-77080478D01*
X112565292Y-77114413D01*
X112569513Y-77142286D01*
X112574327Y-77165198D01*
X112579773Y-77184249D01*
X112585888Y-77200540D01*
X112592712Y-77215173D01*
X112600285Y-77229249D01*
X112608645Y-77243868D01*
X112613839Y-77252974D01*
X112648104Y-77313689D01*
X111789955Y-77313689D01*
X111789955Y-77217733D01*
X111789224Y-77174370D01*
X111787272Y-77141205D01*
X111784463Y-77123424D01*
X111783221Y-77121778D01*
X111771799Y-77128662D01*
X111749084Y-77146505D01*
X111726385Y-77165879D01*
X111671800Y-77206614D01*
X111602321Y-77247617D01*
X111525270Y-77285123D01*
X111447965Y-77315364D01*
X111417113Y-77325012D01*
X111348616Y-77339578D01*
X111265764Y-77349539D01*
X111176371Y-77354583D01*
X111088248Y-77354396D01*
X111009207Y-77348666D01*
X110971511Y-77342858D01*
X110833414Y-77304797D01*
X110706113Y-77247073D01*
X110590292Y-77170211D01*
X110486637Y-77074739D01*
X110395833Y-76961179D01*
X110329031Y-76850381D01*
X110274164Y-76733625D01*
X110232163Y-76614276D01*
X110202167Y-76488283D01*
X110183311Y-76351594D01*
X110174732Y-76200158D01*
X110174006Y-76122711D01*
X110176100Y-76065934D01*
X111005217Y-76065934D01*
X111005424Y-76159002D01*
X111008337Y-76246692D01*
X111014000Y-76323772D01*
X111022455Y-76385009D01*
X111025038Y-76397350D01*
X111056840Y-76504633D01*
X111098498Y-76591658D01*
X111150363Y-76658642D01*
X111212781Y-76705805D01*
X111286100Y-76733365D01*
X111370669Y-76741541D01*
X111466835Y-76730551D01*
X111530311Y-76714829D01*
X111579454Y-76696639D01*
X111633583Y-76670791D01*
X111674244Y-76647089D01*
X111744800Y-76600721D01*
X111744800Y-75450530D01*
X111677392Y-75406962D01*
X111598867Y-75366040D01*
X111514681Y-75339389D01*
X111429557Y-75327465D01*
X111348216Y-75330722D01*
X111275380Y-75349615D01*
X111243426Y-75365184D01*
X111185501Y-75408181D01*
X111136544Y-75464953D01*
X111095390Y-75537575D01*
X111060874Y-75628121D01*
X111031833Y-75738666D01*
X111030552Y-75744533D01*
X111020381Y-75806788D01*
X111012739Y-75884594D01*
X111007670Y-75972720D01*
X111005217Y-76065934D01*
X110176100Y-76065934D01*
X110181857Y-75909895D01*
X110203802Y-75714059D01*
G36*
X111323065Y-78149163D02*
G01*
X111401772Y-78149542D01*
X111462863Y-78150333D01*
X111508817Y-78151670D01*
X111542114Y-78153683D01*
X111565236Y-78156506D01*
X111580662Y-78160269D01*
X111590871Y-78165105D01*
X111595813Y-78168822D01*
X111621457Y-78201358D01*
X111624559Y-78235138D01*
X111608711Y-78265826D01*
X111598348Y-78278089D01*
X111587196Y-78286450D01*
X111571035Y-78291657D01*
X111545642Y-78294457D01*
X111506798Y-78295596D01*
X111450280Y-78295821D01*
X111439180Y-78295822D01*
X111293244Y-78295822D01*
X111293244Y-78566756D01*
X111293148Y-78652154D01*
X111292711Y-78717864D01*
X111291712Y-78766774D01*
X111289928Y-78801773D01*
X111287137Y-78825749D01*
X111283117Y-78841593D01*
X111277645Y-78852191D01*
X111270666Y-78860267D01*
X111237734Y-78880112D01*
X111203354Y-78878548D01*
X111172176Y-78855906D01*
X111169886Y-78853100D01*
X111162429Y-78842492D01*
X111156747Y-78830081D01*
X111152601Y-78812850D01*
X111149750Y-78787784D01*
X111147954Y-78751867D01*
X111146972Y-78702083D01*
X111146564Y-78635417D01*
X111146489Y-78559589D01*
X111146489Y-78295822D01*
X111007127Y-78295822D01*
X110947322Y-78295418D01*
X110905918Y-78293840D01*
X110878748Y-78290547D01*
X110861646Y-78284992D01*
X110850443Y-78276631D01*
X110849083Y-78275178D01*
X110832725Y-78241939D01*
X110834172Y-78204362D01*
X110852978Y-78171645D01*
X110860250Y-78165298D01*
X110869627Y-78160266D01*
X110883609Y-78156396D01*
X110904696Y-78153537D01*
X110935389Y-78151535D01*
X110978189Y-78150239D01*
X111035595Y-78149498D01*
X111110110Y-78149158D01*
X111204233Y-78149068D01*
X111224260Y-78149067D01*
X111323065Y-78149163D01*
G37*
X111323065Y-78149163D02*
X111401772Y-78149542D01*
X111462863Y-78150333D01*
X111508817Y-78151670D01*
X111542114Y-78153683D01*
X111565236Y-78156506D01*
X111580662Y-78160269D01*
X111590871Y-78165105D01*
X111595813Y-78168822D01*
X111621457Y-78201358D01*
X111624559Y-78235138D01*
X111608711Y-78265826D01*
X111598348Y-78278089D01*
X111587196Y-78286450D01*
X111571035Y-78291657D01*
X111545642Y-78294457D01*
X111506798Y-78295596D01*
X111450280Y-78295821D01*
X111439180Y-78295822D01*
X111293244Y-78295822D01*
X111293244Y-78566756D01*
X111293148Y-78652154D01*
X111292711Y-78717864D01*
X111291712Y-78766774D01*
X111289928Y-78801773D01*
X111287137Y-78825749D01*
X111283117Y-78841593D01*
X111277645Y-78852191D01*
X111270666Y-78860267D01*
X111237734Y-78880112D01*
X111203354Y-78878548D01*
X111172176Y-78855906D01*
X111169886Y-78853100D01*
X111162429Y-78842492D01*
X111156747Y-78830081D01*
X111152601Y-78812850D01*
X111149750Y-78787784D01*
X111147954Y-78751867D01*
X111146972Y-78702083D01*
X111146564Y-78635417D01*
X111146489Y-78559589D01*
X111146489Y-78295822D01*
X111007127Y-78295822D01*
X110947322Y-78295418D01*
X110905918Y-78293840D01*
X110878748Y-78290547D01*
X110861646Y-78284992D01*
X110850443Y-78276631D01*
X110849083Y-78275178D01*
X110832725Y-78241939D01*
X110834172Y-78204362D01*
X110852978Y-78171645D01*
X110860250Y-78165298D01*
X110869627Y-78160266D01*
X110883609Y-78156396D01*
X110904696Y-78153537D01*
X110935389Y-78151535D01*
X110978189Y-78150239D01*
X111035595Y-78149498D01*
X111110110Y-78149158D01*
X111204233Y-78149068D01*
X111224260Y-78149067D01*
X111323065Y-78149163D01*
G36*
X100089002Y-78225055D02*
G01*
X100097170Y-78191778D01*
X100110444Y-78169759D01*
X100130026Y-78156739D01*
X100157117Y-78150457D01*
X100192918Y-78148653D01*
X100238629Y-78149066D01*
X100278111Y-78149467D01*
X100393800Y-78152259D01*
X100490689Y-78160550D01*
X100572081Y-78175232D01*
X100641277Y-78197193D01*
X100701580Y-78227322D01*
X100756292Y-78266510D01*
X100775833Y-78283532D01*
X100808250Y-78323363D01*
X100837480Y-78377413D01*
X100860009Y-78437323D01*
X100872321Y-78494739D01*
X100873600Y-78515956D01*
X100865583Y-78574769D01*
X100844101Y-78639013D01*
X100813001Y-78699821D01*
X100776134Y-78748330D01*
X100770146Y-78754182D01*
X100719421Y-78795321D01*
X100663875Y-78827435D01*
X100600304Y-78851365D01*
X100525506Y-78867953D01*
X100436278Y-78878041D01*
X100329418Y-78882469D01*
X100280472Y-78882845D01*
X100218238Y-78882545D01*
X100174472Y-78881292D01*
X100145069Y-78878554D01*
X100125921Y-78873801D01*
X100112923Y-78866501D01*
X100105955Y-78860267D01*
X100099374Y-78852694D01*
X100094212Y-78842924D01*
X100090297Y-78828340D01*
X100087457Y-78806326D01*
X100085520Y-78774264D01*
X100084492Y-78736089D01*
X100230133Y-78736089D01*
X100323266Y-78736004D01*
X100379307Y-78734396D01*
X100438001Y-78730256D01*
X100486972Y-78724464D01*
X100488462Y-78724226D01*
X100567608Y-78705090D01*
X100628998Y-78675287D01*
X100675695Y-78632878D01*
X100705365Y-78586961D01*
X100723647Y-78536026D01*
X100722229Y-78488200D01*
X100701012Y-78436933D01*
X100659511Y-78383899D01*
X100602002Y-78344600D01*
X100527250Y-78318331D01*
X100477292Y-78309035D01*
X100420584Y-78302507D01*
X100360481Y-78297782D01*
X100309361Y-78295817D01*
X100306333Y-78295808D01*
X100230133Y-78295822D01*
X100230133Y-78736089D01*
X100084492Y-78736089D01*
X100084316Y-78729536D01*
X100083672Y-78669526D01*
X100083417Y-78591617D01*
X100083378Y-78515956D01*
X100083130Y-78415041D01*
X100083183Y-78334427D01*
X100084143Y-78295822D01*
X100084740Y-78271851D01*
X100089002Y-78225055D01*
G37*
X100089002Y-78225055D02*
X100097170Y-78191778D01*
X100110444Y-78169759D01*
X100130026Y-78156739D01*
X100157117Y-78150457D01*
X100192918Y-78148653D01*
X100238629Y-78149066D01*
X100278111Y-78149467D01*
X100393800Y-78152259D01*
X100490689Y-78160550D01*
X100572081Y-78175232D01*
X100641277Y-78197193D01*
X100701580Y-78227322D01*
X100756292Y-78266510D01*
X100775833Y-78283532D01*
X100808250Y-78323363D01*
X100837480Y-78377413D01*
X100860009Y-78437323D01*
X100872321Y-78494739D01*
X100873600Y-78515956D01*
X100865583Y-78574769D01*
X100844101Y-78639013D01*
X100813001Y-78699821D01*
X100776134Y-78748330D01*
X100770146Y-78754182D01*
X100719421Y-78795321D01*
X100663875Y-78827435D01*
X100600304Y-78851365D01*
X100525506Y-78867953D01*
X100436278Y-78878041D01*
X100329418Y-78882469D01*
X100280472Y-78882845D01*
X100218238Y-78882545D01*
X100174472Y-78881292D01*
X100145069Y-78878554D01*
X100125921Y-78873801D01*
X100112923Y-78866501D01*
X100105955Y-78860267D01*
X100099374Y-78852694D01*
X100094212Y-78842924D01*
X100090297Y-78828340D01*
X100087457Y-78806326D01*
X100085520Y-78774264D01*
X100084492Y-78736089D01*
X100230133Y-78736089D01*
X100323266Y-78736004D01*
X100379307Y-78734396D01*
X100438001Y-78730256D01*
X100486972Y-78724464D01*
X100488462Y-78724226D01*
X100567608Y-78705090D01*
X100628998Y-78675287D01*
X100675695Y-78632878D01*
X100705365Y-78586961D01*
X100723647Y-78536026D01*
X100722229Y-78488200D01*
X100701012Y-78436933D01*
X100659511Y-78383899D01*
X100602002Y-78344600D01*
X100527250Y-78318331D01*
X100477292Y-78309035D01*
X100420584Y-78302507D01*
X100360481Y-78297782D01*
X100309361Y-78295817D01*
X100306333Y-78295808D01*
X100230133Y-78295822D01*
X100230133Y-78736089D01*
X100084492Y-78736089D01*
X100084316Y-78729536D01*
X100083672Y-78669526D01*
X100083417Y-78591617D01*
X100083378Y-78515956D01*
X100083130Y-78415041D01*
X100083183Y-78334427D01*
X100084143Y-78295822D01*
X100084740Y-78271851D01*
X100089002Y-78225055D01*
G36*
X110104665Y-78151034D02*
G01*
X110124255Y-78158035D01*
X110125010Y-78158377D01*
X110151613Y-78178678D01*
X110166270Y-78199561D01*
X110169138Y-78209352D01*
X110168996Y-78222361D01*
X110164961Y-78240895D01*
X110156146Y-78267257D01*
X110141669Y-78303752D01*
X110120645Y-78352687D01*
X110092188Y-78416365D01*
X110055415Y-78497093D01*
X110035175Y-78541216D01*
X109998625Y-78619985D01*
X109964315Y-78692423D01*
X109933552Y-78755880D01*
X109907648Y-78807708D01*
X109887910Y-78845259D01*
X109875650Y-78865884D01*
X109873224Y-78868733D01*
X109842183Y-78881302D01*
X109807121Y-78879619D01*
X109779000Y-78864332D01*
X109777854Y-78863089D01*
X109766668Y-78846154D01*
X109747904Y-78813170D01*
X109723875Y-78768380D01*
X109696897Y-78716032D01*
X109687201Y-78696742D01*
X109614014Y-78550150D01*
X109534240Y-78709393D01*
X109505767Y-78764415D01*
X109479350Y-78812132D01*
X109457148Y-78848893D01*
X109441319Y-78871044D01*
X109435954Y-78875741D01*
X109394257Y-78882102D01*
X109359849Y-78868733D01*
X109349728Y-78854446D01*
X109332214Y-78822692D01*
X109308735Y-78776597D01*
X109280720Y-78719285D01*
X109249599Y-78653880D01*
X109216799Y-78583507D01*
X109183750Y-78511291D01*
X109151881Y-78440355D01*
X109122619Y-78373825D01*
X109097395Y-78314826D01*
X109077636Y-78266481D01*
X109064772Y-78231915D01*
X109060231Y-78214253D01*
X109060277Y-78213613D01*
X109071326Y-78191388D01*
X109093410Y-78168753D01*
X109094710Y-78167768D01*
X109121853Y-78152425D01*
X109146958Y-78152574D01*
X109156368Y-78155466D01*
X109167834Y-78161718D01*
X109180010Y-78174014D01*
X109194357Y-78194908D01*
X109212336Y-78226949D01*
X109235407Y-78272688D01*
X109265030Y-78334677D01*
X109291745Y-78391898D01*
X109322480Y-78458226D01*
X109350021Y-78517874D01*
X109372938Y-78567725D01*
X109389798Y-78604664D01*
X109399173Y-78625573D01*
X109400540Y-78628845D01*
X109406689Y-78623497D01*
X109420822Y-78601109D01*
X109441057Y-78564946D01*
X109465515Y-78518277D01*
X109475248Y-78499022D01*
X109508217Y-78434004D01*
X109533643Y-78386654D01*
X109553612Y-78354219D01*
X109570210Y-78333946D01*
X109585524Y-78323082D01*
X109601640Y-78318875D01*
X109612143Y-78318400D01*
X109630670Y-78320042D01*
X109646904Y-78326831D01*
X109663035Y-78341566D01*
X109681251Y-78367044D01*
X109703739Y-78406061D01*
X109732689Y-78461414D01*
X109748662Y-78492903D01*
X109774570Y-78543087D01*
X109797167Y-78584704D01*
X109814458Y-78614242D01*
X109824450Y-78628189D01*
X109825809Y-78628770D01*
X109832261Y-78617793D01*
X109846708Y-78589290D01*
X109867703Y-78546244D01*
X109893797Y-78491638D01*
X109923546Y-78428454D01*
X109938180Y-78397071D01*
X109976250Y-78316078D01*
X110006905Y-78253756D01*
X110031737Y-78208071D01*
X110052337Y-78176989D01*
X110070298Y-78158478D01*
X110087210Y-78150504D01*
X110104665Y-78151034D01*
G37*
X110104665Y-78151034D02*
X110124255Y-78158035D01*
X110125010Y-78158377D01*
X110151613Y-78178678D01*
X110166270Y-78199561D01*
X110169138Y-78209352D01*
X110168996Y-78222361D01*
X110164961Y-78240895D01*
X110156146Y-78267257D01*
X110141669Y-78303752D01*
X110120645Y-78352687D01*
X110092188Y-78416365D01*
X110055415Y-78497093D01*
X110035175Y-78541216D01*
X109998625Y-78619985D01*
X109964315Y-78692423D01*
X109933552Y-78755880D01*
X109907648Y-78807708D01*
X109887910Y-78845259D01*
X109875650Y-78865884D01*
X109873224Y-78868733D01*
X109842183Y-78881302D01*
X109807121Y-78879619D01*
X109779000Y-78864332D01*
X109777854Y-78863089D01*
X109766668Y-78846154D01*
X109747904Y-78813170D01*
X109723875Y-78768380D01*
X109696897Y-78716032D01*
X109687201Y-78696742D01*
X109614014Y-78550150D01*
X109534240Y-78709393D01*
X109505767Y-78764415D01*
X109479350Y-78812132D01*
X109457148Y-78848893D01*
X109441319Y-78871044D01*
X109435954Y-78875741D01*
X109394257Y-78882102D01*
X109359849Y-78868733D01*
X109349728Y-78854446D01*
X109332214Y-78822692D01*
X109308735Y-78776597D01*
X109280720Y-78719285D01*
X109249599Y-78653880D01*
X109216799Y-78583507D01*
X109183750Y-78511291D01*
X109151881Y-78440355D01*
X109122619Y-78373825D01*
X109097395Y-78314826D01*
X109077636Y-78266481D01*
X109064772Y-78231915D01*
X109060231Y-78214253D01*
X109060277Y-78213613D01*
X109071326Y-78191388D01*
X109093410Y-78168753D01*
X109094710Y-78167768D01*
X109121853Y-78152425D01*
X109146958Y-78152574D01*
X109156368Y-78155466D01*
X109167834Y-78161718D01*
X109180010Y-78174014D01*
X109194357Y-78194908D01*
X109212336Y-78226949D01*
X109235407Y-78272688D01*
X109265030Y-78334677D01*
X109291745Y-78391898D01*
X109322480Y-78458226D01*
X109350021Y-78517874D01*
X109372938Y-78567725D01*
X109389798Y-78604664D01*
X109399173Y-78625573D01*
X109400540Y-78628845D01*
X109406689Y-78623497D01*
X109420822Y-78601109D01*
X109441057Y-78564946D01*
X109465515Y-78518277D01*
X109475248Y-78499022D01*
X109508217Y-78434004D01*
X109533643Y-78386654D01*
X109553612Y-78354219D01*
X109570210Y-78333946D01*
X109585524Y-78323082D01*
X109601640Y-78318875D01*
X109612143Y-78318400D01*
X109630670Y-78320042D01*
X109646904Y-78326831D01*
X109663035Y-78341566D01*
X109681251Y-78367044D01*
X109703739Y-78406061D01*
X109732689Y-78461414D01*
X109748662Y-78492903D01*
X109774570Y-78543087D01*
X109797167Y-78584704D01*
X109814458Y-78614242D01*
X109824450Y-78628189D01*
X109825809Y-78628770D01*
X109832261Y-78617793D01*
X109846708Y-78589290D01*
X109867703Y-78546244D01*
X109893797Y-78491638D01*
X109923546Y-78428454D01*
X109938180Y-78397071D01*
X109976250Y-78316078D01*
X110006905Y-78253756D01*
X110031737Y-78208071D01*
X110052337Y-78176989D01*
X110070298Y-78158478D01*
X110087210Y-78150504D01*
X110104665Y-78151034D01*
G36*
X103413600Y-73369054D02*
G01*
X103424465Y-73482993D01*
X103456082Y-73590616D01*
X103506985Y-73689615D01*
X103575707Y-73777684D01*
X103660781Y-73852516D01*
X103757768Y-73910384D01*
X103864036Y-73950005D01*
X103971050Y-73968573D01*
X104076700Y-73967434D01*
X104178875Y-73947930D01*
X104275466Y-73911406D01*
X104364362Y-73859205D01*
X104443454Y-73792673D01*
X104510631Y-73713152D01*
X104563783Y-73621987D01*
X104600801Y-73520523D01*
X104619573Y-73410102D01*
X104621511Y-73360206D01*
X104621511Y-73272267D01*
X104673440Y-73272267D01*
X104709747Y-73275111D01*
X104736645Y-73286911D01*
X104763751Y-73310649D01*
X104802133Y-73349031D01*
X104802133Y-75540602D01*
X104802124Y-75802739D01*
X104802092Y-76043241D01*
X104802028Y-76263048D01*
X104801924Y-76463101D01*
X104801773Y-76644344D01*
X104801566Y-76807716D01*
X104801294Y-76954160D01*
X104800950Y-77084617D01*
X104800526Y-77200029D01*
X104800013Y-77301338D01*
X104799403Y-77389484D01*
X104798688Y-77465410D01*
X104797860Y-77530057D01*
X104796911Y-77584367D01*
X104795833Y-77629280D01*
X104794617Y-77665740D01*
X104793255Y-77694687D01*
X104791739Y-77717063D01*
X104790062Y-77733809D01*
X104788214Y-77745868D01*
X104786187Y-77754180D01*
X104783975Y-77759687D01*
X104782892Y-77761537D01*
X104778729Y-77768549D01*
X104775195Y-77774996D01*
X104771365Y-77780900D01*
X104766318Y-77786286D01*
X104759129Y-77791178D01*
X104748877Y-77795598D01*
X104734636Y-77799572D01*
X104715486Y-77803121D01*
X104690501Y-77806270D01*
X104658760Y-77809042D01*
X104619338Y-77811461D01*
X104571314Y-77813551D01*
X104513763Y-77815335D01*
X104445763Y-77816837D01*
X104366390Y-77818080D01*
X104274721Y-77819089D01*
X104169834Y-77819885D01*
X104050804Y-77820494D01*
X103916710Y-77820939D01*
X103766627Y-77821243D01*
X103599633Y-77821430D01*
X103414804Y-77821524D01*
X103211217Y-77821548D01*
X102987950Y-77821525D01*
X102744078Y-77821480D01*
X102478679Y-77821437D01*
X102440296Y-77821432D01*
X102173318Y-77821389D01*
X101927998Y-77821318D01*
X101703417Y-77821213D01*
X101498655Y-77821066D01*
X101312794Y-77820869D01*
X101144912Y-77820616D01*
X100994092Y-77820300D01*
X100859413Y-77819913D01*
X100739956Y-77819447D01*
X100634801Y-77818897D01*
X100543029Y-77818253D01*
X100463721Y-77817511D01*
X100395957Y-77816661D01*
X100338818Y-77815697D01*
X100291383Y-77814611D01*
X100252734Y-77813397D01*
X100221951Y-77812047D01*
X100198115Y-77810555D01*
X100180306Y-77808911D01*
X100167605Y-77807111D01*
X100159092Y-77805145D01*
X100154734Y-77803477D01*
X100146272Y-77799906D01*
X100138503Y-77797270D01*
X100131398Y-77794634D01*
X100124927Y-77791062D01*
X100119061Y-77785621D01*
X100113771Y-77777375D01*
X100109026Y-77765390D01*
X100104798Y-77748731D01*
X100101057Y-77726463D01*
X100097773Y-77697652D01*
X100094917Y-77661363D01*
X100092460Y-77616661D01*
X100090371Y-77562611D01*
X100088622Y-77498279D01*
X100087183Y-77422730D01*
X100086024Y-77335030D01*
X100085117Y-77234243D01*
X100084431Y-77119434D01*
X100083937Y-76989670D01*
X100083605Y-76844015D01*
X100083407Y-76681535D01*
X100083313Y-76501295D01*
X100083292Y-76302360D01*
X100083315Y-76083796D01*
X100083354Y-75844668D01*
X100083378Y-75584040D01*
X100083378Y-75541889D01*
X100083364Y-75278992D01*
X100083339Y-75037732D01*
X100083329Y-74817165D01*
X100083358Y-74616352D01*
X100083452Y-74434349D01*
X100083638Y-74270216D01*
X100083941Y-74123011D01*
X100084386Y-73991792D01*
X100084966Y-73881867D01*
X100387803Y-73881867D01*
X100427593Y-73939711D01*
X100438764Y-73955479D01*
X100448834Y-73969441D01*
X100457862Y-73982784D01*
X100465903Y-73996693D01*
X100473014Y-74012356D01*
X100479253Y-74030958D01*
X100484675Y-74053686D01*
X100489338Y-74081727D01*
X100493299Y-74116267D01*
X100496615Y-74158492D01*
X100499341Y-74209589D01*
X100501536Y-74270744D01*
X100503255Y-74343144D01*
X100504556Y-74427975D01*
X100505495Y-74526422D01*
X100506130Y-74639674D01*
X100506516Y-74768916D01*
X100506712Y-74915334D01*
X100506773Y-75080116D01*
X100506757Y-75264447D01*
X100506720Y-75469513D01*
X100506711Y-75592133D01*
X100506735Y-75809082D01*
X100506769Y-76004642D01*
X100506757Y-76179999D01*
X100506642Y-76336341D01*
X100506370Y-76474857D01*
X100505882Y-76596734D01*
X100505124Y-76703160D01*
X100504038Y-76795322D01*
X100502569Y-76874409D01*
X100500660Y-76941608D01*
X100498256Y-76998107D01*
X100495299Y-77045093D01*
X100491734Y-77083755D01*
X100487505Y-77115280D01*
X100482554Y-77140855D01*
X100476827Y-77161670D01*
X100470267Y-77178911D01*
X100462817Y-77193765D01*
X100454421Y-77207422D01*
X100445024Y-77221069D01*
X100434568Y-77235893D01*
X100428477Y-77244783D01*
X100389704Y-77302400D01*
X100921268Y-77302400D01*
X101044517Y-77302365D01*
X101147013Y-77302215D01*
X101230580Y-77301878D01*
X101297044Y-77301286D01*
X101348229Y-77300367D01*
X101385959Y-77299051D01*
X101412060Y-77297269D01*
X101428356Y-77294951D01*
X101436672Y-77292026D01*
X101438832Y-77288424D01*
X101436661Y-77284075D01*
X101435465Y-77282645D01*
X101410315Y-77245573D01*
X101384417Y-77192772D01*
X101360808Y-77130770D01*
X101352539Y-77104357D01*
X101347922Y-77086416D01*
X101344021Y-77065355D01*
X101340752Y-77039089D01*
X101338034Y-77005532D01*
X101335785Y-76962599D01*
X101333923Y-76908204D01*
X101332364Y-76840262D01*
X101331028Y-76756688D01*
X101329831Y-76655395D01*
X101328692Y-76534300D01*
X101328315Y-76489600D01*
X101327298Y-76364449D01*
X101326540Y-76260082D01*
X101326097Y-76174707D01*
X101326030Y-76106533D01*
X101326395Y-76053765D01*
X101327252Y-76014614D01*
X101328659Y-75987285D01*
X101330675Y-75969986D01*
X101333357Y-75960926D01*
X101336764Y-75958312D01*
X101340956Y-75960351D01*
X101345429Y-75964667D01*
X101355784Y-75977602D01*
X101377842Y-76006676D01*
X101410043Y-76049759D01*
X101450826Y-76104718D01*
X101498630Y-76169423D01*
X101551895Y-76241742D01*
X101609060Y-76319544D01*
X101668563Y-76400698D01*
X101728845Y-76483072D01*
X101788345Y-76564536D01*
X101845502Y-76642957D01*
X101898755Y-76716204D01*
X101946543Y-76782147D01*
X101987307Y-76838654D01*
X102019484Y-76883593D01*
X102041515Y-76914834D01*
X102046083Y-76921466D01*
X102069004Y-76958369D01*
X102095812Y-77006359D01*
X102121211Y-77055897D01*
X102124432Y-77062577D01*
X102146110Y-77110772D01*
X102158696Y-77148334D01*
X102164426Y-77184160D01*
X102165544Y-77226200D01*
X102164910Y-77302400D01*
X103319349Y-77302400D01*
X103228185Y-77208669D01*
X103181388Y-77158775D01*
X103131101Y-77102295D01*
X103085056Y-77048026D01*
X103064631Y-77022673D01*
X103034193Y-76983128D01*
X102994138Y-76929916D01*
X102945639Y-76864667D01*
X102889865Y-76789011D01*
X102827989Y-76704577D01*
X102761181Y-76612994D01*
X102690613Y-76515892D01*
X102617455Y-76414901D01*
X102542879Y-76311650D01*
X102468056Y-76207768D01*
X102394157Y-76104885D01*
X102322354Y-76004631D01*
X102253816Y-75908636D01*
X102189716Y-75818527D01*
X102131225Y-75735936D01*
X102079514Y-75662492D01*
X102035753Y-75599824D01*
X102001115Y-75549561D01*
X101976770Y-75513334D01*
X101963889Y-75492771D01*
X101962131Y-75488668D01*
X101970090Y-75477342D01*
X101990885Y-75450162D01*
X102023153Y-75408829D01*
X102065530Y-75355044D01*
X102116653Y-75290506D01*
X102175159Y-75216918D01*
X102239686Y-75135978D01*
X102308869Y-75049388D01*
X102381347Y-74958848D01*
X102455754Y-74866060D01*
X102515483Y-74791702D01*
X103526489Y-74791702D01*
X103532398Y-74804659D01*
X103546728Y-74826908D01*
X103547775Y-74828391D01*
X103566562Y-74858544D01*
X103586209Y-74895375D01*
X103590108Y-74903511D01*
X103593644Y-74911940D01*
X103596770Y-74922059D01*
X103599514Y-74935260D01*
X103601908Y-74952938D01*
X103603981Y-74976484D01*
X103605765Y-75007293D01*
X103607288Y-75046757D01*
X103608581Y-75096269D01*
X103609674Y-75157223D01*
X103610597Y-75231011D01*
X103611381Y-75319028D01*
X103612055Y-75422665D01*
X103612650Y-75543316D01*
X103613195Y-75682374D01*
X103613721Y-75841232D01*
X103614255Y-76020089D01*
X103614794Y-76205207D01*
X103615228Y-76369145D01*
X103615491Y-76513303D01*
X103615516Y-76639079D01*
X103615235Y-76747871D01*
X103614581Y-76841077D01*
X103613486Y-76920097D01*
X103611882Y-76986328D01*
X103609703Y-77041170D01*
X103606881Y-77086021D01*
X103603349Y-77122278D01*
X103599039Y-77151341D01*
X103593883Y-77174609D01*
X103587815Y-77193479D01*
X103580767Y-77209351D01*
X103572671Y-77223622D01*
X103563460Y-77237691D01*
X103554960Y-77250158D01*
X103537824Y-77276452D01*
X103527678Y-77294037D01*
X103526489Y-77297257D01*
X103537396Y-77298334D01*
X103568589Y-77299335D01*
X103617777Y-77300235D01*
X103682667Y-77301010D01*
X103760970Y-77301637D01*
X103850393Y-77302091D01*
X103948644Y-77302349D01*
X104017555Y-77302400D01*
X104122548Y-77302180D01*
X104219390Y-77301548D01*
X104305893Y-77300549D01*
X104379868Y-77299227D01*
X104439126Y-77297626D01*
X104481480Y-77295791D01*
X104504740Y-77293765D01*
X104508622Y-77292493D01*
X104500924Y-77277591D01*
X104492926Y-77269560D01*
X104479754Y-77252434D01*
X104462515Y-77222183D01*
X104450593Y-77197622D01*
X104423955Y-77138711D01*
X104420880Y-75961845D01*
X104417805Y-74784978D01*
X103972147Y-74784978D01*
X103874330Y-74785142D01*
X103783936Y-74785611D01*
X103703370Y-74786347D01*
X103635038Y-74787316D01*
X103581344Y-74788480D01*
X103544695Y-74789803D01*
X103527496Y-74791249D01*
X103526489Y-74791702D01*
X102515483Y-74791702D01*
X102530730Y-74772722D01*
X102604910Y-74680537D01*
X102676931Y-74591204D01*
X102745431Y-74506424D01*
X102809045Y-74427898D01*
X102866412Y-74357326D01*
X102916167Y-74296409D01*
X102956948Y-74246847D01*
X102974112Y-74226178D01*
X103060404Y-74125516D01*
X103137003Y-74042259D01*
X103205817Y-73974438D01*
X103268752Y-73920089D01*
X103278133Y-73912722D01*
X103317644Y-73882117D01*
X102185884Y-73881867D01*
X102191173Y-73929844D01*
X102187870Y-73987188D01*
X102166339Y-74055463D01*
X102126365Y-74135212D01*
X102081057Y-74207495D01*
X102064839Y-74230140D01*
X102036786Y-74267696D01*
X101998570Y-74318021D01*
X101951863Y-74378973D01*
X101898339Y-74448411D01*
X101839669Y-74524194D01*
X101777525Y-74604180D01*
X101713579Y-74686228D01*
X101649505Y-74768196D01*
X101586973Y-74847943D01*
X101527657Y-74923327D01*
X101473229Y-74992207D01*
X101425361Y-75052442D01*
X101385725Y-75101889D01*
X101355994Y-75138408D01*
X101337839Y-75159858D01*
X101334780Y-75163156D01*
X101331921Y-75155149D01*
X101329707Y-75124855D01*
X101328143Y-75072556D01*
X101327233Y-74998531D01*
X101326980Y-74903063D01*
X101327387Y-74786434D01*
X101328296Y-74666445D01*
X101329618Y-74534333D01*
X101331143Y-74422594D01*
X101333119Y-74329025D01*
X101335794Y-74251419D01*
X101339418Y-74187574D01*
X101344239Y-74135283D01*
X101350506Y-74092344D01*
X101358468Y-74056551D01*
X101368373Y-74025700D01*
X101380469Y-73997586D01*
X101395007Y-73970005D01*
X101409689Y-73944966D01*
X101447686Y-73881867D01*
X100387803Y-73881867D01*
X100084966Y-73881867D01*
X100084999Y-73875617D01*
X100085805Y-73773544D01*
X100086830Y-73684633D01*
X100088100Y-73607941D01*
X100089640Y-73542527D01*
X100091476Y-73487449D01*
X100093633Y-73441765D01*
X100096137Y-73404534D01*
X100099013Y-73374813D01*
X100102287Y-73351662D01*
X100105985Y-73334139D01*
X100110131Y-73321301D01*
X100114753Y-73312208D01*
X100119874Y-73305918D01*
X100125522Y-73301488D01*
X100131721Y-73297978D01*
X100138496Y-73294445D01*
X100144492Y-73290876D01*
X100149725Y-73288300D01*
X100157901Y-73285972D01*
X100170114Y-73283878D01*
X100187459Y-73282007D01*
X100211031Y-73280347D01*
X100241923Y-73278884D01*
X100281232Y-73277608D01*
X100330050Y-73276504D01*
X100389473Y-73275561D01*
X100460596Y-73274767D01*
X100544512Y-73274109D01*
X100642317Y-73273575D01*
X100755106Y-73273153D01*
X100883971Y-73272829D01*
X101030009Y-73272592D01*
X101194314Y-73272430D01*
X101377980Y-73272330D01*
X101582103Y-73272280D01*
X101793247Y-73272267D01*
X103413600Y-73272267D01*
X103413600Y-73369054D01*
G37*
X103413600Y-73369054D02*
X103424465Y-73482993D01*
X103456082Y-73590616D01*
X103506985Y-73689615D01*
X103575707Y-73777684D01*
X103660781Y-73852516D01*
X103757768Y-73910384D01*
X103864036Y-73950005D01*
X103971050Y-73968573D01*
X104076700Y-73967434D01*
X104178875Y-73947930D01*
X104275466Y-73911406D01*
X104364362Y-73859205D01*
X104443454Y-73792673D01*
X104510631Y-73713152D01*
X104563783Y-73621987D01*
X104600801Y-73520523D01*
X104619573Y-73410102D01*
X104621511Y-73360206D01*
X104621511Y-73272267D01*
X104673440Y-73272267D01*
X104709747Y-73275111D01*
X104736645Y-73286911D01*
X104763751Y-73310649D01*
X104802133Y-73349031D01*
X104802133Y-75540602D01*
X104802124Y-75802739D01*
X104802092Y-76043241D01*
X104802028Y-76263048D01*
X104801924Y-76463101D01*
X104801773Y-76644344D01*
X104801566Y-76807716D01*
X104801294Y-76954160D01*
X104800950Y-77084617D01*
X104800526Y-77200029D01*
X104800013Y-77301338D01*
X104799403Y-77389484D01*
X104798688Y-77465410D01*
X104797860Y-77530057D01*
X104796911Y-77584367D01*
X104795833Y-77629280D01*
X104794617Y-77665740D01*
X104793255Y-77694687D01*
X104791739Y-77717063D01*
X104790062Y-77733809D01*
X104788214Y-77745868D01*
X104786187Y-77754180D01*
X104783975Y-77759687D01*
X104782892Y-77761537D01*
X104778729Y-77768549D01*
X104775195Y-77774996D01*
X104771365Y-77780900D01*
X104766318Y-77786286D01*
X104759129Y-77791178D01*
X104748877Y-77795598D01*
X104734636Y-77799572D01*
X104715486Y-77803121D01*
X104690501Y-77806270D01*
X104658760Y-77809042D01*
X104619338Y-77811461D01*
X104571314Y-77813551D01*
X104513763Y-77815335D01*
X104445763Y-77816837D01*
X104366390Y-77818080D01*
X104274721Y-77819089D01*
X104169834Y-77819885D01*
X104050804Y-77820494D01*
X103916710Y-77820939D01*
X103766627Y-77821243D01*
X103599633Y-77821430D01*
X103414804Y-77821524D01*
X103211217Y-77821548D01*
X102987950Y-77821525D01*
X102744078Y-77821480D01*
X102478679Y-77821437D01*
X102440296Y-77821432D01*
X102173318Y-77821389D01*
X101927998Y-77821318D01*
X101703417Y-77821213D01*
X101498655Y-77821066D01*
X101312794Y-77820869D01*
X101144912Y-77820616D01*
X100994092Y-77820300D01*
X100859413Y-77819913D01*
X100739956Y-77819447D01*
X100634801Y-77818897D01*
X100543029Y-77818253D01*
X100463721Y-77817511D01*
X100395957Y-77816661D01*
X100338818Y-77815697D01*
X100291383Y-77814611D01*
X100252734Y-77813397D01*
X100221951Y-77812047D01*
X100198115Y-77810555D01*
X100180306Y-77808911D01*
X100167605Y-77807111D01*
X100159092Y-77805145D01*
X100154734Y-77803477D01*
X100146272Y-77799906D01*
X100138503Y-77797270D01*
X100131398Y-77794634D01*
X100124927Y-77791062D01*
X100119061Y-77785621D01*
X100113771Y-77777375D01*
X100109026Y-77765390D01*
X100104798Y-77748731D01*
X100101057Y-77726463D01*
X100097773Y-77697652D01*
X100094917Y-77661363D01*
X100092460Y-77616661D01*
X100090371Y-77562611D01*
X100088622Y-77498279D01*
X100087183Y-77422730D01*
X100086024Y-77335030D01*
X100085117Y-77234243D01*
X100084431Y-77119434D01*
X100083937Y-76989670D01*
X100083605Y-76844015D01*
X100083407Y-76681535D01*
X100083313Y-76501295D01*
X100083292Y-76302360D01*
X100083315Y-76083796D01*
X100083354Y-75844668D01*
X100083378Y-75584040D01*
X100083378Y-75541889D01*
X100083364Y-75278992D01*
X100083339Y-75037732D01*
X100083329Y-74817165D01*
X100083358Y-74616352D01*
X100083452Y-74434349D01*
X100083638Y-74270216D01*
X100083941Y-74123011D01*
X100084386Y-73991792D01*
X100084966Y-73881867D01*
X100387803Y-73881867D01*
X100427593Y-73939711D01*
X100438764Y-73955479D01*
X100448834Y-73969441D01*
X100457862Y-73982784D01*
X100465903Y-73996693D01*
X100473014Y-74012356D01*
X100479253Y-74030958D01*
X100484675Y-74053686D01*
X100489338Y-74081727D01*
X100493299Y-74116267D01*
X100496615Y-74158492D01*
X100499341Y-74209589D01*
X100501536Y-74270744D01*
X100503255Y-74343144D01*
X100504556Y-74427975D01*
X100505495Y-74526422D01*
X100506130Y-74639674D01*
X100506516Y-74768916D01*
X100506712Y-74915334D01*
X100506773Y-75080116D01*
X100506757Y-75264447D01*
X100506720Y-75469513D01*
X100506711Y-75592133D01*
X100506735Y-75809082D01*
X100506769Y-76004642D01*
X100506757Y-76179999D01*
X100506642Y-76336341D01*
X100506370Y-76474857D01*
X100505882Y-76596734D01*
X100505124Y-76703160D01*
X100504038Y-76795322D01*
X100502569Y-76874409D01*
X100500660Y-76941608D01*
X100498256Y-76998107D01*
X100495299Y-77045093D01*
X100491734Y-77083755D01*
X100487505Y-77115280D01*
X100482554Y-77140855D01*
X100476827Y-77161670D01*
X100470267Y-77178911D01*
X100462817Y-77193765D01*
X100454421Y-77207422D01*
X100445024Y-77221069D01*
X100434568Y-77235893D01*
X100428477Y-77244783D01*
X100389704Y-77302400D01*
X100921268Y-77302400D01*
X101044517Y-77302365D01*
X101147013Y-77302215D01*
X101230580Y-77301878D01*
X101297044Y-77301286D01*
X101348229Y-77300367D01*
X101385959Y-77299051D01*
X101412060Y-77297269D01*
X101428356Y-77294951D01*
X101436672Y-77292026D01*
X101438832Y-77288424D01*
X101436661Y-77284075D01*
X101435465Y-77282645D01*
X101410315Y-77245573D01*
X101384417Y-77192772D01*
X101360808Y-77130770D01*
X101352539Y-77104357D01*
X101347922Y-77086416D01*
X101344021Y-77065355D01*
X101340752Y-77039089D01*
X101338034Y-77005532D01*
X101335785Y-76962599D01*
X101333923Y-76908204D01*
X101332364Y-76840262D01*
X101331028Y-76756688D01*
X101329831Y-76655395D01*
X101328692Y-76534300D01*
X101328315Y-76489600D01*
X101327298Y-76364449D01*
X101326540Y-76260082D01*
X101326097Y-76174707D01*
X101326030Y-76106533D01*
X101326395Y-76053765D01*
X101327252Y-76014614D01*
X101328659Y-75987285D01*
X101330675Y-75969986D01*
X101333357Y-75960926D01*
X101336764Y-75958312D01*
X101340956Y-75960351D01*
X101345429Y-75964667D01*
X101355784Y-75977602D01*
X101377842Y-76006676D01*
X101410043Y-76049759D01*
X101450826Y-76104718D01*
X101498630Y-76169423D01*
X101551895Y-76241742D01*
X101609060Y-76319544D01*
X101668563Y-76400698D01*
X101728845Y-76483072D01*
X101788345Y-76564536D01*
X101845502Y-76642957D01*
X101898755Y-76716204D01*
X101946543Y-76782147D01*
X101987307Y-76838654D01*
X102019484Y-76883593D01*
X102041515Y-76914834D01*
X102046083Y-76921466D01*
X102069004Y-76958369D01*
X102095812Y-77006359D01*
X102121211Y-77055897D01*
X102124432Y-77062577D01*
X102146110Y-77110772D01*
X102158696Y-77148334D01*
X102164426Y-77184160D01*
X102165544Y-77226200D01*
X102164910Y-77302400D01*
X103319349Y-77302400D01*
X103228185Y-77208669D01*
X103181388Y-77158775D01*
X103131101Y-77102295D01*
X103085056Y-77048026D01*
X103064631Y-77022673D01*
X103034193Y-76983128D01*
X102994138Y-76929916D01*
X102945639Y-76864667D01*
X102889865Y-76789011D01*
X102827989Y-76704577D01*
X102761181Y-76612994D01*
X102690613Y-76515892D01*
X102617455Y-76414901D01*
X102542879Y-76311650D01*
X102468056Y-76207768D01*
X102394157Y-76104885D01*
X102322354Y-76004631D01*
X102253816Y-75908636D01*
X102189716Y-75818527D01*
X102131225Y-75735936D01*
X102079514Y-75662492D01*
X102035753Y-75599824D01*
X102001115Y-75549561D01*
X101976770Y-75513334D01*
X101963889Y-75492771D01*
X101962131Y-75488668D01*
X101970090Y-75477342D01*
X101990885Y-75450162D01*
X102023153Y-75408829D01*
X102065530Y-75355044D01*
X102116653Y-75290506D01*
X102175159Y-75216918D01*
X102239686Y-75135978D01*
X102308869Y-75049388D01*
X102381347Y-74958848D01*
X102455754Y-74866060D01*
X102515483Y-74791702D01*
X103526489Y-74791702D01*
X103532398Y-74804659D01*
X103546728Y-74826908D01*
X103547775Y-74828391D01*
X103566562Y-74858544D01*
X103586209Y-74895375D01*
X103590108Y-74903511D01*
X103593644Y-74911940D01*
X103596770Y-74922059D01*
X103599514Y-74935260D01*
X103601908Y-74952938D01*
X103603981Y-74976484D01*
X103605765Y-75007293D01*
X103607288Y-75046757D01*
X103608581Y-75096269D01*
X103609674Y-75157223D01*
X103610597Y-75231011D01*
X103611381Y-75319028D01*
X103612055Y-75422665D01*
X103612650Y-75543316D01*
X103613195Y-75682374D01*
X103613721Y-75841232D01*
X103614255Y-76020089D01*
X103614794Y-76205207D01*
X103615228Y-76369145D01*
X103615491Y-76513303D01*
X103615516Y-76639079D01*
X103615235Y-76747871D01*
X103614581Y-76841077D01*
X103613486Y-76920097D01*
X103611882Y-76986328D01*
X103609703Y-77041170D01*
X103606881Y-77086021D01*
X103603349Y-77122278D01*
X103599039Y-77151341D01*
X103593883Y-77174609D01*
X103587815Y-77193479D01*
X103580767Y-77209351D01*
X103572671Y-77223622D01*
X103563460Y-77237691D01*
X103554960Y-77250158D01*
X103537824Y-77276452D01*
X103527678Y-77294037D01*
X103526489Y-77297257D01*
X103537396Y-77298334D01*
X103568589Y-77299335D01*
X103617777Y-77300235D01*
X103682667Y-77301010D01*
X103760970Y-77301637D01*
X103850393Y-77302091D01*
X103948644Y-77302349D01*
X104017555Y-77302400D01*
X104122548Y-77302180D01*
X104219390Y-77301548D01*
X104305893Y-77300549D01*
X104379868Y-77299227D01*
X104439126Y-77297626D01*
X104481480Y-77295791D01*
X104504740Y-77293765D01*
X104508622Y-77292493D01*
X104500924Y-77277591D01*
X104492926Y-77269560D01*
X104479754Y-77252434D01*
X104462515Y-77222183D01*
X104450593Y-77197622D01*
X104423955Y-77138711D01*
X104420880Y-75961845D01*
X104417805Y-74784978D01*
X103972147Y-74784978D01*
X103874330Y-74785142D01*
X103783936Y-74785611D01*
X103703370Y-74786347D01*
X103635038Y-74787316D01*
X103581344Y-74788480D01*
X103544695Y-74789803D01*
X103527496Y-74791249D01*
X103526489Y-74791702D01*
X102515483Y-74791702D01*
X102530730Y-74772722D01*
X102604910Y-74680537D01*
X102676931Y-74591204D01*
X102745431Y-74506424D01*
X102809045Y-74427898D01*
X102866412Y-74357326D01*
X102916167Y-74296409D01*
X102956948Y-74246847D01*
X102974112Y-74226178D01*
X103060404Y-74125516D01*
X103137003Y-74042259D01*
X103205817Y-73974438D01*
X103268752Y-73920089D01*
X103278133Y-73912722D01*
X103317644Y-73882117D01*
X102185884Y-73881867D01*
X102191173Y-73929844D01*
X102187870Y-73987188D01*
X102166339Y-74055463D01*
X102126365Y-74135212D01*
X102081057Y-74207495D01*
X102064839Y-74230140D01*
X102036786Y-74267696D01*
X101998570Y-74318021D01*
X101951863Y-74378973D01*
X101898339Y-74448411D01*
X101839669Y-74524194D01*
X101777525Y-74604180D01*
X101713579Y-74686228D01*
X101649505Y-74768196D01*
X101586973Y-74847943D01*
X101527657Y-74923327D01*
X101473229Y-74992207D01*
X101425361Y-75052442D01*
X101385725Y-75101889D01*
X101355994Y-75138408D01*
X101337839Y-75159858D01*
X101334780Y-75163156D01*
X101331921Y-75155149D01*
X101329707Y-75124855D01*
X101328143Y-75072556D01*
X101327233Y-74998531D01*
X101326980Y-74903063D01*
X101327387Y-74786434D01*
X101328296Y-74666445D01*
X101329618Y-74534333D01*
X101331143Y-74422594D01*
X101333119Y-74329025D01*
X101335794Y-74251419D01*
X101339418Y-74187574D01*
X101344239Y-74135283D01*
X101350506Y-74092344D01*
X101358468Y-74056551D01*
X101368373Y-74025700D01*
X101380469Y-73997586D01*
X101395007Y-73970005D01*
X101409689Y-73944966D01*
X101447686Y-73881867D01*
X100387803Y-73881867D01*
X100084966Y-73881867D01*
X100084999Y-73875617D01*
X100085805Y-73773544D01*
X100086830Y-73684633D01*
X100088100Y-73607941D01*
X100089640Y-73542527D01*
X100091476Y-73487449D01*
X100093633Y-73441765D01*
X100096137Y-73404534D01*
X100099013Y-73374813D01*
X100102287Y-73351662D01*
X100105985Y-73334139D01*
X100110131Y-73321301D01*
X100114753Y-73312208D01*
X100119874Y-73305918D01*
X100125522Y-73301488D01*
X100131721Y-73297978D01*
X100138496Y-73294445D01*
X100144492Y-73290876D01*
X100149725Y-73288300D01*
X100157901Y-73285972D01*
X100170114Y-73283878D01*
X100187459Y-73282007D01*
X100211031Y-73280347D01*
X100241923Y-73278884D01*
X100281232Y-73277608D01*
X100330050Y-73276504D01*
X100389473Y-73275561D01*
X100460596Y-73274767D01*
X100544512Y-73274109D01*
X100642317Y-73273575D01*
X100755106Y-73273153D01*
X100883971Y-73272829D01*
X101030009Y-73272592D01*
X101194314Y-73272430D01*
X101377980Y-73272330D01*
X101582103Y-73272280D01*
X101793247Y-73272267D01*
X103413600Y-73272267D01*
X103413600Y-73369054D01*
G36*
X104086957Y-72906571D02*
G01*
X104183232Y-72930809D01*
X104269816Y-72973641D01*
X104344627Y-73033419D01*
X104405582Y-73108494D01*
X104450601Y-73197220D01*
X104476864Y-73293530D01*
X104482714Y-73390795D01*
X104467860Y-73484654D01*
X104434160Y-73572511D01*
X104383472Y-73651770D01*
X104317655Y-73719836D01*
X104238566Y-73774112D01*
X104148066Y-73812002D01*
X104096800Y-73824426D01*
X104052302Y-73831947D01*
X104018001Y-73834919D01*
X103985040Y-73833094D01*
X103944566Y-73826225D01*
X103911469Y-73819250D01*
X103818053Y-73787741D01*
X103734381Y-73736617D01*
X103662335Y-73667429D01*
X103603800Y-73581728D01*
X103589852Y-73554489D01*
X103573414Y-73518122D01*
X103563106Y-73487582D01*
X103557540Y-73455450D01*
X103555331Y-73414307D01*
X103555052Y-73368222D01*
X103559139Y-73283865D01*
X103572554Y-73214586D01*
X103597744Y-73153961D01*
X103637154Y-73095567D01*
X103675702Y-73051302D01*
X103747594Y-72985484D01*
X103822687Y-72940053D01*
X103905438Y-72912850D01*
X103983072Y-72902576D01*
X104086957Y-72906571D01*
G37*
X104086957Y-72906571D02*
X104183232Y-72930809D01*
X104269816Y-72973641D01*
X104344627Y-73033419D01*
X104405582Y-73108494D01*
X104450601Y-73197220D01*
X104476864Y-73293530D01*
X104482714Y-73390795D01*
X104467860Y-73484654D01*
X104434160Y-73572511D01*
X104383472Y-73651770D01*
X104317655Y-73719836D01*
X104238566Y-73774112D01*
X104148066Y-73812002D01*
X104096800Y-73824426D01*
X104052302Y-73831947D01*
X104018001Y-73834919D01*
X103985040Y-73833094D01*
X103944566Y-73826225D01*
X103911469Y-73819250D01*
X103818053Y-73787741D01*
X103734381Y-73736617D01*
X103662335Y-73667429D01*
X103603800Y-73581728D01*
X103589852Y-73554489D01*
X103573414Y-73518122D01*
X103563106Y-73487582D01*
X103557540Y-73455450D01*
X103555331Y-73414307D01*
X103555052Y-73368222D01*
X103559139Y-73283865D01*
X103572554Y-73214586D01*
X103597744Y-73153961D01*
X103637154Y-73095567D01*
X103675702Y-73051302D01*
X103747594Y-72985484D01*
X103822687Y-72940053D01*
X103905438Y-72912850D01*
X103983072Y-72902576D01*
X104086957Y-72906571D01*
G36*
X105059886Y-78153448D02*
G01*
X105083452Y-78167273D01*
X105114265Y-78189881D01*
X105153922Y-78222338D01*
X105204020Y-78265708D01*
X105266157Y-78321058D01*
X105341928Y-78389451D01*
X105428666Y-78468084D01*
X105609289Y-78631878D01*
X105614933Y-78412029D01*
X105616971Y-78336351D01*
X105618937Y-78279994D01*
X105621266Y-78239706D01*
X105624394Y-78212235D01*
X105628755Y-78194329D01*
X105634784Y-78182737D01*
X105642916Y-78174208D01*
X105647228Y-78170623D01*
X105681759Y-78151670D01*
X105714617Y-78154441D01*
X105740682Y-78170633D01*
X105767333Y-78192199D01*
X105770648Y-78507151D01*
X105771565Y-78599779D01*
X105772032Y-78672544D01*
X105771887Y-78728161D01*
X105770968Y-78769342D01*
X105769113Y-78798803D01*
X105766161Y-78819255D01*
X105761950Y-78833413D01*
X105756318Y-78843991D01*
X105750073Y-78852474D01*
X105736561Y-78868207D01*
X105723117Y-78878636D01*
X105707876Y-78882639D01*
X105688974Y-78879094D01*
X105664545Y-78866879D01*
X105632727Y-78844871D01*
X105591652Y-78811949D01*
X105539458Y-78766991D01*
X105474278Y-78708875D01*
X105400444Y-78642099D01*
X105135155Y-78401458D01*
X105129511Y-78620589D01*
X105127469Y-78696128D01*
X105125498Y-78752354D01*
X105123161Y-78792524D01*
X105120019Y-78819896D01*
X105115636Y-78837728D01*
X105109576Y-78849279D01*
X105101400Y-78857807D01*
X105097216Y-78861282D01*
X105060235Y-78880372D01*
X105025292Y-78877493D01*
X104994864Y-78853100D01*
X104987903Y-78843286D01*
X104982477Y-78831826D01*
X104978397Y-78815968D01*
X104975471Y-78792963D01*
X104973508Y-78760062D01*
X104972317Y-78714516D01*
X104971708Y-78653573D01*
X104971489Y-78574486D01*
X104971466Y-78515956D01*
X104971540Y-78424407D01*
X104971887Y-78352687D01*
X104972699Y-78298045D01*
X104974167Y-78257732D01*
X104976481Y-78228998D01*
X104979833Y-78209093D01*
X104984412Y-78195268D01*
X104990411Y-78184772D01*
X104994864Y-78178811D01*
X105006150Y-78164691D01*
X105016699Y-78154029D01*
X105028107Y-78147892D01*
X105041970Y-78147343D01*
X105059886Y-78153448D01*
G37*
X105059886Y-78153448D02*
X105083452Y-78167273D01*
X105114265Y-78189881D01*
X105153922Y-78222338D01*
X105204020Y-78265708D01*
X105266157Y-78321058D01*
X105341928Y-78389451D01*
X105428666Y-78468084D01*
X105609289Y-78631878D01*
X105614933Y-78412029D01*
X105616971Y-78336351D01*
X105618937Y-78279994D01*
X105621266Y-78239706D01*
X105624394Y-78212235D01*
X105628755Y-78194329D01*
X105634784Y-78182737D01*
X105642916Y-78174208D01*
X105647228Y-78170623D01*
X105681759Y-78151670D01*
X105714617Y-78154441D01*
X105740682Y-78170633D01*
X105767333Y-78192199D01*
X105770648Y-78507151D01*
X105771565Y-78599779D01*
X105772032Y-78672544D01*
X105771887Y-78728161D01*
X105770968Y-78769342D01*
X105769113Y-78798803D01*
X105766161Y-78819255D01*
X105761950Y-78833413D01*
X105756318Y-78843991D01*
X105750073Y-78852474D01*
X105736561Y-78868207D01*
X105723117Y-78878636D01*
X105707876Y-78882639D01*
X105688974Y-78879094D01*
X105664545Y-78866879D01*
X105632727Y-78844871D01*
X105591652Y-78811949D01*
X105539458Y-78766991D01*
X105474278Y-78708875D01*
X105400444Y-78642099D01*
X105135155Y-78401458D01*
X105129511Y-78620589D01*
X105127469Y-78696128D01*
X105125498Y-78752354D01*
X105123161Y-78792524D01*
X105120019Y-78819896D01*
X105115636Y-78837728D01*
X105109576Y-78849279D01*
X105101400Y-78857807D01*
X105097216Y-78861282D01*
X105060235Y-78880372D01*
X105025292Y-78877493D01*
X104994864Y-78853100D01*
X104987903Y-78843286D01*
X104982477Y-78831826D01*
X104978397Y-78815968D01*
X104975471Y-78792963D01*
X104973508Y-78760062D01*
X104972317Y-78714516D01*
X104971708Y-78653573D01*
X104971489Y-78574486D01*
X104971466Y-78515956D01*
X104971540Y-78424407D01*
X104971887Y-78352687D01*
X104972699Y-78298045D01*
X104974167Y-78257732D01*
X104976481Y-78228998D01*
X104979833Y-78209093D01*
X104984412Y-78195268D01*
X104990411Y-78184772D01*
X104994864Y-78178811D01*
X105006150Y-78164691D01*
X105016699Y-78154029D01*
X105028107Y-78147892D01*
X105041970Y-78147343D01*
X105059886Y-78153448D01*
G36*
X101647206Y-78149146D02*
G01*
X101716614Y-78149518D01*
X101769003Y-78150385D01*
X101807153Y-78151946D01*
X101833841Y-78154403D01*
X101851847Y-78157957D01*
X101863951Y-78162810D01*
X101872931Y-78169161D01*
X101876182Y-78172084D01*
X101895957Y-78203142D01*
X101899518Y-78238828D01*
X101886509Y-78270510D01*
X101880494Y-78276913D01*
X101870765Y-78283121D01*
X101855099Y-78287910D01*
X101830592Y-78291514D01*
X101794339Y-78294164D01*
X101743435Y-78296095D01*
X101674974Y-78297539D01*
X101612383Y-78298418D01*
X101364666Y-78301467D01*
X101361281Y-78366378D01*
X101357895Y-78431289D01*
X101526042Y-78431289D01*
X101599041Y-78431919D01*
X101652483Y-78434553D01*
X101689372Y-78440309D01*
X101712712Y-78450304D01*
X101725506Y-78465656D01*
X101730758Y-78487482D01*
X101731555Y-78507738D01*
X101729077Y-78532592D01*
X101719723Y-78550906D01*
X101700617Y-78563637D01*
X101668882Y-78571741D01*
X101621641Y-78576176D01*
X101556017Y-78577899D01*
X101520199Y-78578045D01*
X101359022Y-78578045D01*
X101359022Y-78736089D01*
X101607378Y-78736089D01*
X101688787Y-78736202D01*
X101750658Y-78736712D01*
X101796032Y-78737870D01*
X101827946Y-78739930D01*
X101849441Y-78743146D01*
X101863557Y-78747772D01*
X101873332Y-78754059D01*
X101878311Y-78758667D01*
X101895390Y-78785560D01*
X101900889Y-78809467D01*
X101893037Y-78838667D01*
X101878311Y-78860267D01*
X101870454Y-78867066D01*
X101860312Y-78872346D01*
X101845156Y-78876298D01*
X101822259Y-78879113D01*
X101788891Y-78880982D01*
X101742325Y-78882098D01*
X101679833Y-78882651D01*
X101598686Y-78882833D01*
X101556578Y-78882845D01*
X101466402Y-78882765D01*
X101396076Y-78882398D01*
X101342871Y-78881552D01*
X101304060Y-78880036D01*
X101276913Y-78877659D01*
X101258702Y-78874229D01*
X101246700Y-78869554D01*
X101238178Y-78863444D01*
X101234844Y-78860267D01*
X101228245Y-78852670D01*
X101223073Y-78842870D01*
X101219154Y-78828239D01*
X101216316Y-78806152D01*
X101214385Y-78773982D01*
X101213188Y-78729103D01*
X101212552Y-78668889D01*
X101212303Y-78590713D01*
X101212266Y-78517923D01*
X101212300Y-78424707D01*
X101212535Y-78351431D01*
X101213170Y-78295458D01*
X101214406Y-78254151D01*
X101216444Y-78224872D01*
X101219483Y-78204984D01*
X101223723Y-78191850D01*
X101229365Y-78182832D01*
X101236609Y-78175293D01*
X101238394Y-78173612D01*
X101247055Y-78166172D01*
X101257118Y-78160409D01*
X101271375Y-78156112D01*
X101292617Y-78153064D01*
X101323636Y-78151051D01*
X101367223Y-78149860D01*
X101426169Y-78149275D01*
X101503266Y-78149083D01*
X101557999Y-78149067D01*
X101647206Y-78149146D01*
G37*
X101647206Y-78149146D02*
X101716614Y-78149518D01*
X101769003Y-78150385D01*
X101807153Y-78151946D01*
X101833841Y-78154403D01*
X101851847Y-78157957D01*
X101863951Y-78162810D01*
X101872931Y-78169161D01*
X101876182Y-78172084D01*
X101895957Y-78203142D01*
X101899518Y-78238828D01*
X101886509Y-78270510D01*
X101880494Y-78276913D01*
X101870765Y-78283121D01*
X101855099Y-78287910D01*
X101830592Y-78291514D01*
X101794339Y-78294164D01*
X101743435Y-78296095D01*
X101674974Y-78297539D01*
X101612383Y-78298418D01*
X101364666Y-78301467D01*
X101361281Y-78366378D01*
X101357895Y-78431289D01*
X101526042Y-78431289D01*
X101599041Y-78431919D01*
X101652483Y-78434553D01*
X101689372Y-78440309D01*
X101712712Y-78450304D01*
X101725506Y-78465656D01*
X101730758Y-78487482D01*
X101731555Y-78507738D01*
X101729077Y-78532592D01*
X101719723Y-78550906D01*
X101700617Y-78563637D01*
X101668882Y-78571741D01*
X101621641Y-78576176D01*
X101556017Y-78577899D01*
X101520199Y-78578045D01*
X101359022Y-78578045D01*
X101359022Y-78736089D01*
X101607378Y-78736089D01*
X101688787Y-78736202D01*
X101750658Y-78736712D01*
X101796032Y-78737870D01*
X101827946Y-78739930D01*
X101849441Y-78743146D01*
X101863557Y-78747772D01*
X101873332Y-78754059D01*
X101878311Y-78758667D01*
X101895390Y-78785560D01*
X101900889Y-78809467D01*
X101893037Y-78838667D01*
X101878311Y-78860267D01*
X101870454Y-78867066D01*
X101860312Y-78872346D01*
X101845156Y-78876298D01*
X101822259Y-78879113D01*
X101788891Y-78880982D01*
X101742325Y-78882098D01*
X101679833Y-78882651D01*
X101598686Y-78882833D01*
X101556578Y-78882845D01*
X101466402Y-78882765D01*
X101396076Y-78882398D01*
X101342871Y-78881552D01*
X101304060Y-78880036D01*
X101276913Y-78877659D01*
X101258702Y-78874229D01*
X101246700Y-78869554D01*
X101238178Y-78863444D01*
X101234844Y-78860267D01*
X101228245Y-78852670D01*
X101223073Y-78842870D01*
X101219154Y-78828239D01*
X101216316Y-78806152D01*
X101214385Y-78773982D01*
X101213188Y-78729103D01*
X101212552Y-78668889D01*
X101212303Y-78590713D01*
X101212266Y-78517923D01*
X101212300Y-78424707D01*
X101212535Y-78351431D01*
X101213170Y-78295458D01*
X101214406Y-78254151D01*
X101216444Y-78224872D01*
X101219483Y-78204984D01*
X101223723Y-78191850D01*
X101229365Y-78182832D01*
X101236609Y-78175293D01*
X101238394Y-78173612D01*
X101247055Y-78166172D01*
X101257118Y-78160409D01*
X101271375Y-78156112D01*
X101292617Y-78153064D01*
X101323636Y-78151051D01*
X101367223Y-78149860D01*
X101426169Y-78149275D01*
X101503266Y-78149083D01*
X101557999Y-78149067D01*
X101647206Y-78149146D01*
G36*
X106590343Y-78149260D02*
G01*
X106666701Y-78150174D01*
X106725217Y-78152311D01*
X106768255Y-78156175D01*
X106798183Y-78162267D01*
X106817368Y-78171090D01*
X106828176Y-78183146D01*
X106832973Y-78198939D01*
X106834127Y-78218970D01*
X106834133Y-78221335D01*
X106833131Y-78243992D01*
X106828396Y-78261503D01*
X106817333Y-78274574D01*
X106797348Y-78283913D01*
X106765846Y-78290227D01*
X106720232Y-78294222D01*
X106657913Y-78296606D01*
X106576293Y-78298086D01*
X106551277Y-78298414D01*
X106309200Y-78301467D01*
X106305814Y-78366378D01*
X106302429Y-78431289D01*
X106470576Y-78431289D01*
X106536266Y-78431531D01*
X106583172Y-78432556D01*
X106615083Y-78434811D01*
X106635791Y-78438742D01*
X106649084Y-78444798D01*
X106658755Y-78453424D01*
X106658817Y-78453493D01*
X106676356Y-78487112D01*
X106675722Y-78523448D01*
X106657314Y-78554423D01*
X106653671Y-78557607D01*
X106640741Y-78565812D01*
X106623024Y-78571521D01*
X106596570Y-78575162D01*
X106557432Y-78577167D01*
X106501662Y-78577964D01*
X106465994Y-78578045D01*
X106303555Y-78578045D01*
X106303555Y-78736089D01*
X106550161Y-78736089D01*
X106631580Y-78736231D01*
X106693410Y-78736814D01*
X106738637Y-78738068D01*
X106770248Y-78740227D01*
X106791231Y-78743523D01*
X106804573Y-78748189D01*
X106813261Y-78754457D01*
X106815450Y-78756733D01*
X106831614Y-78788280D01*
X106832797Y-78824168D01*
X106819536Y-78855285D01*
X106809043Y-78865271D01*
X106798129Y-78870769D01*
X106781217Y-78875022D01*
X106755633Y-78878180D01*
X106718701Y-78880392D01*
X106667746Y-78881806D01*
X106600094Y-78882572D01*
X106513069Y-78882838D01*
X106493394Y-78882845D01*
X106404911Y-78882787D01*
X106336227Y-78882467D01*
X106284564Y-78881667D01*
X106247145Y-78880167D01*
X106221190Y-78877749D01*
X106203922Y-78874194D01*
X106192562Y-78869282D01*
X106184332Y-78862795D01*
X106179817Y-78858138D01*
X106173021Y-78849889D01*
X106167712Y-78839669D01*
X106163706Y-78824800D01*
X106160821Y-78802602D01*
X106158874Y-78770393D01*
X106157681Y-78725496D01*
X106157061Y-78665228D01*
X106156829Y-78586911D01*
X106156800Y-78520994D01*
X106156871Y-78428628D01*
X106157208Y-78356117D01*
X106157998Y-78300737D01*
X106159426Y-78259765D01*
X106161679Y-78230478D01*
X106164943Y-78210153D01*
X106169404Y-78196066D01*
X106175248Y-78185495D01*
X106180197Y-78178811D01*
X106203594Y-78149067D01*
X106493774Y-78149067D01*
X106590343Y-78149260D01*
G37*
X106590343Y-78149260D02*
X106666701Y-78150174D01*
X106725217Y-78152311D01*
X106768255Y-78156175D01*
X106798183Y-78162267D01*
X106817368Y-78171090D01*
X106828176Y-78183146D01*
X106832973Y-78198939D01*
X106834127Y-78218970D01*
X106834133Y-78221335D01*
X106833131Y-78243992D01*
X106828396Y-78261503D01*
X106817333Y-78274574D01*
X106797348Y-78283913D01*
X106765846Y-78290227D01*
X106720232Y-78294222D01*
X106657913Y-78296606D01*
X106576293Y-78298086D01*
X106551277Y-78298414D01*
X106309200Y-78301467D01*
X106305814Y-78366378D01*
X106302429Y-78431289D01*
X106470576Y-78431289D01*
X106536266Y-78431531D01*
X106583172Y-78432556D01*
X106615083Y-78434811D01*
X106635791Y-78438742D01*
X106649084Y-78444798D01*
X106658755Y-78453424D01*
X106658817Y-78453493D01*
X106676356Y-78487112D01*
X106675722Y-78523448D01*
X106657314Y-78554423D01*
X106653671Y-78557607D01*
X106640741Y-78565812D01*
X106623024Y-78571521D01*
X106596570Y-78575162D01*
X106557432Y-78577167D01*
X106501662Y-78577964D01*
X106465994Y-78578045D01*
X106303555Y-78578045D01*
X106303555Y-78736089D01*
X106550161Y-78736089D01*
X106631580Y-78736231D01*
X106693410Y-78736814D01*
X106738637Y-78738068D01*
X106770248Y-78740227D01*
X106791231Y-78743523D01*
X106804573Y-78748189D01*
X106813261Y-78754457D01*
X106815450Y-78756733D01*
X106831614Y-78788280D01*
X106832797Y-78824168D01*
X106819536Y-78855285D01*
X106809043Y-78865271D01*
X106798129Y-78870769D01*
X106781217Y-78875022D01*
X106755633Y-78878180D01*
X106718701Y-78880392D01*
X106667746Y-78881806D01*
X106600094Y-78882572D01*
X106513069Y-78882838D01*
X106493394Y-78882845D01*
X106404911Y-78882787D01*
X106336227Y-78882467D01*
X106284564Y-78881667D01*
X106247145Y-78880167D01*
X106221190Y-78877749D01*
X106203922Y-78874194D01*
X106192562Y-78869282D01*
X106184332Y-78862795D01*
X106179817Y-78858138D01*
X106173021Y-78849889D01*
X106167712Y-78839669D01*
X106163706Y-78824800D01*
X106160821Y-78802602D01*
X106158874Y-78770393D01*
X106157681Y-78725496D01*
X106157061Y-78665228D01*
X106156829Y-78586911D01*
X106156800Y-78520994D01*
X106156871Y-78428628D01*
X106157208Y-78356117D01*
X106157998Y-78300737D01*
X106159426Y-78259765D01*
X106161679Y-78230478D01*
X106164943Y-78210153D01*
X106169404Y-78196066D01*
X106175248Y-78185495D01*
X106180197Y-78178811D01*
X106203594Y-78149067D01*
X106493774Y-78149067D01*
X106590343Y-78149260D01*
G36*
X110548614Y-78155877D02*
G01*
X110572327Y-78170647D01*
X110598978Y-78192227D01*
X110598978Y-78513773D01*
X110598893Y-78607830D01*
X110598529Y-78681932D01*
X110597724Y-78738704D01*
X110596313Y-78780768D01*
X110594133Y-78810748D01*
X110591021Y-78831267D01*
X110586814Y-78844949D01*
X110581348Y-78854416D01*
X110577472Y-78859082D01*
X110546034Y-78879575D01*
X110510233Y-78878739D01*
X110478873Y-78861264D01*
X110452222Y-78839684D01*
X110452222Y-78192227D01*
X110478873Y-78170647D01*
X110504594Y-78154949D01*
X110525600Y-78149067D01*
X110548614Y-78155877D01*
G37*
X110548614Y-78155877D02*
X110572327Y-78170647D01*
X110598978Y-78192227D01*
X110598978Y-78513773D01*
X110598893Y-78607830D01*
X110598529Y-78681932D01*
X110597724Y-78738704D01*
X110596313Y-78780768D01*
X110594133Y-78810748D01*
X110591021Y-78831267D01*
X110586814Y-78844949D01*
X110581348Y-78854416D01*
X110577472Y-78859082D01*
X110546034Y-78879575D01*
X110510233Y-78878739D01*
X110478873Y-78861264D01*
X110452222Y-78839684D01*
X110452222Y-78192227D01*
X110478873Y-78170647D01*
X110504594Y-78154949D01*
X110525600Y-78149067D01*
X110548614Y-78155877D01*
G36*
X112588823Y-78154533D02*
G01*
X112620202Y-78176776D01*
X112647911Y-78204485D01*
X112647911Y-78513920D01*
X112647838Y-78605799D01*
X112647495Y-78677840D01*
X112646692Y-78732780D01*
X112645241Y-78773360D01*
X112642952Y-78802317D01*
X112639636Y-78822391D01*
X112635105Y-78836321D01*
X112629169Y-78846845D01*
X112624514Y-78853100D01*
X112593783Y-78877673D01*
X112558496Y-78880341D01*
X112526245Y-78865271D01*
X112515588Y-78856374D01*
X112508464Y-78844557D01*
X112504167Y-78825526D01*
X112501991Y-78794992D01*
X112501228Y-78748662D01*
X112501155Y-78712871D01*
X112501155Y-78578045D01*
X112004444Y-78578045D01*
X112004444Y-78700700D01*
X112003931Y-78756787D01*
X112001876Y-78795333D01*
X111997508Y-78821361D01*
X111990056Y-78839897D01*
X111981047Y-78853100D01*
X111950144Y-78877604D01*
X111915196Y-78880506D01*
X111881738Y-78863089D01*
X111872604Y-78853959D01*
X111866152Y-78841855D01*
X111861897Y-78823001D01*
X111859352Y-78793620D01*
X111858029Y-78749937D01*
X111857443Y-78688175D01*
X111857375Y-78674000D01*
X111856891Y-78557631D01*
X111856641Y-78461727D01*
X111856723Y-78384177D01*
X111857231Y-78322869D01*
X111858262Y-78275690D01*
X111859913Y-78240530D01*
X111862279Y-78215276D01*
X111865457Y-78197817D01*
X111869544Y-78186041D01*
X111874634Y-78177835D01*
X111880266Y-78171645D01*
X111912128Y-78151844D01*
X111945357Y-78154533D01*
X111976735Y-78176776D01*
X111989433Y-78191126D01*
X111997526Y-78206978D01*
X112002042Y-78229554D01*
X112004006Y-78264078D01*
X112004444Y-78315776D01*
X112004444Y-78431289D01*
X112501155Y-78431289D01*
X112501155Y-78312756D01*
X112501662Y-78258148D01*
X112503698Y-78221275D01*
X112508035Y-78197307D01*
X112515447Y-78181415D01*
X112523733Y-78171645D01*
X112555594Y-78151844D01*
X112588823Y-78154533D01*
G37*
X112588823Y-78154533D02*
X112620202Y-78176776D01*
X112647911Y-78204485D01*
X112647911Y-78513920D01*
X112647838Y-78605799D01*
X112647495Y-78677840D01*
X112646692Y-78732780D01*
X112645241Y-78773360D01*
X112642952Y-78802317D01*
X112639636Y-78822391D01*
X112635105Y-78836321D01*
X112629169Y-78846845D01*
X112624514Y-78853100D01*
X112593783Y-78877673D01*
X112558496Y-78880341D01*
X112526245Y-78865271D01*
X112515588Y-78856374D01*
X112508464Y-78844557D01*
X112504167Y-78825526D01*
X112501991Y-78794992D01*
X112501228Y-78748662D01*
X112501155Y-78712871D01*
X112501155Y-78578045D01*
X112004444Y-78578045D01*
X112004444Y-78700700D01*
X112003931Y-78756787D01*
X112001876Y-78795333D01*
X111997508Y-78821361D01*
X111990056Y-78839897D01*
X111981047Y-78853100D01*
X111950144Y-78877604D01*
X111915196Y-78880506D01*
X111881738Y-78863089D01*
X111872604Y-78853959D01*
X111866152Y-78841855D01*
X111861897Y-78823001D01*
X111859352Y-78793620D01*
X111858029Y-78749937D01*
X111857443Y-78688175D01*
X111857375Y-78674000D01*
X111856891Y-78557631D01*
X111856641Y-78461727D01*
X111856723Y-78384177D01*
X111857231Y-78322869D01*
X111858262Y-78275690D01*
X111859913Y-78240530D01*
X111862279Y-78215276D01*
X111865457Y-78197817D01*
X111869544Y-78186041D01*
X111874634Y-78177835D01*
X111880266Y-78171645D01*
X111912128Y-78151844D01*
X111945357Y-78154533D01*
X111976735Y-78176776D01*
X111989433Y-78191126D01*
X111997526Y-78206978D01*
X112002042Y-78229554D01*
X112004006Y-78264078D01*
X112004444Y-78315776D01*
X112004444Y-78431289D01*
X112501155Y-78431289D01*
X112501155Y-78312756D01*
X112501662Y-78258148D01*
X112503698Y-78221275D01*
X112508035Y-78197307D01*
X112515447Y-78181415D01*
X112523733Y-78171645D01*
X112555594Y-78151844D01*
X112588823Y-78154533D01*
G36*
X104409919Y-78154599D02*
G01*
X104478435Y-78166095D01*
X104531057Y-78183967D01*
X104565292Y-78207499D01*
X104574621Y-78220924D01*
X104584107Y-78252148D01*
X104577723Y-78280395D01*
X104557570Y-78307182D01*
X104526255Y-78319713D01*
X104480817Y-78318696D01*
X104445674Y-78311906D01*
X104367581Y-78298971D01*
X104287774Y-78297742D01*
X104198445Y-78308241D01*
X104173771Y-78312690D01*
X104090709Y-78336108D01*
X104025727Y-78370945D01*
X103979539Y-78416604D01*
X103952855Y-78472494D01*
X103947337Y-78501388D01*
X103950949Y-78560012D01*
X103974271Y-78611879D01*
X104015176Y-78655978D01*
X104071541Y-78691299D01*
X104141240Y-78716829D01*
X104222148Y-78731559D01*
X104312140Y-78734478D01*
X104409090Y-78724575D01*
X104414564Y-78723641D01*
X104453125Y-78716459D01*
X104474506Y-78709521D01*
X104483773Y-78699227D01*
X104485994Y-78681976D01*
X104486044Y-78672841D01*
X104486044Y-78634489D01*
X104417569Y-78634489D01*
X104357100Y-78630347D01*
X104315835Y-78617147D01*
X104291825Y-78593730D01*
X104283123Y-78558936D01*
X104283017Y-78554394D01*
X104288108Y-78524654D01*
X104305567Y-78503419D01*
X104338061Y-78489366D01*
X104388257Y-78481173D01*
X104436877Y-78478161D01*
X104507544Y-78476433D01*
X104558802Y-78479070D01*
X104593761Y-78488800D01*
X104615530Y-78508353D01*
X104627220Y-78540456D01*
X104631940Y-78587838D01*
X104632800Y-78650071D01*
X104631391Y-78719535D01*
X104627152Y-78766786D01*
X104620064Y-78792012D01*
X104618689Y-78793988D01*
X104579772Y-78825508D01*
X104522714Y-78850470D01*
X104451131Y-78868340D01*
X104368642Y-78878586D01*
X104278861Y-78880673D01*
X104185408Y-78874068D01*
X104130444Y-78865956D01*
X104044234Y-78841554D01*
X103964108Y-78801662D01*
X103897023Y-78749887D01*
X103886827Y-78739539D01*
X103853698Y-78696035D01*
X103823806Y-78642118D01*
X103800643Y-78585592D01*
X103787702Y-78534259D01*
X103786142Y-78514544D01*
X103792782Y-78473419D01*
X103810432Y-78422252D01*
X103835703Y-78368394D01*
X103865211Y-78319195D01*
X103891281Y-78286334D01*
X103952235Y-78237452D01*
X104031031Y-78198545D01*
X104124843Y-78170494D01*
X104230850Y-78154179D01*
X104328000Y-78150192D01*
X104409919Y-78154599D01*
G37*
X104409919Y-78154599D02*
X104478435Y-78166095D01*
X104531057Y-78183967D01*
X104565292Y-78207499D01*
X104574621Y-78220924D01*
X104584107Y-78252148D01*
X104577723Y-78280395D01*
X104557570Y-78307182D01*
X104526255Y-78319713D01*
X104480817Y-78318696D01*
X104445674Y-78311906D01*
X104367581Y-78298971D01*
X104287774Y-78297742D01*
X104198445Y-78308241D01*
X104173771Y-78312690D01*
X104090709Y-78336108D01*
X104025727Y-78370945D01*
X103979539Y-78416604D01*
X103952855Y-78472494D01*
X103947337Y-78501388D01*
X103950949Y-78560012D01*
X103974271Y-78611879D01*
X104015176Y-78655978D01*
X104071541Y-78691299D01*
X104141240Y-78716829D01*
X104222148Y-78731559D01*
X104312140Y-78734478D01*
X104409090Y-78724575D01*
X104414564Y-78723641D01*
X104453125Y-78716459D01*
X104474506Y-78709521D01*
X104483773Y-78699227D01*
X104485994Y-78681976D01*
X104486044Y-78672841D01*
X104486044Y-78634489D01*
X104417569Y-78634489D01*
X104357100Y-78630347D01*
X104315835Y-78617147D01*
X104291825Y-78593730D01*
X104283123Y-78558936D01*
X104283017Y-78554394D01*
X104288108Y-78524654D01*
X104305567Y-78503419D01*
X104338061Y-78489366D01*
X104388257Y-78481173D01*
X104436877Y-78478161D01*
X104507544Y-78476433D01*
X104558802Y-78479070D01*
X104593761Y-78488800D01*
X104615530Y-78508353D01*
X104627220Y-78540456D01*
X104631940Y-78587838D01*
X104632800Y-78650071D01*
X104631391Y-78719535D01*
X104627152Y-78766786D01*
X104620064Y-78792012D01*
X104618689Y-78793988D01*
X104579772Y-78825508D01*
X104522714Y-78850470D01*
X104451131Y-78868340D01*
X104368642Y-78878586D01*
X104278861Y-78880673D01*
X104185408Y-78874068D01*
X104130444Y-78865956D01*
X104044234Y-78841554D01*
X103964108Y-78801662D01*
X103897023Y-78749887D01*
X103886827Y-78739539D01*
X103853698Y-78696035D01*
X103823806Y-78642118D01*
X103800643Y-78585592D01*
X103787702Y-78534259D01*
X103786142Y-78514544D01*
X103792782Y-78473419D01*
X103810432Y-78422252D01*
X103835703Y-78368394D01*
X103865211Y-78319195D01*
X103891281Y-78286334D01*
X103952235Y-78237452D01*
X104031031Y-78198545D01*
X104124843Y-78170494D01*
X104230850Y-78154179D01*
X104328000Y-78150192D01*
X104409919Y-78154599D01*
G36*
X107173050Y-78654311D02*
G01*
X107172825Y-78575526D01*
X107172800Y-78513920D01*
X107172800Y-78204485D01*
X107200509Y-78176776D01*
X107212806Y-78165544D01*
X107226103Y-78157853D01*
X107244672Y-78153040D01*
X107272786Y-78150446D01*
X107314717Y-78149410D01*
X107374737Y-78149270D01*
X107378309Y-78149275D01*
X107507288Y-78153636D01*
X107616991Y-78166861D01*
X107709226Y-78189741D01*
X107785802Y-78223070D01*
X107848527Y-78267638D01*
X107899212Y-78324236D01*
X107939663Y-78393658D01*
X107940459Y-78395351D01*
X107964601Y-78457483D01*
X107973203Y-78512509D01*
X107966231Y-78567887D01*
X107943654Y-78631073D01*
X107939372Y-78640689D01*
X107910172Y-78696966D01*
X107877356Y-78740451D01*
X107835002Y-78777417D01*
X107777190Y-78814135D01*
X107773831Y-78816052D01*
X107723504Y-78840227D01*
X107666621Y-78858282D01*
X107599527Y-78870839D01*
X107518565Y-78878522D01*
X107420082Y-78881953D01*
X107385286Y-78882251D01*
X107219594Y-78882845D01*
X107196197Y-78853100D01*
X107189257Y-78843319D01*
X107183842Y-78831897D01*
X107179765Y-78816095D01*
X107176837Y-78793175D01*
X107174867Y-78760396D01*
X107174225Y-78736089D01*
X107330844Y-78736089D01*
X107424726Y-78736089D01*
X107479664Y-78734483D01*
X107536060Y-78730255D01*
X107582345Y-78724292D01*
X107585139Y-78723790D01*
X107667348Y-78701736D01*
X107731114Y-78668600D01*
X107778452Y-78622847D01*
X107811382Y-78562939D01*
X107817108Y-78547061D01*
X107822721Y-78522333D01*
X107820291Y-78497902D01*
X107808467Y-78465400D01*
X107801340Y-78449434D01*
X107778000Y-78407006D01*
X107749880Y-78377240D01*
X107718940Y-78356511D01*
X107656966Y-78329537D01*
X107577651Y-78309998D01*
X107485253Y-78298746D01*
X107418333Y-78296270D01*
X107330844Y-78295822D01*
X107330844Y-78736089D01*
X107174225Y-78736089D01*
X107173668Y-78715021D01*
X107173050Y-78654311D01*
G37*
X107173050Y-78654311D02*
X107172825Y-78575526D01*
X107172800Y-78513920D01*
X107172800Y-78204485D01*
X107200509Y-78176776D01*
X107212806Y-78165544D01*
X107226103Y-78157853D01*
X107244672Y-78153040D01*
X107272786Y-78150446D01*
X107314717Y-78149410D01*
X107374737Y-78149270D01*
X107378309Y-78149275D01*
X107507288Y-78153636D01*
X107616991Y-78166861D01*
X107709226Y-78189741D01*
X107785802Y-78223070D01*
X107848527Y-78267638D01*
X107899212Y-78324236D01*
X107939663Y-78393658D01*
X107940459Y-78395351D01*
X107964601Y-78457483D01*
X107973203Y-78512509D01*
X107966231Y-78567887D01*
X107943654Y-78631073D01*
X107939372Y-78640689D01*
X107910172Y-78696966D01*
X107877356Y-78740451D01*
X107835002Y-78777417D01*
X107777190Y-78814135D01*
X107773831Y-78816052D01*
X107723504Y-78840227D01*
X107666621Y-78858282D01*
X107599527Y-78870839D01*
X107518565Y-78878522D01*
X107420082Y-78881953D01*
X107385286Y-78882251D01*
X107219594Y-78882845D01*
X107196197Y-78853100D01*
X107189257Y-78843319D01*
X107183842Y-78831897D01*
X107179765Y-78816095D01*
X107176837Y-78793175D01*
X107174867Y-78760396D01*
X107174225Y-78736089D01*
X107330844Y-78736089D01*
X107424726Y-78736089D01*
X107479664Y-78734483D01*
X107536060Y-78730255D01*
X107582345Y-78724292D01*
X107585139Y-78723790D01*
X107667348Y-78701736D01*
X107731114Y-78668600D01*
X107778452Y-78622847D01*
X107811382Y-78562939D01*
X107817108Y-78547061D01*
X107822721Y-78522333D01*
X107820291Y-78497902D01*
X107808467Y-78465400D01*
X107801340Y-78449434D01*
X107778000Y-78407006D01*
X107749880Y-78377240D01*
X107718940Y-78356511D01*
X107656966Y-78329537D01*
X107577651Y-78309998D01*
X107485253Y-78298746D01*
X107418333Y-78296270D01*
X107330844Y-78295822D01*
X107330844Y-78736089D01*
X107174225Y-78736089D01*
X107173668Y-78715021D01*
X107173050Y-78654311D01*
G36*
X106688429Y-73829071D02*
G01*
X106848570Y-73850245D01*
X107012510Y-73890385D01*
X107182313Y-73949889D01*
X107360043Y-74029154D01*
X107371310Y-74034699D01*
X107429005Y-74062725D01*
X107480552Y-74086802D01*
X107522191Y-74105249D01*
X107550162Y-74116386D01*
X107559733Y-74118933D01*
X107578950Y-74123941D01*
X107583561Y-74128147D01*
X107578458Y-74138580D01*
X107562418Y-74164868D01*
X107537288Y-74204257D01*
X107504914Y-74253991D01*
X107467143Y-74311315D01*
X107425822Y-74373476D01*
X107382798Y-74437718D01*
X107339917Y-74501285D01*
X107299026Y-74561425D01*
X107261971Y-74615380D01*
X107230600Y-74660397D01*
X107206759Y-74693721D01*
X107192294Y-74712597D01*
X107190309Y-74714787D01*
X107180191Y-74710138D01*
X107157850Y-74692962D01*
X107127280Y-74666440D01*
X107111536Y-74651964D01*
X107015047Y-74576682D01*
X106908336Y-74521241D01*
X106792832Y-74486141D01*
X106669962Y-74471880D01*
X106600561Y-74473051D01*
X106479423Y-74490212D01*
X106370205Y-74526094D01*
X106272582Y-74580959D01*
X106186228Y-74655070D01*
X106110815Y-74748688D01*
X106046018Y-74862076D01*
X106008601Y-74948667D01*
X105964748Y-75084366D01*
X105932428Y-75231850D01*
X105911557Y-75387314D01*
X105902051Y-75546956D01*
X105903827Y-75706973D01*
X105916803Y-75863561D01*
X105940894Y-76012918D01*
X105976018Y-76151240D01*
X106022092Y-76274724D01*
X106038373Y-76308978D01*
X106106620Y-76423064D01*
X106187079Y-76519557D01*
X106278570Y-76597670D01*
X106379911Y-76656617D01*
X106489920Y-76695612D01*
X106607415Y-76713868D01*
X106648883Y-76715211D01*
X106770441Y-76704290D01*
X106890878Y-76671474D01*
X107008666Y-76617439D01*
X107122277Y-76542865D01*
X107213685Y-76464539D01*
X107260215Y-76420008D01*
X107441483Y-76717271D01*
X107486580Y-76791433D01*
X107527819Y-76859646D01*
X107563735Y-76919459D01*
X107592866Y-76968420D01*
X107613750Y-77004079D01*
X107624924Y-77023984D01*
X107626375Y-77027079D01*
X107618146Y-77036718D01*
X107592567Y-77053999D01*
X107552873Y-77077283D01*
X107502297Y-77104934D01*
X107444074Y-77135315D01*
X107381437Y-77166790D01*
X107317621Y-77197722D01*
X107255860Y-77226473D01*
X107199388Y-77251408D01*
X107151438Y-77270889D01*
X107127986Y-77279318D01*
X106994221Y-77317133D01*
X106856327Y-77342136D01*
X106708622Y-77355140D01*
X106581833Y-77357468D01*
X106513878Y-77356373D01*
X106448277Y-77354275D01*
X106390847Y-77351434D01*
X106347403Y-77348106D01*
X106333298Y-77346422D01*
X106194284Y-77317587D01*
X106052757Y-77272468D01*
X105915275Y-77213750D01*
X105788394Y-77144120D01*
X105710889Y-77091441D01*
X105583481Y-76983239D01*
X105465178Y-76856671D01*
X105358172Y-76714866D01*
X105264652Y-76560951D01*
X105186810Y-76398053D01*
X105142956Y-76280756D01*
X105092708Y-76097128D01*
X105059209Y-75902581D01*
X105042449Y-75701325D01*
X105042416Y-75497568D01*
X105059101Y-75295521D01*
X105092493Y-75099392D01*
X105142580Y-74913391D01*
X105146397Y-74901803D01*
X105209281Y-74739750D01*
X105286028Y-74591832D01*
X105379242Y-74453865D01*
X105491527Y-74321661D01*
X105535392Y-74276399D01*
X105671534Y-74152457D01*
X105811491Y-74049915D01*
X105957411Y-73967656D01*
X106111442Y-73904564D01*
X106275732Y-73859523D01*
X106371289Y-73842033D01*
X106530023Y-73826466D01*
X106688429Y-73829071D01*
G37*
X106688429Y-73829071D02*
X106848570Y-73850245D01*
X107012510Y-73890385D01*
X107182313Y-73949889D01*
X107360043Y-74029154D01*
X107371310Y-74034699D01*
X107429005Y-74062725D01*
X107480552Y-74086802D01*
X107522191Y-74105249D01*
X107550162Y-74116386D01*
X107559733Y-74118933D01*
X107578950Y-74123941D01*
X107583561Y-74128147D01*
X107578458Y-74138580D01*
X107562418Y-74164868D01*
X107537288Y-74204257D01*
X107504914Y-74253991D01*
X107467143Y-74311315D01*
X107425822Y-74373476D01*
X107382798Y-74437718D01*
X107339917Y-74501285D01*
X107299026Y-74561425D01*
X107261971Y-74615380D01*
X107230600Y-74660397D01*
X107206759Y-74693721D01*
X107192294Y-74712597D01*
X107190309Y-74714787D01*
X107180191Y-74710138D01*
X107157850Y-74692962D01*
X107127280Y-74666440D01*
X107111536Y-74651964D01*
X107015047Y-74576682D01*
X106908336Y-74521241D01*
X106792832Y-74486141D01*
X106669962Y-74471880D01*
X106600561Y-74473051D01*
X106479423Y-74490212D01*
X106370205Y-74526094D01*
X106272582Y-74580959D01*
X106186228Y-74655070D01*
X106110815Y-74748688D01*
X106046018Y-74862076D01*
X106008601Y-74948667D01*
X105964748Y-75084366D01*
X105932428Y-75231850D01*
X105911557Y-75387314D01*
X105902051Y-75546956D01*
X105903827Y-75706973D01*
X105916803Y-75863561D01*
X105940894Y-76012918D01*
X105976018Y-76151240D01*
X106022092Y-76274724D01*
X106038373Y-76308978D01*
X106106620Y-76423064D01*
X106187079Y-76519557D01*
X106278570Y-76597670D01*
X106379911Y-76656617D01*
X106489920Y-76695612D01*
X106607415Y-76713868D01*
X106648883Y-76715211D01*
X106770441Y-76704290D01*
X106890878Y-76671474D01*
X107008666Y-76617439D01*
X107122277Y-76542865D01*
X107213685Y-76464539D01*
X107260215Y-76420008D01*
X107441483Y-76717271D01*
X107486580Y-76791433D01*
X107527819Y-76859646D01*
X107563735Y-76919459D01*
X107592866Y-76968420D01*
X107613750Y-77004079D01*
X107624924Y-77023984D01*
X107626375Y-77027079D01*
X107618146Y-77036718D01*
X107592567Y-77053999D01*
X107552873Y-77077283D01*
X107502297Y-77104934D01*
X107444074Y-77135315D01*
X107381437Y-77166790D01*
X107317621Y-77197722D01*
X107255860Y-77226473D01*
X107199388Y-77251408D01*
X107151438Y-77270889D01*
X107127986Y-77279318D01*
X106994221Y-77317133D01*
X106856327Y-77342136D01*
X106708622Y-77355140D01*
X106581833Y-77357468D01*
X106513878Y-77356373D01*
X106448277Y-77354275D01*
X106390847Y-77351434D01*
X106347403Y-77348106D01*
X106333298Y-77346422D01*
X106194284Y-77317587D01*
X106052757Y-77272468D01*
X105915275Y-77213750D01*
X105788394Y-77144120D01*
X105710889Y-77091441D01*
X105583481Y-76983239D01*
X105465178Y-76856671D01*
X105358172Y-76714866D01*
X105264652Y-76560951D01*
X105186810Y-76398053D01*
X105142956Y-76280756D01*
X105092708Y-76097128D01*
X105059209Y-75902581D01*
X105042449Y-75701325D01*
X105042416Y-75497568D01*
X105059101Y-75295521D01*
X105092493Y-75099392D01*
X105142580Y-74913391D01*
X105146397Y-74901803D01*
X105209281Y-74739750D01*
X105286028Y-74591832D01*
X105379242Y-74453865D01*
X105491527Y-74321661D01*
X105535392Y-74276399D01*
X105671534Y-74152457D01*
X105811491Y-74049915D01*
X105957411Y-73967656D01*
X106111442Y-73904564D01*
X106275732Y-73859523D01*
X106371289Y-73842033D01*
X106530023Y-73826466D01*
X106688429Y-73829071D01*
G36*
X103436178Y-78171645D02*
G01*
X103442758Y-78179218D01*
X103447921Y-78188987D01*
X103451836Y-78203571D01*
X103454676Y-78225585D01*
X103456613Y-78257648D01*
X103457817Y-78302375D01*
X103458461Y-78362385D01*
X103458716Y-78440294D01*
X103458755Y-78515956D01*
X103458686Y-78609802D01*
X103458362Y-78683689D01*
X103457614Y-78740232D01*
X103456268Y-78782049D01*
X103454154Y-78811757D01*
X103451100Y-78831973D01*
X103446934Y-78845314D01*
X103441484Y-78854398D01*
X103436178Y-78860267D01*
X103403174Y-78879947D01*
X103368009Y-78878181D01*
X103336545Y-78856717D01*
X103329316Y-78848337D01*
X103323666Y-78838614D01*
X103319401Y-78824861D01*
X103316327Y-78804389D01*
X103314248Y-78774512D01*
X103312970Y-78732541D01*
X103312299Y-78675789D01*
X103312041Y-78601567D01*
X103312000Y-78517537D01*
X103312000Y-78204485D01*
X103339709Y-78176776D01*
X103373863Y-78153463D01*
X103406994Y-78152623D01*
X103436178Y-78171645D01*
G37*
X103436178Y-78171645D02*
X103442758Y-78179218D01*
X103447921Y-78188987D01*
X103451836Y-78203571D01*
X103454676Y-78225585D01*
X103456613Y-78257648D01*
X103457817Y-78302375D01*
X103458461Y-78362385D01*
X103458716Y-78440294D01*
X103458755Y-78515956D01*
X103458686Y-78609802D01*
X103458362Y-78683689D01*
X103457614Y-78740232D01*
X103456268Y-78782049D01*
X103454154Y-78811757D01*
X103451100Y-78831973D01*
X103446934Y-78845314D01*
X103441484Y-78854398D01*
X103436178Y-78860267D01*
X103403174Y-78879947D01*
X103368009Y-78878181D01*
X103336545Y-78856717D01*
X103329316Y-78848337D01*
X103323666Y-78838614D01*
X103319401Y-78824861D01*
X103316327Y-78804389D01*
X103314248Y-78774512D01*
X103312970Y-78732541D01*
X103312299Y-78675789D01*
X103312041Y-78601567D01*
X103312000Y-78517537D01*
X103312000Y-78204485D01*
X103339709Y-78176776D01*
X103373863Y-78153463D01*
X103406994Y-78152623D01*
X103436178Y-78171645D01*
G36*
X107642522Y-76350812D02*
G01*
X107658768Y-76279590D01*
X107684405Y-76208864D01*
X107708401Y-76156493D01*
X107767020Y-76061196D01*
X107845117Y-75973170D01*
X107940315Y-75894017D01*
X108050238Y-75825340D01*
X108172510Y-75768741D01*
X108304755Y-75725821D01*
X108369422Y-75710882D01*
X108505604Y-75688777D01*
X108654049Y-75674194D01*
X108805505Y-75667813D01*
X108932064Y-75669445D01*
X109093950Y-75676224D01*
X109086530Y-75617245D01*
X109067238Y-75518092D01*
X109036104Y-75437372D01*
X108992269Y-75374466D01*
X108934871Y-75328756D01*
X108863048Y-75299622D01*
X108775941Y-75286447D01*
X108672686Y-75288611D01*
X108634711Y-75292612D01*
X108493520Y-75317780D01*
X108356707Y-75358814D01*
X108262178Y-75396815D01*
X108217018Y-75416190D01*
X108178585Y-75431760D01*
X108152234Y-75441405D01*
X108144546Y-75443452D01*
X108134802Y-75434374D01*
X108118083Y-75405405D01*
X108094232Y-75356217D01*
X108063093Y-75286484D01*
X108024507Y-75195879D01*
X108017910Y-75180089D01*
X107987853Y-75107772D01*
X107960874Y-75042425D01*
X107938136Y-74986906D01*
X107920806Y-74944072D01*
X107910048Y-74916781D01*
X107906941Y-74907942D01*
X107916940Y-74903187D01*
X107943217Y-74897910D01*
X107971489Y-74894231D01*
X108001646Y-74889474D01*
X108049433Y-74880028D01*
X108110612Y-74866820D01*
X108180946Y-74850776D01*
X108256194Y-74832820D01*
X108284755Y-74825797D01*
X108389816Y-74800209D01*
X108477480Y-74780147D01*
X108552068Y-74764969D01*
X108617903Y-74754035D01*
X108679307Y-74746704D01*
X108740602Y-74742335D01*
X108806110Y-74740287D01*
X108864128Y-74739889D01*
X109033574Y-74746552D01*
X109185492Y-74766567D01*
X109320756Y-74800202D01*
X109440239Y-74847725D01*
X109544815Y-74909405D01*
X109622424Y-74972965D01*
X109691265Y-75047099D01*
X109745006Y-75126871D01*
X109787910Y-75219091D01*
X109803384Y-75262161D01*
X109816244Y-75301142D01*
X109827446Y-75337289D01*
X109837120Y-75372434D01*
X109845396Y-75408410D01*
X109852403Y-75447050D01*
X109858272Y-75490185D01*
X109863131Y-75539649D01*
X109867110Y-75597273D01*
X109870340Y-75664891D01*
X109872949Y-75744334D01*
X109875067Y-75837436D01*
X109876824Y-75946027D01*
X109878349Y-76071942D01*
X109879772Y-76217012D01*
X109881025Y-76359778D01*
X109882351Y-76515968D01*
X109883556Y-76651239D01*
X109884766Y-76767246D01*
X109886106Y-76865645D01*
X109887700Y-76948093D01*
X109889675Y-77016246D01*
X109892156Y-77071760D01*
X109895269Y-77116292D01*
X109899138Y-77151498D01*
X109903889Y-77179034D01*
X109909648Y-77200556D01*
X109916539Y-77217722D01*
X109924689Y-77232186D01*
X109934223Y-77245606D01*
X109945266Y-77259638D01*
X109949566Y-77265071D01*
X109965386Y-77287910D01*
X109972422Y-77303463D01*
X109972444Y-77303922D01*
X109961567Y-77306121D01*
X109930582Y-77308147D01*
X109881957Y-77309942D01*
X109818163Y-77311451D01*
X109741669Y-77312616D01*
X109654944Y-77313380D01*
X109560457Y-77313686D01*
X109549550Y-77313689D01*
X109126657Y-77313689D01*
X109123395Y-77217622D01*
X109120133Y-77121556D01*
X109058044Y-77172543D01*
X108960714Y-77240057D01*
X108850813Y-77294749D01*
X108764349Y-77324978D01*
X108695278Y-77339666D01*
X108611925Y-77349659D01*
X108522159Y-77354646D01*
X108433845Y-77354313D01*
X108354851Y-77348351D01*
X108318622Y-77342638D01*
X108178603Y-77304776D01*
X108052178Y-77249932D01*
X107940260Y-77178924D01*
X107843762Y-77092568D01*
X107763600Y-76991679D01*
X107700687Y-76877076D01*
X107656312Y-76750984D01*
X107643978Y-76694401D01*
X107636368Y-76632202D01*
X107632739Y-76557363D01*
X107632245Y-76523467D01*
X107632310Y-76520282D01*
X108392248Y-76520282D01*
X108401541Y-76595333D01*
X108429728Y-76659160D01*
X108478197Y-76714798D01*
X108483254Y-76719211D01*
X108531548Y-76754037D01*
X108583257Y-76776620D01*
X108643989Y-76788540D01*
X108719352Y-76791383D01*
X108737459Y-76790978D01*
X108791278Y-76788325D01*
X108831308Y-76782909D01*
X108866324Y-76772745D01*
X108905103Y-76755850D01*
X108915745Y-76750672D01*
X108976396Y-76714844D01*
X109023215Y-76672212D01*
X109035952Y-76656973D01*
X109080622Y-76600462D01*
X109080622Y-76404586D01*
X109080086Y-76325939D01*
X109078396Y-76267988D01*
X109075428Y-76228875D01*
X109071057Y-76206741D01*
X109066972Y-76200274D01*
X109051047Y-76197111D01*
X109017264Y-76194488D01*
X108970340Y-76192655D01*
X108914993Y-76191857D01*
X108906106Y-76191842D01*
X108785330Y-76197096D01*
X108682660Y-76213263D01*
X108596106Y-76240961D01*
X108523681Y-76280808D01*
X108468751Y-76327758D01*
X108424204Y-76385645D01*
X108399480Y-76448693D01*
X108392248Y-76520282D01*
X107632310Y-76520282D01*
X107634178Y-76429712D01*
X107642522Y-76350812D01*
G37*
X107642522Y-76350812D02*
X107658768Y-76279590D01*
X107684405Y-76208864D01*
X107708401Y-76156493D01*
X107767020Y-76061196D01*
X107845117Y-75973170D01*
X107940315Y-75894017D01*
X108050238Y-75825340D01*
X108172510Y-75768741D01*
X108304755Y-75725821D01*
X108369422Y-75710882D01*
X108505604Y-75688777D01*
X108654049Y-75674194D01*
X108805505Y-75667813D01*
X108932064Y-75669445D01*
X109093950Y-75676224D01*
X109086530Y-75617245D01*
X109067238Y-75518092D01*
X109036104Y-75437372D01*
X108992269Y-75374466D01*
X108934871Y-75328756D01*
X108863048Y-75299622D01*
X108775941Y-75286447D01*
X108672686Y-75288611D01*
X108634711Y-75292612D01*
X108493520Y-75317780D01*
X108356707Y-75358814D01*
X108262178Y-75396815D01*
X108217018Y-75416190D01*
X108178585Y-75431760D01*
X108152234Y-75441405D01*
X108144546Y-75443452D01*
X108134802Y-75434374D01*
X108118083Y-75405405D01*
X108094232Y-75356217D01*
X108063093Y-75286484D01*
X108024507Y-75195879D01*
X108017910Y-75180089D01*
X107987853Y-75107772D01*
X107960874Y-75042425D01*
X107938136Y-74986906D01*
X107920806Y-74944072D01*
X107910048Y-74916781D01*
X107906941Y-74907942D01*
X107916940Y-74903187D01*
X107943217Y-74897910D01*
X107971489Y-74894231D01*
X108001646Y-74889474D01*
X108049433Y-74880028D01*
X108110612Y-74866820D01*
X108180946Y-74850776D01*
X108256194Y-74832820D01*
X108284755Y-74825797D01*
X108389816Y-74800209D01*
X108477480Y-74780147D01*
X108552068Y-74764969D01*
X108617903Y-74754035D01*
X108679307Y-74746704D01*
X108740602Y-74742335D01*
X108806110Y-74740287D01*
X108864128Y-74739889D01*
X109033574Y-74746552D01*
X109185492Y-74766567D01*
X109320756Y-74800202D01*
X109440239Y-74847725D01*
X109544815Y-74909405D01*
X109622424Y-74972965D01*
X109691265Y-75047099D01*
X109745006Y-75126871D01*
X109787910Y-75219091D01*
X109803384Y-75262161D01*
X109816244Y-75301142D01*
X109827446Y-75337289D01*
X109837120Y-75372434D01*
X109845396Y-75408410D01*
X109852403Y-75447050D01*
X109858272Y-75490185D01*
X109863131Y-75539649D01*
X109867110Y-75597273D01*
X109870340Y-75664891D01*
X109872949Y-75744334D01*
X109875067Y-75837436D01*
X109876824Y-75946027D01*
X109878349Y-76071942D01*
X109879772Y-76217012D01*
X109881025Y-76359778D01*
X109882351Y-76515968D01*
X109883556Y-76651239D01*
X109884766Y-76767246D01*
X109886106Y-76865645D01*
X109887700Y-76948093D01*
X109889675Y-77016246D01*
X109892156Y-77071760D01*
X109895269Y-77116292D01*
X109899138Y-77151498D01*
X109903889Y-77179034D01*
X109909648Y-77200556D01*
X109916539Y-77217722D01*
X109924689Y-77232186D01*
X109934223Y-77245606D01*
X109945266Y-77259638D01*
X109949566Y-77265071D01*
X109965386Y-77287910D01*
X109972422Y-77303463D01*
X109972444Y-77303922D01*
X109961567Y-77306121D01*
X109930582Y-77308147D01*
X109881957Y-77309942D01*
X109818163Y-77311451D01*
X109741669Y-77312616D01*
X109654944Y-77313380D01*
X109560457Y-77313686D01*
X109549550Y-77313689D01*
X109126657Y-77313689D01*
X109123395Y-77217622D01*
X109120133Y-77121556D01*
X109058044Y-77172543D01*
X108960714Y-77240057D01*
X108850813Y-77294749D01*
X108764349Y-77324978D01*
X108695278Y-77339666D01*
X108611925Y-77349659D01*
X108522159Y-77354646D01*
X108433845Y-77354313D01*
X108354851Y-77348351D01*
X108318622Y-77342638D01*
X108178603Y-77304776D01*
X108052178Y-77249932D01*
X107940260Y-77178924D01*
X107843762Y-77092568D01*
X107763600Y-76991679D01*
X107700687Y-76877076D01*
X107656312Y-76750984D01*
X107643978Y-76694401D01*
X107636368Y-76632202D01*
X107632739Y-76557363D01*
X107632245Y-76523467D01*
X107632310Y-76520282D01*
X108392248Y-76520282D01*
X108401541Y-76595333D01*
X108429728Y-76659160D01*
X108478197Y-76714798D01*
X108483254Y-76719211D01*
X108531548Y-76754037D01*
X108583257Y-76776620D01*
X108643989Y-76788540D01*
X108719352Y-76791383D01*
X108737459Y-76790978D01*
X108791278Y-76788325D01*
X108831308Y-76782909D01*
X108866324Y-76772745D01*
X108905103Y-76755850D01*
X108915745Y-76750672D01*
X108976396Y-76714844D01*
X109023215Y-76672212D01*
X109035952Y-76656973D01*
X109080622Y-76600462D01*
X109080622Y-76404586D01*
X109080086Y-76325939D01*
X109078396Y-76267988D01*
X109075428Y-76228875D01*
X109071057Y-76206741D01*
X109066972Y-76200274D01*
X109051047Y-76197111D01*
X109017264Y-76194488D01*
X108970340Y-76192655D01*
X108914993Y-76191857D01*
X108906106Y-76191842D01*
X108785330Y-76197096D01*
X108682660Y-76213263D01*
X108596106Y-76240961D01*
X108523681Y-76280808D01*
X108468751Y-76327758D01*
X108424204Y-76385645D01*
X108399480Y-76448693D01*
X108392248Y-76520282D01*
X107632310Y-76520282D01*
X107634178Y-76429712D01*
X107642522Y-76350812D01*
G36*
X102668297Y-78150351D02*
G01*
X102743112Y-78155581D01*
X102812694Y-78163750D01*
X102872998Y-78174550D01*
X102919980Y-78187673D01*
X102949594Y-78202813D01*
X102954140Y-78207269D01*
X102969946Y-78241850D01*
X102965153Y-78277351D01*
X102940636Y-78307725D01*
X102939466Y-78308596D01*
X102925046Y-78317954D01*
X102909992Y-78322876D01*
X102888995Y-78323473D01*
X102856743Y-78319861D01*
X102807927Y-78312154D01*
X102804000Y-78311505D01*
X102731261Y-78302569D01*
X102652783Y-78298161D01*
X102574073Y-78298119D01*
X102500639Y-78302279D01*
X102437989Y-78310479D01*
X102391630Y-78322557D01*
X102388584Y-78323771D01*
X102354952Y-78342615D01*
X102343136Y-78361685D01*
X102352386Y-78380439D01*
X102381953Y-78398337D01*
X102431089Y-78414837D01*
X102499043Y-78429396D01*
X102544355Y-78436406D01*
X102638544Y-78449889D01*
X102713456Y-78462214D01*
X102772283Y-78474449D01*
X102818215Y-78487661D01*
X102854445Y-78502917D01*
X102884162Y-78521285D01*
X102910558Y-78543831D01*
X102931770Y-78565971D01*
X102956935Y-78596819D01*
X102969319Y-78623345D01*
X102973192Y-78656026D01*
X102973333Y-78667995D01*
X102970424Y-78707712D01*
X102958798Y-78737259D01*
X102938677Y-78763486D01*
X102897784Y-78803576D01*
X102852183Y-78834149D01*
X102798487Y-78856203D01*
X102733308Y-78870735D01*
X102653256Y-78878741D01*
X102554943Y-78881218D01*
X102538711Y-78881177D01*
X102473151Y-78879818D01*
X102408134Y-78876730D01*
X102350748Y-78872356D01*
X102308078Y-78867140D01*
X102304628Y-78866541D01*
X102262204Y-78856491D01*
X102226220Y-78843796D01*
X102205850Y-78832190D01*
X102186893Y-78801572D01*
X102185573Y-78765918D01*
X102201915Y-78734144D01*
X102205571Y-78730551D01*
X102220685Y-78719876D01*
X102239585Y-78715276D01*
X102268838Y-78716059D01*
X102304349Y-78720127D01*
X102344030Y-78723762D01*
X102399655Y-78726828D01*
X102464594Y-78729053D01*
X102532215Y-78730164D01*
X102550000Y-78730237D01*
X102617872Y-78729964D01*
X102667546Y-78728646D01*
X102703390Y-78725827D01*
X102729776Y-78721050D01*
X102751074Y-78713857D01*
X102763874Y-78707867D01*
X102792000Y-78691233D01*
X102809932Y-78676168D01*
X102812553Y-78671897D01*
X102807024Y-78654263D01*
X102780740Y-78637192D01*
X102735522Y-78621458D01*
X102673192Y-78607838D01*
X102654829Y-78604804D01*
X102558910Y-78589738D01*
X102482359Y-78577146D01*
X102422220Y-78566111D01*
X102375540Y-78555720D01*
X102339363Y-78545056D01*
X102310735Y-78533205D01*
X102286702Y-78519251D01*
X102264308Y-78502281D01*
X102240598Y-78481378D01*
X102232620Y-78474049D01*
X102204647Y-78446699D01*
X102189840Y-78425029D01*
X102184048Y-78400232D01*
X102183111Y-78368983D01*
X102193425Y-78307705D01*
X102224248Y-78255640D01*
X102275405Y-78212958D01*
X102346717Y-78179825D01*
X102397600Y-78164964D01*
X102452900Y-78155366D01*
X102519147Y-78149936D01*
X102592294Y-78148367D01*
X102668297Y-78150351D01*
G37*
X102668297Y-78150351D02*
X102743112Y-78155581D01*
X102812694Y-78163750D01*
X102872998Y-78174550D01*
X102919980Y-78187673D01*
X102949594Y-78202813D01*
X102954140Y-78207269D01*
X102969946Y-78241850D01*
X102965153Y-78277351D01*
X102940636Y-78307725D01*
X102939466Y-78308596D01*
X102925046Y-78317954D01*
X102909992Y-78322876D01*
X102888995Y-78323473D01*
X102856743Y-78319861D01*
X102807927Y-78312154D01*
X102804000Y-78311505D01*
X102731261Y-78302569D01*
X102652783Y-78298161D01*
X102574073Y-78298119D01*
X102500639Y-78302279D01*
X102437989Y-78310479D01*
X102391630Y-78322557D01*
X102388584Y-78323771D01*
X102354952Y-78342615D01*
X102343136Y-78361685D01*
X102352386Y-78380439D01*
X102381953Y-78398337D01*
X102431089Y-78414837D01*
X102499043Y-78429396D01*
X102544355Y-78436406D01*
X102638544Y-78449889D01*
X102713456Y-78462214D01*
X102772283Y-78474449D01*
X102818215Y-78487661D01*
X102854445Y-78502917D01*
X102884162Y-78521285D01*
X102910558Y-78543831D01*
X102931770Y-78565971D01*
X102956935Y-78596819D01*
X102969319Y-78623345D01*
X102973192Y-78656026D01*
X102973333Y-78667995D01*
X102970424Y-78707712D01*
X102958798Y-78737259D01*
X102938677Y-78763486D01*
X102897784Y-78803576D01*
X102852183Y-78834149D01*
X102798487Y-78856203D01*
X102733308Y-78870735D01*
X102653256Y-78878741D01*
X102554943Y-78881218D01*
X102538711Y-78881177D01*
X102473151Y-78879818D01*
X102408134Y-78876730D01*
X102350748Y-78872356D01*
X102308078Y-78867140D01*
X102304628Y-78866541D01*
X102262204Y-78856491D01*
X102226220Y-78843796D01*
X102205850Y-78832190D01*
X102186893Y-78801572D01*
X102185573Y-78765918D01*
X102201915Y-78734144D01*
X102205571Y-78730551D01*
X102220685Y-78719876D01*
X102239585Y-78715276D01*
X102268838Y-78716059D01*
X102304349Y-78720127D01*
X102344030Y-78723762D01*
X102399655Y-78726828D01*
X102464594Y-78729053D01*
X102532215Y-78730164D01*
X102550000Y-78730237D01*
X102617872Y-78729964D01*
X102667546Y-78728646D01*
X102703390Y-78725827D01*
X102729776Y-78721050D01*
X102751074Y-78713857D01*
X102763874Y-78707867D01*
X102792000Y-78691233D01*
X102809932Y-78676168D01*
X102812553Y-78671897D01*
X102807024Y-78654263D01*
X102780740Y-78637192D01*
X102735522Y-78621458D01*
X102673192Y-78607838D01*
X102654829Y-78604804D01*
X102558910Y-78589738D01*
X102482359Y-78577146D01*
X102422220Y-78566111D01*
X102375540Y-78555720D01*
X102339363Y-78545056D01*
X102310735Y-78533205D01*
X102286702Y-78519251D01*
X102264308Y-78502281D01*
X102240598Y-78481378D01*
X102232620Y-78474049D01*
X102204647Y-78446699D01*
X102189840Y-78425029D01*
X102184048Y-78400232D01*
X102183111Y-78368983D01*
X102193425Y-78307705D01*
X102224248Y-78255640D01*
X102275405Y-78212958D01*
X102346717Y-78179825D01*
X102397600Y-78164964D01*
X102452900Y-78155366D01*
X102519147Y-78149936D01*
X102592294Y-78148367D01*
X102668297Y-78150351D01*
D12*
%TO.C,J6*%
X170580000Y-67270000D02*
X119660000Y-67270000D01*
X119660000Y-62070000D02*
X119660000Y-67270000D01*
X167980000Y-64670000D02*
X170580000Y-64670000D01*
X170580000Y-62070000D02*
X170580000Y-63400000D01*
X170580000Y-64670000D02*
X170580000Y-67270000D01*
X167980000Y-62070000D02*
X119660000Y-62070000D01*
X169250000Y-62070000D02*
X170580000Y-62070000D01*
X167980000Y-62070000D02*
X167980000Y-64670000D01*
%TO.C,D4*%
X159370000Y-77530000D02*
X153930000Y-77530000D01*
X153930000Y-87270000D02*
X159370000Y-87270000D01*
X153930000Y-85845000D02*
X159370000Y-85845000D01*
X159370000Y-87270000D02*
X159370000Y-77530000D01*
X153930000Y-85605000D02*
X159370000Y-85605000D01*
X153930000Y-77530000D02*
X153930000Y-87270000D01*
X153930000Y-85725000D02*
X159370000Y-85725000D01*
X156650000Y-88180000D02*
X156650000Y-87270000D01*
X156650000Y-76620000D02*
X156650000Y-77530000D01*
%TO.C,R13*%
X125050000Y-101700000D02*
X124280000Y-101700000D01*
X124280000Y-103070000D02*
X124280000Y-100330000D01*
X117740000Y-100330000D02*
X117740000Y-103070000D01*
X116970000Y-101700000D02*
X117740000Y-101700000D01*
X117740000Y-103070000D02*
X124280000Y-103070000D01*
X124280000Y-100330000D02*
X117740000Y-100330000D01*
D13*
%TO.C,SW2*%
X126943333Y-124700000D02*
X126943333Y-129000000D01*
X126943333Y-129000000D02*
X114343333Y-129000000D01*
X114343333Y-129000000D02*
X114343333Y-124700000D01*
X114343333Y-124700000D02*
X126943333Y-124700000D01*
D12*
%TO.C,Q2*%
X146260000Y-101400000D02*
X146260000Y-97800000D01*
X141809999Y-99600000D02*
G75*
G03*
X146248478Y-101438478I2600001J0D01*
G01*
X146248478Y-97761522D02*
G75*
G03*
X141810000Y-99600000I-1838478J-1838478D01*
G01*
%TO.C,R6*%
X143050000Y-89725000D02*
X143050000Y-88955000D01*
X143050000Y-81645000D02*
X143050000Y-82415000D01*
X141680000Y-88955000D02*
X144420000Y-88955000D01*
X141680000Y-82415000D02*
X141680000Y-88955000D01*
X144420000Y-88955000D02*
X144420000Y-82415000D01*
X144420000Y-82415000D02*
X141680000Y-82415000D01*
D13*
%TO.C,SW3*%
X142026666Y-129000000D02*
X129426666Y-129000000D01*
X129426666Y-124700000D02*
X142026666Y-124700000D01*
X129426666Y-129000000D02*
X129426666Y-124700000D01*
X142026666Y-124700000D02*
X142026666Y-129000000D01*
D12*
%TO.C,J2*%
X114510000Y-137325000D02*
X114510000Y-138075000D01*
X126360000Y-135825000D02*
X126360000Y-132875000D01*
X127410000Y-138375000D02*
X127410000Y-137125000D01*
X127120000Y-138085000D02*
X127120000Y-132115000D01*
X127120000Y-132115000D02*
X114500000Y-132115000D01*
X116310000Y-138075000D02*
X116310000Y-137325000D01*
X114510000Y-135825000D02*
X115260000Y-135825000D01*
X126160000Y-138375000D02*
X127410000Y-138375000D01*
X123810000Y-137325000D02*
X117810000Y-137325000D01*
X127110000Y-137325000D02*
X125310000Y-137325000D01*
X126360000Y-132875000D02*
X120810000Y-132875000D01*
X117810000Y-138075000D02*
X123810000Y-138075000D01*
X127110000Y-135825000D02*
X126360000Y-135825000D01*
X125310000Y-137325000D02*
X125310000Y-138075000D01*
X115260000Y-135825000D02*
X115260000Y-132875000D01*
X116310000Y-137325000D02*
X114510000Y-137325000D01*
X125310000Y-138075000D02*
X127110000Y-138075000D01*
X123810000Y-138075000D02*
X123810000Y-137325000D01*
X117810000Y-137325000D02*
X117810000Y-138075000D01*
X115260000Y-132875000D02*
X120810000Y-132875000D01*
X127110000Y-138075000D02*
X127110000Y-137325000D01*
X114510000Y-138075000D02*
X116310000Y-138075000D01*
X114500000Y-138085000D02*
X127120000Y-138085000D01*
X114500000Y-132115000D02*
X114500000Y-138085000D01*
%TO.C,D3*%
X156120000Y-113380000D02*
X153180000Y-113380000D01*
X156120000Y-113500000D02*
X153180000Y-113500000D01*
X153180000Y-112480000D02*
X153180000Y-117920000D01*
X154650000Y-111260000D02*
X154650000Y-112480000D01*
X153180000Y-117920000D02*
X156120000Y-117920000D01*
X156120000Y-113260000D02*
X153180000Y-113260000D01*
X156120000Y-112480000D02*
X153180000Y-112480000D01*
X154650000Y-119140000D02*
X154650000Y-117920000D01*
X156120000Y-117920000D02*
X156120000Y-112480000D01*
%TO.C,L1*%
X166720000Y-108000000D02*
G75*
G03*
X166720000Y-108000000I-3870000J0D01*
G01*
%TO.C,J5*%
X178205000Y-132030000D02*
X178170000Y-132066000D01*
X169455000Y-137405000D02*
X179735000Y-137405000D01*
X169455000Y-135905000D02*
X179735000Y-135905000D01*
X176101000Y-134544000D02*
X176066000Y-134579000D01*
X179735000Y-128044000D02*
X179735000Y-137965000D01*
X175908000Y-134328000D02*
X175861000Y-134374000D01*
X169455000Y-128044000D02*
X179735000Y-128044000D01*
X169215000Y-138205000D02*
X169715000Y-138205000D01*
X169455000Y-131004000D02*
X179735000Y-131004000D01*
X178410000Y-132236000D02*
X178363000Y-132282000D01*
X169215000Y-137465000D02*
X169215000Y-138205000D01*
X169455000Y-137965000D02*
X179735000Y-137965000D01*
X169455000Y-128044000D02*
X169455000Y-137965000D01*
X172055000Y-134985000D02*
G75*
G03*
X172738318Y-134839756I0J1680000D01*
G01*
X171371000Y-134840000D02*
G75*
G03*
X172083805Y-134985253I683999J1535001D01*
G01*
X173590001Y-133989000D02*
G75*
G03*
X173590427Y-132621958I-1535001J684000D01*
G01*
X170520000Y-132621000D02*
G75*
G03*
X170519573Y-133988042I1534993J-684001D01*
G01*
X172739000Y-131770000D02*
G75*
G03*
X171371958Y-131769573I-684001J-1534993D01*
G01*
X178815000Y-133305000D02*
G75*
G03*
X178815000Y-133305000I-1680000J0D01*
G01*
%TO.C,J8*%
X183950000Y-120950000D02*
X183200000Y-120950000D01*
X185450000Y-121700000D02*
X188400000Y-121700000D01*
X189160000Y-120940000D02*
X183190000Y-120940000D01*
X183950000Y-125250000D02*
X183950000Y-124250000D01*
X185450000Y-128550000D02*
X185450000Y-127800000D01*
X182900000Y-128850000D02*
X184150000Y-128850000D01*
X188400000Y-121700000D02*
X188400000Y-124750000D01*
X188400000Y-127800000D02*
X188400000Y-124750000D01*
X185450000Y-120950000D02*
X185450000Y-121700000D01*
X183950000Y-124250000D02*
X183200000Y-124250000D01*
X183200000Y-120950000D02*
X183200000Y-122750000D01*
X183200000Y-128550000D02*
X183950000Y-128550000D01*
X183190000Y-128560000D02*
X189160000Y-128560000D01*
X183200000Y-126750000D02*
X183200000Y-128550000D01*
X183200000Y-125250000D02*
X183950000Y-125250000D01*
X183190000Y-120940000D02*
X183190000Y-128560000D01*
X183200000Y-122750000D02*
X183950000Y-122750000D01*
X183950000Y-128550000D02*
X183950000Y-126750000D01*
X183200000Y-124250000D02*
X183200000Y-125250000D01*
X185450000Y-127800000D02*
X188400000Y-127800000D01*
X182900000Y-127600000D02*
X182900000Y-128850000D01*
X183950000Y-122750000D02*
X183950000Y-120950000D01*
X183950000Y-126750000D02*
X183200000Y-126750000D01*
X189160000Y-128560000D02*
X189160000Y-120940000D01*
D13*
%TO.C,U26*%
X130750000Y-74700000D02*
X114750000Y-74700000D01*
X130750000Y-90700000D02*
X114750000Y-90700000D01*
D14*
X133000000Y-89750000D02*
G75*
G03*
X133000000Y-89750000I-100000J0D01*
G01*
D12*
%TO.C,C4*%
X186870000Y-75044888D02*
G75*
G03*
X186870000Y-75044888I-2620000J0D01*
G01*
X183210000Y-76485888D02*
X182101000Y-76485888D01*
X186800000Y-75444888D02*
X185290000Y-75444888D01*
X183210000Y-75364888D02*
X181689000Y-75364888D01*
X183210000Y-75284888D02*
X181681000Y-75284888D01*
X186741000Y-75724888D02*
X185290000Y-75724888D01*
X186815000Y-75324888D02*
X185290000Y-75324888D01*
X186648000Y-76005888D02*
X185290000Y-76005888D01*
X183210000Y-76805888D02*
X182349000Y-76805888D01*
X186705000Y-75845888D02*
X185290000Y-75845888D01*
X186345000Y-76565888D02*
X185290000Y-76565888D01*
X186730000Y-75765888D02*
X185290000Y-75765888D01*
X186221000Y-76725888D02*
X185290000Y-76725888D01*
X186285000Y-76645888D02*
X185290000Y-76645888D01*
X183210000Y-76205888D02*
X181940000Y-76205888D01*
X186632000Y-76045888D02*
X185290000Y-76045888D01*
X186828000Y-75164888D02*
X181672000Y-75164888D01*
X183210000Y-76445888D02*
X182075000Y-76445888D01*
X186450000Y-76405888D02*
X185290000Y-76405888D01*
X183210000Y-77005888D02*
X182551000Y-77005888D01*
X183210000Y-77245888D02*
X182867000Y-77245888D01*
X183210000Y-77165888D02*
X182750000Y-77165888D01*
X186399000Y-76485888D02*
X185290000Y-76485888D01*
X183210000Y-75925888D02*
X181822000Y-75925888D01*
X183210000Y-76565888D02*
X182155000Y-76565888D01*
X186518000Y-76285888D02*
X185290000Y-76285888D01*
X185993000Y-76965888D02*
X185290000Y-76965888D01*
X183210000Y-77325888D02*
X182999000Y-77325888D01*
X183210000Y-76525888D02*
X182128000Y-76525888D01*
X183210000Y-76925888D02*
X182465000Y-76925888D01*
X183210000Y-77285888D02*
X182931000Y-77285888D01*
X186786000Y-75524888D02*
X185290000Y-75524888D01*
X183210000Y-76685888D02*
X182246000Y-76685888D01*
X186826000Y-75204888D02*
X181674000Y-75204888D01*
X183210000Y-76325888D02*
X182003000Y-76325888D01*
X186819000Y-75284888D02*
X185290000Y-75284888D01*
X186114000Y-76845888D02*
X185290000Y-76845888D01*
X186761000Y-75644888D02*
X185290000Y-75644888D01*
X183210000Y-77125888D02*
X182696000Y-77125888D01*
X183210000Y-76725888D02*
X182279000Y-76725888D01*
X185949000Y-77005888D02*
X185290000Y-77005888D01*
X186425000Y-76445888D02*
X185290000Y-76445888D01*
X186615000Y-76085888D02*
X185290000Y-76085888D01*
X186718000Y-75805888D02*
X185290000Y-75805888D01*
X183210000Y-75444888D02*
X181700000Y-75444888D01*
X183210000Y-76285888D02*
X181982000Y-76285888D01*
X186811000Y-75364888D02*
X185290000Y-75364888D01*
X186560000Y-76205888D02*
X185290000Y-76205888D01*
X183210000Y-76845888D02*
X182386000Y-76845888D01*
X186823000Y-75244888D02*
X181677000Y-75244888D01*
X185750000Y-77165888D02*
X185290000Y-77165888D01*
X186254000Y-76685888D02*
X185290000Y-76685888D01*
X183210000Y-75404888D02*
X181694000Y-75404888D01*
X184534000Y-77645888D02*
X183966000Y-77645888D01*
X186806000Y-75404888D02*
X185290000Y-75404888D01*
X183210000Y-75604888D02*
X181730000Y-75604888D01*
X183210000Y-76645888D02*
X182215000Y-76645888D01*
X186778000Y-75564888D02*
X185290000Y-75564888D01*
X186751000Y-75684888D02*
X185290000Y-75684888D01*
X186793000Y-75484888D02*
X185290000Y-75484888D01*
X186830000Y-75084888D02*
X181670000Y-75084888D01*
X183210000Y-76885888D02*
X182424000Y-76885888D01*
X186830000Y-75044888D02*
X181670000Y-75044888D01*
X185633000Y-77245888D02*
X185290000Y-77245888D01*
X183210000Y-75524888D02*
X181714000Y-75524888D01*
X186829000Y-75124888D02*
X181671000Y-75124888D01*
X185855000Y-77085888D02*
X185290000Y-77085888D01*
X185501000Y-77325888D02*
X185290000Y-77325888D01*
X186315000Y-76605888D02*
X185290000Y-76605888D01*
X183210000Y-76045888D02*
X181868000Y-76045888D01*
X183210000Y-76605888D02*
X182185000Y-76605888D01*
X186372000Y-76525888D02*
X185290000Y-76525888D01*
X183210000Y-75564888D02*
X181722000Y-75564888D01*
X183210000Y-75805888D02*
X181782000Y-75805888D01*
X183210000Y-75765888D02*
X181770000Y-75765888D01*
X185693000Y-77205888D02*
X185290000Y-77205888D01*
X186540000Y-76245888D02*
X185290000Y-76245888D01*
X183210000Y-77045888D02*
X182597000Y-77045888D01*
X186151000Y-76805888D02*
X185290000Y-76805888D01*
X185428000Y-77365888D02*
X183072000Y-77365888D01*
X183210000Y-75644888D02*
X181739000Y-75644888D01*
X185261000Y-77445888D02*
X183239000Y-77445888D01*
X185569000Y-77285888D02*
X185290000Y-77285888D01*
X186770000Y-75604888D02*
X185290000Y-75604888D01*
X186598000Y-76125888D02*
X185290000Y-76125888D01*
X183210000Y-76005888D02*
X181852000Y-76005888D01*
X186579000Y-76165888D02*
X185290000Y-76165888D01*
X185725000Y-72240113D02*
X185725000Y-72740113D01*
X183210000Y-75684888D02*
X181749000Y-75684888D01*
X183210000Y-77205888D02*
X182807000Y-77205888D01*
X183210000Y-76965888D02*
X182507000Y-76965888D01*
X183210000Y-76765888D02*
X182313000Y-76765888D01*
X183210000Y-76125888D02*
X181902000Y-76125888D01*
X184927000Y-77565888D02*
X183573000Y-77565888D01*
X186692000Y-75885888D02*
X185290000Y-75885888D01*
X186497000Y-76325888D02*
X185290000Y-76325888D01*
X183210000Y-77085888D02*
X182645000Y-77085888D01*
X185055000Y-77525888D02*
X183445000Y-77525888D01*
X183210000Y-76365888D02*
X182026000Y-76365888D01*
X183210000Y-76405888D02*
X182050000Y-76405888D01*
X186474000Y-76365888D02*
X185290000Y-76365888D01*
X185165000Y-77485888D02*
X183335000Y-77485888D01*
X186035000Y-76925888D02*
X185290000Y-76925888D01*
X186187000Y-76765888D02*
X185290000Y-76765888D01*
X183210000Y-75324888D02*
X181685000Y-75324888D01*
X183210000Y-76085888D02*
X181885000Y-76085888D01*
X185804000Y-77125888D02*
X185290000Y-77125888D01*
X183210000Y-76245888D02*
X181960000Y-76245888D01*
X185903000Y-77045888D02*
X185290000Y-77045888D01*
X186678000Y-75925888D02*
X185290000Y-75925888D01*
X184768000Y-77605888D02*
X183732000Y-77605888D01*
X183210000Y-75845888D02*
X181795000Y-75845888D01*
X183210000Y-75724888D02*
X181759000Y-75724888D01*
X185348000Y-77405888D02*
X183152000Y-77405888D01*
X186076000Y-76885888D02*
X185290000Y-76885888D01*
X183210000Y-75965888D02*
X181836000Y-75965888D01*
X186664000Y-75965888D02*
X185290000Y-75965888D01*
X183210000Y-75484888D02*
X181707000Y-75484888D01*
X183210000Y-75885888D02*
X181808000Y-75885888D01*
X185975000Y-72490113D02*
X185475000Y-72490113D01*
X183210000Y-76165888D02*
X181921000Y-76165888D01*
%TO.C,Q1*%
X189400000Y-81080000D02*
X173510000Y-81080000D01*
X173510000Y-81080000D02*
X173510000Y-91320000D01*
X189400000Y-91320000D02*
X173510000Y-91320000D01*
X173510000Y-88740000D02*
X170970000Y-88740000D01*
X189400000Y-81080000D02*
X189400000Y-91320000D01*
X173510000Y-83660000D02*
X170970000Y-83660000D01*
X173510000Y-86200000D02*
X170970000Y-86200000D01*
%TO.C,R2*%
X111760000Y-120400000D02*
X110990000Y-120400000D01*
X110990000Y-119030000D02*
X104450000Y-119030000D01*
X103680000Y-120400000D02*
X104450000Y-120400000D01*
X104450000Y-121770000D02*
X110990000Y-121770000D01*
X104450000Y-119030000D02*
X104450000Y-121770000D01*
X110990000Y-121770000D02*
X110990000Y-119030000D01*
%TO.C,L2*%
X166720000Y-97000000D02*
G75*
G03*
X166720000Y-97000000I-3870000J0D01*
G01*
%TO.C,C6*%
X145270000Y-114995000D02*
X145270000Y-115620000D01*
X145270000Y-112780000D02*
X145270000Y-113405000D01*
X141230000Y-115620000D02*
X145270000Y-115620000D01*
X141230000Y-112780000D02*
X141230000Y-113405000D01*
X141230000Y-112780000D02*
X145270000Y-112780000D01*
X141230000Y-114995000D02*
X141230000Y-115620000D01*
%TO.C,BZ1*%
X105850000Y-87900000D02*
G75*
G03*
X105850000Y-87900000I-6100000J0D01*
G01*
%TO.C,J3*%
X131060000Y-137325000D02*
X129260000Y-137325000D01*
X140060000Y-137325000D02*
X140060000Y-138075000D01*
X130010000Y-135825000D02*
X130010000Y-132875000D01*
X131060000Y-138075000D02*
X131060000Y-137325000D01*
X129260000Y-137325000D02*
X129260000Y-138075000D01*
X141870000Y-138085000D02*
X141870000Y-132115000D01*
X130010000Y-132875000D02*
X135560000Y-132875000D01*
X129250000Y-138085000D02*
X141870000Y-138085000D01*
X129260000Y-138075000D02*
X131060000Y-138075000D01*
X141110000Y-132875000D02*
X135560000Y-132875000D01*
X141870000Y-132115000D02*
X129250000Y-132115000D01*
X129260000Y-135825000D02*
X130010000Y-135825000D01*
X141860000Y-138075000D02*
X141860000Y-137325000D01*
X132560000Y-137325000D02*
X132560000Y-138075000D01*
X132560000Y-138075000D02*
X138560000Y-138075000D01*
X140910000Y-138375000D02*
X142160000Y-138375000D01*
X142160000Y-138375000D02*
X142160000Y-137125000D01*
X138560000Y-138075000D02*
X138560000Y-137325000D01*
X141860000Y-137325000D02*
X140060000Y-137325000D01*
X141860000Y-135825000D02*
X141110000Y-135825000D01*
X140060000Y-138075000D02*
X141860000Y-138075000D01*
X141110000Y-135825000D02*
X141110000Y-132875000D01*
X138560000Y-137325000D02*
X132560000Y-137325000D01*
X129250000Y-132115000D02*
X129250000Y-138085000D01*
%TO.C,D2*%
X150486000Y-73845000D02*
X150330000Y-73845000D01*
X148170000Y-73845000D02*
X148014000Y-73845000D01*
X150329837Y-76446130D02*
G75*
G03*
X150330000Y-74364039I-1079837J1041130D01*
G01*
X148170000Y-74364039D02*
G75*
G03*
X148170163Y-76446130I1080000J-1040961D01*
G01*
X150328608Y-77077335D02*
G75*
G03*
X150485516Y-73845000I-1078608J1672335D01*
G01*
X148014484Y-73845000D02*
G75*
G03*
X148171392Y-77077335I1235516J-1560000D01*
G01*
%TO.C,R5*%
X135480000Y-88955000D02*
X138220000Y-88955000D01*
X136850000Y-89725000D02*
X136850000Y-88955000D01*
X138220000Y-88955000D02*
X138220000Y-82415000D01*
X135480000Y-82415000D02*
X135480000Y-88955000D01*
X136850000Y-81645000D02*
X136850000Y-82415000D01*
X138220000Y-82415000D02*
X135480000Y-82415000D01*
%TO.C,R3*%
X153280000Y-97330000D02*
X153280000Y-103870000D01*
X156020000Y-97330000D02*
X153280000Y-97330000D01*
X153280000Y-103870000D02*
X156020000Y-103870000D01*
X154650000Y-104640000D02*
X154650000Y-103870000D01*
X154650000Y-96560000D02*
X154650000Y-97330000D01*
X156020000Y-103870000D02*
X156020000Y-97330000D01*
%TO.C,D7*%
X141814000Y-76975000D02*
X141970000Y-76975000D01*
X144130000Y-76975000D02*
X144286000Y-76975000D01*
X144285516Y-76975000D02*
G75*
G03*
X144128608Y-73742665I-1235516J1560000D01*
G01*
X141971392Y-73742665D02*
G75*
G03*
X141814484Y-76975000I1078608J-1672335D01*
G01*
X141970163Y-74373870D02*
G75*
G03*
X141970000Y-76455961I1079837J-1041130D01*
G01*
X144130000Y-76455961D02*
G75*
G03*
X144129837Y-74373870I-1080000J1040961D01*
G01*
%TO.C,C1*%
X176460000Y-121240000D02*
X176460000Y-125268000D01*
X177381000Y-122840000D02*
X177381000Y-125118000D01*
X180661000Y-117911000D02*
X180661000Y-122489000D01*
X179821000Y-116722000D02*
X179821000Y-123678000D01*
X178821000Y-122840000D02*
X178821000Y-124498000D01*
X177421000Y-122840000D02*
X177421000Y-125107000D01*
X177661000Y-122840000D02*
X177661000Y-125037000D01*
X178781000Y-115877000D02*
X178781000Y-120760000D01*
X181101000Y-119138000D02*
X181101000Y-121262000D01*
X179981000Y-116899000D02*
X179981000Y-123501000D01*
X176740000Y-115160000D02*
X176740000Y-119160000D01*
X176580000Y-121240000D02*
X176580000Y-125258000D01*
X179101000Y-116090000D02*
X179101000Y-124310000D01*
X179941000Y-116853000D02*
X179941000Y-123547000D01*
X176380000Y-121240000D02*
X176380000Y-125273000D01*
X178701000Y-115829000D02*
X178701000Y-120760000D01*
X176700000Y-115155000D02*
X176700000Y-119160000D01*
X177301000Y-115262000D02*
X177301000Y-119160000D01*
X178901000Y-115953000D02*
X178901000Y-120760000D01*
X180501000Y-117621000D02*
X180501000Y-122779000D01*
X180301000Y-117311000D02*
X180301000Y-123089000D01*
X178621000Y-122840000D02*
X178621000Y-124617000D01*
X178061000Y-115510000D02*
X178061000Y-119160000D01*
X177261000Y-115253000D02*
X177261000Y-119160000D01*
X176580000Y-115142000D02*
X176580000Y-119160000D01*
X177861000Y-115432000D02*
X177861000Y-119160000D01*
X179701000Y-116599000D02*
X179701000Y-123801000D01*
X176300000Y-115123000D02*
X176300000Y-125277000D01*
X178261000Y-115597000D02*
X178261000Y-119160000D01*
X179021000Y-116034000D02*
X179021000Y-120760000D01*
X176500000Y-115135000D02*
X176500000Y-119160000D01*
X176780000Y-121240000D02*
X176780000Y-125235000D01*
X178461000Y-122840000D02*
X178461000Y-124704000D01*
X178221000Y-115579000D02*
X178221000Y-119160000D01*
X176100000Y-115120000D02*
X176100000Y-125280000D01*
X179261000Y-116211000D02*
X179261000Y-124189000D01*
X178621000Y-115783000D02*
X178621000Y-120760000D01*
X177821000Y-122840000D02*
X177821000Y-124983000D01*
X178461000Y-115696000D02*
X178461000Y-120760000D01*
X179861000Y-116764000D02*
X179861000Y-123636000D01*
X181061000Y-118970000D02*
X181061000Y-121430000D01*
X176420000Y-121240000D02*
X176420000Y-125270000D01*
X180621000Y-117835000D02*
X180621000Y-122565000D01*
X177341000Y-115272000D02*
X177341000Y-119160000D01*
X180981000Y-118690000D02*
X180981000Y-121710000D01*
X177661000Y-115363000D02*
X177661000Y-119160000D01*
X178941000Y-115979000D02*
X178941000Y-120760000D01*
X179061000Y-122840000D02*
X179061000Y-124338000D01*
X178261000Y-122840000D02*
X178261000Y-124803000D01*
X179581000Y-116484000D02*
X179581000Y-123916000D01*
X176500000Y-121240000D02*
X176500000Y-125265000D01*
X178221000Y-122840000D02*
X178221000Y-124821000D01*
X177701000Y-115376000D02*
X177701000Y-119160000D01*
X171120354Y-116825000D02*
X171120354Y-117825000D01*
X178021000Y-115493000D02*
X178021000Y-119160000D01*
X180101000Y-117044000D02*
X180101000Y-123356000D01*
X177941000Y-115462000D02*
X177941000Y-119160000D01*
X178981000Y-116006000D02*
X178981000Y-120760000D01*
X178741000Y-122840000D02*
X178741000Y-124547000D01*
X178541000Y-115738000D02*
X178541000Y-120760000D01*
X178181000Y-122840000D02*
X178181000Y-124839000D01*
X176340000Y-121240000D02*
X176340000Y-125275000D01*
X177061000Y-115210000D02*
X177061000Y-119160000D01*
X176780000Y-115165000D02*
X176780000Y-119160000D01*
X180261000Y-117255000D02*
X180261000Y-123145000D01*
X178341000Y-115636000D02*
X178341000Y-119160000D01*
X181021000Y-118822000D02*
X181021000Y-121578000D01*
X178301000Y-115616000D02*
X178301000Y-119160000D01*
X180021000Y-116946000D02*
X180021000Y-123454000D01*
X179741000Y-116639000D02*
X179741000Y-123761000D01*
X179661000Y-116560000D02*
X179661000Y-123840000D01*
X181141000Y-119338000D02*
X181141000Y-121062000D01*
X180221000Y-117200000D02*
X180221000Y-123200000D01*
X177781000Y-115403000D02*
X177781000Y-119160000D01*
X180781000Y-118163000D02*
X180781000Y-122237000D01*
X178941000Y-122840000D02*
X178941000Y-124421000D01*
X176620000Y-121240000D02*
X176620000Y-125254000D01*
X177821000Y-115417000D02*
X177821000Y-119160000D01*
X177621000Y-115350000D02*
X177621000Y-119160000D01*
X179141000Y-116120000D02*
X179141000Y-124280000D01*
X176861000Y-121240000D02*
X176861000Y-125224000D01*
X177541000Y-122840000D02*
X177541000Y-125074000D01*
X177261000Y-122840000D02*
X177261000Y-125147000D01*
X177981000Y-122840000D02*
X177981000Y-124923000D01*
X178381000Y-115655000D02*
X178381000Y-119160000D01*
X180901000Y-118458000D02*
X180901000Y-121942000D01*
X177741000Y-122840000D02*
X177741000Y-125011000D01*
X179301000Y-116243000D02*
X179301000Y-124157000D01*
X176140000Y-115120000D02*
X176140000Y-125280000D01*
X178141000Y-122840000D02*
X178141000Y-124857000D01*
X178741000Y-115853000D02*
X178741000Y-120760000D01*
X178781000Y-122840000D02*
X178781000Y-124523000D01*
X177501000Y-122840000D02*
X177501000Y-125085000D01*
X179461000Y-116376000D02*
X179461000Y-124024000D01*
X176901000Y-121240000D02*
X176901000Y-125218000D01*
X180701000Y-117991000D02*
X180701000Y-122409000D01*
X177461000Y-115303000D02*
X177461000Y-119160000D01*
X176420000Y-115130000D02*
X176420000Y-119160000D01*
X176260000Y-115122000D02*
X176260000Y-125278000D01*
X176740000Y-121240000D02*
X176740000Y-125240000D01*
X178381000Y-122840000D02*
X178381000Y-124745000D01*
X178101000Y-122840000D02*
X178101000Y-124874000D01*
X181181000Y-119601000D02*
X181181000Y-120799000D01*
X178341000Y-122840000D02*
X178341000Y-124764000D01*
X178861000Y-122840000D02*
X178861000Y-124473000D01*
X179181000Y-116150000D02*
X179181000Y-124250000D01*
X176180000Y-115120000D02*
X176180000Y-125280000D01*
X180381000Y-117430000D02*
X180381000Y-122970000D01*
X178421000Y-115675000D02*
X178421000Y-120760000D01*
X176821000Y-121240000D02*
X176821000Y-125230000D01*
X177781000Y-122840000D02*
X177781000Y-124997000D01*
X179621000Y-116521000D02*
X179621000Y-123879000D01*
X176660000Y-115150000D02*
X176660000Y-119160000D01*
X178661000Y-122840000D02*
X178661000Y-124595000D01*
X179901000Y-116808000D02*
X179901000Y-123592000D01*
X177901000Y-115446000D02*
X177901000Y-119160000D01*
X179061000Y-116062000D02*
X179061000Y-120760000D01*
X178061000Y-122840000D02*
X178061000Y-124890000D01*
X178541000Y-122840000D02*
X178541000Y-124662000D01*
X177021000Y-115203000D02*
X177021000Y-119160000D01*
X176821000Y-115170000D02*
X176821000Y-119160000D01*
X180741000Y-118075000D02*
X180741000Y-122325000D01*
X176540000Y-121240000D02*
X176540000Y-125262000D01*
X177141000Y-122840000D02*
X177141000Y-125174000D01*
X177141000Y-115226000D02*
X177141000Y-119160000D01*
X177021000Y-122840000D02*
X177021000Y-125197000D01*
X178421000Y-122840000D02*
X178421000Y-124725000D01*
X177621000Y-122840000D02*
X177621000Y-125050000D01*
X178181000Y-115561000D02*
X178181000Y-119160000D01*
X177501000Y-115315000D02*
X177501000Y-119160000D01*
X177061000Y-122840000D02*
X177061000Y-125190000D01*
X176340000Y-115125000D02*
X176340000Y-119160000D01*
X176981000Y-121240000D02*
X176981000Y-125204000D01*
X180181000Y-117146000D02*
X180181000Y-123254000D01*
X177181000Y-115235000D02*
X177181000Y-119160000D01*
X177461000Y-122840000D02*
X177461000Y-125097000D01*
X180941000Y-118570000D02*
X180941000Y-121830000D01*
X177341000Y-122840000D02*
X177341000Y-125128000D01*
X179021000Y-122840000D02*
X179021000Y-124366000D01*
X178021000Y-122840000D02*
X178021000Y-124907000D01*
X176941000Y-121240000D02*
X176941000Y-125211000D01*
X180541000Y-117690000D02*
X180541000Y-122710000D01*
X176380000Y-115127000D02*
X176380000Y-119160000D01*
X177981000Y-115477000D02*
X177981000Y-119160000D01*
X177741000Y-115389000D02*
X177741000Y-119160000D01*
X176540000Y-115138000D02*
X176540000Y-119160000D01*
X179221000Y-116180000D02*
X179221000Y-124220000D01*
X178661000Y-115805000D02*
X178661000Y-120760000D01*
X176660000Y-121240000D02*
X176660000Y-125250000D01*
X179381000Y-116308000D02*
X179381000Y-124092000D01*
X179501000Y-116411000D02*
X179501000Y-123989000D01*
X176620000Y-115146000D02*
X176620000Y-119160000D01*
X176981000Y-115196000D02*
X176981000Y-119160000D01*
X177581000Y-122840000D02*
X177581000Y-125062000D01*
X176700000Y-121240000D02*
X176700000Y-125245000D01*
X178981000Y-122840000D02*
X178981000Y-124394000D01*
X179341000Y-116275000D02*
X179341000Y-124125000D01*
X177901000Y-122840000D02*
X177901000Y-124954000D01*
X178581000Y-115760000D02*
X178581000Y-120760000D01*
X176941000Y-115189000D02*
X176941000Y-119160000D01*
X180861000Y-118354000D02*
X180861000Y-122046000D01*
X177381000Y-115282000D02*
X177381000Y-119160000D01*
X177101000Y-122840000D02*
X177101000Y-125182000D01*
X180061000Y-116994000D02*
X180061000Y-123406000D01*
X178821000Y-115902000D02*
X178821000Y-120760000D01*
X179781000Y-116680000D02*
X179781000Y-123720000D01*
X178901000Y-122840000D02*
X178901000Y-124447000D01*
X179421000Y-116342000D02*
X179421000Y-124058000D01*
X180821000Y-118256000D02*
X180821000Y-122144000D01*
X176460000Y-115132000D02*
X176460000Y-119160000D01*
X170620354Y-117325000D02*
X171620354Y-117325000D01*
X178701000Y-122840000D02*
X178701000Y-124571000D01*
X180141000Y-117094000D02*
X180141000Y-123306000D01*
X180341000Y-117370000D02*
X180341000Y-123030000D01*
X180421000Y-117491000D02*
X180421000Y-122909000D01*
X177181000Y-122840000D02*
X177181000Y-125165000D01*
X178101000Y-115526000D02*
X178101000Y-119160000D01*
X176861000Y-115176000D02*
X176861000Y-119160000D01*
X177941000Y-122840000D02*
X177941000Y-124938000D01*
X178501000Y-115717000D02*
X178501000Y-120760000D01*
X180581000Y-117761000D02*
X180581000Y-122639000D01*
X176220000Y-115121000D02*
X176220000Y-125279000D01*
X177101000Y-115218000D02*
X177101000Y-119160000D01*
X177541000Y-115326000D02*
X177541000Y-119160000D01*
X179541000Y-116447000D02*
X179541000Y-123953000D01*
X177421000Y-115293000D02*
X177421000Y-119160000D01*
X176901000Y-115182000D02*
X176901000Y-119160000D01*
X178581000Y-122840000D02*
X178581000Y-124640000D01*
X177301000Y-122840000D02*
X177301000Y-125138000D01*
X178861000Y-115927000D02*
X178861000Y-120760000D01*
X178301000Y-122840000D02*
X178301000Y-124784000D01*
X177861000Y-122840000D02*
X177861000Y-124968000D01*
X177701000Y-122840000D02*
X177701000Y-125024000D01*
X177581000Y-115338000D02*
X177581000Y-119160000D01*
X178501000Y-122840000D02*
X178501000Y-124683000D01*
X178141000Y-115543000D02*
X178141000Y-119160000D01*
X177221000Y-122840000D02*
X177221000Y-125156000D01*
X180461000Y-117555000D02*
X180461000Y-122845000D01*
X177221000Y-115244000D02*
X177221000Y-119160000D01*
X181220000Y-120200000D02*
G75*
G03*
X181220000Y-120200000I-5120000J0D01*
G01*
%TO.C,D5*%
X160130000Y-87270000D02*
X165570000Y-87270000D01*
X160130000Y-85725000D02*
X165570000Y-85725000D01*
X165570000Y-87270000D02*
X165570000Y-77530000D01*
X160130000Y-77530000D02*
X160130000Y-87270000D01*
X165570000Y-77530000D02*
X160130000Y-77530000D01*
X160130000Y-85605000D02*
X165570000Y-85605000D01*
X162850000Y-88180000D02*
X162850000Y-87270000D01*
X160130000Y-85845000D02*
X165570000Y-85845000D01*
X162850000Y-76620000D02*
X162850000Y-77530000D01*
%TO.C,U2*%
X173540000Y-111400000D02*
X170900000Y-111400000D01*
X173540000Y-106300000D02*
X170900000Y-106300000D01*
X173540000Y-109700000D02*
X170900000Y-109700000D01*
X173540000Y-104600000D02*
X170900000Y-104600000D01*
X173540000Y-102879000D02*
X173540000Y-113120000D01*
X189430000Y-102879000D02*
X173540000Y-102879000D01*
X173540000Y-108000000D02*
X170900000Y-108000000D01*
X189430000Y-113120000D02*
X173540000Y-113120000D01*
X189430000Y-102879000D02*
X189430000Y-113120000D01*
%TO.C,R14*%
X103930000Y-96900000D02*
X104700000Y-96900000D01*
X111240000Y-95530000D02*
X104700000Y-95530000D01*
X112010000Y-96900000D02*
X111240000Y-96900000D01*
X104700000Y-98270000D02*
X111240000Y-98270000D01*
X104700000Y-95530000D02*
X104700000Y-98270000D01*
X111240000Y-98270000D02*
X111240000Y-95530000D01*
%TO.C,R1*%
X152620000Y-97330000D02*
X149880000Y-97330000D01*
X151250000Y-104640000D02*
X151250000Y-103870000D01*
X149880000Y-103870000D02*
X152620000Y-103870000D01*
X151250000Y-96560000D02*
X151250000Y-97330000D01*
X152620000Y-103870000D02*
X152620000Y-97330000D01*
X149880000Y-97330000D02*
X149880000Y-103870000D01*
%TO.C,Q3*%
X97300000Y-97109999D02*
G75*
G03*
X95461522Y-101548478I0J-2600001D01*
G01*
X99138478Y-101548478D02*
G75*
G03*
X97300000Y-97110000I-1838478J1838478D01*
G01*
X95500000Y-101560000D02*
X99100000Y-101560000D01*
%TO.C,U3*%
X173540000Y-93600000D02*
X170900000Y-93600000D01*
X189430000Y-91879000D02*
X189430000Y-102120000D01*
X173540000Y-91879000D02*
X173540000Y-102120000D01*
X173540000Y-95300000D02*
X170900000Y-95300000D01*
X189430000Y-102120000D02*
X173540000Y-102120000D01*
X173540000Y-100400000D02*
X170900000Y-100400000D01*
X173540000Y-98700000D02*
X170900000Y-98700000D01*
X173540000Y-97000000D02*
X170900000Y-97000000D01*
X189430000Y-91879000D02*
X173540000Y-91879000D01*
%TO.C,R4*%
X147880000Y-82415000D02*
X147880000Y-88955000D01*
X149250000Y-81645000D02*
X149250000Y-82415000D01*
X147880000Y-88955000D02*
X150620000Y-88955000D01*
X150620000Y-82415000D02*
X147880000Y-82415000D01*
X149250000Y-89725000D02*
X149250000Y-88955000D01*
X150620000Y-88955000D02*
X150620000Y-82415000D01*
%TO.C,D6*%
X135614000Y-76975000D02*
X135770000Y-76975000D01*
X137930000Y-76975000D02*
X138086000Y-76975000D01*
X138085516Y-76975000D02*
G75*
G03*
X137928608Y-73742665I-1235516J1560000D01*
G01*
X135770163Y-74373870D02*
G75*
G03*
X135770000Y-76455961I1079837J-1041130D01*
G01*
X135771392Y-73742665D02*
G75*
G03*
X135614484Y-76975000I1078608J-1672335D01*
G01*
X137930000Y-76455961D02*
G75*
G03*
X137929837Y-74373870I-1080000J1040961D01*
G01*
%TO.C,R7*%
X137320000Y-103070000D02*
X137320000Y-100330000D01*
X137320000Y-100330000D02*
X130780000Y-100330000D01*
X130780000Y-103070000D02*
X137320000Y-103070000D01*
X130780000Y-100330000D02*
X130780000Y-103070000D01*
X130010000Y-101700000D02*
X130780000Y-101700000D01*
X138090000Y-101700000D02*
X137320000Y-101700000D01*
%TO.C,R8*%
X150050000Y-119240000D02*
X150050000Y-118470000D01*
X151420000Y-111930000D02*
X148680000Y-111930000D01*
X148680000Y-111930000D02*
X148680000Y-118470000D01*
X148680000Y-118470000D02*
X151420000Y-118470000D01*
X151420000Y-118470000D02*
X151420000Y-111930000D01*
X150050000Y-111160000D02*
X150050000Y-111930000D01*
%TO.C,R11*%
X124280000Y-95530000D02*
X117740000Y-95530000D01*
X116970000Y-96900000D02*
X117740000Y-96900000D01*
X117740000Y-98270000D02*
X124280000Y-98270000D01*
X117740000Y-95530000D02*
X117740000Y-98270000D01*
X124280000Y-98270000D02*
X124280000Y-95530000D01*
X125050000Y-96900000D02*
X124280000Y-96900000D01*
%TO.C,R10*%
X130980000Y-120400000D02*
X131750000Y-120400000D01*
X131750000Y-121770000D02*
X138290000Y-121770000D01*
X138290000Y-119030000D02*
X131750000Y-119030000D01*
X131750000Y-119030000D02*
X131750000Y-121770000D01*
X139060000Y-120400000D02*
X138290000Y-120400000D01*
X138290000Y-121770000D02*
X138290000Y-119030000D01*
%TO.C,D8*%
X131930000Y-95780000D02*
X131930000Y-98020000D01*
X136820000Y-96900000D02*
X136170000Y-96900000D01*
X132770000Y-95780000D02*
X132770000Y-98020000D01*
X136170000Y-95780000D02*
X131930000Y-95780000D01*
X131930000Y-98020000D02*
X136170000Y-98020000D01*
X132650000Y-95780000D02*
X132650000Y-98020000D01*
X131280000Y-96900000D02*
X131930000Y-96900000D01*
X132530000Y-95780000D02*
X132530000Y-98020000D01*
X136170000Y-98020000D02*
X136170000Y-95780000D01*
%TO.C,C5*%
X145270000Y-109795000D02*
X145270000Y-110420000D01*
X141230000Y-107580000D02*
X145270000Y-107580000D01*
X141230000Y-109795000D02*
X141230000Y-110420000D01*
X145270000Y-107580000D02*
X145270000Y-108205000D01*
X141230000Y-110420000D02*
X145270000Y-110420000D01*
X141230000Y-107580000D02*
X141230000Y-108205000D01*
D13*
%TO.C,SW4*%
X157110000Y-129000000D02*
X144510000Y-129000000D01*
X157110000Y-124700000D02*
X157110000Y-129000000D01*
X144510000Y-124700000D02*
X157110000Y-124700000D01*
X144510000Y-129000000D02*
X144510000Y-124700000D01*
D12*
%TO.C,J11*%
X95250000Y-104650000D02*
X94500000Y-104650000D01*
X95250000Y-115450000D02*
X94500000Y-115450000D01*
X94200000Y-116300000D02*
X94200000Y-117550000D01*
X99700000Y-105400000D02*
X99700000Y-110950000D01*
X96750000Y-105400000D02*
X99700000Y-105400000D01*
X94490000Y-117260000D02*
X100460000Y-117260000D01*
X94500000Y-117250000D02*
X95250000Y-117250000D01*
X94500000Y-106450000D02*
X95250000Y-106450000D01*
X94500000Y-107950000D02*
X94500000Y-113950000D01*
X96750000Y-104650000D02*
X96750000Y-105400000D01*
X95250000Y-106450000D02*
X95250000Y-104650000D01*
X95250000Y-107950000D02*
X94500000Y-107950000D01*
X94500000Y-104650000D02*
X94500000Y-106450000D01*
X94500000Y-115450000D02*
X94500000Y-117250000D01*
X99700000Y-116500000D02*
X99700000Y-110950000D01*
X96750000Y-116500000D02*
X99700000Y-116500000D01*
X100460000Y-104640000D02*
X94490000Y-104640000D01*
X95250000Y-113950000D02*
X95250000Y-107950000D01*
X94500000Y-113950000D02*
X95250000Y-113950000D01*
X100460000Y-117260000D02*
X100460000Y-104640000D01*
X96750000Y-117250000D02*
X96750000Y-116500000D01*
X95250000Y-117250000D02*
X95250000Y-115450000D01*
X94490000Y-104640000D02*
X94490000Y-117260000D01*
X94200000Y-117550000D02*
X95450000Y-117550000D01*
%TO.C,U5*%
X137830000Y-110160000D02*
X137830000Y-108510000D01*
X137830000Y-113810000D02*
X137830000Y-112160000D01*
X137830000Y-108510000D02*
X127550000Y-108510000D01*
X127550000Y-108510000D02*
X127550000Y-113810000D01*
X127550000Y-113810000D02*
X137830000Y-113810000D01*
X137830000Y-110160000D02*
G75*
G03*
X137830000Y-112160000I0J-1000000D01*
G01*
%TO.C,SW5*%
X99600000Y-64100000D02*
X99600000Y-68600000D01*
X106100000Y-68600000D02*
X106100000Y-64100000D01*
X102100000Y-69850000D02*
X103600000Y-69850000D01*
X103600000Y-62850000D02*
X102100000Y-62850000D01*
%TO.C,R25*%
X109750000Y-82260000D02*
X109750000Y-83030000D01*
X108380000Y-83030000D02*
X108380000Y-89570000D01*
X108380000Y-89570000D02*
X111120000Y-89570000D01*
X111120000Y-83030000D02*
X108380000Y-83030000D01*
X109750000Y-90340000D02*
X109750000Y-89570000D01*
X111120000Y-89570000D02*
X111120000Y-83030000D01*
%TO.C,J9*%
X163560000Y-137300000D02*
X162560000Y-137300000D01*
X166870000Y-138060000D02*
X166870000Y-132090000D01*
X165910000Y-138350000D02*
X167160000Y-138350000D01*
X166110000Y-135800000D02*
X166110000Y-132850000D01*
X159250000Y-138060000D02*
X166870000Y-138060000D01*
X167160000Y-138350000D02*
X167160000Y-137100000D01*
X160010000Y-135800000D02*
X160010000Y-132850000D01*
X166860000Y-137300000D02*
X165060000Y-137300000D01*
X159260000Y-138050000D02*
X161060000Y-138050000D01*
X166860000Y-135800000D02*
X166110000Y-135800000D01*
X166860000Y-138050000D02*
X166860000Y-137300000D01*
X165060000Y-138050000D02*
X166860000Y-138050000D01*
X161060000Y-137300000D02*
X159260000Y-137300000D01*
X162560000Y-137300000D02*
X162560000Y-138050000D01*
X159260000Y-137300000D02*
X159260000Y-138050000D01*
X159250000Y-132090000D02*
X159250000Y-138060000D01*
X162560000Y-138050000D02*
X163560000Y-138050000D01*
X163560000Y-138050000D02*
X163560000Y-137300000D01*
X160010000Y-132850000D02*
X163060000Y-132850000D01*
X166870000Y-132090000D02*
X159250000Y-132090000D01*
X166110000Y-132850000D02*
X163060000Y-132850000D01*
X161060000Y-138050000D02*
X161060000Y-137300000D01*
X165060000Y-137300000D02*
X165060000Y-138050000D01*
X159260000Y-135800000D02*
X160010000Y-135800000D01*
%TO.C,C3*%
X173615000Y-73354113D02*
X174610000Y-73354113D01*
X176690000Y-73034113D02*
X177393000Y-73034113D01*
X174045000Y-72914113D02*
X174610000Y-72914113D01*
X173071000Y-74875113D02*
X178229000Y-74875113D01*
X174096000Y-72874113D02*
X174610000Y-72874113D01*
X173528000Y-73474113D02*
X174610000Y-73474113D01*
X176690000Y-74515113D02*
X178193000Y-74515113D01*
X173107000Y-74515113D02*
X174610000Y-74515113D01*
X173081000Y-74715113D02*
X174610000Y-74715113D01*
X176690000Y-73274113D02*
X177621000Y-73274113D01*
X173100000Y-74555113D02*
X174610000Y-74555113D01*
X176690000Y-73314113D02*
X177654000Y-73314113D01*
X173475000Y-73554113D02*
X174610000Y-73554113D01*
X173360000Y-73754113D02*
X174610000Y-73754113D01*
X174207000Y-72794113D02*
X174610000Y-72794113D01*
X173302000Y-73874113D02*
X174610000Y-73874113D01*
X173085000Y-74675113D02*
X174610000Y-74675113D01*
X173786000Y-73154113D02*
X174610000Y-73154113D01*
X173501000Y-73514113D02*
X174610000Y-73514113D01*
X176690000Y-73394113D02*
X177715000Y-73394113D01*
X176690000Y-72754113D02*
X177033000Y-72754113D01*
X176690000Y-74154113D02*
X178105000Y-74154113D01*
X176690000Y-73874113D02*
X177998000Y-73874113D01*
X173159000Y-74275113D02*
X174610000Y-74275113D01*
X175366000Y-72354113D02*
X175934000Y-72354113D01*
X173824000Y-73114113D02*
X174610000Y-73114113D01*
X176690000Y-73514113D02*
X177799000Y-73514113D01*
X173340000Y-73794113D02*
X174610000Y-73794113D01*
X176690000Y-73434113D02*
X177745000Y-73434113D01*
X176690000Y-74435113D02*
X178178000Y-74435113D01*
X176690000Y-74675113D02*
X178215000Y-74675113D01*
X173997000Y-72954113D02*
X174610000Y-72954113D01*
X174267000Y-72754113D02*
X174610000Y-72754113D01*
X173865000Y-73074113D02*
X174610000Y-73074113D01*
X173114000Y-74475113D02*
X174610000Y-74475113D01*
X174973000Y-72434113D02*
X176327000Y-72434113D01*
X176690000Y-74194113D02*
X178118000Y-74194113D01*
X176690000Y-73074113D02*
X177435000Y-73074113D01*
X176690000Y-74715113D02*
X178219000Y-74715113D01*
X173403000Y-73674113D02*
X174610000Y-73674113D01*
X173749000Y-73194113D02*
X174610000Y-73194113D01*
X173646000Y-73314113D02*
X174610000Y-73314113D01*
X176690000Y-72834113D02*
X177150000Y-72834113D01*
X173222000Y-74074113D02*
X174610000Y-74074113D01*
X173149000Y-74315113D02*
X174610000Y-74315113D01*
X173074000Y-74795113D02*
X178226000Y-74795113D01*
X173170000Y-74234113D02*
X174610000Y-74234113D01*
X173426000Y-73634113D02*
X174610000Y-73634113D01*
X176690000Y-74234113D02*
X178130000Y-74234113D01*
X173236000Y-74034113D02*
X174610000Y-74034113D01*
X176690000Y-72954113D02*
X177303000Y-72954113D01*
X176690000Y-74635113D02*
X178211000Y-74635113D01*
X176690000Y-73354113D02*
X177685000Y-73354113D01*
X173268000Y-73954113D02*
X174610000Y-73954113D01*
X176690000Y-74315113D02*
X178151000Y-74315113D01*
X176690000Y-73714113D02*
X177918000Y-73714113D01*
X173382000Y-73714113D02*
X174610000Y-73714113D01*
X176690000Y-72674113D02*
X176901000Y-72674113D01*
X176690000Y-72874113D02*
X177204000Y-72874113D01*
X176690000Y-73594113D02*
X177850000Y-73594113D01*
X174735000Y-72514113D02*
X176565000Y-72514113D01*
X176690000Y-74275113D02*
X178141000Y-74275113D01*
X173285000Y-73914113D02*
X174610000Y-73914113D01*
X173585000Y-73394113D02*
X174610000Y-73394113D01*
X173925000Y-77509888D02*
X174425000Y-77509888D01*
X173077000Y-74755113D02*
X178223000Y-74755113D01*
X173070000Y-74915113D02*
X178230000Y-74915113D01*
X176690000Y-73674113D02*
X177897000Y-73674113D01*
X173182000Y-74194113D02*
X174610000Y-74194113D01*
X176690000Y-73194113D02*
X177551000Y-73194113D01*
X176690000Y-74034113D02*
X178064000Y-74034113D01*
X173951000Y-72994113D02*
X174610000Y-72994113D01*
X173208000Y-74114113D02*
X174610000Y-74114113D01*
X176690000Y-74355113D02*
X178161000Y-74355113D01*
X173094000Y-74595113D02*
X174610000Y-74595113D01*
X175132000Y-72394113D02*
X176168000Y-72394113D01*
X176690000Y-73994113D02*
X178048000Y-73994113D01*
X176690000Y-73834113D02*
X177979000Y-73834113D01*
X176690000Y-72914113D02*
X177255000Y-72914113D01*
X176690000Y-74114113D02*
X178092000Y-74114113D01*
X176690000Y-73914113D02*
X178015000Y-73914113D01*
X173122000Y-74435113D02*
X174610000Y-74435113D01*
X173195000Y-74154113D02*
X174610000Y-74154113D01*
X176690000Y-74074113D02*
X178078000Y-74074113D01*
X174175000Y-77759888D02*
X174175000Y-77259888D01*
X176690000Y-74595113D02*
X178206000Y-74595113D01*
X174845000Y-72474113D02*
X176455000Y-72474113D01*
X176690000Y-73754113D02*
X177940000Y-73754113D01*
X173089000Y-74635113D02*
X174610000Y-74635113D01*
X173907000Y-73034113D02*
X174610000Y-73034113D01*
X176690000Y-73634113D02*
X177874000Y-73634113D01*
X174472000Y-72634113D02*
X176828000Y-72634113D01*
X174639000Y-72554113D02*
X176661000Y-72554113D01*
X173713000Y-73234113D02*
X174610000Y-73234113D01*
X173321000Y-73834113D02*
X174610000Y-73834113D01*
X176690000Y-72994113D02*
X177349000Y-72994113D01*
X174331000Y-72714113D02*
X174610000Y-72714113D01*
X176690000Y-73154113D02*
X177514000Y-73154113D01*
X174399000Y-72674113D02*
X174610000Y-72674113D01*
X176690000Y-73234113D02*
X177587000Y-73234113D01*
X176690000Y-73474113D02*
X177772000Y-73474113D01*
X173139000Y-74355113D02*
X174610000Y-74355113D01*
X176690000Y-74475113D02*
X178186000Y-74475113D01*
X173555000Y-73434113D02*
X174610000Y-73434113D01*
X173070000Y-74955113D02*
X178230000Y-74955113D01*
X173130000Y-74395113D02*
X174610000Y-74395113D01*
X176690000Y-73794113D02*
X177960000Y-73794113D01*
X173252000Y-73994113D02*
X174610000Y-73994113D01*
X173679000Y-73274113D02*
X174610000Y-73274113D01*
X176690000Y-72714113D02*
X176969000Y-72714113D01*
X176690000Y-73554113D02*
X177825000Y-73554113D01*
X173450000Y-73594113D02*
X174610000Y-73594113D01*
X173072000Y-74835113D02*
X178228000Y-74835113D01*
X176690000Y-72794113D02*
X177093000Y-72794113D01*
X174552000Y-72594113D02*
X176748000Y-72594113D01*
X176690000Y-74555113D02*
X178200000Y-74555113D01*
X174150000Y-72834113D02*
X174610000Y-72834113D01*
X176690000Y-74395113D02*
X178170000Y-74395113D01*
X176690000Y-73954113D02*
X178032000Y-73954113D01*
X176690000Y-73114113D02*
X177476000Y-73114113D01*
X178270000Y-74955113D02*
G75*
G03*
X178270000Y-74955113I-2620000J0D01*
G01*
%TO.C,R12*%
X103930000Y-101700000D02*
X104700000Y-101700000D01*
X112010000Y-101700000D02*
X111240000Y-101700000D01*
X111240000Y-100330000D02*
X104700000Y-100330000D01*
X104700000Y-100330000D02*
X104700000Y-103070000D01*
X104700000Y-103070000D02*
X111240000Y-103070000D01*
X111240000Y-103070000D02*
X111240000Y-100330000D01*
%TO.C,C2*%
X168661000Y-117555000D02*
X168661000Y-122845000D01*
X165141000Y-121240000D02*
X165141000Y-125211000D01*
X166381000Y-115561000D02*
X166381000Y-119160000D01*
X164300000Y-115120000D02*
X164300000Y-125280000D01*
X164460000Y-115122000D02*
X164460000Y-125278000D01*
X167021000Y-115902000D02*
X167021000Y-120760000D01*
X166861000Y-122840000D02*
X166861000Y-124595000D01*
X164340000Y-115120000D02*
X164340000Y-125280000D01*
X169101000Y-118458000D02*
X169101000Y-121942000D01*
X167861000Y-116560000D02*
X167861000Y-123840000D01*
X167421000Y-116180000D02*
X167421000Y-124220000D01*
X164700000Y-121240000D02*
X164700000Y-125265000D01*
X165861000Y-115363000D02*
X165861000Y-119160000D01*
X165821000Y-115350000D02*
X165821000Y-119160000D01*
X165421000Y-115244000D02*
X165421000Y-119160000D01*
X168181000Y-116899000D02*
X168181000Y-123501000D01*
X166181000Y-115477000D02*
X166181000Y-119160000D01*
X166621000Y-122840000D02*
X166621000Y-124725000D01*
X164900000Y-115155000D02*
X164900000Y-119160000D01*
X167101000Y-122840000D02*
X167101000Y-124447000D01*
X169181000Y-118690000D02*
X169181000Y-121710000D01*
X164660000Y-115132000D02*
X164660000Y-119160000D01*
X165141000Y-115189000D02*
X165141000Y-119160000D01*
X166821000Y-122840000D02*
X166821000Y-124617000D01*
X164620000Y-115130000D02*
X164620000Y-119160000D01*
X158820354Y-117325000D02*
X159820354Y-117325000D01*
X166741000Y-122840000D02*
X166741000Y-124662000D01*
X168821000Y-117835000D02*
X168821000Y-122565000D01*
X164860000Y-121240000D02*
X164860000Y-125250000D01*
X168501000Y-117311000D02*
X168501000Y-123089000D01*
X166101000Y-115446000D02*
X166101000Y-119160000D01*
X166221000Y-115493000D02*
X166221000Y-119160000D01*
X165341000Y-122840000D02*
X165341000Y-125174000D01*
X164540000Y-115125000D02*
X164540000Y-119160000D01*
X166981000Y-122840000D02*
X166981000Y-124523000D01*
X165381000Y-115235000D02*
X165381000Y-119160000D01*
X164500000Y-115123000D02*
X164500000Y-125277000D01*
X164580000Y-121240000D02*
X164580000Y-125273000D01*
X166861000Y-115805000D02*
X166861000Y-120760000D01*
X165221000Y-122840000D02*
X165221000Y-125197000D01*
X168461000Y-117255000D02*
X168461000Y-123145000D01*
X164660000Y-121240000D02*
X164660000Y-125268000D01*
X165621000Y-122840000D02*
X165621000Y-125107000D01*
X166581000Y-122840000D02*
X166581000Y-124745000D01*
X166981000Y-115877000D02*
X166981000Y-120760000D01*
X166541000Y-115636000D02*
X166541000Y-119160000D01*
X166261000Y-122840000D02*
X166261000Y-124890000D01*
X167701000Y-116411000D02*
X167701000Y-123989000D01*
X166061000Y-122840000D02*
X166061000Y-124968000D01*
X165821000Y-122840000D02*
X165821000Y-125050000D01*
X165261000Y-115210000D02*
X165261000Y-119160000D01*
X164540000Y-121240000D02*
X164540000Y-125275000D01*
X167261000Y-116062000D02*
X167261000Y-120760000D01*
X165381000Y-122840000D02*
X165381000Y-125165000D01*
X168941000Y-118075000D02*
X168941000Y-122325000D01*
X167541000Y-116275000D02*
X167541000Y-124125000D01*
X168981000Y-118163000D02*
X168981000Y-122237000D01*
X166261000Y-115510000D02*
X166261000Y-119160000D01*
X165101000Y-115182000D02*
X165101000Y-119160000D01*
X167821000Y-116521000D02*
X167821000Y-123879000D01*
X166501000Y-122840000D02*
X166501000Y-124784000D01*
X167181000Y-116006000D02*
X167181000Y-120760000D01*
X168421000Y-117200000D02*
X168421000Y-123200000D01*
X164740000Y-115138000D02*
X164740000Y-119160000D01*
X166461000Y-122840000D02*
X166461000Y-124803000D01*
X165341000Y-115226000D02*
X165341000Y-119160000D01*
X166781000Y-122840000D02*
X166781000Y-124640000D01*
X164860000Y-115150000D02*
X164860000Y-119160000D01*
X165741000Y-115326000D02*
X165741000Y-119160000D01*
X167621000Y-116342000D02*
X167621000Y-124058000D01*
X167461000Y-116211000D02*
X167461000Y-124189000D01*
X166301000Y-115526000D02*
X166301000Y-119160000D01*
X167941000Y-116639000D02*
X167941000Y-123761000D01*
X164820000Y-115146000D02*
X164820000Y-119160000D01*
X165901000Y-115376000D02*
X165901000Y-119160000D01*
X168141000Y-116853000D02*
X168141000Y-123547000D01*
X167741000Y-116447000D02*
X167741000Y-123953000D01*
X165261000Y-122840000D02*
X165261000Y-125190000D01*
X165581000Y-115282000D02*
X165581000Y-119160000D01*
X165461000Y-122840000D02*
X165461000Y-125147000D01*
X165061000Y-115176000D02*
X165061000Y-119160000D01*
X166661000Y-115696000D02*
X166661000Y-120760000D01*
X167661000Y-116376000D02*
X167661000Y-124024000D01*
X166421000Y-115579000D02*
X166421000Y-119160000D01*
X164620000Y-121240000D02*
X164620000Y-125270000D01*
X166941000Y-122840000D02*
X166941000Y-124547000D01*
X167141000Y-115979000D02*
X167141000Y-120760000D01*
X166381000Y-122840000D02*
X166381000Y-124839000D01*
X168221000Y-116946000D02*
X168221000Y-123454000D01*
X165661000Y-122840000D02*
X165661000Y-125097000D01*
X165701000Y-122840000D02*
X165701000Y-125085000D01*
X168341000Y-117094000D02*
X168341000Y-123306000D01*
X164980000Y-115165000D02*
X164980000Y-119160000D01*
X166341000Y-122840000D02*
X166341000Y-124857000D01*
X166221000Y-122840000D02*
X166221000Y-124907000D01*
X164380000Y-115120000D02*
X164380000Y-125280000D01*
X165861000Y-122840000D02*
X165861000Y-125037000D01*
X167981000Y-116680000D02*
X167981000Y-123720000D01*
X167021000Y-122840000D02*
X167021000Y-124498000D01*
X168381000Y-117146000D02*
X168381000Y-123254000D01*
X166821000Y-115783000D02*
X166821000Y-120760000D01*
X164420000Y-115121000D02*
X164420000Y-125279000D01*
X166141000Y-115462000D02*
X166141000Y-119160000D01*
X166901000Y-122840000D02*
X166901000Y-124571000D01*
X164740000Y-121240000D02*
X164740000Y-125262000D01*
X164780000Y-121240000D02*
X164780000Y-125258000D01*
X169021000Y-118256000D02*
X169021000Y-122144000D01*
X165541000Y-122840000D02*
X165541000Y-125128000D01*
X165221000Y-115203000D02*
X165221000Y-119160000D01*
X167781000Y-116484000D02*
X167781000Y-123916000D01*
X165021000Y-121240000D02*
X165021000Y-125230000D01*
X165501000Y-115262000D02*
X165501000Y-119160000D01*
X165661000Y-115303000D02*
X165661000Y-119160000D01*
X167341000Y-116120000D02*
X167341000Y-124280000D01*
X166021000Y-122840000D02*
X166021000Y-124983000D01*
X165181000Y-121240000D02*
X165181000Y-125204000D01*
X165541000Y-115272000D02*
X165541000Y-119160000D01*
X169061000Y-118354000D02*
X169061000Y-122046000D01*
X165101000Y-121240000D02*
X165101000Y-125218000D01*
X166501000Y-115616000D02*
X166501000Y-119160000D01*
X167181000Y-122840000D02*
X167181000Y-124394000D01*
X165021000Y-115170000D02*
X165021000Y-119160000D01*
X166541000Y-122840000D02*
X166541000Y-124764000D01*
X165181000Y-115196000D02*
X165181000Y-119160000D01*
X166701000Y-115717000D02*
X166701000Y-120760000D01*
X168581000Y-117430000D02*
X168581000Y-122970000D01*
X169381000Y-119601000D02*
X169381000Y-120799000D01*
X166301000Y-122840000D02*
X166301000Y-124874000D01*
X165301000Y-122840000D02*
X165301000Y-125182000D01*
X167061000Y-122840000D02*
X167061000Y-124473000D01*
X165581000Y-122840000D02*
X165581000Y-125118000D01*
X168101000Y-116808000D02*
X168101000Y-123592000D01*
X165781000Y-115338000D02*
X165781000Y-119160000D01*
X166621000Y-115675000D02*
X166621000Y-120760000D01*
X164980000Y-121240000D02*
X164980000Y-125235000D01*
X166021000Y-115417000D02*
X166021000Y-119160000D01*
X165981000Y-122840000D02*
X165981000Y-124997000D01*
X168261000Y-116994000D02*
X168261000Y-123406000D01*
X165901000Y-122840000D02*
X165901000Y-125024000D01*
X167301000Y-116090000D02*
X167301000Y-124310000D01*
X164580000Y-115127000D02*
X164580000Y-119160000D01*
X165501000Y-122840000D02*
X165501000Y-125138000D01*
X167061000Y-115927000D02*
X167061000Y-120760000D01*
X167101000Y-115953000D02*
X167101000Y-120760000D01*
X167261000Y-122840000D02*
X167261000Y-124338000D01*
X168621000Y-117491000D02*
X168621000Y-122909000D01*
X169301000Y-119138000D02*
X169301000Y-121262000D01*
X167141000Y-122840000D02*
X167141000Y-124421000D01*
X159320354Y-116825000D02*
X159320354Y-117825000D01*
X166701000Y-122840000D02*
X166701000Y-124683000D01*
X166101000Y-122840000D02*
X166101000Y-124954000D01*
X169141000Y-118570000D02*
X169141000Y-121830000D01*
X164940000Y-121240000D02*
X164940000Y-125240000D01*
X168021000Y-116722000D02*
X168021000Y-123678000D01*
X168741000Y-117690000D02*
X168741000Y-122710000D01*
X164820000Y-121240000D02*
X164820000Y-125254000D01*
X166581000Y-115655000D02*
X166581000Y-119160000D01*
X167581000Y-116308000D02*
X167581000Y-124092000D01*
X166741000Y-115738000D02*
X166741000Y-120760000D01*
X165621000Y-115293000D02*
X165621000Y-119160000D01*
X165981000Y-115403000D02*
X165981000Y-119160000D01*
X165701000Y-115315000D02*
X165701000Y-119160000D01*
X166141000Y-122840000D02*
X166141000Y-124938000D01*
X166181000Y-122840000D02*
X166181000Y-124923000D01*
X166341000Y-115543000D02*
X166341000Y-119160000D01*
X168901000Y-117991000D02*
X168901000Y-122409000D01*
X165941000Y-115389000D02*
X165941000Y-119160000D01*
X165461000Y-115253000D02*
X165461000Y-119160000D01*
X166901000Y-115829000D02*
X166901000Y-120760000D01*
X165301000Y-115218000D02*
X165301000Y-119160000D01*
X168061000Y-116764000D02*
X168061000Y-123636000D01*
X168781000Y-117761000D02*
X168781000Y-122639000D01*
X164780000Y-115142000D02*
X164780000Y-119160000D01*
X166661000Y-122840000D02*
X166661000Y-124704000D01*
X164900000Y-121240000D02*
X164900000Y-125245000D01*
X167901000Y-116599000D02*
X167901000Y-123801000D01*
X165061000Y-121240000D02*
X165061000Y-125224000D01*
X168541000Y-117370000D02*
X168541000Y-123030000D01*
X166421000Y-122840000D02*
X166421000Y-124821000D01*
X167221000Y-122840000D02*
X167221000Y-124366000D01*
X166461000Y-115597000D02*
X166461000Y-119160000D01*
X168301000Y-117044000D02*
X168301000Y-123356000D01*
X165741000Y-122840000D02*
X165741000Y-125074000D01*
X164940000Y-115160000D02*
X164940000Y-119160000D01*
X166941000Y-115853000D02*
X166941000Y-120760000D01*
X165941000Y-122840000D02*
X165941000Y-125011000D01*
X169221000Y-118822000D02*
X169221000Y-121578000D01*
X164700000Y-115135000D02*
X164700000Y-119160000D01*
X166781000Y-115760000D02*
X166781000Y-120760000D01*
X166061000Y-115432000D02*
X166061000Y-119160000D01*
X167381000Y-116150000D02*
X167381000Y-124250000D01*
X165421000Y-122840000D02*
X165421000Y-125156000D01*
X167501000Y-116243000D02*
X167501000Y-124157000D01*
X165781000Y-122840000D02*
X165781000Y-125062000D01*
X168861000Y-117911000D02*
X168861000Y-122489000D01*
X168701000Y-117621000D02*
X168701000Y-122779000D01*
X169261000Y-118970000D02*
X169261000Y-121430000D01*
X167221000Y-116034000D02*
X167221000Y-120760000D01*
X169341000Y-119338000D02*
X169341000Y-121062000D01*
X169420000Y-120200000D02*
G75*
G03*
X169420000Y-120200000I-5120000J0D01*
G01*
D13*
%TO.C,SW1*%
X111860000Y-129000000D02*
X99260000Y-129000000D01*
X99260000Y-129000000D02*
X99260000Y-124700000D01*
X99260000Y-124700000D02*
X111860000Y-124700000D01*
X111860000Y-124700000D02*
X111860000Y-129000000D01*
D12*
%TO.C,J4*%
X145810000Y-138075000D02*
X145810000Y-137325000D01*
X153310000Y-137325000D02*
X147310000Y-137325000D01*
X154810000Y-137325000D02*
X154810000Y-138075000D01*
X155860000Y-132875000D02*
X150310000Y-132875000D01*
X144760000Y-132875000D02*
X150310000Y-132875000D01*
X144010000Y-135825000D02*
X144760000Y-135825000D01*
X156620000Y-132115000D02*
X144000000Y-132115000D01*
X145810000Y-137325000D02*
X144010000Y-137325000D01*
X147310000Y-137325000D02*
X147310000Y-138075000D01*
X144760000Y-135825000D02*
X144760000Y-132875000D01*
X153310000Y-138075000D02*
X153310000Y-137325000D01*
X144000000Y-132115000D02*
X144000000Y-138085000D01*
X144000000Y-138085000D02*
X156620000Y-138085000D01*
X155660000Y-138375000D02*
X156910000Y-138375000D01*
X156610000Y-135825000D02*
X155860000Y-135825000D01*
X144010000Y-138075000D02*
X145810000Y-138075000D01*
X144010000Y-137325000D02*
X144010000Y-138075000D01*
X156910000Y-138375000D02*
X156910000Y-137125000D01*
X156610000Y-138075000D02*
X156610000Y-137325000D01*
X155860000Y-135825000D02*
X155860000Y-132875000D01*
X156610000Y-137325000D02*
X154810000Y-137325000D01*
X154810000Y-138075000D02*
X156610000Y-138075000D01*
X147310000Y-138075000D02*
X153310000Y-138075000D01*
X156620000Y-138085000D02*
X156620000Y-132115000D01*
%TO.C,SW6*%
X112350000Y-62900000D02*
X110850000Y-62900000D01*
X114850000Y-68650000D02*
X114850000Y-64150000D01*
X110850000Y-69900000D02*
X112350000Y-69900000D01*
X108350000Y-64150000D02*
X108350000Y-68650000D01*
%TO.C,R9*%
X117330000Y-120400000D02*
X118100000Y-120400000D01*
X125410000Y-120400000D02*
X124640000Y-120400000D01*
X118100000Y-119030000D02*
X118100000Y-121770000D01*
X118100000Y-121770000D02*
X124640000Y-121770000D01*
X124640000Y-121770000D02*
X124640000Y-119030000D01*
X124640000Y-119030000D02*
X118100000Y-119030000D01*
D14*
%TO.C,J7*%
X99823000Y-75700000D02*
G75*
G03*
X99823000Y-75700000I-100000J0D01*
G01*
D12*
%TO.C,U4*%
X123455000Y-113610000D02*
X123455000Y-111960000D01*
X123455000Y-109960000D02*
X123455000Y-108310000D01*
X105555000Y-108310000D02*
X105555000Y-113610000D01*
X105555000Y-113610000D02*
X123455000Y-113610000D01*
X123455000Y-108310000D02*
X105555000Y-108310000D01*
X123455000Y-109960000D02*
G75*
G03*
X123455000Y-111960000I0J-1000000D01*
G01*
%TO.C,J1*%
X112660000Y-138375000D02*
X112660000Y-137125000D01*
X109060000Y-137325000D02*
X103060000Y-137325000D01*
X112360000Y-138075000D02*
X112360000Y-137325000D01*
X112360000Y-135825000D02*
X111610000Y-135825000D01*
X111610000Y-132875000D02*
X106060000Y-132875000D01*
X112370000Y-132115000D02*
X99750000Y-132115000D01*
X99750000Y-132115000D02*
X99750000Y-138085000D01*
X112370000Y-138085000D02*
X112370000Y-132115000D01*
X100510000Y-132875000D02*
X106060000Y-132875000D01*
X110560000Y-138075000D02*
X112360000Y-138075000D01*
X99750000Y-138085000D02*
X112370000Y-138085000D01*
X111610000Y-135825000D02*
X111610000Y-132875000D01*
X110560000Y-137325000D02*
X110560000Y-138075000D01*
X103060000Y-138075000D02*
X109060000Y-138075000D01*
X101560000Y-138075000D02*
X101560000Y-137325000D01*
X101560000Y-137325000D02*
X99760000Y-137325000D01*
X112360000Y-137325000D02*
X110560000Y-137325000D01*
X99760000Y-135825000D02*
X100510000Y-135825000D01*
X99760000Y-138075000D02*
X101560000Y-138075000D01*
X111410000Y-138375000D02*
X112660000Y-138375000D01*
X99760000Y-137325000D02*
X99760000Y-138075000D01*
X103060000Y-137325000D02*
X103060000Y-138075000D01*
X109060000Y-138075000D02*
X109060000Y-137325000D01*
X100510000Y-135825000D02*
X100510000Y-132875000D01*
%TD*%
M02*
