M48
; DRILL file {KiCad (6.0.5)} date Fri Jul  1 12:59:01 2022
; FORMAT={-:-/ absolute / metric / decimal}
; #@! TF.CreationDate,2022-07-01T12:59:01+07:00
; #@! TF.GenerationSoftware,Kicad,Pcbnew,(6.0.5)
; #@! TF.FileFunction,Plated,1,2,PTH
FMAT,2
METRIC
; #@! TA.AperFunction,Plated,PTH,ComponentDrill
T1C0.500
; #@! TA.AperFunction,Plated,PTH,ViaDrill
T2C0.600
; #@! TA.AperFunction,Plated,PTH,ComponentDrill
T3C0.750
; #@! TA.AperFunction,Plated,PTH,ComponentDrill
T4C0.800
; #@! TA.AperFunction,Plated,PTH,ComponentDrill
T5C0.900
; #@! TA.AperFunction,Plated,PTH,ComponentDrill
T6C0.950
; #@! TA.AperFunction,Plated,PTH,ComponentDrill
T7C1.000
; #@! TA.AperFunction,Plated,PTH,ComponentDrill
T8C1.100
; #@! TA.AperFunction,Plated,PTH,ComponentDrill
T9C1.300
; #@! TA.AperFunction,Plated,PTH,ComponentDrill
T10C1.500
; #@! TA.AperFunction,Plated,PTH,ComponentDrill
T11C1.600
; #@! TA.AperFunction,Plated,PTH,ComponentDrill
T12C2.500
%
G90
G05
T1
X92.975Y-63.6
X92.975Y-137.6
X93.524Y-62.274
X93.524Y-64.926
X93.524Y-136.274
X93.524Y-138.926
X94.85Y-61.725
X94.85Y-65.475
X94.85Y-135.725
X94.85Y-139.475
X96.176Y-62.274
X96.176Y-64.926
X96.176Y-136.274
X96.176Y-138.926
X96.725Y-63.6
X96.725Y-137.6
X186.975Y-63.6
X186.975Y-137.6
X187.524Y-62.274
X187.524Y-64.926
X187.524Y-136.274
X187.524Y-138.926
X188.85Y-61.725
X188.85Y-65.475
X188.85Y-135.725
X188.85Y-139.475
X190.176Y-62.274
X190.176Y-64.926
X190.176Y-136.274
X190.176Y-138.926
X190.725Y-63.6
X190.725Y-137.6
T2
X101.21Y-103.22
X106.19Y-130.26
X119.46Y-130.59
X121.96Y-123.13
X122.67Y-130.05
X127.85Y-89.5
X128.2Y-74.03
X139.13Y-113.86
X146.81Y-131.36
X157.8Y-131.35
T3
X96.03Y-99.71
X97.3Y-99.71
X98.57Y-99.71
X144.41Y-98.33
X144.41Y-99.6
X144.41Y-100.87
T4
X101.56Y-126.85
X102.64Y-120.4
X102.89Y-96.9
X102.89Y-101.7
X105.56Y-126.85
X106.885Y-107.15
X106.885Y-114.77
X107.56Y-126.85
X109.425Y-107.15
X109.425Y-114.77
X109.56Y-126.85
X109.75Y-81.22
X109.75Y-91.38
X111.965Y-107.15
X111.965Y-114.77
X112.8Y-120.4
X113.05Y-96.9
X113.05Y-101.7
X114.505Y-107.15
X114.505Y-114.77
X115.93Y-96.9
X115.93Y-101.7
X116.29Y-120.4
X116.643Y-126.85
X117.045Y-107.15
X117.045Y-114.77
X119.585Y-107.15
X119.585Y-114.77
X120.643Y-126.85
X122.125Y-107.15
X122.125Y-114.77
X122.643Y-126.85
X124.643Y-126.85
X126.09Y-96.9
X126.09Y-101.7
X126.45Y-120.4
X128.88Y-107.35
X128.88Y-114.97
X128.97Y-101.7
X129.94Y-120.4
X130.24Y-96.9
X131.42Y-107.35
X131.42Y-114.97
X131.727Y-126.85
X133.96Y-107.35
X133.96Y-114.97
X135.727Y-126.85
X136.5Y-107.35
X136.5Y-114.97
X136.85Y-80.605
X136.85Y-90.765
X137.727Y-126.85
X137.86Y-96.9
X139.13Y-101.7
X139.727Y-126.85
X140.1Y-120.4
X142.0Y-109.0
X142.0Y-114.2
X143.05Y-80.605
X143.05Y-90.765
X144.5Y-109.0
X144.5Y-114.2
X146.81Y-126.85
X149.25Y-80.605
X149.25Y-90.765
X150.05Y-110.12
X150.05Y-120.28
X150.81Y-126.85
X151.25Y-95.52
X151.25Y-105.68
X152.81Y-126.85
X154.65Y-95.52
X154.65Y-105.68
X154.81Y-126.85
X162.379Y-118.6
X163.05Y-120.2
X165.55Y-120.2
X166.221Y-121.8
X174.179Y-118.6
X174.85Y-120.2
X175.65Y-73.705
X175.65Y-76.205
X177.35Y-120.2
X178.021Y-121.8
X184.25Y-73.795
X184.25Y-76.295
T5
X136.85Y-74.145
X136.85Y-76.685
X143.05Y-74.145
X143.05Y-76.685
X149.25Y-74.135
X149.25Y-76.675
X154.65Y-110.12
X154.65Y-120.28
T6
X96.95Y-107.2
X96.95Y-109.7
X96.95Y-112.2
X96.95Y-114.7
X102.31Y-135.625
X104.81Y-135.625
X107.31Y-135.625
X109.81Y-135.625
X117.06Y-135.625
X119.56Y-135.625
X122.06Y-135.625
X124.56Y-135.625
X131.81Y-135.625
X134.31Y-135.625
X136.81Y-135.625
X139.31Y-135.625
X146.56Y-135.625
X149.06Y-135.625
X151.56Y-135.625
X154.06Y-135.625
T7
X95.95Y-87.9
X103.55Y-87.9
X120.99Y-63.4
X120.99Y-65.94
X123.53Y-63.4
X123.53Y-65.94
X126.07Y-63.4
X126.07Y-65.94
X128.61Y-63.4
X128.61Y-65.94
X131.15Y-63.4
X131.15Y-65.94
X133.69Y-63.4
X133.69Y-65.94
X136.23Y-63.4
X136.23Y-65.94
X138.77Y-63.4
X138.77Y-65.94
X141.31Y-63.4
X141.31Y-65.94
X143.85Y-63.4
X143.85Y-65.94
X146.39Y-63.4
X146.39Y-65.94
X148.93Y-63.4
X148.93Y-65.94
X151.47Y-63.4
X151.47Y-65.94
X154.01Y-63.4
X154.01Y-65.94
X156.55Y-63.4
X156.55Y-65.94
X159.09Y-63.4
X159.09Y-65.94
X161.63Y-63.4
X161.63Y-65.94
X161.81Y-135.6
X164.17Y-63.4
X164.17Y-65.94
X164.31Y-135.6
X166.71Y-63.4
X166.71Y-65.94
X169.25Y-63.4
X169.25Y-65.94
X185.65Y-123.5
X185.65Y-126.0
T8
X100.6Y-63.1
X100.6Y-69.6
X105.1Y-63.1
X105.1Y-69.6
X109.35Y-63.15
X109.35Y-69.65
X113.85Y-63.15
X113.85Y-69.65
X169.82Y-83.66
X169.82Y-86.2
X169.82Y-88.74
X169.85Y-93.6
X169.85Y-95.3
X169.85Y-97.0
X169.85Y-98.7
X169.85Y-100.4
X169.85Y-104.6
X169.85Y-106.3
X169.85Y-108.0
X169.85Y-109.7
X169.85Y-111.4
T9
X162.85Y-95.25
X162.85Y-98.75
X162.85Y-106.25
X162.85Y-109.75
X172.055Y-133.305
X177.135Y-133.305
T10
X99.46Y-126.85
X111.66Y-126.85
X114.543Y-126.85
X126.743Y-126.85
X129.627Y-126.85
X141.827Y-126.85
X144.71Y-126.85
X156.91Y-126.85
T11
X156.65Y-74.78
X156.65Y-90.02
X162.85Y-74.78
X162.85Y-90.02
T12
X94.85Y-63.6
X94.85Y-137.6
X188.85Y-63.6
X188.85Y-137.6
T0
M30
