M48
; DRILL file {KiCad (6.0.5)} date Fri Jul 22 00:15:06 2022
; FORMAT={-:-/ absolute / metric / decimal}
; #@! TF.CreationDate,2022-07-22T00:15:06+07:00
; #@! TF.GenerationSoftware,Kicad,Pcbnew,(6.0.5)
; #@! TF.FileFunction,Plated,1,2,PTH
FMAT,2
METRIC
; #@! TA.AperFunction,Plated,PTH,ComponentDrill
T1C0.500
; #@! TA.AperFunction,Plated,PTH,ViaDrill
T2C0.600
; #@! TA.AperFunction,Plated,PTH,ComponentDrill
T3C0.750
; #@! TA.AperFunction,Plated,PTH,ComponentDrill
T4C0.762
; #@! TA.AperFunction,Plated,PTH,ComponentDrill
T5C0.800
; #@! TA.AperFunction,Plated,PTH,ComponentDrill
T6C0.830
; #@! TA.AperFunction,Plated,PTH,ComponentDrill
T7C0.850
; #@! TA.AperFunction,Plated,PTH,ComponentDrill
T8C0.900
; #@! TA.AperFunction,Plated,PTH,ComponentDrill
T9C0.950
; #@! TA.AperFunction,Plated,PTH,ComponentDrill
T10C1.000
; #@! TA.AperFunction,Plated,PTH,ComponentDrill
T11C1.075
; #@! TA.AperFunction,Plated,PTH,ComponentDrill
T12C1.100
; #@! TA.AperFunction,Plated,PTH,ComponentDrill
T13C1.300
; #@! TA.AperFunction,Plated,PTH,ComponentDrill
T14C3.200
%
G90
G05
T1
X69.0Y-40.8
X69.1Y-148.1
X69.703Y-39.103
X69.703Y-42.497
X69.803Y-146.403
X69.803Y-149.797
X71.4Y-38.4
X71.4Y-43.2
X71.5Y-145.7
X71.5Y-150.5
X73.097Y-39.103
X73.097Y-42.497
X73.197Y-146.403
X73.197Y-149.797
X73.8Y-40.8
X73.9Y-148.1
X183.8Y-148.1
X183.9Y-40.7
X184.503Y-146.403
X184.503Y-149.797
X184.603Y-39.003
X184.603Y-42.397
X186.2Y-145.7
X186.2Y-150.5
X186.3Y-38.3
X186.3Y-43.1
X187.897Y-146.403
X187.897Y-149.797
X187.997Y-39.003
X187.997Y-42.397
X188.6Y-148.1
X188.7Y-40.7
T2
X59.0Y-68.0
X59.0Y-70.0
X59.0Y-72.0
X59.0Y-74.0
X59.0Y-76.0
X59.0Y-84.0
X59.0Y-86.0
X59.0Y-88.0
X61.0Y-68.0
X61.0Y-70.0
X61.0Y-72.0
X61.0Y-74.0
X65.0Y-100.0
X65.0Y-102.0
X65.0Y-104.0
X65.0Y-106.0
X67.0Y-68.0
X67.0Y-98.0
X67.0Y-100.0
X67.0Y-102.0
X67.0Y-104.0
X67.0Y-106.0
X69.0Y-45.0
X69.0Y-47.0
X69.0Y-49.0
X69.0Y-51.0
X69.0Y-53.0
X69.0Y-55.0
X69.0Y-57.0
X69.0Y-59.0
X69.0Y-61.0
X69.0Y-63.0
X69.0Y-65.0
X69.0Y-67.0
X69.0Y-92.0
X69.0Y-94.0
X69.0Y-120.0
X69.0Y-122.0
X69.0Y-124.0
X69.0Y-126.0
X69.0Y-144.0
X70.0Y-134.0
X70.0Y-136.0
X70.0Y-138.0
X71.0Y-46.0
X71.0Y-69.0
X71.0Y-80.0
X71.0Y-82.0
X71.0Y-84.0
X71.0Y-121.0
X71.0Y-140.0
X71.0Y-142.0
X71.0Y-144.0
X72.0Y-134.0
X72.0Y-136.0
X73.0Y-46.0
X73.0Y-67.0
X73.0Y-69.0
X73.0Y-79.0
X73.0Y-81.0
X73.0Y-83.0
X73.0Y-85.0
X73.0Y-121.0
X73.0Y-142.0
X73.0Y-144.0
X74.0Y-104.0
X74.0Y-106.0
X75.0Y-44.0
X75.0Y-46.0
X75.0Y-121.0
X75.0Y-123.0
X75.0Y-125.0
X75.0Y-141.0
X76.0Y-38.0
X77.0Y-85.0
X77.0Y-105.0
X77.0Y-107.0
X77.0Y-109.0
X77.0Y-111.0
X77.0Y-113.0
X77.0Y-141.0
X77.9Y-50.4
X78.0Y-38.0
X78.2Y-134.1
X79.0Y-85.0
X79.0Y-87.0
X79.0Y-89.0
X79.0Y-92.0
X79.0Y-94.0
X79.0Y-96.0
X79.0Y-100.0
X79.0Y-102.0
X79.0Y-105.0
X79.0Y-107.0
X79.0Y-141.0
X80.5Y-139.0
X81.0Y-107.0
X81.0Y-141.0
X81.9Y-46.8
X81.9Y-49.3
X83.0Y-107.0
X83.0Y-109.0
X83.0Y-111.0
X83.0Y-117.0
X83.0Y-141.0
X84.0Y-74.0
X84.0Y-76.0
X84.9Y-50.599
X85.0Y-117.0
X85.0Y-141.0
X86.0Y-45.0
X86.0Y-74.0
X86.0Y-76.0
X87.0Y-39.0
X87.0Y-41.0
X87.0Y-117.0
X87.0Y-141.0
X88.0Y-45.0
X89.0Y-117.0
X89.0Y-119.0
X89.0Y-141.0
X89.9Y-62.6
X89.9Y-122.1
X90.0Y-69.0
X90.0Y-71.0
X90.0Y-73.0
X91.0Y-117.0
X91.0Y-119.0
X91.0Y-141.0
X92.0Y-64.0
X92.0Y-69.0
X92.0Y-135.0
X93.0Y-39.0
X93.0Y-41.0
X93.0Y-74.0
X93.0Y-117.0
X93.0Y-119.0
X93.0Y-141.0
X94.0Y-64.0
X94.0Y-69.0
X94.0Y-134.0
X95.0Y-74.0
X95.0Y-103.0
X95.0Y-105.0
X95.0Y-126.0
X95.0Y-128.0
X95.0Y-130.0
X95.0Y-132.0
X95.0Y-141.0
X96.0Y-60.0
X96.0Y-62.0
X96.0Y-64.0
X96.0Y-69.0
X97.0Y-74.0
X97.0Y-76.0
X97.0Y-78.0
X97.0Y-80.0
X97.0Y-82.0
X97.0Y-84.0
X97.0Y-86.0
X97.0Y-88.0
X97.0Y-90.0
X98.0Y-98.0
X98.0Y-100.0
X98.0Y-102.0
X98.0Y-104.0
X98.0Y-106.0
X98.0Y-108.0
X98.0Y-110.0
X98.0Y-112.0
X98.0Y-114.0
X98.0Y-116.0
X99.0Y-94.0
X99.0Y-119.0
X99.0Y-121.0
X99.0Y-123.0
X99.0Y-125.0
X100.0Y-98.0
X100.0Y-100.0
X100.0Y-134.0
X100.0Y-136.0
X100.0Y-138.0
X100.9Y-51.9
X101.0Y-69.0
X101.0Y-71.0
X101.0Y-77.0
X101.0Y-79.0
X101.0Y-81.0
X101.0Y-83.0
X101.0Y-85.0
X101.0Y-121.0
X102.0Y-64.0
X103.0Y-69.0
X103.0Y-71.0
X103.0Y-76.0
X103.0Y-78.0
X103.0Y-80.0
X103.0Y-82.0
X103.0Y-121.0
X104.0Y-60.0
X104.0Y-62.0
X104.0Y-64.0
X105.0Y-72.0
X105.0Y-123.0
X105.0Y-125.0
X105.0Y-129.0
X105.0Y-131.0
X105.0Y-133.0
X105.0Y-135.0
X107.0Y-72.0
X107.0Y-104.0
X107.0Y-106.0
X107.0Y-108.0
X107.0Y-110.0
X107.0Y-129.0
X107.0Y-131.0
X107.0Y-133.0
X107.0Y-135.0
X108.0Y-138.0
X109.0Y-98.0
X109.0Y-100.0
X109.0Y-102.0
X109.0Y-104.0
X109.0Y-106.0
X109.0Y-108.0
X109.0Y-129.0
X109.0Y-131.0
X109.0Y-133.0
X109.0Y-135.0
X110.0Y-76.0
X110.0Y-78.0
X110.0Y-80.0
X110.0Y-82.0
X110.0Y-138.0
X112.0Y-60.0
X112.0Y-65.0
X112.0Y-68.0
X112.0Y-138.0
X112.5Y-40.0
X112.5Y-42.5
X114.0Y-60.0
X114.0Y-65.0
X114.0Y-68.0
X114.0Y-75.0
X116.0Y-60.0
X116.0Y-65.0
X116.0Y-68.0
X116.0Y-75.0
X118.0Y-60.0
X118.0Y-65.0
X118.0Y-68.0
X118.0Y-70.0
X118.0Y-72.0
X118.0Y-75.0
X119.0Y-134.0
X120.0Y-52.0
X120.0Y-54.0
X120.0Y-60.0
X120.0Y-65.0
X120.0Y-68.0
X120.0Y-70.0
X120.0Y-72.0
X120.0Y-75.0
X121.0Y-133.0
X121.0Y-135.0
X122.0Y-60.0
X122.0Y-65.0
X122.0Y-68.0
X122.0Y-116.0
X124.0Y-60.0
X124.0Y-65.0
X124.0Y-68.0
X124.0Y-75.0
X124.0Y-116.0
X126.0Y-56.0
X126.0Y-60.0
X126.0Y-65.0
X126.0Y-77.0
X126.0Y-116.0
X126.0Y-118.0
X126.0Y-120.0
X127.0Y-79.0
X127.0Y-81.0
X127.0Y-83.0
X127.0Y-85.0
X127.0Y-87.0
X127.0Y-89.0
X128.0Y-56.0
X128.0Y-60.0
X128.0Y-65.0
X129.0Y-69.0
X129.0Y-71.0
X129.0Y-90.0
X129.0Y-106.0
X129.0Y-108.0
X129.0Y-110.0
X129.0Y-112.0
X129.0Y-114.0
X129.0Y-116.0
X129.0Y-118.0
X129.0Y-120.0
X129.0Y-122.0
X129.0Y-124.0
X130.0Y-56.0
X130.0Y-60.0
X130.0Y-65.0
X130.0Y-94.0
X130.0Y-96.0
X130.0Y-98.0
X130.0Y-100.0
X131.0Y-69.0
X131.0Y-71.0
X131.0Y-77.0
X131.0Y-79.0
X131.0Y-81.0
X131.0Y-83.0
X131.0Y-85.0
X131.0Y-87.0
X131.0Y-89.0
X131.0Y-122.0
X131.0Y-132.0
X131.0Y-134.0
X131.0Y-136.0
X131.0Y-138.0
X131.0Y-140.0
X132.0Y-56.0
X132.0Y-75.0
X132.0Y-96.0
X133.0Y-69.0
X133.0Y-71.0
X133.0Y-122.0
X133.0Y-140.0
X134.0Y-75.0
X134.0Y-77.0
X134.0Y-79.0
X134.0Y-81.0
X134.0Y-83.0
X134.0Y-85.0
X134.0Y-97.0
X135.0Y-69.0
X135.0Y-71.0
X135.0Y-105.0
X135.0Y-107.0
X135.0Y-129.0
X135.0Y-140.0
X136.0Y-75.0
X137.0Y-129.0
X139.0Y-99.0
X139.0Y-101.0
X139.0Y-103.0
X140.0Y-77.0
X140.0Y-79.0
X140.0Y-81.0
X140.0Y-83.0
X141.0Y-60.0
X141.0Y-62.0
X141.0Y-64.0
X141.0Y-99.0
X141.0Y-101.0
X142.0Y-56.0
X143.0Y-60.0
X143.0Y-75.0
X143.0Y-103.0
X144.0Y-56.0
X145.0Y-60.0
X145.0Y-75.0
X145.0Y-103.0
X146.0Y-56.0
X147.0Y-60.0
X147.0Y-75.0
X148.0Y-56.0
X149.0Y-60.0
X149.0Y-75.0
X149.0Y-134.0
X151.0Y-133.0
X151.0Y-135.0
X152.0Y-62.0
X152.0Y-64.0
X152.0Y-66.0
X152.0Y-68.0
X154.0Y-58.0
X155.0Y-76.0
X155.0Y-128.0
X156.0Y-57.0
X156.0Y-60.0
X156.0Y-62.0
X156.0Y-64.0
X156.0Y-66.0
X156.0Y-68.0
X156.0Y-100.0
X156.0Y-102.0
X156.0Y-104.0
X156.0Y-106.0
X156.0Y-117.0
X156.0Y-119.0
X156.0Y-121.0
X157.0Y-76.0
X157.0Y-79.0
X157.0Y-81.0
X157.0Y-83.0
X157.0Y-85.0
X157.0Y-87.0
X157.0Y-89.0
X157.0Y-127.0
X158.0Y-57.0
X158.0Y-68.0
X159.0Y-60.0
X159.0Y-62.0
X159.0Y-64.0
X159.0Y-66.0
X159.0Y-93.0
X159.0Y-95.0
X159.0Y-97.0
X159.0Y-103.0
X159.0Y-105.0
X159.0Y-107.0
X159.0Y-109.0
X159.0Y-111.0
X159.0Y-113.0
X159.0Y-115.0
X159.0Y-117.0
X159.0Y-119.0
X159.0Y-121.0
X159.0Y-123.0
X159.0Y-125.0
X161.0Y-65.0
X161.0Y-97.0
X161.0Y-108.0
X161.0Y-110.0
X161.0Y-122.0
X161.0Y-124.0
X161.0Y-134.0
X161.0Y-136.0
X161.0Y-138.0
X161.0Y-140.0
X162.0Y-75.0
X162.0Y-77.0
X162.0Y-79.0
X162.0Y-81.0
X162.0Y-83.0
X162.0Y-85.0
X163.0Y-65.0
X163.0Y-72.0
X163.0Y-97.0
X164.0Y-75.0
X164.0Y-77.0
X164.0Y-79.0
X164.0Y-81.0
X164.0Y-83.0
X164.0Y-85.0
X165.0Y-63.0
X165.0Y-65.0
X165.0Y-72.0
X166.0Y-130.0
X166.0Y-132.0
X166.0Y-134.0
X166.75Y-53.0
X167.0Y-72.0
X167.0Y-105.0
X167.0Y-107.0
X167.836Y-45.164
X168.0Y-115.0
X169.0Y-72.0
X169.0Y-117.0
X170.0Y-78.0
X170.0Y-80.0
X170.0Y-82.0
X170.0Y-84.0
X170.0Y-95.0
X170.0Y-97.0
X170.0Y-99.0
X170.0Y-101.0
X170.0Y-103.0
X170.0Y-130.0
X170.0Y-132.0
X170.0Y-134.0
X170.0Y-136.0
X170.0Y-138.0
X170.0Y-141.0
X171.0Y-64.0
X171.0Y-66.0
X171.0Y-68.0
X171.0Y-70.0
X171.0Y-72.0
X172.0Y-99.0
X172.0Y-136.0
X172.0Y-138.0
X172.0Y-141.0
X173.0Y-65.0
X173.0Y-67.0
X173.0Y-69.0
X173.0Y-72.0
X173.0Y-74.0
X174.0Y-44.0
X174.0Y-46.0
X174.0Y-141.0
X175.0Y-65.0
X175.0Y-67.0
X176.0Y-44.0
X176.0Y-46.0
X176.0Y-48.0
X176.0Y-141.0
X177.0Y-65.0
X177.0Y-67.0
X178.0Y-44.0
X178.0Y-46.0
X178.0Y-49.0
X178.0Y-69.0
X178.0Y-141.0
X178.3Y-52.9
X180.0Y-49.0
X180.0Y-59.0
X180.0Y-61.0
X180.0Y-63.0
X180.0Y-65.0
X180.0Y-67.0
X180.0Y-71.0
X180.0Y-141.0
X182.0Y-54.0
X182.0Y-65.0
X182.0Y-73.0
X182.0Y-141.0
X183.0Y-45.0
X184.0Y-54.0
X184.0Y-65.0
X184.0Y-75.0
X185.0Y-45.0
X185.0Y-77.0
X185.0Y-79.0
X185.0Y-81.0
X185.0Y-83.0
X185.0Y-85.0
X185.0Y-87.0
X185.0Y-96.0
X185.0Y-129.0
X185.0Y-131.0
X185.0Y-133.0
X185.0Y-135.0
X187.0Y-98.0
X187.0Y-100.0
X187.0Y-105.0
X187.0Y-108.0
X187.0Y-111.0
X187.0Y-117.0
X187.0Y-119.0
X187.0Y-121.0
X187.0Y-127.0
X187.0Y-129.0
X187.0Y-131.0
X187.0Y-133.0
X187.0Y-135.0
X187.0Y-137.0
X187.0Y-139.0
X188.0Y-45.0
X188.0Y-48.0
X188.0Y-54.0
X188.0Y-65.0
T3
X93.46Y-107.93
X93.46Y-109.2
X93.46Y-110.47
X110.06Y-39.93
X110.06Y-41.2
X110.06Y-42.47
X123.76Y-107.92
X123.76Y-109.19
X123.76Y-110.46
X154.9Y-107.92
X154.9Y-109.19
X154.9Y-110.46
X161.94Y-53.53
X161.94Y-54.8
X161.94Y-56.07
X184.9Y-107.86
X184.9Y-109.13
X184.9Y-110.4
T4
X82.281Y-52.88
X82.281Y-71.18
X84.821Y-52.88
X84.821Y-71.18
X92.921Y-52.9
X92.921Y-71.2
X95.461Y-52.9
X95.461Y-71.2
X112.76Y-52.8
X112.76Y-71.1
X115.3Y-52.8
X115.3Y-71.1
X123.4Y-52.82
X123.4Y-71.12
X125.94Y-52.82
X125.94Y-71.12
X143.16Y-52.8
X143.16Y-71.1
X145.7Y-52.8
X145.7Y-71.1
X153.8Y-52.82
X153.8Y-71.12
X156.34Y-52.82
X156.34Y-71.12
T5
X60.2Y-81.02
X60.2Y-91.18
X63.2Y-68.52
X63.2Y-78.68
X63.2Y-81.02
X63.2Y-91.18
X71.343Y-60.711
X71.343Y-93.691
X71.343Y-118.855
X72.548Y-87.781
X72.548Y-112.945
X72.548Y-138.11
X75.048Y-87.781
X75.048Y-112.945
X75.048Y-138.11
X76.343Y-60.711
X76.343Y-93.691
X76.343Y-118.855
X80.165Y-114.98
X80.165Y-122.6
X82.12Y-76.5
X82.12Y-104.6
X82.705Y-114.98
X82.705Y-122.6
X83.38Y-80.2
X83.38Y-87.82
X85.245Y-114.98
X85.245Y-122.6
X85.92Y-80.2
X85.92Y-87.82
X87.785Y-114.98
X87.785Y-122.6
X88.46Y-80.2
X88.46Y-87.82
X91.0Y-80.2
X91.0Y-87.82
X91.8Y-113.72
X91.8Y-123.88
X92.28Y-76.5
X92.28Y-104.6
X94.9Y-113.72
X94.9Y-123.88
X99.02Y-52.9
X101.4Y-60.711
X101.4Y-93.681
X101.4Y-118.845
X102.605Y-87.771
X102.605Y-112.936
X102.605Y-138.1
X105.105Y-87.771
X105.105Y-112.936
X105.105Y-138.1
X106.4Y-60.711
X106.4Y-93.681
X106.4Y-118.845
X109.18Y-52.9
X109.9Y-114.97
X109.9Y-122.59
X111.92Y-76.49
X111.92Y-104.6
X112.44Y-114.97
X112.44Y-122.59
X112.72Y-45.8
X112.72Y-48.9
X113.18Y-80.19
X113.18Y-87.81
X114.98Y-114.97
X114.98Y-122.59
X115.72Y-80.19
X115.72Y-87.81
X117.52Y-114.97
X117.52Y-122.59
X118.26Y-80.19
X118.26Y-87.81
X120.8Y-80.19
X120.8Y-87.81
X122.08Y-76.49
X122.08Y-104.6
X122.2Y-113.71
X122.2Y-123.87
X122.88Y-45.8
X122.88Y-48.9
X125.3Y-113.71
X125.3Y-123.87
X132.3Y-60.711
X132.3Y-93.681
X132.3Y-118.845
X133.505Y-87.771
X133.505Y-112.936
X133.505Y-138.1
X136.005Y-87.771
X136.005Y-112.936
X136.005Y-138.1
X137.3Y-60.711
X137.3Y-93.681
X137.3Y-118.845
X141.1Y-114.97
X141.1Y-122.59
X141.92Y-76.49
X141.92Y-104.6
X143.18Y-80.19
X143.18Y-87.81
X143.64Y-114.97
X143.64Y-122.59
X145.72Y-80.19
X145.72Y-87.81
X146.18Y-114.97
X146.18Y-122.59
X148.26Y-80.19
X148.26Y-87.81
X148.72Y-114.97
X148.72Y-122.59
X150.8Y-80.19
X150.8Y-87.81
X151.62Y-48.7
X152.08Y-76.49
X152.08Y-104.6
X153.3Y-113.71
X153.3Y-123.87
X156.3Y-113.72
X156.3Y-123.88
X161.78Y-48.7
X162.2Y-60.711
X162.2Y-93.681
X162.2Y-118.845
X163.405Y-87.771
X163.405Y-112.936
X163.405Y-138.1
X165.905Y-87.771
X165.905Y-112.936
X165.905Y-138.1
X167.2Y-60.711
X167.2Y-93.681
X167.2Y-118.845
X171.3Y-114.97
X171.3Y-122.59
X172.52Y-76.49
X172.52Y-104.6
X173.78Y-80.19
X173.78Y-87.81
X173.84Y-114.97
X173.84Y-122.59
X176.32Y-80.19
X176.32Y-87.81
X176.38Y-114.97
X176.38Y-122.59
X178.86Y-80.19
X178.86Y-87.81
X178.92Y-114.97
X178.92Y-122.59
X181.4Y-80.19
X181.4Y-87.81
X182.68Y-76.49
X182.68Y-104.6
X183.4Y-113.72
X183.4Y-123.88
X186.4Y-113.72
X186.4Y-123.88
X186.9Y-71.32
X186.9Y-81.48
X186.9Y-83.72
X186.9Y-93.88
T6
X83.39Y-90.532
X83.39Y-100.692
X85.93Y-90.532
X85.93Y-100.692
X88.47Y-90.532
X88.47Y-100.692
X91.01Y-90.532
X91.01Y-100.692
X113.19Y-90.523
X113.19Y-100.683
X115.73Y-90.523
X115.73Y-100.683
X118.27Y-90.523
X118.27Y-100.683
X120.81Y-90.523
X120.81Y-100.683
X143.19Y-90.523
X143.19Y-100.683
X145.73Y-90.523
X145.73Y-100.683
X148.27Y-90.523
X148.27Y-100.683
X150.81Y-90.523
X150.81Y-100.683
X173.79Y-90.523
X173.79Y-100.683
X176.33Y-90.523
X176.33Y-100.683
X178.87Y-90.523
X178.87Y-100.683
X181.41Y-90.523
X181.41Y-100.683
T7
X76.153Y-66.661
X76.153Y-69.201
X76.153Y-76.821
X76.153Y-79.361
X76.153Y-81.901
X106.21Y-66.651
X106.21Y-69.191
X106.21Y-76.811
X106.21Y-79.351
X106.21Y-81.891
X137.11Y-66.651
X137.11Y-69.191
X137.11Y-76.811
X137.11Y-79.351
X137.11Y-81.891
X167.01Y-66.651
X167.01Y-69.191
X167.01Y-76.811
X167.01Y-79.351
X167.01Y-81.891
T8
X77.3Y-42.735
X77.3Y-45.275
T9
X62.525Y-95.95
X62.525Y-98.45
X62.525Y-100.95
X62.525Y-103.45
X84.7Y-136.675
X87.2Y-136.675
X89.7Y-136.675
X114.5Y-136.665
X117.0Y-136.665
X119.5Y-136.665
X144.5Y-136.665
X147.0Y-136.665
X149.5Y-136.665
X175.1Y-136.665
X177.6Y-136.665
X180.1Y-136.665
T10
X80.215Y-110.6
X82.54Y-40.1
X83.5Y-127.725
X83.5Y-130.265
X84.341Y-47.332
X86.882Y-47.332
X87.2Y-127.725
X87.2Y-130.265
X87.715Y-110.6
X89.421Y-47.332
X90.16Y-40.1
X90.9Y-127.725
X90.9Y-130.265
X91.962Y-47.332
X94.501Y-47.332
X97.041Y-47.332
X99.581Y-47.332
X100.32Y-40.1
X102.121Y-47.332
X102.86Y-40.1
X104.661Y-47.332
X107.201Y-47.332
X109.95Y-110.59
X113.3Y-127.72
X113.3Y-130.26
X115.2Y-39.7
X115.2Y-42.24
X117.0Y-127.72
X117.0Y-130.26
X117.45Y-110.59
X117.74Y-39.7
X117.74Y-42.24
X120.28Y-39.7
X120.28Y-42.24
X120.7Y-127.72
X120.7Y-130.26
X122.82Y-39.7
X122.82Y-42.24
X125.36Y-39.7
X125.36Y-42.24
X127.9Y-39.7
X127.9Y-42.24
X130.44Y-39.7
X130.44Y-42.24
X132.98Y-39.7
X132.98Y-42.24
X133.55Y-53.7
X135.52Y-39.7
X135.52Y-42.24
X136.05Y-53.7
X138.06Y-39.7
X138.06Y-42.24
X140.6Y-39.7
X140.6Y-42.24
X141.15Y-110.59
X143.14Y-39.7
X143.14Y-42.24
X143.3Y-127.72
X143.3Y-130.26
X145.68Y-39.7
X145.68Y-42.24
X147.0Y-127.72
X147.0Y-130.26
X148.22Y-39.7
X148.22Y-42.24
X148.65Y-110.59
X150.7Y-127.72
X150.7Y-130.26
X150.76Y-39.7
X150.76Y-42.24
X153.3Y-39.7
X153.3Y-42.24
X155.84Y-39.7
X155.84Y-42.24
X158.38Y-39.7
X158.38Y-42.24
X160.92Y-39.7
X160.92Y-42.24
X163.46Y-39.7
X163.46Y-42.24
X171.35Y-110.59
X173.9Y-127.725
X173.9Y-130.265
X175.3Y-62.6
X175.3Y-70.2
X177.6Y-127.725
X177.6Y-130.265
X178.85Y-110.59
X181.3Y-127.725
X181.3Y-130.265
T11
X72.0Y-99.336
X72.0Y-101.876
X72.0Y-104.416
X72.0Y-106.956
X72.0Y-124.5
X72.0Y-127.04
X72.0Y-129.58
X72.0Y-132.12
X102.057Y-99.326
X102.057Y-101.866
X102.057Y-104.406
X102.057Y-106.946
X102.057Y-124.49
X102.057Y-127.03
X102.057Y-129.57
X102.057Y-132.11
X132.957Y-99.326
X132.957Y-101.866
X132.957Y-104.406
X132.957Y-106.946
X132.957Y-124.49
X132.957Y-127.03
X132.957Y-129.57
X132.957Y-132.11
X162.857Y-99.326
X162.857Y-101.866
X162.857Y-104.406
X162.857Y-106.946
X162.857Y-124.49
X162.857Y-127.03
X162.857Y-129.57
X162.857Y-132.11
T12
X183.5Y-51.1
X183.5Y-57.6
X183.5Y-61.2
X183.5Y-67.7
X188.0Y-51.1
X188.0Y-57.6
X188.0Y-61.2
X188.0Y-67.7
T13
X73.095Y-49.855
X73.095Y-54.935
T14
X71.4Y-40.8
X71.5Y-148.1
X186.2Y-148.1
X186.3Y-40.7
T0
M30
