%TF.GenerationSoftware,KiCad,Pcbnew,(6.0.5)*%
%TF.CreationDate,2022-07-22T00:32:43+07:00*%
%TF.ProjectId,MARUKO_RS485_Rev2,4d415255-4b4f-45f5-9253-3438355f5265,rev?*%
%TF.SameCoordinates,Original*%
%TF.FileFunction,Soldermask,Bot*%
%TF.FilePolarity,Negative*%
%FSLAX46Y46*%
G04 Gerber Fmt 4.6, Leading zero omitted, Abs format (unit mm)*
G04 Created by KiCad (PCBNEW (6.0.5)) date 2022-07-22 00:32:43*
%MOMM*%
%LPD*%
G01*
G04 APERTURE LIST*
G04 Aperture macros list*
%AMRoundRect*
0 Rectangle with rounded corners*
0 $1 Rounding radius*
0 $2 $3 $4 $5 $6 $7 $8 $9 X,Y pos of 4 corners*
0 Add a 4 corners polygon primitive as box body*
4,1,4,$2,$3,$4,$5,$6,$7,$8,$9,$2,$3,0*
0 Add four circle primitives for the rounded corners*
1,1,$1+$1,$2,$3*
1,1,$1+$1,$4,$5*
1,1,$1+$1,$6,$7*
1,1,$1+$1,$8,$9*
0 Add four rect primitives between the rounded corners*
20,1,$1+$1,$2,$3,$4,$5,0*
20,1,$1+$1,$4,$5,$6,$7,0*
20,1,$1+$1,$6,$7,$8,$9,0*
20,1,$1+$1,$8,$9,$2,$3,0*%
G04 Aperture macros list end*
%ADD10R,2.500000X2.500000*%
%ADD11C,1.600000*%
%ADD12O,1.600000X1.600000*%
%ADD13R,1.600000X1.600000*%
%ADD14R,1.700000X1.700000*%
%ADD15O,1.700000X1.700000*%
%ADD16C,2.000000*%
%ADD17C,0.800000*%
%ADD18C,6.400000*%
%ADD19RoundRect,0.250000X-0.725000X0.600000X-0.725000X-0.600000X0.725000X-0.600000X0.725000X0.600000X0*%
%ADD20O,1.950000X1.700000*%
%ADD21RoundRect,0.250000X-0.600000X-0.725000X0.600000X-0.725000X0.600000X0.725000X-0.600000X0.725000X0*%
%ADD22O,1.700000X1.950000*%
%ADD23RoundRect,0.250000X-0.750000X0.600000X-0.750000X-0.600000X0.750000X-0.600000X0.750000X0.600000X0*%
%ADD24O,2.000000X1.700000*%
%ADD25C,1.524000*%
%ADD26C,2.600000*%
%ADD27R,2.600000X2.600000*%
%ADD28R,1.850000X1.850000*%
%ADD29C,1.850000*%
%ADD30R,1.050000X1.500000*%
%ADD31O,1.050000X1.500000*%
%ADD32R,1.508000X1.508000*%
%ADD33C,1.508000*%
%ADD34R,2.000000X2.000000*%
G04 APERTURE END LIST*
D10*
%TO.C,U4*%
X198100000Y-102550000D03*
X198100000Y-105090000D03*
X198120000Y-91910000D03*
X198120000Y-94450000D03*
X179820000Y-94450000D03*
X179820000Y-91910000D03*
X179800000Y-102550000D03*
X179800000Y-105090000D03*
%TD*%
D11*
%TO.C,R2*%
X153400000Y-82520000D03*
D12*
X153400000Y-92680000D03*
%TD*%
D13*
%TO.C,C1*%
X205544888Y-82250000D03*
D11*
X208044888Y-82250000D03*
%TD*%
D14*
%TO.C,JP9*%
X135700000Y-121500000D03*
D15*
X135700000Y-118960000D03*
%TD*%
D16*
%TO.C,SW2*%
X118000000Y-92300000D03*
X118000000Y-98800000D03*
X113500000Y-92300000D03*
X113500000Y-98800000D03*
%TD*%
D11*
%TO.C,R7*%
X173986668Y-96800000D03*
D12*
X163826668Y-96800000D03*
%TD*%
D17*
%TO.C,H4*%
X209302944Y-75697056D03*
X211000000Y-71600000D03*
X212697056Y-72302944D03*
D18*
X211000000Y-74000000D03*
D17*
X212697056Y-75697056D03*
X208600000Y-74000000D03*
X209302944Y-72302944D03*
X213400000Y-74000000D03*
X211000000Y-76400000D03*
%TD*%
D11*
%TO.C,R1*%
X136413334Y-96800000D03*
D12*
X146573334Y-96800000D03*
%TD*%
D10*
%TO.C,U5*%
X198100000Y-87090000D03*
X198100000Y-84550000D03*
X198120000Y-73910000D03*
X198120000Y-76450000D03*
X179820000Y-76450000D03*
X179820000Y-73910000D03*
X179800000Y-87090000D03*
X179800000Y-84550000D03*
%TD*%
D19*
%TO.C,J6*%
X116125000Y-104400000D03*
D20*
X116125000Y-106900000D03*
X116125000Y-109400000D03*
X116125000Y-111900000D03*
%TD*%
D21*
%TO.C,J4*%
X121750000Y-128975000D03*
D22*
X124250000Y-128975000D03*
X126750000Y-128975000D03*
X129250000Y-128975000D03*
%TD*%
D11*
%TO.C,R8*%
X150120000Y-96800000D03*
D12*
X160280000Y-96800000D03*
%TD*%
D23*
%TO.C,J9*%
X116125000Y-118950000D03*
D24*
X116125000Y-121450000D03*
%TD*%
D25*
%TO.C,U1*%
X168130000Y-110995000D03*
X168130000Y-108455000D03*
X168130000Y-105915000D03*
X168130000Y-103375000D03*
D26*
X127480000Y-102105000D03*
X127480000Y-107185000D03*
X127480000Y-112265000D03*
%TD*%
D14*
%TO.C,JP11*%
X153500000Y-121612500D03*
D15*
X153500000Y-119072500D03*
%TD*%
D27*
%TO.C,J8*%
X207505000Y-121745000D03*
D26*
X207505000Y-116665000D03*
%TD*%
D16*
%TO.C,SW1*%
X118000000Y-82000000D03*
X118000000Y-88500000D03*
X113500000Y-82000000D03*
X113500000Y-88500000D03*
%TD*%
D14*
%TO.C,JP8*%
X139500000Y-121500000D03*
D15*
X139500000Y-118960000D03*
%TD*%
D28*
%TO.C,PS1*%
X205690000Y-103960000D03*
D29*
X205690000Y-101420000D03*
X205690000Y-93800000D03*
X205690000Y-91260000D03*
X205690000Y-88720000D03*
%TD*%
D14*
%TO.C,JP4*%
X129250000Y-121495000D03*
D15*
X129250000Y-118955000D03*
%TD*%
D17*
%TO.C,H3*%
X208600000Y-131000000D03*
D18*
X211000000Y-131000000D03*
D17*
X211000000Y-133400000D03*
X209302944Y-132697056D03*
X211000000Y-128600000D03*
X213400000Y-131000000D03*
X212697056Y-129302944D03*
X212697056Y-132697056D03*
X209302944Y-129302944D03*
%TD*%
D14*
%TO.C,JP1*%
X171250000Y-121500000D03*
D15*
X171250000Y-118960000D03*
%TD*%
D30*
%TO.C,Q1*%
X158400000Y-84800000D03*
D31*
X159670000Y-84800000D03*
X160940000Y-84800000D03*
%TD*%
D11*
%TO.C,R4*%
X146866666Y-82520000D03*
D12*
X146866666Y-92680000D03*
%TD*%
D21*
%TO.C,J3*%
X135750000Y-128975000D03*
D22*
X138250000Y-128975000D03*
X140750000Y-128975000D03*
X143250000Y-128975000D03*
%TD*%
D14*
%TO.C,J5*%
X172825000Y-72460000D03*
D15*
X172825000Y-75000000D03*
X170285000Y-72460000D03*
X170285000Y-75000000D03*
X167745000Y-72460000D03*
X167745000Y-75000000D03*
X165205000Y-72460000D03*
X165205000Y-75000000D03*
X162665000Y-72460000D03*
X162665000Y-75000000D03*
X160125000Y-72460000D03*
X160125000Y-75000000D03*
X157585000Y-72460000D03*
X157585000Y-75000000D03*
X155045000Y-72460000D03*
X155045000Y-75000000D03*
X152505000Y-72460000D03*
X152505000Y-75000000D03*
X149965000Y-72460000D03*
X149965000Y-75000000D03*
X147425000Y-72460000D03*
X147425000Y-75000000D03*
X144885000Y-72460000D03*
X144885000Y-75000000D03*
X142345000Y-72460000D03*
X142345000Y-75000000D03*
X139805000Y-72460000D03*
X139805000Y-75000000D03*
X137265000Y-72460000D03*
X137265000Y-75000000D03*
X134725000Y-72460000D03*
X134725000Y-75000000D03*
X132185000Y-72460000D03*
X132185000Y-75000000D03*
X129645000Y-72460000D03*
X129645000Y-75000000D03*
X127105000Y-72460000D03*
X127105000Y-75000000D03*
X124565000Y-72460000D03*
X124565000Y-75000000D03*
%TD*%
D11*
%TO.C,R5*%
X150133332Y-82520000D03*
D12*
X150133332Y-92680000D03*
%TD*%
D17*
%TO.C,H2*%
X111600000Y-131000000D03*
X116400000Y-131000000D03*
X114000000Y-128600000D03*
X115697056Y-129302944D03*
D18*
X114000000Y-131000000D03*
D17*
X115697056Y-132697056D03*
X114000000Y-133400000D03*
X112302944Y-129302944D03*
X112302944Y-132697056D03*
%TD*%
D14*
%TO.C,JP2*%
X167500000Y-121500000D03*
D15*
X167500000Y-118960000D03*
%TD*%
D14*
%TO.C,JP7*%
X143300000Y-121500000D03*
D15*
X143300000Y-118960000D03*
%TD*%
D14*
%TO.C,JP5*%
X125500000Y-121495000D03*
D15*
X125500000Y-118955000D03*
%TD*%
D32*
%TO.C,K1*%
X198845500Y-131150000D03*
D33*
X191225500Y-131150000D03*
X181065500Y-131150000D03*
X178525500Y-131150000D03*
%TD*%
D10*
%TO.C,U3*%
X198100000Y-123090000D03*
X198100000Y-120550000D03*
X198120000Y-109910000D03*
X198120000Y-112450000D03*
X179820000Y-109910000D03*
X179820000Y-112450000D03*
X179800000Y-120550000D03*
X179800000Y-123090000D03*
%TD*%
D11*
%TO.C,R6*%
X122706668Y-96800000D03*
D12*
X132866668Y-96800000D03*
%TD*%
D14*
%TO.C,JP10*%
X157300000Y-121612500D03*
D15*
X157300000Y-119072500D03*
%TD*%
D21*
%TO.C,J2*%
X149750000Y-128975000D03*
D22*
X152250000Y-128975000D03*
X154750000Y-128975000D03*
X157250000Y-128975000D03*
%TD*%
D17*
%TO.C,H1*%
X115697056Y-75697056D03*
X115697056Y-72302944D03*
X116400000Y-74000000D03*
X114000000Y-76400000D03*
X111600000Y-74000000D03*
X112302944Y-72302944D03*
X114000000Y-71600000D03*
X112302944Y-75697056D03*
D18*
X114000000Y-74000000D03*
%TD*%
D14*
%TO.C,JP12*%
X149700000Y-121612500D03*
D15*
X149700000Y-119072500D03*
%TD*%
D14*
%TO.C,JP6*%
X121750000Y-121495000D03*
D15*
X121750000Y-118955000D03*
%TD*%
D21*
%TO.C,J1*%
X163750000Y-128975000D03*
D22*
X166250000Y-128975000D03*
X168750000Y-128975000D03*
X171250000Y-128975000D03*
%TD*%
D14*
%TO.C,JP3*%
X163750000Y-121500000D03*
D15*
X163750000Y-118960000D03*
%TD*%
D11*
%TO.C,C2*%
X205500000Y-110250000D03*
X210500000Y-110250000D03*
%TD*%
%TO.C,R3*%
X143600000Y-82520000D03*
D12*
X143600000Y-92680000D03*
%TD*%
D34*
%TO.C,BZ1*%
X166400000Y-87400000D03*
D16*
X174000000Y-87400000D03*
%TD*%
D30*
%TO.C,Q2*%
X158530000Y-91360000D03*
D31*
X159800000Y-91360000D03*
X161070000Y-91360000D03*
%TD*%
M02*
