M48
; DRILL file {KiCad (6.0.5)} date Fri Jul 22 00:32:47 2022
; FORMAT={-:-/ absolute / metric / decimal}
; #@! TF.CreationDate,2022-07-22T00:32:47+07:00
; #@! TF.GenerationSoftware,Kicad,Pcbnew,(6.0.5)
; #@! TF.FileFunction,Plated,1,2,PTH
FMAT,2
METRIC
; #@! TA.AperFunction,Plated,PTH,ViaDrill
T1C0.400
; #@! TA.AperFunction,Plated,PTH,ComponentDrill
T2C0.500
; #@! TA.AperFunction,Plated,PTH,ViaDrill
T3C0.600
; #@! TA.AperFunction,Plated,PTH,ComponentDrill
T4C0.750
; #@! TA.AperFunction,Plated,PTH,ComponentDrill
T5C0.762
; #@! TA.AperFunction,Plated,PTH,ComponentDrill
T6C0.800
; #@! TA.AperFunction,Plated,PTH,ComponentDrill
T7C0.850
; #@! TA.AperFunction,Plated,PTH,ComponentDrill
T8C0.950
; #@! TA.AperFunction,Plated,PTH,ComponentDrill
T9C1.000
; #@! TA.AperFunction,Plated,PTH,ComponentDrill
T10C1.100
; #@! TA.AperFunction,Plated,PTH,ComponentDrill
T11C1.300
; #@! TA.AperFunction,Plated,PTH,ComponentDrill
T12C1.400
; #@! TA.AperFunction,Plated,PTH,ComponentDrill
T13C3.200
%
G90
G05
T1
X111.0Y-78.0
X111.0Y-80.0
X111.0Y-82.0
X111.0Y-84.0
X111.0Y-86.0
X111.0Y-88.0
X111.0Y-90.0
X111.0Y-92.0
X111.0Y-94.0
X111.0Y-96.0
X111.0Y-98.0
X111.0Y-100.0
X111.0Y-102.0
X111.0Y-104.0
X111.0Y-106.0
X111.0Y-108.0
X111.0Y-110.0
X111.0Y-112.0
X111.0Y-116.0
X111.0Y-118.0
X111.0Y-120.0
X111.0Y-122.0
X111.0Y-124.0
X111.0Y-126.0
X112.0Y-113.0
X114.0Y-113.0
X115.0Y-116.0
X117.0Y-71.0
X117.0Y-116.0
X119.0Y-71.0
X119.0Y-116.0
X121.0Y-71.0
X121.0Y-116.0
X123.0Y-71.0
X126.0Y-90.0
X126.0Y-92.0
X126.0Y-94.0
X127.0Y-83.0
X127.0Y-85.0
X127.0Y-87.0
X127.0Y-89.0
X128.0Y-94.0
X129.0Y-79.0
X130.0Y-80.0
X130.0Y-94.0
X131.0Y-81.0
X131.0Y-102.0
X132.0Y-82.0
X132.0Y-94.0
X133.0Y-83.0
X133.0Y-85.0
X133.0Y-87.0
X133.0Y-89.0
X133.0Y-102.0
X134.0Y-90.0
X134.0Y-94.0
X135.0Y-91.0
X135.0Y-102.0
X136.0Y-94.0
X137.0Y-102.0
X138.2Y-78.6
X139.0Y-102.0
X141.0Y-102.0
X174.6Y-93.0
X176.0Y-118.0
X176.0Y-120.0
X176.0Y-122.0
X176.0Y-124.0
X176.0Y-126.0
X176.0Y-128.0
X176.0Y-130.0
X177.0Y-71.0
X179.0Y-71.0
X181.0Y-71.0
X181.0Y-100.0
X183.0Y-71.0
X183.0Y-90.0
X183.0Y-92.0
X183.0Y-94.0
X183.0Y-96.0
X183.0Y-100.0
X185.0Y-76.0
X185.0Y-79.0
X185.0Y-82.0
X185.0Y-90.0
X185.0Y-92.0
X185.0Y-94.0
X185.0Y-96.0
X185.0Y-100.0
X185.0Y-102.0
X185.0Y-104.0
X185.0Y-112.0
X185.0Y-114.0
X185.0Y-116.0
X185.0Y-118.0
X185.0Y-120.0
X185.0Y-122.0
X185.0Y-124.0
X186.0Y-71.0
X187.0Y-76.0
X187.0Y-79.0
X187.0Y-82.0
X189.0Y-71.0
X189.0Y-76.0
X189.0Y-78.0
X189.0Y-80.0
X189.0Y-82.0
X190.0Y-105.0
X190.0Y-107.0
X190.0Y-109.0
X190.0Y-111.0
X190.0Y-113.0
X191.0Y-90.0
X191.0Y-92.0
X191.0Y-94.0
X191.0Y-96.0
X192.0Y-71.0
X192.0Y-76.0
X192.0Y-78.0
X192.0Y-80.0
X192.0Y-82.0
X192.0Y-103.0
X192.0Y-105.0
X192.0Y-134.0
X193.0Y-90.0
X193.0Y-92.0
X193.0Y-94.0
X193.0Y-96.0
X193.0Y-117.0
X193.0Y-119.0
X193.0Y-121.0
X193.0Y-123.0
X193.0Y-125.0
X193.0Y-127.0
X193.0Y-129.0
X194.0Y-71.0
X194.0Y-101.0
X194.0Y-103.0
X194.0Y-105.0
X194.0Y-134.0
X195.0Y-76.0
X195.0Y-78.0
X195.0Y-80.0
X195.0Y-82.0
X196.0Y-71.0
X196.0Y-99.0
X196.0Y-134.0
X198.0Y-71.0
X198.0Y-99.0
X198.0Y-134.0
X200.0Y-71.0
X200.0Y-99.0
X200.0Y-134.0
X202.0Y-71.0
X202.0Y-96.0
X202.0Y-99.0
X202.0Y-101.0
X202.0Y-103.0
X202.0Y-105.0
X202.0Y-107.0
X202.0Y-109.0
X202.0Y-115.0
X202.0Y-117.0
X202.0Y-120.0
X202.0Y-134.0
X203.0Y-121.0
X204.0Y-96.0
X204.0Y-99.0
X204.0Y-122.0
X204.0Y-131.0
X204.0Y-134.0
X205.0Y-71.0
X205.0Y-130.0
X206.0Y-96.0
X206.0Y-99.0
X206.0Y-129.0
X206.0Y-134.0
X207.0Y-128.0
X208.0Y-96.0
X208.0Y-99.0
X208.0Y-127.0
X208.0Y-134.0
X210.0Y-96.0
X210.0Y-99.0
X212.0Y-96.0
X212.0Y-99.0
X214.0Y-78.0
X214.0Y-80.0
X214.0Y-82.0
X214.0Y-84.0
X214.0Y-86.0
X214.0Y-88.0
X214.0Y-90.0
X214.0Y-92.0
X214.0Y-94.0
X214.0Y-96.0
X214.0Y-99.0
X214.0Y-101.0
X214.0Y-103.0
X214.0Y-105.0
X214.0Y-107.0
X214.0Y-109.0
X214.0Y-111.0
X214.0Y-113.0
X214.0Y-115.0
X214.0Y-117.0
X214.0Y-119.0
X214.0Y-121.0
X214.0Y-123.0
X214.0Y-125.0
X214.0Y-127.0
T2
X111.6Y-74.0
X111.6Y-131.0
X112.303Y-72.303
X112.303Y-75.697
X112.303Y-129.303
X112.303Y-132.697
X114.0Y-71.6
X114.0Y-76.4
X114.0Y-128.6
X114.0Y-133.4
X115.697Y-72.303
X115.697Y-75.697
X115.697Y-129.303
X115.697Y-132.697
X116.4Y-74.0
X116.4Y-131.0
X208.6Y-74.0
X208.6Y-131.0
X209.303Y-72.303
X209.303Y-75.697
X209.303Y-129.303
X209.303Y-132.697
X211.0Y-71.6
X211.0Y-76.4
X211.0Y-128.6
X211.0Y-133.4
X212.697Y-72.303
X212.697Y-75.697
X212.697Y-129.303
X212.697Y-132.697
X213.4Y-74.0
X213.4Y-131.0
T3
X135.6Y-115.0
T4
X158.4Y-84.8
X158.53Y-91.36
X159.67Y-84.8
X159.8Y-91.36
X160.94Y-84.8
X161.07Y-91.36
T5
X168.13Y-103.375
X168.13Y-105.915
X168.13Y-108.455
X168.13Y-110.995
X179.8Y-84.55
X179.8Y-87.09
X179.8Y-102.55
X179.8Y-105.09
X179.8Y-120.55
X179.8Y-123.09
X179.82Y-73.91
X179.82Y-76.45
X179.82Y-91.91
X179.82Y-94.45
X179.82Y-109.91
X179.82Y-112.45
X198.1Y-84.55
X198.1Y-87.09
X198.1Y-102.55
X198.1Y-105.09
X198.1Y-120.55
X198.1Y-123.09
X198.12Y-73.91
X198.12Y-76.45
X198.12Y-91.91
X198.12Y-94.45
X198.12Y-109.91
X198.12Y-112.45
T6
X122.707Y-96.8
X132.867Y-96.8
X136.413Y-96.8
X143.6Y-82.52
X143.6Y-92.68
X146.573Y-96.8
X146.867Y-82.52
X146.867Y-92.68
X150.12Y-96.8
X150.133Y-82.52
X150.133Y-92.68
X153.4Y-82.52
X153.4Y-92.68
X160.28Y-96.8
X163.827Y-96.8
X173.987Y-96.8
X205.5Y-110.25
X205.545Y-82.25
X208.045Y-82.25
X210.5Y-110.25
T7
X205.69Y-88.72
X205.69Y-91.26
X205.69Y-93.8
X205.69Y-101.42
X205.69Y-103.96
T8
X116.125Y-104.4
X116.125Y-106.9
X116.125Y-109.4
X116.125Y-111.9
X121.75Y-128.975
X124.25Y-128.975
X126.75Y-128.975
X129.25Y-128.975
X135.75Y-128.975
X138.25Y-128.975
X140.75Y-128.975
X143.25Y-128.975
X149.75Y-128.975
X152.25Y-128.975
X154.75Y-128.975
X157.25Y-128.975
X163.75Y-128.975
X166.25Y-128.975
X168.75Y-128.975
X171.25Y-128.975
T9
X116.125Y-118.95
X116.125Y-121.45
X121.75Y-118.955
X121.75Y-121.495
X124.565Y-72.46
X124.565Y-75.0
X125.5Y-118.955
X125.5Y-121.495
X127.105Y-72.46
X127.105Y-75.0
X129.25Y-118.955
X129.25Y-121.495
X129.645Y-72.46
X129.645Y-75.0
X132.185Y-72.46
X132.185Y-75.0
X134.725Y-72.46
X134.725Y-75.0
X135.7Y-118.96
X135.7Y-121.5
X137.265Y-72.46
X137.265Y-75.0
X139.5Y-118.96
X139.5Y-121.5
X139.805Y-72.46
X139.805Y-75.0
X142.345Y-72.46
X142.345Y-75.0
X143.3Y-118.96
X143.3Y-121.5
X144.885Y-72.46
X144.885Y-75.0
X147.425Y-72.46
X147.425Y-75.0
X149.7Y-119.072
X149.7Y-121.612
X149.965Y-72.46
X149.965Y-75.0
X152.505Y-72.46
X152.505Y-75.0
X153.5Y-119.072
X153.5Y-121.612
X155.045Y-72.46
X155.045Y-75.0
X157.3Y-119.072
X157.3Y-121.612
X157.585Y-72.46
X157.585Y-75.0
X160.125Y-72.46
X160.125Y-75.0
X162.665Y-72.46
X162.665Y-75.0
X163.75Y-118.96
X163.75Y-121.5
X165.205Y-72.46
X165.205Y-75.0
X166.4Y-87.4
X167.5Y-118.96
X167.5Y-121.5
X167.745Y-72.46
X167.745Y-75.0
X170.285Y-72.46
X170.285Y-75.0
X171.25Y-118.96
X171.25Y-121.5
X172.825Y-72.46
X172.825Y-75.0
X174.0Y-87.4
X178.525Y-131.15
X181.065Y-131.15
X191.225Y-131.15
X198.845Y-131.15
T10
X113.5Y-82.0
X113.5Y-88.5
X113.5Y-92.3
X113.5Y-98.8
X118.0Y-82.0
X118.0Y-88.5
X118.0Y-92.3
X118.0Y-98.8
T11
X207.505Y-116.665
X207.505Y-121.745
T12
X127.48Y-102.105
X127.48Y-107.185
X127.48Y-112.265
T13
X114.0Y-74.0
X114.0Y-131.0
X211.0Y-74.0
X211.0Y-131.0
T0
M30
