%TF.GenerationSoftware,KiCad,Pcbnew,(6.0.5)*%
%TF.CreationDate,2022-07-22T00:32:43+07:00*%
%TF.ProjectId,MARUKO_RS485_Rev2,4d415255-4b4f-45f5-9253-3438355f5265,rev?*%
%TF.SameCoordinates,Original*%
%TF.FileFunction,Legend,Top*%
%TF.FilePolarity,Positive*%
%FSLAX46Y46*%
G04 Gerber Fmt 4.6, Leading zero omitted, Abs format (unit mm)*
G04 Created by KiCad (PCBNEW (6.0.5)) date 2022-07-22 00:32:43*
%MOMM*%
%LPD*%
G01*
G04 APERTURE LIST*
%ADD10C,0.150000*%
%ADD11C,0.120000*%
%ADD12C,0.200000*%
%ADD13C,0.250000*%
%ADD14C,0.127000*%
G04 APERTURE END LIST*
D10*
%TO.C,U4*%
X188238095Y-96452380D02*
X188238095Y-97261904D01*
X188285714Y-97357142D01*
X188333333Y-97404761D01*
X188428571Y-97452380D01*
X188619047Y-97452380D01*
X188714285Y-97404761D01*
X188761904Y-97357142D01*
X188809523Y-97261904D01*
X188809523Y-96452380D01*
X189714285Y-96785714D02*
X189714285Y-97452380D01*
X189476190Y-96404761D02*
X189238095Y-97119047D01*
X189857142Y-97119047D01*
X183261904Y-100052380D02*
X183261904Y-99052380D01*
X183595238Y-99766666D01*
X183928571Y-99052380D01*
X183928571Y-100052380D01*
X184404761Y-100052380D02*
X184404761Y-99052380D01*
X184785714Y-99052380D01*
X184880952Y-99100000D01*
X184928571Y-99147619D01*
X184976190Y-99242857D01*
X184976190Y-99385714D01*
X184928571Y-99480952D01*
X184880952Y-99528571D01*
X184785714Y-99576190D01*
X184404761Y-99576190D01*
X185928571Y-100052380D02*
X185357142Y-100052380D01*
X185642857Y-100052380D02*
X185642857Y-99052380D01*
X185547619Y-99195238D01*
X185452380Y-99290476D01*
X185357142Y-99338095D01*
X186833333Y-99052380D02*
X186357142Y-99052380D01*
X186309523Y-99528571D01*
X186357142Y-99480952D01*
X186452380Y-99433333D01*
X186690476Y-99433333D01*
X186785714Y-99480952D01*
X186833333Y-99528571D01*
X186880952Y-99623809D01*
X186880952Y-99861904D01*
X186833333Y-99957142D01*
X186785714Y-100004761D01*
X186690476Y-100052380D01*
X186452380Y-100052380D01*
X186357142Y-100004761D01*
X186309523Y-99957142D01*
X187452380Y-99480952D02*
X187357142Y-99433333D01*
X187309523Y-99385714D01*
X187261904Y-99290476D01*
X187261904Y-99242857D01*
X187309523Y-99147619D01*
X187357142Y-99100000D01*
X187452380Y-99052380D01*
X187642857Y-99052380D01*
X187738095Y-99100000D01*
X187785714Y-99147619D01*
X187833333Y-99242857D01*
X187833333Y-99290476D01*
X187785714Y-99385714D01*
X187738095Y-99433333D01*
X187642857Y-99480952D01*
X187452380Y-99480952D01*
X187357142Y-99528571D01*
X187309523Y-99576190D01*
X187261904Y-99671428D01*
X187261904Y-99861904D01*
X187309523Y-99957142D01*
X187357142Y-100004761D01*
X187452380Y-100052380D01*
X187642857Y-100052380D01*
X187738095Y-100004761D01*
X187785714Y-99957142D01*
X187833333Y-99861904D01*
X187833333Y-99671428D01*
X187785714Y-99576190D01*
X187738095Y-99528571D01*
X187642857Y-99480952D01*
X188690476Y-99385714D02*
X188690476Y-100052380D01*
X188452380Y-99004761D02*
X188214285Y-99719047D01*
X188833333Y-99719047D01*
X188976190Y-100147619D02*
X189738095Y-100147619D01*
X189976190Y-100052380D02*
X189976190Y-99052380D01*
X190309523Y-99766666D01*
X190642857Y-99052380D01*
X190642857Y-100052380D01*
X191261904Y-100052380D02*
X191166666Y-100004761D01*
X191119047Y-99957142D01*
X191071428Y-99861904D01*
X191071428Y-99576190D01*
X191119047Y-99480952D01*
X191166666Y-99433333D01*
X191261904Y-99385714D01*
X191404761Y-99385714D01*
X191500000Y-99433333D01*
X191547619Y-99480952D01*
X191595238Y-99576190D01*
X191595238Y-99861904D01*
X191547619Y-99957142D01*
X191500000Y-100004761D01*
X191404761Y-100052380D01*
X191261904Y-100052380D01*
X192452380Y-100052380D02*
X192452380Y-99052380D01*
X192452380Y-100004761D02*
X192357142Y-100052380D01*
X192166666Y-100052380D01*
X192071428Y-100004761D01*
X192023809Y-99957142D01*
X191976190Y-99861904D01*
X191976190Y-99576190D01*
X192023809Y-99480952D01*
X192071428Y-99433333D01*
X192166666Y-99385714D01*
X192357142Y-99385714D01*
X192452380Y-99433333D01*
X193357142Y-99385714D02*
X193357142Y-100052380D01*
X192928571Y-99385714D02*
X192928571Y-99909523D01*
X192976190Y-100004761D01*
X193071428Y-100052380D01*
X193214285Y-100052380D01*
X193309523Y-100004761D01*
X193357142Y-99957142D01*
X193976190Y-100052380D02*
X193880952Y-100004761D01*
X193833333Y-99909523D01*
X193833333Y-99052380D01*
X194738095Y-100004761D02*
X194642857Y-100052380D01*
X194452380Y-100052380D01*
X194357142Y-100004761D01*
X194309523Y-99909523D01*
X194309523Y-99528571D01*
X194357142Y-99433333D01*
X194452380Y-99385714D01*
X194642857Y-99385714D01*
X194738095Y-99433333D01*
X194785714Y-99528571D01*
X194785714Y-99623809D01*
X194309523Y-99719047D01*
%TO.C,R2*%
X153233333Y-81052380D02*
X152900000Y-80576190D01*
X152661904Y-81052380D02*
X152661904Y-80052380D01*
X153042857Y-80052380D01*
X153138095Y-80100000D01*
X153185714Y-80147619D01*
X153233333Y-80242857D01*
X153233333Y-80385714D01*
X153185714Y-80480952D01*
X153138095Y-80528571D01*
X153042857Y-80576190D01*
X152661904Y-80576190D01*
X153614285Y-80147619D02*
X153661904Y-80100000D01*
X153757142Y-80052380D01*
X153995238Y-80052380D01*
X154090476Y-80100000D01*
X154138095Y-80147619D01*
X154185714Y-80242857D01*
X154185714Y-80338095D01*
X154138095Y-80480952D01*
X153566666Y-81052380D01*
X154185714Y-81052380D01*
%TO.C,C1*%
X203557142Y-84166666D02*
X203604761Y-84214285D01*
X203652380Y-84357142D01*
X203652380Y-84452380D01*
X203604761Y-84595238D01*
X203509523Y-84690476D01*
X203414285Y-84738095D01*
X203223809Y-84785714D01*
X203080952Y-84785714D01*
X202890476Y-84738095D01*
X202795238Y-84690476D01*
X202700000Y-84595238D01*
X202652380Y-84452380D01*
X202652380Y-84357142D01*
X202700000Y-84214285D01*
X202747619Y-84166666D01*
X203652380Y-83214285D02*
X203652380Y-83785714D01*
X203652380Y-83500000D02*
X202652380Y-83500000D01*
X202795238Y-83595238D01*
X202890476Y-83690476D01*
X202938095Y-83785714D01*
%TO.C,JP9*%
X135509523Y-116082380D02*
X135033333Y-116082380D01*
X134985714Y-116558571D01*
X135033333Y-116510952D01*
X135128571Y-116463333D01*
X135366666Y-116463333D01*
X135461904Y-116510952D01*
X135509523Y-116558571D01*
X135557142Y-116653809D01*
X135557142Y-116891904D01*
X135509523Y-116987142D01*
X135461904Y-117034761D01*
X135366666Y-117082380D01*
X135128571Y-117082380D01*
X135033333Y-117034761D01*
X134985714Y-116987142D01*
X135842857Y-116082380D02*
X136176190Y-117082380D01*
X136509523Y-116082380D01*
%TO.C,SW2*%
X120404761Y-96883333D02*
X120452380Y-96740476D01*
X120452380Y-96502380D01*
X120404761Y-96407142D01*
X120357142Y-96359523D01*
X120261904Y-96311904D01*
X120166666Y-96311904D01*
X120071428Y-96359523D01*
X120023809Y-96407142D01*
X119976190Y-96502380D01*
X119928571Y-96692857D01*
X119880952Y-96788095D01*
X119833333Y-96835714D01*
X119738095Y-96883333D01*
X119642857Y-96883333D01*
X119547619Y-96835714D01*
X119500000Y-96788095D01*
X119452380Y-96692857D01*
X119452380Y-96454761D01*
X119500000Y-96311904D01*
X119452380Y-95978571D02*
X120452380Y-95740476D01*
X119738095Y-95550000D01*
X120452380Y-95359523D01*
X119452380Y-95121428D01*
X119547619Y-94788095D02*
X119500000Y-94740476D01*
X119452380Y-94645238D01*
X119452380Y-94407142D01*
X119500000Y-94311904D01*
X119547619Y-94264285D01*
X119642857Y-94216666D01*
X119738095Y-94216666D01*
X119880952Y-94264285D01*
X120452380Y-94835714D01*
X120452380Y-94216666D01*
X111128571Y-98764285D02*
X111176190Y-98621428D01*
X111223809Y-98573809D01*
X111319047Y-98526190D01*
X111461904Y-98526190D01*
X111557142Y-98573809D01*
X111604761Y-98621428D01*
X111652380Y-98716666D01*
X111652380Y-99097619D01*
X110652380Y-99097619D01*
X110652380Y-98764285D01*
X110700000Y-98669047D01*
X110747619Y-98621428D01*
X110842857Y-98573809D01*
X110938095Y-98573809D01*
X111033333Y-98621428D01*
X111080952Y-98669047D01*
X111128571Y-98764285D01*
X111128571Y-99097619D01*
X110985714Y-97669047D02*
X111652380Y-97669047D01*
X110985714Y-98097619D02*
X111509523Y-98097619D01*
X111604761Y-98050000D01*
X111652380Y-97954761D01*
X111652380Y-97811904D01*
X111604761Y-97716666D01*
X111557142Y-97669047D01*
X110985714Y-97335714D02*
X110985714Y-96954761D01*
X110652380Y-97192857D02*
X111509523Y-97192857D01*
X111604761Y-97145238D01*
X111652380Y-97050000D01*
X111652380Y-96954761D01*
X110985714Y-96764285D02*
X110985714Y-96383333D01*
X110652380Y-96621428D02*
X111509523Y-96621428D01*
X111604761Y-96573809D01*
X111652380Y-96478571D01*
X111652380Y-96383333D01*
X111652380Y-95907142D02*
X111604761Y-96002380D01*
X111557142Y-96050000D01*
X111461904Y-96097619D01*
X111176190Y-96097619D01*
X111080952Y-96050000D01*
X111033333Y-96002380D01*
X110985714Y-95907142D01*
X110985714Y-95764285D01*
X111033333Y-95669047D01*
X111080952Y-95621428D01*
X111176190Y-95573809D01*
X111461904Y-95573809D01*
X111557142Y-95621428D01*
X111604761Y-95669047D01*
X111652380Y-95764285D01*
X111652380Y-95907142D01*
X110985714Y-95145238D02*
X111652380Y-95145238D01*
X111080952Y-95145238D02*
X111033333Y-95097619D01*
X110985714Y-95002380D01*
X110985714Y-94859523D01*
X111033333Y-94764285D01*
X111128571Y-94716666D01*
X111652380Y-94716666D01*
X110747619Y-93526190D02*
X110700000Y-93478571D01*
X110652380Y-93383333D01*
X110652380Y-93145238D01*
X110700000Y-93050000D01*
X110747619Y-93002380D01*
X110842857Y-92954761D01*
X110938095Y-92954761D01*
X111080952Y-93002380D01*
X111652380Y-93573809D01*
X111652380Y-92954761D01*
%TO.C,R7*%
X166020001Y-94852380D02*
X165686668Y-94376190D01*
X165448572Y-94852380D02*
X165448572Y-93852380D01*
X165829525Y-93852380D01*
X165924763Y-93900000D01*
X165972382Y-93947619D01*
X166020001Y-94042857D01*
X166020001Y-94185714D01*
X165972382Y-94280952D01*
X165924763Y-94328571D01*
X165829525Y-94376190D01*
X165448572Y-94376190D01*
X166353334Y-93852380D02*
X167020001Y-93852380D01*
X166591429Y-94852380D01*
%TO.C,J7*%
X120054666Y-71606380D02*
X120054666Y-72320666D01*
X120007047Y-72463523D01*
X119911809Y-72558761D01*
X119768952Y-72606380D01*
X119673714Y-72606380D01*
X120435619Y-71606380D02*
X121102285Y-71606380D01*
X120673714Y-72606380D01*
%TO.C,R1*%
X146326667Y-95252380D02*
X145993334Y-94776190D01*
X145755238Y-95252380D02*
X145755238Y-94252380D01*
X146136191Y-94252380D01*
X146231429Y-94300000D01*
X146279048Y-94347619D01*
X146326667Y-94442857D01*
X146326667Y-94585714D01*
X146279048Y-94680952D01*
X146231429Y-94728571D01*
X146136191Y-94776190D01*
X145755238Y-94776190D01*
X147279048Y-95252380D02*
X146707619Y-95252380D01*
X146993334Y-95252380D02*
X146993334Y-94252380D01*
X146898095Y-94395238D01*
X146802857Y-94490476D01*
X146707619Y-94538095D01*
%TO.C,U5*%
X188238095Y-78452380D02*
X188238095Y-79261904D01*
X188285714Y-79357142D01*
X188333333Y-79404761D01*
X188428571Y-79452380D01*
X188619047Y-79452380D01*
X188714285Y-79404761D01*
X188761904Y-79357142D01*
X188809523Y-79261904D01*
X188809523Y-78452380D01*
X189761904Y-78452380D02*
X189285714Y-78452380D01*
X189238095Y-78928571D01*
X189285714Y-78880952D01*
X189380952Y-78833333D01*
X189619047Y-78833333D01*
X189714285Y-78880952D01*
X189761904Y-78928571D01*
X189809523Y-79023809D01*
X189809523Y-79261904D01*
X189761904Y-79357142D01*
X189714285Y-79404761D01*
X189619047Y-79452380D01*
X189380952Y-79452380D01*
X189285714Y-79404761D01*
X189238095Y-79357142D01*
X183461904Y-81652380D02*
X183461904Y-80652380D01*
X183795238Y-81366666D01*
X184128571Y-80652380D01*
X184128571Y-81652380D01*
X184604761Y-81652380D02*
X184604761Y-80652380D01*
X184985714Y-80652380D01*
X185080952Y-80700000D01*
X185128571Y-80747619D01*
X185176190Y-80842857D01*
X185176190Y-80985714D01*
X185128571Y-81080952D01*
X185080952Y-81128571D01*
X184985714Y-81176190D01*
X184604761Y-81176190D01*
X186128571Y-81652380D02*
X185557142Y-81652380D01*
X185842857Y-81652380D02*
X185842857Y-80652380D01*
X185747619Y-80795238D01*
X185652380Y-80890476D01*
X185557142Y-80938095D01*
X187033333Y-80652380D02*
X186557142Y-80652380D01*
X186509523Y-81128571D01*
X186557142Y-81080952D01*
X186652380Y-81033333D01*
X186890476Y-81033333D01*
X186985714Y-81080952D01*
X187033333Y-81128571D01*
X187080952Y-81223809D01*
X187080952Y-81461904D01*
X187033333Y-81557142D01*
X186985714Y-81604761D01*
X186890476Y-81652380D01*
X186652380Y-81652380D01*
X186557142Y-81604761D01*
X186509523Y-81557142D01*
X187652380Y-81080952D02*
X187557142Y-81033333D01*
X187509523Y-80985714D01*
X187461904Y-80890476D01*
X187461904Y-80842857D01*
X187509523Y-80747619D01*
X187557142Y-80700000D01*
X187652380Y-80652380D01*
X187842857Y-80652380D01*
X187938095Y-80700000D01*
X187985714Y-80747619D01*
X188033333Y-80842857D01*
X188033333Y-80890476D01*
X187985714Y-80985714D01*
X187938095Y-81033333D01*
X187842857Y-81080952D01*
X187652380Y-81080952D01*
X187557142Y-81128571D01*
X187509523Y-81176190D01*
X187461904Y-81271428D01*
X187461904Y-81461904D01*
X187509523Y-81557142D01*
X187557142Y-81604761D01*
X187652380Y-81652380D01*
X187842857Y-81652380D01*
X187938095Y-81604761D01*
X187985714Y-81557142D01*
X188033333Y-81461904D01*
X188033333Y-81271428D01*
X187985714Y-81176190D01*
X187938095Y-81128571D01*
X187842857Y-81080952D01*
X188890476Y-80985714D02*
X188890476Y-81652380D01*
X188652380Y-80604761D02*
X188414285Y-81319047D01*
X189033333Y-81319047D01*
X189176190Y-81747619D02*
X189938095Y-81747619D01*
X190176190Y-81652380D02*
X190176190Y-80652380D01*
X190509523Y-81366666D01*
X190842857Y-80652380D01*
X190842857Y-81652380D01*
X191461904Y-81652380D02*
X191366666Y-81604761D01*
X191319047Y-81557142D01*
X191271428Y-81461904D01*
X191271428Y-81176190D01*
X191319047Y-81080952D01*
X191366666Y-81033333D01*
X191461904Y-80985714D01*
X191604761Y-80985714D01*
X191700000Y-81033333D01*
X191747619Y-81080952D01*
X191795238Y-81176190D01*
X191795238Y-81461904D01*
X191747619Y-81557142D01*
X191700000Y-81604761D01*
X191604761Y-81652380D01*
X191461904Y-81652380D01*
X192652380Y-81652380D02*
X192652380Y-80652380D01*
X192652380Y-81604761D02*
X192557142Y-81652380D01*
X192366666Y-81652380D01*
X192271428Y-81604761D01*
X192223809Y-81557142D01*
X192176190Y-81461904D01*
X192176190Y-81176190D01*
X192223809Y-81080952D01*
X192271428Y-81033333D01*
X192366666Y-80985714D01*
X192557142Y-80985714D01*
X192652380Y-81033333D01*
X193557142Y-80985714D02*
X193557142Y-81652380D01*
X193128571Y-80985714D02*
X193128571Y-81509523D01*
X193176190Y-81604761D01*
X193271428Y-81652380D01*
X193414285Y-81652380D01*
X193509523Y-81604761D01*
X193557142Y-81557142D01*
X194176190Y-81652380D02*
X194080952Y-81604761D01*
X194033333Y-81509523D01*
X194033333Y-80652380D01*
X194938095Y-81604761D02*
X194842857Y-81652380D01*
X194652380Y-81652380D01*
X194557142Y-81604761D01*
X194509523Y-81509523D01*
X194509523Y-81128571D01*
X194557142Y-81033333D01*
X194652380Y-80985714D01*
X194842857Y-80985714D01*
X194938095Y-81033333D01*
X194985714Y-81128571D01*
X194985714Y-81223809D01*
X194509523Y-81319047D01*
%TO.C,J6*%
X119127380Y-108483333D02*
X119841666Y-108483333D01*
X119984523Y-108530952D01*
X120079761Y-108626190D01*
X120127380Y-108769047D01*
X120127380Y-108864285D01*
X119127380Y-107578571D02*
X119127380Y-107769047D01*
X119175000Y-107864285D01*
X119222619Y-107911904D01*
X119365476Y-108007142D01*
X119555952Y-108054761D01*
X119936904Y-108054761D01*
X120032142Y-108007142D01*
X120079761Y-107959523D01*
X120127380Y-107864285D01*
X120127380Y-107673809D01*
X120079761Y-107578571D01*
X120032142Y-107530952D01*
X119936904Y-107483333D01*
X119698809Y-107483333D01*
X119603571Y-107530952D01*
X119555952Y-107578571D01*
X119508333Y-107673809D01*
X119508333Y-107864285D01*
X119555952Y-107959523D01*
X119603571Y-108007142D01*
X119698809Y-108054761D01*
X111652380Y-112483333D02*
X111652380Y-112959523D01*
X110652380Y-112959523D01*
X111128571Y-112150000D02*
X111128571Y-111816666D01*
X111652380Y-111673809D02*
X111652380Y-112150000D01*
X110652380Y-112150000D01*
X110652380Y-111673809D01*
X111652380Y-111245238D02*
X110652380Y-111245238D01*
X110652380Y-111007142D01*
X110700000Y-110864285D01*
X110795238Y-110769047D01*
X110890476Y-110721428D01*
X111080952Y-110673809D01*
X111223809Y-110673809D01*
X111414285Y-110721428D01*
X111509523Y-110769047D01*
X111604761Y-110864285D01*
X111652380Y-111007142D01*
X111652380Y-111245238D01*
X111652380Y-109483333D02*
X110652380Y-109483333D01*
X110985714Y-109007142D02*
X111652380Y-109007142D01*
X111080952Y-109007142D02*
X111033333Y-108959523D01*
X110985714Y-108864285D01*
X110985714Y-108721428D01*
X111033333Y-108626190D01*
X111128571Y-108578571D01*
X111652380Y-108578571D01*
X111652380Y-107673809D02*
X110652380Y-107673809D01*
X111604761Y-107673809D02*
X111652380Y-107769047D01*
X111652380Y-107959523D01*
X111604761Y-108054761D01*
X111557142Y-108102380D01*
X111461904Y-108150000D01*
X111176190Y-108150000D01*
X111080952Y-108102380D01*
X111033333Y-108054761D01*
X110985714Y-107959523D01*
X110985714Y-107769047D01*
X111033333Y-107673809D01*
X111652380Y-107197619D02*
X110985714Y-107197619D01*
X110652380Y-107197619D02*
X110700000Y-107245238D01*
X110747619Y-107197619D01*
X110700000Y-107150000D01*
X110652380Y-107197619D01*
X110747619Y-107197619D01*
X111604761Y-106292857D02*
X111652380Y-106388095D01*
X111652380Y-106578571D01*
X111604761Y-106673809D01*
X111557142Y-106721428D01*
X111461904Y-106769047D01*
X111176190Y-106769047D01*
X111080952Y-106721428D01*
X111033333Y-106673809D01*
X110985714Y-106578571D01*
X110985714Y-106388095D01*
X111033333Y-106292857D01*
X111652380Y-105435714D02*
X111128571Y-105435714D01*
X111033333Y-105483333D01*
X110985714Y-105578571D01*
X110985714Y-105769047D01*
X111033333Y-105864285D01*
X111604761Y-105435714D02*
X111652380Y-105530952D01*
X111652380Y-105769047D01*
X111604761Y-105864285D01*
X111509523Y-105911904D01*
X111414285Y-105911904D01*
X111319047Y-105864285D01*
X111271428Y-105769047D01*
X111271428Y-105530952D01*
X111223809Y-105435714D01*
X110985714Y-105102380D02*
X110985714Y-104721428D01*
X110652380Y-104959523D02*
X111509523Y-104959523D01*
X111604761Y-104911904D01*
X111652380Y-104816666D01*
X111652380Y-104721428D01*
X111652380Y-104245238D02*
X111604761Y-104340476D01*
X111557142Y-104388095D01*
X111461904Y-104435714D01*
X111176190Y-104435714D01*
X111080952Y-104388095D01*
X111033333Y-104340476D01*
X110985714Y-104245238D01*
X110985714Y-104102380D01*
X111033333Y-104007142D01*
X111080952Y-103959523D01*
X111176190Y-103911904D01*
X111461904Y-103911904D01*
X111557142Y-103959523D01*
X111604761Y-104007142D01*
X111652380Y-104102380D01*
X111652380Y-104245238D01*
X111652380Y-103483333D02*
X110985714Y-103483333D01*
X111176190Y-103483333D02*
X111080952Y-103435714D01*
X111033333Y-103388095D01*
X110985714Y-103292857D01*
X110985714Y-103197619D01*
%TO.C,J4*%
X125166666Y-124877380D02*
X125166666Y-125591666D01*
X125119047Y-125734523D01*
X125023809Y-125829761D01*
X124880952Y-125877380D01*
X124785714Y-125877380D01*
X126071428Y-125210714D02*
X126071428Y-125877380D01*
X125833333Y-124829761D02*
X125595238Y-125544047D01*
X126214285Y-125544047D01*
X121757142Y-134154761D02*
X121871428Y-134202380D01*
X122100000Y-134202380D01*
X122214285Y-134154761D01*
X122271428Y-134059523D01*
X122271428Y-134011904D01*
X122214285Y-133916666D01*
X122100000Y-133869047D01*
X121928571Y-133869047D01*
X121814285Y-133821428D01*
X121757142Y-133726190D01*
X121757142Y-133678571D01*
X121814285Y-133583333D01*
X121928571Y-133535714D01*
X122100000Y-133535714D01*
X122214285Y-133583333D01*
X123242857Y-134154761D02*
X123128571Y-134202380D01*
X122900000Y-134202380D01*
X122785714Y-134154761D01*
X122728571Y-134059523D01*
X122728571Y-133678571D01*
X122785714Y-133583333D01*
X122900000Y-133535714D01*
X123128571Y-133535714D01*
X123242857Y-133583333D01*
X123300000Y-133678571D01*
X123300000Y-133773809D01*
X122728571Y-133869047D01*
X123814285Y-133535714D02*
X123814285Y-134202380D01*
X123814285Y-133630952D02*
X123871428Y-133583333D01*
X123985714Y-133535714D01*
X124157142Y-133535714D01*
X124271428Y-133583333D01*
X124328571Y-133678571D01*
X124328571Y-134202380D01*
X124842857Y-134154761D02*
X124957142Y-134202380D01*
X125185714Y-134202380D01*
X125300000Y-134154761D01*
X125357142Y-134059523D01*
X125357142Y-134011904D01*
X125300000Y-133916666D01*
X125185714Y-133869047D01*
X125014285Y-133869047D01*
X124900000Y-133821428D01*
X124842857Y-133726190D01*
X124842857Y-133678571D01*
X124900000Y-133583333D01*
X125014285Y-133535714D01*
X125185714Y-133535714D01*
X125300000Y-133583333D01*
X126042857Y-134202380D02*
X125928571Y-134154761D01*
X125871428Y-134107142D01*
X125814285Y-134011904D01*
X125814285Y-133726190D01*
X125871428Y-133630952D01*
X125928571Y-133583333D01*
X126042857Y-133535714D01*
X126214285Y-133535714D01*
X126328571Y-133583333D01*
X126385714Y-133630952D01*
X126442857Y-133726190D01*
X126442857Y-134011904D01*
X126385714Y-134107142D01*
X126328571Y-134154761D01*
X126214285Y-134202380D01*
X126042857Y-134202380D01*
X126957142Y-134202380D02*
X126957142Y-133535714D01*
X126957142Y-133726190D02*
X127014285Y-133630952D01*
X127071428Y-133583333D01*
X127185714Y-133535714D01*
X127300000Y-133535714D01*
X129128571Y-133535714D02*
X129128571Y-134202380D01*
X128842857Y-133154761D02*
X128557142Y-133869047D01*
X129300000Y-133869047D01*
%TO.C,R8*%
X150033333Y-95252380D02*
X149700000Y-94776190D01*
X149461904Y-95252380D02*
X149461904Y-94252380D01*
X149842857Y-94252380D01*
X149938095Y-94300000D01*
X149985714Y-94347619D01*
X150033333Y-94442857D01*
X150033333Y-94585714D01*
X149985714Y-94680952D01*
X149938095Y-94728571D01*
X149842857Y-94776190D01*
X149461904Y-94776190D01*
X150604761Y-94680952D02*
X150509523Y-94633333D01*
X150461904Y-94585714D01*
X150414285Y-94490476D01*
X150414285Y-94442857D01*
X150461904Y-94347619D01*
X150509523Y-94300000D01*
X150604761Y-94252380D01*
X150795238Y-94252380D01*
X150890476Y-94300000D01*
X150938095Y-94347619D01*
X150985714Y-94442857D01*
X150985714Y-94490476D01*
X150938095Y-94585714D01*
X150890476Y-94633333D01*
X150795238Y-94680952D01*
X150604761Y-94680952D01*
X150509523Y-94728571D01*
X150461904Y-94776190D01*
X150414285Y-94871428D01*
X150414285Y-95061904D01*
X150461904Y-95157142D01*
X150509523Y-95204761D01*
X150604761Y-95252380D01*
X150795238Y-95252380D01*
X150890476Y-95204761D01*
X150938095Y-95157142D01*
X150985714Y-95061904D01*
X150985714Y-94871428D01*
X150938095Y-94776190D01*
X150890476Y-94728571D01*
X150795238Y-94680952D01*
%TO.C,J9*%
X115866666Y-124852380D02*
X115866666Y-125566666D01*
X115819047Y-125709523D01*
X115723809Y-125804761D01*
X115580952Y-125852380D01*
X115485714Y-125852380D01*
X116390476Y-125852380D02*
X116580952Y-125852380D01*
X116676190Y-125804761D01*
X116723809Y-125757142D01*
X116819047Y-125614285D01*
X116866666Y-125423809D01*
X116866666Y-125042857D01*
X116819047Y-124947619D01*
X116771428Y-124900000D01*
X116676190Y-124852380D01*
X116485714Y-124852380D01*
X116390476Y-124900000D01*
X116342857Y-124947619D01*
X116295238Y-125042857D01*
X116295238Y-125280952D01*
X116342857Y-125376190D01*
X116390476Y-125423809D01*
X116485714Y-125471428D01*
X116676190Y-125471428D01*
X116771428Y-125423809D01*
X116819047Y-125376190D01*
X116866666Y-125280952D01*
X111128571Y-122723809D02*
X111128571Y-123057142D01*
X111652380Y-123057142D02*
X110652380Y-123057142D01*
X110652380Y-122580952D01*
X111652380Y-121771428D02*
X111128571Y-121771428D01*
X111033333Y-121819047D01*
X110985714Y-121914285D01*
X110985714Y-122104761D01*
X111033333Y-122200000D01*
X111604761Y-121771428D02*
X111652380Y-121866666D01*
X111652380Y-122104761D01*
X111604761Y-122200000D01*
X111509523Y-122247619D01*
X111414285Y-122247619D01*
X111319047Y-122200000D01*
X111271428Y-122104761D01*
X111271428Y-121866666D01*
X111223809Y-121771428D01*
X110985714Y-121295238D02*
X111652380Y-121295238D01*
X111080952Y-121295238D02*
X111033333Y-121247619D01*
X110985714Y-121152380D01*
X110985714Y-121009523D01*
X111033333Y-120914285D01*
X111128571Y-120866666D01*
X111652380Y-120866666D01*
X111652380Y-119104761D02*
X111652380Y-119676190D01*
X111652380Y-119390476D02*
X110652380Y-119390476D01*
X110795238Y-119485714D01*
X110890476Y-119580952D01*
X110938095Y-119676190D01*
X110747619Y-118723809D02*
X110700000Y-118676190D01*
X110652380Y-118580952D01*
X110652380Y-118342857D01*
X110700000Y-118247619D01*
X110747619Y-118200000D01*
X110842857Y-118152380D01*
X110938095Y-118152380D01*
X111080952Y-118200000D01*
X111652380Y-118771428D01*
X111652380Y-118152380D01*
X110652380Y-117866666D02*
X111652380Y-117533333D01*
X110652380Y-117200000D01*
%TO.C,U1*%
X154561904Y-108847619D02*
X154561904Y-108038095D01*
X154514285Y-107942857D01*
X154466666Y-107895238D01*
X154371428Y-107847619D01*
X154180952Y-107847619D01*
X154085714Y-107895238D01*
X154038095Y-107942857D01*
X153990476Y-108038095D01*
X153990476Y-108847619D01*
X152990476Y-107847619D02*
X153561904Y-107847619D01*
X153276190Y-107847619D02*
X153276190Y-108847619D01*
X153371428Y-108704761D01*
X153466666Y-108609523D01*
X153561904Y-108561904D01*
X141609523Y-107204761D02*
X141752380Y-107252380D01*
X141990476Y-107252380D01*
X142085714Y-107204761D01*
X142133333Y-107157142D01*
X142180952Y-107061904D01*
X142180952Y-106966666D01*
X142133333Y-106871428D01*
X142085714Y-106823809D01*
X141990476Y-106776190D01*
X141800000Y-106728571D01*
X141704761Y-106680952D01*
X141657142Y-106633333D01*
X141609523Y-106538095D01*
X141609523Y-106442857D01*
X141657142Y-106347619D01*
X141704761Y-106300000D01*
X141800000Y-106252380D01*
X142038095Y-106252380D01*
X142180952Y-106300000D01*
X143180952Y-107157142D02*
X143133333Y-107204761D01*
X142990476Y-107252380D01*
X142895238Y-107252380D01*
X142752380Y-107204761D01*
X142657142Y-107109523D01*
X142609523Y-107014285D01*
X142561904Y-106823809D01*
X142561904Y-106680952D01*
X142609523Y-106490476D01*
X142657142Y-106395238D01*
X142752380Y-106300000D01*
X142895238Y-106252380D01*
X142990476Y-106252380D01*
X143133333Y-106300000D01*
X143180952Y-106347619D01*
X143609523Y-107252380D02*
X143609523Y-106252380D01*
X143942857Y-106966666D01*
X144276190Y-106252380D01*
X144276190Y-107252380D01*
X144514285Y-107347619D02*
X145276190Y-107347619D01*
X145371428Y-106252380D02*
X145942857Y-106252380D01*
X145657142Y-107252380D02*
X145657142Y-106252380D01*
X146133333Y-106252380D02*
X146704761Y-106252380D01*
X146419047Y-107252380D02*
X146419047Y-106252380D01*
X147514285Y-107252380D02*
X147038095Y-107252380D01*
X147038095Y-106252380D01*
X147609523Y-107347619D02*
X148371428Y-107347619D01*
X149180952Y-107252380D02*
X148847619Y-106776190D01*
X148609523Y-107252380D02*
X148609523Y-106252380D01*
X148990476Y-106252380D01*
X149085714Y-106300000D01*
X149133333Y-106347619D01*
X149180952Y-106442857D01*
X149180952Y-106585714D01*
X149133333Y-106680952D01*
X149085714Y-106728571D01*
X148990476Y-106776190D01*
X148609523Y-106776190D01*
X149561904Y-107204761D02*
X149704761Y-107252380D01*
X149942857Y-107252380D01*
X150038095Y-107204761D01*
X150085714Y-107157142D01*
X150133333Y-107061904D01*
X150133333Y-106966666D01*
X150085714Y-106871428D01*
X150038095Y-106823809D01*
X149942857Y-106776190D01*
X149752380Y-106728571D01*
X149657142Y-106680952D01*
X149609523Y-106633333D01*
X149561904Y-106538095D01*
X149561904Y-106442857D01*
X149609523Y-106347619D01*
X149657142Y-106300000D01*
X149752380Y-106252380D01*
X149990476Y-106252380D01*
X150133333Y-106300000D01*
X150990476Y-106585714D02*
X150990476Y-107252380D01*
X150752380Y-106204761D02*
X150514285Y-106919047D01*
X151133333Y-106919047D01*
X151657142Y-106680952D02*
X151561904Y-106633333D01*
X151514285Y-106585714D01*
X151466666Y-106490476D01*
X151466666Y-106442857D01*
X151514285Y-106347619D01*
X151561904Y-106300000D01*
X151657142Y-106252380D01*
X151847619Y-106252380D01*
X151942857Y-106300000D01*
X151990476Y-106347619D01*
X152038095Y-106442857D01*
X152038095Y-106490476D01*
X151990476Y-106585714D01*
X151942857Y-106633333D01*
X151847619Y-106680952D01*
X151657142Y-106680952D01*
X151561904Y-106728571D01*
X151514285Y-106776190D01*
X151466666Y-106871428D01*
X151466666Y-107061904D01*
X151514285Y-107157142D01*
X151561904Y-107204761D01*
X151657142Y-107252380D01*
X151847619Y-107252380D01*
X151942857Y-107204761D01*
X151990476Y-107157142D01*
X152038095Y-107061904D01*
X152038095Y-106871428D01*
X151990476Y-106776190D01*
X151942857Y-106728571D01*
X151847619Y-106680952D01*
X152942857Y-106252380D02*
X152466666Y-106252380D01*
X152419047Y-106728571D01*
X152466666Y-106680952D01*
X152561904Y-106633333D01*
X152800000Y-106633333D01*
X152895238Y-106680952D01*
X152942857Y-106728571D01*
X152990476Y-106823809D01*
X152990476Y-107061904D01*
X152942857Y-107157142D01*
X152895238Y-107204761D01*
X152800000Y-107252380D01*
X152561904Y-107252380D01*
X152466666Y-107204761D01*
X152419047Y-107157142D01*
%TO.C,JP11*%
X152980952Y-116959880D02*
X152409523Y-116959880D01*
X152695238Y-116959880D02*
X152695238Y-115959880D01*
X152600000Y-116102738D01*
X152504761Y-116197976D01*
X152409523Y-116245595D01*
X153361904Y-116055119D02*
X153409523Y-116007500D01*
X153504761Y-115959880D01*
X153742857Y-115959880D01*
X153838095Y-116007500D01*
X153885714Y-116055119D01*
X153933333Y-116150357D01*
X153933333Y-116245595D01*
X153885714Y-116388452D01*
X153314285Y-116959880D01*
X153933333Y-116959880D01*
X154219047Y-115959880D02*
X154552380Y-116959880D01*
X154885714Y-115959880D01*
%TO.C,J8*%
X200697380Y-119538333D02*
X201411666Y-119538333D01*
X201554523Y-119585952D01*
X201649761Y-119681190D01*
X201697380Y-119824047D01*
X201697380Y-119919285D01*
X201125952Y-118919285D02*
X201078333Y-119014523D01*
X201030714Y-119062142D01*
X200935476Y-119109761D01*
X200887857Y-119109761D01*
X200792619Y-119062142D01*
X200745000Y-119014523D01*
X200697380Y-118919285D01*
X200697380Y-118728809D01*
X200745000Y-118633571D01*
X200792619Y-118585952D01*
X200887857Y-118538333D01*
X200935476Y-118538333D01*
X201030714Y-118585952D01*
X201078333Y-118633571D01*
X201125952Y-118728809D01*
X201125952Y-118919285D01*
X201173571Y-119014523D01*
X201221190Y-119062142D01*
X201316428Y-119109761D01*
X201506904Y-119109761D01*
X201602142Y-119062142D01*
X201649761Y-119014523D01*
X201697380Y-118919285D01*
X201697380Y-118728809D01*
X201649761Y-118633571D01*
X201602142Y-118585952D01*
X201506904Y-118538333D01*
X201316428Y-118538333D01*
X201221190Y-118585952D01*
X201173571Y-118633571D01*
X201125952Y-118728809D01*
X214252380Y-123966904D02*
X213252380Y-123966904D01*
X213252380Y-123585952D01*
X213300000Y-123490714D01*
X213347619Y-123443095D01*
X213442857Y-123395476D01*
X213585714Y-123395476D01*
X213680952Y-123443095D01*
X213728571Y-123490714D01*
X213776190Y-123585952D01*
X213776190Y-123966904D01*
X214252380Y-122824047D02*
X214204761Y-122919285D01*
X214157142Y-122966904D01*
X214061904Y-123014523D01*
X213776190Y-123014523D01*
X213680952Y-122966904D01*
X213633333Y-122919285D01*
X213585714Y-122824047D01*
X213585714Y-122681190D01*
X213633333Y-122585952D01*
X213680952Y-122538333D01*
X213776190Y-122490714D01*
X214061904Y-122490714D01*
X214157142Y-122538333D01*
X214204761Y-122585952D01*
X214252380Y-122681190D01*
X214252380Y-122824047D01*
X213585714Y-122157380D02*
X214252380Y-121966904D01*
X213776190Y-121776428D01*
X214252380Y-121585952D01*
X213585714Y-121395476D01*
X214204761Y-120633571D02*
X214252380Y-120728809D01*
X214252380Y-120919285D01*
X214204761Y-121014523D01*
X214109523Y-121062142D01*
X213728571Y-121062142D01*
X213633333Y-121014523D01*
X213585714Y-120919285D01*
X213585714Y-120728809D01*
X213633333Y-120633571D01*
X213728571Y-120585952D01*
X213823809Y-120585952D01*
X213919047Y-121062142D01*
X214252380Y-120157380D02*
X213585714Y-120157380D01*
X213776190Y-120157380D02*
X213680952Y-120109761D01*
X213633333Y-120062142D01*
X213585714Y-119966904D01*
X213585714Y-119871666D01*
X214252380Y-118776428D02*
X213252380Y-118776428D01*
X213585714Y-118300238D02*
X214252380Y-118300238D01*
X213680952Y-118300238D02*
X213633333Y-118252619D01*
X213585714Y-118157380D01*
X213585714Y-118014523D01*
X213633333Y-117919285D01*
X213728571Y-117871666D01*
X214252380Y-117871666D01*
X213347619Y-116681190D02*
X213300000Y-116633571D01*
X213252380Y-116538333D01*
X213252380Y-116300238D01*
X213300000Y-116205000D01*
X213347619Y-116157380D01*
X213442857Y-116109761D01*
X213538095Y-116109761D01*
X213680952Y-116157380D01*
X214252380Y-116728809D01*
X214252380Y-116109761D01*
X213585714Y-115252619D02*
X214252380Y-115252619D01*
X213204761Y-115490714D02*
X213919047Y-115728809D01*
X213919047Y-115109761D01*
X213585714Y-114824047D02*
X214252380Y-114585952D01*
X213585714Y-114347857D01*
%TO.C,SW1*%
X120404761Y-86583333D02*
X120452380Y-86440476D01*
X120452380Y-86202380D01*
X120404761Y-86107142D01*
X120357142Y-86059523D01*
X120261904Y-86011904D01*
X120166666Y-86011904D01*
X120071428Y-86059523D01*
X120023809Y-86107142D01*
X119976190Y-86202380D01*
X119928571Y-86392857D01*
X119880952Y-86488095D01*
X119833333Y-86535714D01*
X119738095Y-86583333D01*
X119642857Y-86583333D01*
X119547619Y-86535714D01*
X119500000Y-86488095D01*
X119452380Y-86392857D01*
X119452380Y-86154761D01*
X119500000Y-86011904D01*
X119452380Y-85678571D02*
X120452380Y-85440476D01*
X119738095Y-85250000D01*
X120452380Y-85059523D01*
X119452380Y-84821428D01*
X120452380Y-83916666D02*
X120452380Y-84488095D01*
X120452380Y-84202380D02*
X119452380Y-84202380D01*
X119595238Y-84297619D01*
X119690476Y-84392857D01*
X119738095Y-84488095D01*
X111128571Y-88464285D02*
X111176190Y-88321428D01*
X111223809Y-88273809D01*
X111319047Y-88226190D01*
X111461904Y-88226190D01*
X111557142Y-88273809D01*
X111604761Y-88321428D01*
X111652380Y-88416666D01*
X111652380Y-88797619D01*
X110652380Y-88797619D01*
X110652380Y-88464285D01*
X110700000Y-88369047D01*
X110747619Y-88321428D01*
X110842857Y-88273809D01*
X110938095Y-88273809D01*
X111033333Y-88321428D01*
X111080952Y-88369047D01*
X111128571Y-88464285D01*
X111128571Y-88797619D01*
X110985714Y-87369047D02*
X111652380Y-87369047D01*
X110985714Y-87797619D02*
X111509523Y-87797619D01*
X111604761Y-87750000D01*
X111652380Y-87654761D01*
X111652380Y-87511904D01*
X111604761Y-87416666D01*
X111557142Y-87369047D01*
X110985714Y-87035714D02*
X110985714Y-86654761D01*
X110652380Y-86892857D02*
X111509523Y-86892857D01*
X111604761Y-86845238D01*
X111652380Y-86750000D01*
X111652380Y-86654761D01*
X110985714Y-86464285D02*
X110985714Y-86083333D01*
X110652380Y-86321428D02*
X111509523Y-86321428D01*
X111604761Y-86273809D01*
X111652380Y-86178571D01*
X111652380Y-86083333D01*
X111652380Y-85607142D02*
X111604761Y-85702380D01*
X111557142Y-85750000D01*
X111461904Y-85797619D01*
X111176190Y-85797619D01*
X111080952Y-85750000D01*
X111033333Y-85702380D01*
X110985714Y-85607142D01*
X110985714Y-85464285D01*
X111033333Y-85369047D01*
X111080952Y-85321428D01*
X111176190Y-85273809D01*
X111461904Y-85273809D01*
X111557142Y-85321428D01*
X111604761Y-85369047D01*
X111652380Y-85464285D01*
X111652380Y-85607142D01*
X110985714Y-84845238D02*
X111652380Y-84845238D01*
X111080952Y-84845238D02*
X111033333Y-84797619D01*
X110985714Y-84702380D01*
X110985714Y-84559523D01*
X111033333Y-84464285D01*
X111128571Y-84416666D01*
X111652380Y-84416666D01*
X111652380Y-82654761D02*
X111652380Y-83226190D01*
X111652380Y-82940476D02*
X110652380Y-82940476D01*
X110795238Y-83035714D01*
X110890476Y-83130952D01*
X110938095Y-83226190D01*
%TO.C,JP8*%
X138880952Y-117082380D02*
X138309523Y-117082380D01*
X138595238Y-117082380D02*
X138595238Y-116082380D01*
X138500000Y-116225238D01*
X138404761Y-116320476D01*
X138309523Y-116368095D01*
X139261904Y-116177619D02*
X139309523Y-116130000D01*
X139404761Y-116082380D01*
X139642857Y-116082380D01*
X139738095Y-116130000D01*
X139785714Y-116177619D01*
X139833333Y-116272857D01*
X139833333Y-116368095D01*
X139785714Y-116510952D01*
X139214285Y-117082380D01*
X139833333Y-117082380D01*
X140119047Y-116082380D02*
X140452380Y-117082380D01*
X140785714Y-116082380D01*
%TO.C,PS1*%
X203452380Y-106214285D02*
X202452380Y-106214285D01*
X202452380Y-105833333D01*
X202500000Y-105738095D01*
X202547619Y-105690476D01*
X202642857Y-105642857D01*
X202785714Y-105642857D01*
X202880952Y-105690476D01*
X202928571Y-105738095D01*
X202976190Y-105833333D01*
X202976190Y-106214285D01*
X203404761Y-105261904D02*
X203452380Y-105119047D01*
X203452380Y-104880952D01*
X203404761Y-104785714D01*
X203357142Y-104738095D01*
X203261904Y-104690476D01*
X203166666Y-104690476D01*
X203071428Y-104738095D01*
X203023809Y-104785714D01*
X202976190Y-104880952D01*
X202928571Y-105071428D01*
X202880952Y-105166666D01*
X202833333Y-105214285D01*
X202738095Y-105261904D01*
X202642857Y-105261904D01*
X202547619Y-105214285D01*
X202500000Y-105166666D01*
X202452380Y-105071428D01*
X202452380Y-104833333D01*
X202500000Y-104690476D01*
X203452380Y-103738095D02*
X203452380Y-104309523D01*
X203452380Y-104023809D02*
X202452380Y-104023809D01*
X202595238Y-104119047D01*
X202690476Y-104214285D01*
X202738095Y-104309523D01*
%TO.C,JP4*%
X128059523Y-116172619D02*
X128107142Y-116125000D01*
X128202380Y-116077380D01*
X128440476Y-116077380D01*
X128535714Y-116125000D01*
X128583333Y-116172619D01*
X128630952Y-116267857D01*
X128630952Y-116363095D01*
X128583333Y-116505952D01*
X128011904Y-117077380D01*
X128630952Y-117077380D01*
X129488095Y-116410714D02*
X129488095Y-117077380D01*
X129250000Y-116029761D02*
X129011904Y-116744047D01*
X129630952Y-116744047D01*
X129869047Y-116077380D02*
X130202380Y-117077380D01*
X130535714Y-116077380D01*
%TO.C,JP1*%
X170059523Y-116177619D02*
X170107142Y-116130000D01*
X170202380Y-116082380D01*
X170440476Y-116082380D01*
X170535714Y-116130000D01*
X170583333Y-116177619D01*
X170630952Y-116272857D01*
X170630952Y-116368095D01*
X170583333Y-116510952D01*
X170011904Y-117082380D01*
X170630952Y-117082380D01*
X171488095Y-116415714D02*
X171488095Y-117082380D01*
X171250000Y-116034761D02*
X171011904Y-116749047D01*
X171630952Y-116749047D01*
X171869047Y-116082380D02*
X172202380Y-117082380D01*
X172535714Y-116082380D01*
%TO.C,Q1*%
X159574761Y-81787619D02*
X159479523Y-81740000D01*
X159384285Y-81644761D01*
X159241428Y-81501904D01*
X159146190Y-81454285D01*
X159050952Y-81454285D01*
X159098571Y-81692380D02*
X159003333Y-81644761D01*
X158908095Y-81549523D01*
X158860476Y-81359047D01*
X158860476Y-81025714D01*
X158908095Y-80835238D01*
X159003333Y-80740000D01*
X159098571Y-80692380D01*
X159289047Y-80692380D01*
X159384285Y-80740000D01*
X159479523Y-80835238D01*
X159527142Y-81025714D01*
X159527142Y-81359047D01*
X159479523Y-81549523D01*
X159384285Y-81644761D01*
X159289047Y-81692380D01*
X159098571Y-81692380D01*
X160479523Y-81692380D02*
X159908095Y-81692380D01*
X160193809Y-81692380D02*
X160193809Y-80692380D01*
X160098571Y-80835238D01*
X160003333Y-80930476D01*
X159908095Y-80978095D01*
%TO.C,R4*%
X146833333Y-81052380D02*
X146500000Y-80576190D01*
X146261904Y-81052380D02*
X146261904Y-80052380D01*
X146642857Y-80052380D01*
X146738095Y-80100000D01*
X146785714Y-80147619D01*
X146833333Y-80242857D01*
X146833333Y-80385714D01*
X146785714Y-80480952D01*
X146738095Y-80528571D01*
X146642857Y-80576190D01*
X146261904Y-80576190D01*
X147690476Y-80385714D02*
X147690476Y-81052380D01*
X147452380Y-80004761D02*
X147214285Y-80719047D01*
X147833333Y-80719047D01*
%TO.C,J3*%
X139166666Y-124877380D02*
X139166666Y-125591666D01*
X139119047Y-125734523D01*
X139023809Y-125829761D01*
X138880952Y-125877380D01*
X138785714Y-125877380D01*
X139547619Y-124877380D02*
X140166666Y-124877380D01*
X139833333Y-125258333D01*
X139976190Y-125258333D01*
X140071428Y-125305952D01*
X140119047Y-125353571D01*
X140166666Y-125448809D01*
X140166666Y-125686904D01*
X140119047Y-125782142D01*
X140071428Y-125829761D01*
X139976190Y-125877380D01*
X139690476Y-125877380D01*
X139595238Y-125829761D01*
X139547619Y-125782142D01*
X135671428Y-134154761D02*
X135842857Y-134202380D01*
X136128571Y-134202380D01*
X136242857Y-134154761D01*
X136300000Y-134107142D01*
X136357142Y-134011904D01*
X136357142Y-133916666D01*
X136300000Y-133821428D01*
X136242857Y-133773809D01*
X136128571Y-133726190D01*
X135900000Y-133678571D01*
X135785714Y-133630952D01*
X135728571Y-133583333D01*
X135671428Y-133488095D01*
X135671428Y-133392857D01*
X135728571Y-133297619D01*
X135785714Y-133250000D01*
X135900000Y-133202380D01*
X136185714Y-133202380D01*
X136357142Y-133250000D01*
X137328571Y-134154761D02*
X137214285Y-134202380D01*
X136985714Y-134202380D01*
X136871428Y-134154761D01*
X136814285Y-134059523D01*
X136814285Y-133678571D01*
X136871428Y-133583333D01*
X136985714Y-133535714D01*
X137214285Y-133535714D01*
X137328571Y-133583333D01*
X137385714Y-133678571D01*
X137385714Y-133773809D01*
X136814285Y-133869047D01*
X137900000Y-133535714D02*
X137900000Y-134202380D01*
X137900000Y-133630952D02*
X137957142Y-133583333D01*
X138071428Y-133535714D01*
X138242857Y-133535714D01*
X138357142Y-133583333D01*
X138414285Y-133678571D01*
X138414285Y-134202380D01*
X138928571Y-134154761D02*
X139042857Y-134202380D01*
X139271428Y-134202380D01*
X139385714Y-134154761D01*
X139442857Y-134059523D01*
X139442857Y-134011904D01*
X139385714Y-133916666D01*
X139271428Y-133869047D01*
X139100000Y-133869047D01*
X138985714Y-133821428D01*
X138928571Y-133726190D01*
X138928571Y-133678571D01*
X138985714Y-133583333D01*
X139100000Y-133535714D01*
X139271428Y-133535714D01*
X139385714Y-133583333D01*
X140128571Y-134202380D02*
X140014285Y-134154761D01*
X139957142Y-134107142D01*
X139900000Y-134011904D01*
X139900000Y-133726190D01*
X139957142Y-133630952D01*
X140014285Y-133583333D01*
X140128571Y-133535714D01*
X140300000Y-133535714D01*
X140414285Y-133583333D01*
X140471428Y-133630952D01*
X140528571Y-133726190D01*
X140528571Y-134011904D01*
X140471428Y-134107142D01*
X140414285Y-134154761D01*
X140300000Y-134202380D01*
X140128571Y-134202380D01*
X141042857Y-134202380D02*
X141042857Y-133535714D01*
X141042857Y-133726190D02*
X141100000Y-133630952D01*
X141157142Y-133583333D01*
X141271428Y-133535714D01*
X141385714Y-133535714D01*
X142585714Y-133202380D02*
X143328571Y-133202380D01*
X142928571Y-133583333D01*
X143100000Y-133583333D01*
X143214285Y-133630952D01*
X143271428Y-133678571D01*
X143328571Y-133773809D01*
X143328571Y-134011904D01*
X143271428Y-134107142D01*
X143214285Y-134154761D01*
X143100000Y-134202380D01*
X142757142Y-134202380D01*
X142642857Y-134154761D01*
X142585714Y-134107142D01*
%TO.C,J5*%
X174607380Y-74063333D02*
X175321666Y-74063333D01*
X175464523Y-74110952D01*
X175559761Y-74206190D01*
X175607380Y-74349047D01*
X175607380Y-74444285D01*
X174607380Y-73110952D02*
X174607380Y-73587142D01*
X175083571Y-73634761D01*
X175035952Y-73587142D01*
X174988333Y-73491904D01*
X174988333Y-73253809D01*
X175035952Y-73158571D01*
X175083571Y-73110952D01*
X175178809Y-73063333D01*
X175416904Y-73063333D01*
X175512142Y-73110952D01*
X175559761Y-73158571D01*
X175607380Y-73253809D01*
X175607380Y-73491904D01*
X175559761Y-73587142D01*
X175512142Y-73634761D01*
%TO.C,R5*%
X149966665Y-81052380D02*
X149633332Y-80576190D01*
X149395236Y-81052380D02*
X149395236Y-80052380D01*
X149776189Y-80052380D01*
X149871427Y-80100000D01*
X149919046Y-80147619D01*
X149966665Y-80242857D01*
X149966665Y-80385714D01*
X149919046Y-80480952D01*
X149871427Y-80528571D01*
X149776189Y-80576190D01*
X149395236Y-80576190D01*
X150871427Y-80052380D02*
X150395236Y-80052380D01*
X150347617Y-80528571D01*
X150395236Y-80480952D01*
X150490474Y-80433333D01*
X150728570Y-80433333D01*
X150823808Y-80480952D01*
X150871427Y-80528571D01*
X150919046Y-80623809D01*
X150919046Y-80861904D01*
X150871427Y-80957142D01*
X150823808Y-81004761D01*
X150728570Y-81052380D01*
X150490474Y-81052380D01*
X150395236Y-81004761D01*
X150347617Y-80957142D01*
%TO.C,JP2*%
X166880952Y-117082380D02*
X166309523Y-117082380D01*
X166595238Y-117082380D02*
X166595238Y-116082380D01*
X166500000Y-116225238D01*
X166404761Y-116320476D01*
X166309523Y-116368095D01*
X167261904Y-116177619D02*
X167309523Y-116130000D01*
X167404761Y-116082380D01*
X167642857Y-116082380D01*
X167738095Y-116130000D01*
X167785714Y-116177619D01*
X167833333Y-116272857D01*
X167833333Y-116368095D01*
X167785714Y-116510952D01*
X167214285Y-117082380D01*
X167833333Y-117082380D01*
X168119047Y-116082380D02*
X168452380Y-117082380D01*
X168785714Y-116082380D01*
%TO.C,JP7*%
X142109523Y-116177619D02*
X142157142Y-116130000D01*
X142252380Y-116082380D01*
X142490476Y-116082380D01*
X142585714Y-116130000D01*
X142633333Y-116177619D01*
X142680952Y-116272857D01*
X142680952Y-116368095D01*
X142633333Y-116510952D01*
X142061904Y-117082380D01*
X142680952Y-117082380D01*
X143538095Y-116415714D02*
X143538095Y-117082380D01*
X143300000Y-116034761D02*
X143061904Y-116749047D01*
X143680952Y-116749047D01*
X143919047Y-116082380D02*
X144252380Y-117082380D01*
X144585714Y-116082380D01*
%TO.C,U2*%
X129638095Y-86052380D02*
X129638095Y-86861904D01*
X129685714Y-86957142D01*
X129733333Y-87004761D01*
X129828571Y-87052380D01*
X130019047Y-87052380D01*
X130114285Y-87004761D01*
X130161904Y-86957142D01*
X130209523Y-86861904D01*
X130209523Y-86052380D01*
X130638095Y-86147619D02*
X130685714Y-86100000D01*
X130780952Y-86052380D01*
X131019047Y-86052380D01*
X131114285Y-86100000D01*
X131161904Y-86147619D01*
X131209523Y-86242857D01*
X131209523Y-86338095D01*
X131161904Y-86480952D01*
X130590476Y-87052380D01*
X131209523Y-87052380D01*
%TO.C,JP5*%
X124880952Y-117077380D02*
X124309523Y-117077380D01*
X124595238Y-117077380D02*
X124595238Y-116077380D01*
X124500000Y-116220238D01*
X124404761Y-116315476D01*
X124309523Y-116363095D01*
X125261904Y-116172619D02*
X125309523Y-116125000D01*
X125404761Y-116077380D01*
X125642857Y-116077380D01*
X125738095Y-116125000D01*
X125785714Y-116172619D01*
X125833333Y-116267857D01*
X125833333Y-116363095D01*
X125785714Y-116505952D01*
X125214285Y-117077380D01*
X125833333Y-117077380D01*
X126119047Y-116077380D02*
X126452380Y-117077380D01*
X126785714Y-116077380D01*
%TO.C,K1*%
X201660852Y-128653025D02*
X201660852Y-127651600D01*
X202233095Y-128653025D02*
X201803913Y-128080782D01*
X202233095Y-127651600D02*
X201660852Y-128223843D01*
X203186833Y-128653025D02*
X202614591Y-128653025D01*
X202900712Y-128653025D02*
X202900712Y-127651600D01*
X202805338Y-127794661D01*
X202709964Y-127890035D01*
X202614591Y-127937722D01*
X184317549Y-128298472D02*
X184222020Y-128250707D01*
X184078726Y-128250707D01*
X183935432Y-128298472D01*
X183839903Y-128394001D01*
X183792139Y-128489530D01*
X183744374Y-128680588D01*
X183744374Y-128823882D01*
X183792139Y-129014940D01*
X183839903Y-129110469D01*
X183935432Y-129205998D01*
X184078726Y-129253762D01*
X184174255Y-129253762D01*
X184317549Y-129205998D01*
X184365313Y-129158233D01*
X184365313Y-128823882D01*
X184174255Y-128823882D01*
X184699665Y-128250707D02*
X185320604Y-128250707D01*
X184986252Y-128632824D01*
X185129546Y-128632824D01*
X185225075Y-128680588D01*
X185272839Y-128728353D01*
X185320604Y-128823882D01*
X185320604Y-129062704D01*
X185272839Y-129158233D01*
X185225075Y-129205998D01*
X185129546Y-129253762D01*
X184842958Y-129253762D01*
X184747429Y-129205998D01*
X184699665Y-129158233D01*
X185750484Y-129253762D02*
X185750484Y-128250707D01*
X186084836Y-128967175D01*
X186419188Y-128250707D01*
X186419188Y-129253762D01*
X187231185Y-128728353D02*
X187374478Y-128776117D01*
X187422243Y-128823882D01*
X187470007Y-128919411D01*
X187470007Y-129062704D01*
X187422243Y-129158233D01*
X187374478Y-129205998D01*
X187278949Y-129253762D01*
X186896833Y-129253762D01*
X186896833Y-128250707D01*
X187231185Y-128250707D01*
X187326714Y-128298472D01*
X187374478Y-128346237D01*
X187422243Y-128441766D01*
X187422243Y-128537295D01*
X187374478Y-128632824D01*
X187326714Y-128680588D01*
X187231185Y-128728353D01*
X186896833Y-128728353D01*
X187852123Y-128346237D02*
X187899888Y-128298472D01*
X187995417Y-128250707D01*
X188234240Y-128250707D01*
X188329769Y-128298472D01*
X188377533Y-128346237D01*
X188425298Y-128441766D01*
X188425298Y-128537295D01*
X188377533Y-128680588D01*
X187804359Y-129253762D01*
X188425298Y-129253762D01*
X189046237Y-128250707D02*
X189141766Y-128250707D01*
X189237295Y-128298472D01*
X189285059Y-128346237D01*
X189332824Y-128441766D01*
X189380588Y-128632824D01*
X189380588Y-128871646D01*
X189332824Y-129062704D01*
X189285059Y-129158233D01*
X189237295Y-129205998D01*
X189141766Y-129253762D01*
X189046237Y-129253762D01*
X188950707Y-129205998D01*
X188902943Y-129158233D01*
X188855178Y-129062704D01*
X188807414Y-128871646D01*
X188807414Y-128632824D01*
X188855178Y-128441766D01*
X188902943Y-128346237D01*
X188950707Y-128298472D01*
X189046237Y-128250707D01*
X189762704Y-128346237D02*
X189810469Y-128298472D01*
X189905998Y-128250707D01*
X190144821Y-128250707D01*
X190240350Y-128298472D01*
X190288114Y-128346237D01*
X190335879Y-128441766D01*
X190335879Y-128537295D01*
X190288114Y-128680588D01*
X189714940Y-129253762D01*
X190335879Y-129253762D01*
X190765759Y-129253762D02*
X190765759Y-128250707D01*
X191147876Y-128250707D01*
X191243405Y-128298472D01*
X191291169Y-128346237D01*
X191338934Y-128441766D01*
X191338934Y-128585059D01*
X191291169Y-128680588D01*
X191243405Y-128728353D01*
X191147876Y-128776117D01*
X190765759Y-128776117D01*
X191768814Y-129253762D02*
X191768814Y-128250707D01*
X192007637Y-128250707D01*
X192150931Y-128298472D01*
X192246460Y-128394001D01*
X192294224Y-128489530D01*
X192341989Y-128680588D01*
X192341989Y-128823882D01*
X192294224Y-129014940D01*
X192246460Y-129110469D01*
X192150931Y-129205998D01*
X192007637Y-129253762D01*
X191768814Y-129253762D01*
X193345044Y-129158233D02*
X193297279Y-129205998D01*
X193153986Y-129253762D01*
X193058457Y-129253762D01*
X192915163Y-129205998D01*
X192819634Y-129110469D01*
X192771869Y-129014940D01*
X192724105Y-128823882D01*
X192724105Y-128680588D01*
X192771869Y-128489530D01*
X192819634Y-128394001D01*
X192915163Y-128298472D01*
X193058457Y-128250707D01*
X193153986Y-128250707D01*
X193297279Y-128298472D01*
X193345044Y-128346237D01*
X194300334Y-129253762D02*
X193727160Y-129253762D01*
X194013747Y-129253762D02*
X194013747Y-128250707D01*
X193918218Y-128394001D01*
X193822689Y-128489530D01*
X193727160Y-128537295D01*
X194682450Y-128346237D02*
X194730215Y-128298472D01*
X194825744Y-128250707D01*
X195064567Y-128250707D01*
X195160096Y-128298472D01*
X195207860Y-128346237D01*
X195255625Y-128441766D01*
X195255625Y-128537295D01*
X195207860Y-128680588D01*
X194634686Y-129253762D01*
X195255625Y-129253762D01*
%TO.C,U3*%
X188238095Y-114452380D02*
X188238095Y-115261904D01*
X188285714Y-115357142D01*
X188333333Y-115404761D01*
X188428571Y-115452380D01*
X188619047Y-115452380D01*
X188714285Y-115404761D01*
X188761904Y-115357142D01*
X188809523Y-115261904D01*
X188809523Y-114452380D01*
X189190476Y-114452380D02*
X189809523Y-114452380D01*
X189476190Y-114833333D01*
X189619047Y-114833333D01*
X189714285Y-114880952D01*
X189761904Y-114928571D01*
X189809523Y-115023809D01*
X189809523Y-115261904D01*
X189761904Y-115357142D01*
X189714285Y-115404761D01*
X189619047Y-115452380D01*
X189333333Y-115452380D01*
X189238095Y-115404761D01*
X189190476Y-115357142D01*
X183261904Y-118052380D02*
X183261904Y-117052380D01*
X183595238Y-117766666D01*
X183928571Y-117052380D01*
X183928571Y-118052380D01*
X184404761Y-118052380D02*
X184404761Y-117052380D01*
X184785714Y-117052380D01*
X184880952Y-117100000D01*
X184928571Y-117147619D01*
X184976190Y-117242857D01*
X184976190Y-117385714D01*
X184928571Y-117480952D01*
X184880952Y-117528571D01*
X184785714Y-117576190D01*
X184404761Y-117576190D01*
X185928571Y-118052380D02*
X185357142Y-118052380D01*
X185642857Y-118052380D02*
X185642857Y-117052380D01*
X185547619Y-117195238D01*
X185452380Y-117290476D01*
X185357142Y-117338095D01*
X186833333Y-117052380D02*
X186357142Y-117052380D01*
X186309523Y-117528571D01*
X186357142Y-117480952D01*
X186452380Y-117433333D01*
X186690476Y-117433333D01*
X186785714Y-117480952D01*
X186833333Y-117528571D01*
X186880952Y-117623809D01*
X186880952Y-117861904D01*
X186833333Y-117957142D01*
X186785714Y-118004761D01*
X186690476Y-118052380D01*
X186452380Y-118052380D01*
X186357142Y-118004761D01*
X186309523Y-117957142D01*
X187452380Y-117480952D02*
X187357142Y-117433333D01*
X187309523Y-117385714D01*
X187261904Y-117290476D01*
X187261904Y-117242857D01*
X187309523Y-117147619D01*
X187357142Y-117100000D01*
X187452380Y-117052380D01*
X187642857Y-117052380D01*
X187738095Y-117100000D01*
X187785714Y-117147619D01*
X187833333Y-117242857D01*
X187833333Y-117290476D01*
X187785714Y-117385714D01*
X187738095Y-117433333D01*
X187642857Y-117480952D01*
X187452380Y-117480952D01*
X187357142Y-117528571D01*
X187309523Y-117576190D01*
X187261904Y-117671428D01*
X187261904Y-117861904D01*
X187309523Y-117957142D01*
X187357142Y-118004761D01*
X187452380Y-118052380D01*
X187642857Y-118052380D01*
X187738095Y-118004761D01*
X187785714Y-117957142D01*
X187833333Y-117861904D01*
X187833333Y-117671428D01*
X187785714Y-117576190D01*
X187738095Y-117528571D01*
X187642857Y-117480952D01*
X188690476Y-117385714D02*
X188690476Y-118052380D01*
X188452380Y-117004761D02*
X188214285Y-117719047D01*
X188833333Y-117719047D01*
X188976190Y-118147619D02*
X189738095Y-118147619D01*
X189976190Y-118052380D02*
X189976190Y-117052380D01*
X190309523Y-117766666D01*
X190642857Y-117052380D01*
X190642857Y-118052380D01*
X191261904Y-118052380D02*
X191166666Y-118004761D01*
X191119047Y-117957142D01*
X191071428Y-117861904D01*
X191071428Y-117576190D01*
X191119047Y-117480952D01*
X191166666Y-117433333D01*
X191261904Y-117385714D01*
X191404761Y-117385714D01*
X191500000Y-117433333D01*
X191547619Y-117480952D01*
X191595238Y-117576190D01*
X191595238Y-117861904D01*
X191547619Y-117957142D01*
X191500000Y-118004761D01*
X191404761Y-118052380D01*
X191261904Y-118052380D01*
X192452380Y-118052380D02*
X192452380Y-117052380D01*
X192452380Y-118004761D02*
X192357142Y-118052380D01*
X192166666Y-118052380D01*
X192071428Y-118004761D01*
X192023809Y-117957142D01*
X191976190Y-117861904D01*
X191976190Y-117576190D01*
X192023809Y-117480952D01*
X192071428Y-117433333D01*
X192166666Y-117385714D01*
X192357142Y-117385714D01*
X192452380Y-117433333D01*
X193357142Y-117385714D02*
X193357142Y-118052380D01*
X192928571Y-117385714D02*
X192928571Y-117909523D01*
X192976190Y-118004761D01*
X193071428Y-118052380D01*
X193214285Y-118052380D01*
X193309523Y-118004761D01*
X193357142Y-117957142D01*
X193976190Y-118052380D02*
X193880952Y-118004761D01*
X193833333Y-117909523D01*
X193833333Y-117052380D01*
X194738095Y-118004761D02*
X194642857Y-118052380D01*
X194452380Y-118052380D01*
X194357142Y-118004761D01*
X194309523Y-117909523D01*
X194309523Y-117528571D01*
X194357142Y-117433333D01*
X194452380Y-117385714D01*
X194642857Y-117385714D01*
X194738095Y-117433333D01*
X194785714Y-117528571D01*
X194785714Y-117623809D01*
X194309523Y-117719047D01*
%TO.C,R6*%
X122620001Y-99452380D02*
X122286668Y-98976190D01*
X122048572Y-99452380D02*
X122048572Y-98452380D01*
X122429525Y-98452380D01*
X122524763Y-98500000D01*
X122572382Y-98547619D01*
X122620001Y-98642857D01*
X122620001Y-98785714D01*
X122572382Y-98880952D01*
X122524763Y-98928571D01*
X122429525Y-98976190D01*
X122048572Y-98976190D01*
X123477144Y-98452380D02*
X123286668Y-98452380D01*
X123191429Y-98500000D01*
X123143810Y-98547619D01*
X123048572Y-98690476D01*
X123000953Y-98880952D01*
X123000953Y-99261904D01*
X123048572Y-99357142D01*
X123096191Y-99404761D01*
X123191429Y-99452380D01*
X123381906Y-99452380D01*
X123477144Y-99404761D01*
X123524763Y-99357142D01*
X123572382Y-99261904D01*
X123572382Y-99023809D01*
X123524763Y-98928571D01*
X123477144Y-98880952D01*
X123381906Y-98833333D01*
X123191429Y-98833333D01*
X123096191Y-98880952D01*
X123048572Y-98928571D01*
X123000953Y-99023809D01*
%TO.C,JP10*%
X156409523Y-116055119D02*
X156457142Y-116007500D01*
X156552380Y-115959880D01*
X156790476Y-115959880D01*
X156885714Y-116007500D01*
X156933333Y-116055119D01*
X156980952Y-116150357D01*
X156980952Y-116245595D01*
X156933333Y-116388452D01*
X156361904Y-116959880D01*
X156980952Y-116959880D01*
X157838095Y-116293214D02*
X157838095Y-116959880D01*
X157600000Y-115912261D02*
X157361904Y-116626547D01*
X157980952Y-116626547D01*
X158219047Y-115959880D02*
X158552380Y-116959880D01*
X158885714Y-115959880D01*
%TO.C,J2*%
X153166666Y-124877380D02*
X153166666Y-125591666D01*
X153119047Y-125734523D01*
X153023809Y-125829761D01*
X152880952Y-125877380D01*
X152785714Y-125877380D01*
X153595238Y-124972619D02*
X153642857Y-124925000D01*
X153738095Y-124877380D01*
X153976190Y-124877380D01*
X154071428Y-124925000D01*
X154119047Y-124972619D01*
X154166666Y-125067857D01*
X154166666Y-125163095D01*
X154119047Y-125305952D01*
X153547619Y-125877380D01*
X154166666Y-125877380D01*
X149352380Y-134154761D02*
X149538095Y-134202380D01*
X149847619Y-134202380D01*
X149971428Y-134154761D01*
X150033333Y-134107142D01*
X150095238Y-134011904D01*
X150095238Y-133916666D01*
X150033333Y-133821428D01*
X149971428Y-133773809D01*
X149847619Y-133726190D01*
X149600000Y-133678571D01*
X149476190Y-133630952D01*
X149414285Y-133583333D01*
X149352380Y-133488095D01*
X149352380Y-133392857D01*
X149414285Y-133297619D01*
X149476190Y-133250000D01*
X149600000Y-133202380D01*
X149909523Y-133202380D01*
X150095238Y-133250000D01*
X151147619Y-134154761D02*
X151023809Y-134202380D01*
X150776190Y-134202380D01*
X150652380Y-134154761D01*
X150590476Y-134059523D01*
X150590476Y-133678571D01*
X150652380Y-133583333D01*
X150776190Y-133535714D01*
X151023809Y-133535714D01*
X151147619Y-133583333D01*
X151209523Y-133678571D01*
X151209523Y-133773809D01*
X150590476Y-133869047D01*
X151766666Y-133535714D02*
X151766666Y-134202380D01*
X151766666Y-133630952D02*
X151828571Y-133583333D01*
X151952380Y-133535714D01*
X152138095Y-133535714D01*
X152261904Y-133583333D01*
X152323809Y-133678571D01*
X152323809Y-134202380D01*
X152880952Y-134154761D02*
X153004761Y-134202380D01*
X153252380Y-134202380D01*
X153376190Y-134154761D01*
X153438095Y-134059523D01*
X153438095Y-134011904D01*
X153376190Y-133916666D01*
X153252380Y-133869047D01*
X153066666Y-133869047D01*
X152942857Y-133821428D01*
X152880952Y-133726190D01*
X152880952Y-133678571D01*
X152942857Y-133583333D01*
X153066666Y-133535714D01*
X153252380Y-133535714D01*
X153376190Y-133583333D01*
X154180952Y-134202380D02*
X154057142Y-134154761D01*
X153995238Y-134107142D01*
X153933333Y-134011904D01*
X153933333Y-133726190D01*
X153995238Y-133630952D01*
X154057142Y-133583333D01*
X154180952Y-133535714D01*
X154366666Y-133535714D01*
X154490476Y-133583333D01*
X154552380Y-133630952D01*
X154614285Y-133726190D01*
X154614285Y-134011904D01*
X154552380Y-134107142D01*
X154490476Y-134154761D01*
X154366666Y-134202380D01*
X154180952Y-134202380D01*
X155171428Y-134202380D02*
X155171428Y-133535714D01*
X155171428Y-133726190D02*
X155233333Y-133630952D01*
X155295238Y-133583333D01*
X155419047Y-133535714D01*
X155542857Y-133535714D01*
X156904761Y-133297619D02*
X156966666Y-133250000D01*
X157090476Y-133202380D01*
X157400000Y-133202380D01*
X157523809Y-133250000D01*
X157585714Y-133297619D01*
X157647619Y-133392857D01*
X157647619Y-133488095D01*
X157585714Y-133630952D01*
X156842857Y-134202380D01*
X157647619Y-134202380D01*
%TO.C,JP12*%
X149409523Y-115959880D02*
X148933333Y-115959880D01*
X148885714Y-116436071D01*
X148933333Y-116388452D01*
X149028571Y-116340833D01*
X149266666Y-116340833D01*
X149361904Y-116388452D01*
X149409523Y-116436071D01*
X149457142Y-116531309D01*
X149457142Y-116769404D01*
X149409523Y-116864642D01*
X149361904Y-116912261D01*
X149266666Y-116959880D01*
X149028571Y-116959880D01*
X148933333Y-116912261D01*
X148885714Y-116864642D01*
X149742857Y-115959880D02*
X150076190Y-116959880D01*
X150409523Y-115959880D01*
%TO.C,JP6*%
X121559523Y-116077380D02*
X121083333Y-116077380D01*
X121035714Y-116553571D01*
X121083333Y-116505952D01*
X121178571Y-116458333D01*
X121416666Y-116458333D01*
X121511904Y-116505952D01*
X121559523Y-116553571D01*
X121607142Y-116648809D01*
X121607142Y-116886904D01*
X121559523Y-116982142D01*
X121511904Y-117029761D01*
X121416666Y-117077380D01*
X121178571Y-117077380D01*
X121083333Y-117029761D01*
X121035714Y-116982142D01*
X121892857Y-116077380D02*
X122226190Y-117077380D01*
X122559523Y-116077380D01*
%TO.C,J1*%
X172166666Y-124852380D02*
X172166666Y-125566666D01*
X172119047Y-125709523D01*
X172023809Y-125804761D01*
X171880952Y-125852380D01*
X171785714Y-125852380D01*
X173166666Y-125852380D02*
X172595238Y-125852380D01*
X172880952Y-125852380D02*
X172880952Y-124852380D01*
X172785714Y-124995238D01*
X172690476Y-125090476D01*
X172595238Y-125138095D01*
X163671428Y-134154761D02*
X163842857Y-134202380D01*
X164128571Y-134202380D01*
X164242857Y-134154761D01*
X164300000Y-134107142D01*
X164357142Y-134011904D01*
X164357142Y-133916666D01*
X164300000Y-133821428D01*
X164242857Y-133773809D01*
X164128571Y-133726190D01*
X163900000Y-133678571D01*
X163785714Y-133630952D01*
X163728571Y-133583333D01*
X163671428Y-133488095D01*
X163671428Y-133392857D01*
X163728571Y-133297619D01*
X163785714Y-133250000D01*
X163900000Y-133202380D01*
X164185714Y-133202380D01*
X164357142Y-133250000D01*
X165328571Y-134154761D02*
X165214285Y-134202380D01*
X164985714Y-134202380D01*
X164871428Y-134154761D01*
X164814285Y-134059523D01*
X164814285Y-133678571D01*
X164871428Y-133583333D01*
X164985714Y-133535714D01*
X165214285Y-133535714D01*
X165328571Y-133583333D01*
X165385714Y-133678571D01*
X165385714Y-133773809D01*
X164814285Y-133869047D01*
X165900000Y-133535714D02*
X165900000Y-134202380D01*
X165900000Y-133630952D02*
X165957142Y-133583333D01*
X166071428Y-133535714D01*
X166242857Y-133535714D01*
X166357142Y-133583333D01*
X166414285Y-133678571D01*
X166414285Y-134202380D01*
X166928571Y-134154761D02*
X167042857Y-134202380D01*
X167271428Y-134202380D01*
X167385714Y-134154761D01*
X167442857Y-134059523D01*
X167442857Y-134011904D01*
X167385714Y-133916666D01*
X167271428Y-133869047D01*
X167100000Y-133869047D01*
X166985714Y-133821428D01*
X166928571Y-133726190D01*
X166928571Y-133678571D01*
X166985714Y-133583333D01*
X167100000Y-133535714D01*
X167271428Y-133535714D01*
X167385714Y-133583333D01*
X168128571Y-134202380D02*
X168014285Y-134154761D01*
X167957142Y-134107142D01*
X167900000Y-134011904D01*
X167900000Y-133726190D01*
X167957142Y-133630952D01*
X168014285Y-133583333D01*
X168128571Y-133535714D01*
X168300000Y-133535714D01*
X168414285Y-133583333D01*
X168471428Y-133630952D01*
X168528571Y-133726190D01*
X168528571Y-134011904D01*
X168471428Y-134107142D01*
X168414285Y-134154761D01*
X168300000Y-134202380D01*
X168128571Y-134202380D01*
X169042857Y-134202380D02*
X169042857Y-133535714D01*
X169042857Y-133726190D02*
X169100000Y-133630952D01*
X169157142Y-133583333D01*
X169271428Y-133535714D01*
X169385714Y-133535714D01*
X171328571Y-134202380D02*
X170642857Y-134202380D01*
X170985714Y-134202380D02*
X170985714Y-133202380D01*
X170871428Y-133345238D01*
X170757142Y-133440476D01*
X170642857Y-133488095D01*
%TO.C,JP3*%
X163559523Y-116082380D02*
X163083333Y-116082380D01*
X163035714Y-116558571D01*
X163083333Y-116510952D01*
X163178571Y-116463333D01*
X163416666Y-116463333D01*
X163511904Y-116510952D01*
X163559523Y-116558571D01*
X163607142Y-116653809D01*
X163607142Y-116891904D01*
X163559523Y-116987142D01*
X163511904Y-117034761D01*
X163416666Y-117082380D01*
X163178571Y-117082380D01*
X163083333Y-117034761D01*
X163035714Y-116987142D01*
X163892857Y-116082380D02*
X164226190Y-117082380D01*
X164559523Y-116082380D01*
%TO.C,C2*%
X203357142Y-110566666D02*
X203404761Y-110614285D01*
X203452380Y-110757142D01*
X203452380Y-110852380D01*
X203404761Y-110995238D01*
X203309523Y-111090476D01*
X203214285Y-111138095D01*
X203023809Y-111185714D01*
X202880952Y-111185714D01*
X202690476Y-111138095D01*
X202595238Y-111090476D01*
X202500000Y-110995238D01*
X202452380Y-110852380D01*
X202452380Y-110757142D01*
X202500000Y-110614285D01*
X202547619Y-110566666D01*
X202547619Y-110185714D02*
X202500000Y-110138095D01*
X202452380Y-110042857D01*
X202452380Y-109804761D01*
X202500000Y-109709523D01*
X202547619Y-109661904D01*
X202642857Y-109614285D01*
X202738095Y-109614285D01*
X202880952Y-109661904D01*
X203452380Y-110233333D01*
X203452380Y-109614285D01*
%TO.C,R3*%
X143433333Y-81052380D02*
X143100000Y-80576190D01*
X142861904Y-81052380D02*
X142861904Y-80052380D01*
X143242857Y-80052380D01*
X143338095Y-80100000D01*
X143385714Y-80147619D01*
X143433333Y-80242857D01*
X143433333Y-80385714D01*
X143385714Y-80480952D01*
X143338095Y-80528571D01*
X143242857Y-80576190D01*
X142861904Y-80576190D01*
X143766666Y-80052380D02*
X144385714Y-80052380D01*
X144052380Y-80433333D01*
X144195238Y-80433333D01*
X144290476Y-80480952D01*
X144338095Y-80528571D01*
X144385714Y-80623809D01*
X144385714Y-80861904D01*
X144338095Y-80957142D01*
X144290476Y-81004761D01*
X144195238Y-81052380D01*
X143909523Y-81052380D01*
X143814285Y-81004761D01*
X143766666Y-80957142D01*
%TO.C,BZ1*%
X163719047Y-81728571D02*
X163861904Y-81776190D01*
X163909523Y-81823809D01*
X163957142Y-81919047D01*
X163957142Y-82061904D01*
X163909523Y-82157142D01*
X163861904Y-82204761D01*
X163766666Y-82252380D01*
X163385714Y-82252380D01*
X163385714Y-81252380D01*
X163719047Y-81252380D01*
X163814285Y-81300000D01*
X163861904Y-81347619D01*
X163909523Y-81442857D01*
X163909523Y-81538095D01*
X163861904Y-81633333D01*
X163814285Y-81680952D01*
X163719047Y-81728571D01*
X163385714Y-81728571D01*
X164290476Y-81252380D02*
X164957142Y-81252380D01*
X164290476Y-82252380D01*
X164957142Y-82252380D01*
X165861904Y-82252380D02*
X165290476Y-82252380D01*
X165576190Y-82252380D02*
X165576190Y-81252380D01*
X165480952Y-81395238D01*
X165385714Y-81490476D01*
X165290476Y-81538095D01*
X166009047Y-84931428D02*
X166770952Y-84931428D01*
X166390000Y-85312380D02*
X166390000Y-84550476D01*
%TO.C,Q2*%
X159704761Y-88347619D02*
X159609523Y-88300000D01*
X159514285Y-88204761D01*
X159371428Y-88061904D01*
X159276190Y-88014285D01*
X159180952Y-88014285D01*
X159228571Y-88252380D02*
X159133333Y-88204761D01*
X159038095Y-88109523D01*
X158990476Y-87919047D01*
X158990476Y-87585714D01*
X159038095Y-87395238D01*
X159133333Y-87300000D01*
X159228571Y-87252380D01*
X159419047Y-87252380D01*
X159514285Y-87300000D01*
X159609523Y-87395238D01*
X159657142Y-87585714D01*
X159657142Y-87919047D01*
X159609523Y-88109523D01*
X159514285Y-88204761D01*
X159419047Y-88252380D01*
X159228571Y-88252380D01*
X160038095Y-87347619D02*
X160085714Y-87300000D01*
X160180952Y-87252380D01*
X160419047Y-87252380D01*
X160514285Y-87300000D01*
X160561904Y-87347619D01*
X160609523Y-87442857D01*
X160609523Y-87538095D01*
X160561904Y-87680952D01*
X159990476Y-88252380D01*
X160609523Y-88252380D01*
D11*
%TO.C,U4*%
X200000000Y-107000000D02*
X178000000Y-107000000D01*
X178000000Y-107000000D02*
X178000000Y-90000000D01*
X178000000Y-90000000D02*
X200000000Y-90000000D01*
X200000000Y-90000000D02*
X200000000Y-107000000D01*
%TO.C,R2*%
X152030000Y-90870000D02*
X154770000Y-90870000D01*
X152030000Y-84330000D02*
X152030000Y-90870000D01*
X153400000Y-83560000D02*
X153400000Y-84330000D01*
X154770000Y-84330000D02*
X152030000Y-84330000D01*
X153400000Y-91640000D02*
X153400000Y-90870000D01*
X154770000Y-90870000D02*
X154770000Y-84330000D01*
%TO.C,C1*%
X208035888Y-79982000D02*
X208035888Y-81210000D01*
X208835888Y-80645000D02*
X208835888Y-81210000D01*
X209235888Y-81335000D02*
X209235888Y-83165000D01*
X209315888Y-81573000D02*
X209315888Y-82927000D01*
X208555888Y-83290000D02*
X208555888Y-84151000D01*
X207274888Y-79714000D02*
X207274888Y-81210000D01*
X208395888Y-80215000D02*
X208395888Y-81210000D01*
X207394888Y-79739000D02*
X207394888Y-81210000D01*
X207715888Y-79836000D02*
X207715888Y-81210000D01*
X208155888Y-80050000D02*
X208155888Y-81210000D01*
X208355888Y-83290000D02*
X208355888Y-84315000D01*
X208995888Y-80867000D02*
X208995888Y-81210000D01*
X208635888Y-83290000D02*
X208635888Y-84076000D01*
X207955888Y-79940000D02*
X207955888Y-81210000D01*
X207795888Y-79868000D02*
X207795888Y-81210000D01*
X207675888Y-83290000D02*
X207675888Y-84678000D01*
X207234888Y-79707000D02*
X207234888Y-81210000D01*
X208475888Y-80279000D02*
X208475888Y-81210000D01*
X208555888Y-80349000D02*
X208555888Y-81210000D01*
X208875888Y-83290000D02*
X208875888Y-83804000D01*
X208915888Y-83290000D02*
X208915888Y-83750000D01*
X208675888Y-80465000D02*
X208675888Y-81210000D01*
X206954888Y-79674000D02*
X206954888Y-84826000D01*
X208275888Y-80128000D02*
X208275888Y-81210000D01*
X208635888Y-80424000D02*
X208635888Y-81210000D01*
X208835888Y-83290000D02*
X208835888Y-83855000D01*
X208475888Y-83290000D02*
X208475888Y-84221000D01*
X207755888Y-79852000D02*
X207755888Y-81210000D01*
X207995888Y-79960000D02*
X207995888Y-81210000D01*
X208435888Y-83290000D02*
X208435888Y-84254000D01*
X208275888Y-83290000D02*
X208275888Y-84372000D01*
X209355888Y-81732000D02*
X209355888Y-82768000D01*
X209075888Y-83290000D02*
X209075888Y-83501000D01*
X207074888Y-83290000D02*
X207074888Y-84815000D01*
X209035888Y-83290000D02*
X209035888Y-83569000D01*
X208195888Y-80075000D02*
X208195888Y-81210000D01*
X207995888Y-83290000D02*
X207995888Y-84540000D01*
X208715888Y-80507000D02*
X208715888Y-81210000D01*
X208755888Y-80551000D02*
X208755888Y-81210000D01*
X208795888Y-83290000D02*
X208795888Y-83903000D01*
X207194888Y-79700000D02*
X207194888Y-81210000D01*
X209075888Y-80999000D02*
X209075888Y-81210000D01*
X207915888Y-83290000D02*
X207915888Y-84579000D01*
X208515888Y-83290000D02*
X208515888Y-84187000D01*
X207595888Y-83290000D02*
X207595888Y-84705000D01*
X208075888Y-83290000D02*
X208075888Y-84497000D01*
X207675888Y-79822000D02*
X207675888Y-81210000D01*
X207955888Y-83290000D02*
X207955888Y-84560000D01*
X208675888Y-83290000D02*
X208675888Y-84035000D01*
X207795888Y-83290000D02*
X207795888Y-84632000D01*
X208355888Y-80185000D02*
X208355888Y-81210000D01*
X207835888Y-79885000D02*
X207835888Y-81210000D01*
X207875888Y-79902000D02*
X207875888Y-81210000D01*
X208315888Y-80155000D02*
X208315888Y-81210000D01*
X209395888Y-81966000D02*
X209395888Y-82534000D01*
X208195888Y-83290000D02*
X208195888Y-84425000D01*
X208075888Y-80003000D02*
X208075888Y-81210000D01*
X208995888Y-83290000D02*
X208995888Y-83633000D01*
X207715888Y-83290000D02*
X207715888Y-84664000D01*
X206794888Y-79670000D02*
X206794888Y-84830000D01*
X207034888Y-79681000D02*
X207034888Y-81210000D01*
X207474888Y-79759000D02*
X207474888Y-81210000D01*
X208155888Y-83290000D02*
X208155888Y-84450000D01*
X207154888Y-83290000D02*
X207154888Y-84806000D01*
X207515888Y-83290000D02*
X207515888Y-84730000D01*
X208115888Y-80026000D02*
X208115888Y-81210000D01*
X207835888Y-83290000D02*
X207835888Y-84615000D01*
X207074888Y-79685000D02*
X207074888Y-81210000D01*
X208795888Y-80597000D02*
X208795888Y-81210000D01*
X208115888Y-83290000D02*
X208115888Y-84474000D01*
X208315888Y-83290000D02*
X208315888Y-84345000D01*
X209035888Y-80931000D02*
X209035888Y-81210000D01*
X207394888Y-83290000D02*
X207394888Y-84761000D01*
X207154888Y-79694000D02*
X207154888Y-81210000D01*
X207354888Y-83290000D02*
X207354888Y-84770000D01*
X208915888Y-80750000D02*
X208915888Y-81210000D01*
X207114888Y-83290000D02*
X207114888Y-84811000D01*
X208515888Y-80313000D02*
X208515888Y-81210000D01*
X208955888Y-80807000D02*
X208955888Y-81210000D01*
X207635888Y-79808000D02*
X207635888Y-81210000D01*
X206994888Y-79677000D02*
X206994888Y-84823000D01*
X208235888Y-83290000D02*
X208235888Y-84399000D01*
X204240113Y-80525000D02*
X204240113Y-81025000D01*
X208955888Y-83290000D02*
X208955888Y-83693000D01*
X207234888Y-83290000D02*
X207234888Y-84793000D01*
X207274888Y-83290000D02*
X207274888Y-84786000D01*
X207635888Y-83290000D02*
X207635888Y-84692000D01*
X207354888Y-79730000D02*
X207354888Y-81210000D01*
X206874888Y-79671000D02*
X206874888Y-84829000D01*
X207555888Y-83290000D02*
X207555888Y-84718000D01*
X207555888Y-79782000D02*
X207555888Y-81210000D01*
X208755888Y-83290000D02*
X208755888Y-83949000D01*
X209155888Y-81152000D02*
X209155888Y-83348000D01*
X207474888Y-83290000D02*
X207474888Y-84741000D01*
X208595888Y-83290000D02*
X208595888Y-84114000D01*
X208875888Y-80696000D02*
X208875888Y-81210000D01*
X209115888Y-81072000D02*
X209115888Y-83428000D01*
X208715888Y-83290000D02*
X208715888Y-83993000D01*
X207595888Y-79795000D02*
X207595888Y-81210000D01*
X207314888Y-79722000D02*
X207314888Y-81210000D01*
X207755888Y-83290000D02*
X207755888Y-84648000D01*
X207194888Y-83290000D02*
X207194888Y-84800000D01*
X203990113Y-80775000D02*
X204490113Y-80775000D01*
X207034888Y-83290000D02*
X207034888Y-84819000D01*
X206834888Y-79670000D02*
X206834888Y-84830000D01*
X208435888Y-80246000D02*
X208435888Y-81210000D01*
X206914888Y-79672000D02*
X206914888Y-84828000D01*
X208035888Y-83290000D02*
X208035888Y-84518000D01*
X207915888Y-79921000D02*
X207915888Y-81210000D01*
X208235888Y-80101000D02*
X208235888Y-81210000D01*
X207434888Y-79749000D02*
X207434888Y-81210000D01*
X209275888Y-81445000D02*
X209275888Y-83055000D01*
X208395888Y-83290000D02*
X208395888Y-84285000D01*
X207434888Y-83290000D02*
X207434888Y-84751000D01*
X208595888Y-80386000D02*
X208595888Y-81210000D01*
X207114888Y-79689000D02*
X207114888Y-81210000D01*
X207515888Y-79770000D02*
X207515888Y-81210000D01*
X207875888Y-83290000D02*
X207875888Y-84598000D01*
X207314888Y-83290000D02*
X207314888Y-84778000D01*
X209195888Y-81239000D02*
X209195888Y-83261000D01*
X209414888Y-82250000D02*
G75*
G03*
X209414888Y-82250000I-2620000J0D01*
G01*
%TO.C,JP9*%
X137030000Y-120230000D02*
X134370000Y-120230000D01*
X137030000Y-122830000D02*
X135700000Y-122830000D01*
X134370000Y-120230000D02*
X134370000Y-117630000D01*
X137030000Y-117630000D02*
X134370000Y-117630000D01*
X137030000Y-121500000D02*
X137030000Y-122830000D01*
X137030000Y-120230000D02*
X137030000Y-117630000D01*
%TO.C,SW2*%
X119000000Y-97800000D02*
X119000000Y-93300000D01*
X112500000Y-93300000D02*
X112500000Y-97800000D01*
X116500000Y-92050000D02*
X115000000Y-92050000D01*
X115000000Y-99050000D02*
X116500000Y-99050000D01*
%TO.C,R7*%
X164866668Y-96800000D02*
X165636668Y-96800000D01*
X172176668Y-98170000D02*
X172176668Y-95430000D01*
X172946668Y-96800000D02*
X172176668Y-96800000D01*
X172176668Y-95430000D02*
X165636668Y-95430000D01*
X165636668Y-95430000D02*
X165636668Y-98170000D01*
X165636668Y-98170000D02*
X172176668Y-98170000D01*
D12*
%TO.C,J7*%
X120200000Y-76499000D02*
G75*
G03*
X120200000Y-76499000I-100000J0D01*
G01*
D11*
%TO.C,R1*%
X138223334Y-95430000D02*
X138223334Y-98170000D01*
X145533334Y-96800000D02*
X144763334Y-96800000D01*
X144763334Y-98170000D02*
X144763334Y-95430000D01*
X137453334Y-96800000D02*
X138223334Y-96800000D01*
X138223334Y-98170000D02*
X144763334Y-98170000D01*
X144763334Y-95430000D02*
X138223334Y-95430000D01*
%TO.C,U5*%
X200000000Y-89000000D02*
X178000000Y-89000000D01*
X178000000Y-89000000D02*
X178000000Y-72000000D01*
X178000000Y-72000000D02*
X200000000Y-72000000D01*
X200000000Y-72000000D02*
X200000000Y-89000000D01*
%TO.C,J6*%
X118585000Y-101840000D02*
X112615000Y-101840000D01*
X116325000Y-113700000D02*
X113375000Y-113700000D01*
X117825000Y-101850000D02*
X117825000Y-103650000D01*
X118575000Y-112650000D02*
X117825000Y-112650000D01*
X118875000Y-102800000D02*
X118875000Y-101550000D01*
X118575000Y-101850000D02*
X117825000Y-101850000D01*
X117825000Y-114450000D02*
X118575000Y-114450000D01*
X118575000Y-111150000D02*
X118575000Y-105150000D01*
X118575000Y-114450000D02*
X118575000Y-112650000D01*
X117825000Y-112650000D02*
X117825000Y-114450000D01*
X118875000Y-101550000D02*
X117625000Y-101550000D01*
X113375000Y-113700000D02*
X113375000Y-108150000D01*
X116325000Y-102600000D02*
X113375000Y-102600000D01*
X112615000Y-101840000D02*
X112615000Y-114460000D01*
X118575000Y-105150000D02*
X117825000Y-105150000D01*
X116325000Y-114450000D02*
X116325000Y-113700000D01*
X112615000Y-114460000D02*
X118585000Y-114460000D01*
X118575000Y-103650000D02*
X118575000Y-101850000D01*
X113375000Y-102600000D02*
X113375000Y-108150000D01*
X116325000Y-101850000D02*
X116325000Y-102600000D01*
X118585000Y-114460000D02*
X118585000Y-101840000D01*
X117825000Y-105150000D02*
X117825000Y-111150000D01*
X117825000Y-103650000D02*
X118575000Y-103650000D01*
X117825000Y-111150000D02*
X118575000Y-111150000D01*
%TO.C,J4*%
X121000000Y-127275000D02*
X121000000Y-126525000D01*
X131050000Y-128775000D02*
X131050000Y-131725000D01*
X119200000Y-128775000D02*
X119950000Y-128775000D01*
X119950000Y-128775000D02*
X119950000Y-131725000D01*
X131800000Y-126525000D02*
X130000000Y-126525000D01*
X119190000Y-126515000D02*
X119190000Y-132485000D01*
X131810000Y-126515000D02*
X119190000Y-126515000D01*
X130000000Y-126525000D02*
X130000000Y-127275000D01*
X131810000Y-132485000D02*
X131810000Y-126515000D01*
X119200000Y-127275000D02*
X121000000Y-127275000D01*
X118900000Y-126225000D02*
X118900000Y-127475000D01*
X119200000Y-126525000D02*
X119200000Y-127275000D01*
X119190000Y-132485000D02*
X131810000Y-132485000D01*
X128500000Y-126525000D02*
X122500000Y-126525000D01*
X130000000Y-127275000D02*
X131800000Y-127275000D01*
X120150000Y-126225000D02*
X118900000Y-126225000D01*
X119950000Y-131725000D02*
X125500000Y-131725000D01*
X131800000Y-127275000D02*
X131800000Y-126525000D01*
X131800000Y-128775000D02*
X131050000Y-128775000D01*
X122500000Y-127275000D02*
X128500000Y-127275000D01*
X128500000Y-127275000D02*
X128500000Y-126525000D01*
X131050000Y-131725000D02*
X125500000Y-131725000D01*
X122500000Y-126525000D02*
X122500000Y-127275000D01*
X121000000Y-126525000D02*
X119200000Y-126525000D01*
%TO.C,R8*%
X159240000Y-96800000D02*
X158470000Y-96800000D01*
X158470000Y-98170000D02*
X158470000Y-95430000D01*
X158470000Y-95430000D02*
X151930000Y-95430000D01*
X151930000Y-95430000D02*
X151930000Y-98170000D01*
X151160000Y-96800000D02*
X151930000Y-96800000D01*
X151930000Y-98170000D02*
X158470000Y-98170000D01*
%TO.C,J9*%
X116325000Y-117150000D02*
X113375000Y-117150000D01*
X117825000Y-116400000D02*
X117825000Y-118200000D01*
X112615000Y-124010000D02*
X118585000Y-124010000D01*
X117825000Y-122200000D02*
X117825000Y-124000000D01*
X118575000Y-122200000D02*
X117825000Y-122200000D01*
X116325000Y-124000000D02*
X116325000Y-123250000D01*
X116325000Y-116400000D02*
X116325000Y-117150000D01*
X113375000Y-117150000D02*
X113375000Y-120200000D01*
X118575000Y-124000000D02*
X118575000Y-122200000D01*
X117825000Y-120700000D02*
X118575000Y-120700000D01*
X118875000Y-116100000D02*
X117625000Y-116100000D01*
X118575000Y-120700000D02*
X118575000Y-119700000D01*
X118875000Y-117350000D02*
X118875000Y-116100000D01*
X118585000Y-124010000D02*
X118585000Y-116390000D01*
X118585000Y-116390000D02*
X112615000Y-116390000D01*
X117825000Y-119700000D02*
X117825000Y-120700000D01*
X112615000Y-116390000D02*
X112615000Y-124010000D01*
X117825000Y-118200000D02*
X118575000Y-118200000D01*
X118575000Y-116400000D02*
X117825000Y-116400000D01*
X118575000Y-118200000D02*
X118575000Y-116400000D01*
X116325000Y-123250000D02*
X113375000Y-123250000D01*
X117825000Y-124000000D02*
X118575000Y-124000000D01*
X113375000Y-123250000D02*
X113375000Y-120200000D01*
X118575000Y-119700000D02*
X117825000Y-119700000D01*
D13*
%TO.C,U1*%
X170100000Y-114800000D02*
X126000000Y-114800000D01*
X126000000Y-114800000D02*
X126000000Y-99570000D01*
X126000000Y-99570000D02*
X170100000Y-99570000D01*
X170100000Y-99570000D02*
X170100000Y-114800000D01*
D11*
%TO.C,JP11*%
X152170000Y-120342500D02*
X152170000Y-117742500D01*
X154830000Y-122942500D02*
X153500000Y-122942500D01*
X154830000Y-121612500D02*
X154830000Y-122942500D01*
X154830000Y-120342500D02*
X152170000Y-120342500D01*
X154830000Y-120342500D02*
X154830000Y-117742500D01*
X154830000Y-117742500D02*
X152170000Y-117742500D01*
%TO.C,J8*%
X205204000Y-124345000D02*
X205204000Y-114065000D01*
X210105000Y-124345000D02*
X210105000Y-114065000D01*
X202244000Y-124345000D02*
X202244000Y-114065000D01*
X212405000Y-124585000D02*
X212405000Y-124085000D01*
X208528000Y-117892000D02*
X208574000Y-117939000D01*
X206230000Y-115595000D02*
X206266000Y-115630000D01*
X202244000Y-124345000D02*
X212165000Y-124345000D01*
X208744000Y-117699000D02*
X208779000Y-117734000D01*
X211665000Y-124585000D02*
X212405000Y-124585000D01*
X211605000Y-124345000D02*
X211605000Y-114065000D01*
X202244000Y-114065000D02*
X212165000Y-114065000D01*
X212165000Y-124345000D02*
X212165000Y-114065000D01*
X206436000Y-115390000D02*
X206482000Y-115437000D01*
X206821000Y-123280000D02*
G75*
G03*
X208188042Y-123280427I684001J1534993D01*
G01*
X209040000Y-122429000D02*
G75*
G03*
X209185253Y-121716195I-1535001J683999D01*
G01*
X205970000Y-121061000D02*
G75*
G03*
X205969573Y-122428042I1534993J-684001D01*
G01*
X208189000Y-120209999D02*
G75*
G03*
X206821958Y-120209573I-684000J-1535001D01*
G01*
X209185000Y-121745000D02*
G75*
G03*
X209039756Y-121061682I-1680000J0D01*
G01*
X209185000Y-116665000D02*
G75*
G03*
X209185000Y-116665000I-1680000J0D01*
G01*
%TO.C,SW1*%
X119000000Y-87500000D02*
X119000000Y-83000000D01*
X112500000Y-83000000D02*
X112500000Y-87500000D01*
X115000000Y-88750000D02*
X116500000Y-88750000D01*
X116500000Y-81750000D02*
X115000000Y-81750000D01*
%TO.C,JP8*%
X140830000Y-121500000D02*
X140830000Y-122830000D01*
X140830000Y-120230000D02*
X140830000Y-117630000D01*
X138170000Y-120230000D02*
X138170000Y-117630000D01*
X140830000Y-120230000D02*
X138170000Y-120230000D01*
X140830000Y-122830000D02*
X139500000Y-122830000D01*
X140830000Y-117630000D02*
X138170000Y-117630000D01*
%TO.C,PS1*%
X204330000Y-87140000D02*
X204330000Y-106360000D01*
X204330000Y-106360000D02*
X211670000Y-106360000D01*
X211670000Y-87140000D02*
X204330000Y-87140000D01*
X211670000Y-106360000D02*
X211670000Y-87140000D01*
X210720000Y-106660000D02*
X211970000Y-106660000D01*
X211970000Y-106660000D02*
X211970000Y-105410000D01*
%TO.C,JP4*%
X130580000Y-121495000D02*
X130580000Y-122825000D01*
X130580000Y-117625000D02*
X127920000Y-117625000D01*
X127920000Y-120225000D02*
X127920000Y-117625000D01*
X130580000Y-120225000D02*
X130580000Y-117625000D01*
X130580000Y-122825000D02*
X129250000Y-122825000D01*
X130580000Y-120225000D02*
X127920000Y-120225000D01*
%TO.C,JP1*%
X172580000Y-121500000D02*
X172580000Y-122830000D01*
X172580000Y-120230000D02*
X169920000Y-120230000D01*
X172580000Y-122830000D02*
X171250000Y-122830000D01*
X172580000Y-120230000D02*
X172580000Y-117630000D01*
X169920000Y-120230000D02*
X169920000Y-117630000D01*
X172580000Y-117630000D02*
X169920000Y-117630000D01*
%TO.C,Q1*%
X157870000Y-86650000D02*
X161470000Y-86650000D01*
X161508478Y-86638478D02*
G75*
G03*
X159670000Y-82200000I-1838478J1838478D01*
G01*
X159670000Y-82199999D02*
G75*
G03*
X157831522Y-86638478I0J-2600001D01*
G01*
%TO.C,R4*%
X148236666Y-90870000D02*
X148236666Y-84330000D01*
X145496666Y-90870000D02*
X148236666Y-90870000D01*
X145496666Y-84330000D02*
X145496666Y-90870000D01*
X146866666Y-91640000D02*
X146866666Y-90870000D01*
X148236666Y-84330000D02*
X145496666Y-84330000D01*
X146866666Y-83560000D02*
X146866666Y-84330000D01*
%TO.C,J3*%
X136500000Y-127275000D02*
X142500000Y-127275000D01*
X133200000Y-126525000D02*
X133200000Y-127275000D01*
X145050000Y-128775000D02*
X145050000Y-131725000D01*
X142500000Y-127275000D02*
X142500000Y-126525000D01*
X145810000Y-132485000D02*
X145810000Y-126515000D01*
X133200000Y-127275000D02*
X135000000Y-127275000D01*
X142500000Y-126525000D02*
X136500000Y-126525000D01*
X145800000Y-128775000D02*
X145050000Y-128775000D01*
X133200000Y-128775000D02*
X133950000Y-128775000D01*
X134150000Y-126225000D02*
X132900000Y-126225000D01*
X135000000Y-126525000D02*
X133200000Y-126525000D01*
X136500000Y-126525000D02*
X136500000Y-127275000D01*
X145800000Y-126525000D02*
X144000000Y-126525000D01*
X132900000Y-126225000D02*
X132900000Y-127475000D01*
X144000000Y-126525000D02*
X144000000Y-127275000D01*
X133950000Y-131725000D02*
X139500000Y-131725000D01*
X145800000Y-127275000D02*
X145800000Y-126525000D01*
X133950000Y-128775000D02*
X133950000Y-131725000D01*
X133190000Y-132485000D02*
X145810000Y-132485000D01*
X135000000Y-127275000D02*
X135000000Y-126525000D01*
X145050000Y-131725000D02*
X139500000Y-131725000D01*
X145810000Y-126515000D02*
X133190000Y-126515000D01*
X144000000Y-127275000D02*
X145800000Y-127275000D01*
X133190000Y-126515000D02*
X133190000Y-132485000D01*
%TO.C,J5*%
X171555000Y-71130000D02*
X171555000Y-73730000D01*
X174155000Y-76330000D02*
X123235000Y-76330000D01*
X174155000Y-71130000D02*
X174155000Y-72460000D01*
X174155000Y-73730000D02*
X174155000Y-76330000D01*
X172825000Y-71130000D02*
X174155000Y-71130000D01*
X171555000Y-73730000D02*
X174155000Y-73730000D01*
X123235000Y-71130000D02*
X123235000Y-76330000D01*
X171555000Y-71130000D02*
X123235000Y-71130000D01*
%TO.C,R5*%
X151503332Y-84330000D02*
X148763332Y-84330000D01*
X148763332Y-90870000D02*
X151503332Y-90870000D01*
X150133332Y-91640000D02*
X150133332Y-90870000D01*
X151503332Y-90870000D02*
X151503332Y-84330000D01*
X150133332Y-83560000D02*
X150133332Y-84330000D01*
X148763332Y-84330000D02*
X148763332Y-90870000D01*
%TO.C,JP2*%
X168830000Y-122830000D02*
X167500000Y-122830000D01*
X168830000Y-121500000D02*
X168830000Y-122830000D01*
X166170000Y-120230000D02*
X166170000Y-117630000D01*
X168830000Y-120230000D02*
X168830000Y-117630000D01*
X168830000Y-117630000D02*
X166170000Y-117630000D01*
X168830000Y-120230000D02*
X166170000Y-120230000D01*
%TO.C,JP7*%
X144630000Y-120230000D02*
X144630000Y-117630000D01*
X141970000Y-120230000D02*
X141970000Y-117630000D01*
X144630000Y-117630000D02*
X141970000Y-117630000D01*
X144630000Y-121500000D02*
X144630000Y-122830000D01*
X144630000Y-122830000D02*
X143300000Y-122830000D01*
X144630000Y-120230000D02*
X141970000Y-120230000D01*
D14*
%TO.C,U2*%
X138562500Y-78200000D02*
X122562500Y-78200000D01*
X138562500Y-94200000D02*
X122562500Y-94200000D01*
D12*
X140812500Y-93250000D02*
G75*
G03*
X140812500Y-93250000I-100000J0D01*
G01*
D11*
%TO.C,JP5*%
X126830000Y-121495000D02*
X126830000Y-122825000D01*
X126830000Y-120225000D02*
X124170000Y-120225000D01*
X126830000Y-120225000D02*
X126830000Y-117625000D01*
X126830000Y-117625000D02*
X124170000Y-117625000D01*
X124170000Y-120225000D02*
X124170000Y-117625000D01*
X126830000Y-122825000D02*
X125500000Y-122825000D01*
D14*
%TO.C,K1*%
X200935500Y-132500000D02*
X200935500Y-127000000D01*
X200935500Y-127000000D02*
X176435500Y-127000000D01*
X176435500Y-132500000D02*
X200935500Y-132500000D01*
X176435500Y-127000000D02*
X176435500Y-132500000D01*
D12*
X201739500Y-131020000D02*
G75*
G03*
X201739500Y-131020000I-100000J0D01*
G01*
D11*
%TO.C,U3*%
X200000000Y-125000000D02*
X178000000Y-125000000D01*
X178000000Y-125000000D02*
X178000000Y-108000000D01*
X178000000Y-108000000D02*
X200000000Y-108000000D01*
X200000000Y-108000000D02*
X200000000Y-125000000D01*
%TO.C,R6*%
X131056668Y-95430000D02*
X124516668Y-95430000D01*
X123746668Y-96800000D02*
X124516668Y-96800000D01*
X131056668Y-98170000D02*
X131056668Y-95430000D01*
X131826668Y-96800000D02*
X131056668Y-96800000D01*
X124516668Y-98170000D02*
X131056668Y-98170000D01*
X124516668Y-95430000D02*
X124516668Y-98170000D01*
%TO.C,JP10*%
X158630000Y-120342500D02*
X155970000Y-120342500D01*
X158630000Y-117742500D02*
X155970000Y-117742500D01*
X158630000Y-122942500D02*
X157300000Y-122942500D01*
X155970000Y-120342500D02*
X155970000Y-117742500D01*
X158630000Y-120342500D02*
X158630000Y-117742500D01*
X158630000Y-121612500D02*
X158630000Y-122942500D01*
%TO.C,J2*%
X159050000Y-131725000D02*
X153500000Y-131725000D01*
X147950000Y-128775000D02*
X147950000Y-131725000D01*
X147190000Y-132485000D02*
X159810000Y-132485000D01*
X147200000Y-128775000D02*
X147950000Y-128775000D01*
X158000000Y-127275000D02*
X159800000Y-127275000D01*
X159810000Y-132485000D02*
X159810000Y-126515000D01*
X150500000Y-127275000D02*
X156500000Y-127275000D01*
X159050000Y-128775000D02*
X159050000Y-131725000D01*
X147200000Y-126525000D02*
X147200000Y-127275000D01*
X146900000Y-126225000D02*
X146900000Y-127475000D01*
X147190000Y-126515000D02*
X147190000Y-132485000D01*
X149000000Y-126525000D02*
X147200000Y-126525000D01*
X150500000Y-126525000D02*
X150500000Y-127275000D01*
X159800000Y-127275000D02*
X159800000Y-126525000D01*
X159800000Y-126525000D02*
X158000000Y-126525000D01*
X158000000Y-126525000D02*
X158000000Y-127275000D01*
X159800000Y-128775000D02*
X159050000Y-128775000D01*
X148150000Y-126225000D02*
X146900000Y-126225000D01*
X147200000Y-127275000D02*
X149000000Y-127275000D01*
X159810000Y-126515000D02*
X147190000Y-126515000D01*
X156500000Y-127275000D02*
X156500000Y-126525000D01*
X147950000Y-131725000D02*
X153500000Y-131725000D01*
X149000000Y-127275000D02*
X149000000Y-126525000D01*
X156500000Y-126525000D02*
X150500000Y-126525000D01*
%TO.C,JP12*%
X151030000Y-120342500D02*
X148370000Y-120342500D01*
X151030000Y-117742500D02*
X148370000Y-117742500D01*
X151030000Y-121612500D02*
X151030000Y-122942500D01*
X148370000Y-120342500D02*
X148370000Y-117742500D01*
X151030000Y-120342500D02*
X151030000Y-117742500D01*
X151030000Y-122942500D02*
X149700000Y-122942500D01*
%TO.C,JP6*%
X123080000Y-120225000D02*
X123080000Y-117625000D01*
X123080000Y-122825000D02*
X121750000Y-122825000D01*
X123080000Y-121495000D02*
X123080000Y-122825000D01*
X123080000Y-117625000D02*
X120420000Y-117625000D01*
X120420000Y-120225000D02*
X120420000Y-117625000D01*
X123080000Y-120225000D02*
X120420000Y-120225000D01*
%TO.C,J1*%
X172000000Y-127275000D02*
X173800000Y-127275000D01*
X160900000Y-126225000D02*
X160900000Y-127475000D01*
X173050000Y-131725000D02*
X167500000Y-131725000D01*
X173050000Y-128775000D02*
X173050000Y-131725000D01*
X170500000Y-127275000D02*
X170500000Y-126525000D01*
X162150000Y-126225000D02*
X160900000Y-126225000D01*
X172000000Y-126525000D02*
X172000000Y-127275000D01*
X173800000Y-126525000D02*
X172000000Y-126525000D01*
X164500000Y-127275000D02*
X170500000Y-127275000D01*
X161200000Y-128775000D02*
X161950000Y-128775000D01*
X164500000Y-126525000D02*
X164500000Y-127275000D01*
X161190000Y-132485000D02*
X173810000Y-132485000D01*
X163000000Y-127275000D02*
X163000000Y-126525000D01*
X173810000Y-132485000D02*
X173810000Y-126515000D01*
X161200000Y-126525000D02*
X161200000Y-127275000D01*
X161200000Y-127275000D02*
X163000000Y-127275000D01*
X170500000Y-126525000D02*
X164500000Y-126525000D01*
X161950000Y-128775000D02*
X161950000Y-131725000D01*
X161950000Y-131725000D02*
X167500000Y-131725000D01*
X173800000Y-127275000D02*
X173800000Y-126525000D01*
X163000000Y-126525000D02*
X161200000Y-126525000D01*
X173800000Y-128775000D02*
X173050000Y-128775000D01*
X173810000Y-126515000D02*
X161190000Y-126515000D01*
X161190000Y-126515000D02*
X161190000Y-132485000D01*
%TO.C,JP3*%
X165080000Y-120230000D02*
X162420000Y-120230000D01*
X162420000Y-120230000D02*
X162420000Y-117630000D01*
X165080000Y-120230000D02*
X165080000Y-117630000D01*
X165080000Y-121500000D02*
X165080000Y-122830000D01*
X165080000Y-117630000D02*
X162420000Y-117630000D01*
X165080000Y-122830000D02*
X163750000Y-122830000D01*
%TO.C,C2*%
X211720000Y-108380000D02*
X211720000Y-112120000D01*
X204280000Y-112120000D02*
X211720000Y-112120000D01*
X204280000Y-108380000D02*
X204280000Y-112120000D01*
X204280000Y-108380000D02*
X211720000Y-108380000D01*
%TO.C,R3*%
X143600000Y-83560000D02*
X143600000Y-84330000D01*
X144970000Y-90870000D02*
X144970000Y-84330000D01*
X142230000Y-90870000D02*
X144970000Y-90870000D01*
X142230000Y-84330000D02*
X142230000Y-90870000D01*
X143600000Y-91640000D02*
X143600000Y-90870000D01*
X144970000Y-84330000D02*
X142230000Y-84330000D01*
%TO.C,BZ1*%
X176300000Y-87400000D02*
G75*
G03*
X176300000Y-87400000I-6100000J0D01*
G01*
%TO.C,Q2*%
X158000000Y-93210000D02*
X161600000Y-93210000D01*
X161638478Y-93198478D02*
G75*
G03*
X159800000Y-88760000I-1838478J1838478D01*
G01*
X159800000Y-88759999D02*
G75*
G03*
X157961522Y-93198478I0J-2600001D01*
G01*
%TD*%
M02*
