G04 EAGLE Gerber X2 export*
%TF.Part,Single*%
%TF.FileFunction,Copper,L1,Top,Mixed*%
%TF.FilePolarity,Positive*%
%TF.GenerationSoftware,Autodesk,EAGLE,8.7.1*%
%TF.CreationDate,2021-04-30T08:45:36Z*%
G75*
%MOMM*%
%FSLAX34Y34*%
%LPD*%
%AMOC8*
5,1,8,0,0,1.08239X$1,22.5*%
G01*
%ADD10C,0.304800*%
%ADD11C,0.101600*%
%ADD12C,0.050800*%
%ADD13C,0.130000*%
%ADD14C,0.152400*%
%ADD15R,1.524000X1.524000*%
%ADD16P,1.429621X8X22.500000*%
%ADD17C,1.498000*%
%ADD18R,1.498000X1.498000*%
%ADD19C,1.828800*%
%ADD20C,1.524000*%
%ADD21C,2.514600*%
%ADD22C,1.700000*%
%ADD23P,5.498541X8X22.500000*%


D10*
X480196Y89579D02*
X480196Y124631D01*
X489932Y124631D02*
X470459Y124631D01*
X498081Y124631D02*
X498081Y89579D01*
X498081Y109052D02*
X517555Y109052D01*
X517555Y124631D02*
X517555Y89579D01*
X542193Y109052D02*
X548035Y109052D01*
X548035Y89579D01*
X536351Y89579D01*
X536163Y89581D01*
X535975Y89588D01*
X535787Y89599D01*
X535599Y89615D01*
X535412Y89636D01*
X535226Y89661D01*
X535040Y89690D01*
X534855Y89724D01*
X534670Y89763D01*
X534487Y89805D01*
X534305Y89853D01*
X534124Y89904D01*
X533944Y89960D01*
X533766Y90021D01*
X533589Y90085D01*
X533414Y90154D01*
X533240Y90227D01*
X533069Y90304D01*
X532899Y90386D01*
X532731Y90471D01*
X532566Y90561D01*
X532402Y90654D01*
X532241Y90751D01*
X532083Y90853D01*
X531926Y90958D01*
X531773Y91067D01*
X531622Y91179D01*
X531474Y91295D01*
X531328Y91415D01*
X531186Y91538D01*
X531047Y91664D01*
X530910Y91794D01*
X530777Y91927D01*
X530647Y92064D01*
X530521Y92203D01*
X530398Y92345D01*
X530278Y92491D01*
X530162Y92639D01*
X530050Y92790D01*
X529941Y92943D01*
X529836Y93100D01*
X529734Y93258D01*
X529637Y93419D01*
X529544Y93583D01*
X529454Y93748D01*
X529369Y93916D01*
X529287Y94086D01*
X529210Y94257D01*
X529137Y94431D01*
X529068Y94606D01*
X529004Y94783D01*
X528943Y94961D01*
X528887Y95141D01*
X528836Y95322D01*
X528788Y95504D01*
X528746Y95687D01*
X528707Y95872D01*
X528673Y96057D01*
X528644Y96243D01*
X528619Y96429D01*
X528598Y96616D01*
X528582Y96804D01*
X528571Y96992D01*
X528564Y97180D01*
X528562Y97368D01*
X528561Y97368D02*
X528561Y116842D01*
X528562Y116842D02*
X528564Y117033D01*
X528571Y117224D01*
X528583Y117415D01*
X528600Y117605D01*
X528621Y117795D01*
X528646Y117985D01*
X528677Y118174D01*
X528712Y118362D01*
X528751Y118549D01*
X528795Y118735D01*
X528844Y118919D01*
X528897Y119103D01*
X528955Y119285D01*
X529017Y119466D01*
X529084Y119645D01*
X529155Y119823D01*
X529230Y119998D01*
X529310Y120172D01*
X529394Y120344D01*
X529482Y120514D01*
X529574Y120681D01*
X529670Y120846D01*
X529770Y121009D01*
X529875Y121169D01*
X529983Y121327D01*
X530095Y121482D01*
X530211Y121634D01*
X530330Y121783D01*
X530453Y121930D01*
X530580Y122073D01*
X530710Y122213D01*
X530843Y122350D01*
X530980Y122483D01*
X531120Y122613D01*
X531263Y122740D01*
X531410Y122863D01*
X531559Y122982D01*
X531711Y123098D01*
X531866Y123210D01*
X532024Y123318D01*
X532184Y123423D01*
X532347Y123523D01*
X532512Y123619D01*
X532679Y123711D01*
X532849Y123799D01*
X533021Y123883D01*
X533195Y123963D01*
X533370Y124038D01*
X533548Y124109D01*
X533727Y124176D01*
X533908Y124238D01*
X534090Y124296D01*
X534274Y124349D01*
X534458Y124398D01*
X534644Y124442D01*
X534831Y124481D01*
X535019Y124516D01*
X535208Y124547D01*
X535398Y124572D01*
X535588Y124593D01*
X535778Y124610D01*
X535969Y124622D01*
X536160Y124629D01*
X536351Y124631D01*
X548035Y124631D01*
X584039Y124631D02*
X584251Y124628D01*
X584462Y124621D01*
X584674Y124608D01*
X584885Y124590D01*
X585095Y124567D01*
X585305Y124539D01*
X585514Y124506D01*
X585723Y124468D01*
X585930Y124425D01*
X586136Y124376D01*
X586341Y124323D01*
X586545Y124265D01*
X586747Y124202D01*
X586948Y124134D01*
X587146Y124062D01*
X587343Y123984D01*
X587539Y123902D01*
X587732Y123815D01*
X587923Y123723D01*
X588111Y123627D01*
X588298Y123527D01*
X588481Y123421D01*
X588663Y123312D01*
X588841Y123198D01*
X589017Y123080D01*
X589190Y122957D01*
X589360Y122831D01*
X589526Y122700D01*
X589690Y122566D01*
X589850Y122427D01*
X590007Y122285D01*
X590160Y122139D01*
X590310Y121989D01*
X590456Y121836D01*
X590598Y121679D01*
X590737Y121519D01*
X590871Y121355D01*
X591002Y121189D01*
X591128Y121019D01*
X591251Y120846D01*
X591369Y120670D01*
X591483Y120492D01*
X591592Y120310D01*
X591698Y120127D01*
X591798Y119940D01*
X591894Y119752D01*
X591986Y119561D01*
X592073Y119368D01*
X592155Y119172D01*
X592233Y118975D01*
X592305Y118777D01*
X592373Y118576D01*
X592436Y118374D01*
X592494Y118170D01*
X592547Y117965D01*
X592596Y117759D01*
X592639Y117552D01*
X592677Y117343D01*
X592710Y117134D01*
X592738Y116924D01*
X592761Y116714D01*
X592779Y116503D01*
X592792Y116291D01*
X592799Y116080D01*
X592802Y115868D01*
X584039Y124631D02*
X583767Y124628D01*
X583495Y124618D01*
X583223Y124601D01*
X582952Y124578D01*
X582681Y124549D01*
X582411Y124513D01*
X582142Y124470D01*
X581874Y124421D01*
X581608Y124365D01*
X581343Y124303D01*
X581079Y124235D01*
X580817Y124160D01*
X580558Y124079D01*
X580300Y123992D01*
X580044Y123898D01*
X579791Y123799D01*
X579540Y123693D01*
X579291Y123581D01*
X579046Y123463D01*
X578803Y123340D01*
X578564Y123210D01*
X578328Y123075D01*
X578095Y122934D01*
X577865Y122787D01*
X577639Y122635D01*
X577417Y122478D01*
X577199Y122315D01*
X576985Y122147D01*
X576775Y121974D01*
X576569Y121796D01*
X576367Y121613D01*
X576170Y121425D01*
X575978Y121232D01*
X575790Y121035D01*
X575607Y120833D01*
X575430Y120627D01*
X575257Y120417D01*
X575089Y120202D01*
X574926Y119984D01*
X574769Y119761D01*
X574617Y119535D01*
X574471Y119306D01*
X574330Y119073D01*
X574195Y118836D01*
X574066Y118597D01*
X573943Y118354D01*
X573825Y118108D01*
X573714Y117860D01*
X573608Y117609D01*
X573509Y117355D01*
X573416Y117100D01*
X573329Y116842D01*
X589881Y109052D02*
X590046Y109214D01*
X590208Y109379D01*
X590365Y109548D01*
X590518Y109721D01*
X590666Y109898D01*
X590811Y110078D01*
X590950Y110262D01*
X591086Y110449D01*
X591216Y110640D01*
X591342Y110833D01*
X591463Y111030D01*
X591580Y111230D01*
X591691Y111432D01*
X591797Y111637D01*
X591899Y111845D01*
X591995Y112055D01*
X592086Y112267D01*
X592172Y112481D01*
X592252Y112698D01*
X592327Y112916D01*
X592397Y113136D01*
X592461Y113358D01*
X592520Y113582D01*
X592573Y113806D01*
X592621Y114032D01*
X592663Y114259D01*
X592700Y114487D01*
X592731Y114716D01*
X592757Y114946D01*
X592777Y115176D01*
X592791Y115406D01*
X592799Y115637D01*
X592802Y115868D01*
X589881Y109052D02*
X573329Y89579D01*
X592802Y89579D01*
D11*
X689684Y252127D02*
X693578Y263811D01*
X697473Y252127D01*
X696499Y255048D02*
X690657Y255048D01*
X704326Y252127D02*
X706923Y252127D01*
X704326Y252128D02*
X704227Y252130D01*
X704127Y252136D01*
X704028Y252145D01*
X703930Y252158D01*
X703832Y252175D01*
X703734Y252196D01*
X703638Y252221D01*
X703543Y252249D01*
X703449Y252281D01*
X703356Y252316D01*
X703264Y252355D01*
X703174Y252398D01*
X703086Y252443D01*
X702999Y252493D01*
X702915Y252545D01*
X702832Y252601D01*
X702752Y252659D01*
X702674Y252721D01*
X702599Y252786D01*
X702526Y252854D01*
X702456Y252924D01*
X702388Y252997D01*
X702323Y253072D01*
X702261Y253150D01*
X702203Y253230D01*
X702147Y253313D01*
X702095Y253397D01*
X702045Y253484D01*
X702000Y253572D01*
X701957Y253662D01*
X701918Y253754D01*
X701883Y253847D01*
X701851Y253941D01*
X701823Y254036D01*
X701798Y254132D01*
X701777Y254230D01*
X701760Y254328D01*
X701747Y254426D01*
X701738Y254525D01*
X701732Y254625D01*
X701730Y254724D01*
X701730Y261215D01*
X701732Y261314D01*
X701738Y261414D01*
X701747Y261513D01*
X701760Y261611D01*
X701777Y261709D01*
X701798Y261807D01*
X701823Y261903D01*
X701851Y261998D01*
X701883Y262092D01*
X701918Y262185D01*
X701957Y262277D01*
X702000Y262367D01*
X702045Y262455D01*
X702095Y262542D01*
X702147Y262626D01*
X702203Y262709D01*
X702261Y262789D01*
X702323Y262867D01*
X702388Y262942D01*
X702456Y263015D01*
X702526Y263085D01*
X702599Y263153D01*
X702674Y263218D01*
X702752Y263280D01*
X702832Y263338D01*
X702915Y263394D01*
X702999Y263446D01*
X703086Y263496D01*
X703174Y263541D01*
X703264Y263584D01*
X703356Y263623D01*
X703448Y263658D01*
X703543Y263690D01*
X703638Y263718D01*
X703734Y263743D01*
X703832Y263764D01*
X703930Y263781D01*
X704028Y263794D01*
X704127Y263803D01*
X704227Y263809D01*
X704326Y263811D01*
X706923Y263811D01*
X718343Y263811D02*
X718343Y252127D01*
X717045Y252127D02*
X719642Y252127D01*
X719642Y263811D02*
X717045Y263811D01*
X724623Y263811D02*
X724623Y252127D01*
X731114Y252127D02*
X724623Y263811D01*
X731114Y263811D02*
X731114Y252127D01*
D12*
X287867Y635254D02*
X286004Y640842D01*
X289729Y640842D02*
X287867Y635254D01*
X293026Y635254D02*
X294268Y635254D01*
X293026Y635254D02*
X292956Y635256D01*
X292887Y635262D01*
X292818Y635272D01*
X292750Y635285D01*
X292682Y635303D01*
X292616Y635324D01*
X292551Y635349D01*
X292487Y635377D01*
X292425Y635409D01*
X292365Y635444D01*
X292307Y635483D01*
X292252Y635525D01*
X292198Y635570D01*
X292148Y635618D01*
X292100Y635668D01*
X292055Y635722D01*
X292013Y635777D01*
X291974Y635835D01*
X291939Y635895D01*
X291907Y635957D01*
X291879Y636021D01*
X291854Y636086D01*
X291833Y636152D01*
X291815Y636220D01*
X291802Y636288D01*
X291792Y636357D01*
X291786Y636426D01*
X291784Y636496D01*
X291785Y636496D02*
X291785Y639600D01*
X291784Y639600D02*
X291786Y639670D01*
X291792Y639739D01*
X291802Y639808D01*
X291815Y639876D01*
X291833Y639944D01*
X291854Y640010D01*
X291879Y640075D01*
X291907Y640139D01*
X291939Y640201D01*
X291974Y640261D01*
X292013Y640319D01*
X292055Y640374D01*
X292100Y640428D01*
X292148Y640478D01*
X292198Y640526D01*
X292252Y640571D01*
X292307Y640613D01*
X292365Y640652D01*
X292425Y640687D01*
X292487Y640719D01*
X292551Y640747D01*
X292616Y640772D01*
X292682Y640793D01*
X292750Y640811D01*
X292818Y640824D01*
X292887Y640834D01*
X292956Y640840D01*
X293026Y640842D01*
X294268Y640842D01*
X297598Y635254D02*
X298840Y635254D01*
X297598Y635254D02*
X297528Y635256D01*
X297459Y635262D01*
X297390Y635272D01*
X297322Y635285D01*
X297254Y635303D01*
X297188Y635324D01*
X297123Y635349D01*
X297059Y635377D01*
X296997Y635409D01*
X296937Y635444D01*
X296879Y635483D01*
X296824Y635525D01*
X296770Y635570D01*
X296720Y635618D01*
X296672Y635668D01*
X296627Y635722D01*
X296585Y635777D01*
X296546Y635835D01*
X296511Y635895D01*
X296479Y635957D01*
X296451Y636021D01*
X296426Y636086D01*
X296405Y636152D01*
X296387Y636220D01*
X296374Y636288D01*
X296364Y636357D01*
X296358Y636426D01*
X296356Y636496D01*
X296356Y639600D01*
X296358Y639670D01*
X296364Y639739D01*
X296374Y639808D01*
X296387Y639876D01*
X296405Y639944D01*
X296426Y640010D01*
X296451Y640075D01*
X296479Y640139D01*
X296511Y640201D01*
X296546Y640261D01*
X296585Y640319D01*
X296627Y640374D01*
X296672Y640428D01*
X296720Y640478D01*
X296770Y640526D01*
X296824Y640571D01*
X296879Y640613D01*
X296937Y640652D01*
X296997Y640687D01*
X297059Y640719D01*
X297123Y640747D01*
X297188Y640772D01*
X297254Y640793D01*
X297322Y640811D01*
X297390Y640824D01*
X297459Y640834D01*
X297528Y640840D01*
X297598Y640842D01*
X298840Y640842D01*
X289109Y560296D02*
X289107Y560226D01*
X289101Y560157D01*
X289091Y560088D01*
X289078Y560020D01*
X289060Y559952D01*
X289039Y559886D01*
X289014Y559821D01*
X288986Y559757D01*
X288954Y559695D01*
X288919Y559635D01*
X288880Y559577D01*
X288838Y559522D01*
X288793Y559468D01*
X288745Y559418D01*
X288695Y559370D01*
X288641Y559325D01*
X288586Y559283D01*
X288528Y559244D01*
X288468Y559209D01*
X288406Y559177D01*
X288342Y559149D01*
X288277Y559124D01*
X288211Y559103D01*
X288143Y559085D01*
X288075Y559072D01*
X288006Y559062D01*
X287937Y559056D01*
X287867Y559054D01*
X287768Y559056D01*
X287670Y559061D01*
X287572Y559071D01*
X287474Y559084D01*
X287377Y559100D01*
X287280Y559120D01*
X287185Y559144D01*
X287090Y559172D01*
X286996Y559203D01*
X286904Y559237D01*
X286813Y559275D01*
X286723Y559316D01*
X286635Y559361D01*
X286549Y559409D01*
X286465Y559460D01*
X286383Y559514D01*
X286302Y559572D01*
X286224Y559632D01*
X286149Y559695D01*
X286075Y559761D01*
X286005Y559830D01*
X286159Y563400D02*
X286161Y563470D01*
X286167Y563539D01*
X286177Y563608D01*
X286190Y563676D01*
X286208Y563744D01*
X286229Y563810D01*
X286254Y563875D01*
X286282Y563939D01*
X286314Y564001D01*
X286349Y564061D01*
X286388Y564119D01*
X286430Y564174D01*
X286475Y564228D01*
X286523Y564278D01*
X286573Y564326D01*
X286627Y564371D01*
X286682Y564413D01*
X286740Y564452D01*
X286800Y564487D01*
X286862Y564519D01*
X286926Y564547D01*
X286991Y564572D01*
X287057Y564593D01*
X287125Y564611D01*
X287193Y564624D01*
X287262Y564634D01*
X287331Y564640D01*
X287401Y564642D01*
X287495Y564640D01*
X287588Y564634D01*
X287681Y564625D01*
X287774Y564612D01*
X287866Y564595D01*
X287957Y564575D01*
X288048Y564550D01*
X288137Y564523D01*
X288225Y564491D01*
X288312Y564456D01*
X288398Y564418D01*
X288481Y564376D01*
X288563Y564331D01*
X288644Y564283D01*
X288722Y564231D01*
X288798Y564176D01*
X286780Y562314D02*
X286721Y562350D01*
X286665Y562390D01*
X286611Y562433D01*
X286559Y562478D01*
X286510Y562527D01*
X286464Y562578D01*
X286421Y562631D01*
X286380Y562687D01*
X286343Y562745D01*
X286308Y562805D01*
X286278Y562866D01*
X286250Y562929D01*
X286226Y562994D01*
X286206Y563060D01*
X286189Y563127D01*
X286176Y563194D01*
X286167Y563262D01*
X286161Y563331D01*
X286159Y563400D01*
X288487Y561382D02*
X288546Y561346D01*
X288602Y561306D01*
X288656Y561263D01*
X288708Y561218D01*
X288757Y561169D01*
X288803Y561118D01*
X288846Y561065D01*
X288887Y561009D01*
X288924Y560951D01*
X288959Y560891D01*
X288989Y560830D01*
X289017Y560767D01*
X289041Y560702D01*
X289061Y560636D01*
X289078Y560569D01*
X289091Y560502D01*
X289100Y560434D01*
X289106Y560365D01*
X289108Y560296D01*
X288488Y561382D02*
X286780Y562314D01*
X292533Y559054D02*
X293775Y559054D01*
X292533Y559054D02*
X292463Y559056D01*
X292394Y559062D01*
X292325Y559072D01*
X292257Y559085D01*
X292189Y559103D01*
X292123Y559124D01*
X292058Y559149D01*
X291994Y559177D01*
X291932Y559209D01*
X291872Y559244D01*
X291814Y559283D01*
X291759Y559325D01*
X291705Y559370D01*
X291655Y559418D01*
X291607Y559468D01*
X291562Y559522D01*
X291520Y559577D01*
X291481Y559635D01*
X291446Y559695D01*
X291414Y559757D01*
X291386Y559821D01*
X291361Y559886D01*
X291340Y559952D01*
X291322Y560020D01*
X291309Y560088D01*
X291299Y560157D01*
X291293Y560226D01*
X291291Y560296D01*
X291291Y563400D01*
X291293Y563470D01*
X291299Y563539D01*
X291309Y563608D01*
X291322Y563676D01*
X291340Y563744D01*
X291361Y563810D01*
X291386Y563875D01*
X291414Y563939D01*
X291446Y564001D01*
X291481Y564061D01*
X291520Y564119D01*
X291562Y564174D01*
X291607Y564228D01*
X291655Y564278D01*
X291705Y564326D01*
X291759Y564371D01*
X291814Y564413D01*
X291872Y564452D01*
X291932Y564487D01*
X291994Y564519D01*
X292058Y564547D01*
X292123Y564572D01*
X292189Y564593D01*
X292257Y564611D01*
X292325Y564624D01*
X292394Y564634D01*
X292463Y564640D01*
X292533Y564642D01*
X293775Y564642D01*
X296073Y564642D02*
X296073Y559054D01*
X298557Y559054D01*
X287867Y584454D02*
X287937Y584456D01*
X288006Y584462D01*
X288075Y584472D01*
X288143Y584485D01*
X288211Y584503D01*
X288277Y584524D01*
X288342Y584549D01*
X288406Y584577D01*
X288468Y584609D01*
X288528Y584644D01*
X288586Y584683D01*
X288641Y584725D01*
X288695Y584770D01*
X288745Y584818D01*
X288793Y584868D01*
X288838Y584922D01*
X288880Y584977D01*
X288919Y585035D01*
X288954Y585095D01*
X288986Y585157D01*
X289014Y585221D01*
X289039Y585286D01*
X289060Y585352D01*
X289078Y585420D01*
X289091Y585488D01*
X289101Y585557D01*
X289107Y585626D01*
X289109Y585696D01*
X287867Y584454D02*
X287768Y584456D01*
X287670Y584461D01*
X287572Y584471D01*
X287474Y584484D01*
X287377Y584500D01*
X287280Y584520D01*
X287185Y584544D01*
X287090Y584572D01*
X286996Y584603D01*
X286904Y584637D01*
X286813Y584675D01*
X286723Y584716D01*
X286635Y584761D01*
X286549Y584809D01*
X286465Y584860D01*
X286383Y584914D01*
X286302Y584972D01*
X286224Y585032D01*
X286149Y585095D01*
X286075Y585161D01*
X286005Y585230D01*
X286159Y588800D02*
X286161Y588870D01*
X286167Y588939D01*
X286177Y589008D01*
X286190Y589076D01*
X286208Y589144D01*
X286229Y589210D01*
X286254Y589275D01*
X286282Y589339D01*
X286314Y589401D01*
X286349Y589461D01*
X286388Y589519D01*
X286430Y589574D01*
X286475Y589628D01*
X286523Y589678D01*
X286573Y589726D01*
X286627Y589771D01*
X286682Y589813D01*
X286740Y589852D01*
X286800Y589887D01*
X286862Y589919D01*
X286926Y589947D01*
X286991Y589972D01*
X287057Y589993D01*
X287125Y590011D01*
X287193Y590024D01*
X287262Y590034D01*
X287331Y590040D01*
X287401Y590042D01*
X287495Y590040D01*
X287588Y590034D01*
X287681Y590025D01*
X287774Y590012D01*
X287866Y589995D01*
X287957Y589975D01*
X288048Y589950D01*
X288137Y589923D01*
X288225Y589891D01*
X288312Y589856D01*
X288398Y589818D01*
X288481Y589776D01*
X288563Y589731D01*
X288644Y589683D01*
X288722Y589631D01*
X288798Y589576D01*
X286780Y587714D02*
X286721Y587750D01*
X286665Y587790D01*
X286611Y587833D01*
X286559Y587878D01*
X286510Y587927D01*
X286464Y587978D01*
X286421Y588031D01*
X286380Y588087D01*
X286343Y588145D01*
X286308Y588205D01*
X286278Y588266D01*
X286250Y588329D01*
X286226Y588394D01*
X286206Y588460D01*
X286189Y588527D01*
X286176Y588594D01*
X286167Y588662D01*
X286161Y588731D01*
X286159Y588800D01*
X288487Y586782D02*
X288546Y586746D01*
X288602Y586706D01*
X288656Y586663D01*
X288708Y586618D01*
X288757Y586569D01*
X288803Y586518D01*
X288846Y586465D01*
X288887Y586409D01*
X288924Y586351D01*
X288959Y586291D01*
X288989Y586230D01*
X289017Y586167D01*
X289041Y586102D01*
X289061Y586036D01*
X289078Y585969D01*
X289091Y585902D01*
X289100Y585834D01*
X289106Y585765D01*
X289108Y585696D01*
X288488Y586782D02*
X286780Y587714D01*
X291490Y590042D02*
X291490Y584454D01*
X291490Y590042D02*
X293043Y590042D01*
X293119Y590040D01*
X293195Y590035D01*
X293271Y590025D01*
X293346Y590012D01*
X293420Y589995D01*
X293494Y589975D01*
X293566Y589951D01*
X293637Y589924D01*
X293707Y589893D01*
X293775Y589859D01*
X293841Y589821D01*
X293905Y589780D01*
X293968Y589737D01*
X294028Y589690D01*
X294085Y589640D01*
X294140Y589587D01*
X294193Y589532D01*
X294243Y589475D01*
X294290Y589415D01*
X294333Y589352D01*
X294374Y589288D01*
X294412Y589222D01*
X294446Y589154D01*
X294477Y589084D01*
X294504Y589013D01*
X294528Y588940D01*
X294548Y588867D01*
X294565Y588793D01*
X294578Y588718D01*
X294588Y588642D01*
X294593Y588566D01*
X294595Y588490D01*
X294595Y586006D01*
X294593Y585927D01*
X294587Y585849D01*
X294577Y585771D01*
X294563Y585694D01*
X294545Y585617D01*
X294524Y585541D01*
X294498Y585467D01*
X294469Y585394D01*
X294436Y585323D01*
X294400Y585253D01*
X294360Y585185D01*
X294317Y585119D01*
X294270Y585056D01*
X294221Y584995D01*
X294168Y584937D01*
X294112Y584881D01*
X294054Y584828D01*
X293993Y584779D01*
X293930Y584732D01*
X293864Y584689D01*
X293796Y584649D01*
X293727Y584613D01*
X293655Y584580D01*
X293582Y584551D01*
X293508Y584525D01*
X293432Y584504D01*
X293355Y584486D01*
X293278Y584472D01*
X293200Y584462D01*
X293122Y584456D01*
X293043Y584454D01*
X291490Y584454D01*
X296849Y584454D02*
X298712Y590042D01*
X300575Y584454D01*
X300109Y585851D02*
X297315Y585851D01*
X662517Y603504D02*
X662587Y603506D01*
X662656Y603512D01*
X662725Y603522D01*
X662793Y603535D01*
X662861Y603553D01*
X662927Y603574D01*
X662992Y603599D01*
X663056Y603627D01*
X663118Y603659D01*
X663178Y603694D01*
X663236Y603733D01*
X663291Y603775D01*
X663345Y603820D01*
X663395Y603868D01*
X663443Y603918D01*
X663488Y603972D01*
X663530Y604027D01*
X663569Y604085D01*
X663604Y604145D01*
X663636Y604207D01*
X663664Y604271D01*
X663689Y604336D01*
X663710Y604402D01*
X663728Y604470D01*
X663741Y604538D01*
X663751Y604607D01*
X663757Y604676D01*
X663759Y604746D01*
X662517Y603504D02*
X662418Y603506D01*
X662320Y603511D01*
X662222Y603521D01*
X662124Y603534D01*
X662027Y603550D01*
X661930Y603570D01*
X661835Y603594D01*
X661740Y603622D01*
X661646Y603653D01*
X661554Y603687D01*
X661463Y603725D01*
X661373Y603766D01*
X661285Y603811D01*
X661199Y603859D01*
X661115Y603910D01*
X661033Y603964D01*
X660952Y604022D01*
X660874Y604082D01*
X660799Y604145D01*
X660725Y604211D01*
X660655Y604280D01*
X660809Y607850D02*
X660811Y607920D01*
X660817Y607989D01*
X660827Y608058D01*
X660840Y608126D01*
X660858Y608194D01*
X660879Y608260D01*
X660904Y608325D01*
X660932Y608389D01*
X660964Y608451D01*
X660999Y608511D01*
X661038Y608569D01*
X661080Y608624D01*
X661125Y608678D01*
X661173Y608728D01*
X661223Y608776D01*
X661277Y608821D01*
X661332Y608863D01*
X661390Y608902D01*
X661450Y608937D01*
X661512Y608969D01*
X661576Y608997D01*
X661641Y609022D01*
X661707Y609043D01*
X661775Y609061D01*
X661843Y609074D01*
X661912Y609084D01*
X661981Y609090D01*
X662051Y609092D01*
X662145Y609090D01*
X662238Y609084D01*
X662331Y609075D01*
X662424Y609062D01*
X662516Y609045D01*
X662607Y609025D01*
X662698Y609000D01*
X662787Y608973D01*
X662875Y608941D01*
X662962Y608906D01*
X663048Y608868D01*
X663131Y608826D01*
X663213Y608781D01*
X663294Y608733D01*
X663372Y608681D01*
X663448Y608626D01*
X661430Y606764D02*
X661371Y606800D01*
X661315Y606840D01*
X661261Y606883D01*
X661209Y606928D01*
X661160Y606977D01*
X661114Y607028D01*
X661071Y607081D01*
X661030Y607137D01*
X660993Y607195D01*
X660958Y607255D01*
X660928Y607316D01*
X660900Y607379D01*
X660876Y607444D01*
X660856Y607510D01*
X660839Y607577D01*
X660826Y607644D01*
X660817Y607712D01*
X660811Y607781D01*
X660809Y607850D01*
X663137Y605832D02*
X663196Y605796D01*
X663252Y605756D01*
X663306Y605713D01*
X663358Y605668D01*
X663407Y605619D01*
X663453Y605568D01*
X663496Y605515D01*
X663537Y605459D01*
X663574Y605401D01*
X663609Y605341D01*
X663639Y605280D01*
X663667Y605217D01*
X663691Y605152D01*
X663711Y605086D01*
X663728Y605019D01*
X663741Y604952D01*
X663750Y604884D01*
X663756Y604815D01*
X663758Y604746D01*
X663138Y605832D02*
X661430Y606764D01*
X667637Y603504D02*
X667707Y603506D01*
X667776Y603512D01*
X667845Y603522D01*
X667913Y603535D01*
X667981Y603553D01*
X668047Y603574D01*
X668112Y603599D01*
X668176Y603627D01*
X668238Y603659D01*
X668298Y603694D01*
X668356Y603733D01*
X668411Y603775D01*
X668465Y603820D01*
X668515Y603868D01*
X668563Y603918D01*
X668608Y603972D01*
X668650Y604027D01*
X668689Y604085D01*
X668724Y604145D01*
X668756Y604207D01*
X668784Y604271D01*
X668809Y604336D01*
X668830Y604402D01*
X668848Y604470D01*
X668861Y604538D01*
X668871Y604607D01*
X668877Y604676D01*
X668879Y604746D01*
X667637Y603504D02*
X667538Y603506D01*
X667440Y603511D01*
X667342Y603521D01*
X667244Y603534D01*
X667147Y603550D01*
X667050Y603570D01*
X666955Y603594D01*
X666860Y603622D01*
X666766Y603653D01*
X666674Y603687D01*
X666583Y603725D01*
X666493Y603766D01*
X666405Y603811D01*
X666319Y603859D01*
X666235Y603910D01*
X666153Y603964D01*
X666072Y604022D01*
X665994Y604082D01*
X665919Y604145D01*
X665845Y604211D01*
X665775Y604280D01*
X665930Y607850D02*
X665932Y607920D01*
X665938Y607989D01*
X665948Y608058D01*
X665961Y608126D01*
X665979Y608194D01*
X666000Y608260D01*
X666025Y608325D01*
X666053Y608389D01*
X666085Y608451D01*
X666120Y608511D01*
X666159Y608569D01*
X666201Y608624D01*
X666246Y608678D01*
X666294Y608728D01*
X666344Y608776D01*
X666398Y608821D01*
X666453Y608863D01*
X666511Y608902D01*
X666571Y608937D01*
X666633Y608969D01*
X666697Y608997D01*
X666762Y609022D01*
X666828Y609043D01*
X666896Y609061D01*
X666964Y609074D01*
X667033Y609084D01*
X667102Y609090D01*
X667172Y609092D01*
X667266Y609090D01*
X667359Y609084D01*
X667452Y609075D01*
X667545Y609062D01*
X667637Y609045D01*
X667728Y609025D01*
X667819Y609000D01*
X667908Y608973D01*
X667996Y608941D01*
X668083Y608906D01*
X668169Y608868D01*
X668252Y608826D01*
X668334Y608781D01*
X668415Y608733D01*
X668493Y608681D01*
X668569Y608626D01*
X666551Y606764D02*
X666492Y606800D01*
X666436Y606840D01*
X666382Y606883D01*
X666330Y606928D01*
X666281Y606977D01*
X666235Y607028D01*
X666192Y607081D01*
X666151Y607137D01*
X666114Y607195D01*
X666079Y607255D01*
X666049Y607316D01*
X666021Y607379D01*
X665997Y607444D01*
X665977Y607510D01*
X665960Y607577D01*
X665947Y607644D01*
X665938Y607712D01*
X665932Y607781D01*
X665930Y607850D01*
X668258Y605832D02*
X668317Y605796D01*
X668373Y605756D01*
X668427Y605713D01*
X668479Y605668D01*
X668528Y605619D01*
X668574Y605568D01*
X668617Y605515D01*
X668658Y605459D01*
X668695Y605401D01*
X668730Y605341D01*
X668760Y605280D01*
X668788Y605217D01*
X668812Y605152D01*
X668832Y605086D01*
X668849Y605019D01*
X668862Y604952D01*
X668871Y604884D01*
X668877Y604815D01*
X668879Y604746D01*
X668258Y605832D02*
X666551Y606764D01*
X660654Y583692D02*
X660654Y578104D01*
X662517Y580588D02*
X660654Y583692D01*
X662517Y580588D02*
X664379Y583692D01*
X664379Y578104D01*
X666999Y579656D02*
X666999Y582140D01*
X667000Y582140D02*
X667002Y582217D01*
X667008Y582295D01*
X667017Y582371D01*
X667031Y582448D01*
X667048Y582523D01*
X667069Y582597D01*
X667094Y582671D01*
X667122Y582743D01*
X667154Y582813D01*
X667189Y582882D01*
X667228Y582949D01*
X667270Y583014D01*
X667315Y583077D01*
X667363Y583138D01*
X667414Y583196D01*
X667468Y583251D01*
X667525Y583304D01*
X667584Y583353D01*
X667646Y583400D01*
X667710Y583444D01*
X667776Y583484D01*
X667844Y583521D01*
X667914Y583555D01*
X667985Y583585D01*
X668058Y583611D01*
X668132Y583634D01*
X668207Y583653D01*
X668282Y583668D01*
X668359Y583680D01*
X668436Y583688D01*
X668513Y583692D01*
X668591Y583692D01*
X668668Y583688D01*
X668745Y583680D01*
X668822Y583668D01*
X668897Y583653D01*
X668972Y583634D01*
X669046Y583611D01*
X669119Y583585D01*
X669190Y583555D01*
X669260Y583521D01*
X669328Y583484D01*
X669394Y583444D01*
X669458Y583400D01*
X669520Y583353D01*
X669579Y583304D01*
X669636Y583251D01*
X669690Y583196D01*
X669741Y583138D01*
X669789Y583077D01*
X669834Y583014D01*
X669876Y582949D01*
X669915Y582882D01*
X669950Y582813D01*
X669982Y582743D01*
X670010Y582671D01*
X670035Y582597D01*
X670056Y582523D01*
X670073Y582448D01*
X670087Y582371D01*
X670096Y582295D01*
X670102Y582217D01*
X670104Y582140D01*
X670104Y579656D01*
X670102Y579579D01*
X670096Y579501D01*
X670087Y579425D01*
X670073Y579348D01*
X670056Y579273D01*
X670035Y579199D01*
X670010Y579125D01*
X669982Y579053D01*
X669950Y578983D01*
X669915Y578914D01*
X669876Y578847D01*
X669834Y578782D01*
X669789Y578719D01*
X669741Y578658D01*
X669690Y578600D01*
X669636Y578545D01*
X669579Y578492D01*
X669520Y578443D01*
X669458Y578396D01*
X669394Y578352D01*
X669328Y578312D01*
X669260Y578275D01*
X669190Y578241D01*
X669119Y578211D01*
X669046Y578185D01*
X668972Y578162D01*
X668897Y578143D01*
X668822Y578128D01*
X668745Y578116D01*
X668668Y578108D01*
X668591Y578104D01*
X668513Y578104D01*
X668436Y578108D01*
X668359Y578116D01*
X668282Y578128D01*
X668207Y578143D01*
X668132Y578162D01*
X668058Y578185D01*
X667985Y578211D01*
X667914Y578241D01*
X667844Y578275D01*
X667776Y578312D01*
X667710Y578352D01*
X667646Y578396D01*
X667584Y578443D01*
X667525Y578492D01*
X667468Y578545D01*
X667414Y578600D01*
X667363Y578658D01*
X667315Y578719D01*
X667270Y578782D01*
X667228Y578847D01*
X667189Y578914D01*
X667154Y578983D01*
X667122Y579053D01*
X667094Y579125D01*
X667069Y579199D01*
X667048Y579273D01*
X667031Y579348D01*
X667017Y579425D01*
X667008Y579501D01*
X667002Y579579D01*
X667000Y579656D01*
X674166Y578104D02*
X674236Y578106D01*
X674305Y578112D01*
X674374Y578122D01*
X674442Y578135D01*
X674510Y578153D01*
X674576Y578174D01*
X674641Y578199D01*
X674705Y578227D01*
X674767Y578259D01*
X674827Y578294D01*
X674885Y578333D01*
X674940Y578375D01*
X674994Y578420D01*
X675044Y578468D01*
X675092Y578518D01*
X675137Y578572D01*
X675179Y578627D01*
X675218Y578685D01*
X675253Y578745D01*
X675285Y578807D01*
X675313Y578871D01*
X675338Y578936D01*
X675359Y579002D01*
X675377Y579070D01*
X675390Y579138D01*
X675400Y579207D01*
X675406Y579276D01*
X675408Y579346D01*
X674166Y578104D02*
X674067Y578106D01*
X673969Y578111D01*
X673871Y578121D01*
X673773Y578134D01*
X673676Y578150D01*
X673579Y578170D01*
X673484Y578194D01*
X673389Y578222D01*
X673295Y578253D01*
X673203Y578287D01*
X673112Y578325D01*
X673022Y578366D01*
X672934Y578411D01*
X672848Y578459D01*
X672764Y578510D01*
X672682Y578564D01*
X672601Y578622D01*
X672523Y578682D01*
X672448Y578745D01*
X672374Y578811D01*
X672304Y578880D01*
X672458Y582450D02*
X672460Y582520D01*
X672466Y582589D01*
X672476Y582658D01*
X672489Y582726D01*
X672507Y582794D01*
X672528Y582860D01*
X672553Y582925D01*
X672581Y582989D01*
X672613Y583051D01*
X672648Y583111D01*
X672687Y583169D01*
X672729Y583224D01*
X672774Y583278D01*
X672822Y583328D01*
X672872Y583376D01*
X672926Y583421D01*
X672981Y583463D01*
X673039Y583502D01*
X673099Y583537D01*
X673161Y583569D01*
X673225Y583597D01*
X673290Y583622D01*
X673356Y583643D01*
X673424Y583661D01*
X673492Y583674D01*
X673561Y583684D01*
X673630Y583690D01*
X673700Y583692D01*
X673794Y583690D01*
X673887Y583684D01*
X673980Y583675D01*
X674073Y583662D01*
X674165Y583645D01*
X674256Y583625D01*
X674347Y583600D01*
X674436Y583573D01*
X674524Y583541D01*
X674611Y583506D01*
X674697Y583468D01*
X674780Y583426D01*
X674862Y583381D01*
X674943Y583333D01*
X675021Y583281D01*
X675097Y583226D01*
X673079Y581364D02*
X673020Y581400D01*
X672964Y581440D01*
X672910Y581483D01*
X672858Y581528D01*
X672809Y581577D01*
X672763Y581628D01*
X672720Y581681D01*
X672679Y581737D01*
X672642Y581795D01*
X672607Y581855D01*
X672577Y581916D01*
X672549Y581979D01*
X672525Y582044D01*
X672505Y582110D01*
X672488Y582177D01*
X672475Y582244D01*
X672466Y582312D01*
X672460Y582381D01*
X672458Y582450D01*
X674786Y580432D02*
X674845Y580396D01*
X674901Y580356D01*
X674955Y580313D01*
X675007Y580268D01*
X675056Y580219D01*
X675102Y580168D01*
X675145Y580115D01*
X675186Y580059D01*
X675223Y580001D01*
X675258Y579941D01*
X675288Y579880D01*
X675316Y579817D01*
X675340Y579752D01*
X675360Y579686D01*
X675377Y579619D01*
X675390Y579552D01*
X675399Y579484D01*
X675405Y579415D01*
X675407Y579346D01*
X674787Y580432D02*
X673079Y581364D01*
X678061Y583692D02*
X678061Y578104D01*
X677441Y578104D02*
X678682Y578104D01*
X678682Y583692D02*
X677441Y583692D01*
X660654Y558292D02*
X660654Y552704D01*
X662517Y555188D02*
X660654Y558292D01*
X662517Y555188D02*
X664379Y558292D01*
X664379Y552704D01*
X667454Y552704D02*
X667454Y558292D01*
X666834Y552704D02*
X668075Y552704D01*
X668075Y558292D02*
X666834Y558292D01*
X671971Y552704D02*
X672041Y552706D01*
X672110Y552712D01*
X672179Y552722D01*
X672247Y552735D01*
X672315Y552753D01*
X672381Y552774D01*
X672446Y552799D01*
X672510Y552827D01*
X672572Y552859D01*
X672632Y552894D01*
X672690Y552933D01*
X672745Y552975D01*
X672799Y553020D01*
X672849Y553068D01*
X672897Y553118D01*
X672942Y553172D01*
X672984Y553227D01*
X673023Y553285D01*
X673058Y553345D01*
X673090Y553407D01*
X673118Y553471D01*
X673143Y553536D01*
X673164Y553602D01*
X673182Y553670D01*
X673195Y553738D01*
X673205Y553807D01*
X673211Y553876D01*
X673213Y553946D01*
X671971Y552704D02*
X671872Y552706D01*
X671774Y552711D01*
X671676Y552721D01*
X671578Y552734D01*
X671481Y552750D01*
X671384Y552770D01*
X671289Y552794D01*
X671194Y552822D01*
X671100Y552853D01*
X671008Y552887D01*
X670917Y552925D01*
X670827Y552966D01*
X670739Y553011D01*
X670653Y553059D01*
X670569Y553110D01*
X670487Y553164D01*
X670406Y553222D01*
X670328Y553282D01*
X670253Y553345D01*
X670179Y553411D01*
X670109Y553480D01*
X670263Y557050D02*
X670265Y557120D01*
X670271Y557189D01*
X670281Y557258D01*
X670294Y557326D01*
X670312Y557394D01*
X670333Y557460D01*
X670358Y557525D01*
X670386Y557589D01*
X670418Y557651D01*
X670453Y557711D01*
X670492Y557769D01*
X670534Y557824D01*
X670579Y557878D01*
X670627Y557928D01*
X670677Y557976D01*
X670731Y558021D01*
X670786Y558063D01*
X670844Y558102D01*
X670904Y558137D01*
X670966Y558169D01*
X671030Y558197D01*
X671095Y558222D01*
X671161Y558243D01*
X671229Y558261D01*
X671297Y558274D01*
X671366Y558284D01*
X671435Y558290D01*
X671505Y558292D01*
X671599Y558290D01*
X671692Y558284D01*
X671785Y558275D01*
X671878Y558262D01*
X671970Y558245D01*
X672061Y558225D01*
X672152Y558200D01*
X672241Y558173D01*
X672329Y558141D01*
X672416Y558106D01*
X672502Y558068D01*
X672585Y558026D01*
X672667Y557981D01*
X672748Y557933D01*
X672826Y557881D01*
X672902Y557826D01*
X670885Y555964D02*
X670826Y556000D01*
X670770Y556040D01*
X670716Y556083D01*
X670664Y556128D01*
X670615Y556177D01*
X670569Y556228D01*
X670526Y556281D01*
X670485Y556337D01*
X670448Y556395D01*
X670413Y556455D01*
X670383Y556516D01*
X670355Y556579D01*
X670331Y556644D01*
X670311Y556710D01*
X670294Y556777D01*
X670281Y556844D01*
X670272Y556912D01*
X670266Y556981D01*
X670264Y557050D01*
X672592Y555032D02*
X672651Y554996D01*
X672707Y554956D01*
X672761Y554913D01*
X672813Y554868D01*
X672862Y554819D01*
X672908Y554768D01*
X672951Y554715D01*
X672992Y554659D01*
X673029Y554601D01*
X673064Y554541D01*
X673094Y554480D01*
X673122Y554417D01*
X673146Y554352D01*
X673166Y554286D01*
X673183Y554219D01*
X673196Y554152D01*
X673205Y554084D01*
X673211Y554015D01*
X673213Y553946D01*
X672592Y555032D02*
X670885Y555964D01*
X675412Y556740D02*
X675412Y554256D01*
X675412Y556740D02*
X675414Y556817D01*
X675420Y556895D01*
X675429Y556971D01*
X675443Y557048D01*
X675460Y557123D01*
X675481Y557197D01*
X675506Y557271D01*
X675534Y557343D01*
X675566Y557413D01*
X675601Y557482D01*
X675640Y557549D01*
X675682Y557614D01*
X675727Y557677D01*
X675775Y557738D01*
X675826Y557796D01*
X675880Y557851D01*
X675937Y557904D01*
X675996Y557953D01*
X676058Y558000D01*
X676122Y558044D01*
X676188Y558084D01*
X676256Y558121D01*
X676326Y558155D01*
X676397Y558185D01*
X676470Y558211D01*
X676544Y558234D01*
X676619Y558253D01*
X676694Y558268D01*
X676771Y558280D01*
X676848Y558288D01*
X676925Y558292D01*
X677003Y558292D01*
X677080Y558288D01*
X677157Y558280D01*
X677234Y558268D01*
X677309Y558253D01*
X677384Y558234D01*
X677458Y558211D01*
X677531Y558185D01*
X677602Y558155D01*
X677672Y558121D01*
X677740Y558084D01*
X677806Y558044D01*
X677870Y558000D01*
X677932Y557953D01*
X677991Y557904D01*
X678048Y557851D01*
X678102Y557796D01*
X678153Y557738D01*
X678201Y557677D01*
X678246Y557614D01*
X678288Y557549D01*
X678327Y557482D01*
X678362Y557413D01*
X678394Y557343D01*
X678422Y557271D01*
X678447Y557197D01*
X678468Y557123D01*
X678485Y557048D01*
X678499Y556971D01*
X678508Y556895D01*
X678514Y556817D01*
X678516Y556740D01*
X678516Y554256D01*
X678514Y554179D01*
X678508Y554101D01*
X678499Y554025D01*
X678485Y553948D01*
X678468Y553873D01*
X678447Y553799D01*
X678422Y553725D01*
X678394Y553653D01*
X678362Y553583D01*
X678327Y553514D01*
X678288Y553447D01*
X678246Y553382D01*
X678201Y553319D01*
X678153Y553258D01*
X678102Y553200D01*
X678048Y553145D01*
X677991Y553092D01*
X677932Y553043D01*
X677870Y552996D01*
X677806Y552952D01*
X677740Y552912D01*
X677672Y552875D01*
X677602Y552841D01*
X677531Y552811D01*
X677458Y552785D01*
X677384Y552762D01*
X677309Y552743D01*
X677234Y552728D01*
X677157Y552716D01*
X677080Y552708D01*
X677003Y552704D01*
X676925Y552704D01*
X676848Y552708D01*
X676771Y552716D01*
X676694Y552728D01*
X676619Y552743D01*
X676544Y552762D01*
X676470Y552785D01*
X676397Y552811D01*
X676326Y552841D01*
X676256Y552875D01*
X676188Y552912D01*
X676122Y552952D01*
X676058Y552996D01*
X675996Y553043D01*
X675937Y553092D01*
X675880Y553145D01*
X675826Y553200D01*
X675775Y553258D01*
X675727Y553319D01*
X675682Y553382D01*
X675640Y553447D01*
X675601Y553514D01*
X675566Y553583D01*
X675534Y553653D01*
X675506Y553725D01*
X675481Y553799D01*
X675460Y553873D01*
X675443Y553948D01*
X675429Y554025D01*
X675420Y554101D01*
X675414Y554179D01*
X675412Y554256D01*
X663759Y528546D02*
X663757Y528476D01*
X663751Y528407D01*
X663741Y528338D01*
X663728Y528270D01*
X663710Y528202D01*
X663689Y528136D01*
X663664Y528071D01*
X663636Y528007D01*
X663604Y527945D01*
X663569Y527885D01*
X663530Y527827D01*
X663488Y527772D01*
X663443Y527718D01*
X663395Y527668D01*
X663345Y527620D01*
X663291Y527575D01*
X663236Y527533D01*
X663178Y527494D01*
X663118Y527459D01*
X663056Y527427D01*
X662992Y527399D01*
X662927Y527374D01*
X662861Y527353D01*
X662793Y527335D01*
X662725Y527322D01*
X662656Y527312D01*
X662587Y527306D01*
X662517Y527304D01*
X662418Y527306D01*
X662320Y527311D01*
X662222Y527321D01*
X662124Y527334D01*
X662027Y527350D01*
X661930Y527370D01*
X661835Y527394D01*
X661740Y527422D01*
X661646Y527453D01*
X661554Y527487D01*
X661463Y527525D01*
X661373Y527566D01*
X661285Y527611D01*
X661199Y527659D01*
X661115Y527710D01*
X661033Y527764D01*
X660952Y527822D01*
X660874Y527882D01*
X660799Y527945D01*
X660725Y528011D01*
X660655Y528080D01*
X660809Y531650D02*
X660811Y531720D01*
X660817Y531789D01*
X660827Y531858D01*
X660840Y531926D01*
X660858Y531994D01*
X660879Y532060D01*
X660904Y532125D01*
X660932Y532189D01*
X660964Y532251D01*
X660999Y532311D01*
X661038Y532369D01*
X661080Y532424D01*
X661125Y532478D01*
X661173Y532528D01*
X661223Y532576D01*
X661277Y532621D01*
X661332Y532663D01*
X661390Y532702D01*
X661450Y532737D01*
X661512Y532769D01*
X661576Y532797D01*
X661641Y532822D01*
X661707Y532843D01*
X661775Y532861D01*
X661843Y532874D01*
X661912Y532884D01*
X661981Y532890D01*
X662051Y532892D01*
X662145Y532890D01*
X662238Y532884D01*
X662331Y532875D01*
X662424Y532862D01*
X662516Y532845D01*
X662607Y532825D01*
X662698Y532800D01*
X662787Y532773D01*
X662875Y532741D01*
X662962Y532706D01*
X663048Y532668D01*
X663131Y532626D01*
X663213Y532581D01*
X663294Y532533D01*
X663372Y532481D01*
X663448Y532426D01*
X661430Y530564D02*
X661371Y530600D01*
X661315Y530640D01*
X661261Y530683D01*
X661209Y530728D01*
X661160Y530777D01*
X661114Y530828D01*
X661071Y530881D01*
X661030Y530937D01*
X660993Y530995D01*
X660958Y531055D01*
X660928Y531116D01*
X660900Y531179D01*
X660876Y531244D01*
X660856Y531310D01*
X660839Y531377D01*
X660826Y531444D01*
X660817Y531512D01*
X660811Y531581D01*
X660809Y531650D01*
X663137Y529632D02*
X663196Y529596D01*
X663252Y529556D01*
X663306Y529513D01*
X663358Y529468D01*
X663407Y529419D01*
X663453Y529368D01*
X663496Y529315D01*
X663537Y529259D01*
X663574Y529201D01*
X663609Y529141D01*
X663639Y529080D01*
X663667Y529017D01*
X663691Y528952D01*
X663711Y528886D01*
X663728Y528819D01*
X663741Y528752D01*
X663750Y528684D01*
X663756Y528615D01*
X663758Y528546D01*
X663138Y529632D02*
X661430Y530564D01*
X667183Y527304D02*
X668425Y527304D01*
X667183Y527304D02*
X667113Y527306D01*
X667044Y527312D01*
X666975Y527322D01*
X666907Y527335D01*
X666839Y527353D01*
X666773Y527374D01*
X666708Y527399D01*
X666644Y527427D01*
X666582Y527459D01*
X666522Y527494D01*
X666464Y527533D01*
X666409Y527575D01*
X666355Y527620D01*
X666305Y527668D01*
X666257Y527718D01*
X666212Y527772D01*
X666170Y527827D01*
X666131Y527885D01*
X666096Y527945D01*
X666064Y528007D01*
X666036Y528071D01*
X666011Y528136D01*
X665990Y528202D01*
X665972Y528270D01*
X665959Y528338D01*
X665949Y528407D01*
X665943Y528476D01*
X665941Y528546D01*
X665941Y531650D01*
X665943Y531720D01*
X665949Y531789D01*
X665959Y531858D01*
X665972Y531926D01*
X665990Y531994D01*
X666011Y532060D01*
X666036Y532125D01*
X666064Y532189D01*
X666096Y532251D01*
X666131Y532311D01*
X666170Y532369D01*
X666212Y532424D01*
X666257Y532478D01*
X666305Y532528D01*
X666355Y532576D01*
X666409Y532621D01*
X666464Y532663D01*
X666522Y532702D01*
X666582Y532737D01*
X666644Y532769D01*
X666708Y532797D01*
X666773Y532822D01*
X666839Y532843D01*
X666907Y532861D01*
X666975Y532874D01*
X667044Y532884D01*
X667113Y532890D01*
X667183Y532892D01*
X668425Y532892D01*
X670795Y532892D02*
X670795Y527304D01*
X670795Y529477D02*
X673900Y532892D01*
X672037Y530719D02*
X673900Y527304D01*
X663758Y505008D02*
X662827Y505008D01*
X663758Y505008D02*
X663758Y501904D01*
X661896Y501904D01*
X661826Y501906D01*
X661757Y501912D01*
X661688Y501922D01*
X661620Y501935D01*
X661552Y501953D01*
X661486Y501974D01*
X661421Y501999D01*
X661357Y502027D01*
X661295Y502059D01*
X661235Y502094D01*
X661177Y502133D01*
X661122Y502175D01*
X661068Y502220D01*
X661018Y502268D01*
X660970Y502318D01*
X660925Y502372D01*
X660883Y502427D01*
X660844Y502485D01*
X660809Y502545D01*
X660777Y502607D01*
X660749Y502671D01*
X660724Y502736D01*
X660703Y502802D01*
X660685Y502870D01*
X660672Y502938D01*
X660662Y503007D01*
X660656Y503076D01*
X660654Y503146D01*
X660654Y506250D01*
X660656Y506320D01*
X660662Y506389D01*
X660672Y506458D01*
X660685Y506526D01*
X660703Y506594D01*
X660724Y506660D01*
X660749Y506725D01*
X660777Y506789D01*
X660809Y506851D01*
X660844Y506911D01*
X660883Y506969D01*
X660925Y507024D01*
X660970Y507078D01*
X661018Y507128D01*
X661068Y507176D01*
X661122Y507221D01*
X661177Y507263D01*
X661235Y507302D01*
X661295Y507337D01*
X661357Y507369D01*
X661421Y507397D01*
X661486Y507422D01*
X661552Y507443D01*
X661620Y507461D01*
X661688Y507474D01*
X661757Y507484D01*
X661826Y507490D01*
X661896Y507492D01*
X663758Y507492D01*
X666506Y507492D02*
X666506Y501904D01*
X669611Y501904D02*
X666506Y507492D01*
X669611Y507492D02*
X669611Y501904D01*
X672358Y501904D02*
X672358Y507492D01*
X673910Y507492D01*
X673986Y507490D01*
X674062Y507485D01*
X674138Y507475D01*
X674213Y507462D01*
X674287Y507445D01*
X674361Y507425D01*
X674433Y507401D01*
X674504Y507374D01*
X674574Y507343D01*
X674642Y507309D01*
X674708Y507271D01*
X674772Y507230D01*
X674835Y507187D01*
X674895Y507140D01*
X674952Y507090D01*
X675007Y507037D01*
X675060Y506982D01*
X675110Y506925D01*
X675157Y506865D01*
X675200Y506802D01*
X675241Y506738D01*
X675279Y506672D01*
X675313Y506604D01*
X675344Y506534D01*
X675371Y506463D01*
X675395Y506390D01*
X675415Y506317D01*
X675432Y506243D01*
X675445Y506168D01*
X675455Y506092D01*
X675460Y506016D01*
X675462Y505940D01*
X675463Y505940D02*
X675463Y503456D01*
X675462Y503456D02*
X675460Y503377D01*
X675454Y503299D01*
X675444Y503221D01*
X675430Y503144D01*
X675412Y503067D01*
X675391Y502991D01*
X675365Y502917D01*
X675336Y502844D01*
X675303Y502773D01*
X675267Y502703D01*
X675227Y502635D01*
X675184Y502569D01*
X675137Y502506D01*
X675088Y502445D01*
X675035Y502387D01*
X674979Y502331D01*
X674921Y502278D01*
X674860Y502229D01*
X674797Y502182D01*
X674731Y502139D01*
X674663Y502099D01*
X674594Y502063D01*
X674522Y502030D01*
X674449Y502001D01*
X674375Y501975D01*
X674299Y501954D01*
X674222Y501936D01*
X674145Y501922D01*
X674067Y501912D01*
X673989Y501906D01*
X673910Y501904D01*
X672358Y501904D01*
X660654Y482092D02*
X662517Y476504D01*
X664379Y482092D01*
X667676Y476504D02*
X668918Y476504D01*
X667676Y476504D02*
X667606Y476506D01*
X667537Y476512D01*
X667468Y476522D01*
X667400Y476535D01*
X667332Y476553D01*
X667266Y476574D01*
X667201Y476599D01*
X667137Y476627D01*
X667075Y476659D01*
X667015Y476694D01*
X666957Y476733D01*
X666902Y476775D01*
X666848Y476820D01*
X666798Y476868D01*
X666750Y476918D01*
X666705Y476972D01*
X666663Y477027D01*
X666624Y477085D01*
X666589Y477145D01*
X666557Y477207D01*
X666529Y477271D01*
X666504Y477336D01*
X666483Y477402D01*
X666465Y477470D01*
X666452Y477538D01*
X666442Y477607D01*
X666436Y477676D01*
X666434Y477746D01*
X666435Y477746D02*
X666435Y480850D01*
X666434Y480850D02*
X666436Y480920D01*
X666442Y480989D01*
X666452Y481058D01*
X666465Y481126D01*
X666483Y481194D01*
X666504Y481260D01*
X666529Y481325D01*
X666557Y481389D01*
X666589Y481451D01*
X666624Y481511D01*
X666663Y481569D01*
X666705Y481624D01*
X666750Y481678D01*
X666798Y481728D01*
X666848Y481776D01*
X666902Y481821D01*
X666957Y481863D01*
X667015Y481902D01*
X667075Y481937D01*
X667137Y481969D01*
X667201Y481997D01*
X667266Y482022D01*
X667332Y482043D01*
X667400Y482061D01*
X667468Y482074D01*
X667537Y482084D01*
X667606Y482090D01*
X667676Y482092D01*
X668918Y482092D01*
X672248Y476504D02*
X673490Y476504D01*
X672248Y476504D02*
X672178Y476506D01*
X672109Y476512D01*
X672040Y476522D01*
X671972Y476535D01*
X671904Y476553D01*
X671838Y476574D01*
X671773Y476599D01*
X671709Y476627D01*
X671647Y476659D01*
X671587Y476694D01*
X671529Y476733D01*
X671474Y476775D01*
X671420Y476820D01*
X671370Y476868D01*
X671322Y476918D01*
X671277Y476972D01*
X671235Y477027D01*
X671196Y477085D01*
X671161Y477145D01*
X671129Y477207D01*
X671101Y477271D01*
X671076Y477336D01*
X671055Y477402D01*
X671037Y477470D01*
X671024Y477538D01*
X671014Y477607D01*
X671008Y477676D01*
X671006Y477746D01*
X671006Y480850D01*
X671008Y480920D01*
X671014Y480989D01*
X671024Y481058D01*
X671037Y481126D01*
X671055Y481194D01*
X671076Y481260D01*
X671101Y481325D01*
X671129Y481389D01*
X671161Y481451D01*
X671196Y481511D01*
X671235Y481569D01*
X671277Y481624D01*
X671322Y481678D01*
X671370Y481728D01*
X671420Y481776D01*
X671474Y481821D01*
X671529Y481863D01*
X671587Y481902D01*
X671647Y481937D01*
X671709Y481969D01*
X671773Y481997D01*
X671838Y482022D01*
X671904Y482043D01*
X671972Y482061D01*
X672040Y482074D01*
X672109Y482084D01*
X672178Y482090D01*
X672248Y482092D01*
X673490Y482092D01*
X622554Y717804D02*
X622554Y723392D01*
X624106Y723392D01*
X624182Y723390D01*
X624258Y723385D01*
X624334Y723375D01*
X624409Y723362D01*
X624483Y723345D01*
X624557Y723325D01*
X624629Y723301D01*
X624700Y723274D01*
X624770Y723243D01*
X624838Y723209D01*
X624904Y723171D01*
X624968Y723130D01*
X625031Y723087D01*
X625091Y723040D01*
X625148Y722990D01*
X625203Y722937D01*
X625256Y722882D01*
X625306Y722825D01*
X625353Y722765D01*
X625396Y722702D01*
X625437Y722638D01*
X625475Y722572D01*
X625509Y722504D01*
X625540Y722434D01*
X625567Y722363D01*
X625591Y722290D01*
X625611Y722217D01*
X625628Y722143D01*
X625641Y722068D01*
X625651Y721992D01*
X625656Y721916D01*
X625658Y721840D01*
X625658Y719356D01*
X625656Y719277D01*
X625650Y719199D01*
X625640Y719121D01*
X625626Y719044D01*
X625608Y718967D01*
X625587Y718891D01*
X625561Y718817D01*
X625532Y718744D01*
X625499Y718673D01*
X625463Y718603D01*
X625423Y718535D01*
X625380Y718469D01*
X625333Y718406D01*
X625284Y718345D01*
X625231Y718287D01*
X625175Y718231D01*
X625117Y718178D01*
X625056Y718129D01*
X624993Y718082D01*
X624927Y718039D01*
X624859Y717999D01*
X624790Y717963D01*
X624718Y717930D01*
X624645Y717901D01*
X624571Y717875D01*
X624495Y717854D01*
X624418Y717836D01*
X624341Y717822D01*
X624263Y717812D01*
X624185Y717806D01*
X624106Y717804D01*
X622554Y717804D01*
X627913Y717804D02*
X629775Y723392D01*
X631638Y717804D01*
X631172Y719201D02*
X628378Y719201D01*
X634896Y717804D02*
X634896Y723392D01*
X633344Y723392D02*
X636448Y723392D01*
X640017Y723392D02*
X638154Y717804D01*
X641879Y717804D02*
X640017Y723392D01*
X641414Y719201D02*
X638620Y719201D01*
X624417Y730504D02*
X622554Y730504D01*
X624417Y730504D02*
X624487Y730506D01*
X624556Y730512D01*
X624625Y730522D01*
X624693Y730535D01*
X624761Y730553D01*
X624827Y730574D01*
X624892Y730599D01*
X624956Y730627D01*
X625018Y730659D01*
X625078Y730694D01*
X625136Y730733D01*
X625191Y730775D01*
X625245Y730820D01*
X625295Y730868D01*
X625343Y730918D01*
X625388Y730972D01*
X625430Y731027D01*
X625469Y731085D01*
X625504Y731145D01*
X625536Y731207D01*
X625564Y731271D01*
X625589Y731336D01*
X625610Y731402D01*
X625628Y731470D01*
X625641Y731538D01*
X625651Y731607D01*
X625657Y731676D01*
X625659Y731746D01*
X625658Y731746D02*
X625658Y732367D01*
X625659Y732367D02*
X625657Y732437D01*
X625651Y732506D01*
X625641Y732575D01*
X625628Y732643D01*
X625610Y732711D01*
X625589Y732777D01*
X625564Y732842D01*
X625536Y732906D01*
X625504Y732968D01*
X625469Y733028D01*
X625430Y733086D01*
X625388Y733141D01*
X625343Y733195D01*
X625295Y733245D01*
X625245Y733293D01*
X625191Y733338D01*
X625136Y733380D01*
X625078Y733419D01*
X625018Y733454D01*
X624956Y733486D01*
X624892Y733514D01*
X624827Y733539D01*
X624761Y733560D01*
X624693Y733578D01*
X624625Y733591D01*
X624556Y733601D01*
X624487Y733607D01*
X624417Y733609D01*
X624417Y733608D02*
X622554Y733608D01*
X622554Y736092D01*
X625658Y736092D01*
X627730Y736092D02*
X629593Y730504D01*
X631455Y736092D01*
X625658Y746308D02*
X624727Y746308D01*
X625658Y746308D02*
X625658Y743204D01*
X623796Y743204D01*
X623726Y743206D01*
X623657Y743212D01*
X623588Y743222D01*
X623520Y743235D01*
X623452Y743253D01*
X623386Y743274D01*
X623321Y743299D01*
X623257Y743327D01*
X623195Y743359D01*
X623135Y743394D01*
X623077Y743433D01*
X623022Y743475D01*
X622968Y743520D01*
X622918Y743568D01*
X622870Y743618D01*
X622825Y743672D01*
X622783Y743727D01*
X622744Y743785D01*
X622709Y743845D01*
X622677Y743907D01*
X622649Y743971D01*
X622624Y744036D01*
X622603Y744102D01*
X622585Y744170D01*
X622572Y744238D01*
X622562Y744307D01*
X622556Y744376D01*
X622554Y744446D01*
X622554Y747550D01*
X622556Y747620D01*
X622562Y747689D01*
X622572Y747758D01*
X622585Y747826D01*
X622603Y747894D01*
X622624Y747960D01*
X622649Y748025D01*
X622677Y748089D01*
X622709Y748151D01*
X622744Y748211D01*
X622783Y748269D01*
X622825Y748324D01*
X622870Y748378D01*
X622918Y748428D01*
X622968Y748476D01*
X623022Y748521D01*
X623077Y748563D01*
X623135Y748602D01*
X623195Y748637D01*
X623257Y748669D01*
X623321Y748697D01*
X623386Y748722D01*
X623452Y748743D01*
X623520Y748761D01*
X623588Y748774D01*
X623657Y748784D01*
X623726Y748790D01*
X623796Y748792D01*
X625658Y748792D01*
X628406Y748792D02*
X628406Y743204D01*
X631511Y743204D02*
X628406Y748792D01*
X631511Y748792D02*
X631511Y743204D01*
X634258Y743204D02*
X634258Y748792D01*
X635810Y748792D01*
X635886Y748790D01*
X635962Y748785D01*
X636038Y748775D01*
X636113Y748762D01*
X636187Y748745D01*
X636261Y748725D01*
X636333Y748701D01*
X636404Y748674D01*
X636474Y748643D01*
X636542Y748609D01*
X636608Y748571D01*
X636672Y748530D01*
X636735Y748487D01*
X636795Y748440D01*
X636852Y748390D01*
X636907Y748337D01*
X636960Y748282D01*
X637010Y748225D01*
X637057Y748165D01*
X637100Y748102D01*
X637141Y748038D01*
X637179Y747972D01*
X637213Y747904D01*
X637244Y747834D01*
X637271Y747763D01*
X637295Y747690D01*
X637315Y747617D01*
X637332Y747543D01*
X637345Y747468D01*
X637355Y747392D01*
X637360Y747316D01*
X637362Y747240D01*
X637363Y747240D02*
X637363Y744756D01*
X637362Y744756D02*
X637360Y744677D01*
X637354Y744599D01*
X637344Y744521D01*
X637330Y744444D01*
X637312Y744367D01*
X637291Y744291D01*
X637265Y744217D01*
X637236Y744144D01*
X637203Y744073D01*
X637167Y744003D01*
X637127Y743935D01*
X637084Y743869D01*
X637037Y743806D01*
X636988Y743745D01*
X636935Y743687D01*
X636879Y743631D01*
X636821Y743578D01*
X636760Y743529D01*
X636697Y743482D01*
X636631Y743439D01*
X636563Y743399D01*
X636494Y743363D01*
X636422Y743330D01*
X636349Y743301D01*
X636275Y743275D01*
X636199Y743254D01*
X636122Y743236D01*
X636045Y743222D01*
X635967Y743212D01*
X635889Y743206D01*
X635810Y743204D01*
X634258Y743204D01*
X289108Y612958D02*
X288177Y612958D01*
X289108Y612958D02*
X289108Y609854D01*
X287246Y609854D01*
X287176Y609856D01*
X287107Y609862D01*
X287038Y609872D01*
X286970Y609885D01*
X286902Y609903D01*
X286836Y609924D01*
X286771Y609949D01*
X286707Y609977D01*
X286645Y610009D01*
X286585Y610044D01*
X286527Y610083D01*
X286472Y610125D01*
X286418Y610170D01*
X286368Y610218D01*
X286320Y610268D01*
X286275Y610322D01*
X286233Y610377D01*
X286194Y610435D01*
X286159Y610495D01*
X286127Y610557D01*
X286099Y610621D01*
X286074Y610686D01*
X286053Y610752D01*
X286035Y610820D01*
X286022Y610888D01*
X286012Y610957D01*
X286006Y611026D01*
X286004Y611096D01*
X286004Y614200D01*
X286006Y614270D01*
X286012Y614339D01*
X286022Y614408D01*
X286035Y614476D01*
X286053Y614544D01*
X286074Y614610D01*
X286099Y614675D01*
X286127Y614739D01*
X286159Y614801D01*
X286194Y614861D01*
X286233Y614919D01*
X286275Y614974D01*
X286320Y615028D01*
X286368Y615078D01*
X286418Y615126D01*
X286472Y615171D01*
X286527Y615213D01*
X286585Y615252D01*
X286645Y615287D01*
X286707Y615319D01*
X286771Y615347D01*
X286836Y615372D01*
X286902Y615393D01*
X286970Y615411D01*
X287038Y615424D01*
X287107Y615434D01*
X287176Y615440D01*
X287246Y615442D01*
X289108Y615442D01*
X291856Y615442D02*
X291856Y609854D01*
X294961Y609854D02*
X291856Y615442D01*
X294961Y615442D02*
X294961Y609854D01*
X297708Y609854D02*
X297708Y615442D01*
X299260Y615442D01*
X299336Y615440D01*
X299412Y615435D01*
X299488Y615425D01*
X299563Y615412D01*
X299637Y615395D01*
X299711Y615375D01*
X299783Y615351D01*
X299854Y615324D01*
X299924Y615293D01*
X299992Y615259D01*
X300058Y615221D01*
X300122Y615180D01*
X300185Y615137D01*
X300245Y615090D01*
X300302Y615040D01*
X300357Y614987D01*
X300410Y614932D01*
X300460Y614875D01*
X300507Y614815D01*
X300550Y614752D01*
X300591Y614688D01*
X300629Y614622D01*
X300663Y614554D01*
X300694Y614484D01*
X300721Y614413D01*
X300745Y614340D01*
X300765Y614267D01*
X300782Y614193D01*
X300795Y614118D01*
X300805Y614042D01*
X300810Y613966D01*
X300812Y613890D01*
X300813Y613890D02*
X300813Y611406D01*
X300812Y611406D02*
X300810Y611327D01*
X300804Y611249D01*
X300794Y611171D01*
X300780Y611094D01*
X300762Y611017D01*
X300741Y610941D01*
X300715Y610867D01*
X300686Y610794D01*
X300653Y610723D01*
X300617Y610653D01*
X300577Y610585D01*
X300534Y610519D01*
X300487Y610456D01*
X300438Y610395D01*
X300385Y610337D01*
X300329Y610281D01*
X300271Y610228D01*
X300210Y610179D01*
X300147Y610132D01*
X300081Y610089D01*
X300013Y610049D01*
X299944Y610013D01*
X299872Y609980D01*
X299799Y609951D01*
X299725Y609925D01*
X299649Y609904D01*
X299572Y609886D01*
X299495Y609872D01*
X299417Y609862D01*
X299339Y609856D01*
X299260Y609854D01*
X297708Y609854D01*
X398247Y368046D02*
X398247Y362458D01*
X398247Y368046D02*
X399800Y368046D01*
X399877Y368044D01*
X399955Y368038D01*
X400031Y368029D01*
X400108Y368015D01*
X400183Y367998D01*
X400257Y367977D01*
X400331Y367952D01*
X400403Y367924D01*
X400473Y367892D01*
X400542Y367857D01*
X400609Y367818D01*
X400674Y367776D01*
X400737Y367731D01*
X400798Y367683D01*
X400856Y367632D01*
X400911Y367578D01*
X400964Y367521D01*
X401013Y367462D01*
X401060Y367400D01*
X401104Y367336D01*
X401144Y367270D01*
X401181Y367202D01*
X401215Y367132D01*
X401245Y367061D01*
X401271Y366988D01*
X401294Y366914D01*
X401313Y366839D01*
X401328Y366764D01*
X401340Y366687D01*
X401348Y366610D01*
X401352Y366533D01*
X401352Y366455D01*
X401348Y366378D01*
X401340Y366301D01*
X401328Y366224D01*
X401313Y366149D01*
X401294Y366074D01*
X401271Y366000D01*
X401245Y365927D01*
X401215Y365856D01*
X401181Y365786D01*
X401144Y365718D01*
X401104Y365652D01*
X401060Y365588D01*
X401013Y365526D01*
X400964Y365467D01*
X400911Y365410D01*
X400856Y365356D01*
X400798Y365305D01*
X400737Y365257D01*
X400674Y365212D01*
X400609Y365170D01*
X400542Y365131D01*
X400473Y365096D01*
X400403Y365064D01*
X400331Y365036D01*
X400257Y365011D01*
X400183Y364990D01*
X400108Y364973D01*
X400031Y364959D01*
X399955Y364950D01*
X399877Y364944D01*
X399800Y364942D01*
X398247Y364942D01*
X400110Y364942D02*
X401352Y362458D01*
X406890Y365562D02*
X408442Y365562D01*
X408519Y365560D01*
X408597Y365554D01*
X408673Y365545D01*
X408750Y365531D01*
X408825Y365514D01*
X408899Y365493D01*
X408973Y365468D01*
X409045Y365440D01*
X409115Y365408D01*
X409184Y365373D01*
X409251Y365334D01*
X409316Y365292D01*
X409379Y365247D01*
X409440Y365199D01*
X409498Y365148D01*
X409553Y365094D01*
X409606Y365037D01*
X409655Y364978D01*
X409702Y364916D01*
X409746Y364852D01*
X409786Y364786D01*
X409823Y364718D01*
X409857Y364648D01*
X409887Y364577D01*
X409913Y364504D01*
X409936Y364430D01*
X409955Y364355D01*
X409970Y364280D01*
X409982Y364203D01*
X409990Y364126D01*
X409994Y364049D01*
X409994Y363971D01*
X409990Y363894D01*
X409982Y363817D01*
X409970Y363740D01*
X409955Y363665D01*
X409936Y363590D01*
X409913Y363516D01*
X409887Y363443D01*
X409857Y363372D01*
X409823Y363302D01*
X409786Y363234D01*
X409746Y363168D01*
X409702Y363104D01*
X409655Y363042D01*
X409606Y362983D01*
X409553Y362926D01*
X409498Y362872D01*
X409440Y362821D01*
X409379Y362773D01*
X409316Y362728D01*
X409251Y362686D01*
X409184Y362647D01*
X409115Y362612D01*
X409045Y362580D01*
X408973Y362552D01*
X408899Y362527D01*
X408825Y362506D01*
X408750Y362489D01*
X408673Y362475D01*
X408597Y362466D01*
X408519Y362460D01*
X408442Y362458D01*
X406890Y362458D01*
X406890Y368046D01*
X408442Y368046D01*
X408512Y368044D01*
X408581Y368038D01*
X408650Y368028D01*
X408718Y368015D01*
X408786Y367997D01*
X408852Y367976D01*
X408917Y367951D01*
X408981Y367923D01*
X409043Y367891D01*
X409103Y367856D01*
X409161Y367817D01*
X409216Y367775D01*
X409270Y367730D01*
X409320Y367682D01*
X409368Y367632D01*
X409413Y367578D01*
X409455Y367523D01*
X409494Y367465D01*
X409529Y367405D01*
X409561Y367343D01*
X409589Y367279D01*
X409614Y367214D01*
X409635Y367148D01*
X409653Y367080D01*
X409666Y367012D01*
X409676Y366943D01*
X409682Y366874D01*
X409684Y366804D01*
X409682Y366734D01*
X409676Y366665D01*
X409666Y366596D01*
X409653Y366528D01*
X409635Y366460D01*
X409614Y366394D01*
X409589Y366329D01*
X409561Y366265D01*
X409529Y366203D01*
X409494Y366143D01*
X409455Y366085D01*
X409413Y366030D01*
X409368Y365976D01*
X409320Y365926D01*
X409270Y365878D01*
X409216Y365833D01*
X409161Y365791D01*
X409103Y365752D01*
X409043Y365717D01*
X408981Y365685D01*
X408917Y365657D01*
X408852Y365632D01*
X408786Y365611D01*
X408718Y365593D01*
X408650Y365580D01*
X408581Y365570D01*
X408512Y365564D01*
X408442Y365562D01*
X412238Y366183D02*
X412238Y363389D01*
X412240Y363331D01*
X412245Y363272D01*
X412254Y363215D01*
X412267Y363157D01*
X412284Y363101D01*
X412303Y363046D01*
X412327Y362993D01*
X412353Y362940D01*
X412383Y362890D01*
X412416Y362842D01*
X412452Y362796D01*
X412490Y362752D01*
X412532Y362710D01*
X412576Y362672D01*
X412622Y362636D01*
X412670Y362603D01*
X412720Y362573D01*
X412773Y362547D01*
X412826Y362523D01*
X412881Y362504D01*
X412937Y362487D01*
X412995Y362474D01*
X413052Y362465D01*
X413111Y362460D01*
X413169Y362458D01*
X414721Y362458D01*
X414721Y366183D01*
X416709Y366183D02*
X418572Y366183D01*
X417330Y368046D02*
X417330Y363389D01*
X417332Y363331D01*
X417337Y363272D01*
X417346Y363215D01*
X417359Y363157D01*
X417376Y363101D01*
X417395Y363046D01*
X417419Y362993D01*
X417445Y362940D01*
X417475Y362890D01*
X417508Y362842D01*
X417544Y362796D01*
X417582Y362752D01*
X417624Y362710D01*
X417668Y362672D01*
X417714Y362636D01*
X417762Y362603D01*
X417813Y362573D01*
X417865Y362547D01*
X417918Y362523D01*
X417973Y362504D01*
X418029Y362487D01*
X418087Y362474D01*
X418144Y362465D01*
X418203Y362460D01*
X418261Y362458D01*
X418572Y362458D01*
X420184Y366183D02*
X422046Y366183D01*
X420805Y368046D02*
X420805Y363389D01*
X420807Y363331D01*
X420812Y363272D01*
X420821Y363215D01*
X420834Y363157D01*
X420851Y363101D01*
X420870Y363046D01*
X420894Y362993D01*
X420920Y362940D01*
X420950Y362890D01*
X420983Y362842D01*
X421019Y362796D01*
X421057Y362752D01*
X421099Y362710D01*
X421143Y362672D01*
X421189Y362636D01*
X421237Y362603D01*
X421288Y362573D01*
X421340Y362547D01*
X421393Y362523D01*
X421448Y362504D01*
X421504Y362487D01*
X421562Y362474D01*
X421619Y362465D01*
X421678Y362460D01*
X421736Y362458D01*
X422046Y362458D01*
X424125Y363700D02*
X424125Y364942D01*
X424127Y365012D01*
X424133Y365081D01*
X424143Y365150D01*
X424156Y365218D01*
X424174Y365286D01*
X424195Y365352D01*
X424220Y365417D01*
X424248Y365481D01*
X424280Y365543D01*
X424315Y365603D01*
X424354Y365661D01*
X424396Y365716D01*
X424441Y365770D01*
X424489Y365820D01*
X424539Y365868D01*
X424593Y365913D01*
X424648Y365955D01*
X424706Y365994D01*
X424766Y366029D01*
X424828Y366061D01*
X424892Y366089D01*
X424957Y366114D01*
X425023Y366135D01*
X425091Y366153D01*
X425159Y366166D01*
X425228Y366176D01*
X425297Y366182D01*
X425367Y366184D01*
X425437Y366182D01*
X425506Y366176D01*
X425575Y366166D01*
X425643Y366153D01*
X425711Y366135D01*
X425777Y366114D01*
X425842Y366089D01*
X425906Y366061D01*
X425968Y366029D01*
X426028Y365994D01*
X426086Y365955D01*
X426141Y365913D01*
X426195Y365868D01*
X426245Y365820D01*
X426293Y365770D01*
X426338Y365716D01*
X426380Y365661D01*
X426419Y365603D01*
X426454Y365543D01*
X426486Y365481D01*
X426514Y365417D01*
X426539Y365352D01*
X426560Y365286D01*
X426578Y365218D01*
X426591Y365150D01*
X426601Y365081D01*
X426607Y365012D01*
X426609Y364942D01*
X426608Y364942D02*
X426608Y363700D01*
X426609Y363700D02*
X426607Y363630D01*
X426601Y363561D01*
X426591Y363492D01*
X426578Y363424D01*
X426560Y363356D01*
X426539Y363290D01*
X426514Y363225D01*
X426486Y363161D01*
X426454Y363099D01*
X426419Y363039D01*
X426380Y362981D01*
X426338Y362926D01*
X426293Y362872D01*
X426245Y362822D01*
X426195Y362774D01*
X426141Y362729D01*
X426086Y362687D01*
X426028Y362648D01*
X425968Y362613D01*
X425906Y362581D01*
X425842Y362553D01*
X425777Y362528D01*
X425711Y362507D01*
X425643Y362489D01*
X425575Y362476D01*
X425506Y362466D01*
X425437Y362460D01*
X425367Y362458D01*
X425297Y362460D01*
X425228Y362466D01*
X425159Y362476D01*
X425091Y362489D01*
X425023Y362507D01*
X424957Y362528D01*
X424892Y362553D01*
X424828Y362581D01*
X424766Y362613D01*
X424706Y362648D01*
X424648Y362687D01*
X424593Y362729D01*
X424539Y362774D01*
X424489Y362822D01*
X424441Y362872D01*
X424396Y362926D01*
X424354Y362981D01*
X424315Y363039D01*
X424280Y363099D01*
X424248Y363161D01*
X424220Y363225D01*
X424195Y363290D01*
X424174Y363356D01*
X424156Y363424D01*
X424143Y363492D01*
X424133Y363561D01*
X424127Y363630D01*
X424125Y363700D01*
X429062Y362458D02*
X429062Y366183D01*
X430615Y366183D01*
X430673Y366181D01*
X430732Y366176D01*
X430789Y366167D01*
X430847Y366154D01*
X430903Y366137D01*
X430958Y366118D01*
X431011Y366094D01*
X431064Y366068D01*
X431114Y366038D01*
X431162Y366005D01*
X431208Y365969D01*
X431252Y365931D01*
X431294Y365889D01*
X431332Y365845D01*
X431368Y365799D01*
X431401Y365751D01*
X431431Y365701D01*
X431457Y365648D01*
X431481Y365595D01*
X431500Y365540D01*
X431517Y365484D01*
X431530Y365426D01*
X431539Y365369D01*
X431544Y365310D01*
X431546Y365252D01*
X431546Y362458D01*
D13*
X273050Y755650D02*
X273050Y800550D01*
X742950Y800550D02*
X742950Y755650D01*
X742300Y781050D02*
X273700Y781050D01*
X299050Y784242D01*
X299050Y777858D01*
X273700Y781050D01*
X299050Y782350D01*
X299050Y779750D02*
X273700Y781050D01*
X299050Y783650D01*
X299050Y778450D02*
X273700Y781050D01*
X716950Y784242D02*
X742300Y781050D01*
X716950Y784242D02*
X716950Y777858D01*
X742300Y781050D01*
X716950Y782350D01*
X716950Y779750D02*
X742300Y781050D01*
X716950Y783650D01*
X716950Y778450D02*
X742300Y781050D01*
D14*
X480464Y803813D02*
X476852Y791169D01*
X485883Y791169D01*
X483174Y794782D02*
X483174Y787557D01*
X492483Y796588D02*
X497902Y796588D01*
X498020Y796586D01*
X498138Y796580D01*
X498256Y796571D01*
X498373Y796557D01*
X498490Y796540D01*
X498607Y796519D01*
X498722Y796494D01*
X498837Y796465D01*
X498951Y796432D01*
X499063Y796396D01*
X499174Y796356D01*
X499284Y796313D01*
X499393Y796266D01*
X499500Y796216D01*
X499605Y796161D01*
X499708Y796104D01*
X499809Y796043D01*
X499909Y795979D01*
X500006Y795912D01*
X500101Y795842D01*
X500193Y795768D01*
X500284Y795692D01*
X500371Y795612D01*
X500456Y795530D01*
X500538Y795445D01*
X500618Y795358D01*
X500694Y795267D01*
X500768Y795175D01*
X500838Y795080D01*
X500905Y794983D01*
X500969Y794883D01*
X501030Y794782D01*
X501087Y794679D01*
X501142Y794574D01*
X501192Y794467D01*
X501239Y794358D01*
X501282Y794248D01*
X501322Y794137D01*
X501358Y794025D01*
X501391Y793911D01*
X501420Y793796D01*
X501445Y793681D01*
X501466Y793564D01*
X501483Y793447D01*
X501497Y793330D01*
X501506Y793212D01*
X501512Y793094D01*
X501514Y792976D01*
X501514Y792073D01*
X501515Y792073D02*
X501513Y791940D01*
X501507Y791808D01*
X501497Y791676D01*
X501484Y791544D01*
X501466Y791412D01*
X501445Y791282D01*
X501420Y791151D01*
X501391Y791022D01*
X501358Y790894D01*
X501322Y790766D01*
X501282Y790640D01*
X501238Y790515D01*
X501190Y790391D01*
X501139Y790269D01*
X501084Y790148D01*
X501026Y790029D01*
X500964Y789911D01*
X500899Y789796D01*
X500830Y789682D01*
X500759Y789571D01*
X500683Y789462D01*
X500605Y789355D01*
X500524Y789250D01*
X500439Y789148D01*
X500352Y789048D01*
X500262Y788951D01*
X500169Y788856D01*
X500073Y788765D01*
X499975Y788676D01*
X499874Y788590D01*
X499770Y788507D01*
X499664Y788427D01*
X499556Y788351D01*
X499446Y788277D01*
X499333Y788207D01*
X499219Y788140D01*
X499102Y788077D01*
X498984Y788017D01*
X498864Y787960D01*
X498742Y787907D01*
X498619Y787858D01*
X498495Y787812D01*
X498369Y787770D01*
X498242Y787732D01*
X498114Y787697D01*
X497985Y787666D01*
X497856Y787639D01*
X497725Y787616D01*
X497594Y787596D01*
X497462Y787581D01*
X497330Y787569D01*
X497198Y787561D01*
X497065Y787557D01*
X496933Y787557D01*
X496800Y787561D01*
X496668Y787569D01*
X496536Y787581D01*
X496404Y787596D01*
X496273Y787616D01*
X496142Y787639D01*
X496013Y787666D01*
X495884Y787697D01*
X495756Y787732D01*
X495629Y787770D01*
X495503Y787812D01*
X495379Y787858D01*
X495256Y787907D01*
X495134Y787960D01*
X495014Y788017D01*
X494896Y788077D01*
X494779Y788140D01*
X494665Y788207D01*
X494552Y788277D01*
X494442Y788351D01*
X494334Y788427D01*
X494228Y788507D01*
X494124Y788590D01*
X494023Y788676D01*
X493925Y788765D01*
X493829Y788856D01*
X493736Y788951D01*
X493646Y789048D01*
X493559Y789148D01*
X493474Y789250D01*
X493393Y789355D01*
X493315Y789462D01*
X493239Y789571D01*
X493168Y789682D01*
X493099Y789796D01*
X493034Y789911D01*
X492972Y790029D01*
X492914Y790148D01*
X492859Y790269D01*
X492808Y790391D01*
X492760Y790515D01*
X492716Y790640D01*
X492676Y790766D01*
X492640Y790894D01*
X492607Y791022D01*
X492578Y791151D01*
X492553Y791282D01*
X492532Y791412D01*
X492514Y791544D01*
X492501Y791676D01*
X492491Y791808D01*
X492485Y791940D01*
X492483Y792073D01*
X492483Y796588D01*
X492485Y796765D01*
X492492Y796943D01*
X492503Y797120D01*
X492518Y797296D01*
X492537Y797472D01*
X492561Y797648D01*
X492589Y797823D01*
X492622Y797998D01*
X492659Y798171D01*
X492700Y798344D01*
X492745Y798515D01*
X492794Y798685D01*
X492848Y798854D01*
X492905Y799022D01*
X492967Y799188D01*
X493033Y799353D01*
X493103Y799516D01*
X493177Y799677D01*
X493254Y799836D01*
X493336Y799994D01*
X493422Y800149D01*
X493511Y800302D01*
X493604Y800453D01*
X493701Y800602D01*
X493801Y800748D01*
X493905Y800892D01*
X494012Y801033D01*
X494123Y801171D01*
X494237Y801307D01*
X494355Y801440D01*
X494475Y801570D01*
X494599Y801697D01*
X494726Y801821D01*
X494856Y801941D01*
X494989Y802059D01*
X495124Y802173D01*
X495263Y802284D01*
X495404Y802391D01*
X495548Y802495D01*
X495694Y802595D01*
X495843Y802692D01*
X495994Y802785D01*
X496147Y802874D01*
X496302Y802960D01*
X496460Y803042D01*
X496619Y803119D01*
X496780Y803193D01*
X496943Y803263D01*
X497108Y803329D01*
X497274Y803391D01*
X497442Y803448D01*
X497611Y803502D01*
X497781Y803551D01*
X497952Y803596D01*
X498125Y803637D01*
X498298Y803674D01*
X498473Y803707D01*
X498648Y803735D01*
X498824Y803759D01*
X499000Y803778D01*
X499176Y803793D01*
X499353Y803804D01*
X499531Y803811D01*
X499708Y803813D01*
X507489Y788460D02*
X507489Y787557D01*
X507489Y788460D02*
X508392Y788460D01*
X508392Y787557D01*
X507489Y787557D01*
X517979Y794782D02*
X523398Y794782D01*
X517979Y794782D02*
X517861Y794784D01*
X517743Y794790D01*
X517625Y794799D01*
X517508Y794813D01*
X517391Y794830D01*
X517274Y794851D01*
X517159Y794876D01*
X517044Y794905D01*
X516930Y794938D01*
X516818Y794974D01*
X516707Y795014D01*
X516597Y795057D01*
X516488Y795104D01*
X516381Y795154D01*
X516276Y795209D01*
X516173Y795266D01*
X516072Y795327D01*
X515972Y795391D01*
X515875Y795458D01*
X515780Y795528D01*
X515688Y795602D01*
X515597Y795678D01*
X515510Y795758D01*
X515425Y795840D01*
X515343Y795925D01*
X515263Y796012D01*
X515187Y796103D01*
X515113Y796195D01*
X515043Y796290D01*
X514976Y796387D01*
X514912Y796487D01*
X514851Y796588D01*
X514794Y796691D01*
X514739Y796796D01*
X514689Y796903D01*
X514642Y797012D01*
X514599Y797122D01*
X514559Y797233D01*
X514523Y797345D01*
X514490Y797459D01*
X514461Y797574D01*
X514436Y797689D01*
X514415Y797806D01*
X514398Y797923D01*
X514384Y798040D01*
X514375Y798158D01*
X514369Y798276D01*
X514367Y798394D01*
X514367Y799297D01*
X514366Y799297D02*
X514368Y799430D01*
X514374Y799562D01*
X514384Y799694D01*
X514397Y799826D01*
X514415Y799958D01*
X514436Y800088D01*
X514461Y800219D01*
X514490Y800348D01*
X514523Y800476D01*
X514559Y800604D01*
X514599Y800730D01*
X514643Y800855D01*
X514691Y800979D01*
X514742Y801101D01*
X514797Y801222D01*
X514855Y801341D01*
X514917Y801459D01*
X514982Y801574D01*
X515051Y801688D01*
X515122Y801799D01*
X515198Y801908D01*
X515276Y802015D01*
X515357Y802120D01*
X515442Y802222D01*
X515529Y802322D01*
X515619Y802419D01*
X515712Y802514D01*
X515808Y802605D01*
X515906Y802694D01*
X516007Y802780D01*
X516111Y802863D01*
X516217Y802943D01*
X516325Y803019D01*
X516435Y803093D01*
X516548Y803163D01*
X516662Y803230D01*
X516779Y803293D01*
X516897Y803353D01*
X517017Y803410D01*
X517139Y803463D01*
X517262Y803512D01*
X517386Y803558D01*
X517512Y803600D01*
X517639Y803638D01*
X517767Y803673D01*
X517896Y803704D01*
X518025Y803731D01*
X518156Y803754D01*
X518287Y803774D01*
X518419Y803789D01*
X518551Y803801D01*
X518683Y803809D01*
X518816Y803813D01*
X518948Y803813D01*
X519081Y803809D01*
X519213Y803801D01*
X519345Y803789D01*
X519477Y803774D01*
X519608Y803754D01*
X519739Y803731D01*
X519868Y803704D01*
X519997Y803673D01*
X520125Y803638D01*
X520252Y803600D01*
X520378Y803558D01*
X520502Y803512D01*
X520625Y803463D01*
X520747Y803410D01*
X520867Y803353D01*
X520985Y803293D01*
X521102Y803230D01*
X521216Y803163D01*
X521329Y803093D01*
X521439Y803019D01*
X521547Y802943D01*
X521653Y802863D01*
X521757Y802780D01*
X521858Y802694D01*
X521956Y802605D01*
X522052Y802514D01*
X522145Y802419D01*
X522235Y802322D01*
X522322Y802222D01*
X522407Y802120D01*
X522488Y802015D01*
X522566Y801908D01*
X522642Y801799D01*
X522713Y801688D01*
X522782Y801574D01*
X522847Y801459D01*
X522909Y801341D01*
X522967Y801222D01*
X523022Y801101D01*
X523073Y800979D01*
X523121Y800855D01*
X523165Y800730D01*
X523205Y800604D01*
X523241Y800476D01*
X523274Y800348D01*
X523303Y800219D01*
X523328Y800088D01*
X523349Y799958D01*
X523367Y799826D01*
X523380Y799694D01*
X523390Y799562D01*
X523396Y799430D01*
X523398Y799297D01*
X523398Y794782D01*
X523396Y794607D01*
X523390Y794433D01*
X523379Y794259D01*
X523364Y794085D01*
X523345Y793911D01*
X523322Y793738D01*
X523295Y793566D01*
X523263Y793394D01*
X523228Y793223D01*
X523188Y793053D01*
X523144Y792884D01*
X523096Y792716D01*
X523044Y792549D01*
X522988Y792384D01*
X522928Y792220D01*
X522865Y792057D01*
X522797Y791897D01*
X522725Y791737D01*
X522650Y791580D01*
X522570Y791424D01*
X522487Y791271D01*
X522401Y791119D01*
X522310Y790970D01*
X522216Y790823D01*
X522119Y790678D01*
X522018Y790535D01*
X521914Y790395D01*
X521806Y790258D01*
X521695Y790123D01*
X521581Y789991D01*
X521464Y789862D01*
X521343Y789735D01*
X521220Y789612D01*
X521093Y789491D01*
X520964Y789374D01*
X520832Y789260D01*
X520697Y789149D01*
X520560Y789041D01*
X520420Y788937D01*
X520277Y788836D01*
X520132Y788739D01*
X519985Y788645D01*
X519836Y788554D01*
X519684Y788468D01*
X519531Y788385D01*
X519375Y788305D01*
X519218Y788230D01*
X519058Y788158D01*
X518898Y788090D01*
X518735Y788027D01*
X518571Y787967D01*
X518406Y787911D01*
X518239Y787859D01*
X518071Y787811D01*
X517902Y787767D01*
X517732Y787727D01*
X517561Y787692D01*
X517389Y787660D01*
X517217Y787633D01*
X517044Y787610D01*
X516870Y787591D01*
X516696Y787576D01*
X516522Y787565D01*
X516348Y787559D01*
X516173Y787557D01*
X533611Y794782D02*
X539029Y794782D01*
X533611Y794782D02*
X533493Y794784D01*
X533375Y794790D01*
X533257Y794799D01*
X533140Y794813D01*
X533023Y794830D01*
X532906Y794851D01*
X532791Y794876D01*
X532676Y794905D01*
X532562Y794938D01*
X532450Y794974D01*
X532339Y795014D01*
X532229Y795057D01*
X532120Y795104D01*
X532013Y795154D01*
X531908Y795209D01*
X531805Y795266D01*
X531704Y795327D01*
X531604Y795391D01*
X531507Y795458D01*
X531412Y795528D01*
X531320Y795602D01*
X531229Y795678D01*
X531142Y795758D01*
X531057Y795840D01*
X530975Y795925D01*
X530895Y796012D01*
X530819Y796103D01*
X530745Y796195D01*
X530675Y796290D01*
X530608Y796387D01*
X530544Y796487D01*
X530483Y796588D01*
X530426Y796691D01*
X530371Y796796D01*
X530321Y796903D01*
X530274Y797012D01*
X530231Y797122D01*
X530191Y797233D01*
X530155Y797345D01*
X530122Y797459D01*
X530093Y797574D01*
X530068Y797689D01*
X530047Y797806D01*
X530030Y797923D01*
X530016Y798040D01*
X530007Y798158D01*
X530001Y798276D01*
X529999Y798394D01*
X529998Y798394D02*
X529998Y799297D01*
X530000Y799430D01*
X530006Y799562D01*
X530016Y799694D01*
X530029Y799826D01*
X530047Y799958D01*
X530068Y800088D01*
X530093Y800219D01*
X530122Y800348D01*
X530155Y800476D01*
X530191Y800604D01*
X530231Y800730D01*
X530275Y800855D01*
X530323Y800979D01*
X530374Y801101D01*
X530429Y801222D01*
X530487Y801341D01*
X530549Y801459D01*
X530614Y801574D01*
X530683Y801688D01*
X530754Y801799D01*
X530830Y801908D01*
X530908Y802015D01*
X530989Y802120D01*
X531074Y802222D01*
X531161Y802322D01*
X531251Y802419D01*
X531344Y802514D01*
X531440Y802605D01*
X531538Y802694D01*
X531639Y802780D01*
X531743Y802863D01*
X531849Y802943D01*
X531957Y803019D01*
X532067Y803093D01*
X532180Y803163D01*
X532294Y803230D01*
X532411Y803293D01*
X532529Y803353D01*
X532649Y803410D01*
X532771Y803463D01*
X532894Y803512D01*
X533018Y803558D01*
X533144Y803600D01*
X533271Y803638D01*
X533399Y803673D01*
X533528Y803704D01*
X533657Y803731D01*
X533788Y803754D01*
X533919Y803774D01*
X534051Y803789D01*
X534183Y803801D01*
X534315Y803809D01*
X534448Y803813D01*
X534580Y803813D01*
X534713Y803809D01*
X534845Y803801D01*
X534977Y803789D01*
X535109Y803774D01*
X535240Y803754D01*
X535371Y803731D01*
X535500Y803704D01*
X535629Y803673D01*
X535757Y803638D01*
X535884Y803600D01*
X536010Y803558D01*
X536134Y803512D01*
X536257Y803463D01*
X536379Y803410D01*
X536499Y803353D01*
X536617Y803293D01*
X536734Y803230D01*
X536848Y803163D01*
X536961Y803093D01*
X537071Y803019D01*
X537179Y802943D01*
X537285Y802863D01*
X537389Y802780D01*
X537490Y802694D01*
X537588Y802605D01*
X537684Y802514D01*
X537777Y802419D01*
X537867Y802322D01*
X537954Y802222D01*
X538039Y802120D01*
X538120Y802015D01*
X538198Y801908D01*
X538274Y801799D01*
X538345Y801688D01*
X538414Y801574D01*
X538479Y801459D01*
X538541Y801341D01*
X538599Y801222D01*
X538654Y801101D01*
X538705Y800979D01*
X538753Y800855D01*
X538797Y800730D01*
X538837Y800604D01*
X538873Y800476D01*
X538906Y800348D01*
X538935Y800219D01*
X538960Y800088D01*
X538981Y799958D01*
X538999Y799826D01*
X539012Y799694D01*
X539022Y799562D01*
X539028Y799430D01*
X539030Y799297D01*
X539029Y799297D02*
X539029Y794782D01*
X539027Y794607D01*
X539021Y794433D01*
X539010Y794259D01*
X538995Y794085D01*
X538976Y793911D01*
X538953Y793738D01*
X538926Y793566D01*
X538894Y793394D01*
X538859Y793223D01*
X538819Y793053D01*
X538775Y792884D01*
X538727Y792716D01*
X538675Y792549D01*
X538619Y792384D01*
X538559Y792220D01*
X538496Y792057D01*
X538428Y791897D01*
X538356Y791737D01*
X538281Y791580D01*
X538201Y791424D01*
X538118Y791271D01*
X538032Y791119D01*
X537941Y790970D01*
X537847Y790823D01*
X537750Y790678D01*
X537649Y790535D01*
X537545Y790395D01*
X537437Y790258D01*
X537326Y790123D01*
X537212Y789991D01*
X537095Y789862D01*
X536974Y789735D01*
X536851Y789612D01*
X536724Y789491D01*
X536595Y789374D01*
X536463Y789260D01*
X536328Y789149D01*
X536191Y789041D01*
X536051Y788937D01*
X535908Y788836D01*
X535763Y788739D01*
X535616Y788645D01*
X535467Y788554D01*
X535315Y788468D01*
X535162Y788385D01*
X535006Y788305D01*
X534849Y788230D01*
X534689Y788158D01*
X534529Y788090D01*
X534366Y788027D01*
X534202Y787967D01*
X534037Y787911D01*
X533870Y787859D01*
X533702Y787811D01*
X533533Y787767D01*
X533363Y787727D01*
X533192Y787692D01*
X533020Y787660D01*
X532848Y787633D01*
X532675Y787610D01*
X532501Y787591D01*
X532327Y787576D01*
X532153Y787565D01*
X531979Y787559D01*
X531804Y787557D01*
D13*
X742950Y63500D02*
X832300Y63500D01*
X832300Y755650D02*
X742950Y755650D01*
X812800Y755000D02*
X812800Y64150D01*
X809608Y89500D01*
X815992Y89500D01*
X812800Y64150D01*
X811500Y89500D01*
X814100Y89500D02*
X812800Y64150D01*
X810200Y89500D01*
X815400Y89500D02*
X812800Y64150D01*
X809608Y729650D02*
X812800Y755000D01*
X809608Y729650D02*
X815992Y729650D01*
X812800Y755000D01*
X811500Y729650D01*
X814100Y729650D02*
X812800Y755000D01*
X810200Y729650D01*
X815400Y729650D02*
X812800Y755000D01*
D14*
X797262Y383846D02*
X797262Y378427D01*
X797262Y383846D02*
X797264Y383964D01*
X797270Y384082D01*
X797279Y384200D01*
X797293Y384317D01*
X797310Y384434D01*
X797331Y384551D01*
X797356Y384666D01*
X797385Y384781D01*
X797418Y384895D01*
X797454Y385007D01*
X797494Y385118D01*
X797537Y385228D01*
X797584Y385337D01*
X797634Y385444D01*
X797689Y385549D01*
X797746Y385652D01*
X797807Y385753D01*
X797871Y385853D01*
X797938Y385950D01*
X798008Y386045D01*
X798082Y386137D01*
X798158Y386228D01*
X798238Y386315D01*
X798320Y386400D01*
X798405Y386482D01*
X798492Y386562D01*
X798583Y386638D01*
X798675Y386712D01*
X798770Y386782D01*
X798867Y386849D01*
X798967Y386913D01*
X799068Y386974D01*
X799171Y387031D01*
X799276Y387086D01*
X799383Y387136D01*
X799492Y387183D01*
X799602Y387226D01*
X799713Y387266D01*
X799825Y387302D01*
X799939Y387335D01*
X800054Y387364D01*
X800169Y387389D01*
X800286Y387410D01*
X800403Y387427D01*
X800520Y387441D01*
X800638Y387450D01*
X800756Y387456D01*
X800874Y387458D01*
X801777Y387458D01*
X801777Y387459D02*
X801910Y387457D01*
X802042Y387451D01*
X802174Y387441D01*
X802306Y387428D01*
X802438Y387410D01*
X802568Y387389D01*
X802699Y387364D01*
X802828Y387335D01*
X802956Y387302D01*
X803084Y387266D01*
X803210Y387226D01*
X803335Y387182D01*
X803459Y387134D01*
X803581Y387083D01*
X803702Y387028D01*
X803821Y386970D01*
X803939Y386908D01*
X804054Y386843D01*
X804168Y386774D01*
X804279Y386703D01*
X804388Y386627D01*
X804495Y386549D01*
X804600Y386468D01*
X804702Y386383D01*
X804802Y386296D01*
X804899Y386206D01*
X804994Y386113D01*
X805085Y386017D01*
X805174Y385919D01*
X805260Y385818D01*
X805343Y385714D01*
X805423Y385608D01*
X805499Y385500D01*
X805573Y385390D01*
X805643Y385277D01*
X805710Y385163D01*
X805773Y385046D01*
X805833Y384928D01*
X805890Y384808D01*
X805943Y384686D01*
X805992Y384563D01*
X806038Y384439D01*
X806080Y384313D01*
X806118Y384186D01*
X806153Y384058D01*
X806184Y383929D01*
X806211Y383800D01*
X806234Y383669D01*
X806254Y383538D01*
X806269Y383406D01*
X806281Y383274D01*
X806289Y383142D01*
X806293Y383009D01*
X806293Y382877D01*
X806289Y382744D01*
X806281Y382612D01*
X806269Y382480D01*
X806254Y382348D01*
X806234Y382217D01*
X806211Y382086D01*
X806184Y381957D01*
X806153Y381828D01*
X806118Y381700D01*
X806080Y381573D01*
X806038Y381447D01*
X805992Y381323D01*
X805943Y381200D01*
X805890Y381078D01*
X805833Y380958D01*
X805773Y380840D01*
X805710Y380723D01*
X805643Y380609D01*
X805573Y380496D01*
X805499Y380386D01*
X805423Y380278D01*
X805343Y380172D01*
X805260Y380068D01*
X805174Y379967D01*
X805085Y379869D01*
X804994Y379773D01*
X804899Y379680D01*
X804802Y379590D01*
X804702Y379503D01*
X804600Y379418D01*
X804495Y379337D01*
X804388Y379259D01*
X804279Y379183D01*
X804168Y379112D01*
X804054Y379043D01*
X803939Y378978D01*
X803821Y378916D01*
X803702Y378858D01*
X803581Y378803D01*
X803459Y378752D01*
X803335Y378704D01*
X803210Y378660D01*
X803084Y378620D01*
X802956Y378584D01*
X802828Y378551D01*
X802699Y378522D01*
X802568Y378497D01*
X802438Y378476D01*
X802306Y378458D01*
X802174Y378445D01*
X802042Y378435D01*
X801910Y378429D01*
X801777Y378427D01*
X797262Y378427D01*
X797085Y378429D01*
X796907Y378436D01*
X796730Y378447D01*
X796554Y378462D01*
X796378Y378481D01*
X796202Y378505D01*
X796027Y378533D01*
X795852Y378566D01*
X795679Y378603D01*
X795506Y378644D01*
X795335Y378689D01*
X795165Y378738D01*
X794996Y378792D01*
X794828Y378849D01*
X794662Y378911D01*
X794497Y378977D01*
X794334Y379047D01*
X794173Y379121D01*
X794014Y379198D01*
X793856Y379280D01*
X793701Y379366D01*
X793548Y379455D01*
X793397Y379548D01*
X793248Y379645D01*
X793102Y379745D01*
X792958Y379849D01*
X792817Y379956D01*
X792679Y380067D01*
X792543Y380181D01*
X792410Y380299D01*
X792280Y380419D01*
X792153Y380543D01*
X792029Y380670D01*
X791909Y380800D01*
X791791Y380933D01*
X791677Y381068D01*
X791566Y381207D01*
X791459Y381348D01*
X791355Y381492D01*
X791255Y381638D01*
X791158Y381787D01*
X791065Y381938D01*
X790976Y382091D01*
X790890Y382246D01*
X790808Y382404D01*
X790731Y382563D01*
X790657Y382724D01*
X790587Y382887D01*
X790521Y383052D01*
X790459Y383218D01*
X790402Y383386D01*
X790348Y383555D01*
X790299Y383725D01*
X790254Y383896D01*
X790213Y384069D01*
X790176Y384242D01*
X790143Y384417D01*
X790115Y384592D01*
X790091Y384768D01*
X790072Y384944D01*
X790057Y385120D01*
X790046Y385297D01*
X790039Y385475D01*
X790037Y385652D01*
X799068Y397671D02*
X799068Y403089D01*
X799068Y397671D02*
X799066Y397553D01*
X799060Y397435D01*
X799051Y397317D01*
X799037Y397200D01*
X799020Y397083D01*
X798999Y396966D01*
X798974Y396851D01*
X798945Y396736D01*
X798912Y396622D01*
X798876Y396510D01*
X798836Y396399D01*
X798793Y396289D01*
X798746Y396180D01*
X798696Y396073D01*
X798641Y395968D01*
X798584Y395865D01*
X798523Y395764D01*
X798459Y395664D01*
X798392Y395567D01*
X798322Y395472D01*
X798248Y395380D01*
X798172Y395289D01*
X798092Y395202D01*
X798010Y395117D01*
X797925Y395035D01*
X797838Y394955D01*
X797747Y394879D01*
X797655Y394805D01*
X797560Y394735D01*
X797463Y394668D01*
X797363Y394604D01*
X797262Y394543D01*
X797159Y394486D01*
X797054Y394431D01*
X796947Y394381D01*
X796838Y394334D01*
X796728Y394291D01*
X796617Y394251D01*
X796505Y394215D01*
X796391Y394182D01*
X796276Y394153D01*
X796161Y394128D01*
X796044Y394107D01*
X795927Y394090D01*
X795810Y394076D01*
X795692Y394067D01*
X795574Y394061D01*
X795456Y394059D01*
X795456Y394058D02*
X794553Y394058D01*
X794420Y394060D01*
X794288Y394066D01*
X794156Y394076D01*
X794024Y394089D01*
X793892Y394107D01*
X793762Y394128D01*
X793631Y394153D01*
X793502Y394182D01*
X793374Y394215D01*
X793246Y394251D01*
X793120Y394291D01*
X792995Y394335D01*
X792871Y394383D01*
X792749Y394434D01*
X792628Y394489D01*
X792509Y394547D01*
X792391Y394609D01*
X792276Y394674D01*
X792162Y394743D01*
X792051Y394814D01*
X791942Y394890D01*
X791835Y394968D01*
X791730Y395049D01*
X791628Y395134D01*
X791528Y395221D01*
X791431Y395311D01*
X791336Y395404D01*
X791245Y395500D01*
X791156Y395598D01*
X791070Y395699D01*
X790987Y395803D01*
X790907Y395909D01*
X790831Y396017D01*
X790757Y396127D01*
X790687Y396240D01*
X790620Y396354D01*
X790557Y396471D01*
X790497Y396589D01*
X790440Y396709D01*
X790387Y396831D01*
X790338Y396954D01*
X790292Y397078D01*
X790250Y397204D01*
X790212Y397331D01*
X790177Y397459D01*
X790146Y397588D01*
X790119Y397717D01*
X790096Y397848D01*
X790076Y397979D01*
X790061Y398111D01*
X790049Y398243D01*
X790041Y398375D01*
X790037Y398508D01*
X790037Y398640D01*
X790041Y398773D01*
X790049Y398905D01*
X790061Y399037D01*
X790076Y399169D01*
X790096Y399300D01*
X790119Y399431D01*
X790146Y399560D01*
X790177Y399689D01*
X790212Y399817D01*
X790250Y399944D01*
X790292Y400070D01*
X790338Y400194D01*
X790387Y400317D01*
X790440Y400439D01*
X790497Y400559D01*
X790557Y400677D01*
X790620Y400794D01*
X790687Y400908D01*
X790757Y401021D01*
X790831Y401131D01*
X790907Y401239D01*
X790987Y401345D01*
X791070Y401449D01*
X791156Y401550D01*
X791245Y401648D01*
X791336Y401744D01*
X791431Y401837D01*
X791528Y401927D01*
X791628Y402014D01*
X791730Y402099D01*
X791835Y402180D01*
X791942Y402258D01*
X792051Y402334D01*
X792162Y402405D01*
X792276Y402474D01*
X792391Y402539D01*
X792509Y402601D01*
X792628Y402659D01*
X792749Y402714D01*
X792871Y402765D01*
X792995Y402813D01*
X793120Y402857D01*
X793246Y402897D01*
X793374Y402933D01*
X793502Y402966D01*
X793631Y402995D01*
X793762Y403020D01*
X793892Y403041D01*
X794024Y403059D01*
X794156Y403072D01*
X794288Y403082D01*
X794420Y403088D01*
X794553Y403090D01*
X794553Y403089D02*
X799068Y403089D01*
X799243Y403087D01*
X799417Y403081D01*
X799591Y403070D01*
X799765Y403055D01*
X799939Y403036D01*
X800112Y403013D01*
X800284Y402986D01*
X800456Y402954D01*
X800627Y402919D01*
X800797Y402879D01*
X800966Y402835D01*
X801134Y402787D01*
X801301Y402735D01*
X801466Y402679D01*
X801630Y402619D01*
X801793Y402556D01*
X801953Y402488D01*
X802113Y402416D01*
X802270Y402341D01*
X802426Y402261D01*
X802579Y402178D01*
X802731Y402092D01*
X802880Y402001D01*
X803027Y401907D01*
X803172Y401810D01*
X803315Y401709D01*
X803455Y401605D01*
X803592Y401497D01*
X803727Y401386D01*
X803859Y401272D01*
X803988Y401155D01*
X804115Y401034D01*
X804238Y400911D01*
X804359Y400784D01*
X804476Y400655D01*
X804590Y400523D01*
X804701Y400388D01*
X804809Y400251D01*
X804913Y400111D01*
X805014Y399968D01*
X805111Y399823D01*
X805205Y399676D01*
X805296Y399527D01*
X805382Y399375D01*
X805465Y399222D01*
X805545Y399066D01*
X805620Y398909D01*
X805692Y398749D01*
X805760Y398589D01*
X805823Y398426D01*
X805883Y398262D01*
X805939Y398097D01*
X805991Y397930D01*
X806039Y397762D01*
X806083Y397593D01*
X806123Y397423D01*
X806158Y397252D01*
X806190Y397080D01*
X806217Y396908D01*
X806240Y396735D01*
X806259Y396561D01*
X806274Y396387D01*
X806285Y396213D01*
X806291Y396039D01*
X806293Y395864D01*
X806293Y409064D02*
X805390Y409064D01*
X805390Y409967D01*
X806293Y409967D01*
X806293Y409064D01*
X794101Y424973D02*
X793976Y424971D01*
X793851Y424965D01*
X793726Y424956D01*
X793602Y424942D01*
X793478Y424925D01*
X793354Y424904D01*
X793232Y424879D01*
X793110Y424850D01*
X792989Y424818D01*
X792869Y424782D01*
X792750Y424742D01*
X792633Y424699D01*
X792517Y424652D01*
X792402Y424601D01*
X792290Y424547D01*
X792178Y424489D01*
X792069Y424429D01*
X791962Y424364D01*
X791856Y424297D01*
X791753Y424226D01*
X791652Y424152D01*
X791553Y424075D01*
X791457Y423995D01*
X791363Y423912D01*
X791272Y423827D01*
X791183Y423738D01*
X791098Y423647D01*
X791015Y423553D01*
X790935Y423457D01*
X790858Y423358D01*
X790784Y423257D01*
X790713Y423154D01*
X790646Y423048D01*
X790581Y422941D01*
X790521Y422832D01*
X790463Y422720D01*
X790409Y422608D01*
X790358Y422493D01*
X790311Y422377D01*
X790268Y422260D01*
X790228Y422141D01*
X790192Y422021D01*
X790160Y421900D01*
X790131Y421778D01*
X790106Y421656D01*
X790085Y421532D01*
X790068Y421408D01*
X790054Y421284D01*
X790045Y421159D01*
X790039Y421034D01*
X790037Y420909D01*
X790039Y420766D01*
X790045Y420624D01*
X790055Y420481D01*
X790068Y420339D01*
X790086Y420198D01*
X790107Y420056D01*
X790132Y419916D01*
X790161Y419776D01*
X790194Y419637D01*
X790231Y419499D01*
X790271Y419362D01*
X790315Y419227D01*
X790363Y419092D01*
X790415Y418959D01*
X790470Y418827D01*
X790529Y418697D01*
X790591Y418569D01*
X790657Y418442D01*
X790726Y418317D01*
X790798Y418194D01*
X790874Y418073D01*
X790953Y417955D01*
X791036Y417838D01*
X791121Y417724D01*
X791210Y417612D01*
X791301Y417503D01*
X791396Y417396D01*
X791493Y417291D01*
X791594Y417190D01*
X791697Y417091D01*
X791802Y416995D01*
X791911Y416902D01*
X792022Y416812D01*
X792135Y416725D01*
X792250Y416641D01*
X792368Y416561D01*
X792488Y416483D01*
X792610Y416409D01*
X792734Y416339D01*
X792860Y416271D01*
X792988Y416208D01*
X793117Y416147D01*
X793248Y416090D01*
X793380Y416037D01*
X793514Y415988D01*
X793649Y415942D01*
X797262Y423618D02*
X797170Y423712D01*
X797076Y423802D01*
X796979Y423890D01*
X796879Y423975D01*
X796777Y424057D01*
X796672Y424135D01*
X796565Y424211D01*
X796456Y424283D01*
X796345Y424352D01*
X796231Y424418D01*
X796116Y424480D01*
X795999Y424539D01*
X795880Y424594D01*
X795760Y424645D01*
X795638Y424693D01*
X795515Y424738D01*
X795391Y424778D01*
X795265Y424815D01*
X795138Y424848D01*
X795011Y424877D01*
X794882Y424903D01*
X794753Y424924D01*
X794623Y424942D01*
X794493Y424955D01*
X794363Y424965D01*
X794232Y424971D01*
X794101Y424973D01*
X797262Y423618D02*
X806293Y415942D01*
X806293Y424973D01*
X794101Y440604D02*
X793976Y440602D01*
X793851Y440596D01*
X793726Y440587D01*
X793602Y440573D01*
X793478Y440556D01*
X793354Y440535D01*
X793232Y440510D01*
X793110Y440481D01*
X792989Y440449D01*
X792869Y440413D01*
X792750Y440373D01*
X792633Y440330D01*
X792517Y440283D01*
X792402Y440232D01*
X792290Y440178D01*
X792178Y440120D01*
X792069Y440060D01*
X791962Y439995D01*
X791856Y439928D01*
X791753Y439857D01*
X791652Y439783D01*
X791553Y439706D01*
X791457Y439626D01*
X791363Y439543D01*
X791272Y439458D01*
X791183Y439369D01*
X791098Y439278D01*
X791015Y439184D01*
X790935Y439088D01*
X790858Y438989D01*
X790784Y438888D01*
X790713Y438785D01*
X790646Y438679D01*
X790581Y438572D01*
X790521Y438463D01*
X790463Y438351D01*
X790409Y438239D01*
X790358Y438124D01*
X790311Y438008D01*
X790268Y437891D01*
X790228Y437772D01*
X790192Y437652D01*
X790160Y437531D01*
X790131Y437409D01*
X790106Y437287D01*
X790085Y437163D01*
X790068Y437039D01*
X790054Y436915D01*
X790045Y436790D01*
X790039Y436665D01*
X790037Y436540D01*
X790039Y436397D01*
X790045Y436255D01*
X790055Y436112D01*
X790068Y435970D01*
X790086Y435829D01*
X790107Y435687D01*
X790132Y435547D01*
X790161Y435407D01*
X790194Y435268D01*
X790231Y435130D01*
X790271Y434993D01*
X790315Y434858D01*
X790363Y434723D01*
X790415Y434590D01*
X790470Y434458D01*
X790529Y434328D01*
X790591Y434200D01*
X790657Y434073D01*
X790726Y433948D01*
X790798Y433825D01*
X790874Y433704D01*
X790953Y433586D01*
X791036Y433469D01*
X791121Y433355D01*
X791210Y433243D01*
X791301Y433134D01*
X791396Y433027D01*
X791493Y432922D01*
X791594Y432821D01*
X791697Y432722D01*
X791802Y432626D01*
X791911Y432533D01*
X792022Y432443D01*
X792135Y432356D01*
X792250Y432272D01*
X792368Y432192D01*
X792488Y432114D01*
X792610Y432040D01*
X792734Y431970D01*
X792860Y431902D01*
X792988Y431839D01*
X793117Y431778D01*
X793248Y431721D01*
X793380Y431668D01*
X793514Y431619D01*
X793649Y431573D01*
X797262Y439249D02*
X797170Y439343D01*
X797076Y439433D01*
X796979Y439521D01*
X796879Y439606D01*
X796777Y439688D01*
X796672Y439766D01*
X796565Y439842D01*
X796456Y439914D01*
X796345Y439983D01*
X796231Y440049D01*
X796116Y440111D01*
X795999Y440170D01*
X795880Y440225D01*
X795760Y440276D01*
X795638Y440324D01*
X795515Y440369D01*
X795391Y440409D01*
X795265Y440446D01*
X795138Y440479D01*
X795011Y440508D01*
X794882Y440534D01*
X794753Y440555D01*
X794623Y440573D01*
X794493Y440586D01*
X794363Y440596D01*
X794232Y440602D01*
X794101Y440604D01*
X797262Y439250D02*
X806293Y431573D01*
X806293Y440604D01*
D12*
X287867Y419354D02*
X286004Y424942D01*
X289729Y424942D02*
X287867Y419354D01*
X293026Y419354D02*
X294268Y419354D01*
X293026Y419354D02*
X292956Y419356D01*
X292887Y419362D01*
X292818Y419372D01*
X292750Y419385D01*
X292682Y419403D01*
X292616Y419424D01*
X292551Y419449D01*
X292487Y419477D01*
X292425Y419509D01*
X292365Y419544D01*
X292307Y419583D01*
X292252Y419625D01*
X292198Y419670D01*
X292148Y419718D01*
X292100Y419768D01*
X292055Y419822D01*
X292013Y419877D01*
X291974Y419935D01*
X291939Y419995D01*
X291907Y420057D01*
X291879Y420121D01*
X291854Y420186D01*
X291833Y420252D01*
X291815Y420320D01*
X291802Y420388D01*
X291792Y420457D01*
X291786Y420526D01*
X291784Y420596D01*
X291785Y420596D02*
X291785Y423700D01*
X291784Y423700D02*
X291786Y423770D01*
X291792Y423839D01*
X291802Y423908D01*
X291815Y423976D01*
X291833Y424044D01*
X291854Y424110D01*
X291879Y424175D01*
X291907Y424239D01*
X291939Y424301D01*
X291974Y424361D01*
X292013Y424419D01*
X292055Y424474D01*
X292100Y424528D01*
X292148Y424578D01*
X292198Y424626D01*
X292252Y424671D01*
X292307Y424713D01*
X292365Y424752D01*
X292425Y424787D01*
X292487Y424819D01*
X292551Y424847D01*
X292616Y424872D01*
X292682Y424893D01*
X292750Y424911D01*
X292818Y424924D01*
X292887Y424934D01*
X292956Y424940D01*
X293026Y424942D01*
X294268Y424942D01*
X297598Y419354D02*
X298840Y419354D01*
X297598Y419354D02*
X297528Y419356D01*
X297459Y419362D01*
X297390Y419372D01*
X297322Y419385D01*
X297254Y419403D01*
X297188Y419424D01*
X297123Y419449D01*
X297059Y419477D01*
X296997Y419509D01*
X296937Y419544D01*
X296879Y419583D01*
X296824Y419625D01*
X296770Y419670D01*
X296720Y419718D01*
X296672Y419768D01*
X296627Y419822D01*
X296585Y419877D01*
X296546Y419935D01*
X296511Y419995D01*
X296479Y420057D01*
X296451Y420121D01*
X296426Y420186D01*
X296405Y420252D01*
X296387Y420320D01*
X296374Y420388D01*
X296364Y420457D01*
X296358Y420526D01*
X296356Y420596D01*
X296356Y423700D01*
X296358Y423770D01*
X296364Y423839D01*
X296374Y423908D01*
X296387Y423976D01*
X296405Y424044D01*
X296426Y424110D01*
X296451Y424175D01*
X296479Y424239D01*
X296511Y424301D01*
X296546Y424361D01*
X296585Y424419D01*
X296627Y424474D01*
X296672Y424528D01*
X296720Y424578D01*
X296770Y424626D01*
X296824Y424671D01*
X296879Y424713D01*
X296937Y424752D01*
X296997Y424787D01*
X297059Y424819D01*
X297123Y424847D01*
X297188Y424872D01*
X297254Y424893D01*
X297322Y424911D01*
X297390Y424924D01*
X297459Y424934D01*
X297528Y424940D01*
X297598Y424942D01*
X298840Y424942D01*
X287867Y495554D02*
X287937Y495556D01*
X288006Y495562D01*
X288075Y495572D01*
X288143Y495585D01*
X288211Y495603D01*
X288277Y495624D01*
X288342Y495649D01*
X288406Y495677D01*
X288468Y495709D01*
X288528Y495744D01*
X288586Y495783D01*
X288641Y495825D01*
X288695Y495870D01*
X288745Y495918D01*
X288793Y495968D01*
X288838Y496022D01*
X288880Y496077D01*
X288919Y496135D01*
X288954Y496195D01*
X288986Y496257D01*
X289014Y496321D01*
X289039Y496386D01*
X289060Y496452D01*
X289078Y496520D01*
X289091Y496588D01*
X289101Y496657D01*
X289107Y496726D01*
X289109Y496796D01*
X287867Y495554D02*
X287768Y495556D01*
X287670Y495561D01*
X287572Y495571D01*
X287474Y495584D01*
X287377Y495600D01*
X287280Y495620D01*
X287185Y495644D01*
X287090Y495672D01*
X286996Y495703D01*
X286904Y495737D01*
X286813Y495775D01*
X286723Y495816D01*
X286635Y495861D01*
X286549Y495909D01*
X286465Y495960D01*
X286383Y496014D01*
X286302Y496072D01*
X286224Y496132D01*
X286149Y496195D01*
X286075Y496261D01*
X286005Y496330D01*
X286159Y499900D02*
X286161Y499970D01*
X286167Y500039D01*
X286177Y500108D01*
X286190Y500176D01*
X286208Y500244D01*
X286229Y500310D01*
X286254Y500375D01*
X286282Y500439D01*
X286314Y500501D01*
X286349Y500561D01*
X286388Y500619D01*
X286430Y500674D01*
X286475Y500728D01*
X286523Y500778D01*
X286573Y500826D01*
X286627Y500871D01*
X286682Y500913D01*
X286740Y500952D01*
X286800Y500987D01*
X286862Y501019D01*
X286926Y501047D01*
X286991Y501072D01*
X287057Y501093D01*
X287125Y501111D01*
X287193Y501124D01*
X287262Y501134D01*
X287331Y501140D01*
X287401Y501142D01*
X287495Y501140D01*
X287588Y501134D01*
X287681Y501125D01*
X287774Y501112D01*
X287866Y501095D01*
X287957Y501075D01*
X288048Y501050D01*
X288137Y501023D01*
X288225Y500991D01*
X288312Y500956D01*
X288398Y500918D01*
X288481Y500876D01*
X288563Y500831D01*
X288644Y500783D01*
X288722Y500731D01*
X288798Y500676D01*
X286780Y498814D02*
X286721Y498850D01*
X286665Y498890D01*
X286611Y498933D01*
X286559Y498978D01*
X286510Y499027D01*
X286464Y499078D01*
X286421Y499131D01*
X286380Y499187D01*
X286343Y499245D01*
X286308Y499305D01*
X286278Y499366D01*
X286250Y499429D01*
X286226Y499494D01*
X286206Y499560D01*
X286189Y499627D01*
X286176Y499694D01*
X286167Y499762D01*
X286161Y499831D01*
X286159Y499900D01*
X288487Y497882D02*
X288546Y497846D01*
X288602Y497806D01*
X288656Y497763D01*
X288708Y497718D01*
X288757Y497669D01*
X288803Y497618D01*
X288846Y497565D01*
X288887Y497509D01*
X288924Y497451D01*
X288959Y497391D01*
X288989Y497330D01*
X289017Y497267D01*
X289041Y497202D01*
X289061Y497136D01*
X289078Y497069D01*
X289091Y497002D01*
X289100Y496934D01*
X289106Y496865D01*
X289108Y496796D01*
X288488Y497882D02*
X286780Y498814D01*
X292533Y495554D02*
X293775Y495554D01*
X292533Y495554D02*
X292463Y495556D01*
X292394Y495562D01*
X292325Y495572D01*
X292257Y495585D01*
X292189Y495603D01*
X292123Y495624D01*
X292058Y495649D01*
X291994Y495677D01*
X291932Y495709D01*
X291872Y495744D01*
X291814Y495783D01*
X291759Y495825D01*
X291705Y495870D01*
X291655Y495918D01*
X291607Y495968D01*
X291562Y496022D01*
X291520Y496077D01*
X291481Y496135D01*
X291446Y496195D01*
X291414Y496257D01*
X291386Y496321D01*
X291361Y496386D01*
X291340Y496452D01*
X291322Y496520D01*
X291309Y496588D01*
X291299Y496657D01*
X291293Y496726D01*
X291291Y496796D01*
X291291Y499900D01*
X291293Y499970D01*
X291299Y500039D01*
X291309Y500108D01*
X291322Y500176D01*
X291340Y500244D01*
X291361Y500310D01*
X291386Y500375D01*
X291414Y500439D01*
X291446Y500501D01*
X291481Y500561D01*
X291520Y500619D01*
X291562Y500674D01*
X291607Y500728D01*
X291655Y500778D01*
X291705Y500826D01*
X291759Y500871D01*
X291814Y500913D01*
X291872Y500952D01*
X291932Y500987D01*
X291994Y501019D01*
X292058Y501047D01*
X292123Y501072D01*
X292189Y501093D01*
X292257Y501111D01*
X292325Y501124D01*
X292394Y501134D01*
X292463Y501140D01*
X292533Y501142D01*
X293775Y501142D01*
X296073Y501142D02*
X296073Y495554D01*
X298557Y495554D01*
X289109Y471396D02*
X289107Y471326D01*
X289101Y471257D01*
X289091Y471188D01*
X289078Y471120D01*
X289060Y471052D01*
X289039Y470986D01*
X289014Y470921D01*
X288986Y470857D01*
X288954Y470795D01*
X288919Y470735D01*
X288880Y470677D01*
X288838Y470622D01*
X288793Y470568D01*
X288745Y470518D01*
X288695Y470470D01*
X288641Y470425D01*
X288586Y470383D01*
X288528Y470344D01*
X288468Y470309D01*
X288406Y470277D01*
X288342Y470249D01*
X288277Y470224D01*
X288211Y470203D01*
X288143Y470185D01*
X288075Y470172D01*
X288006Y470162D01*
X287937Y470156D01*
X287867Y470154D01*
X287768Y470156D01*
X287670Y470161D01*
X287572Y470171D01*
X287474Y470184D01*
X287377Y470200D01*
X287280Y470220D01*
X287185Y470244D01*
X287090Y470272D01*
X286996Y470303D01*
X286904Y470337D01*
X286813Y470375D01*
X286723Y470416D01*
X286635Y470461D01*
X286549Y470509D01*
X286465Y470560D01*
X286383Y470614D01*
X286302Y470672D01*
X286224Y470732D01*
X286149Y470795D01*
X286075Y470861D01*
X286005Y470930D01*
X286159Y474500D02*
X286161Y474570D01*
X286167Y474639D01*
X286177Y474708D01*
X286190Y474776D01*
X286208Y474844D01*
X286229Y474910D01*
X286254Y474975D01*
X286282Y475039D01*
X286314Y475101D01*
X286349Y475161D01*
X286388Y475219D01*
X286430Y475274D01*
X286475Y475328D01*
X286523Y475378D01*
X286573Y475426D01*
X286627Y475471D01*
X286682Y475513D01*
X286740Y475552D01*
X286800Y475587D01*
X286862Y475619D01*
X286926Y475647D01*
X286991Y475672D01*
X287057Y475693D01*
X287125Y475711D01*
X287193Y475724D01*
X287262Y475734D01*
X287331Y475740D01*
X287401Y475742D01*
X287495Y475740D01*
X287588Y475734D01*
X287681Y475725D01*
X287774Y475712D01*
X287866Y475695D01*
X287957Y475675D01*
X288048Y475650D01*
X288137Y475623D01*
X288225Y475591D01*
X288312Y475556D01*
X288398Y475518D01*
X288481Y475476D01*
X288563Y475431D01*
X288644Y475383D01*
X288722Y475331D01*
X288798Y475276D01*
X286780Y473414D02*
X286721Y473450D01*
X286665Y473490D01*
X286611Y473533D01*
X286559Y473578D01*
X286510Y473627D01*
X286464Y473678D01*
X286421Y473731D01*
X286380Y473787D01*
X286343Y473845D01*
X286308Y473905D01*
X286278Y473966D01*
X286250Y474029D01*
X286226Y474094D01*
X286206Y474160D01*
X286189Y474227D01*
X286176Y474294D01*
X286167Y474362D01*
X286161Y474431D01*
X286159Y474500D01*
X288487Y472482D02*
X288546Y472446D01*
X288602Y472406D01*
X288656Y472363D01*
X288708Y472318D01*
X288757Y472269D01*
X288803Y472218D01*
X288846Y472165D01*
X288887Y472109D01*
X288924Y472051D01*
X288959Y471991D01*
X288989Y471930D01*
X289017Y471867D01*
X289041Y471802D01*
X289061Y471736D01*
X289078Y471669D01*
X289091Y471602D01*
X289100Y471534D01*
X289106Y471465D01*
X289108Y471396D01*
X288488Y472482D02*
X286780Y473414D01*
X291490Y475742D02*
X291490Y470154D01*
X291490Y475742D02*
X293043Y475742D01*
X293119Y475740D01*
X293195Y475735D01*
X293271Y475725D01*
X293346Y475712D01*
X293420Y475695D01*
X293494Y475675D01*
X293566Y475651D01*
X293637Y475624D01*
X293707Y475593D01*
X293775Y475559D01*
X293841Y475521D01*
X293905Y475480D01*
X293968Y475437D01*
X294028Y475390D01*
X294085Y475340D01*
X294140Y475287D01*
X294193Y475232D01*
X294243Y475175D01*
X294290Y475115D01*
X294333Y475052D01*
X294374Y474988D01*
X294412Y474922D01*
X294446Y474854D01*
X294477Y474784D01*
X294504Y474713D01*
X294528Y474640D01*
X294548Y474567D01*
X294565Y474493D01*
X294578Y474418D01*
X294588Y474342D01*
X294593Y474266D01*
X294595Y474190D01*
X294595Y471706D01*
X294593Y471627D01*
X294587Y471549D01*
X294577Y471471D01*
X294563Y471394D01*
X294545Y471317D01*
X294524Y471241D01*
X294498Y471167D01*
X294469Y471094D01*
X294436Y471023D01*
X294400Y470953D01*
X294360Y470885D01*
X294317Y470819D01*
X294270Y470756D01*
X294221Y470695D01*
X294168Y470637D01*
X294112Y470581D01*
X294054Y470528D01*
X293993Y470479D01*
X293930Y470432D01*
X293864Y470389D01*
X293796Y470349D01*
X293727Y470313D01*
X293655Y470280D01*
X293582Y470251D01*
X293508Y470225D01*
X293432Y470204D01*
X293355Y470186D01*
X293278Y470172D01*
X293200Y470162D01*
X293122Y470156D01*
X293043Y470154D01*
X291490Y470154D01*
X296849Y470154D02*
X298712Y475742D01*
X300575Y470154D01*
X300109Y471551D02*
X297315Y471551D01*
X289108Y447858D02*
X288177Y447858D01*
X289108Y447858D02*
X289108Y444754D01*
X287246Y444754D01*
X287176Y444756D01*
X287107Y444762D01*
X287038Y444772D01*
X286970Y444785D01*
X286902Y444803D01*
X286836Y444824D01*
X286771Y444849D01*
X286707Y444877D01*
X286645Y444909D01*
X286585Y444944D01*
X286527Y444983D01*
X286472Y445025D01*
X286418Y445070D01*
X286368Y445118D01*
X286320Y445168D01*
X286275Y445222D01*
X286233Y445277D01*
X286194Y445335D01*
X286159Y445395D01*
X286127Y445457D01*
X286099Y445521D01*
X286074Y445586D01*
X286053Y445652D01*
X286035Y445720D01*
X286022Y445788D01*
X286012Y445857D01*
X286006Y445926D01*
X286004Y445996D01*
X286004Y449100D01*
X286006Y449170D01*
X286012Y449239D01*
X286022Y449308D01*
X286035Y449376D01*
X286053Y449444D01*
X286074Y449510D01*
X286099Y449575D01*
X286127Y449639D01*
X286159Y449701D01*
X286194Y449761D01*
X286233Y449819D01*
X286275Y449874D01*
X286320Y449928D01*
X286368Y449978D01*
X286418Y450026D01*
X286472Y450071D01*
X286527Y450113D01*
X286585Y450152D01*
X286645Y450187D01*
X286707Y450219D01*
X286771Y450247D01*
X286836Y450272D01*
X286902Y450293D01*
X286970Y450311D01*
X287038Y450324D01*
X287107Y450334D01*
X287176Y450340D01*
X287246Y450342D01*
X289108Y450342D01*
X291856Y450342D02*
X291856Y444754D01*
X294961Y444754D02*
X291856Y450342D01*
X294961Y450342D02*
X294961Y444754D01*
X297708Y444754D02*
X297708Y450342D01*
X299260Y450342D01*
X299336Y450340D01*
X299412Y450335D01*
X299488Y450325D01*
X299563Y450312D01*
X299637Y450295D01*
X299711Y450275D01*
X299783Y450251D01*
X299854Y450224D01*
X299924Y450193D01*
X299992Y450159D01*
X300058Y450121D01*
X300122Y450080D01*
X300185Y450037D01*
X300245Y449990D01*
X300302Y449940D01*
X300357Y449887D01*
X300410Y449832D01*
X300460Y449775D01*
X300507Y449715D01*
X300550Y449652D01*
X300591Y449588D01*
X300629Y449522D01*
X300663Y449454D01*
X300694Y449384D01*
X300721Y449313D01*
X300745Y449240D01*
X300765Y449167D01*
X300782Y449093D01*
X300795Y449018D01*
X300805Y448942D01*
X300810Y448866D01*
X300812Y448790D01*
X300813Y448790D02*
X300813Y446306D01*
X300812Y446306D02*
X300810Y446227D01*
X300804Y446149D01*
X300794Y446071D01*
X300780Y445994D01*
X300762Y445917D01*
X300741Y445841D01*
X300715Y445767D01*
X300686Y445694D01*
X300653Y445623D01*
X300617Y445553D01*
X300577Y445485D01*
X300534Y445419D01*
X300487Y445356D01*
X300438Y445295D01*
X300385Y445237D01*
X300329Y445181D01*
X300271Y445128D01*
X300210Y445079D01*
X300147Y445032D01*
X300081Y444989D01*
X300013Y444949D01*
X299944Y444913D01*
X299872Y444880D01*
X299799Y444851D01*
X299725Y444825D01*
X299649Y444804D01*
X299572Y444786D01*
X299495Y444772D01*
X299417Y444762D01*
X299339Y444756D01*
X299260Y444754D01*
X297708Y444754D01*
D15*
X604200Y216300D03*
X604200Y266300D03*
X310200Y164300D03*
X310200Y318300D03*
D16*
X469900Y635000D03*
X571500Y635000D03*
X361950Y361950D03*
X463550Y361950D03*
D17*
X656950Y426200D03*
X701950Y426200D03*
X656950Y361200D03*
D18*
X701950Y361200D03*
D19*
X409194Y635000D02*
X390906Y635000D01*
X390906Y609600D02*
X409194Y609600D01*
X409194Y584200D02*
X390906Y584200D01*
X390906Y558800D02*
X409194Y558800D01*
X409194Y533400D02*
X390906Y533400D01*
X390906Y508000D02*
X409194Y508000D01*
X409194Y482600D02*
X390906Y482600D01*
X390906Y457200D02*
X409194Y457200D01*
X619506Y635000D02*
X637794Y635000D01*
X637794Y609600D02*
X619506Y609600D01*
X619506Y584200D02*
X637794Y584200D01*
X637794Y558800D02*
X619506Y558800D01*
X619506Y533400D02*
X637794Y533400D01*
X637794Y508000D02*
X619506Y508000D01*
X619506Y482600D02*
X637794Y482600D01*
X637794Y457200D02*
X619506Y457200D01*
D20*
X690880Y609600D02*
X706120Y609600D01*
X706120Y584200D02*
X690880Y584200D01*
X690880Y558800D02*
X706120Y558800D01*
X706120Y533400D02*
X690880Y533400D01*
X690880Y508000D02*
X706120Y508000D01*
X706120Y482600D02*
X690880Y482600D01*
X337820Y558800D02*
X322580Y558800D01*
X322580Y584200D02*
X337820Y584200D01*
X337820Y609600D02*
X322580Y609600D01*
X322580Y635000D02*
X337820Y635000D01*
X337820Y495300D02*
X322580Y495300D01*
X322580Y469900D02*
X337820Y469900D01*
X337820Y444500D02*
X322580Y444500D01*
X322580Y419100D02*
X337820Y419100D01*
D21*
X666877Y183388D02*
X692023Y183388D01*
X692023Y223012D02*
X666877Y223012D01*
D22*
X660950Y724360D03*
X708110Y703740D03*
X660950Y654200D03*
D23*
X304800Y723900D03*
X304800Y95250D03*
X711200Y95250D03*
M02*
