G04 EAGLE Gerber X2 export*
%TF.Part,Single*%
%TF.FileFunction,Copper,L2,Bot,Mixed*%
%TF.FilePolarity,Positive*%
%TF.GenerationSoftware,Autodesk,EAGLE,8.7.1*%
%TF.CreationDate,2021-04-30T08:45:36Z*%
G75*
%MOMM*%
%FSLAX34Y34*%
%LPD*%
%AMOC8*
5,1,8,0,0,1.08239X$1,22.5*%
G01*
%ADD10R,1.524000X1.524000*%
%ADD11P,1.429621X8X22.500000*%
%ADD12C,1.498000*%
%ADD13R,1.498000X1.498000*%
%ADD14C,1.828800*%
%ADD15C,1.524000*%
%ADD16C,2.514600*%
%ADD17C,1.700000*%
%ADD18C,0.254000*%
%ADD19C,0.508000*%
%ADD20C,2.540000*%
%ADD21P,5.498541X8X22.500000*%

G36*
X669071Y77728D02*
X669071Y77728D01*
X669105Y77726D01*
X669294Y77748D01*
X669485Y77765D01*
X669518Y77774D01*
X669552Y77778D01*
X669735Y77833D01*
X669919Y77883D01*
X669950Y77898D01*
X669983Y77908D01*
X670154Y77995D01*
X670326Y78077D01*
X670354Y78097D01*
X670385Y78112D01*
X670537Y78228D01*
X670692Y78339D01*
X670716Y78364D01*
X670743Y78384D01*
X670872Y78524D01*
X671006Y78661D01*
X671025Y78690D01*
X671049Y78716D01*
X671151Y78877D01*
X671258Y79034D01*
X671272Y79066D01*
X671290Y79095D01*
X671363Y79272D01*
X671440Y79446D01*
X671448Y79480D01*
X671461Y79512D01*
X671501Y79699D01*
X671547Y79884D01*
X671549Y79918D01*
X671556Y79952D01*
X671575Y80264D01*
X671575Y111663D01*
X694787Y134875D01*
X722886Y134875D01*
X722921Y134878D01*
X722955Y134876D01*
X723144Y134898D01*
X723335Y134915D01*
X723368Y134924D01*
X723402Y134928D01*
X723585Y134983D01*
X723769Y135033D01*
X723800Y135048D01*
X723833Y135058D01*
X724004Y135145D01*
X724176Y135227D01*
X724204Y135247D01*
X724235Y135262D01*
X724387Y135378D01*
X724542Y135489D01*
X724566Y135514D01*
X724593Y135534D01*
X724722Y135674D01*
X724856Y135811D01*
X724875Y135840D01*
X724899Y135866D01*
X725001Y136027D01*
X725108Y136184D01*
X725122Y136216D01*
X725140Y136245D01*
X725213Y136422D01*
X725290Y136596D01*
X725298Y136630D01*
X725311Y136662D01*
X725351Y136848D01*
X725397Y137034D01*
X725399Y137068D01*
X725406Y137102D01*
X725425Y137414D01*
X725425Y305816D01*
X725422Y305851D01*
X725424Y305885D01*
X725402Y306074D01*
X725385Y306265D01*
X725376Y306298D01*
X725372Y306332D01*
X725317Y306515D01*
X725267Y306699D01*
X725252Y306730D01*
X725242Y306763D01*
X725155Y306934D01*
X725073Y307106D01*
X725053Y307134D01*
X725038Y307165D01*
X724922Y307317D01*
X724811Y307472D01*
X724786Y307496D01*
X724766Y307523D01*
X724626Y307652D01*
X724489Y307786D01*
X724460Y307805D01*
X724434Y307829D01*
X724273Y307931D01*
X724116Y308038D01*
X724084Y308052D01*
X724055Y308070D01*
X723878Y308143D01*
X723704Y308220D01*
X723670Y308228D01*
X723638Y308241D01*
X723451Y308281D01*
X723266Y308327D01*
X723232Y308329D01*
X723198Y308336D01*
X722886Y308355D01*
X424434Y308355D01*
X424399Y308352D01*
X424365Y308354D01*
X424176Y308332D01*
X423985Y308315D01*
X423952Y308306D01*
X423918Y308302D01*
X423735Y308247D01*
X423551Y308197D01*
X423520Y308182D01*
X423487Y308172D01*
X423316Y308085D01*
X423144Y308003D01*
X423116Y307983D01*
X423085Y307968D01*
X422933Y307852D01*
X422778Y307741D01*
X422754Y307716D01*
X422727Y307696D01*
X422598Y307556D01*
X422464Y307419D01*
X422445Y307390D01*
X422421Y307364D01*
X422319Y307203D01*
X422212Y307046D01*
X422198Y307014D01*
X422180Y306985D01*
X422107Y306808D01*
X422030Y306634D01*
X422022Y306600D01*
X422009Y306568D01*
X421969Y306381D01*
X421923Y306196D01*
X421921Y306162D01*
X421914Y306128D01*
X421895Y305816D01*
X421895Y130268D01*
X419536Y124573D01*
X415177Y120214D01*
X409482Y117855D01*
X344363Y117855D01*
X344233Y117844D01*
X344103Y117842D01*
X344010Y117824D01*
X343914Y117815D01*
X343789Y117781D01*
X343661Y117756D01*
X343572Y117722D01*
X343480Y117697D01*
X343363Y117641D01*
X343241Y117594D01*
X343159Y117544D01*
X343073Y117503D01*
X342968Y117428D01*
X342856Y117360D01*
X342785Y117297D01*
X342707Y117241D01*
X342617Y117148D01*
X342519Y117062D01*
X342460Y116987D01*
X342393Y116919D01*
X342320Y116811D01*
X342240Y116709D01*
X342195Y116625D01*
X342141Y116546D01*
X342089Y116427D01*
X342027Y116312D01*
X341998Y116221D01*
X341959Y116134D01*
X341928Y116007D01*
X341888Y115884D01*
X341875Y115789D01*
X341852Y115696D01*
X341844Y115567D01*
X341826Y115438D01*
X341830Y115342D01*
X341825Y115247D01*
X341840Y115118D01*
X341845Y114988D01*
X341866Y114895D01*
X341877Y114800D01*
X341914Y114675D01*
X341942Y114548D01*
X341979Y114460D01*
X342007Y114369D01*
X342066Y114253D01*
X342116Y114133D01*
X342168Y114053D01*
X342211Y113967D01*
X342290Y113864D01*
X342360Y113755D01*
X342446Y113657D01*
X342483Y113609D01*
X342516Y113578D01*
X342567Y113520D01*
X344425Y111663D01*
X344425Y80264D01*
X344428Y80229D01*
X344426Y80195D01*
X344448Y80006D01*
X344465Y79815D01*
X344474Y79782D01*
X344478Y79748D01*
X344533Y79565D01*
X344583Y79381D01*
X344598Y79350D01*
X344608Y79317D01*
X344695Y79146D01*
X344777Y78974D01*
X344797Y78946D01*
X344812Y78915D01*
X344928Y78763D01*
X345039Y78608D01*
X345064Y78584D01*
X345084Y78557D01*
X345224Y78428D01*
X345361Y78294D01*
X345390Y78275D01*
X345416Y78251D01*
X345577Y78149D01*
X345734Y78042D01*
X345766Y78028D01*
X345795Y78010D01*
X345972Y77937D01*
X346146Y77860D01*
X346180Y77852D01*
X346212Y77839D01*
X346399Y77799D01*
X346584Y77753D01*
X346618Y77751D01*
X346652Y77744D01*
X346964Y77725D01*
X669036Y77725D01*
X669071Y77728D01*
G37*
G36*
X388401Y148848D02*
X388401Y148848D01*
X388435Y148846D01*
X388624Y148868D01*
X388815Y148885D01*
X388848Y148894D01*
X388882Y148898D01*
X389065Y148953D01*
X389249Y149003D01*
X389280Y149018D01*
X389313Y149028D01*
X389484Y149115D01*
X389656Y149197D01*
X389684Y149217D01*
X389715Y149232D01*
X389867Y149348D01*
X390022Y149459D01*
X390046Y149484D01*
X390073Y149504D01*
X390202Y149644D01*
X390336Y149781D01*
X390355Y149810D01*
X390379Y149836D01*
X390481Y149997D01*
X390588Y150154D01*
X390602Y150186D01*
X390620Y150215D01*
X390693Y150392D01*
X390770Y150566D01*
X390778Y150600D01*
X390791Y150632D01*
X390831Y150819D01*
X390877Y151004D01*
X390879Y151038D01*
X390886Y151072D01*
X390905Y151384D01*
X390905Y326932D01*
X393264Y332627D01*
X397623Y336986D01*
X403318Y339345D01*
X450569Y339345D01*
X450698Y339356D01*
X450828Y339358D01*
X450922Y339376D01*
X451017Y339385D01*
X451143Y339419D01*
X451270Y339444D01*
X451360Y339478D01*
X451452Y339503D01*
X451569Y339559D01*
X451690Y339606D01*
X451772Y339656D01*
X451858Y339697D01*
X451964Y339772D01*
X452075Y339840D01*
X452147Y339903D01*
X452224Y339959D01*
X452315Y340052D01*
X452412Y340138D01*
X452472Y340213D01*
X452538Y340281D01*
X452611Y340389D01*
X452692Y340491D01*
X452737Y340575D01*
X452790Y340654D01*
X452843Y340773D01*
X452904Y340888D01*
X452934Y340979D01*
X452973Y341066D01*
X453004Y341193D01*
X453044Y341316D01*
X453057Y341411D01*
X453079Y341504D01*
X453087Y341633D01*
X453105Y341762D01*
X453101Y341858D01*
X453107Y341953D01*
X453092Y342082D01*
X453087Y342212D01*
X453066Y342305D01*
X453055Y342400D01*
X453017Y342525D01*
X452989Y342652D01*
X452952Y342740D01*
X452925Y342831D01*
X452866Y342947D01*
X452816Y343067D01*
X452764Y343148D01*
X452720Y343233D01*
X452642Y343336D01*
X452571Y343445D01*
X452485Y343543D01*
X452448Y343591D01*
X452415Y343622D01*
X452364Y343680D01*
X442721Y353322D01*
X442721Y370578D01*
X454922Y382779D01*
X472178Y382779D01*
X476768Y378188D01*
X476894Y378083D01*
X477015Y377971D01*
X477066Y377939D01*
X477113Y377900D01*
X477256Y377818D01*
X477395Y377730D01*
X477451Y377706D01*
X477504Y377676D01*
X477659Y377621D01*
X477811Y377559D01*
X477871Y377546D01*
X477928Y377525D01*
X478091Y377499D01*
X478251Y377464D01*
X478328Y377459D01*
X478373Y377452D01*
X478434Y377453D01*
X478563Y377445D01*
X641434Y377445D01*
X641597Y377459D01*
X641762Y377466D01*
X641821Y377479D01*
X641882Y377485D01*
X642041Y377528D01*
X642201Y377564D01*
X642258Y377587D01*
X642317Y377603D01*
X642465Y377674D01*
X642617Y377737D01*
X642668Y377770D01*
X642723Y377797D01*
X642857Y377892D01*
X642995Y377982D01*
X643053Y378033D01*
X643089Y378059D01*
X643132Y378102D01*
X643229Y378188D01*
X644650Y379609D01*
X652631Y382915D01*
X661269Y382915D01*
X669250Y379609D01*
X675359Y373500D01*
X675861Y372287D01*
X675922Y372172D01*
X675973Y372053D01*
X676026Y371973D01*
X676070Y371888D01*
X676149Y371785D01*
X676221Y371677D01*
X676287Y371608D01*
X676346Y371532D01*
X676442Y371445D01*
X676532Y371351D01*
X676609Y371295D01*
X676680Y371231D01*
X676790Y371162D01*
X676895Y371085D01*
X676981Y371043D01*
X677062Y370993D01*
X677183Y370945D01*
X677300Y370887D01*
X677392Y370861D01*
X677480Y370826D01*
X677608Y370800D01*
X677733Y370764D01*
X677828Y370755D01*
X677922Y370736D01*
X678052Y370733D01*
X678181Y370720D01*
X678276Y370727D01*
X678372Y370725D01*
X678500Y370745D01*
X678630Y370755D01*
X678722Y370779D01*
X678817Y370794D01*
X678940Y370836D01*
X679065Y370869D01*
X679152Y370909D01*
X679242Y370940D01*
X679356Y371004D01*
X679474Y371058D01*
X679552Y371113D01*
X679636Y371160D01*
X679736Y371242D01*
X679843Y371317D01*
X679910Y371384D01*
X679984Y371445D01*
X680069Y371544D01*
X680160Y371636D01*
X680214Y371714D01*
X680277Y371787D01*
X680342Y371900D01*
X680416Y372006D01*
X680473Y372123D01*
X680504Y372176D01*
X680519Y372218D01*
X680553Y372287D01*
X682401Y376748D01*
X686402Y380749D01*
X691631Y382915D01*
X705866Y382915D01*
X705901Y382918D01*
X705935Y382916D01*
X706124Y382938D01*
X706315Y382955D01*
X706348Y382964D01*
X706382Y382968D01*
X706565Y383023D01*
X706749Y383073D01*
X706780Y383088D01*
X706813Y383098D01*
X706984Y383185D01*
X707156Y383267D01*
X707184Y383287D01*
X707215Y383302D01*
X707367Y383418D01*
X707522Y383529D01*
X707546Y383554D01*
X707573Y383574D01*
X707702Y383714D01*
X707836Y383851D01*
X707855Y383880D01*
X707879Y383906D01*
X707981Y384067D01*
X708088Y384224D01*
X708102Y384256D01*
X708120Y384285D01*
X708193Y384462D01*
X708270Y384636D01*
X708278Y384670D01*
X708291Y384702D01*
X708331Y384889D01*
X708377Y385074D01*
X708379Y385108D01*
X708386Y385142D01*
X708405Y385454D01*
X708405Y401946D01*
X708402Y401981D01*
X708404Y402015D01*
X708382Y402204D01*
X708365Y402395D01*
X708356Y402428D01*
X708352Y402462D01*
X708297Y402645D01*
X708247Y402829D01*
X708232Y402860D01*
X708222Y402893D01*
X708135Y403064D01*
X708053Y403236D01*
X708033Y403264D01*
X708018Y403295D01*
X707902Y403447D01*
X707791Y403602D01*
X707766Y403626D01*
X707746Y403653D01*
X707606Y403782D01*
X707469Y403916D01*
X707440Y403935D01*
X707414Y403959D01*
X707253Y404061D01*
X707096Y404168D01*
X707064Y404182D01*
X707035Y404200D01*
X706858Y404273D01*
X706684Y404350D01*
X706650Y404358D01*
X706618Y404371D01*
X706431Y404411D01*
X706246Y404457D01*
X706212Y404459D01*
X706178Y404466D01*
X705866Y404485D01*
X697631Y404485D01*
X689650Y407791D01*
X683541Y413900D01*
X681796Y418113D01*
X681736Y418228D01*
X681684Y418348D01*
X681632Y418427D01*
X681587Y418512D01*
X681508Y418615D01*
X681436Y418723D01*
X681370Y418792D01*
X681312Y418868D01*
X681215Y418955D01*
X681125Y419049D01*
X681048Y419106D01*
X680977Y419170D01*
X680867Y419238D01*
X680762Y419315D01*
X680676Y419357D01*
X680595Y419407D01*
X680474Y419456D01*
X680358Y419513D01*
X680266Y419539D01*
X680177Y419574D01*
X680049Y419600D01*
X679924Y419636D01*
X679829Y419645D01*
X679736Y419664D01*
X679606Y419667D01*
X679476Y419680D01*
X679381Y419673D01*
X679286Y419675D01*
X679157Y419655D01*
X679027Y419645D01*
X678935Y419621D01*
X678841Y419606D01*
X678718Y419564D01*
X678592Y419531D01*
X678505Y419491D01*
X678415Y419460D01*
X678301Y419396D01*
X678183Y419342D01*
X678105Y419287D01*
X678022Y419240D01*
X677921Y419158D01*
X677814Y419083D01*
X677747Y419016D01*
X677673Y418955D01*
X677589Y418856D01*
X677497Y418764D01*
X677443Y418685D01*
X677381Y418613D01*
X677315Y418501D01*
X677241Y418394D01*
X677184Y418277D01*
X677153Y418224D01*
X677138Y418182D01*
X677104Y418113D01*
X675359Y413900D01*
X669250Y407791D01*
X661269Y404485D01*
X652631Y404485D01*
X644650Y407791D01*
X638541Y413900D01*
X635235Y421881D01*
X635235Y430574D01*
X635245Y430613D01*
X635288Y430750D01*
X635298Y430832D01*
X635317Y430912D01*
X635326Y431054D01*
X635344Y431196D01*
X635340Y431279D01*
X635345Y431361D01*
X635329Y431503D01*
X635321Y431646D01*
X635303Y431726D01*
X635293Y431808D01*
X635252Y431945D01*
X635219Y432085D01*
X635187Y432160D01*
X635163Y432239D01*
X635098Y432367D01*
X635041Y432498D01*
X634996Y432567D01*
X634958Y432641D01*
X634872Y432755D01*
X634793Y432874D01*
X634736Y432934D01*
X634686Y432999D01*
X634581Y433096D01*
X634483Y433200D01*
X634416Y433249D01*
X634355Y433305D01*
X634235Y433381D01*
X634119Y433466D01*
X634045Y433502D01*
X633976Y433546D01*
X633843Y433601D01*
X633715Y433663D01*
X633635Y433686D01*
X633559Y433717D01*
X633419Y433747D01*
X633282Y433787D01*
X633199Y433795D01*
X633119Y433812D01*
X632873Y433827D01*
X632834Y433831D01*
X632823Y433830D01*
X632807Y433831D01*
X616429Y433831D01*
X610486Y435424D01*
X605157Y438500D01*
X600806Y442851D01*
X597730Y448180D01*
X596137Y454123D01*
X596137Y460277D01*
X597730Y466220D01*
X599121Y468630D01*
X599141Y468672D01*
X599166Y468711D01*
X599236Y468876D01*
X599311Y469039D01*
X599323Y469083D01*
X599341Y469126D01*
X599380Y469301D01*
X599426Y469474D01*
X599429Y469520D01*
X599439Y469565D01*
X599447Y469744D01*
X599462Y469923D01*
X599457Y469969D01*
X599459Y470015D01*
X599435Y470192D01*
X599418Y470371D01*
X599405Y470416D01*
X599399Y470461D01*
X599344Y470632D01*
X599295Y470804D01*
X599275Y470846D01*
X599261Y470890D01*
X599121Y471170D01*
X597730Y473580D01*
X596137Y479523D01*
X596137Y485677D01*
X597730Y491620D01*
X599121Y494030D01*
X599141Y494072D01*
X599166Y494111D01*
X599236Y494276D01*
X599311Y494439D01*
X599323Y494483D01*
X599341Y494526D01*
X599380Y494701D01*
X599426Y494874D01*
X599429Y494920D01*
X599439Y494965D01*
X599447Y495144D01*
X599462Y495323D01*
X599457Y495369D01*
X599459Y495415D01*
X599435Y495592D01*
X599418Y495771D01*
X599405Y495816D01*
X599399Y495861D01*
X599344Y496032D01*
X599295Y496204D01*
X599275Y496246D01*
X599261Y496290D01*
X599121Y496570D01*
X597730Y498980D01*
X596137Y504923D01*
X596137Y511077D01*
X597730Y517020D01*
X599121Y519430D01*
X599141Y519472D01*
X599166Y519511D01*
X599236Y519676D01*
X599311Y519839D01*
X599323Y519883D01*
X599341Y519926D01*
X599380Y520101D01*
X599426Y520274D01*
X599429Y520320D01*
X599439Y520365D01*
X599447Y520544D01*
X599462Y520723D01*
X599457Y520769D01*
X599459Y520815D01*
X599435Y520992D01*
X599418Y521171D01*
X599405Y521216D01*
X599399Y521261D01*
X599344Y521432D01*
X599295Y521604D01*
X599275Y521646D01*
X599261Y521690D01*
X599121Y521970D01*
X597730Y524380D01*
X596137Y530323D01*
X596137Y536477D01*
X597730Y542420D01*
X599121Y544830D01*
X599141Y544872D01*
X599166Y544911D01*
X599236Y545076D01*
X599311Y545239D01*
X599323Y545283D01*
X599341Y545326D01*
X599380Y545501D01*
X599426Y545674D01*
X599429Y545720D01*
X599439Y545765D01*
X599447Y545944D01*
X599462Y546123D01*
X599457Y546169D01*
X599459Y546215D01*
X599435Y546392D01*
X599418Y546571D01*
X599405Y546616D01*
X599399Y546661D01*
X599344Y546832D01*
X599295Y547004D01*
X599275Y547046D01*
X599261Y547090D01*
X599121Y547370D01*
X597730Y549780D01*
X596137Y555723D01*
X596137Y561877D01*
X597730Y567820D01*
X599121Y570230D01*
X599141Y570272D01*
X599166Y570311D01*
X599236Y570476D01*
X599311Y570639D01*
X599323Y570683D01*
X599341Y570726D01*
X599380Y570901D01*
X599426Y571074D01*
X599429Y571120D01*
X599439Y571165D01*
X599447Y571344D01*
X599462Y571523D01*
X599457Y571569D01*
X599459Y571615D01*
X599435Y571792D01*
X599418Y571971D01*
X599405Y572016D01*
X599399Y572061D01*
X599344Y572232D01*
X599295Y572404D01*
X599275Y572446D01*
X599261Y572490D01*
X599121Y572770D01*
X597730Y575180D01*
X596137Y581123D01*
X596137Y587277D01*
X597730Y593220D01*
X599121Y595630D01*
X599141Y595672D01*
X599166Y595711D01*
X599236Y595876D01*
X599311Y596039D01*
X599323Y596083D01*
X599341Y596126D01*
X599380Y596301D01*
X599426Y596474D01*
X599429Y596520D01*
X599439Y596565D01*
X599447Y596744D01*
X599462Y596923D01*
X599457Y596969D01*
X599459Y597015D01*
X599435Y597192D01*
X599418Y597371D01*
X599405Y597416D01*
X599399Y597461D01*
X599344Y597632D01*
X599295Y597804D01*
X599275Y597846D01*
X599261Y597890D01*
X599121Y598170D01*
X597730Y600580D01*
X596137Y606523D01*
X596137Y612677D01*
X597730Y618620D01*
X599121Y621030D01*
X599141Y621072D01*
X599166Y621111D01*
X599236Y621276D01*
X599311Y621439D01*
X599323Y621483D01*
X599341Y621526D01*
X599380Y621701D01*
X599426Y621874D01*
X599429Y621920D01*
X599439Y621965D01*
X599447Y622144D01*
X599462Y622323D01*
X599457Y622369D01*
X599459Y622415D01*
X599435Y622592D01*
X599418Y622771D01*
X599405Y622816D01*
X599399Y622861D01*
X599344Y623032D01*
X599295Y623204D01*
X599275Y623246D01*
X599261Y623290D01*
X599121Y623570D01*
X597730Y625980D01*
X597321Y627507D01*
X597280Y627618D01*
X597249Y627733D01*
X597203Y627829D01*
X597166Y627930D01*
X597106Y628032D01*
X597055Y628139D01*
X596993Y628226D01*
X596939Y628319D01*
X596862Y628409D01*
X596793Y628505D01*
X596717Y628580D01*
X596647Y628661D01*
X596556Y628737D01*
X596471Y628819D01*
X596382Y628879D01*
X596299Y628947D01*
X596196Y629005D01*
X596098Y629071D01*
X596000Y629115D01*
X595906Y629167D01*
X595794Y629206D01*
X595686Y629254D01*
X595582Y629279D01*
X595481Y629314D01*
X595363Y629332D01*
X595248Y629360D01*
X595142Y629367D01*
X595036Y629383D01*
X594917Y629381D01*
X594799Y629388D01*
X594693Y629376D01*
X594586Y629373D01*
X594470Y629350D01*
X594352Y629336D01*
X594249Y629305D01*
X594144Y629284D01*
X594034Y629240D01*
X593921Y629206D01*
X593825Y629157D01*
X593726Y629118D01*
X593625Y629055D01*
X593519Y629001D01*
X593434Y628937D01*
X593343Y628880D01*
X593255Y628801D01*
X593161Y628729D01*
X593088Y628651D01*
X593009Y628579D01*
X592936Y628485D01*
X592855Y628398D01*
X592798Y628308D01*
X592732Y628223D01*
X592677Y628118D01*
X592614Y628018D01*
X592573Y627919D01*
X592523Y627825D01*
X592488Y627711D01*
X592443Y627602D01*
X592420Y627497D01*
X592388Y627395D01*
X592373Y627278D01*
X592348Y627162D01*
X592339Y627011D01*
X592331Y626948D01*
X592333Y626911D01*
X592329Y626850D01*
X592329Y626372D01*
X587738Y621782D01*
X587633Y621656D01*
X587521Y621535D01*
X587489Y621484D01*
X587450Y621437D01*
X587368Y621294D01*
X587280Y621155D01*
X587256Y621099D01*
X587226Y621046D01*
X587171Y620891D01*
X587109Y620739D01*
X587096Y620679D01*
X587075Y620622D01*
X587049Y620459D01*
X587014Y620299D01*
X587009Y620222D01*
X587002Y620177D01*
X587003Y620116D01*
X586995Y619987D01*
X586995Y555718D01*
X584636Y550023D01*
X580277Y545664D01*
X574582Y543305D01*
X434042Y543305D01*
X433901Y543293D01*
X433760Y543290D01*
X433677Y543273D01*
X433594Y543265D01*
X433457Y543228D01*
X433318Y543200D01*
X433240Y543169D01*
X433159Y543147D01*
X433032Y543086D01*
X432900Y543034D01*
X432828Y542989D01*
X432753Y542953D01*
X432638Y542871D01*
X432517Y542796D01*
X432455Y542740D01*
X432387Y542691D01*
X432288Y542590D01*
X432183Y542495D01*
X432131Y542429D01*
X432073Y542369D01*
X431993Y542251D01*
X431907Y542140D01*
X431868Y542065D01*
X431820Y541996D01*
X431763Y541866D01*
X431697Y541741D01*
X431672Y541661D01*
X431638Y541584D01*
X431605Y541446D01*
X431562Y541311D01*
X431551Y541228D01*
X431532Y541146D01*
X431523Y541005D01*
X431505Y540865D01*
X431509Y540781D01*
X431504Y540697D01*
X431520Y540556D01*
X431527Y540415D01*
X431549Y540306D01*
X431556Y540250D01*
X431571Y540200D01*
X431589Y540109D01*
X432563Y536477D01*
X432563Y530323D01*
X430970Y524380D01*
X429579Y521970D01*
X429559Y521928D01*
X429534Y521889D01*
X429464Y521724D01*
X429389Y521561D01*
X429377Y521517D01*
X429359Y521474D01*
X429320Y521299D01*
X429274Y521126D01*
X429271Y521080D01*
X429261Y521035D01*
X429253Y520856D01*
X429238Y520677D01*
X429243Y520631D01*
X429241Y520585D01*
X429265Y520408D01*
X429282Y520229D01*
X429295Y520185D01*
X429301Y520139D01*
X429356Y519968D01*
X429405Y519796D01*
X429425Y519754D01*
X429439Y519710D01*
X429579Y519430D01*
X430970Y517020D01*
X432563Y511077D01*
X432563Y504923D01*
X430970Y498980D01*
X429579Y496570D01*
X429559Y496528D01*
X429534Y496489D01*
X429464Y496324D01*
X429389Y496161D01*
X429377Y496117D01*
X429359Y496074D01*
X429320Y495899D01*
X429274Y495726D01*
X429271Y495680D01*
X429261Y495635D01*
X429253Y495456D01*
X429238Y495277D01*
X429243Y495231D01*
X429241Y495185D01*
X429265Y495008D01*
X429282Y494829D01*
X429295Y494785D01*
X429301Y494739D01*
X429356Y494568D01*
X429405Y494396D01*
X429425Y494354D01*
X429439Y494310D01*
X429579Y494030D01*
X430970Y491620D01*
X432563Y485677D01*
X432563Y479523D01*
X430970Y473580D01*
X429579Y471170D01*
X429559Y471128D01*
X429534Y471089D01*
X429464Y470924D01*
X429389Y470761D01*
X429377Y470717D01*
X429359Y470674D01*
X429320Y470499D01*
X429274Y470326D01*
X429271Y470280D01*
X429261Y470235D01*
X429253Y470056D01*
X429238Y469877D01*
X429243Y469831D01*
X429241Y469785D01*
X429265Y469608D01*
X429282Y469429D01*
X429295Y469385D01*
X429301Y469339D01*
X429356Y469168D01*
X429405Y468996D01*
X429425Y468954D01*
X429439Y468910D01*
X429579Y468630D01*
X430970Y466220D01*
X432563Y460277D01*
X432563Y454123D01*
X430970Y448180D01*
X427894Y442851D01*
X423543Y438500D01*
X418214Y435424D01*
X412271Y433831D01*
X387829Y433831D01*
X381886Y435424D01*
X381254Y435789D01*
X381233Y435799D01*
X381214Y435812D01*
X381028Y435894D01*
X380845Y435979D01*
X380823Y435984D01*
X380802Y435994D01*
X380605Y436042D01*
X380410Y436093D01*
X380387Y436095D01*
X380364Y436100D01*
X380163Y436113D01*
X379961Y436129D01*
X379938Y436127D01*
X379915Y436128D01*
X379714Y436105D01*
X379513Y436085D01*
X379491Y436079D01*
X379468Y436076D01*
X379273Y436017D01*
X379080Y435963D01*
X379059Y435953D01*
X379037Y435946D01*
X378856Y435854D01*
X378675Y435766D01*
X378656Y435752D01*
X378635Y435741D01*
X378475Y435619D01*
X378311Y435500D01*
X378295Y435483D01*
X378277Y435469D01*
X378140Y435321D01*
X378000Y435175D01*
X377987Y435155D01*
X377971Y435138D01*
X377863Y434968D01*
X377751Y434799D01*
X377742Y434778D01*
X377730Y434759D01*
X377653Y434571D01*
X377573Y434386D01*
X377567Y434363D01*
X377559Y434342D01*
X377516Y434144D01*
X377470Y433947D01*
X377469Y433924D01*
X377464Y433902D01*
X377445Y433590D01*
X377445Y376963D01*
X377459Y376800D01*
X377466Y376635D01*
X377479Y376576D01*
X377485Y376515D01*
X377528Y376356D01*
X377564Y376196D01*
X377587Y376139D01*
X377603Y376080D01*
X377674Y375932D01*
X377737Y375780D01*
X377770Y375729D01*
X377797Y375674D01*
X377892Y375540D01*
X377982Y375402D01*
X378033Y375344D01*
X378059Y375308D01*
X378102Y375265D01*
X378188Y375168D01*
X382779Y370578D01*
X382779Y353322D01*
X378188Y348732D01*
X378083Y348606D01*
X377971Y348485D01*
X377939Y348434D01*
X377900Y348387D01*
X377818Y348244D01*
X377730Y348105D01*
X377706Y348049D01*
X377676Y347996D01*
X377621Y347841D01*
X377559Y347689D01*
X377546Y347629D01*
X377525Y347572D01*
X377499Y347410D01*
X377464Y347249D01*
X377459Y347171D01*
X377452Y347127D01*
X377453Y347067D01*
X377445Y346937D01*
X377445Y161218D01*
X375086Y155523D01*
X372742Y153180D01*
X372659Y153080D01*
X372568Y152987D01*
X372515Y152907D01*
X372453Y152834D01*
X372389Y152721D01*
X372316Y152614D01*
X372277Y152526D01*
X372230Y152443D01*
X372187Y152321D01*
X372134Y152202D01*
X372111Y152109D01*
X372079Y152019D01*
X372058Y151891D01*
X372027Y151764D01*
X372021Y151669D01*
X372006Y151575D01*
X372008Y151445D01*
X372000Y151315D01*
X372011Y151220D01*
X372012Y151124D01*
X372037Y150997D01*
X372052Y150868D01*
X372079Y150776D01*
X372097Y150682D01*
X372144Y150561D01*
X372182Y150437D01*
X372225Y150351D01*
X372260Y150262D01*
X372327Y150151D01*
X372386Y150035D01*
X372444Y149959D01*
X372494Y149878D01*
X372580Y149780D01*
X372658Y149677D01*
X372729Y149612D01*
X372792Y149540D01*
X372894Y149460D01*
X372989Y149371D01*
X373070Y149320D01*
X373145Y149261D01*
X373260Y149200D01*
X373369Y149130D01*
X373458Y149093D01*
X373542Y149048D01*
X373666Y149008D01*
X373786Y148959D01*
X373879Y148939D01*
X373970Y148909D01*
X374099Y148891D01*
X374226Y148864D01*
X374356Y148856D01*
X374416Y148848D01*
X374461Y148849D01*
X374538Y148845D01*
X388366Y148845D01*
X388401Y148848D01*
G37*
%LPC*%
G36*
X599705Y138175D02*
X599705Y138175D01*
X592858Y140010D01*
X586718Y143555D01*
X581705Y148568D01*
X578160Y154708D01*
X576325Y161555D01*
X576325Y168645D01*
X577189Y171867D01*
X577219Y172040D01*
X577256Y172213D01*
X577260Y172274D01*
X577266Y172311D01*
X577266Y172374D01*
X577275Y172524D01*
X577275Y219845D01*
X579110Y226692D01*
X582655Y232832D01*
X587668Y237845D01*
X589843Y239101D01*
X589862Y239114D01*
X589883Y239124D01*
X590045Y239243D01*
X590211Y239360D01*
X590228Y239376D01*
X590246Y239390D01*
X590386Y239536D01*
X590528Y239680D01*
X590541Y239699D01*
X590557Y239715D01*
X590669Y239884D01*
X590784Y240050D01*
X590793Y240071D01*
X590806Y240091D01*
X590886Y240276D01*
X590970Y240460D01*
X590975Y240483D01*
X590985Y240504D01*
X591031Y240701D01*
X591080Y240897D01*
X591082Y240920D01*
X591087Y240942D01*
X591098Y241145D01*
X591112Y241346D01*
X591110Y241369D01*
X591111Y241392D01*
X591086Y241593D01*
X591064Y241794D01*
X591058Y241816D01*
X591055Y241839D01*
X590994Y242032D01*
X590938Y242226D01*
X590927Y242247D01*
X590921Y242269D01*
X590827Y242448D01*
X590737Y242629D01*
X590723Y242648D01*
X590713Y242668D01*
X590590Y242827D01*
X590468Y242990D01*
X590451Y243006D01*
X590437Y243024D01*
X590288Y243159D01*
X590140Y243298D01*
X590121Y243311D01*
X590103Y243326D01*
X589843Y243499D01*
X587668Y244755D01*
X582655Y249768D01*
X579110Y255908D01*
X577275Y262755D01*
X577275Y269845D01*
X579110Y276692D01*
X582655Y282832D01*
X587668Y287845D01*
X593808Y291390D01*
X600655Y293225D01*
X677045Y293225D01*
X683892Y291390D01*
X690032Y287845D01*
X700995Y276882D01*
X704540Y270742D01*
X706375Y263895D01*
X706375Y247135D01*
X706379Y247089D01*
X706376Y247043D01*
X706399Y246865D01*
X706415Y246687D01*
X706427Y246642D01*
X706433Y246597D01*
X706486Y246426D01*
X706533Y246253D01*
X706553Y246211D01*
X706567Y246167D01*
X706650Y246007D01*
X706727Y245846D01*
X706753Y245808D01*
X706775Y245767D01*
X706884Y245626D01*
X706989Y245480D01*
X707022Y245448D01*
X707050Y245411D01*
X707183Y245291D01*
X707311Y245166D01*
X707350Y245140D01*
X707384Y245109D01*
X707644Y244936D01*
X708477Y244456D01*
X713467Y239466D01*
X716995Y233356D01*
X718821Y226540D01*
X718821Y219484D01*
X716995Y212668D01*
X713467Y206558D01*
X711904Y204996D01*
X711882Y204969D01*
X711856Y204946D01*
X711738Y204797D01*
X711615Y204650D01*
X711598Y204620D01*
X711577Y204593D01*
X711486Y204425D01*
X711392Y204259D01*
X711380Y204227D01*
X711364Y204196D01*
X711305Y204015D01*
X711241Y203835D01*
X711235Y203801D01*
X711225Y203768D01*
X711199Y203579D01*
X711168Y203391D01*
X711168Y203356D01*
X711163Y203322D01*
X711171Y203131D01*
X711174Y202940D01*
X711180Y202906D01*
X711182Y202872D01*
X711223Y202686D01*
X711259Y202498D01*
X711272Y202466D01*
X711279Y202432D01*
X711353Y202257D01*
X711422Y202078D01*
X711440Y202049D01*
X711453Y202017D01*
X711556Y201857D01*
X711656Y201694D01*
X711678Y201668D01*
X711697Y201639D01*
X711904Y201404D01*
X713466Y199842D01*
X716995Y193732D01*
X718821Y186916D01*
X718821Y179860D01*
X716995Y173044D01*
X713467Y166934D01*
X708477Y161944D01*
X707024Y161106D01*
X706890Y161011D01*
X706751Y160923D01*
X706706Y160882D01*
X706656Y160847D01*
X706540Y160730D01*
X706419Y160619D01*
X706382Y160570D01*
X706339Y160527D01*
X706245Y160392D01*
X706146Y160261D01*
X706118Y160206D01*
X706083Y160156D01*
X706015Y160007D01*
X705940Y159860D01*
X705916Y159787D01*
X705897Y159746D01*
X705882Y159687D01*
X705841Y159564D01*
X704540Y154708D01*
X700995Y148568D01*
X695982Y143555D01*
X689842Y140010D01*
X682995Y138175D01*
X599705Y138175D01*
G37*
%LPD*%
G36*
X306294Y650509D02*
X306294Y650509D01*
X306458Y650516D01*
X306517Y650529D01*
X306578Y650535D01*
X306737Y650578D01*
X306898Y650614D01*
X306954Y650637D01*
X307013Y650653D01*
X307161Y650724D01*
X307313Y650787D01*
X307364Y650820D01*
X307419Y650847D01*
X307553Y650942D01*
X307691Y651032D01*
X307749Y651083D01*
X307785Y651109D01*
X307828Y651152D01*
X307925Y651238D01*
X310206Y653519D01*
X318235Y656845D01*
X342165Y656845D01*
X350194Y653519D01*
X352475Y651238D01*
X352601Y651133D01*
X352722Y651021D01*
X352773Y650989D01*
X352820Y650950D01*
X352963Y650868D01*
X353101Y650780D01*
X353158Y650756D01*
X353211Y650726D01*
X353366Y650671D01*
X353518Y650609D01*
X353578Y650596D01*
X353635Y650575D01*
X353797Y650549D01*
X353958Y650514D01*
X354035Y650509D01*
X354079Y650502D01*
X354140Y650503D01*
X354270Y650495D01*
X372301Y650495D01*
X372464Y650509D01*
X372629Y650516D01*
X372688Y650529D01*
X372749Y650535D01*
X372908Y650578D01*
X373068Y650614D01*
X373125Y650637D01*
X373183Y650653D01*
X373332Y650724D01*
X373484Y650787D01*
X373535Y650820D01*
X373590Y650847D01*
X373724Y650942D01*
X373862Y651032D01*
X373920Y651083D01*
X373956Y651109D01*
X373999Y651152D01*
X374096Y651238D01*
X376557Y653700D01*
X381886Y656776D01*
X387829Y658369D01*
X412271Y658369D01*
X418214Y656776D01*
X423543Y653700D01*
X426004Y651238D01*
X426130Y651133D01*
X426251Y651021D01*
X426303Y650989D01*
X426349Y650950D01*
X426492Y650868D01*
X426631Y650780D01*
X426687Y650756D01*
X426740Y650726D01*
X426895Y650671D01*
X427047Y650609D01*
X427107Y650596D01*
X427164Y650575D01*
X427327Y650549D01*
X427488Y650514D01*
X427565Y650509D01*
X427609Y650502D01*
X427669Y650503D01*
X427799Y650495D01*
X451866Y650495D01*
X451901Y650498D01*
X451935Y650496D01*
X452124Y650518D01*
X452315Y650535D01*
X452348Y650544D01*
X452382Y650548D01*
X452565Y650603D01*
X452749Y650653D01*
X452780Y650668D01*
X452813Y650678D01*
X452984Y650765D01*
X453156Y650847D01*
X453184Y650867D01*
X453215Y650882D01*
X453367Y650998D01*
X453522Y651109D01*
X453546Y651134D01*
X453573Y651154D01*
X453702Y651294D01*
X453836Y651431D01*
X453855Y651460D01*
X453879Y651486D01*
X453981Y651647D01*
X454088Y651804D01*
X454102Y651836D01*
X454120Y651865D01*
X454193Y652042D01*
X454270Y652216D01*
X454278Y652250D01*
X454291Y652282D01*
X454331Y652469D01*
X454377Y652654D01*
X454379Y652688D01*
X454386Y652722D01*
X454405Y653034D01*
X454405Y738786D01*
X454402Y738821D01*
X454404Y738855D01*
X454382Y739044D01*
X454365Y739235D01*
X454356Y739268D01*
X454352Y739302D01*
X454297Y739485D01*
X454247Y739669D01*
X454232Y739700D01*
X454222Y739733D01*
X454135Y739904D01*
X454053Y740076D01*
X454033Y740104D01*
X454018Y740135D01*
X453902Y740287D01*
X453791Y740442D01*
X453766Y740466D01*
X453746Y740493D01*
X453606Y740622D01*
X453469Y740756D01*
X453440Y740775D01*
X453414Y740799D01*
X453253Y740901D01*
X453096Y741008D01*
X453064Y741022D01*
X453035Y741040D01*
X452858Y741113D01*
X452684Y741190D01*
X452650Y741198D01*
X452618Y741211D01*
X452431Y741251D01*
X452246Y741297D01*
X452212Y741299D01*
X452178Y741306D01*
X451866Y741325D01*
X346964Y741325D01*
X346929Y741322D01*
X346895Y741324D01*
X346706Y741302D01*
X346515Y741285D01*
X346482Y741276D01*
X346448Y741272D01*
X346265Y741217D01*
X346081Y741167D01*
X346050Y741152D01*
X346017Y741142D01*
X345846Y741055D01*
X345674Y740973D01*
X345646Y740953D01*
X345615Y740938D01*
X345463Y740822D01*
X345308Y740711D01*
X345284Y740686D01*
X345257Y740666D01*
X345128Y740526D01*
X344994Y740389D01*
X344975Y740360D01*
X344951Y740334D01*
X344849Y740173D01*
X344742Y740016D01*
X344728Y739984D01*
X344710Y739955D01*
X344637Y739778D01*
X344560Y739604D01*
X344552Y739570D01*
X344539Y739538D01*
X344499Y739351D01*
X344453Y739166D01*
X344451Y739132D01*
X344444Y739098D01*
X344425Y738786D01*
X344425Y707487D01*
X321213Y684275D01*
X289814Y684275D01*
X289779Y684272D01*
X289745Y684274D01*
X289556Y684252D01*
X289365Y684235D01*
X289332Y684226D01*
X289298Y684222D01*
X289115Y684167D01*
X288931Y684117D01*
X288900Y684102D01*
X288867Y684092D01*
X288696Y684005D01*
X288524Y683923D01*
X288496Y683903D01*
X288465Y683888D01*
X288313Y683772D01*
X288158Y683661D01*
X288134Y683636D01*
X288107Y683616D01*
X287978Y683476D01*
X287844Y683339D01*
X287825Y683310D01*
X287801Y683284D01*
X287699Y683123D01*
X287592Y682966D01*
X287578Y682934D01*
X287560Y682905D01*
X287487Y682728D01*
X287410Y682554D01*
X287402Y682520D01*
X287389Y682488D01*
X287349Y682301D01*
X287303Y682116D01*
X287301Y682082D01*
X287294Y682048D01*
X287275Y681736D01*
X287275Y653034D01*
X287278Y652999D01*
X287276Y652965D01*
X287298Y652776D01*
X287315Y652585D01*
X287324Y652552D01*
X287328Y652518D01*
X287383Y652335D01*
X287433Y652151D01*
X287448Y652120D01*
X287458Y652087D01*
X287545Y651916D01*
X287627Y651744D01*
X287647Y651716D01*
X287662Y651685D01*
X287778Y651533D01*
X287889Y651378D01*
X287914Y651354D01*
X287934Y651327D01*
X288074Y651198D01*
X288211Y651064D01*
X288240Y651045D01*
X288266Y651021D01*
X288427Y650919D01*
X288584Y650812D01*
X288616Y650798D01*
X288645Y650780D01*
X288822Y650707D01*
X288996Y650630D01*
X289030Y650622D01*
X289062Y650609D01*
X289249Y650569D01*
X289434Y650523D01*
X289468Y650521D01*
X289502Y650514D01*
X289814Y650495D01*
X306130Y650495D01*
X306294Y650509D01*
G37*
G36*
X343951Y179798D02*
X343951Y179798D01*
X343985Y179796D01*
X344174Y179818D01*
X344365Y179835D01*
X344398Y179844D01*
X344432Y179848D01*
X344615Y179903D01*
X344799Y179953D01*
X344830Y179968D01*
X344863Y179978D01*
X345034Y180065D01*
X345206Y180147D01*
X345234Y180167D01*
X345265Y180182D01*
X345417Y180298D01*
X345572Y180409D01*
X345596Y180434D01*
X345623Y180454D01*
X345752Y180594D01*
X345886Y180731D01*
X345905Y180760D01*
X345929Y180786D01*
X346031Y180947D01*
X346138Y181104D01*
X346152Y181136D01*
X346170Y181165D01*
X346243Y181342D01*
X346320Y181516D01*
X346328Y181550D01*
X346341Y181582D01*
X346381Y181769D01*
X346427Y181954D01*
X346429Y181988D01*
X346436Y182022D01*
X346455Y182334D01*
X346455Y346937D01*
X346454Y346950D01*
X346454Y346954D01*
X346452Y346977D01*
X346441Y347100D01*
X346434Y347265D01*
X346421Y347324D01*
X346415Y347385D01*
X346372Y347544D01*
X346336Y347704D01*
X346313Y347761D01*
X346297Y347820D01*
X346226Y347968D01*
X346163Y348120D01*
X346130Y348171D01*
X346103Y348226D01*
X346008Y348360D01*
X345918Y348498D01*
X345867Y348556D01*
X345841Y348592D01*
X345798Y348635D01*
X345712Y348732D01*
X341121Y353322D01*
X341121Y370578D01*
X345712Y375168D01*
X345817Y375294D01*
X345929Y375415D01*
X345961Y375466D01*
X346000Y375513D01*
X346082Y375656D01*
X346170Y375795D01*
X346194Y375851D01*
X346224Y375904D01*
X346279Y376059D01*
X346341Y376211D01*
X346354Y376271D01*
X346375Y376328D01*
X346401Y376490D01*
X346436Y376651D01*
X346441Y376729D01*
X346448Y376773D01*
X346447Y376833D01*
X346455Y376963D01*
X346455Y395232D01*
X346448Y395314D01*
X346450Y395397D01*
X346428Y395538D01*
X346415Y395681D01*
X346394Y395760D01*
X346381Y395841D01*
X346335Y395977D01*
X346297Y396115D01*
X346261Y396189D01*
X346235Y396267D01*
X346165Y396393D01*
X346103Y396522D01*
X346056Y396588D01*
X346015Y396661D01*
X345925Y396771D01*
X345841Y396888D01*
X345782Y396945D01*
X345730Y397009D01*
X345621Y397102D01*
X345519Y397202D01*
X345450Y397248D01*
X345388Y397301D01*
X345264Y397373D01*
X345146Y397454D01*
X345070Y397487D01*
X344999Y397529D01*
X344865Y397578D01*
X344734Y397636D01*
X344654Y397656D01*
X344576Y397684D01*
X344435Y397709D01*
X344296Y397743D01*
X344214Y397748D01*
X344133Y397762D01*
X343990Y397762D01*
X343847Y397770D01*
X343765Y397761D01*
X343683Y397761D01*
X343542Y397735D01*
X343400Y397718D01*
X343321Y397694D01*
X343240Y397680D01*
X343007Y397600D01*
X342969Y397588D01*
X342959Y397583D01*
X342944Y397578D01*
X342165Y397255D01*
X318235Y397255D01*
X310206Y400581D01*
X307925Y402862D01*
X307799Y402967D01*
X307678Y403079D01*
X307627Y403111D01*
X307580Y403150D01*
X307437Y403232D01*
X307299Y403320D01*
X307242Y403344D01*
X307189Y403374D01*
X307034Y403429D01*
X306882Y403491D01*
X306822Y403504D01*
X306765Y403525D01*
X306603Y403551D01*
X306442Y403586D01*
X306365Y403591D01*
X306321Y403598D01*
X306260Y403597D01*
X306130Y403605D01*
X302514Y403605D01*
X302479Y403602D01*
X302445Y403604D01*
X302256Y403582D01*
X302065Y403565D01*
X302032Y403556D01*
X301998Y403552D01*
X301815Y403497D01*
X301631Y403447D01*
X301600Y403432D01*
X301567Y403422D01*
X301396Y403335D01*
X301224Y403253D01*
X301196Y403233D01*
X301165Y403218D01*
X301013Y403102D01*
X300858Y402991D01*
X300834Y402966D01*
X300807Y402946D01*
X300678Y402806D01*
X300544Y402669D01*
X300525Y402640D01*
X300501Y402614D01*
X300399Y402453D01*
X300292Y402296D01*
X300278Y402264D01*
X300260Y402235D01*
X300187Y402058D01*
X300110Y401884D01*
X300102Y401850D01*
X300089Y401818D01*
X300049Y401631D01*
X300003Y401446D01*
X300001Y401412D01*
X299994Y401378D01*
X299975Y401066D01*
X299975Y342684D01*
X299978Y342649D01*
X299976Y342615D01*
X299998Y342426D01*
X300015Y342235D01*
X300024Y342202D01*
X300028Y342168D01*
X300083Y341985D01*
X300133Y341801D01*
X300148Y341770D01*
X300158Y341737D01*
X300245Y341566D01*
X300327Y341394D01*
X300347Y341366D01*
X300362Y341335D01*
X300478Y341183D01*
X300589Y341028D01*
X300614Y341004D01*
X300634Y340977D01*
X300774Y340848D01*
X300911Y340714D01*
X300940Y340695D01*
X300966Y340671D01*
X301127Y340569D01*
X301284Y340462D01*
X301316Y340448D01*
X301345Y340430D01*
X301522Y340357D01*
X301696Y340280D01*
X301730Y340272D01*
X301762Y340259D01*
X301949Y340219D01*
X302134Y340173D01*
X302168Y340171D01*
X302202Y340164D01*
X302514Y340145D01*
X320649Y340145D01*
X325878Y337979D01*
X329879Y333978D01*
X332045Y328749D01*
X332045Y307851D01*
X329879Y302622D01*
X325878Y298621D01*
X320649Y296455D01*
X302514Y296455D01*
X302479Y296452D01*
X302445Y296454D01*
X302256Y296432D01*
X302065Y296415D01*
X302032Y296406D01*
X301998Y296402D01*
X301815Y296347D01*
X301631Y296297D01*
X301600Y296282D01*
X301567Y296272D01*
X301396Y296185D01*
X301224Y296103D01*
X301196Y296083D01*
X301165Y296068D01*
X301013Y295952D01*
X300858Y295841D01*
X300834Y295816D01*
X300807Y295796D01*
X300678Y295656D01*
X300544Y295519D01*
X300525Y295490D01*
X300501Y295464D01*
X300399Y295303D01*
X300292Y295146D01*
X300278Y295114D01*
X300260Y295085D01*
X300187Y294908D01*
X300110Y294734D01*
X300102Y294700D01*
X300089Y294668D01*
X300049Y294481D01*
X300003Y294296D01*
X300001Y294262D01*
X299994Y294228D01*
X299975Y293916D01*
X299975Y188684D01*
X299978Y188649D01*
X299976Y188615D01*
X299998Y188426D01*
X300015Y188235D01*
X300024Y188202D01*
X300028Y188168D01*
X300083Y187985D01*
X300133Y187801D01*
X300148Y187770D01*
X300158Y187737D01*
X300245Y187566D01*
X300327Y187394D01*
X300347Y187366D01*
X300362Y187335D01*
X300478Y187183D01*
X300589Y187028D01*
X300614Y187004D01*
X300634Y186977D01*
X300774Y186848D01*
X300911Y186714D01*
X300940Y186695D01*
X300966Y186671D01*
X301127Y186569D01*
X301284Y186462D01*
X301316Y186448D01*
X301345Y186430D01*
X301522Y186357D01*
X301696Y186280D01*
X301730Y186272D01*
X301762Y186259D01*
X301949Y186219D01*
X302134Y186173D01*
X302168Y186171D01*
X302202Y186164D01*
X302514Y186145D01*
X320649Y186145D01*
X325878Y183979D01*
X329318Y180538D01*
X329444Y180433D01*
X329565Y180321D01*
X329617Y180289D01*
X329664Y180250D01*
X329806Y180168D01*
X329945Y180080D01*
X330002Y180056D01*
X330055Y180026D01*
X330210Y179971D01*
X330362Y179909D01*
X330421Y179896D01*
X330479Y179875D01*
X330641Y179849D01*
X330802Y179814D01*
X330879Y179809D01*
X330923Y179802D01*
X330984Y179803D01*
X331114Y179795D01*
X343916Y179795D01*
X343951Y179798D01*
G37*
G36*
X502701Y625098D02*
X502701Y625098D01*
X502735Y625096D01*
X502924Y625118D01*
X503115Y625135D01*
X503148Y625144D01*
X503182Y625148D01*
X503365Y625203D01*
X503549Y625253D01*
X503580Y625268D01*
X503613Y625278D01*
X503784Y625365D01*
X503956Y625447D01*
X503984Y625467D01*
X504015Y625482D01*
X504167Y625598D01*
X504322Y625709D01*
X504346Y625734D01*
X504373Y625754D01*
X504502Y625894D01*
X504636Y626031D01*
X504655Y626060D01*
X504679Y626086D01*
X504781Y626247D01*
X504888Y626404D01*
X504902Y626436D01*
X504920Y626465D01*
X504993Y626642D01*
X505070Y626816D01*
X505078Y626850D01*
X505091Y626882D01*
X505131Y627069D01*
X505177Y627254D01*
X505179Y627288D01*
X505186Y627322D01*
X505205Y627634D01*
X505205Y682532D01*
X507564Y688227D01*
X511923Y692586D01*
X517618Y694945D01*
X642916Y694945D01*
X642951Y694948D01*
X642985Y694946D01*
X643174Y694968D01*
X643365Y694985D01*
X643398Y694994D01*
X643432Y694998D01*
X643615Y695053D01*
X643799Y695103D01*
X643830Y695118D01*
X643863Y695128D01*
X644034Y695215D01*
X644206Y695297D01*
X644234Y695317D01*
X644265Y695332D01*
X644417Y695448D01*
X644572Y695559D01*
X644596Y695584D01*
X644623Y695604D01*
X644752Y695744D01*
X644886Y695881D01*
X644905Y695910D01*
X644929Y695936D01*
X645031Y696097D01*
X645138Y696254D01*
X645152Y696286D01*
X645170Y696315D01*
X645243Y696492D01*
X645320Y696666D01*
X645328Y696700D01*
X645341Y696732D01*
X645381Y696919D01*
X645427Y697104D01*
X645429Y697138D01*
X645436Y697172D01*
X645455Y697484D01*
X645455Y706665D01*
X645441Y706829D01*
X645434Y706994D01*
X645421Y707053D01*
X645415Y707114D01*
X645372Y707273D01*
X645336Y707433D01*
X645313Y707489D01*
X645297Y707548D01*
X645226Y707697D01*
X645163Y707849D01*
X645130Y707900D01*
X645103Y707955D01*
X645008Y708088D01*
X644918Y708227D01*
X644867Y708284D01*
X644841Y708321D01*
X644798Y708364D01*
X644712Y708461D01*
X641685Y711487D01*
X638225Y719840D01*
X638225Y724916D01*
X638222Y724951D01*
X638224Y724985D01*
X638202Y725174D01*
X638185Y725365D01*
X638176Y725398D01*
X638172Y725432D01*
X638117Y725615D01*
X638067Y725799D01*
X638052Y725830D01*
X638042Y725863D01*
X637955Y726034D01*
X637873Y726206D01*
X637853Y726234D01*
X637838Y726265D01*
X637722Y726417D01*
X637611Y726572D01*
X637586Y726596D01*
X637566Y726623D01*
X637426Y726752D01*
X637289Y726886D01*
X637260Y726905D01*
X637234Y726929D01*
X637073Y727031D01*
X636916Y727138D01*
X636884Y727152D01*
X636855Y727170D01*
X636678Y727243D01*
X636504Y727320D01*
X636470Y727328D01*
X636438Y727341D01*
X636251Y727381D01*
X636066Y727427D01*
X636032Y727429D01*
X635998Y727436D01*
X635686Y727455D01*
X487934Y727455D01*
X487899Y727452D01*
X487865Y727454D01*
X487676Y727432D01*
X487485Y727415D01*
X487452Y727406D01*
X487418Y727402D01*
X487235Y727347D01*
X487051Y727297D01*
X487020Y727282D01*
X486987Y727272D01*
X486816Y727185D01*
X486644Y727103D01*
X486616Y727083D01*
X486585Y727068D01*
X486433Y726952D01*
X486278Y726841D01*
X486254Y726816D01*
X486227Y726796D01*
X486098Y726656D01*
X485964Y726519D01*
X485945Y726490D01*
X485921Y726464D01*
X485819Y726303D01*
X485712Y726146D01*
X485698Y726114D01*
X485680Y726085D01*
X485607Y725908D01*
X485530Y725734D01*
X485522Y725700D01*
X485509Y725668D01*
X485469Y725481D01*
X485423Y725296D01*
X485421Y725262D01*
X485414Y725228D01*
X485395Y724916D01*
X485395Y650013D01*
X485409Y649850D01*
X485416Y649685D01*
X485429Y649626D01*
X485435Y649565D01*
X485478Y649406D01*
X485514Y649246D01*
X485537Y649189D01*
X485553Y649130D01*
X485624Y648982D01*
X485687Y648830D01*
X485720Y648779D01*
X485747Y648724D01*
X485842Y648590D01*
X485932Y648452D01*
X485983Y648394D01*
X486009Y648358D01*
X486052Y648315D01*
X486138Y648218D01*
X490729Y643628D01*
X490729Y627634D01*
X490732Y627599D01*
X490730Y627565D01*
X490752Y627376D01*
X490769Y627185D01*
X490778Y627152D01*
X490782Y627118D01*
X490837Y626935D01*
X490887Y626751D01*
X490902Y626720D01*
X490912Y626687D01*
X490999Y626516D01*
X491081Y626344D01*
X491101Y626316D01*
X491116Y626285D01*
X491232Y626133D01*
X491343Y625978D01*
X491368Y625954D01*
X491388Y625927D01*
X491528Y625798D01*
X491665Y625664D01*
X491694Y625645D01*
X491720Y625621D01*
X491881Y625519D01*
X492038Y625412D01*
X492070Y625398D01*
X492099Y625380D01*
X492276Y625307D01*
X492450Y625230D01*
X492484Y625222D01*
X492516Y625209D01*
X492703Y625169D01*
X492888Y625123D01*
X492922Y625121D01*
X492956Y625114D01*
X493268Y625095D01*
X502666Y625095D01*
X502701Y625098D01*
G37*
G36*
X553501Y574298D02*
X553501Y574298D01*
X553535Y574296D01*
X553724Y574318D01*
X553915Y574335D01*
X553948Y574344D01*
X553982Y574348D01*
X554165Y574403D01*
X554349Y574453D01*
X554380Y574468D01*
X554413Y574478D01*
X554584Y574565D01*
X554756Y574647D01*
X554784Y574667D01*
X554815Y574682D01*
X554967Y574798D01*
X555122Y574909D01*
X555146Y574934D01*
X555173Y574954D01*
X555302Y575094D01*
X555436Y575231D01*
X555455Y575260D01*
X555479Y575286D01*
X555581Y575447D01*
X555688Y575604D01*
X555702Y575636D01*
X555720Y575665D01*
X555793Y575842D01*
X555870Y576016D01*
X555878Y576050D01*
X555891Y576082D01*
X555931Y576269D01*
X555977Y576454D01*
X555979Y576488D01*
X555986Y576522D01*
X556005Y576834D01*
X556005Y619987D01*
X555991Y620150D01*
X555984Y620315D01*
X555971Y620374D01*
X555965Y620435D01*
X555922Y620594D01*
X555886Y620754D01*
X555863Y620811D01*
X555847Y620870D01*
X555776Y621018D01*
X555713Y621170D01*
X555680Y621221D01*
X555653Y621276D01*
X555558Y621410D01*
X555468Y621548D01*
X555417Y621606D01*
X555391Y621642D01*
X555348Y621685D01*
X555262Y621782D01*
X550671Y626372D01*
X550671Y643628D01*
X555262Y648218D01*
X555367Y648344D01*
X555479Y648465D01*
X555511Y648516D01*
X555550Y648563D01*
X555632Y648706D01*
X555720Y648845D01*
X555744Y648901D01*
X555774Y648954D01*
X555829Y649109D01*
X555891Y649261D01*
X555904Y649321D01*
X555925Y649378D01*
X555951Y649541D01*
X555986Y649701D01*
X555991Y649778D01*
X555998Y649823D01*
X555997Y649884D01*
X556005Y650013D01*
X556005Y657282D01*
X557315Y660444D01*
X557340Y660523D01*
X557373Y660598D01*
X557407Y660737D01*
X557450Y660874D01*
X557460Y660956D01*
X557480Y661036D01*
X557489Y661178D01*
X557507Y661321D01*
X557502Y661403D01*
X557507Y661485D01*
X557491Y661627D01*
X557484Y661770D01*
X557465Y661850D01*
X557455Y661932D01*
X557414Y662070D01*
X557381Y662209D01*
X557349Y662284D01*
X557325Y662363D01*
X557260Y662491D01*
X557204Y662622D01*
X557158Y662691D01*
X557121Y662765D01*
X557034Y662879D01*
X556955Y662998D01*
X556899Y663058D01*
X556849Y663123D01*
X556743Y663220D01*
X556645Y663324D01*
X556578Y663373D01*
X556518Y663429D01*
X556397Y663506D01*
X556281Y663590D01*
X556207Y663626D01*
X556138Y663670D01*
X556005Y663725D01*
X555877Y663788D01*
X555797Y663810D01*
X555721Y663841D01*
X555581Y663871D01*
X555444Y663911D01*
X555362Y663919D01*
X555281Y663936D01*
X555035Y663951D01*
X554996Y663955D01*
X554985Y663954D01*
X554969Y663955D01*
X538734Y663955D01*
X538699Y663952D01*
X538665Y663954D01*
X538476Y663932D01*
X538285Y663915D01*
X538252Y663906D01*
X538218Y663902D01*
X538035Y663847D01*
X537851Y663797D01*
X537820Y663782D01*
X537787Y663772D01*
X537616Y663685D01*
X537444Y663603D01*
X537416Y663583D01*
X537385Y663568D01*
X537233Y663452D01*
X537078Y663341D01*
X537054Y663316D01*
X537027Y663296D01*
X536898Y663156D01*
X536764Y663019D01*
X536745Y662990D01*
X536721Y662964D01*
X536619Y662803D01*
X536512Y662646D01*
X536498Y662614D01*
X536480Y662585D01*
X536407Y662408D01*
X536330Y662234D01*
X536322Y662200D01*
X536309Y662168D01*
X536269Y661981D01*
X536223Y661796D01*
X536221Y661762D01*
X536214Y661728D01*
X536195Y661416D01*
X536195Y606518D01*
X533836Y600823D01*
X529477Y596464D01*
X523782Y594105D01*
X434042Y594105D01*
X433901Y594093D01*
X433760Y594090D01*
X433677Y594073D01*
X433594Y594065D01*
X433457Y594028D01*
X433318Y594000D01*
X433240Y593969D01*
X433159Y593947D01*
X433032Y593886D01*
X432900Y593834D01*
X432828Y593789D01*
X432753Y593753D01*
X432638Y593671D01*
X432517Y593596D01*
X432455Y593540D01*
X432387Y593491D01*
X432288Y593390D01*
X432183Y593295D01*
X432131Y593229D01*
X432073Y593169D01*
X431993Y593051D01*
X431907Y592940D01*
X431868Y592865D01*
X431820Y592796D01*
X431763Y592666D01*
X431697Y592541D01*
X431672Y592461D01*
X431638Y592384D01*
X431605Y592246D01*
X431562Y592111D01*
X431551Y592028D01*
X431532Y591946D01*
X431523Y591805D01*
X431505Y591665D01*
X431509Y591581D01*
X431504Y591497D01*
X431520Y591356D01*
X431527Y591215D01*
X431549Y591106D01*
X431556Y591050D01*
X431571Y591000D01*
X431589Y590909D01*
X432563Y587277D01*
X432563Y581123D01*
X431589Y577491D01*
X431565Y577352D01*
X431532Y577214D01*
X431526Y577131D01*
X431512Y577048D01*
X431513Y576906D01*
X431504Y576765D01*
X431514Y576682D01*
X431514Y576597D01*
X431540Y576458D01*
X431556Y576318D01*
X431580Y576237D01*
X431596Y576155D01*
X431645Y576022D01*
X431686Y575887D01*
X431724Y575812D01*
X431754Y575733D01*
X431826Y575611D01*
X431891Y575485D01*
X431941Y575419D01*
X431984Y575346D01*
X432077Y575239D01*
X432163Y575127D01*
X432224Y575070D01*
X432279Y575006D01*
X432390Y574917D01*
X432494Y574821D01*
X432565Y574776D01*
X432630Y574724D01*
X432754Y574656D01*
X432874Y574580D01*
X432951Y574548D01*
X433025Y574507D01*
X433159Y574462D01*
X433290Y574409D01*
X433372Y574391D01*
X433452Y574364D01*
X433592Y574344D01*
X433730Y574314D01*
X433841Y574307D01*
X433897Y574299D01*
X433949Y574300D01*
X434042Y574295D01*
X553466Y574295D01*
X553501Y574298D01*
G37*
G36*
X642095Y339356D02*
X642095Y339356D01*
X642225Y339358D01*
X642319Y339376D01*
X642414Y339385D01*
X642540Y339419D01*
X642667Y339444D01*
X642757Y339478D01*
X642849Y339503D01*
X642966Y339559D01*
X643087Y339606D01*
X643169Y339656D01*
X643255Y339697D01*
X643361Y339772D01*
X643472Y339840D01*
X643544Y339903D01*
X643621Y339959D01*
X643712Y340052D01*
X643809Y340138D01*
X643869Y340213D01*
X643935Y340281D01*
X644008Y340389D01*
X644089Y340491D01*
X644134Y340575D01*
X644187Y340654D01*
X644240Y340773D01*
X644301Y340888D01*
X644331Y340979D01*
X644370Y341066D01*
X644401Y341193D01*
X644441Y341316D01*
X644454Y341411D01*
X644476Y341504D01*
X644484Y341633D01*
X644502Y341762D01*
X644498Y341858D01*
X644504Y341953D01*
X644489Y342082D01*
X644484Y342212D01*
X644463Y342305D01*
X644452Y342400D01*
X644414Y342525D01*
X644386Y342652D01*
X644349Y342740D01*
X644322Y342831D01*
X644263Y342947D01*
X644212Y343067D01*
X644161Y343147D01*
X644117Y343233D01*
X644039Y343336D01*
X643968Y343445D01*
X643882Y343543D01*
X643845Y343591D01*
X643812Y343622D01*
X643761Y343680D01*
X641729Y345712D01*
X641603Y345817D01*
X641482Y345929D01*
X641431Y345961D01*
X641384Y346000D01*
X641241Y346082D01*
X641102Y346170D01*
X641046Y346194D01*
X640993Y346224D01*
X640838Y346279D01*
X640686Y346341D01*
X640626Y346354D01*
X640569Y346375D01*
X640406Y346401D01*
X640246Y346436D01*
X640169Y346441D01*
X640124Y346448D01*
X640063Y346447D01*
X639934Y346455D01*
X478563Y346455D01*
X478400Y346441D01*
X478235Y346434D01*
X478176Y346421D01*
X478115Y346415D01*
X477956Y346372D01*
X477796Y346336D01*
X477739Y346313D01*
X477680Y346297D01*
X477532Y346226D01*
X477380Y346163D01*
X477329Y346130D01*
X477274Y346103D01*
X477141Y346008D01*
X477002Y345919D01*
X476944Y345867D01*
X476908Y345841D01*
X476865Y345798D01*
X476768Y345712D01*
X474736Y343680D01*
X474652Y343580D01*
X474562Y343487D01*
X474508Y343407D01*
X474447Y343334D01*
X474382Y343221D01*
X474310Y343114D01*
X474271Y343026D01*
X474223Y342943D01*
X474180Y342821D01*
X474127Y342702D01*
X474105Y342609D01*
X474073Y342519D01*
X474051Y342391D01*
X474021Y342264D01*
X474015Y342169D01*
X473999Y342075D01*
X474001Y341945D01*
X473993Y341815D01*
X474004Y341720D01*
X474005Y341624D01*
X474030Y341497D01*
X474045Y341368D01*
X474073Y341276D01*
X474091Y341182D01*
X474138Y341061D01*
X474175Y340937D01*
X474219Y340851D01*
X474253Y340762D01*
X474321Y340651D01*
X474380Y340535D01*
X474437Y340459D01*
X474487Y340378D01*
X474573Y340280D01*
X474652Y340177D01*
X474722Y340112D01*
X474785Y340040D01*
X474887Y339960D01*
X474983Y339871D01*
X475063Y339820D01*
X475138Y339761D01*
X475253Y339699D01*
X475363Y339630D01*
X475451Y339593D01*
X475535Y339548D01*
X475659Y339508D01*
X475779Y339459D01*
X475873Y339439D01*
X475963Y339409D01*
X476092Y339391D01*
X476219Y339364D01*
X476349Y339356D01*
X476409Y339348D01*
X476454Y339349D01*
X476531Y339345D01*
X641966Y339345D01*
X642095Y339356D01*
G37*
G36*
X674594Y625109D02*
X674594Y625109D01*
X674758Y625116D01*
X674817Y625129D01*
X674878Y625135D01*
X675037Y625178D01*
X675198Y625214D01*
X675254Y625237D01*
X675313Y625253D01*
X675461Y625324D01*
X675613Y625387D01*
X675664Y625420D01*
X675719Y625447D01*
X675853Y625542D01*
X675991Y625632D01*
X676049Y625683D01*
X676085Y625709D01*
X676128Y625752D01*
X676225Y625838D01*
X678506Y628119D01*
X686535Y631445D01*
X709676Y631445D01*
X709711Y631448D01*
X709745Y631446D01*
X709934Y631468D01*
X710125Y631485D01*
X710158Y631494D01*
X710192Y631498D01*
X710375Y631553D01*
X710559Y631603D01*
X710590Y631618D01*
X710623Y631628D01*
X710794Y631715D01*
X710966Y631797D01*
X710994Y631817D01*
X711025Y631832D01*
X711177Y631948D01*
X711332Y632059D01*
X711356Y632084D01*
X711383Y632104D01*
X711512Y632244D01*
X711646Y632381D01*
X711665Y632410D01*
X711689Y632436D01*
X711791Y632597D01*
X711898Y632754D01*
X711912Y632786D01*
X711930Y632815D01*
X712003Y632992D01*
X712080Y633166D01*
X712088Y633200D01*
X712101Y633232D01*
X712141Y633419D01*
X712187Y633604D01*
X712189Y633638D01*
X712196Y633672D01*
X712215Y633984D01*
X712215Y661416D01*
X712212Y661451D01*
X712214Y661485D01*
X712192Y661674D01*
X712175Y661865D01*
X712166Y661898D01*
X712162Y661932D01*
X712107Y662115D01*
X712057Y662299D01*
X712042Y662330D01*
X712032Y662363D01*
X711945Y662534D01*
X711863Y662706D01*
X711843Y662734D01*
X711828Y662765D01*
X711712Y662917D01*
X711601Y663072D01*
X711576Y663096D01*
X711556Y663123D01*
X711416Y663252D01*
X711279Y663386D01*
X711250Y663405D01*
X711224Y663429D01*
X711063Y663531D01*
X710906Y663638D01*
X710874Y663652D01*
X710845Y663670D01*
X710668Y663743D01*
X710494Y663820D01*
X710460Y663828D01*
X710428Y663841D01*
X710241Y663881D01*
X710056Y663927D01*
X710022Y663929D01*
X709988Y663936D01*
X709676Y663955D01*
X706794Y663955D01*
X706759Y663952D01*
X706725Y663954D01*
X706536Y663932D01*
X706345Y663915D01*
X706312Y663906D01*
X706278Y663902D01*
X706095Y663847D01*
X705911Y663797D01*
X705880Y663782D01*
X705847Y663772D01*
X705676Y663685D01*
X705504Y663603D01*
X705476Y663583D01*
X705445Y663568D01*
X705293Y663452D01*
X705138Y663341D01*
X705114Y663316D01*
X705087Y663296D01*
X704958Y663156D01*
X704824Y663019D01*
X704805Y662990D01*
X704781Y662964D01*
X704679Y662803D01*
X704572Y662646D01*
X704558Y662614D01*
X704540Y662585D01*
X704467Y662408D01*
X704390Y662234D01*
X704382Y662200D01*
X704369Y662168D01*
X704329Y661981D01*
X704283Y661796D01*
X704281Y661762D01*
X704274Y661728D01*
X704255Y661416D01*
X704255Y659976D01*
X701252Y652727D01*
X695703Y647178D01*
X688454Y644175D01*
X683091Y644175D01*
X682880Y644156D01*
X682669Y644140D01*
X682656Y644137D01*
X682643Y644135D01*
X682437Y644079D01*
X682233Y644026D01*
X682221Y644020D01*
X682208Y644017D01*
X682018Y643926D01*
X681825Y643837D01*
X681814Y643829D01*
X681802Y643823D01*
X681630Y643701D01*
X681456Y643578D01*
X681447Y643569D01*
X681436Y643561D01*
X681287Y643409D01*
X681138Y643259D01*
X681131Y643248D01*
X681122Y643239D01*
X681003Y643063D01*
X680883Y642889D01*
X680876Y642874D01*
X680870Y642866D01*
X680854Y642830D01*
X680745Y642608D01*
X680215Y641328D01*
X673822Y634935D01*
X665470Y631475D01*
X662991Y631475D01*
X662839Y631462D01*
X662686Y631457D01*
X662615Y631442D01*
X662543Y631435D01*
X662395Y631395D01*
X662245Y631363D01*
X662178Y631336D01*
X662108Y631317D01*
X661970Y631251D01*
X661828Y631193D01*
X661767Y631154D01*
X661702Y631123D01*
X661578Y631035D01*
X661448Y630953D01*
X661394Y630904D01*
X661335Y630861D01*
X661229Y630752D01*
X661116Y630648D01*
X661072Y630591D01*
X661021Y630539D01*
X660936Y630412D01*
X660843Y630290D01*
X660810Y630226D01*
X660769Y630166D01*
X660707Y630026D01*
X660638Y629890D01*
X660608Y629801D01*
X660587Y629754D01*
X660574Y629699D01*
X660538Y629593D01*
X660189Y628291D01*
X660165Y628152D01*
X660132Y628014D01*
X660126Y627931D01*
X660112Y627848D01*
X660113Y627706D01*
X660104Y627565D01*
X660114Y627482D01*
X660114Y627397D01*
X660140Y627258D01*
X660156Y627118D01*
X660180Y627037D01*
X660195Y626955D01*
X660245Y626822D01*
X660286Y626687D01*
X660324Y626612D01*
X660354Y626533D01*
X660426Y626412D01*
X660491Y626285D01*
X660541Y626219D01*
X660584Y626146D01*
X660677Y626039D01*
X660763Y625927D01*
X660824Y625870D01*
X660879Y625806D01*
X660990Y625718D01*
X661094Y625621D01*
X661165Y625576D01*
X661230Y625524D01*
X661354Y625456D01*
X661474Y625380D01*
X661551Y625348D01*
X661625Y625307D01*
X661759Y625262D01*
X661890Y625209D01*
X661972Y625191D01*
X662052Y625164D01*
X662192Y625144D01*
X662330Y625114D01*
X662441Y625107D01*
X662497Y625099D01*
X662549Y625100D01*
X662642Y625095D01*
X674430Y625095D01*
X674594Y625109D01*
G37*
G36*
X639652Y192038D02*
X639652Y192038D01*
X639805Y192043D01*
X639876Y192058D01*
X639948Y192065D01*
X640096Y192105D01*
X640246Y192137D01*
X640313Y192164D01*
X640383Y192183D01*
X640521Y192249D01*
X640663Y192307D01*
X640724Y192346D01*
X640789Y192377D01*
X640914Y192466D01*
X641043Y192548D01*
X641096Y192596D01*
X641155Y192639D01*
X641262Y192748D01*
X641375Y192852D01*
X641419Y192909D01*
X641469Y192961D01*
X641555Y193088D01*
X641648Y193210D01*
X641681Y193274D01*
X641721Y193334D01*
X641783Y193474D01*
X641853Y193611D01*
X641877Y193683D01*
X645434Y199842D01*
X646996Y201404D01*
X647018Y201431D01*
X647044Y201454D01*
X647162Y201603D01*
X647285Y201750D01*
X647302Y201780D01*
X647323Y201807D01*
X647413Y201975D01*
X647508Y202141D01*
X647520Y202173D01*
X647536Y202204D01*
X647595Y202385D01*
X647659Y202565D01*
X647665Y202599D01*
X647675Y202632D01*
X647701Y202821D01*
X647732Y203009D01*
X647732Y203044D01*
X647737Y203078D01*
X647729Y203269D01*
X647726Y203459D01*
X647720Y203494D01*
X647718Y203528D01*
X647677Y203714D01*
X647641Y203902D01*
X647628Y203934D01*
X647621Y203968D01*
X647547Y204144D01*
X647478Y204322D01*
X647460Y204351D01*
X647447Y204383D01*
X647343Y204544D01*
X647244Y204706D01*
X647222Y204732D01*
X647203Y204761D01*
X646996Y204996D01*
X645433Y206558D01*
X641905Y212668D01*
X640079Y219484D01*
X640079Y226540D01*
X641905Y233356D01*
X643182Y235566D01*
X643192Y235587D01*
X643205Y235606D01*
X643286Y235791D01*
X643372Y235975D01*
X643377Y235997D01*
X643387Y236018D01*
X643435Y236215D01*
X643486Y236410D01*
X643488Y236433D01*
X643493Y236456D01*
X643506Y236657D01*
X643522Y236859D01*
X643520Y236882D01*
X643521Y236905D01*
X643498Y237106D01*
X643478Y237307D01*
X643472Y237329D01*
X643469Y237352D01*
X643410Y237547D01*
X643356Y237740D01*
X643346Y237761D01*
X643339Y237783D01*
X643247Y237963D01*
X643159Y238145D01*
X643145Y238164D01*
X643134Y238185D01*
X643012Y238345D01*
X642893Y238509D01*
X642876Y238525D01*
X642862Y238543D01*
X642713Y238681D01*
X642568Y238820D01*
X642548Y238833D01*
X642531Y238849D01*
X642360Y238957D01*
X642192Y239069D01*
X642171Y239078D01*
X642152Y239090D01*
X641965Y239167D01*
X641779Y239247D01*
X641756Y239253D01*
X641735Y239261D01*
X641537Y239304D01*
X641340Y239350D01*
X641318Y239351D01*
X641295Y239356D01*
X640983Y239375D01*
X625332Y239375D01*
X625203Y239364D01*
X625073Y239362D01*
X624979Y239344D01*
X624884Y239335D01*
X624758Y239301D01*
X624631Y239276D01*
X624542Y239242D01*
X624449Y239217D01*
X624332Y239161D01*
X624211Y239114D01*
X624129Y239064D01*
X624043Y239023D01*
X623937Y238948D01*
X623826Y238880D01*
X623754Y238817D01*
X623677Y238761D01*
X623586Y238668D01*
X623489Y238582D01*
X623429Y238507D01*
X623363Y238439D01*
X623290Y238331D01*
X623209Y238229D01*
X623164Y238145D01*
X623111Y238066D01*
X623058Y237947D01*
X622997Y237832D01*
X622967Y237741D01*
X622928Y237654D01*
X622898Y237527D01*
X622857Y237404D01*
X622844Y237309D01*
X622822Y237216D01*
X622814Y237087D01*
X622796Y236958D01*
X622800Y236862D01*
X622794Y236767D01*
X622809Y236638D01*
X622814Y236508D01*
X622835Y236415D01*
X622846Y236320D01*
X622884Y236195D01*
X622912Y236068D01*
X622949Y235980D01*
X622976Y235889D01*
X623035Y235773D01*
X623086Y235653D01*
X623137Y235573D01*
X623181Y235487D01*
X623259Y235384D01*
X623330Y235275D01*
X623416Y235177D01*
X623453Y235129D01*
X623486Y235098D01*
X623537Y235040D01*
X625745Y232832D01*
X629290Y226692D01*
X631125Y219845D01*
X631125Y194564D01*
X631128Y194529D01*
X631126Y194495D01*
X631148Y194306D01*
X631165Y194115D01*
X631174Y194082D01*
X631178Y194048D01*
X631233Y193865D01*
X631283Y193681D01*
X631298Y193650D01*
X631308Y193617D01*
X631395Y193446D01*
X631477Y193274D01*
X631497Y193246D01*
X631512Y193215D01*
X631628Y193063D01*
X631739Y192908D01*
X631764Y192884D01*
X631784Y192857D01*
X631924Y192728D01*
X632061Y192594D01*
X632090Y192575D01*
X632116Y192551D01*
X632277Y192449D01*
X632434Y192342D01*
X632466Y192328D01*
X632495Y192310D01*
X632672Y192237D01*
X632846Y192160D01*
X632880Y192152D01*
X632912Y192139D01*
X633099Y192099D01*
X633284Y192053D01*
X633318Y192051D01*
X633352Y192044D01*
X633664Y192025D01*
X639500Y192025D01*
X639652Y192038D01*
G37*
G36*
X365666Y460008D02*
X365666Y460008D01*
X365819Y460013D01*
X365890Y460028D01*
X365962Y460035D01*
X366109Y460075D01*
X366259Y460107D01*
X366326Y460134D01*
X366396Y460153D01*
X366534Y460219D01*
X366676Y460277D01*
X366737Y460315D01*
X366803Y460347D01*
X366927Y460435D01*
X367056Y460517D01*
X367110Y460566D01*
X367169Y460609D01*
X367276Y460718D01*
X367388Y460822D01*
X367432Y460879D01*
X367483Y460931D01*
X367569Y461058D01*
X367661Y461180D01*
X367695Y461244D01*
X367735Y461304D01*
X367797Y461444D01*
X367867Y461580D01*
X367896Y461669D01*
X367917Y461716D01*
X367931Y461772D01*
X367966Y461877D01*
X369130Y466220D01*
X370521Y468630D01*
X370541Y468672D01*
X370566Y468711D01*
X370636Y468876D01*
X370711Y469039D01*
X370723Y469083D01*
X370741Y469126D01*
X370780Y469301D01*
X370826Y469474D01*
X370829Y469520D01*
X370839Y469565D01*
X370847Y469744D01*
X370862Y469923D01*
X370857Y469969D01*
X370859Y470015D01*
X370835Y470192D01*
X370818Y470371D01*
X370805Y470416D01*
X370799Y470461D01*
X370744Y470632D01*
X370695Y470804D01*
X370675Y470846D01*
X370661Y470890D01*
X370521Y471170D01*
X369130Y473580D01*
X367537Y479523D01*
X367537Y485677D01*
X368511Y489309D01*
X368535Y489448D01*
X368568Y489586D01*
X368574Y489669D01*
X368588Y489752D01*
X368587Y489894D01*
X368596Y490035D01*
X368586Y490118D01*
X368586Y490203D01*
X368560Y490342D01*
X368544Y490482D01*
X368520Y490563D01*
X368504Y490645D01*
X368455Y490778D01*
X368414Y490913D01*
X368376Y490988D01*
X368346Y491067D01*
X368274Y491189D01*
X368209Y491315D01*
X368159Y491381D01*
X368116Y491454D01*
X368023Y491561D01*
X367937Y491673D01*
X367876Y491730D01*
X367821Y491794D01*
X367710Y491883D01*
X367606Y491979D01*
X367535Y492024D01*
X367470Y492076D01*
X367346Y492144D01*
X367226Y492220D01*
X367149Y492252D01*
X367075Y492293D01*
X366941Y492338D01*
X366810Y492391D01*
X366728Y492409D01*
X366648Y492436D01*
X366508Y492456D01*
X366370Y492486D01*
X366259Y492493D01*
X366203Y492501D01*
X366151Y492500D01*
X366058Y492505D01*
X362004Y492505D01*
X361792Y492486D01*
X361581Y492470D01*
X361568Y492467D01*
X361555Y492465D01*
X361351Y492410D01*
X361145Y492356D01*
X361133Y492350D01*
X361121Y492347D01*
X360931Y492257D01*
X360737Y492167D01*
X360726Y492159D01*
X360714Y492153D01*
X360542Y492030D01*
X360368Y491908D01*
X360359Y491899D01*
X360348Y491891D01*
X360199Y491739D01*
X360051Y491589D01*
X360043Y491578D01*
X360034Y491569D01*
X359915Y491393D01*
X359795Y491219D01*
X359788Y491204D01*
X359782Y491196D01*
X359766Y491160D01*
X359658Y490938D01*
X356607Y483572D01*
X356557Y483415D01*
X356501Y483260D01*
X356490Y483200D01*
X356472Y483142D01*
X356451Y482979D01*
X356423Y482817D01*
X356423Y482756D01*
X356415Y482695D01*
X356423Y482531D01*
X356424Y482367D01*
X356435Y482307D01*
X356438Y482246D01*
X356475Y482086D01*
X356505Y481924D01*
X356530Y481851D01*
X356540Y481807D01*
X356564Y481751D01*
X356607Y481628D01*
X359665Y474245D01*
X359665Y465555D01*
X358816Y463506D01*
X358791Y463427D01*
X358758Y463352D01*
X358724Y463213D01*
X358681Y463076D01*
X358671Y462994D01*
X358651Y462914D01*
X358643Y462772D01*
X358624Y462629D01*
X358629Y462547D01*
X358624Y462465D01*
X358640Y462323D01*
X358648Y462180D01*
X358666Y462100D01*
X358676Y462018D01*
X358717Y461880D01*
X358750Y461741D01*
X358782Y461666D01*
X358806Y461587D01*
X358871Y461459D01*
X358928Y461328D01*
X358973Y461259D01*
X359010Y461185D01*
X359097Y461071D01*
X359176Y460952D01*
X359233Y460892D01*
X359282Y460827D01*
X359388Y460730D01*
X359486Y460626D01*
X359553Y460577D01*
X359613Y460521D01*
X359734Y460444D01*
X359850Y460360D01*
X359924Y460324D01*
X359993Y460280D01*
X360126Y460225D01*
X360254Y460162D01*
X360334Y460140D01*
X360410Y460109D01*
X360550Y460079D01*
X360687Y460039D01*
X360769Y460031D01*
X360850Y460014D01*
X361096Y459999D01*
X361136Y459995D01*
X361146Y459996D01*
X361162Y459995D01*
X365513Y459995D01*
X365666Y460008D01*
G37*
G36*
X679519Y432727D02*
X679519Y432727D01*
X679614Y432725D01*
X679743Y432745D01*
X679873Y432755D01*
X679965Y432779D01*
X680059Y432794D01*
X680183Y432836D01*
X680308Y432869D01*
X680395Y432909D01*
X680485Y432940D01*
X680599Y433004D01*
X680717Y433058D01*
X680795Y433113D01*
X680878Y433160D01*
X680979Y433242D01*
X681086Y433317D01*
X681153Y433384D01*
X681227Y433445D01*
X681311Y433544D01*
X681403Y433636D01*
X681457Y433714D01*
X681519Y433787D01*
X681585Y433899D01*
X681659Y434006D01*
X681716Y434123D01*
X681747Y434176D01*
X681762Y434218D01*
X681796Y434287D01*
X682812Y436740D01*
X682847Y436852D01*
X682891Y436960D01*
X682914Y437066D01*
X682947Y437170D01*
X682961Y437286D01*
X682986Y437400D01*
X682996Y437554D01*
X683003Y437616D01*
X683002Y437653D01*
X683005Y437712D01*
X683005Y460521D01*
X682986Y460732D01*
X682970Y460943D01*
X682967Y460956D01*
X682965Y460969D01*
X682909Y461175D01*
X682856Y461379D01*
X682850Y461391D01*
X682847Y461403D01*
X682756Y461594D01*
X682667Y461787D01*
X682659Y461798D01*
X682653Y461810D01*
X682531Y461982D01*
X682408Y462156D01*
X682399Y462165D01*
X682391Y462176D01*
X682239Y462324D01*
X682089Y462474D01*
X682078Y462481D01*
X682069Y462490D01*
X681894Y462608D01*
X681719Y462729D01*
X681704Y462736D01*
X681696Y462742D01*
X681660Y462758D01*
X681438Y462867D01*
X678506Y464081D01*
X676780Y465807D01*
X676680Y465891D01*
X676587Y465982D01*
X676507Y466035D01*
X676434Y466096D01*
X676321Y466161D01*
X676214Y466234D01*
X676126Y466272D01*
X676043Y466320D01*
X675921Y466363D01*
X675802Y466416D01*
X675709Y466438D01*
X675619Y466470D01*
X675491Y466492D01*
X675364Y466522D01*
X675269Y466528D01*
X675175Y466544D01*
X675045Y466542D01*
X674915Y466550D01*
X674820Y466539D01*
X674724Y466538D01*
X674597Y466513D01*
X674468Y466498D01*
X674376Y466470D01*
X674282Y466452D01*
X674161Y466406D01*
X674037Y466368D01*
X673951Y466324D01*
X673862Y466290D01*
X673751Y466222D01*
X673635Y466163D01*
X673559Y466106D01*
X673478Y466056D01*
X673380Y465970D01*
X673277Y465891D01*
X673212Y465821D01*
X673140Y465758D01*
X673060Y465656D01*
X672971Y465560D01*
X672920Y465480D01*
X672861Y465405D01*
X672799Y465290D01*
X672730Y465181D01*
X672693Y465092D01*
X672648Y465008D01*
X672608Y464884D01*
X672559Y464764D01*
X672539Y464671D01*
X672509Y464580D01*
X672491Y464451D01*
X672464Y464324D01*
X672456Y464194D01*
X672448Y464134D01*
X672449Y464089D01*
X672445Y464012D01*
X672445Y442466D01*
X672459Y442303D01*
X672466Y442138D01*
X672479Y442079D01*
X672485Y442018D01*
X672528Y441859D01*
X672564Y441699D01*
X672587Y441642D01*
X672603Y441583D01*
X672674Y441435D01*
X672737Y441283D01*
X672770Y441232D01*
X672797Y441177D01*
X672892Y441043D01*
X672982Y440905D01*
X673033Y440847D01*
X673059Y440811D01*
X673102Y440768D01*
X673188Y440671D01*
X675359Y438500D01*
X677104Y434287D01*
X677164Y434172D01*
X677216Y434052D01*
X677268Y433973D01*
X677313Y433888D01*
X677392Y433785D01*
X677464Y433677D01*
X677530Y433608D01*
X677588Y433532D01*
X677685Y433445D01*
X677774Y433351D01*
X677852Y433294D01*
X677923Y433230D01*
X678033Y433162D01*
X678138Y433085D01*
X678224Y433043D01*
X678305Y432993D01*
X678425Y432944D01*
X678542Y432887D01*
X678634Y432861D01*
X678723Y432826D01*
X678850Y432800D01*
X678976Y432764D01*
X679071Y432755D01*
X679164Y432736D01*
X679294Y432733D01*
X679424Y432720D01*
X679519Y432727D01*
G37*
G36*
X722921Y441698D02*
X722921Y441698D01*
X722955Y441696D01*
X723144Y441718D01*
X723335Y441735D01*
X723368Y441744D01*
X723402Y441748D01*
X723585Y441803D01*
X723769Y441853D01*
X723800Y441868D01*
X723833Y441878D01*
X724004Y441965D01*
X724176Y442047D01*
X724204Y442067D01*
X724235Y442082D01*
X724387Y442198D01*
X724542Y442309D01*
X724566Y442334D01*
X724593Y442354D01*
X724722Y442494D01*
X724856Y442631D01*
X724875Y442660D01*
X724899Y442686D01*
X725001Y442847D01*
X725108Y443004D01*
X725122Y443036D01*
X725140Y443065D01*
X725213Y443242D01*
X725290Y443416D01*
X725298Y443450D01*
X725311Y443482D01*
X725351Y443669D01*
X725397Y443854D01*
X725399Y443888D01*
X725406Y443922D01*
X725425Y444234D01*
X725425Y464882D01*
X725414Y465012D01*
X725412Y465141D01*
X725394Y465235D01*
X725385Y465330D01*
X725351Y465456D01*
X725326Y465583D01*
X725292Y465673D01*
X725267Y465765D01*
X725211Y465882D01*
X725164Y466003D01*
X725114Y466085D01*
X725073Y466171D01*
X724998Y466277D01*
X724930Y466388D01*
X724867Y466460D01*
X724811Y466537D01*
X724718Y466628D01*
X724632Y466726D01*
X724557Y466785D01*
X724489Y466852D01*
X724381Y466924D01*
X724279Y467005D01*
X724195Y467050D01*
X724116Y467104D01*
X723997Y467156D01*
X723882Y467218D01*
X723791Y467247D01*
X723704Y467286D01*
X723577Y467317D01*
X723454Y467357D01*
X723359Y467370D01*
X723266Y467392D01*
X723137Y467400D01*
X723008Y467418D01*
X722912Y467414D01*
X722817Y467420D01*
X722688Y467405D01*
X722558Y467400D01*
X722465Y467379D01*
X722370Y467368D01*
X722245Y467330D01*
X722118Y467302D01*
X722030Y467266D01*
X721939Y467238D01*
X721823Y467179D01*
X721703Y467129D01*
X721623Y467077D01*
X721537Y467033D01*
X721434Y466955D01*
X721325Y466884D01*
X721227Y466798D01*
X721179Y466761D01*
X721148Y466728D01*
X721090Y466677D01*
X718494Y464081D01*
X715562Y462867D01*
X715374Y462768D01*
X715185Y462672D01*
X715175Y462664D01*
X715163Y462658D01*
X714994Y462527D01*
X714827Y462400D01*
X714818Y462391D01*
X714807Y462382D01*
X714665Y462225D01*
X714521Y462069D01*
X714514Y462058D01*
X714506Y462048D01*
X714394Y461869D01*
X714280Y461689D01*
X714275Y461677D01*
X714268Y461666D01*
X714189Y461468D01*
X714109Y461273D01*
X714106Y461260D01*
X714101Y461248D01*
X714058Y461038D01*
X714014Y460833D01*
X714013Y460817D01*
X714011Y460806D01*
X714010Y460767D01*
X713995Y460521D01*
X713995Y445916D01*
X713998Y445879D01*
X713996Y445847D01*
X714011Y445722D01*
X714016Y445588D01*
X714029Y445529D01*
X714035Y445468D01*
X714044Y445432D01*
X714048Y445400D01*
X714085Y445278D01*
X714114Y445149D01*
X714137Y445092D01*
X714153Y445033D01*
X714169Y445001D01*
X714178Y444969D01*
X714236Y444855D01*
X714287Y444733D01*
X714320Y444682D01*
X714347Y444627D01*
X714367Y444598D01*
X714383Y444567D01*
X714460Y444465D01*
X714532Y444355D01*
X714583Y444297D01*
X714609Y444261D01*
X714634Y444236D01*
X714655Y444209D01*
X714687Y444179D01*
X714738Y444121D01*
X716421Y442438D01*
X716547Y442333D01*
X716668Y442221D01*
X716719Y442189D01*
X716766Y442150D01*
X716909Y442068D01*
X717048Y441980D01*
X717104Y441956D01*
X717157Y441926D01*
X717312Y441871D01*
X717464Y441809D01*
X717524Y441796D01*
X717581Y441775D01*
X717744Y441749D01*
X717904Y441714D01*
X717981Y441709D01*
X718026Y441702D01*
X718087Y441703D01*
X718216Y441695D01*
X722886Y441695D01*
X722921Y441698D01*
G37*
G36*
X682708Y339356D02*
X682708Y339356D01*
X682838Y339358D01*
X682931Y339376D01*
X683027Y339385D01*
X683152Y339419D01*
X683280Y339444D01*
X683369Y339478D01*
X683461Y339503D01*
X683578Y339559D01*
X683700Y339606D01*
X683782Y339656D01*
X683868Y339697D01*
X683973Y339772D01*
X684085Y339840D01*
X684156Y339903D01*
X684234Y339959D01*
X684324Y340052D01*
X684422Y340138D01*
X684481Y340213D01*
X684548Y340281D01*
X684621Y340389D01*
X684701Y340491D01*
X684746Y340575D01*
X684800Y340654D01*
X684853Y340773D01*
X684914Y340888D01*
X684943Y340979D01*
X684982Y341066D01*
X685013Y341193D01*
X685053Y341316D01*
X685066Y341411D01*
X685089Y341504D01*
X685097Y341633D01*
X685115Y341762D01*
X685111Y341858D01*
X685116Y341953D01*
X685101Y342082D01*
X685096Y342212D01*
X685075Y342305D01*
X685064Y342400D01*
X685027Y342525D01*
X684999Y342652D01*
X684962Y342740D01*
X684934Y342831D01*
X684875Y342947D01*
X684825Y343067D01*
X684773Y343147D01*
X684730Y343233D01*
X684651Y343336D01*
X684581Y343445D01*
X684495Y343543D01*
X684458Y343591D01*
X684425Y343622D01*
X684374Y343680D01*
X682401Y345652D01*
X680553Y350113D01*
X680493Y350228D01*
X680442Y350347D01*
X680389Y350427D01*
X680345Y350512D01*
X680265Y350615D01*
X680193Y350723D01*
X680128Y350792D01*
X680069Y350868D01*
X679972Y350955D01*
X679883Y351049D01*
X679806Y351105D01*
X679735Y351169D01*
X679624Y351238D01*
X679519Y351315D01*
X679434Y351357D01*
X679353Y351407D01*
X679232Y351455D01*
X679115Y351513D01*
X679023Y351539D01*
X678934Y351574D01*
X678807Y351600D01*
X678682Y351636D01*
X678587Y351645D01*
X678493Y351664D01*
X678363Y351667D01*
X678234Y351680D01*
X678138Y351673D01*
X678043Y351675D01*
X677914Y351655D01*
X677785Y351645D01*
X677692Y351621D01*
X677598Y351606D01*
X677475Y351564D01*
X677349Y351531D01*
X677262Y351491D01*
X677172Y351460D01*
X677059Y351396D01*
X676941Y351342D01*
X676862Y351287D01*
X676779Y351240D01*
X676678Y351158D01*
X676572Y351083D01*
X676504Y351016D01*
X676431Y350955D01*
X676346Y350856D01*
X676254Y350764D01*
X676200Y350685D01*
X676138Y350613D01*
X676072Y350501D01*
X675998Y350394D01*
X675941Y350277D01*
X675911Y350224D01*
X675895Y350182D01*
X675861Y350113D01*
X675359Y348900D01*
X670139Y343680D01*
X670055Y343580D01*
X669965Y343487D01*
X669911Y343407D01*
X669850Y343334D01*
X669785Y343221D01*
X669713Y343114D01*
X669674Y343026D01*
X669627Y342943D01*
X669583Y342821D01*
X669530Y342702D01*
X669508Y342609D01*
X669476Y342519D01*
X669454Y342391D01*
X669424Y342264D01*
X669418Y342169D01*
X669402Y342075D01*
X669404Y341945D01*
X669396Y341815D01*
X669407Y341720D01*
X669408Y341624D01*
X669433Y341497D01*
X669448Y341368D01*
X669476Y341276D01*
X669494Y341182D01*
X669541Y341061D01*
X669578Y340937D01*
X669622Y340852D01*
X669656Y340762D01*
X669724Y340651D01*
X669783Y340535D01*
X669840Y340459D01*
X669890Y340378D01*
X669976Y340280D01*
X670055Y340177D01*
X670125Y340112D01*
X670188Y340040D01*
X670290Y339960D01*
X670386Y339871D01*
X670466Y339820D01*
X670541Y339761D01*
X670656Y339700D01*
X670766Y339630D01*
X670854Y339593D01*
X670938Y339548D01*
X671062Y339508D01*
X671182Y339459D01*
X671276Y339439D01*
X671366Y339409D01*
X671495Y339391D01*
X671622Y339364D01*
X671752Y339356D01*
X671813Y339348D01*
X671857Y339349D01*
X671934Y339345D01*
X682578Y339345D01*
X682708Y339356D01*
G37*
G36*
X682881Y696328D02*
X682881Y696328D01*
X682915Y696326D01*
X683104Y696348D01*
X683295Y696365D01*
X683328Y696374D01*
X683362Y696378D01*
X683545Y696433D01*
X683729Y696483D01*
X683760Y696498D01*
X683793Y696508D01*
X683964Y696595D01*
X684136Y696677D01*
X684164Y696697D01*
X684195Y696712D01*
X684347Y696828D01*
X684502Y696939D01*
X684526Y696964D01*
X684553Y696984D01*
X684682Y697124D01*
X684816Y697261D01*
X684835Y697290D01*
X684859Y697316D01*
X684961Y697477D01*
X685068Y697634D01*
X685082Y697666D01*
X685100Y697695D01*
X685173Y697872D01*
X685250Y698046D01*
X685258Y698080D01*
X685271Y698112D01*
X685311Y698299D01*
X685357Y698484D01*
X685359Y698518D01*
X685366Y698552D01*
X685385Y698864D01*
X685385Y702398D01*
X685383Y702425D01*
X685384Y702449D01*
X685384Y702455D01*
X685384Y702467D01*
X685362Y702656D01*
X685345Y702847D01*
X685336Y702880D01*
X685332Y702914D01*
X685277Y703097D01*
X685227Y703281D01*
X685212Y703312D01*
X685202Y703345D01*
X685115Y703516D01*
X685033Y703688D01*
X685013Y703716D01*
X684998Y703747D01*
X684882Y703899D01*
X684771Y704054D01*
X684746Y704078D01*
X684726Y704105D01*
X684586Y704234D01*
X684449Y704368D01*
X684420Y704387D01*
X684394Y704411D01*
X684233Y704513D01*
X684076Y704620D01*
X684044Y704634D01*
X684015Y704652D01*
X683838Y704725D01*
X683664Y704802D01*
X683630Y704810D01*
X683598Y704823D01*
X683411Y704863D01*
X683226Y704909D01*
X683192Y704911D01*
X683158Y704918D01*
X682846Y704937D01*
X680607Y704937D01*
X679956Y705207D01*
X679877Y705231D01*
X679802Y705265D01*
X679663Y705299D01*
X679526Y705342D01*
X679444Y705352D01*
X679364Y705371D01*
X679222Y705380D01*
X679079Y705398D01*
X678997Y705394D01*
X678915Y705399D01*
X678773Y705383D01*
X678630Y705375D01*
X678550Y705357D01*
X678468Y705347D01*
X678331Y705306D01*
X678191Y705273D01*
X678116Y705241D01*
X678037Y705217D01*
X677909Y705152D01*
X677778Y705095D01*
X677709Y705050D01*
X677635Y705012D01*
X677521Y704926D01*
X677402Y704847D01*
X677342Y704790D01*
X677277Y704740D01*
X677180Y704635D01*
X677076Y704536D01*
X677027Y704470D01*
X676971Y704409D01*
X676895Y704288D01*
X676810Y704173D01*
X676774Y704099D01*
X676730Y704030D01*
X676675Y703897D01*
X676612Y703768D01*
X676590Y703689D01*
X676559Y703613D01*
X676529Y703473D01*
X676489Y703335D01*
X676481Y703253D01*
X676464Y703173D01*
X676449Y702927D01*
X676445Y702887D01*
X676446Y702877D01*
X676445Y702861D01*
X676445Y698864D01*
X676448Y698829D01*
X676446Y698795D01*
X676468Y698606D01*
X676485Y698415D01*
X676494Y698382D01*
X676498Y698348D01*
X676553Y698165D01*
X676603Y697981D01*
X676618Y697950D01*
X676628Y697917D01*
X676715Y697746D01*
X676797Y697574D01*
X676817Y697546D01*
X676832Y697515D01*
X676948Y697363D01*
X677059Y697208D01*
X677084Y697184D01*
X677104Y697157D01*
X677244Y697028D01*
X677381Y696894D01*
X677410Y696875D01*
X677436Y696851D01*
X677597Y696749D01*
X677754Y696642D01*
X677786Y696628D01*
X677815Y696610D01*
X677992Y696537D01*
X678166Y696460D01*
X678200Y696452D01*
X678232Y696439D01*
X678419Y696399D01*
X678604Y696353D01*
X678638Y696351D01*
X678672Y696344D01*
X678984Y696325D01*
X682846Y696325D01*
X682881Y696328D01*
G37*
D10*
X604200Y216300D03*
X604200Y266300D03*
X310200Y164300D03*
X310200Y318300D03*
D11*
X469900Y635000D03*
X571500Y635000D03*
X361950Y361950D03*
X463550Y361950D03*
D12*
X656950Y426200D03*
X701950Y426200D03*
X656950Y361200D03*
D13*
X701950Y361200D03*
D14*
X409194Y635000D02*
X390906Y635000D01*
X390906Y609600D02*
X409194Y609600D01*
X409194Y584200D02*
X390906Y584200D01*
X390906Y558800D02*
X409194Y558800D01*
X409194Y533400D02*
X390906Y533400D01*
X390906Y508000D02*
X409194Y508000D01*
X409194Y482600D02*
X390906Y482600D01*
X390906Y457200D02*
X409194Y457200D01*
X619506Y635000D02*
X637794Y635000D01*
X637794Y609600D02*
X619506Y609600D01*
X619506Y584200D02*
X637794Y584200D01*
X637794Y558800D02*
X619506Y558800D01*
X619506Y533400D02*
X637794Y533400D01*
X637794Y508000D02*
X619506Y508000D01*
X619506Y482600D02*
X637794Y482600D01*
X637794Y457200D02*
X619506Y457200D01*
D15*
X690880Y609600D02*
X706120Y609600D01*
X706120Y584200D02*
X690880Y584200D01*
X690880Y558800D02*
X706120Y558800D01*
X706120Y533400D02*
X690880Y533400D01*
X690880Y508000D02*
X706120Y508000D01*
X706120Y482600D02*
X690880Y482600D01*
X337820Y558800D02*
X322580Y558800D01*
X322580Y584200D02*
X337820Y584200D01*
X337820Y609600D02*
X322580Y609600D01*
X322580Y635000D02*
X337820Y635000D01*
X337820Y495300D02*
X322580Y495300D01*
X322580Y469900D02*
X337820Y469900D01*
X337820Y444500D02*
X322580Y444500D01*
X322580Y419100D02*
X337820Y419100D01*
D16*
X666877Y183388D02*
X692023Y183388D01*
X692023Y223012D02*
X666877Y223012D01*
D17*
X660950Y724360D03*
X708110Y703740D03*
X660950Y654200D03*
D18*
X400050Y609600D02*
X330200Y609600D01*
X400050Y609600D02*
X520700Y609600D01*
X520700Y679450D01*
X660950Y679450D01*
X660950Y724360D01*
X727710Y679450D02*
X727710Y508000D01*
X676137Y679450D02*
X660950Y679450D01*
X676137Y679450D02*
X677517Y680830D01*
X691543Y680830D01*
X692923Y679450D01*
X727710Y679450D01*
X361950Y164300D02*
X310200Y164300D01*
X361950Y164300D02*
X361950Y361950D01*
X698500Y508000D02*
X727710Y508000D01*
X330200Y609600D02*
X295910Y609600D01*
X295910Y444500D01*
X330200Y444500D01*
X361950Y444500D01*
X361950Y361950D01*
D19*
X656950Y361950D02*
X656950Y361200D01*
D18*
X656950Y361950D02*
X463550Y361950D01*
X400050Y558800D02*
X571500Y558800D01*
X571500Y635000D01*
X571500Y654200D02*
X660950Y654200D01*
X571500Y654200D02*
X571500Y635000D01*
X628650Y508000D02*
X656950Y508000D01*
X656950Y426200D01*
X628650Y609600D02*
X698500Y609600D01*
X698500Y584200D02*
X628650Y584200D01*
X628650Y558800D02*
X698500Y558800D01*
X698500Y533400D02*
X628650Y533400D01*
D20*
X604200Y266300D02*
X673500Y266300D01*
X679450Y260350D01*
X679450Y223012D01*
X679450Y183388D02*
X679450Y165100D01*
X603250Y165100D01*
X604200Y166050D01*
X604200Y216300D01*
D21*
X304800Y723900D03*
X304800Y95250D03*
X711200Y95250D03*
D18*
X330200Y419100D02*
X284480Y419100D01*
X284480Y318300D01*
X698500Y426200D02*
X701950Y426200D01*
X698500Y426200D02*
X698500Y482600D01*
X400050Y635000D02*
X330200Y635000D01*
X400050Y635000D02*
X469900Y635000D01*
X469900Y742950D02*
X708110Y742950D01*
X708110Y703740D01*
X469900Y742950D02*
X469900Y635000D01*
X310200Y318300D02*
X284480Y318300D01*
X284480Y133350D01*
X701950Y426200D02*
X723900Y426200D01*
X406400Y133350D02*
X284480Y133350D01*
X406400Y133350D02*
X406400Y323850D01*
X723900Y323850D01*
X723900Y426200D01*
X330200Y635000D02*
X284480Y635000D01*
X284480Y419100D01*
X304800Y584200D02*
X330200Y584200D01*
X304800Y584200D02*
X304800Y469900D01*
X330200Y469900D01*
X361950Y533400D02*
X400050Y533400D01*
X361950Y533400D02*
X361950Y584200D01*
X330200Y584200D01*
X330200Y508000D02*
X330200Y495300D01*
X330200Y514350D02*
X330200Y558800D01*
X330200Y508000D02*
X400050Y508000D01*
X330200Y508000D02*
X330200Y514350D01*
M02*
