M48
;GenerationSoftware,Autodesk,EAGLE,8.7.1*%
;CreationDate,2021-04-30T08:45:35Z*%
FMAT,2
ICI,OFF
METRIC,TZ,000.000
T6C0.813
T5C0.990
T4C1.016
T3C1.100
T2C1.676
T1C3.810
%
G90
M71
T1
X30480Y72390
X30480Y9525
X71120Y9525
T2
X67945Y18339
X67945Y22301
T3
X68453Y72466
X68453Y66390
X66095Y65420
X70811Y70374
X66095Y72436
T4
X60420Y21630
X60420Y26630
X31020Y16430
X31020Y31830
X33020Y55880
X33020Y41910
X33020Y44450
X40005Y63500
X40005Y60960
X40005Y58420
X40005Y55880
X40005Y53340
X40005Y50800
X40005Y48260
X40005Y45720
X62865Y63500
X62865Y60960
X62865Y58420
X62865Y55880
X62865Y53340
X62865Y50800
X62865Y48260
X62865Y45720
X69850Y60960
X69850Y58420
X69850Y55880
X69850Y53340
X69850Y50800
X69850Y48260
X33020Y58420
X33020Y60960
X33020Y63500
X33020Y49530
X33020Y46990
T5
X65695Y36120
X70195Y42620
X65695Y42620
X70195Y36120
T6
X46990Y63500
X57150Y63500
X36195Y36195
X46355Y36195
M30