G04 EAGLE Gerber X2 export*
%TF.Part,Single*%
%TF.FileFunction,Profile,NP*%
%TF.FilePolarity,Positive*%
%TF.GenerationSoftware,Autodesk,EAGLE,8.7.1*%
%TF.CreationDate,2021-04-30T08:45:36Z*%
G75*
%MOMM*%
%FSLAX34Y34*%
%LPD*%
%AMOC8*
5,1,8,0,0,1.08239X$1,22.5*%
G01*
%ADD10C,0.254000*%


D10*
X273050Y63500D02*
X739650Y63500D01*
X739650Y755550D01*
X273050Y755550D01*
X273050Y63500D01*
X690030Y724353D02*
X689961Y723739D01*
X689823Y723137D01*
X689619Y722554D01*
X689351Y721997D01*
X689023Y721474D01*
X688638Y720991D01*
X688201Y720555D01*
X687718Y720169D01*
X687195Y719841D01*
X686638Y719573D01*
X686055Y719369D01*
X685453Y719231D01*
X684839Y719162D01*
X684221Y719162D01*
X683607Y719231D01*
X683005Y719369D01*
X682422Y719573D01*
X681865Y719841D01*
X681342Y720169D01*
X680859Y720555D01*
X680423Y720991D01*
X680037Y721474D01*
X679709Y721997D01*
X679441Y722554D01*
X679237Y723137D01*
X679099Y723739D01*
X679030Y724353D01*
X679030Y724971D01*
X679099Y725585D01*
X679237Y726187D01*
X679441Y726770D01*
X679709Y727327D01*
X680037Y727850D01*
X680423Y728333D01*
X680859Y728770D01*
X681342Y729155D01*
X681865Y729483D01*
X682422Y729751D01*
X683005Y729955D01*
X683607Y730093D01*
X684221Y730162D01*
X684839Y730162D01*
X685453Y730093D01*
X686055Y729955D01*
X686638Y729751D01*
X687195Y729483D01*
X687718Y729155D01*
X688201Y728770D01*
X688638Y728333D01*
X689023Y727850D01*
X689351Y727327D01*
X689619Y726770D01*
X689823Y726187D01*
X689961Y725585D01*
X690030Y724971D01*
X690030Y724353D01*
X690030Y663591D02*
X689961Y662977D01*
X689823Y662375D01*
X689619Y661792D01*
X689351Y661235D01*
X689023Y660712D01*
X688638Y660229D01*
X688201Y659793D01*
X687718Y659407D01*
X687195Y659079D01*
X686638Y658811D01*
X686055Y658607D01*
X685453Y658469D01*
X684839Y658400D01*
X684221Y658400D01*
X683607Y658469D01*
X683005Y658607D01*
X682422Y658811D01*
X681865Y659079D01*
X681342Y659407D01*
X680859Y659793D01*
X680423Y660229D01*
X680037Y660712D01*
X679709Y661235D01*
X679441Y661792D01*
X679237Y662375D01*
X679099Y662977D01*
X679030Y663591D01*
X679030Y664209D01*
X679099Y664823D01*
X679237Y665425D01*
X679441Y666008D01*
X679709Y666565D01*
X680037Y667088D01*
X680423Y667571D01*
X680859Y668008D01*
X681342Y668393D01*
X681865Y668721D01*
X682422Y668989D01*
X683005Y669193D01*
X683607Y669331D01*
X684221Y669400D01*
X684839Y669400D01*
X685453Y669331D01*
X686055Y669193D01*
X686638Y668989D01*
X687195Y668721D01*
X687718Y668393D01*
X688201Y668008D01*
X688638Y667571D01*
X689023Y667088D01*
X689351Y666565D01*
X689619Y666008D01*
X689823Y665425D01*
X689961Y664823D01*
X690030Y664209D01*
X690030Y663591D01*
M02*
