G04 EAGLE Gerber X2 export*
%TF.Part,Single*%
%TF.FileFunction,Legend,Top,1*%
%TF.FilePolarity,Positive*%
%TF.GenerationSoftware,Autodesk,EAGLE,8.7.1*%
%TF.CreationDate,2021-04-30T08:45:36Z*%
G75*
%MOMM*%
%FSLAX34Y34*%
%LPD*%
%AMOC8*
5,1,8,0,0,1.08239X$1,22.5*%
G01*
%ADD10C,0.101600*%
%ADD11C,0.152400*%
%ADD12C,0.127000*%
%ADD13R,0.863600X0.609600*%
%ADD14C,0.076200*%
%ADD15C,0.200000*%
%ADD16C,0.050800*%
%ADD17C,0.203200*%
%ADD18R,0.508000X0.508000*%
%ADD19C,0.406400*%
%ADD20C,0.304800*%
%ADD21R,1.016000X1.016000*%


D10*
X569454Y152908D02*
X569454Y164592D01*
X569454Y159399D02*
X575945Y159399D01*
X575945Y164592D02*
X575945Y152908D01*
X581669Y152908D02*
X581669Y164592D01*
X581669Y152908D02*
X586861Y152908D01*
X591721Y152908D02*
X591721Y164592D01*
X598212Y164592D02*
X591721Y157452D01*
X594318Y160048D02*
X598212Y152908D01*
X602601Y161996D02*
X605846Y164592D01*
X605846Y152908D01*
X602601Y152908D02*
X609092Y152908D01*
D11*
X488950Y643890D02*
X488952Y643990D01*
X488958Y644089D01*
X488968Y644189D01*
X488981Y644287D01*
X488999Y644386D01*
X489020Y644483D01*
X489045Y644579D01*
X489074Y644675D01*
X489107Y644769D01*
X489143Y644862D01*
X489183Y644953D01*
X489227Y645043D01*
X489274Y645131D01*
X489324Y645217D01*
X489378Y645301D01*
X489435Y645383D01*
X489495Y645462D01*
X489559Y645540D01*
X489625Y645614D01*
X489694Y645686D01*
X489766Y645755D01*
X489840Y645821D01*
X489918Y645885D01*
X489997Y645945D01*
X490079Y646002D01*
X490163Y646056D01*
X490249Y646106D01*
X490337Y646153D01*
X490427Y646197D01*
X490518Y646237D01*
X490611Y646273D01*
X490705Y646306D01*
X490801Y646335D01*
X490897Y646360D01*
X490994Y646381D01*
X491093Y646399D01*
X491191Y646412D01*
X491291Y646422D01*
X491390Y646428D01*
X491490Y646430D01*
X488950Y626110D02*
X488952Y626010D01*
X488958Y625911D01*
X488968Y625811D01*
X488981Y625713D01*
X488999Y625614D01*
X489020Y625517D01*
X489045Y625421D01*
X489074Y625325D01*
X489107Y625231D01*
X489143Y625138D01*
X489183Y625047D01*
X489227Y624957D01*
X489274Y624869D01*
X489324Y624783D01*
X489378Y624699D01*
X489435Y624617D01*
X489495Y624538D01*
X489559Y624460D01*
X489625Y624386D01*
X489694Y624314D01*
X489766Y624245D01*
X489840Y624179D01*
X489918Y624115D01*
X489997Y624055D01*
X490079Y623998D01*
X490163Y623944D01*
X490249Y623894D01*
X490337Y623847D01*
X490427Y623803D01*
X490518Y623763D01*
X490611Y623727D01*
X490705Y623694D01*
X490801Y623665D01*
X490897Y623640D01*
X490994Y623619D01*
X491093Y623601D01*
X491191Y623588D01*
X491291Y623578D01*
X491390Y623572D01*
X491490Y623570D01*
X549910Y623570D02*
X550010Y623572D01*
X550109Y623578D01*
X550209Y623588D01*
X550307Y623601D01*
X550406Y623619D01*
X550503Y623640D01*
X550599Y623665D01*
X550695Y623694D01*
X550789Y623727D01*
X550882Y623763D01*
X550973Y623803D01*
X551063Y623847D01*
X551151Y623894D01*
X551237Y623944D01*
X551321Y623998D01*
X551403Y624055D01*
X551482Y624115D01*
X551560Y624179D01*
X551634Y624245D01*
X551706Y624314D01*
X551775Y624386D01*
X551841Y624460D01*
X551905Y624538D01*
X551965Y624617D01*
X552022Y624699D01*
X552076Y624783D01*
X552126Y624869D01*
X552173Y624957D01*
X552217Y625047D01*
X552257Y625138D01*
X552293Y625231D01*
X552326Y625325D01*
X552355Y625421D01*
X552380Y625517D01*
X552401Y625614D01*
X552419Y625713D01*
X552432Y625811D01*
X552442Y625911D01*
X552448Y626010D01*
X552450Y626110D01*
X552450Y643890D02*
X552448Y643990D01*
X552442Y644089D01*
X552432Y644189D01*
X552419Y644287D01*
X552401Y644386D01*
X552380Y644483D01*
X552355Y644579D01*
X552326Y644675D01*
X552293Y644769D01*
X552257Y644862D01*
X552217Y644953D01*
X552173Y645043D01*
X552126Y645131D01*
X552076Y645217D01*
X552022Y645301D01*
X551965Y645383D01*
X551905Y645462D01*
X551841Y645540D01*
X551775Y645614D01*
X551706Y645686D01*
X551634Y645755D01*
X551560Y645821D01*
X551482Y645885D01*
X551403Y645945D01*
X551321Y646002D01*
X551237Y646056D01*
X551151Y646106D01*
X551063Y646153D01*
X550973Y646197D01*
X550882Y646237D01*
X550789Y646273D01*
X550695Y646306D01*
X550599Y646335D01*
X550503Y646360D01*
X550406Y646381D01*
X550307Y646399D01*
X550209Y646412D01*
X550109Y646422D01*
X550010Y646428D01*
X549910Y646430D01*
X488950Y643890D02*
X488950Y626110D01*
X491490Y646430D02*
X495300Y646430D01*
X496570Y645160D01*
X495300Y623570D02*
X491490Y623570D01*
X495300Y623570D02*
X496570Y624840D01*
X544830Y645160D02*
X546100Y646430D01*
X544830Y645160D02*
X496570Y645160D01*
X544830Y624840D02*
X546100Y623570D01*
X544830Y624840D02*
X496570Y624840D01*
X546100Y646430D02*
X549910Y646430D01*
X549910Y623570D02*
X546100Y623570D01*
X552450Y626110D02*
X552450Y643890D01*
D12*
X490855Y650875D02*
X490855Y662305D01*
X490855Y650875D02*
X495935Y650875D01*
X500355Y659765D02*
X503530Y662305D01*
X503530Y650875D01*
X500355Y650875D02*
X506705Y650875D01*
D13*
X556768Y635000D03*
X484632Y635000D03*
D11*
X383540Y373380D02*
X383440Y373378D01*
X383341Y373372D01*
X383241Y373362D01*
X383143Y373349D01*
X383044Y373331D01*
X382947Y373310D01*
X382851Y373285D01*
X382755Y373256D01*
X382661Y373223D01*
X382568Y373187D01*
X382477Y373147D01*
X382387Y373103D01*
X382299Y373056D01*
X382213Y373006D01*
X382129Y372952D01*
X382047Y372895D01*
X381968Y372835D01*
X381890Y372771D01*
X381816Y372705D01*
X381744Y372636D01*
X381675Y372564D01*
X381609Y372490D01*
X381545Y372412D01*
X381485Y372333D01*
X381428Y372251D01*
X381374Y372167D01*
X381324Y372081D01*
X381277Y371993D01*
X381233Y371903D01*
X381193Y371812D01*
X381157Y371719D01*
X381124Y371625D01*
X381095Y371529D01*
X381070Y371433D01*
X381049Y371336D01*
X381031Y371237D01*
X381018Y371139D01*
X381008Y371039D01*
X381002Y370940D01*
X381000Y370840D01*
X381000Y353060D02*
X381002Y352960D01*
X381008Y352861D01*
X381018Y352761D01*
X381031Y352663D01*
X381049Y352564D01*
X381070Y352467D01*
X381095Y352371D01*
X381124Y352275D01*
X381157Y352181D01*
X381193Y352088D01*
X381233Y351997D01*
X381277Y351907D01*
X381324Y351819D01*
X381374Y351733D01*
X381428Y351649D01*
X381485Y351567D01*
X381545Y351488D01*
X381609Y351410D01*
X381675Y351336D01*
X381744Y351264D01*
X381816Y351195D01*
X381890Y351129D01*
X381968Y351065D01*
X382047Y351005D01*
X382129Y350948D01*
X382213Y350894D01*
X382299Y350844D01*
X382387Y350797D01*
X382477Y350753D01*
X382568Y350713D01*
X382661Y350677D01*
X382755Y350644D01*
X382851Y350615D01*
X382947Y350590D01*
X383044Y350569D01*
X383143Y350551D01*
X383241Y350538D01*
X383341Y350528D01*
X383440Y350522D01*
X383540Y350520D01*
X441960Y350520D02*
X442060Y350522D01*
X442159Y350528D01*
X442259Y350538D01*
X442357Y350551D01*
X442456Y350569D01*
X442553Y350590D01*
X442649Y350615D01*
X442745Y350644D01*
X442839Y350677D01*
X442932Y350713D01*
X443023Y350753D01*
X443113Y350797D01*
X443201Y350844D01*
X443287Y350894D01*
X443371Y350948D01*
X443453Y351005D01*
X443532Y351065D01*
X443610Y351129D01*
X443684Y351195D01*
X443756Y351264D01*
X443825Y351336D01*
X443891Y351410D01*
X443955Y351488D01*
X444015Y351567D01*
X444072Y351649D01*
X444126Y351733D01*
X444176Y351819D01*
X444223Y351907D01*
X444267Y351997D01*
X444307Y352088D01*
X444343Y352181D01*
X444376Y352275D01*
X444405Y352371D01*
X444430Y352467D01*
X444451Y352564D01*
X444469Y352663D01*
X444482Y352761D01*
X444492Y352861D01*
X444498Y352960D01*
X444500Y353060D01*
X444500Y370840D02*
X444498Y370940D01*
X444492Y371039D01*
X444482Y371139D01*
X444469Y371237D01*
X444451Y371336D01*
X444430Y371433D01*
X444405Y371529D01*
X444376Y371625D01*
X444343Y371719D01*
X444307Y371812D01*
X444267Y371903D01*
X444223Y371993D01*
X444176Y372081D01*
X444126Y372167D01*
X444072Y372251D01*
X444015Y372333D01*
X443955Y372412D01*
X443891Y372490D01*
X443825Y372564D01*
X443756Y372636D01*
X443684Y372705D01*
X443610Y372771D01*
X443532Y372835D01*
X443453Y372895D01*
X443371Y372952D01*
X443287Y373006D01*
X443201Y373056D01*
X443113Y373103D01*
X443023Y373147D01*
X442932Y373187D01*
X442839Y373223D01*
X442745Y373256D01*
X442649Y373285D01*
X442553Y373310D01*
X442456Y373331D01*
X442357Y373349D01*
X442259Y373362D01*
X442159Y373372D01*
X442060Y373378D01*
X441960Y373380D01*
X381000Y370840D02*
X381000Y353060D01*
X383540Y373380D02*
X387350Y373380D01*
X388620Y372110D01*
X387350Y350520D02*
X383540Y350520D01*
X387350Y350520D02*
X388620Y351790D01*
X436880Y372110D02*
X438150Y373380D01*
X436880Y372110D02*
X388620Y372110D01*
X436880Y351790D02*
X438150Y350520D01*
X436880Y351790D02*
X388620Y351790D01*
X438150Y373380D02*
X441960Y373380D01*
X441960Y350520D02*
X438150Y350520D01*
X444500Y353060D02*
X444500Y370840D01*
D12*
X382905Y377825D02*
X382905Y389255D01*
X382905Y377825D02*
X387985Y377825D01*
X398755Y386398D02*
X398753Y386502D01*
X398747Y386607D01*
X398738Y386711D01*
X398725Y386814D01*
X398707Y386917D01*
X398687Y387019D01*
X398662Y387121D01*
X398634Y387221D01*
X398602Y387321D01*
X398566Y387419D01*
X398527Y387516D01*
X398485Y387611D01*
X398439Y387705D01*
X398389Y387797D01*
X398337Y387887D01*
X398281Y387975D01*
X398221Y388061D01*
X398159Y388145D01*
X398094Y388226D01*
X398026Y388305D01*
X397954Y388382D01*
X397881Y388455D01*
X397804Y388527D01*
X397725Y388595D01*
X397644Y388660D01*
X397560Y388722D01*
X397474Y388782D01*
X397386Y388838D01*
X397296Y388890D01*
X397204Y388940D01*
X397110Y388986D01*
X397015Y389028D01*
X396918Y389067D01*
X396820Y389103D01*
X396720Y389135D01*
X396620Y389163D01*
X396518Y389188D01*
X396416Y389208D01*
X396313Y389226D01*
X396210Y389239D01*
X396106Y389248D01*
X396001Y389254D01*
X395897Y389256D01*
X395897Y389255D02*
X395779Y389253D01*
X395660Y389247D01*
X395542Y389238D01*
X395425Y389225D01*
X395308Y389207D01*
X395191Y389187D01*
X395075Y389162D01*
X394960Y389134D01*
X394847Y389101D01*
X394734Y389066D01*
X394622Y389026D01*
X394512Y388984D01*
X394403Y388937D01*
X394295Y388887D01*
X394190Y388834D01*
X394086Y388777D01*
X393984Y388717D01*
X393884Y388654D01*
X393786Y388587D01*
X393690Y388518D01*
X393597Y388445D01*
X393506Y388369D01*
X393417Y388291D01*
X393331Y388209D01*
X393248Y388125D01*
X393167Y388039D01*
X393090Y387949D01*
X393015Y387858D01*
X392943Y387764D01*
X392874Y387667D01*
X392809Y387569D01*
X392746Y387468D01*
X392687Y387365D01*
X392631Y387261D01*
X392579Y387155D01*
X392530Y387047D01*
X392485Y386938D01*
X392443Y386827D01*
X392405Y386715D01*
X397802Y384176D02*
X397878Y384251D01*
X397953Y384330D01*
X398024Y384411D01*
X398093Y384495D01*
X398158Y384581D01*
X398220Y384669D01*
X398280Y384759D01*
X398336Y384851D01*
X398389Y384946D01*
X398438Y385042D01*
X398484Y385140D01*
X398527Y385239D01*
X398566Y385340D01*
X398601Y385442D01*
X398633Y385545D01*
X398661Y385649D01*
X398686Y385754D01*
X398707Y385861D01*
X398724Y385967D01*
X398737Y386074D01*
X398746Y386182D01*
X398752Y386290D01*
X398754Y386398D01*
X397802Y384175D02*
X392405Y377825D01*
X398755Y377825D01*
D13*
X448818Y361950D03*
X376682Y361950D03*
D12*
X709400Y370700D02*
X709400Y415700D01*
X690950Y363700D02*
X667950Y363700D01*
X649500Y370700D02*
X649500Y416700D01*
X667950Y423650D02*
X690950Y423650D01*
D14*
X719907Y420870D02*
X719986Y420868D01*
X720065Y420862D01*
X720143Y420853D01*
X720221Y420839D01*
X720298Y420822D01*
X720374Y420801D01*
X720449Y420776D01*
X720523Y420747D01*
X720595Y420715D01*
X720666Y420680D01*
X720735Y420641D01*
X720801Y420599D01*
X720866Y420553D01*
X720928Y420505D01*
X720988Y420453D01*
X721045Y420398D01*
X721100Y420341D01*
X721152Y420281D01*
X721200Y420219D01*
X721246Y420154D01*
X721288Y420088D01*
X721327Y420019D01*
X721362Y419948D01*
X721394Y419876D01*
X721423Y419802D01*
X721448Y419727D01*
X721469Y419651D01*
X721486Y419574D01*
X721500Y419496D01*
X721509Y419418D01*
X721515Y419339D01*
X721517Y419260D01*
X721515Y419148D01*
X721510Y419036D01*
X721500Y418925D01*
X721488Y418814D01*
X721471Y418703D01*
X721451Y418593D01*
X721427Y418483D01*
X721400Y418375D01*
X721369Y418267D01*
X721335Y418161D01*
X721297Y418056D01*
X721255Y417952D01*
X721211Y417849D01*
X721162Y417748D01*
X721111Y417649D01*
X721056Y417551D01*
X720999Y417455D01*
X720938Y417361D01*
X720874Y417269D01*
X720807Y417180D01*
X720737Y417092D01*
X720664Y417007D01*
X720589Y416925D01*
X720511Y416844D01*
X715881Y417045D02*
X715802Y417047D01*
X715723Y417053D01*
X715645Y417062D01*
X715567Y417076D01*
X715490Y417093D01*
X715413Y417114D01*
X715338Y417139D01*
X715264Y417168D01*
X715192Y417200D01*
X715122Y417235D01*
X715053Y417274D01*
X714986Y417317D01*
X714921Y417362D01*
X714859Y417411D01*
X714799Y417462D01*
X714742Y417517D01*
X714687Y417574D01*
X714636Y417634D01*
X714587Y417696D01*
X714542Y417761D01*
X714499Y417828D01*
X714460Y417897D01*
X714425Y417967D01*
X714393Y418039D01*
X714364Y418113D01*
X714339Y418188D01*
X714318Y418265D01*
X714301Y418342D01*
X714287Y418420D01*
X714278Y418498D01*
X714272Y418577D01*
X714270Y418656D01*
X714272Y418764D01*
X714278Y418872D01*
X714287Y418979D01*
X714301Y419086D01*
X714318Y419193D01*
X714339Y419299D01*
X714364Y419404D01*
X714393Y419508D01*
X714425Y419611D01*
X714461Y419713D01*
X714501Y419813D01*
X714544Y419912D01*
X714590Y420010D01*
X714640Y420105D01*
X714694Y420199D01*
X714751Y420291D01*
X714811Y420381D01*
X714874Y420468D01*
X717290Y417850D02*
X717250Y417785D01*
X717206Y417721D01*
X717159Y417660D01*
X717110Y417601D01*
X717057Y417544D01*
X717002Y417490D01*
X716945Y417438D01*
X716885Y417389D01*
X716823Y417343D01*
X716759Y417300D01*
X716693Y417261D01*
X716625Y417224D01*
X716555Y417190D01*
X716484Y417160D01*
X716412Y417133D01*
X716338Y417110D01*
X716263Y417090D01*
X716188Y417074D01*
X716112Y417061D01*
X716035Y417052D01*
X715958Y417047D01*
X715881Y417045D01*
X718498Y420066D02*
X718538Y420131D01*
X718582Y420195D01*
X718629Y420256D01*
X718678Y420315D01*
X718731Y420372D01*
X718786Y420426D01*
X718843Y420478D01*
X718903Y420527D01*
X718965Y420573D01*
X719029Y420616D01*
X719095Y420655D01*
X719163Y420692D01*
X719233Y420726D01*
X719304Y420756D01*
X719376Y420783D01*
X719450Y420806D01*
X719525Y420826D01*
X719600Y420842D01*
X719676Y420855D01*
X719753Y420864D01*
X719830Y420869D01*
X719907Y420871D01*
X718498Y420065D02*
X717290Y417851D01*
X714270Y423566D02*
X721518Y425176D01*
X716686Y426786D01*
X721518Y428397D01*
X714270Y430007D01*
X715881Y432943D02*
X714270Y434956D01*
X721518Y434956D01*
X721518Y432943D02*
X721518Y436969D01*
D12*
X661900Y393700D02*
X661905Y394131D01*
X661921Y394561D01*
X661948Y394991D01*
X661985Y395420D01*
X662032Y395848D01*
X662090Y396275D01*
X662158Y396700D01*
X662237Y397124D01*
X662326Y397545D01*
X662426Y397964D01*
X662536Y398381D01*
X662656Y398794D01*
X662786Y399205D01*
X662926Y399612D01*
X663076Y400016D01*
X663236Y400416D01*
X663406Y400812D01*
X663585Y401204D01*
X663774Y401591D01*
X663972Y401973D01*
X664180Y402350D01*
X664397Y402723D01*
X664623Y403089D01*
X664858Y403450D01*
X665101Y403805D01*
X665354Y404155D01*
X665615Y404497D01*
X665884Y404834D01*
X666161Y405163D01*
X666446Y405486D01*
X666739Y405801D01*
X667040Y406110D01*
X667349Y406411D01*
X667664Y406704D01*
X667987Y406989D01*
X668316Y407266D01*
X668653Y407535D01*
X668995Y407796D01*
X669345Y408049D01*
X669700Y408292D01*
X670061Y408527D01*
X670427Y408753D01*
X670800Y408970D01*
X671177Y409178D01*
X671559Y409376D01*
X671946Y409565D01*
X672338Y409744D01*
X672734Y409914D01*
X673134Y410074D01*
X673538Y410224D01*
X673945Y410364D01*
X674356Y410494D01*
X674769Y410614D01*
X675186Y410724D01*
X675605Y410824D01*
X676026Y410913D01*
X676450Y410992D01*
X676875Y411060D01*
X677302Y411118D01*
X677730Y411165D01*
X678159Y411202D01*
X678589Y411229D01*
X679019Y411245D01*
X679450Y411250D01*
X679881Y411245D01*
X680311Y411229D01*
X680741Y411202D01*
X681170Y411165D01*
X681598Y411118D01*
X682025Y411060D01*
X682450Y410992D01*
X682874Y410913D01*
X683295Y410824D01*
X683714Y410724D01*
X684131Y410614D01*
X684544Y410494D01*
X684955Y410364D01*
X685362Y410224D01*
X685766Y410074D01*
X686166Y409914D01*
X686562Y409744D01*
X686954Y409565D01*
X687341Y409376D01*
X687723Y409178D01*
X688100Y408970D01*
X688473Y408753D01*
X688839Y408527D01*
X689200Y408292D01*
X689555Y408049D01*
X689905Y407796D01*
X690247Y407535D01*
X690584Y407266D01*
X690913Y406989D01*
X691236Y406704D01*
X691551Y406411D01*
X691860Y406110D01*
X692161Y405801D01*
X692454Y405486D01*
X692739Y405163D01*
X693016Y404834D01*
X693285Y404497D01*
X693546Y404155D01*
X693799Y403805D01*
X694042Y403450D01*
X694277Y403089D01*
X694503Y402723D01*
X694720Y402350D01*
X694928Y401973D01*
X695126Y401591D01*
X695315Y401204D01*
X695494Y400812D01*
X695664Y400416D01*
X695824Y400016D01*
X695974Y399612D01*
X696114Y399205D01*
X696244Y398794D01*
X696364Y398381D01*
X696474Y397964D01*
X696574Y397545D01*
X696663Y397124D01*
X696742Y396700D01*
X696810Y396275D01*
X696868Y395848D01*
X696915Y395420D01*
X696952Y394991D01*
X696979Y394561D01*
X696995Y394131D01*
X697000Y393700D01*
X696995Y393269D01*
X696979Y392839D01*
X696952Y392409D01*
X696915Y391980D01*
X696868Y391552D01*
X696810Y391125D01*
X696742Y390700D01*
X696663Y390276D01*
X696574Y389855D01*
X696474Y389436D01*
X696364Y389019D01*
X696244Y388606D01*
X696114Y388195D01*
X695974Y387788D01*
X695824Y387384D01*
X695664Y386984D01*
X695494Y386588D01*
X695315Y386196D01*
X695126Y385809D01*
X694928Y385427D01*
X694720Y385050D01*
X694503Y384677D01*
X694277Y384311D01*
X694042Y383950D01*
X693799Y383595D01*
X693546Y383245D01*
X693285Y382903D01*
X693016Y382566D01*
X692739Y382237D01*
X692454Y381914D01*
X692161Y381599D01*
X691860Y381290D01*
X691551Y380989D01*
X691236Y380696D01*
X690913Y380411D01*
X690584Y380134D01*
X690247Y379865D01*
X689905Y379604D01*
X689555Y379351D01*
X689200Y379108D01*
X688839Y378873D01*
X688473Y378647D01*
X688100Y378430D01*
X687723Y378222D01*
X687341Y378024D01*
X686954Y377835D01*
X686562Y377656D01*
X686166Y377486D01*
X685766Y377326D01*
X685362Y377176D01*
X684955Y377036D01*
X684544Y376906D01*
X684131Y376786D01*
X683714Y376676D01*
X683295Y376576D01*
X682874Y376487D01*
X682450Y376408D01*
X682025Y376340D01*
X681598Y376282D01*
X681170Y376235D01*
X680741Y376198D01*
X680311Y376171D01*
X679881Y376155D01*
X679450Y376150D01*
X679019Y376155D01*
X678589Y376171D01*
X678159Y376198D01*
X677730Y376235D01*
X677302Y376282D01*
X676875Y376340D01*
X676450Y376408D01*
X676026Y376487D01*
X675605Y376576D01*
X675186Y376676D01*
X674769Y376786D01*
X674356Y376906D01*
X673945Y377036D01*
X673538Y377176D01*
X673134Y377326D01*
X672734Y377486D01*
X672338Y377656D01*
X671946Y377835D01*
X671559Y378024D01*
X671177Y378222D01*
X670800Y378430D01*
X670427Y378647D01*
X670061Y378873D01*
X669700Y379108D01*
X669345Y379351D01*
X668995Y379604D01*
X668653Y379865D01*
X668316Y380134D01*
X667987Y380411D01*
X667664Y380696D01*
X667349Y380989D01*
X667040Y381290D01*
X666739Y381599D01*
X666446Y381914D01*
X666161Y382237D01*
X665884Y382566D01*
X665615Y382903D01*
X665354Y383245D01*
X665101Y383595D01*
X664858Y383950D01*
X664623Y384311D01*
X664397Y384677D01*
X664180Y385050D01*
X663972Y385427D01*
X663774Y385809D01*
X663585Y386196D01*
X663406Y386588D01*
X663236Y386984D01*
X663076Y387384D01*
X662926Y387788D01*
X662786Y388195D01*
X662656Y388606D01*
X662536Y389019D01*
X662426Y389436D01*
X662326Y389855D01*
X662237Y390276D01*
X662158Y390700D01*
X662090Y391125D01*
X662032Y391552D01*
X661985Y391980D01*
X661948Y392409D01*
X661921Y392839D01*
X661905Y393269D01*
X661900Y393700D01*
D15*
X700950Y349250D02*
X700952Y349313D01*
X700958Y349375D01*
X700968Y349437D01*
X700981Y349499D01*
X700999Y349559D01*
X701020Y349618D01*
X701045Y349676D01*
X701074Y349732D01*
X701106Y349786D01*
X701141Y349838D01*
X701179Y349887D01*
X701221Y349935D01*
X701265Y349979D01*
X701313Y350021D01*
X701362Y350059D01*
X701414Y350094D01*
X701468Y350126D01*
X701524Y350155D01*
X701582Y350180D01*
X701641Y350201D01*
X701701Y350219D01*
X701763Y350232D01*
X701825Y350242D01*
X701887Y350248D01*
X701950Y350250D01*
X702013Y350248D01*
X702075Y350242D01*
X702137Y350232D01*
X702199Y350219D01*
X702259Y350201D01*
X702318Y350180D01*
X702376Y350155D01*
X702432Y350126D01*
X702486Y350094D01*
X702538Y350059D01*
X702587Y350021D01*
X702635Y349979D01*
X702679Y349935D01*
X702721Y349887D01*
X702759Y349838D01*
X702794Y349786D01*
X702826Y349732D01*
X702855Y349676D01*
X702880Y349618D01*
X702901Y349559D01*
X702919Y349499D01*
X702932Y349437D01*
X702942Y349375D01*
X702948Y349313D01*
X702950Y349250D01*
X702948Y349187D01*
X702942Y349125D01*
X702932Y349063D01*
X702919Y349001D01*
X702901Y348941D01*
X702880Y348882D01*
X702855Y348824D01*
X702826Y348768D01*
X702794Y348714D01*
X702759Y348662D01*
X702721Y348613D01*
X702679Y348565D01*
X702635Y348521D01*
X702587Y348479D01*
X702538Y348441D01*
X702486Y348406D01*
X702432Y348374D01*
X702376Y348345D01*
X702318Y348320D01*
X702259Y348299D01*
X702199Y348281D01*
X702137Y348268D01*
X702075Y348258D01*
X702013Y348252D01*
X701950Y348250D01*
X701887Y348252D01*
X701825Y348258D01*
X701763Y348268D01*
X701701Y348281D01*
X701641Y348299D01*
X701582Y348320D01*
X701524Y348345D01*
X701468Y348374D01*
X701414Y348406D01*
X701362Y348441D01*
X701313Y348479D01*
X701265Y348521D01*
X701221Y348565D01*
X701179Y348613D01*
X701141Y348662D01*
X701106Y348714D01*
X701074Y348768D01*
X701045Y348824D01*
X701020Y348882D01*
X700999Y348941D01*
X700981Y349001D01*
X700968Y349063D01*
X700958Y349125D01*
X700952Y349187D01*
X700950Y349250D01*
D12*
X435350Y381240D02*
X435350Y439240D01*
X595350Y439240D02*
X595350Y381240D01*
X435350Y381240D01*
X435350Y439240D02*
X595350Y439240D01*
D10*
X469555Y583184D02*
X466620Y596392D01*
X472490Y591989D02*
X469555Y583184D01*
X475426Y583184D02*
X472490Y591989D01*
X478361Y596392D02*
X475426Y583184D01*
X485412Y583184D02*
X489081Y583184D01*
X485412Y583184D02*
X485321Y583186D01*
X485230Y583192D01*
X485140Y583201D01*
X485050Y583214D01*
X484960Y583231D01*
X484872Y583251D01*
X484784Y583276D01*
X484697Y583303D01*
X484612Y583335D01*
X484528Y583369D01*
X484445Y583408D01*
X484364Y583449D01*
X484285Y583494D01*
X484208Y583542D01*
X484133Y583594D01*
X484060Y583648D01*
X483989Y583705D01*
X483921Y583766D01*
X483856Y583829D01*
X483793Y583894D01*
X483732Y583962D01*
X483675Y584033D01*
X483621Y584106D01*
X483569Y584181D01*
X483521Y584258D01*
X483476Y584337D01*
X483435Y584418D01*
X483396Y584501D01*
X483362Y584585D01*
X483330Y584670D01*
X483303Y584757D01*
X483278Y584845D01*
X483258Y584933D01*
X483241Y585023D01*
X483228Y585113D01*
X483219Y585203D01*
X483213Y585294D01*
X483211Y585385D01*
X483210Y585385D02*
X483210Y589054D01*
X483212Y589161D01*
X483218Y589268D01*
X483228Y589375D01*
X483241Y589481D01*
X483259Y589587D01*
X483280Y589692D01*
X483305Y589796D01*
X483334Y589900D01*
X483367Y590002D01*
X483404Y590102D01*
X483444Y590202D01*
X483488Y590300D01*
X483535Y590396D01*
X483586Y590490D01*
X483640Y590583D01*
X483697Y590673D01*
X483758Y590762D01*
X483822Y590848D01*
X483889Y590931D01*
X483959Y591013D01*
X484032Y591091D01*
X484108Y591167D01*
X484186Y591240D01*
X484268Y591310D01*
X484351Y591377D01*
X484437Y591441D01*
X484526Y591502D01*
X484616Y591559D01*
X484709Y591613D01*
X484803Y591664D01*
X484899Y591711D01*
X484997Y591755D01*
X485097Y591795D01*
X485197Y591832D01*
X485299Y591865D01*
X485403Y591894D01*
X485507Y591919D01*
X485612Y591940D01*
X485718Y591958D01*
X485824Y591971D01*
X485931Y591981D01*
X486038Y591987D01*
X486145Y591989D01*
X486252Y591987D01*
X486359Y591981D01*
X486466Y591971D01*
X486572Y591958D01*
X486678Y591940D01*
X486783Y591919D01*
X486887Y591894D01*
X486991Y591865D01*
X487093Y591832D01*
X487193Y591795D01*
X487293Y591755D01*
X487391Y591711D01*
X487487Y591664D01*
X487581Y591613D01*
X487674Y591559D01*
X487764Y591502D01*
X487853Y591441D01*
X487939Y591377D01*
X488022Y591310D01*
X488104Y591240D01*
X488182Y591167D01*
X488258Y591091D01*
X488331Y591013D01*
X488401Y590931D01*
X488468Y590848D01*
X488532Y590762D01*
X488593Y590673D01*
X488650Y590583D01*
X488704Y590490D01*
X488755Y590396D01*
X488802Y590300D01*
X488846Y590202D01*
X488886Y590102D01*
X488923Y590002D01*
X488956Y589900D01*
X488985Y589796D01*
X489010Y589692D01*
X489031Y589587D01*
X489049Y589481D01*
X489062Y589375D01*
X489072Y589268D01*
X489078Y589161D01*
X489080Y589054D01*
X489081Y589054D02*
X489081Y587587D01*
X483210Y587587D01*
X494971Y583184D02*
X494971Y596392D01*
X499374Y589054D01*
X503776Y596392D01*
X503776Y583184D01*
X509667Y586119D02*
X509667Y589054D01*
X509669Y589161D01*
X509675Y589268D01*
X509685Y589375D01*
X509698Y589481D01*
X509716Y589587D01*
X509737Y589692D01*
X509762Y589796D01*
X509791Y589900D01*
X509824Y590002D01*
X509861Y590102D01*
X509901Y590202D01*
X509945Y590300D01*
X509992Y590396D01*
X510043Y590490D01*
X510097Y590583D01*
X510154Y590673D01*
X510215Y590762D01*
X510279Y590848D01*
X510346Y590931D01*
X510416Y591013D01*
X510489Y591091D01*
X510565Y591167D01*
X510643Y591240D01*
X510725Y591310D01*
X510808Y591377D01*
X510894Y591441D01*
X510983Y591502D01*
X511073Y591559D01*
X511166Y591613D01*
X511260Y591664D01*
X511356Y591711D01*
X511454Y591755D01*
X511554Y591795D01*
X511654Y591832D01*
X511756Y591865D01*
X511860Y591894D01*
X511964Y591919D01*
X512069Y591940D01*
X512175Y591958D01*
X512281Y591971D01*
X512388Y591981D01*
X512495Y591987D01*
X512602Y591989D01*
X512709Y591987D01*
X512816Y591981D01*
X512923Y591971D01*
X513029Y591958D01*
X513135Y591940D01*
X513240Y591919D01*
X513344Y591894D01*
X513448Y591865D01*
X513550Y591832D01*
X513650Y591795D01*
X513750Y591755D01*
X513848Y591711D01*
X513944Y591664D01*
X514038Y591613D01*
X514131Y591559D01*
X514221Y591502D01*
X514310Y591441D01*
X514396Y591377D01*
X514479Y591310D01*
X514561Y591240D01*
X514639Y591167D01*
X514715Y591091D01*
X514788Y591013D01*
X514858Y590931D01*
X514925Y590848D01*
X514989Y590762D01*
X515050Y590673D01*
X515107Y590583D01*
X515161Y590490D01*
X515212Y590396D01*
X515259Y590300D01*
X515303Y590202D01*
X515343Y590102D01*
X515380Y590002D01*
X515413Y589900D01*
X515442Y589796D01*
X515467Y589692D01*
X515488Y589587D01*
X515506Y589481D01*
X515519Y589375D01*
X515529Y589268D01*
X515535Y589161D01*
X515537Y589054D01*
X515537Y586119D01*
X515535Y586012D01*
X515529Y585905D01*
X515519Y585798D01*
X515506Y585692D01*
X515488Y585586D01*
X515467Y585481D01*
X515442Y585377D01*
X515413Y585273D01*
X515380Y585171D01*
X515343Y585071D01*
X515303Y584971D01*
X515259Y584873D01*
X515212Y584777D01*
X515161Y584683D01*
X515107Y584590D01*
X515050Y584500D01*
X514989Y584411D01*
X514925Y584325D01*
X514858Y584242D01*
X514788Y584160D01*
X514715Y584082D01*
X514639Y584006D01*
X514561Y583933D01*
X514479Y583863D01*
X514396Y583796D01*
X514310Y583732D01*
X514221Y583671D01*
X514131Y583614D01*
X514038Y583560D01*
X513944Y583509D01*
X513848Y583462D01*
X513750Y583418D01*
X513650Y583378D01*
X513550Y583341D01*
X513448Y583308D01*
X513344Y583279D01*
X513240Y583254D01*
X513135Y583233D01*
X513029Y583215D01*
X512923Y583202D01*
X512816Y583192D01*
X512709Y583186D01*
X512602Y583184D01*
X512495Y583186D01*
X512388Y583192D01*
X512281Y583202D01*
X512175Y583215D01*
X512069Y583233D01*
X511964Y583254D01*
X511860Y583279D01*
X511756Y583308D01*
X511654Y583341D01*
X511554Y583378D01*
X511454Y583418D01*
X511356Y583462D01*
X511260Y583509D01*
X511166Y583560D01*
X511073Y583614D01*
X510983Y583671D01*
X510894Y583732D01*
X510808Y583796D01*
X510725Y583863D01*
X510643Y583933D01*
X510565Y584006D01*
X510489Y584082D01*
X510416Y584160D01*
X510346Y584242D01*
X510279Y584325D01*
X510215Y584411D01*
X510154Y584500D01*
X510097Y584590D01*
X510043Y584683D01*
X509992Y584777D01*
X509945Y584873D01*
X509901Y584971D01*
X509861Y585071D01*
X509824Y585171D01*
X509791Y585273D01*
X509762Y585377D01*
X509737Y585481D01*
X509716Y585586D01*
X509698Y585692D01*
X509685Y585798D01*
X509675Y585905D01*
X509669Y586012D01*
X509667Y586119D01*
X521862Y588320D02*
X525531Y586853D01*
X521862Y588320D02*
X521783Y588354D01*
X521705Y588392D01*
X521628Y588433D01*
X521554Y588477D01*
X521482Y588525D01*
X521412Y588576D01*
X521345Y588630D01*
X521280Y588687D01*
X521217Y588748D01*
X521158Y588810D01*
X521101Y588876D01*
X521048Y588944D01*
X520997Y589014D01*
X520950Y589087D01*
X520906Y589162D01*
X520866Y589238D01*
X520829Y589317D01*
X520796Y589396D01*
X520766Y589478D01*
X520740Y589560D01*
X520718Y589644D01*
X520700Y589729D01*
X520686Y589814D01*
X520675Y589900D01*
X520669Y589986D01*
X520666Y590073D01*
X520667Y590160D01*
X520673Y590246D01*
X520682Y590332D01*
X520695Y590418D01*
X520712Y590503D01*
X520733Y590587D01*
X520757Y590670D01*
X520786Y590751D01*
X520818Y590832D01*
X520853Y590911D01*
X520893Y590988D01*
X520935Y591063D01*
X520982Y591136D01*
X521031Y591208D01*
X521083Y591276D01*
X521139Y591343D01*
X521198Y591406D01*
X521259Y591467D01*
X521323Y591526D01*
X521390Y591581D01*
X521459Y591633D01*
X521531Y591682D01*
X521604Y591727D01*
X521680Y591769D01*
X521757Y591808D01*
X521836Y591843D01*
X521917Y591875D01*
X521999Y591903D01*
X522082Y591927D01*
X522166Y591947D01*
X522251Y591963D01*
X522337Y591976D01*
X522423Y591984D01*
X522510Y591989D01*
X522596Y591990D01*
X522596Y591989D02*
X522796Y591984D01*
X522996Y591974D01*
X523196Y591959D01*
X523396Y591939D01*
X523595Y591915D01*
X523793Y591885D01*
X523990Y591851D01*
X524187Y591813D01*
X524382Y591769D01*
X524577Y591721D01*
X524770Y591668D01*
X524962Y591611D01*
X525153Y591549D01*
X525342Y591482D01*
X525529Y591411D01*
X525714Y591335D01*
X525898Y591255D01*
X525532Y586853D02*
X525611Y586819D01*
X525689Y586781D01*
X525766Y586740D01*
X525840Y586696D01*
X525912Y586648D01*
X525982Y586597D01*
X526049Y586543D01*
X526114Y586486D01*
X526177Y586425D01*
X526236Y586363D01*
X526293Y586297D01*
X526346Y586229D01*
X526397Y586159D01*
X526444Y586086D01*
X526488Y586011D01*
X526528Y585935D01*
X526565Y585856D01*
X526598Y585777D01*
X526628Y585695D01*
X526654Y585613D01*
X526676Y585529D01*
X526694Y585444D01*
X526708Y585359D01*
X526719Y585273D01*
X526725Y585187D01*
X526728Y585100D01*
X526727Y585013D01*
X526721Y584927D01*
X526712Y584841D01*
X526699Y584755D01*
X526682Y584670D01*
X526661Y584586D01*
X526637Y584503D01*
X526608Y584422D01*
X526576Y584341D01*
X526541Y584262D01*
X526501Y584185D01*
X526459Y584110D01*
X526412Y584037D01*
X526363Y583965D01*
X526311Y583897D01*
X526255Y583830D01*
X526196Y583767D01*
X526135Y583706D01*
X526071Y583647D01*
X526004Y583592D01*
X525935Y583540D01*
X525863Y583491D01*
X525790Y583446D01*
X525714Y583404D01*
X525637Y583365D01*
X525558Y583330D01*
X525477Y583298D01*
X525395Y583270D01*
X525312Y583246D01*
X525228Y583226D01*
X525143Y583210D01*
X525057Y583197D01*
X524971Y583189D01*
X524884Y583184D01*
X524798Y583183D01*
X524797Y583184D02*
X524503Y583192D01*
X524209Y583207D01*
X523915Y583228D01*
X523622Y583257D01*
X523330Y583292D01*
X523039Y583335D01*
X522749Y583384D01*
X522460Y583440D01*
X522172Y583503D01*
X521886Y583572D01*
X521602Y583649D01*
X521320Y583732D01*
X521040Y583822D01*
X520761Y583918D01*
X531438Y583918D02*
X531438Y583184D01*
X531438Y583918D02*
X532171Y583918D01*
X532171Y583184D01*
X531438Y583184D01*
X539192Y583184D02*
X542127Y583184D01*
X539192Y583184D02*
X539101Y583186D01*
X539010Y583192D01*
X538920Y583201D01*
X538830Y583214D01*
X538740Y583231D01*
X538652Y583251D01*
X538564Y583276D01*
X538477Y583303D01*
X538392Y583335D01*
X538308Y583369D01*
X538225Y583408D01*
X538144Y583449D01*
X538065Y583494D01*
X537988Y583542D01*
X537913Y583594D01*
X537840Y583648D01*
X537769Y583705D01*
X537701Y583766D01*
X537636Y583829D01*
X537573Y583894D01*
X537512Y583962D01*
X537455Y584033D01*
X537401Y584106D01*
X537349Y584181D01*
X537301Y584258D01*
X537256Y584337D01*
X537215Y584418D01*
X537176Y584501D01*
X537142Y584585D01*
X537110Y584670D01*
X537083Y584757D01*
X537058Y584845D01*
X537038Y584933D01*
X537021Y585023D01*
X537008Y585113D01*
X536999Y585203D01*
X536993Y585294D01*
X536991Y585385D01*
X536991Y589788D01*
X536993Y589879D01*
X536999Y589970D01*
X537008Y590060D01*
X537021Y590150D01*
X537038Y590240D01*
X537058Y590328D01*
X537083Y590416D01*
X537110Y590503D01*
X537142Y590588D01*
X537176Y590672D01*
X537215Y590755D01*
X537256Y590836D01*
X537301Y590915D01*
X537349Y590992D01*
X537401Y591067D01*
X537455Y591140D01*
X537512Y591211D01*
X537573Y591279D01*
X537636Y591344D01*
X537701Y591407D01*
X537769Y591468D01*
X537840Y591525D01*
X537913Y591579D01*
X537988Y591631D01*
X538065Y591679D01*
X538144Y591724D01*
X538225Y591765D01*
X538308Y591804D01*
X538392Y591838D01*
X538477Y591870D01*
X538564Y591897D01*
X538652Y591922D01*
X538740Y591942D01*
X538830Y591959D01*
X538920Y591972D01*
X539010Y591981D01*
X539101Y591987D01*
X539192Y591989D01*
X542127Y591989D01*
X549007Y583184D02*
X551942Y583184D01*
X549007Y583184D02*
X548916Y583186D01*
X548825Y583192D01*
X548735Y583201D01*
X548645Y583214D01*
X548555Y583231D01*
X548467Y583251D01*
X548379Y583276D01*
X548292Y583303D01*
X548207Y583335D01*
X548123Y583369D01*
X548040Y583408D01*
X547959Y583449D01*
X547880Y583494D01*
X547803Y583542D01*
X547728Y583594D01*
X547655Y583648D01*
X547584Y583705D01*
X547516Y583766D01*
X547451Y583829D01*
X547388Y583894D01*
X547327Y583962D01*
X547270Y584033D01*
X547216Y584106D01*
X547164Y584181D01*
X547116Y584258D01*
X547071Y584337D01*
X547030Y584418D01*
X546991Y584501D01*
X546957Y584585D01*
X546925Y584670D01*
X546898Y584757D01*
X546873Y584845D01*
X546853Y584933D01*
X546836Y585023D01*
X546823Y585113D01*
X546814Y585203D01*
X546808Y585294D01*
X546806Y585385D01*
X546806Y589788D01*
X546808Y589879D01*
X546814Y589970D01*
X546823Y590060D01*
X546836Y590150D01*
X546853Y590240D01*
X546873Y590328D01*
X546898Y590416D01*
X546925Y590503D01*
X546957Y590588D01*
X546991Y590672D01*
X547030Y590755D01*
X547071Y590836D01*
X547116Y590915D01*
X547164Y590992D01*
X547216Y591067D01*
X547270Y591140D01*
X547327Y591211D01*
X547388Y591279D01*
X547451Y591344D01*
X547516Y591407D01*
X547584Y591468D01*
X547655Y591525D01*
X547728Y591579D01*
X547803Y591631D01*
X547880Y591679D01*
X547959Y591724D01*
X548040Y591765D01*
X548123Y591804D01*
X548207Y591838D01*
X548292Y591870D01*
X548379Y591897D01*
X548467Y591922D01*
X548555Y591942D01*
X548645Y591959D01*
X548735Y591972D01*
X548825Y591981D01*
X548916Y591987D01*
X549007Y591989D01*
X551942Y591989D01*
X466620Y575056D02*
X466620Y561848D01*
X466620Y575056D02*
X470289Y575056D01*
X470409Y575054D01*
X470529Y575048D01*
X470649Y575038D01*
X470768Y575025D01*
X470887Y575007D01*
X471005Y574986D01*
X471122Y574960D01*
X471239Y574931D01*
X471354Y574898D01*
X471468Y574861D01*
X471581Y574821D01*
X471693Y574777D01*
X471803Y574729D01*
X471912Y574678D01*
X472019Y574623D01*
X472124Y574564D01*
X472226Y574503D01*
X472327Y574438D01*
X472426Y574369D01*
X472523Y574298D01*
X472617Y574223D01*
X472708Y574146D01*
X472797Y574065D01*
X472883Y573981D01*
X472967Y573895D01*
X473048Y573806D01*
X473125Y573715D01*
X473200Y573621D01*
X473271Y573524D01*
X473340Y573425D01*
X473405Y573324D01*
X473466Y573222D01*
X473525Y573117D01*
X473580Y573010D01*
X473631Y572901D01*
X473679Y572791D01*
X473723Y572679D01*
X473763Y572566D01*
X473800Y572452D01*
X473833Y572337D01*
X473862Y572220D01*
X473888Y572103D01*
X473909Y571985D01*
X473927Y571866D01*
X473940Y571747D01*
X473950Y571627D01*
X473956Y571507D01*
X473958Y571387D01*
X473958Y565517D01*
X473956Y565397D01*
X473950Y565277D01*
X473940Y565157D01*
X473927Y565038D01*
X473909Y564919D01*
X473888Y564801D01*
X473862Y564684D01*
X473833Y564567D01*
X473800Y564452D01*
X473763Y564338D01*
X473723Y564225D01*
X473679Y564113D01*
X473631Y564003D01*
X473580Y563894D01*
X473525Y563787D01*
X473466Y563683D01*
X473405Y563580D01*
X473340Y563479D01*
X473271Y563380D01*
X473200Y563283D01*
X473125Y563189D01*
X473048Y563098D01*
X472967Y563009D01*
X472883Y562923D01*
X472797Y562839D01*
X472708Y562758D01*
X472617Y562681D01*
X472523Y562606D01*
X472426Y562535D01*
X472327Y562466D01*
X472226Y562401D01*
X472124Y562340D01*
X472019Y562281D01*
X471912Y562226D01*
X471803Y562175D01*
X471693Y562127D01*
X471581Y562083D01*
X471468Y562043D01*
X471354Y562006D01*
X471239Y561973D01*
X471122Y561944D01*
X471005Y561918D01*
X470887Y561897D01*
X470768Y561879D01*
X470649Y561866D01*
X470529Y561856D01*
X470409Y561850D01*
X470289Y561848D01*
X466620Y561848D01*
X479848Y572121D02*
X483517Y575056D01*
X483517Y561848D01*
X479848Y561848D02*
X487186Y561848D01*
X500024Y561848D02*
X500024Y570653D01*
X506628Y570653D01*
X506719Y570651D01*
X506810Y570645D01*
X506900Y570636D01*
X506990Y570623D01*
X507080Y570606D01*
X507168Y570586D01*
X507256Y570561D01*
X507343Y570534D01*
X507428Y570502D01*
X507512Y570468D01*
X507595Y570429D01*
X507676Y570388D01*
X507755Y570343D01*
X507832Y570295D01*
X507907Y570243D01*
X507980Y570189D01*
X508051Y570132D01*
X508119Y570071D01*
X508184Y570008D01*
X508247Y569943D01*
X508308Y569875D01*
X508365Y569804D01*
X508419Y569731D01*
X508471Y569656D01*
X508519Y569579D01*
X508564Y569500D01*
X508605Y569419D01*
X508644Y569336D01*
X508678Y569252D01*
X508710Y569167D01*
X508737Y569080D01*
X508762Y568992D01*
X508782Y568904D01*
X508799Y568814D01*
X508812Y568724D01*
X508821Y568634D01*
X508827Y568543D01*
X508829Y568452D01*
X508829Y561848D01*
X504427Y561848D02*
X504427Y570653D01*
X514668Y570653D02*
X514668Y561848D01*
X514301Y574322D02*
X514301Y575056D01*
X515035Y575056D01*
X515035Y574322D01*
X514301Y574322D01*
X520267Y570653D02*
X520267Y561848D01*
X520267Y570653D02*
X523936Y570653D01*
X524029Y570651D01*
X524123Y570645D01*
X524216Y570635D01*
X524308Y570621D01*
X524400Y570604D01*
X524491Y570582D01*
X524580Y570557D01*
X524669Y570527D01*
X524757Y570494D01*
X524843Y570458D01*
X524927Y570417D01*
X525009Y570374D01*
X525090Y570326D01*
X525168Y570276D01*
X525245Y570222D01*
X525319Y570164D01*
X525390Y570104D01*
X525459Y570041D01*
X525525Y569975D01*
X525588Y569906D01*
X525648Y569835D01*
X525706Y569761D01*
X525760Y569685D01*
X525810Y569606D01*
X525857Y569525D01*
X525901Y569443D01*
X525942Y569359D01*
X525978Y569273D01*
X526011Y569185D01*
X526041Y569097D01*
X526066Y569007D01*
X526088Y568916D01*
X526105Y568824D01*
X526119Y568732D01*
X526129Y568639D01*
X526135Y568545D01*
X526137Y568452D01*
X526137Y561848D01*
X531737Y561848D02*
X531737Y570653D01*
X531370Y574322D02*
X531370Y575056D01*
X532104Y575056D01*
X532104Y574322D01*
X531370Y574322D01*
X403493Y697484D02*
X400558Y710692D01*
X406428Y706289D02*
X403493Y697484D01*
X409363Y697484D02*
X406428Y706289D01*
X412298Y710692D02*
X409363Y697484D01*
X417718Y697484D02*
X423589Y697484D01*
X417718Y697484D02*
X417718Y710692D01*
X423589Y710692D01*
X422121Y704822D02*
X417718Y704822D01*
X428909Y710692D02*
X428909Y697484D01*
X433312Y703354D02*
X428909Y710692D01*
X433312Y703354D02*
X437714Y710692D01*
X437714Y697484D01*
X443724Y701153D02*
X443724Y707023D01*
X443726Y707143D01*
X443732Y707263D01*
X443742Y707383D01*
X443755Y707502D01*
X443773Y707621D01*
X443794Y707739D01*
X443820Y707856D01*
X443849Y707973D01*
X443882Y708088D01*
X443919Y708202D01*
X443959Y708315D01*
X444003Y708427D01*
X444051Y708537D01*
X444102Y708646D01*
X444157Y708753D01*
X444216Y708858D01*
X444277Y708960D01*
X444342Y709061D01*
X444411Y709160D01*
X444482Y709257D01*
X444557Y709351D01*
X444634Y709442D01*
X444715Y709531D01*
X444799Y709617D01*
X444885Y709701D01*
X444974Y709782D01*
X445065Y709859D01*
X445159Y709934D01*
X445256Y710005D01*
X445355Y710074D01*
X445456Y710139D01*
X445559Y710200D01*
X445663Y710259D01*
X445770Y710314D01*
X445879Y710365D01*
X445989Y710413D01*
X446101Y710457D01*
X446214Y710497D01*
X446328Y710534D01*
X446443Y710567D01*
X446560Y710596D01*
X446677Y710622D01*
X446795Y710643D01*
X446914Y710661D01*
X447033Y710674D01*
X447153Y710684D01*
X447273Y710690D01*
X447393Y710692D01*
X447513Y710690D01*
X447633Y710684D01*
X447753Y710674D01*
X447872Y710661D01*
X447991Y710643D01*
X448109Y710622D01*
X448226Y710596D01*
X448343Y710567D01*
X448458Y710534D01*
X448572Y710497D01*
X448685Y710457D01*
X448797Y710413D01*
X448907Y710365D01*
X449016Y710314D01*
X449123Y710259D01*
X449228Y710200D01*
X449330Y710139D01*
X449431Y710074D01*
X449530Y710005D01*
X449627Y709934D01*
X449721Y709859D01*
X449812Y709782D01*
X449901Y709701D01*
X449987Y709617D01*
X450071Y709531D01*
X450152Y709442D01*
X450229Y709351D01*
X450304Y709257D01*
X450375Y709160D01*
X450444Y709061D01*
X450509Y708960D01*
X450570Y708858D01*
X450629Y708753D01*
X450684Y708646D01*
X450735Y708537D01*
X450783Y708427D01*
X450827Y708315D01*
X450867Y708202D01*
X450904Y708088D01*
X450937Y707973D01*
X450966Y707856D01*
X450992Y707739D01*
X451013Y707621D01*
X451031Y707502D01*
X451044Y707383D01*
X451054Y707263D01*
X451060Y707143D01*
X451062Y707023D01*
X451062Y701153D01*
X451060Y701033D01*
X451054Y700913D01*
X451044Y700793D01*
X451031Y700674D01*
X451013Y700555D01*
X450992Y700437D01*
X450966Y700320D01*
X450937Y700203D01*
X450904Y700088D01*
X450867Y699974D01*
X450827Y699861D01*
X450783Y699749D01*
X450735Y699639D01*
X450684Y699530D01*
X450629Y699423D01*
X450570Y699319D01*
X450509Y699216D01*
X450444Y699115D01*
X450375Y699016D01*
X450304Y698919D01*
X450229Y698825D01*
X450152Y698734D01*
X450071Y698645D01*
X449987Y698559D01*
X449901Y698475D01*
X449812Y698394D01*
X449721Y698317D01*
X449627Y698242D01*
X449530Y698171D01*
X449431Y698102D01*
X449330Y698037D01*
X449228Y697976D01*
X449123Y697917D01*
X449016Y697862D01*
X448907Y697811D01*
X448797Y697763D01*
X448685Y697719D01*
X448572Y697679D01*
X448458Y697642D01*
X448343Y697609D01*
X448226Y697580D01*
X448109Y697554D01*
X447991Y697533D01*
X447872Y697515D01*
X447753Y697502D01*
X447633Y697492D01*
X447513Y697486D01*
X447393Y697484D01*
X447273Y697486D01*
X447153Y697492D01*
X447033Y697502D01*
X446914Y697515D01*
X446795Y697533D01*
X446677Y697554D01*
X446560Y697580D01*
X446443Y697609D01*
X446328Y697642D01*
X446214Y697679D01*
X446101Y697719D01*
X445989Y697763D01*
X445879Y697811D01*
X445770Y697862D01*
X445663Y697917D01*
X445559Y697976D01*
X445456Y698037D01*
X445355Y698102D01*
X445256Y698171D01*
X445159Y698242D01*
X445065Y698317D01*
X444974Y698394D01*
X444885Y698475D01*
X444799Y698559D01*
X444715Y698645D01*
X444634Y698734D01*
X444557Y698825D01*
X444482Y698919D01*
X444411Y699016D01*
X444342Y699115D01*
X444277Y699216D01*
X444216Y699319D01*
X444157Y699423D01*
X444102Y699530D01*
X444051Y699639D01*
X444003Y699749D01*
X443959Y699861D01*
X443919Y699974D01*
X443882Y700088D01*
X443849Y700203D01*
X443820Y700320D01*
X443794Y700437D01*
X443773Y700555D01*
X443755Y700674D01*
X443742Y700793D01*
X443732Y700913D01*
X443726Y701033D01*
X443724Y701153D01*
X460502Y697484D02*
X460609Y697486D01*
X460716Y697492D01*
X460823Y697502D01*
X460929Y697515D01*
X461035Y697533D01*
X461140Y697554D01*
X461244Y697579D01*
X461348Y697608D01*
X461450Y697641D01*
X461550Y697678D01*
X461650Y697718D01*
X461748Y697762D01*
X461844Y697809D01*
X461938Y697860D01*
X462031Y697914D01*
X462121Y697971D01*
X462210Y698032D01*
X462296Y698096D01*
X462379Y698163D01*
X462461Y698233D01*
X462539Y698306D01*
X462615Y698382D01*
X462688Y698460D01*
X462758Y698542D01*
X462825Y698625D01*
X462889Y698711D01*
X462950Y698800D01*
X463007Y698890D01*
X463061Y698983D01*
X463112Y699077D01*
X463159Y699173D01*
X463203Y699271D01*
X463243Y699371D01*
X463280Y699471D01*
X463313Y699573D01*
X463342Y699677D01*
X463367Y699781D01*
X463388Y699886D01*
X463406Y699992D01*
X463419Y700098D01*
X463429Y700205D01*
X463435Y700312D01*
X463437Y700419D01*
X460502Y697484D02*
X460349Y697486D01*
X460196Y697492D01*
X460044Y697501D01*
X459891Y697514D01*
X459739Y697531D01*
X459588Y697552D01*
X459436Y697576D01*
X459286Y697604D01*
X459136Y697636D01*
X458988Y697672D01*
X458840Y697711D01*
X458693Y697754D01*
X458547Y697800D01*
X458403Y697850D01*
X458259Y697904D01*
X458117Y697961D01*
X457977Y698021D01*
X457838Y698086D01*
X457701Y698153D01*
X457565Y698224D01*
X457431Y698298D01*
X457299Y698375D01*
X457169Y698456D01*
X457041Y698540D01*
X456915Y698627D01*
X456792Y698717D01*
X456670Y698810D01*
X456551Y698906D01*
X456435Y699005D01*
X456320Y699106D01*
X456209Y699211D01*
X456100Y699318D01*
X456466Y707757D02*
X456468Y707864D01*
X456474Y707971D01*
X456484Y708078D01*
X456497Y708184D01*
X456515Y708290D01*
X456536Y708395D01*
X456561Y708499D01*
X456590Y708603D01*
X456623Y708705D01*
X456660Y708805D01*
X456700Y708905D01*
X456744Y709003D01*
X456791Y709099D01*
X456842Y709193D01*
X456896Y709286D01*
X456953Y709376D01*
X457014Y709465D01*
X457078Y709551D01*
X457145Y709634D01*
X457215Y709716D01*
X457288Y709794D01*
X457364Y709870D01*
X457442Y709943D01*
X457524Y710013D01*
X457607Y710080D01*
X457693Y710144D01*
X457782Y710205D01*
X457872Y710262D01*
X457965Y710316D01*
X458059Y710367D01*
X458155Y710414D01*
X458253Y710458D01*
X458353Y710498D01*
X458453Y710535D01*
X458555Y710568D01*
X458659Y710597D01*
X458763Y710622D01*
X458868Y710643D01*
X458974Y710661D01*
X459080Y710674D01*
X459187Y710684D01*
X459294Y710690D01*
X459401Y710692D01*
X459549Y710690D01*
X459696Y710684D01*
X459843Y710674D01*
X459990Y710660D01*
X460137Y710643D01*
X460282Y710621D01*
X460428Y710595D01*
X460572Y710566D01*
X460716Y710533D01*
X460859Y710495D01*
X461001Y710454D01*
X461141Y710410D01*
X461281Y710361D01*
X461419Y710309D01*
X461555Y710253D01*
X461690Y710193D01*
X461823Y710130D01*
X461955Y710063D01*
X462085Y709993D01*
X462213Y709920D01*
X462338Y709842D01*
X462462Y709762D01*
X462584Y709678D01*
X462703Y709591D01*
X457934Y705189D02*
X457843Y705245D01*
X457754Y705304D01*
X457667Y705366D01*
X457583Y705431D01*
X457500Y705499D01*
X457421Y705570D01*
X457344Y705644D01*
X457270Y705721D01*
X457198Y705800D01*
X457130Y705882D01*
X457064Y705966D01*
X457001Y706053D01*
X456942Y706141D01*
X456886Y706232D01*
X456833Y706325D01*
X456783Y706419D01*
X456737Y706515D01*
X456694Y706613D01*
X456655Y706712D01*
X456619Y706813D01*
X456587Y706915D01*
X456559Y707018D01*
X456535Y707122D01*
X456514Y707226D01*
X456497Y707332D01*
X456483Y707437D01*
X456474Y707544D01*
X456468Y707650D01*
X456466Y707757D01*
X461969Y702987D02*
X462060Y702931D01*
X462149Y702872D01*
X462236Y702810D01*
X462320Y702745D01*
X462403Y702677D01*
X462482Y702606D01*
X462559Y702532D01*
X462633Y702455D01*
X462705Y702376D01*
X462773Y702294D01*
X462839Y702210D01*
X462902Y702123D01*
X462961Y702035D01*
X463017Y701944D01*
X463070Y701851D01*
X463120Y701757D01*
X463166Y701661D01*
X463209Y701563D01*
X463248Y701464D01*
X463284Y701363D01*
X463316Y701261D01*
X463344Y701158D01*
X463368Y701054D01*
X463389Y700950D01*
X463406Y700844D01*
X463420Y700739D01*
X463429Y700632D01*
X463435Y700526D01*
X463437Y700419D01*
X461969Y702987D02*
X457934Y705189D01*
X468474Y707757D02*
X472143Y710692D01*
X472143Y697484D01*
X468474Y697484D02*
X475812Y697484D01*
D12*
X595376Y622300D02*
X595376Y439166D01*
X435610Y439166D02*
X435356Y439166D01*
X435356Y622300D01*
X387350Y723900D02*
X387350Y406400D01*
X412750Y381000D02*
X615950Y381000D01*
X616564Y381007D01*
X617177Y381030D01*
X617790Y381067D01*
X618401Y381119D01*
X619012Y381185D01*
X619620Y381267D01*
X620226Y381363D01*
X620830Y381473D01*
X621431Y381598D01*
X622029Y381738D01*
X622623Y381892D01*
X623213Y382061D01*
X623799Y382243D01*
X624380Y382440D01*
X624957Y382651D01*
X625528Y382875D01*
X626094Y383113D01*
X626654Y383365D01*
X627207Y383631D01*
X627754Y383909D01*
X628294Y384201D01*
X628827Y384506D01*
X629352Y384824D01*
X629870Y385154D01*
X630379Y385496D01*
X630880Y385851D01*
X631372Y386218D01*
X631855Y386596D01*
X632329Y386986D01*
X632793Y387388D01*
X633248Y387800D01*
X633692Y388224D01*
X634126Y388658D01*
X634550Y389102D01*
X634962Y389557D01*
X635364Y390021D01*
X635754Y390495D01*
X636132Y390978D01*
X636499Y391470D01*
X636854Y391971D01*
X637196Y392480D01*
X637526Y392998D01*
X637844Y393523D01*
X638149Y394056D01*
X638441Y394596D01*
X638719Y395143D01*
X638985Y395696D01*
X639237Y396256D01*
X639475Y396822D01*
X639699Y397393D01*
X639910Y397970D01*
X640107Y398551D01*
X640289Y399137D01*
X640458Y399727D01*
X640612Y400321D01*
X640752Y400919D01*
X640877Y401520D01*
X640987Y402124D01*
X641083Y402730D01*
X641165Y403338D01*
X641231Y403949D01*
X641283Y404560D01*
X641320Y405173D01*
X641343Y405786D01*
X641350Y406400D01*
X412750Y381000D02*
X412136Y381007D01*
X411523Y381030D01*
X410910Y381067D01*
X410299Y381119D01*
X409688Y381185D01*
X409080Y381267D01*
X408474Y381363D01*
X407870Y381473D01*
X407269Y381598D01*
X406671Y381738D01*
X406077Y381892D01*
X405487Y382061D01*
X404901Y382243D01*
X404320Y382440D01*
X403743Y382651D01*
X403172Y382875D01*
X402606Y383113D01*
X402046Y383365D01*
X401493Y383631D01*
X400946Y383909D01*
X400406Y384201D01*
X399873Y384506D01*
X399348Y384824D01*
X398830Y385154D01*
X398321Y385496D01*
X397820Y385851D01*
X397328Y386218D01*
X396845Y386596D01*
X396371Y386986D01*
X395907Y387388D01*
X395452Y387800D01*
X395008Y388224D01*
X394574Y388658D01*
X394150Y389102D01*
X393738Y389557D01*
X393336Y390021D01*
X392946Y390495D01*
X392568Y390978D01*
X392201Y391470D01*
X391846Y391971D01*
X391504Y392480D01*
X391174Y392998D01*
X390856Y393523D01*
X390551Y394056D01*
X390259Y394596D01*
X389981Y395143D01*
X389715Y395696D01*
X389463Y396256D01*
X389225Y396822D01*
X389001Y397393D01*
X388790Y397970D01*
X388593Y398551D01*
X388411Y399137D01*
X388242Y399727D01*
X388088Y400321D01*
X387948Y400919D01*
X387823Y401520D01*
X387713Y402124D01*
X387617Y402730D01*
X387535Y403338D01*
X387469Y403949D01*
X387417Y404560D01*
X387380Y405173D01*
X387357Y405786D01*
X387350Y406400D01*
X641350Y406400D02*
X641350Y723900D01*
X387350Y723900D01*
X435610Y622300D02*
X595376Y622300D01*
D16*
X598984Y460756D02*
X598984Y453644D01*
X598984Y460756D02*
X600959Y460756D01*
X601046Y460754D01*
X601134Y460748D01*
X601221Y460739D01*
X601307Y460725D01*
X601393Y460708D01*
X601477Y460687D01*
X601561Y460662D01*
X601644Y460633D01*
X601725Y460601D01*
X601805Y460566D01*
X601883Y460527D01*
X601960Y460484D01*
X602034Y460438D01*
X602106Y460389D01*
X602176Y460337D01*
X602244Y460281D01*
X602309Y460223D01*
X602372Y460162D01*
X602431Y460098D01*
X602488Y460031D01*
X602542Y459963D01*
X602593Y459891D01*
X602640Y459818D01*
X602685Y459743D01*
X602726Y459665D01*
X602763Y459586D01*
X602797Y459506D01*
X602827Y459424D01*
X602854Y459341D01*
X602877Y459256D01*
X602896Y459171D01*
X602911Y459085D01*
X602923Y458998D01*
X602931Y458911D01*
X602935Y458824D01*
X602935Y458736D01*
X602931Y458649D01*
X602923Y458562D01*
X602911Y458475D01*
X602896Y458389D01*
X602877Y458304D01*
X602854Y458219D01*
X602827Y458136D01*
X602797Y458054D01*
X602763Y457974D01*
X602726Y457895D01*
X602685Y457817D01*
X602640Y457742D01*
X602593Y457669D01*
X602542Y457597D01*
X602488Y457529D01*
X602431Y457462D01*
X602372Y457398D01*
X602309Y457337D01*
X602244Y457279D01*
X602176Y457223D01*
X602106Y457171D01*
X602034Y457122D01*
X601960Y457076D01*
X601883Y457033D01*
X601805Y456994D01*
X601725Y456959D01*
X601644Y456927D01*
X601561Y456898D01*
X601477Y456873D01*
X601393Y456852D01*
X601307Y456835D01*
X601221Y456821D01*
X601134Y456812D01*
X601046Y456806D01*
X600959Y456804D01*
X600959Y456805D02*
X598984Y456805D01*
X601355Y456805D02*
X602935Y453644D01*
X607943Y453644D02*
X608021Y453646D01*
X608098Y453652D01*
X608175Y453661D01*
X608251Y453674D01*
X608327Y453691D01*
X608402Y453712D01*
X608475Y453736D01*
X608548Y453764D01*
X608619Y453796D01*
X608688Y453831D01*
X608755Y453869D01*
X608821Y453910D01*
X608884Y453955D01*
X608945Y454003D01*
X609004Y454053D01*
X609060Y454107D01*
X609114Y454163D01*
X609164Y454222D01*
X609212Y454283D01*
X609257Y454346D01*
X609298Y454412D01*
X609336Y454479D01*
X609371Y454548D01*
X609403Y454619D01*
X609431Y454692D01*
X609455Y454765D01*
X609476Y454840D01*
X609493Y454916D01*
X609506Y454992D01*
X609515Y455069D01*
X609521Y455146D01*
X609523Y455224D01*
X607943Y453644D02*
X607828Y453646D01*
X607714Y453652D01*
X607600Y453662D01*
X607486Y453675D01*
X607373Y453693D01*
X607260Y453715D01*
X607148Y453740D01*
X607038Y453769D01*
X606928Y453802D01*
X606819Y453839D01*
X606712Y453879D01*
X606606Y453923D01*
X606502Y453971D01*
X606399Y454022D01*
X606299Y454077D01*
X606200Y454135D01*
X606103Y454197D01*
X606009Y454261D01*
X605916Y454329D01*
X605826Y454401D01*
X605739Y454475D01*
X605654Y454552D01*
X605572Y454632D01*
X605771Y459176D02*
X605773Y459254D01*
X605779Y459331D01*
X605788Y459408D01*
X605801Y459484D01*
X605818Y459560D01*
X605839Y459635D01*
X605863Y459708D01*
X605891Y459781D01*
X605923Y459852D01*
X605958Y459921D01*
X605996Y459988D01*
X606037Y460054D01*
X606082Y460117D01*
X606130Y460178D01*
X606180Y460237D01*
X606234Y460293D01*
X606290Y460347D01*
X606349Y460397D01*
X606410Y460445D01*
X606473Y460490D01*
X606539Y460531D01*
X606606Y460569D01*
X606675Y460604D01*
X606746Y460636D01*
X606819Y460664D01*
X606892Y460688D01*
X606967Y460709D01*
X607043Y460726D01*
X607119Y460739D01*
X607196Y460748D01*
X607274Y460754D01*
X607351Y460756D01*
X607457Y460754D01*
X607563Y460748D01*
X607668Y460739D01*
X607773Y460726D01*
X607878Y460709D01*
X607982Y460688D01*
X608085Y460664D01*
X608187Y460636D01*
X608288Y460604D01*
X608388Y460569D01*
X608486Y460530D01*
X608584Y460487D01*
X608679Y460442D01*
X608773Y460393D01*
X608865Y460340D01*
X608955Y460284D01*
X609043Y460225D01*
X609129Y460163D01*
X606560Y457793D02*
X606493Y457835D01*
X606428Y457880D01*
X606365Y457929D01*
X606304Y457980D01*
X606247Y458035D01*
X606192Y458092D01*
X606139Y458152D01*
X606090Y458214D01*
X606044Y458279D01*
X606002Y458345D01*
X605962Y458414D01*
X605926Y458485D01*
X605894Y458558D01*
X605865Y458632D01*
X605840Y458707D01*
X605819Y458783D01*
X605801Y458861D01*
X605788Y458939D01*
X605778Y459018D01*
X605772Y459097D01*
X605770Y459176D01*
X608734Y456607D02*
X608801Y456565D01*
X608866Y456520D01*
X608929Y456471D01*
X608990Y456420D01*
X609047Y456365D01*
X609102Y456308D01*
X609155Y456248D01*
X609204Y456186D01*
X609250Y456121D01*
X609292Y456055D01*
X609332Y455986D01*
X609368Y455915D01*
X609400Y455842D01*
X609429Y455768D01*
X609454Y455693D01*
X609475Y455617D01*
X609493Y455539D01*
X609506Y455461D01*
X609516Y455382D01*
X609522Y455303D01*
X609524Y455224D01*
X608734Y456607D02*
X606560Y457793D01*
X613720Y460756D02*
X613720Y453644D01*
X611745Y460756D02*
X615696Y460756D01*
X604492Y479044D02*
X606863Y486156D01*
X609233Y479044D01*
X608641Y480822D02*
X605085Y480822D01*
X611745Y482600D02*
X611747Y482748D01*
X611752Y482895D01*
X611762Y483043D01*
X611775Y483190D01*
X611791Y483337D01*
X611812Y483483D01*
X611836Y483629D01*
X611864Y483774D01*
X611895Y483918D01*
X611930Y484061D01*
X611969Y484204D01*
X612011Y484345D01*
X612057Y484486D01*
X612106Y484625D01*
X612159Y484763D01*
X612215Y484900D01*
X612275Y485035D01*
X612338Y485168D01*
X612337Y485168D02*
X612363Y485239D01*
X612393Y485308D01*
X612427Y485376D01*
X612464Y485442D01*
X612504Y485506D01*
X612548Y485568D01*
X612594Y485627D01*
X612644Y485684D01*
X612697Y485738D01*
X612752Y485790D01*
X612810Y485838D01*
X612870Y485884D01*
X612933Y485926D01*
X612998Y485965D01*
X613064Y486001D01*
X613133Y486033D01*
X613202Y486061D01*
X613274Y486086D01*
X613346Y486107D01*
X613420Y486125D01*
X613494Y486138D01*
X613569Y486148D01*
X613644Y486154D01*
X613720Y486156D01*
X613796Y486154D01*
X613871Y486148D01*
X613946Y486138D01*
X614020Y486125D01*
X614094Y486107D01*
X614166Y486086D01*
X614237Y486061D01*
X614307Y486033D01*
X614376Y486001D01*
X614442Y485965D01*
X614507Y485926D01*
X614570Y485884D01*
X614630Y485838D01*
X614688Y485790D01*
X614743Y485738D01*
X614796Y485684D01*
X614846Y485627D01*
X614892Y485568D01*
X614936Y485506D01*
X614976Y485442D01*
X615013Y485376D01*
X615047Y485308D01*
X615077Y485239D01*
X615103Y485168D01*
X615166Y485035D01*
X615226Y484900D01*
X615282Y484763D01*
X615335Y484625D01*
X615384Y484486D01*
X615430Y484345D01*
X615472Y484204D01*
X615511Y484061D01*
X615546Y483918D01*
X615577Y483774D01*
X615605Y483629D01*
X615629Y483483D01*
X615650Y483337D01*
X615666Y483190D01*
X615679Y483043D01*
X615689Y482895D01*
X615694Y482748D01*
X615696Y482600D01*
X611745Y482600D02*
X611747Y482452D01*
X611752Y482305D01*
X611762Y482157D01*
X611775Y482010D01*
X611791Y481863D01*
X611812Y481717D01*
X611836Y481572D01*
X611864Y481426D01*
X611895Y481282D01*
X611930Y481139D01*
X611969Y480996D01*
X612011Y480855D01*
X612057Y480714D01*
X612106Y480575D01*
X612159Y480437D01*
X612215Y480300D01*
X612275Y480165D01*
X612338Y480032D01*
X612337Y480032D02*
X612363Y479961D01*
X612393Y479892D01*
X612427Y479824D01*
X612464Y479758D01*
X612504Y479694D01*
X612548Y479632D01*
X612594Y479573D01*
X612644Y479516D01*
X612697Y479462D01*
X612752Y479410D01*
X612810Y479362D01*
X612870Y479316D01*
X612933Y479274D01*
X612998Y479235D01*
X613064Y479199D01*
X613133Y479167D01*
X613203Y479139D01*
X613274Y479114D01*
X613346Y479093D01*
X613420Y479075D01*
X613494Y479062D01*
X613569Y479052D01*
X613644Y479046D01*
X613720Y479044D01*
X615103Y480032D02*
X615166Y480165D01*
X615226Y480300D01*
X615282Y480437D01*
X615335Y480575D01*
X615384Y480714D01*
X615430Y480855D01*
X615472Y480996D01*
X615511Y481139D01*
X615546Y481282D01*
X615577Y481426D01*
X615605Y481572D01*
X615629Y481717D01*
X615650Y481863D01*
X615666Y482010D01*
X615679Y482157D01*
X615689Y482305D01*
X615694Y482452D01*
X615696Y482600D01*
X615103Y480032D02*
X615077Y479961D01*
X615047Y479892D01*
X615013Y479824D01*
X614976Y479758D01*
X614936Y479694D01*
X614892Y479632D01*
X614846Y479573D01*
X614796Y479516D01*
X614743Y479462D01*
X614688Y479410D01*
X614630Y479362D01*
X614570Y479316D01*
X614507Y479274D01*
X614442Y479235D01*
X614376Y479199D01*
X614307Y479167D01*
X614237Y479139D01*
X614166Y479114D01*
X614094Y479093D01*
X614020Y479075D01*
X613946Y479062D01*
X613871Y479052D01*
X613796Y479046D01*
X613720Y479044D01*
X612140Y480624D02*
X615301Y484576D01*
X604658Y504444D02*
X604658Y511556D01*
X606634Y511556D01*
X606720Y511554D01*
X606806Y511548D01*
X606892Y511539D01*
X606977Y511526D01*
X607062Y511509D01*
X607145Y511489D01*
X607228Y511465D01*
X607310Y511437D01*
X607390Y511406D01*
X607469Y511371D01*
X607546Y511333D01*
X607622Y511291D01*
X607696Y511247D01*
X607767Y511199D01*
X607837Y511148D01*
X607904Y511094D01*
X607969Y511037D01*
X608031Y510977D01*
X608091Y510915D01*
X608148Y510850D01*
X608202Y510783D01*
X608253Y510713D01*
X608301Y510642D01*
X608345Y510568D01*
X608387Y510492D01*
X608425Y510415D01*
X608460Y510336D01*
X608491Y510256D01*
X608519Y510174D01*
X608543Y510091D01*
X608563Y510008D01*
X608580Y509923D01*
X608593Y509838D01*
X608602Y509752D01*
X608608Y509666D01*
X608610Y509580D01*
X608609Y509580D02*
X608609Y506420D01*
X608610Y506420D02*
X608608Y506334D01*
X608602Y506248D01*
X608593Y506162D01*
X608580Y506077D01*
X608563Y505992D01*
X608543Y505909D01*
X608519Y505826D01*
X608491Y505744D01*
X608460Y505664D01*
X608425Y505585D01*
X608387Y505508D01*
X608345Y505432D01*
X608301Y505358D01*
X608253Y505287D01*
X608202Y505217D01*
X608148Y505150D01*
X608091Y505085D01*
X608031Y505023D01*
X607969Y504963D01*
X607904Y504906D01*
X607837Y504852D01*
X607767Y504801D01*
X607696Y504753D01*
X607622Y504709D01*
X607546Y504667D01*
X607469Y504629D01*
X607390Y504594D01*
X607310Y504563D01*
X607228Y504535D01*
X607145Y504511D01*
X607062Y504491D01*
X606977Y504474D01*
X606892Y504461D01*
X606806Y504452D01*
X606720Y504446D01*
X606634Y504444D01*
X604658Y504444D01*
X611745Y508000D02*
X611747Y508148D01*
X611752Y508295D01*
X611762Y508443D01*
X611775Y508590D01*
X611791Y508737D01*
X611812Y508883D01*
X611836Y509029D01*
X611864Y509174D01*
X611895Y509318D01*
X611930Y509461D01*
X611969Y509604D01*
X612011Y509745D01*
X612057Y509886D01*
X612106Y510025D01*
X612159Y510163D01*
X612215Y510300D01*
X612275Y510435D01*
X612338Y510568D01*
X612337Y510568D02*
X612363Y510639D01*
X612393Y510708D01*
X612427Y510776D01*
X612464Y510842D01*
X612504Y510906D01*
X612548Y510968D01*
X612594Y511027D01*
X612644Y511084D01*
X612697Y511138D01*
X612752Y511190D01*
X612810Y511238D01*
X612870Y511284D01*
X612933Y511326D01*
X612998Y511365D01*
X613064Y511401D01*
X613133Y511433D01*
X613202Y511461D01*
X613274Y511486D01*
X613346Y511507D01*
X613420Y511525D01*
X613494Y511538D01*
X613569Y511548D01*
X613644Y511554D01*
X613720Y511556D01*
X613796Y511554D01*
X613871Y511548D01*
X613946Y511538D01*
X614020Y511525D01*
X614094Y511507D01*
X614166Y511486D01*
X614237Y511461D01*
X614307Y511433D01*
X614376Y511401D01*
X614442Y511365D01*
X614507Y511326D01*
X614570Y511284D01*
X614630Y511238D01*
X614688Y511190D01*
X614743Y511138D01*
X614796Y511084D01*
X614846Y511027D01*
X614892Y510968D01*
X614936Y510906D01*
X614976Y510842D01*
X615013Y510776D01*
X615047Y510708D01*
X615077Y510639D01*
X615103Y510568D01*
X615166Y510435D01*
X615226Y510300D01*
X615282Y510163D01*
X615335Y510025D01*
X615384Y509886D01*
X615430Y509745D01*
X615472Y509604D01*
X615511Y509461D01*
X615546Y509318D01*
X615577Y509174D01*
X615605Y509029D01*
X615629Y508883D01*
X615650Y508737D01*
X615666Y508590D01*
X615679Y508443D01*
X615689Y508295D01*
X615694Y508148D01*
X615696Y508000D01*
X611745Y508000D02*
X611747Y507852D01*
X611752Y507705D01*
X611762Y507557D01*
X611775Y507410D01*
X611791Y507263D01*
X611812Y507117D01*
X611836Y506972D01*
X611864Y506826D01*
X611895Y506682D01*
X611930Y506539D01*
X611969Y506396D01*
X612011Y506255D01*
X612057Y506114D01*
X612106Y505975D01*
X612159Y505837D01*
X612215Y505700D01*
X612275Y505565D01*
X612338Y505432D01*
X612337Y505432D02*
X612363Y505361D01*
X612393Y505292D01*
X612427Y505224D01*
X612464Y505158D01*
X612504Y505094D01*
X612548Y505032D01*
X612594Y504973D01*
X612644Y504916D01*
X612697Y504862D01*
X612752Y504810D01*
X612810Y504762D01*
X612870Y504716D01*
X612933Y504674D01*
X612998Y504635D01*
X613064Y504599D01*
X613133Y504567D01*
X613203Y504539D01*
X613274Y504514D01*
X613346Y504493D01*
X613420Y504475D01*
X613494Y504462D01*
X613569Y504452D01*
X613644Y504446D01*
X613720Y504444D01*
X615103Y505432D02*
X615166Y505565D01*
X615226Y505700D01*
X615282Y505837D01*
X615335Y505975D01*
X615384Y506114D01*
X615430Y506255D01*
X615472Y506396D01*
X615511Y506539D01*
X615546Y506682D01*
X615577Y506826D01*
X615605Y506972D01*
X615629Y507117D01*
X615650Y507263D01*
X615666Y507410D01*
X615679Y507557D01*
X615689Y507705D01*
X615694Y507852D01*
X615696Y508000D01*
X615103Y505432D02*
X615077Y505361D01*
X615047Y505292D01*
X615013Y505224D01*
X614976Y505158D01*
X614936Y505094D01*
X614892Y505032D01*
X614846Y504973D01*
X614796Y504916D01*
X614743Y504862D01*
X614688Y504810D01*
X614630Y504762D01*
X614570Y504716D01*
X614507Y504674D01*
X614442Y504635D01*
X614376Y504599D01*
X614307Y504567D01*
X614237Y504539D01*
X614166Y504514D01*
X614094Y504493D01*
X614020Y504475D01*
X613946Y504462D01*
X613871Y504452D01*
X613796Y504446D01*
X613720Y504444D01*
X612140Y506024D02*
X615301Y509976D01*
X604658Y529844D02*
X604658Y536956D01*
X606634Y536956D01*
X606720Y536954D01*
X606806Y536948D01*
X606892Y536939D01*
X606977Y536926D01*
X607062Y536909D01*
X607145Y536889D01*
X607228Y536865D01*
X607310Y536837D01*
X607390Y536806D01*
X607469Y536771D01*
X607546Y536733D01*
X607622Y536691D01*
X607696Y536647D01*
X607767Y536599D01*
X607837Y536548D01*
X607904Y536494D01*
X607969Y536437D01*
X608031Y536377D01*
X608091Y536315D01*
X608148Y536250D01*
X608202Y536183D01*
X608253Y536113D01*
X608301Y536042D01*
X608345Y535968D01*
X608387Y535892D01*
X608425Y535815D01*
X608460Y535736D01*
X608491Y535656D01*
X608519Y535574D01*
X608543Y535491D01*
X608563Y535408D01*
X608580Y535323D01*
X608593Y535238D01*
X608602Y535152D01*
X608608Y535066D01*
X608610Y534980D01*
X608609Y534980D02*
X608609Y531820D01*
X608610Y531820D02*
X608608Y531734D01*
X608602Y531648D01*
X608593Y531562D01*
X608580Y531477D01*
X608563Y531392D01*
X608543Y531309D01*
X608519Y531226D01*
X608491Y531144D01*
X608460Y531064D01*
X608425Y530985D01*
X608387Y530908D01*
X608345Y530832D01*
X608301Y530758D01*
X608253Y530687D01*
X608202Y530617D01*
X608148Y530550D01*
X608091Y530485D01*
X608031Y530423D01*
X607969Y530363D01*
X607904Y530306D01*
X607837Y530252D01*
X607767Y530201D01*
X607696Y530153D01*
X607622Y530109D01*
X607546Y530067D01*
X607469Y530029D01*
X607390Y529994D01*
X607310Y529963D01*
X607228Y529935D01*
X607145Y529911D01*
X607062Y529891D01*
X606977Y529874D01*
X606892Y529861D01*
X606806Y529852D01*
X606720Y529846D01*
X606634Y529844D01*
X604658Y529844D01*
X611745Y529844D02*
X614116Y529844D01*
X614194Y529846D01*
X614271Y529852D01*
X614348Y529861D01*
X614424Y529874D01*
X614500Y529891D01*
X614575Y529912D01*
X614648Y529936D01*
X614721Y529964D01*
X614792Y529996D01*
X614861Y530031D01*
X614928Y530069D01*
X614994Y530110D01*
X615057Y530155D01*
X615118Y530203D01*
X615177Y530253D01*
X615233Y530307D01*
X615287Y530363D01*
X615337Y530422D01*
X615385Y530483D01*
X615430Y530546D01*
X615471Y530612D01*
X615509Y530679D01*
X615544Y530748D01*
X615576Y530819D01*
X615604Y530892D01*
X615628Y530965D01*
X615649Y531040D01*
X615666Y531116D01*
X615679Y531192D01*
X615688Y531269D01*
X615694Y531346D01*
X615696Y531424D01*
X615696Y532215D01*
X615694Y532293D01*
X615688Y532370D01*
X615679Y532447D01*
X615666Y532523D01*
X615649Y532599D01*
X615628Y532674D01*
X615604Y532747D01*
X615576Y532820D01*
X615544Y532891D01*
X615509Y532960D01*
X615471Y533027D01*
X615430Y533093D01*
X615385Y533156D01*
X615337Y533217D01*
X615287Y533276D01*
X615233Y533332D01*
X615177Y533386D01*
X615118Y533436D01*
X615057Y533484D01*
X614994Y533529D01*
X614928Y533570D01*
X614861Y533608D01*
X614792Y533643D01*
X614721Y533675D01*
X614648Y533703D01*
X614575Y533727D01*
X614500Y533748D01*
X614424Y533765D01*
X614348Y533778D01*
X614271Y533787D01*
X614194Y533793D01*
X614116Y533795D01*
X611745Y533795D01*
X611745Y536956D01*
X615696Y536956D01*
X604658Y555244D02*
X604658Y562356D01*
X606634Y562356D01*
X606720Y562354D01*
X606806Y562348D01*
X606892Y562339D01*
X606977Y562326D01*
X607062Y562309D01*
X607145Y562289D01*
X607228Y562265D01*
X607310Y562237D01*
X607390Y562206D01*
X607469Y562171D01*
X607546Y562133D01*
X607622Y562091D01*
X607696Y562047D01*
X607767Y561999D01*
X607837Y561948D01*
X607904Y561894D01*
X607969Y561837D01*
X608031Y561777D01*
X608091Y561715D01*
X608148Y561650D01*
X608202Y561583D01*
X608253Y561513D01*
X608301Y561442D01*
X608345Y561368D01*
X608387Y561292D01*
X608425Y561215D01*
X608460Y561136D01*
X608491Y561056D01*
X608519Y560974D01*
X608543Y560891D01*
X608563Y560808D01*
X608580Y560723D01*
X608593Y560638D01*
X608602Y560552D01*
X608608Y560466D01*
X608610Y560380D01*
X608609Y560380D02*
X608609Y557220D01*
X608610Y557220D02*
X608608Y557134D01*
X608602Y557048D01*
X608593Y556962D01*
X608580Y556877D01*
X608563Y556792D01*
X608543Y556709D01*
X608519Y556626D01*
X608491Y556544D01*
X608460Y556464D01*
X608425Y556385D01*
X608387Y556308D01*
X608345Y556232D01*
X608301Y556158D01*
X608253Y556087D01*
X608202Y556017D01*
X608148Y555950D01*
X608091Y555885D01*
X608031Y555823D01*
X607969Y555763D01*
X607904Y555706D01*
X607837Y555652D01*
X607767Y555601D01*
X607696Y555553D01*
X607622Y555509D01*
X607546Y555467D01*
X607469Y555429D01*
X607390Y555394D01*
X607310Y555363D01*
X607228Y555335D01*
X607145Y555311D01*
X607062Y555291D01*
X606977Y555274D01*
X606892Y555261D01*
X606806Y555252D01*
X606720Y555246D01*
X606634Y555244D01*
X604658Y555244D01*
X611745Y559195D02*
X614116Y559195D01*
X614194Y559193D01*
X614271Y559187D01*
X614348Y559178D01*
X614424Y559165D01*
X614500Y559148D01*
X614575Y559127D01*
X614648Y559103D01*
X614721Y559075D01*
X614792Y559043D01*
X614861Y559008D01*
X614928Y558970D01*
X614994Y558929D01*
X615057Y558884D01*
X615118Y558836D01*
X615177Y558786D01*
X615233Y558732D01*
X615287Y558676D01*
X615337Y558617D01*
X615385Y558556D01*
X615430Y558493D01*
X615471Y558427D01*
X615509Y558360D01*
X615544Y558291D01*
X615576Y558220D01*
X615604Y558147D01*
X615628Y558074D01*
X615649Y557999D01*
X615666Y557923D01*
X615679Y557847D01*
X615688Y557770D01*
X615694Y557693D01*
X615696Y557615D01*
X615696Y557220D01*
X615694Y557133D01*
X615688Y557045D01*
X615679Y556958D01*
X615665Y556872D01*
X615648Y556786D01*
X615627Y556702D01*
X615602Y556618D01*
X615573Y556535D01*
X615541Y556454D01*
X615506Y556374D01*
X615467Y556296D01*
X615424Y556219D01*
X615378Y556145D01*
X615329Y556073D01*
X615277Y556003D01*
X615221Y555935D01*
X615163Y555870D01*
X615102Y555807D01*
X615038Y555748D01*
X614971Y555691D01*
X614903Y555637D01*
X614831Y555586D01*
X614758Y555539D01*
X614683Y555494D01*
X614605Y555453D01*
X614526Y555416D01*
X614446Y555382D01*
X614364Y555352D01*
X614281Y555325D01*
X614196Y555302D01*
X614111Y555283D01*
X614025Y555268D01*
X613938Y555256D01*
X613851Y555248D01*
X613764Y555244D01*
X613676Y555244D01*
X613589Y555248D01*
X613502Y555256D01*
X613415Y555268D01*
X613329Y555283D01*
X613244Y555302D01*
X613159Y555325D01*
X613076Y555352D01*
X612994Y555382D01*
X612914Y555416D01*
X612835Y555453D01*
X612757Y555494D01*
X612682Y555539D01*
X612609Y555586D01*
X612537Y555637D01*
X612469Y555691D01*
X612402Y555748D01*
X612338Y555807D01*
X612277Y555870D01*
X612219Y555935D01*
X612163Y556003D01*
X612111Y556073D01*
X612062Y556145D01*
X612016Y556219D01*
X611973Y556296D01*
X611934Y556374D01*
X611899Y556454D01*
X611867Y556535D01*
X611838Y556618D01*
X611813Y556702D01*
X611792Y556786D01*
X611775Y556872D01*
X611761Y556958D01*
X611752Y557045D01*
X611746Y557133D01*
X611744Y557220D01*
X611745Y557220D02*
X611745Y559195D01*
X611747Y559305D01*
X611753Y559415D01*
X611762Y559525D01*
X611776Y559635D01*
X611793Y559744D01*
X611814Y559852D01*
X611839Y559960D01*
X611867Y560066D01*
X611900Y560172D01*
X611936Y560276D01*
X611975Y560379D01*
X612018Y560481D01*
X612065Y560581D01*
X612115Y560679D01*
X612168Y560775D01*
X612225Y560870D01*
X612285Y560963D01*
X612349Y561053D01*
X612415Y561141D01*
X612485Y561227D01*
X612557Y561310D01*
X612632Y561391D01*
X612710Y561469D01*
X612791Y561544D01*
X612874Y561616D01*
X612960Y561686D01*
X613048Y561752D01*
X613138Y561816D01*
X613231Y561876D01*
X613325Y561932D01*
X613422Y561986D01*
X613520Y562036D01*
X613620Y562083D01*
X613722Y562126D01*
X613825Y562165D01*
X613929Y562201D01*
X614035Y562234D01*
X614141Y562262D01*
X614249Y562287D01*
X614357Y562308D01*
X614466Y562325D01*
X614576Y562339D01*
X614685Y562348D01*
X614796Y562354D01*
X614906Y562356D01*
X604658Y580644D02*
X604658Y587756D01*
X606634Y587756D01*
X606720Y587754D01*
X606806Y587748D01*
X606892Y587739D01*
X606977Y587726D01*
X607062Y587709D01*
X607145Y587689D01*
X607228Y587665D01*
X607310Y587637D01*
X607390Y587606D01*
X607469Y587571D01*
X607546Y587533D01*
X607622Y587491D01*
X607696Y587447D01*
X607767Y587399D01*
X607837Y587348D01*
X607904Y587294D01*
X607969Y587237D01*
X608031Y587177D01*
X608091Y587115D01*
X608148Y587050D01*
X608202Y586983D01*
X608253Y586913D01*
X608301Y586842D01*
X608345Y586768D01*
X608387Y586692D01*
X608425Y586615D01*
X608460Y586536D01*
X608491Y586456D01*
X608519Y586374D01*
X608543Y586291D01*
X608563Y586208D01*
X608580Y586123D01*
X608593Y586038D01*
X608602Y585952D01*
X608608Y585866D01*
X608610Y585780D01*
X608609Y585780D02*
X608609Y582620D01*
X608610Y582620D02*
X608608Y582534D01*
X608602Y582448D01*
X608593Y582362D01*
X608580Y582277D01*
X608563Y582192D01*
X608543Y582109D01*
X608519Y582026D01*
X608491Y581944D01*
X608460Y581864D01*
X608425Y581785D01*
X608387Y581708D01*
X608345Y581632D01*
X608301Y581558D01*
X608253Y581487D01*
X608202Y581417D01*
X608148Y581350D01*
X608091Y581285D01*
X608031Y581223D01*
X607969Y581163D01*
X607904Y581106D01*
X607837Y581052D01*
X607767Y581001D01*
X607696Y580953D01*
X607622Y580909D01*
X607546Y580867D01*
X607469Y580829D01*
X607390Y580794D01*
X607310Y580763D01*
X607228Y580735D01*
X607145Y580711D01*
X607062Y580691D01*
X606977Y580674D01*
X606892Y580661D01*
X606806Y580652D01*
X606720Y580646D01*
X606634Y580644D01*
X604658Y580644D01*
X611745Y586966D02*
X611745Y587756D01*
X615696Y587756D01*
X613720Y580644D01*
X604658Y606044D02*
X604658Y613156D01*
X606634Y613156D01*
X606720Y613154D01*
X606806Y613148D01*
X606892Y613139D01*
X606977Y613126D01*
X607062Y613109D01*
X607145Y613089D01*
X607228Y613065D01*
X607310Y613037D01*
X607390Y613006D01*
X607469Y612971D01*
X607546Y612933D01*
X607622Y612891D01*
X607696Y612847D01*
X607767Y612799D01*
X607837Y612748D01*
X607904Y612694D01*
X607969Y612637D01*
X608031Y612577D01*
X608091Y612515D01*
X608148Y612450D01*
X608202Y612383D01*
X608253Y612313D01*
X608301Y612242D01*
X608345Y612168D01*
X608387Y612092D01*
X608425Y612015D01*
X608460Y611936D01*
X608491Y611856D01*
X608519Y611774D01*
X608543Y611691D01*
X608563Y611608D01*
X608580Y611523D01*
X608593Y611438D01*
X608602Y611352D01*
X608608Y611266D01*
X608610Y611180D01*
X608609Y611180D02*
X608609Y608020D01*
X608610Y608020D02*
X608608Y607934D01*
X608602Y607848D01*
X608593Y607762D01*
X608580Y607677D01*
X608563Y607592D01*
X608543Y607509D01*
X608519Y607426D01*
X608491Y607344D01*
X608460Y607264D01*
X608425Y607185D01*
X608387Y607108D01*
X608345Y607032D01*
X608301Y606958D01*
X608253Y606887D01*
X608202Y606817D01*
X608148Y606750D01*
X608091Y606685D01*
X608031Y606623D01*
X607969Y606563D01*
X607904Y606506D01*
X607837Y606452D01*
X607767Y606401D01*
X607696Y606353D01*
X607622Y606309D01*
X607546Y606267D01*
X607469Y606229D01*
X607390Y606194D01*
X607310Y606163D01*
X607228Y606135D01*
X607145Y606111D01*
X607062Y606091D01*
X606977Y606074D01*
X606892Y606061D01*
X606806Y606052D01*
X606720Y606046D01*
X606634Y606044D01*
X604658Y606044D01*
X611744Y608020D02*
X611746Y608107D01*
X611752Y608195D01*
X611761Y608282D01*
X611775Y608368D01*
X611792Y608454D01*
X611813Y608538D01*
X611838Y608622D01*
X611867Y608705D01*
X611899Y608786D01*
X611934Y608866D01*
X611973Y608944D01*
X612016Y609021D01*
X612062Y609095D01*
X612111Y609167D01*
X612163Y609237D01*
X612219Y609305D01*
X612277Y609370D01*
X612338Y609433D01*
X612402Y609492D01*
X612469Y609549D01*
X612537Y609603D01*
X612609Y609654D01*
X612682Y609701D01*
X612757Y609746D01*
X612835Y609787D01*
X612914Y609824D01*
X612994Y609858D01*
X613076Y609888D01*
X613159Y609915D01*
X613244Y609938D01*
X613329Y609957D01*
X613415Y609972D01*
X613502Y609984D01*
X613589Y609992D01*
X613676Y609996D01*
X613764Y609996D01*
X613851Y609992D01*
X613938Y609984D01*
X614025Y609972D01*
X614111Y609957D01*
X614196Y609938D01*
X614281Y609915D01*
X614364Y609888D01*
X614446Y609858D01*
X614526Y609824D01*
X614605Y609787D01*
X614683Y609746D01*
X614758Y609701D01*
X614831Y609654D01*
X614903Y609603D01*
X614971Y609549D01*
X615038Y609492D01*
X615102Y609433D01*
X615163Y609370D01*
X615221Y609305D01*
X615277Y609237D01*
X615329Y609167D01*
X615378Y609095D01*
X615424Y609021D01*
X615467Y608944D01*
X615506Y608866D01*
X615541Y608786D01*
X615573Y608705D01*
X615602Y608622D01*
X615627Y608538D01*
X615648Y608454D01*
X615665Y608368D01*
X615679Y608282D01*
X615688Y608195D01*
X615694Y608107D01*
X615696Y608020D01*
X615694Y607933D01*
X615688Y607845D01*
X615679Y607758D01*
X615665Y607672D01*
X615648Y607586D01*
X615627Y607502D01*
X615602Y607418D01*
X615573Y607335D01*
X615541Y607254D01*
X615506Y607174D01*
X615467Y607096D01*
X615424Y607019D01*
X615378Y606945D01*
X615329Y606873D01*
X615277Y606803D01*
X615221Y606735D01*
X615163Y606670D01*
X615102Y606607D01*
X615038Y606548D01*
X614971Y606491D01*
X614903Y606437D01*
X614831Y606386D01*
X614758Y606339D01*
X614683Y606294D01*
X614605Y606253D01*
X614526Y606216D01*
X614446Y606182D01*
X614364Y606152D01*
X614281Y606125D01*
X614196Y606102D01*
X614111Y606083D01*
X614025Y606068D01*
X613938Y606056D01*
X613851Y606048D01*
X613764Y606044D01*
X613676Y606044D01*
X613589Y606048D01*
X613502Y606056D01*
X613415Y606068D01*
X613329Y606083D01*
X613244Y606102D01*
X613159Y606125D01*
X613076Y606152D01*
X612994Y606182D01*
X612914Y606216D01*
X612835Y606253D01*
X612757Y606294D01*
X612682Y606339D01*
X612609Y606386D01*
X612537Y606437D01*
X612469Y606491D01*
X612402Y606548D01*
X612338Y606607D01*
X612277Y606670D01*
X612219Y606735D01*
X612163Y606803D01*
X612111Y606873D01*
X612062Y606945D01*
X612016Y607019D01*
X611973Y607096D01*
X611934Y607174D01*
X611899Y607254D01*
X611867Y607335D01*
X611838Y607418D01*
X611813Y607502D01*
X611792Y607586D01*
X611775Y607672D01*
X611761Y607758D01*
X611752Y607845D01*
X611746Y607933D01*
X611744Y608020D01*
X612140Y611576D02*
X612142Y611655D01*
X612148Y611733D01*
X612158Y611811D01*
X612171Y611889D01*
X612189Y611966D01*
X612210Y612042D01*
X612235Y612116D01*
X612264Y612190D01*
X612296Y612262D01*
X612332Y612332D01*
X612372Y612400D01*
X612415Y612466D01*
X612461Y612530D01*
X612510Y612592D01*
X612562Y612651D01*
X612617Y612707D01*
X612675Y612761D01*
X612735Y612811D01*
X612798Y612859D01*
X612863Y612903D01*
X612930Y612944D01*
X612999Y612982D01*
X613070Y613016D01*
X613143Y613047D01*
X613217Y613074D01*
X613292Y613097D01*
X613368Y613116D01*
X613446Y613132D01*
X613524Y613144D01*
X613602Y613152D01*
X613681Y613156D01*
X613759Y613156D01*
X613838Y613152D01*
X613916Y613144D01*
X613994Y613132D01*
X614072Y613116D01*
X614148Y613097D01*
X614223Y613074D01*
X614297Y613047D01*
X614370Y613016D01*
X614441Y612982D01*
X614510Y612944D01*
X614577Y612903D01*
X614642Y612859D01*
X614705Y612811D01*
X614765Y612761D01*
X614823Y612707D01*
X614878Y612651D01*
X614930Y612592D01*
X614979Y612530D01*
X615025Y612466D01*
X615068Y612400D01*
X615108Y612332D01*
X615144Y612262D01*
X615176Y612190D01*
X615205Y612116D01*
X615230Y612042D01*
X615251Y611966D01*
X615269Y611889D01*
X615282Y611811D01*
X615292Y611733D01*
X615298Y611655D01*
X615300Y611576D01*
X615298Y611497D01*
X615292Y611419D01*
X615282Y611341D01*
X615269Y611263D01*
X615251Y611186D01*
X615230Y611110D01*
X615205Y611036D01*
X615176Y610962D01*
X615144Y610890D01*
X615108Y610820D01*
X615068Y610752D01*
X615025Y610686D01*
X614979Y610622D01*
X614930Y610560D01*
X614878Y610501D01*
X614823Y610445D01*
X614765Y610391D01*
X614705Y610341D01*
X614642Y610293D01*
X614577Y610249D01*
X614510Y610208D01*
X614441Y610170D01*
X614370Y610136D01*
X614297Y610105D01*
X614223Y610078D01*
X614148Y610055D01*
X614072Y610036D01*
X613994Y610020D01*
X613916Y610008D01*
X613838Y610000D01*
X613759Y609996D01*
X613681Y609996D01*
X613602Y610000D01*
X613524Y610008D01*
X613446Y610020D01*
X613368Y610036D01*
X613292Y610055D01*
X613217Y610078D01*
X613143Y610105D01*
X613070Y610136D01*
X612999Y610170D01*
X612930Y610208D01*
X612863Y610249D01*
X612798Y610293D01*
X612735Y610341D01*
X612675Y610391D01*
X612617Y610445D01*
X612562Y610501D01*
X612510Y610560D01*
X612461Y610622D01*
X612415Y610686D01*
X612372Y610752D01*
X612332Y610820D01*
X612296Y610890D01*
X612264Y610962D01*
X612235Y611036D01*
X612210Y611110D01*
X612189Y611186D01*
X612171Y611263D01*
X612158Y611341D01*
X612148Y611419D01*
X612142Y611497D01*
X612140Y611576D01*
X600005Y631444D02*
X598029Y631444D01*
X600005Y631444D02*
X600092Y631446D01*
X600180Y631452D01*
X600267Y631461D01*
X600353Y631475D01*
X600439Y631492D01*
X600523Y631513D01*
X600607Y631538D01*
X600690Y631567D01*
X600771Y631599D01*
X600851Y631634D01*
X600929Y631673D01*
X601006Y631716D01*
X601080Y631762D01*
X601152Y631811D01*
X601222Y631863D01*
X601290Y631919D01*
X601355Y631977D01*
X601418Y632038D01*
X601477Y632102D01*
X601534Y632169D01*
X601588Y632237D01*
X601639Y632309D01*
X601686Y632382D01*
X601731Y632457D01*
X601772Y632535D01*
X601809Y632614D01*
X601843Y632694D01*
X601873Y632776D01*
X601900Y632859D01*
X601923Y632944D01*
X601942Y633029D01*
X601957Y633115D01*
X601969Y633202D01*
X601977Y633289D01*
X601981Y633376D01*
X601981Y633464D01*
X601977Y633551D01*
X601969Y633638D01*
X601957Y633725D01*
X601942Y633811D01*
X601923Y633896D01*
X601900Y633981D01*
X601873Y634064D01*
X601843Y634146D01*
X601809Y634226D01*
X601772Y634305D01*
X601731Y634383D01*
X601686Y634458D01*
X601639Y634531D01*
X601588Y634603D01*
X601534Y634671D01*
X601477Y634738D01*
X601418Y634802D01*
X601355Y634863D01*
X601290Y634921D01*
X601222Y634977D01*
X601152Y635029D01*
X601080Y635078D01*
X601006Y635124D01*
X600929Y635167D01*
X600851Y635206D01*
X600771Y635241D01*
X600690Y635273D01*
X600607Y635302D01*
X600523Y635327D01*
X600439Y635348D01*
X600353Y635365D01*
X600267Y635379D01*
X600180Y635388D01*
X600092Y635394D01*
X600005Y635396D01*
X600400Y638556D02*
X598029Y638556D01*
X600400Y638556D02*
X600479Y638554D01*
X600557Y638548D01*
X600635Y638538D01*
X600713Y638525D01*
X600790Y638507D01*
X600866Y638486D01*
X600940Y638461D01*
X601014Y638432D01*
X601086Y638400D01*
X601156Y638364D01*
X601224Y638324D01*
X601290Y638281D01*
X601354Y638235D01*
X601416Y638186D01*
X601475Y638134D01*
X601531Y638079D01*
X601585Y638021D01*
X601635Y637961D01*
X601683Y637898D01*
X601727Y637833D01*
X601768Y637766D01*
X601806Y637697D01*
X601840Y637626D01*
X601871Y637553D01*
X601898Y637479D01*
X601921Y637404D01*
X601940Y637328D01*
X601956Y637250D01*
X601968Y637172D01*
X601976Y637094D01*
X601980Y637015D01*
X601980Y636937D01*
X601976Y636858D01*
X601968Y636780D01*
X601956Y636702D01*
X601940Y636624D01*
X601921Y636548D01*
X601898Y636473D01*
X601871Y636399D01*
X601840Y636326D01*
X601806Y636255D01*
X601768Y636186D01*
X601727Y636119D01*
X601683Y636054D01*
X601635Y635991D01*
X601585Y635931D01*
X601531Y635873D01*
X601475Y635818D01*
X601416Y635766D01*
X601354Y635717D01*
X601290Y635671D01*
X601224Y635628D01*
X601156Y635588D01*
X601086Y635552D01*
X601014Y635520D01*
X600940Y635491D01*
X600866Y635466D01*
X600790Y635445D01*
X600713Y635427D01*
X600635Y635414D01*
X600557Y635404D01*
X600479Y635398D01*
X600400Y635396D01*
X600400Y635395D02*
X598819Y635395D01*
X604492Y638556D02*
X606863Y631444D01*
X609233Y638556D01*
X611745Y631444D02*
X613720Y631444D01*
X613807Y631446D01*
X613895Y631452D01*
X613982Y631461D01*
X614068Y631475D01*
X614154Y631492D01*
X614238Y631513D01*
X614322Y631538D01*
X614405Y631567D01*
X614486Y631599D01*
X614566Y631634D01*
X614644Y631673D01*
X614721Y631716D01*
X614795Y631762D01*
X614867Y631811D01*
X614937Y631863D01*
X615005Y631919D01*
X615070Y631977D01*
X615133Y632038D01*
X615192Y632102D01*
X615249Y632169D01*
X615303Y632237D01*
X615354Y632309D01*
X615401Y632382D01*
X615446Y632457D01*
X615487Y632535D01*
X615524Y632614D01*
X615558Y632694D01*
X615588Y632776D01*
X615615Y632859D01*
X615638Y632944D01*
X615657Y633029D01*
X615672Y633115D01*
X615684Y633202D01*
X615692Y633289D01*
X615696Y633376D01*
X615696Y633464D01*
X615692Y633551D01*
X615684Y633638D01*
X615672Y633725D01*
X615657Y633811D01*
X615638Y633896D01*
X615615Y633981D01*
X615588Y634064D01*
X615558Y634146D01*
X615524Y634226D01*
X615487Y634305D01*
X615446Y634383D01*
X615401Y634458D01*
X615354Y634531D01*
X615303Y634603D01*
X615249Y634671D01*
X615192Y634738D01*
X615133Y634802D01*
X615070Y634863D01*
X615005Y634921D01*
X614937Y634977D01*
X614867Y635029D01*
X614795Y635078D01*
X614721Y635124D01*
X614644Y635167D01*
X614566Y635206D01*
X614486Y635241D01*
X614405Y635273D01*
X614322Y635302D01*
X614238Y635327D01*
X614154Y635348D01*
X614068Y635365D01*
X613982Y635379D01*
X613895Y635388D01*
X613807Y635394D01*
X613720Y635396D01*
X614116Y638556D02*
X611745Y638556D01*
X614116Y638556D02*
X614195Y638554D01*
X614273Y638548D01*
X614351Y638538D01*
X614429Y638525D01*
X614506Y638507D01*
X614582Y638486D01*
X614656Y638461D01*
X614730Y638432D01*
X614802Y638400D01*
X614872Y638364D01*
X614940Y638324D01*
X615006Y638281D01*
X615070Y638235D01*
X615132Y638186D01*
X615191Y638134D01*
X615247Y638079D01*
X615301Y638021D01*
X615351Y637961D01*
X615399Y637898D01*
X615443Y637833D01*
X615484Y637766D01*
X615522Y637697D01*
X615556Y637626D01*
X615587Y637553D01*
X615614Y637479D01*
X615637Y637404D01*
X615656Y637328D01*
X615672Y637250D01*
X615684Y637172D01*
X615692Y637094D01*
X615696Y637015D01*
X615696Y636937D01*
X615692Y636858D01*
X615684Y636780D01*
X615672Y636702D01*
X615656Y636624D01*
X615637Y636548D01*
X615614Y636473D01*
X615587Y636399D01*
X615556Y636326D01*
X615522Y636255D01*
X615484Y636186D01*
X615443Y636119D01*
X615399Y636054D01*
X615351Y635991D01*
X615301Y635931D01*
X615247Y635873D01*
X615191Y635818D01*
X615132Y635766D01*
X615070Y635717D01*
X615006Y635671D01*
X614940Y635628D01*
X614872Y635588D01*
X614802Y635552D01*
X614730Y635520D01*
X614656Y635491D01*
X614582Y635466D01*
X614506Y635445D01*
X614429Y635427D01*
X614351Y635414D01*
X614273Y635404D01*
X614195Y635398D01*
X614116Y635396D01*
X614116Y635395D02*
X612535Y635395D01*
X415375Y631444D02*
X413004Y631444D01*
X415375Y631444D02*
X415453Y631446D01*
X415530Y631452D01*
X415607Y631461D01*
X415683Y631474D01*
X415759Y631491D01*
X415834Y631512D01*
X415907Y631536D01*
X415980Y631564D01*
X416051Y631596D01*
X416120Y631631D01*
X416187Y631669D01*
X416253Y631710D01*
X416316Y631755D01*
X416377Y631803D01*
X416436Y631853D01*
X416492Y631907D01*
X416546Y631963D01*
X416596Y632022D01*
X416644Y632083D01*
X416689Y632146D01*
X416730Y632212D01*
X416768Y632279D01*
X416803Y632348D01*
X416835Y632419D01*
X416863Y632492D01*
X416887Y632565D01*
X416908Y632640D01*
X416925Y632716D01*
X416938Y632792D01*
X416947Y632869D01*
X416953Y632946D01*
X416955Y633024D01*
X416955Y633815D01*
X416953Y633893D01*
X416947Y633970D01*
X416938Y634047D01*
X416925Y634123D01*
X416908Y634199D01*
X416887Y634274D01*
X416863Y634347D01*
X416835Y634420D01*
X416803Y634491D01*
X416768Y634560D01*
X416730Y634627D01*
X416689Y634693D01*
X416644Y634756D01*
X416596Y634817D01*
X416546Y634876D01*
X416492Y634932D01*
X416436Y634986D01*
X416377Y635036D01*
X416316Y635084D01*
X416253Y635129D01*
X416187Y635170D01*
X416120Y635208D01*
X416051Y635243D01*
X415980Y635275D01*
X415907Y635303D01*
X415834Y635327D01*
X415759Y635348D01*
X415683Y635365D01*
X415607Y635378D01*
X415530Y635387D01*
X415453Y635393D01*
X415375Y635395D01*
X413004Y635395D01*
X413004Y638556D01*
X416955Y638556D01*
X419467Y638556D02*
X421838Y631444D01*
X424208Y638556D01*
X416955Y609995D02*
X415770Y609995D01*
X416955Y609995D02*
X416955Y606044D01*
X414584Y606044D01*
X414506Y606046D01*
X414429Y606052D01*
X414352Y606061D01*
X414276Y606074D01*
X414200Y606091D01*
X414125Y606112D01*
X414052Y606136D01*
X413979Y606164D01*
X413908Y606196D01*
X413839Y606231D01*
X413772Y606269D01*
X413706Y606310D01*
X413643Y606355D01*
X413582Y606403D01*
X413523Y606453D01*
X413467Y606507D01*
X413413Y606563D01*
X413363Y606622D01*
X413315Y606683D01*
X413270Y606746D01*
X413229Y606812D01*
X413191Y606879D01*
X413156Y606948D01*
X413124Y607019D01*
X413096Y607092D01*
X413072Y607165D01*
X413051Y607240D01*
X413034Y607316D01*
X413021Y607392D01*
X413012Y607469D01*
X413006Y607546D01*
X413004Y607624D01*
X413004Y611576D01*
X413006Y611654D01*
X413012Y611731D01*
X413021Y611808D01*
X413034Y611884D01*
X413051Y611960D01*
X413072Y612035D01*
X413096Y612108D01*
X413124Y612181D01*
X413156Y612252D01*
X413191Y612321D01*
X413229Y612388D01*
X413270Y612454D01*
X413315Y612517D01*
X413363Y612578D01*
X413413Y612637D01*
X413467Y612693D01*
X413523Y612747D01*
X413582Y612797D01*
X413643Y612845D01*
X413706Y612890D01*
X413772Y612931D01*
X413839Y612969D01*
X413908Y613004D01*
X413979Y613036D01*
X414052Y613064D01*
X414125Y613088D01*
X414200Y613109D01*
X414276Y613126D01*
X414352Y613139D01*
X414429Y613148D01*
X414506Y613154D01*
X414584Y613156D01*
X416955Y613156D01*
X420319Y613156D02*
X420319Y606044D01*
X424270Y606044D02*
X420319Y613156D01*
X424270Y613156D02*
X424270Y606044D01*
X427634Y606044D02*
X427634Y613156D01*
X429610Y613156D01*
X429696Y613154D01*
X429782Y613148D01*
X429868Y613139D01*
X429953Y613126D01*
X430038Y613109D01*
X430121Y613089D01*
X430204Y613065D01*
X430286Y613037D01*
X430366Y613006D01*
X430445Y612971D01*
X430522Y612933D01*
X430598Y612891D01*
X430672Y612847D01*
X430743Y612799D01*
X430813Y612748D01*
X430880Y612694D01*
X430945Y612637D01*
X431007Y612577D01*
X431067Y612515D01*
X431124Y612450D01*
X431178Y612383D01*
X431229Y612313D01*
X431277Y612242D01*
X431321Y612168D01*
X431363Y612092D01*
X431401Y612015D01*
X431436Y611936D01*
X431467Y611856D01*
X431495Y611774D01*
X431519Y611691D01*
X431539Y611608D01*
X431556Y611523D01*
X431569Y611438D01*
X431578Y611352D01*
X431584Y611266D01*
X431586Y611180D01*
X431585Y611180D02*
X431585Y608020D01*
X431586Y608020D02*
X431584Y607934D01*
X431578Y607848D01*
X431569Y607762D01*
X431556Y607677D01*
X431539Y607592D01*
X431519Y607509D01*
X431495Y607426D01*
X431467Y607344D01*
X431436Y607264D01*
X431401Y607185D01*
X431363Y607108D01*
X431321Y607032D01*
X431277Y606958D01*
X431229Y606887D01*
X431178Y606817D01*
X431124Y606750D01*
X431067Y606685D01*
X431007Y606623D01*
X430945Y606563D01*
X430880Y606506D01*
X430813Y606452D01*
X430743Y606401D01*
X430672Y606353D01*
X430598Y606309D01*
X430522Y606267D01*
X430445Y606229D01*
X430366Y606194D01*
X430286Y606163D01*
X430204Y606135D01*
X430121Y606111D01*
X430038Y606091D01*
X429953Y606074D01*
X429868Y606061D01*
X429782Y606052D01*
X429696Y606046D01*
X429610Y606044D01*
X427634Y606044D01*
X413004Y587756D02*
X413004Y580644D01*
X413004Y587756D02*
X414980Y587756D01*
X415066Y587754D01*
X415152Y587748D01*
X415238Y587739D01*
X415323Y587726D01*
X415408Y587709D01*
X415491Y587689D01*
X415574Y587665D01*
X415656Y587637D01*
X415736Y587606D01*
X415815Y587571D01*
X415892Y587533D01*
X415968Y587491D01*
X416042Y587447D01*
X416113Y587399D01*
X416183Y587348D01*
X416250Y587294D01*
X416315Y587237D01*
X416377Y587177D01*
X416437Y587115D01*
X416494Y587050D01*
X416548Y586983D01*
X416599Y586913D01*
X416647Y586842D01*
X416691Y586768D01*
X416733Y586692D01*
X416771Y586615D01*
X416806Y586536D01*
X416837Y586456D01*
X416865Y586374D01*
X416889Y586291D01*
X416909Y586208D01*
X416926Y586123D01*
X416939Y586038D01*
X416948Y585952D01*
X416954Y585866D01*
X416956Y585780D01*
X416955Y585780D02*
X416955Y582620D01*
X416956Y582620D02*
X416954Y582534D01*
X416948Y582448D01*
X416939Y582362D01*
X416926Y582277D01*
X416909Y582192D01*
X416889Y582109D01*
X416865Y582026D01*
X416837Y581944D01*
X416806Y581864D01*
X416771Y581785D01*
X416733Y581708D01*
X416691Y581632D01*
X416647Y581558D01*
X416599Y581487D01*
X416548Y581417D01*
X416494Y581350D01*
X416437Y581285D01*
X416377Y581223D01*
X416315Y581163D01*
X416250Y581106D01*
X416183Y581052D01*
X416113Y581001D01*
X416042Y580953D01*
X415968Y580909D01*
X415892Y580867D01*
X415815Y580829D01*
X415736Y580794D01*
X415656Y580763D01*
X415574Y580735D01*
X415491Y580711D01*
X415408Y580691D01*
X415323Y580674D01*
X415238Y580661D01*
X415152Y580652D01*
X415066Y580646D01*
X414980Y580644D01*
X413004Y580644D01*
X420091Y582224D02*
X421671Y587756D01*
X420091Y582224D02*
X424042Y582224D01*
X422856Y580644D02*
X422856Y583805D01*
X413004Y562356D02*
X413004Y555244D01*
X413004Y562356D02*
X414980Y562356D01*
X415066Y562354D01*
X415152Y562348D01*
X415238Y562339D01*
X415323Y562326D01*
X415408Y562309D01*
X415491Y562289D01*
X415574Y562265D01*
X415656Y562237D01*
X415736Y562206D01*
X415815Y562171D01*
X415892Y562133D01*
X415968Y562091D01*
X416042Y562047D01*
X416113Y561999D01*
X416183Y561948D01*
X416250Y561894D01*
X416315Y561837D01*
X416377Y561777D01*
X416437Y561715D01*
X416494Y561650D01*
X416548Y561583D01*
X416599Y561513D01*
X416647Y561442D01*
X416691Y561368D01*
X416733Y561292D01*
X416771Y561215D01*
X416806Y561136D01*
X416837Y561056D01*
X416865Y560974D01*
X416889Y560891D01*
X416909Y560808D01*
X416926Y560723D01*
X416939Y560638D01*
X416948Y560552D01*
X416954Y560466D01*
X416956Y560380D01*
X416955Y560380D02*
X416955Y557220D01*
X416956Y557220D02*
X416954Y557134D01*
X416948Y557048D01*
X416939Y556962D01*
X416926Y556877D01*
X416909Y556792D01*
X416889Y556709D01*
X416865Y556626D01*
X416837Y556544D01*
X416806Y556464D01*
X416771Y556385D01*
X416733Y556308D01*
X416691Y556232D01*
X416647Y556158D01*
X416599Y556087D01*
X416548Y556017D01*
X416494Y555950D01*
X416437Y555885D01*
X416377Y555823D01*
X416315Y555763D01*
X416250Y555706D01*
X416183Y555652D01*
X416113Y555601D01*
X416042Y555553D01*
X415968Y555509D01*
X415892Y555467D01*
X415815Y555429D01*
X415736Y555394D01*
X415656Y555363D01*
X415574Y555335D01*
X415491Y555311D01*
X415408Y555291D01*
X415323Y555274D01*
X415238Y555261D01*
X415152Y555252D01*
X415066Y555246D01*
X414980Y555244D01*
X413004Y555244D01*
X420091Y555244D02*
X422066Y555244D01*
X422153Y555246D01*
X422241Y555252D01*
X422328Y555261D01*
X422414Y555275D01*
X422500Y555292D01*
X422584Y555313D01*
X422668Y555338D01*
X422751Y555367D01*
X422832Y555399D01*
X422912Y555434D01*
X422990Y555473D01*
X423067Y555516D01*
X423141Y555562D01*
X423213Y555611D01*
X423283Y555663D01*
X423351Y555719D01*
X423416Y555777D01*
X423479Y555838D01*
X423538Y555902D01*
X423595Y555969D01*
X423649Y556037D01*
X423700Y556109D01*
X423747Y556182D01*
X423792Y556257D01*
X423833Y556335D01*
X423870Y556414D01*
X423904Y556494D01*
X423934Y556576D01*
X423961Y556659D01*
X423984Y556744D01*
X424003Y556829D01*
X424018Y556915D01*
X424030Y557002D01*
X424038Y557089D01*
X424042Y557176D01*
X424042Y557264D01*
X424038Y557351D01*
X424030Y557438D01*
X424018Y557525D01*
X424003Y557611D01*
X423984Y557696D01*
X423961Y557781D01*
X423934Y557864D01*
X423904Y557946D01*
X423870Y558026D01*
X423833Y558105D01*
X423792Y558183D01*
X423747Y558258D01*
X423700Y558331D01*
X423649Y558403D01*
X423595Y558471D01*
X423538Y558538D01*
X423479Y558602D01*
X423416Y558663D01*
X423351Y558721D01*
X423283Y558777D01*
X423213Y558829D01*
X423141Y558878D01*
X423067Y558924D01*
X422990Y558967D01*
X422912Y559006D01*
X422832Y559041D01*
X422751Y559073D01*
X422668Y559102D01*
X422584Y559127D01*
X422500Y559148D01*
X422414Y559165D01*
X422328Y559179D01*
X422241Y559188D01*
X422153Y559194D01*
X422066Y559196D01*
X422461Y562356D02*
X420091Y562356D01*
X422461Y562356D02*
X422540Y562354D01*
X422618Y562348D01*
X422696Y562338D01*
X422774Y562325D01*
X422851Y562307D01*
X422927Y562286D01*
X423001Y562261D01*
X423075Y562232D01*
X423147Y562200D01*
X423217Y562164D01*
X423285Y562124D01*
X423351Y562081D01*
X423415Y562035D01*
X423477Y561986D01*
X423536Y561934D01*
X423592Y561879D01*
X423646Y561821D01*
X423696Y561761D01*
X423744Y561698D01*
X423788Y561633D01*
X423829Y561566D01*
X423867Y561497D01*
X423901Y561426D01*
X423932Y561353D01*
X423959Y561279D01*
X423982Y561204D01*
X424001Y561128D01*
X424017Y561050D01*
X424029Y560972D01*
X424037Y560894D01*
X424041Y560815D01*
X424041Y560737D01*
X424037Y560658D01*
X424029Y560580D01*
X424017Y560502D01*
X424001Y560424D01*
X423982Y560348D01*
X423959Y560273D01*
X423932Y560199D01*
X423901Y560126D01*
X423867Y560055D01*
X423829Y559986D01*
X423788Y559919D01*
X423744Y559854D01*
X423696Y559791D01*
X423646Y559731D01*
X423592Y559673D01*
X423536Y559618D01*
X423477Y559566D01*
X423415Y559517D01*
X423351Y559471D01*
X423285Y559428D01*
X423217Y559388D01*
X423147Y559352D01*
X423075Y559320D01*
X423001Y559291D01*
X422927Y559266D01*
X422851Y559245D01*
X422774Y559227D01*
X422696Y559214D01*
X422618Y559204D01*
X422540Y559198D01*
X422461Y559196D01*
X422461Y559195D02*
X420881Y559195D01*
X413004Y536956D02*
X413004Y529844D01*
X413004Y536956D02*
X414980Y536956D01*
X415066Y536954D01*
X415152Y536948D01*
X415238Y536939D01*
X415323Y536926D01*
X415408Y536909D01*
X415491Y536889D01*
X415574Y536865D01*
X415656Y536837D01*
X415736Y536806D01*
X415815Y536771D01*
X415892Y536733D01*
X415968Y536691D01*
X416042Y536647D01*
X416113Y536599D01*
X416183Y536548D01*
X416250Y536494D01*
X416315Y536437D01*
X416377Y536377D01*
X416437Y536315D01*
X416494Y536250D01*
X416548Y536183D01*
X416599Y536113D01*
X416647Y536042D01*
X416691Y535968D01*
X416733Y535892D01*
X416771Y535815D01*
X416806Y535736D01*
X416837Y535656D01*
X416865Y535574D01*
X416889Y535491D01*
X416909Y535408D01*
X416926Y535323D01*
X416939Y535238D01*
X416948Y535152D01*
X416954Y535066D01*
X416956Y534980D01*
X416955Y534980D02*
X416955Y531820D01*
X416956Y531820D02*
X416954Y531734D01*
X416948Y531648D01*
X416939Y531562D01*
X416926Y531477D01*
X416909Y531392D01*
X416889Y531309D01*
X416865Y531226D01*
X416837Y531144D01*
X416806Y531064D01*
X416771Y530985D01*
X416733Y530908D01*
X416691Y530832D01*
X416647Y530758D01*
X416599Y530687D01*
X416548Y530617D01*
X416494Y530550D01*
X416437Y530485D01*
X416377Y530423D01*
X416315Y530363D01*
X416250Y530306D01*
X416183Y530252D01*
X416113Y530201D01*
X416042Y530153D01*
X415968Y530109D01*
X415892Y530067D01*
X415815Y530029D01*
X415736Y529994D01*
X415656Y529963D01*
X415574Y529935D01*
X415491Y529911D01*
X415408Y529891D01*
X415323Y529874D01*
X415238Y529861D01*
X415152Y529852D01*
X415066Y529846D01*
X414980Y529844D01*
X413004Y529844D01*
X422264Y536956D02*
X422346Y536954D01*
X422428Y536948D01*
X422510Y536939D01*
X422591Y536926D01*
X422671Y536909D01*
X422751Y536888D01*
X422829Y536864D01*
X422906Y536836D01*
X422982Y536805D01*
X423057Y536770D01*
X423129Y536731D01*
X423200Y536690D01*
X423269Y536645D01*
X423335Y536597D01*
X423400Y536546D01*
X423462Y536492D01*
X423521Y536435D01*
X423578Y536376D01*
X423632Y536314D01*
X423683Y536249D01*
X423731Y536183D01*
X423776Y536114D01*
X423817Y536043D01*
X423856Y535971D01*
X423891Y535896D01*
X423922Y535820D01*
X423950Y535743D01*
X423974Y535665D01*
X423995Y535585D01*
X424012Y535505D01*
X424025Y535424D01*
X424034Y535342D01*
X424040Y535260D01*
X424042Y535178D01*
X422264Y536956D02*
X422171Y536954D01*
X422079Y536948D01*
X421987Y536939D01*
X421895Y536926D01*
X421804Y536909D01*
X421714Y536889D01*
X421624Y536865D01*
X421536Y536837D01*
X421448Y536805D01*
X421363Y536771D01*
X421278Y536732D01*
X421196Y536691D01*
X421115Y536646D01*
X421035Y536597D01*
X420958Y536546D01*
X420883Y536492D01*
X420811Y536434D01*
X420741Y536374D01*
X420673Y536310D01*
X420608Y536245D01*
X420545Y536176D01*
X420486Y536105D01*
X420429Y536032D01*
X420375Y535956D01*
X420325Y535879D01*
X420277Y535799D01*
X420233Y535718D01*
X420193Y535634D01*
X420155Y535550D01*
X420121Y535463D01*
X420091Y535376D01*
X423449Y533795D02*
X423510Y533856D01*
X423568Y533919D01*
X423623Y533985D01*
X423676Y534053D01*
X423725Y534124D01*
X423770Y534196D01*
X423813Y534271D01*
X423852Y534347D01*
X423888Y534426D01*
X423920Y534505D01*
X423948Y534586D01*
X423973Y534669D01*
X423994Y534752D01*
X424011Y534836D01*
X424025Y534921D01*
X424034Y535006D01*
X424040Y535092D01*
X424042Y535178D01*
X423449Y533795D02*
X420091Y529844D01*
X424042Y529844D01*
X413004Y511556D02*
X413004Y504444D01*
X413004Y511556D02*
X414980Y511556D01*
X415066Y511554D01*
X415152Y511548D01*
X415238Y511539D01*
X415323Y511526D01*
X415408Y511509D01*
X415491Y511489D01*
X415574Y511465D01*
X415656Y511437D01*
X415736Y511406D01*
X415815Y511371D01*
X415892Y511333D01*
X415968Y511291D01*
X416042Y511247D01*
X416113Y511199D01*
X416183Y511148D01*
X416250Y511094D01*
X416315Y511037D01*
X416377Y510977D01*
X416437Y510915D01*
X416494Y510850D01*
X416548Y510783D01*
X416599Y510713D01*
X416647Y510642D01*
X416691Y510568D01*
X416733Y510492D01*
X416771Y510415D01*
X416806Y510336D01*
X416837Y510256D01*
X416865Y510174D01*
X416889Y510091D01*
X416909Y510008D01*
X416926Y509923D01*
X416939Y509838D01*
X416948Y509752D01*
X416954Y509666D01*
X416956Y509580D01*
X416955Y509580D02*
X416955Y506420D01*
X416956Y506420D02*
X416954Y506334D01*
X416948Y506248D01*
X416939Y506162D01*
X416926Y506077D01*
X416909Y505992D01*
X416889Y505909D01*
X416865Y505826D01*
X416837Y505744D01*
X416806Y505664D01*
X416771Y505585D01*
X416733Y505508D01*
X416691Y505432D01*
X416647Y505358D01*
X416599Y505287D01*
X416548Y505217D01*
X416494Y505150D01*
X416437Y505085D01*
X416377Y505023D01*
X416315Y504963D01*
X416250Y504906D01*
X416183Y504852D01*
X416113Y504801D01*
X416042Y504753D01*
X415968Y504709D01*
X415892Y504667D01*
X415815Y504629D01*
X415736Y504594D01*
X415656Y504563D01*
X415574Y504535D01*
X415491Y504511D01*
X415408Y504491D01*
X415323Y504474D01*
X415238Y504461D01*
X415152Y504452D01*
X415066Y504446D01*
X414980Y504444D01*
X413004Y504444D01*
X420091Y509976D02*
X422066Y511556D01*
X422066Y504444D01*
X420091Y504444D02*
X424042Y504444D01*
X413004Y486156D02*
X413004Y479044D01*
X413004Y486156D02*
X414980Y486156D01*
X415067Y486154D01*
X415155Y486148D01*
X415242Y486139D01*
X415328Y486125D01*
X415414Y486108D01*
X415498Y486087D01*
X415582Y486062D01*
X415665Y486033D01*
X415746Y486001D01*
X415826Y485966D01*
X415904Y485927D01*
X415981Y485884D01*
X416055Y485838D01*
X416127Y485789D01*
X416197Y485737D01*
X416265Y485681D01*
X416330Y485623D01*
X416393Y485562D01*
X416452Y485498D01*
X416509Y485431D01*
X416563Y485363D01*
X416614Y485291D01*
X416661Y485218D01*
X416706Y485143D01*
X416747Y485065D01*
X416784Y484986D01*
X416818Y484906D01*
X416848Y484824D01*
X416875Y484741D01*
X416898Y484656D01*
X416917Y484571D01*
X416932Y484485D01*
X416944Y484398D01*
X416952Y484311D01*
X416956Y484224D01*
X416956Y484136D01*
X416952Y484049D01*
X416944Y483962D01*
X416932Y483875D01*
X416917Y483789D01*
X416898Y483704D01*
X416875Y483619D01*
X416848Y483536D01*
X416818Y483454D01*
X416784Y483374D01*
X416747Y483295D01*
X416706Y483217D01*
X416661Y483142D01*
X416614Y483069D01*
X416563Y482997D01*
X416509Y482929D01*
X416452Y482862D01*
X416393Y482798D01*
X416330Y482737D01*
X416265Y482679D01*
X416197Y482623D01*
X416127Y482571D01*
X416055Y482522D01*
X415981Y482476D01*
X415904Y482433D01*
X415826Y482394D01*
X415746Y482359D01*
X415665Y482327D01*
X415582Y482298D01*
X415498Y482273D01*
X415414Y482252D01*
X415328Y482235D01*
X415242Y482221D01*
X415155Y482212D01*
X415067Y482206D01*
X414980Y482204D01*
X414980Y482205D02*
X413004Y482205D01*
X415375Y482205D02*
X416955Y479044D01*
X419426Y479044D02*
X424168Y486156D01*
X419426Y486156D02*
X424168Y479044D01*
X414980Y460756D02*
X414980Y453644D01*
X413004Y460756D02*
X416955Y460756D01*
X423751Y460756D02*
X419010Y453644D01*
X423751Y453644D02*
X419010Y460756D01*
D17*
X476250Y723900D02*
X552450Y723900D01*
X476250Y723900D02*
X476250Y673100D01*
X552450Y673100D01*
X552450Y723900D01*
D10*
X476372Y423672D02*
X471969Y410464D01*
X480775Y410464D02*
X476372Y423672D01*
X479674Y413766D02*
X473070Y413766D01*
X485931Y410464D02*
X485931Y423672D01*
X493269Y410464D01*
X493269Y423672D01*
X501975Y423672D02*
X501975Y410464D01*
X498306Y423672D02*
X505644Y423672D01*
X510705Y410464D02*
X516575Y410464D01*
X510705Y410464D02*
X510705Y423672D01*
X516575Y423672D01*
X515108Y417802D02*
X510705Y417802D01*
X521776Y423672D02*
X521776Y410464D01*
X529114Y410464D02*
X521776Y423672D01*
X529114Y423672D02*
X529114Y410464D01*
X535431Y410464D02*
X535431Y423672D01*
X542769Y410464D01*
X542769Y423672D01*
X552328Y423672D02*
X547925Y410464D01*
X556731Y410464D02*
X552328Y423672D01*
X555630Y413766D02*
X549026Y413766D01*
X460592Y402336D02*
X460592Y389128D01*
X460592Y394264D02*
X467930Y402336D01*
X463527Y397200D02*
X467930Y389128D01*
X473238Y389128D02*
X479109Y389128D01*
X473238Y389128D02*
X473238Y402336D01*
X479109Y402336D01*
X477641Y396466D02*
X473238Y396466D01*
X484333Y389128D02*
X490203Y389128D01*
X484333Y389128D02*
X484333Y402336D01*
X490203Y402336D01*
X488736Y396466D02*
X484333Y396466D01*
X495583Y402336D02*
X495583Y389128D01*
X495583Y402336D02*
X499252Y402336D01*
X499372Y402334D01*
X499492Y402328D01*
X499612Y402318D01*
X499731Y402305D01*
X499850Y402287D01*
X499968Y402266D01*
X500085Y402240D01*
X500202Y402211D01*
X500317Y402178D01*
X500431Y402141D01*
X500544Y402101D01*
X500656Y402057D01*
X500766Y402009D01*
X500875Y401958D01*
X500982Y401903D01*
X501086Y401844D01*
X501189Y401783D01*
X501290Y401718D01*
X501389Y401649D01*
X501486Y401578D01*
X501580Y401503D01*
X501671Y401426D01*
X501760Y401345D01*
X501846Y401261D01*
X501930Y401175D01*
X502011Y401086D01*
X502088Y400995D01*
X502163Y400901D01*
X502234Y400804D01*
X502303Y400705D01*
X502368Y400604D01*
X502429Y400502D01*
X502488Y400397D01*
X502543Y400290D01*
X502594Y400181D01*
X502642Y400071D01*
X502686Y399959D01*
X502726Y399846D01*
X502763Y399732D01*
X502796Y399617D01*
X502825Y399500D01*
X502851Y399383D01*
X502872Y399265D01*
X502890Y399146D01*
X502903Y399027D01*
X502913Y398907D01*
X502919Y398787D01*
X502921Y398667D01*
X502919Y398547D01*
X502913Y398427D01*
X502903Y398307D01*
X502890Y398188D01*
X502872Y398069D01*
X502851Y397951D01*
X502825Y397834D01*
X502796Y397717D01*
X502763Y397602D01*
X502726Y397488D01*
X502686Y397375D01*
X502642Y397263D01*
X502594Y397153D01*
X502543Y397044D01*
X502488Y396937D01*
X502429Y396833D01*
X502368Y396730D01*
X502303Y396629D01*
X502234Y396530D01*
X502163Y396433D01*
X502088Y396339D01*
X502011Y396248D01*
X501930Y396159D01*
X501846Y396073D01*
X501760Y395989D01*
X501671Y395908D01*
X501580Y395831D01*
X501486Y395756D01*
X501389Y395685D01*
X501290Y395616D01*
X501189Y395551D01*
X501087Y395490D01*
X500982Y395431D01*
X500875Y395376D01*
X500766Y395325D01*
X500656Y395277D01*
X500544Y395233D01*
X500431Y395193D01*
X500317Y395156D01*
X500202Y395123D01*
X500085Y395094D01*
X499968Y395068D01*
X499850Y395047D01*
X499731Y395029D01*
X499612Y395016D01*
X499492Y395006D01*
X499372Y395000D01*
X499252Y394998D01*
X495583Y394998D01*
X517506Y389128D02*
X520441Y389128D01*
X517506Y389128D02*
X517399Y389130D01*
X517292Y389136D01*
X517185Y389146D01*
X517079Y389159D01*
X516973Y389177D01*
X516868Y389198D01*
X516764Y389223D01*
X516660Y389252D01*
X516558Y389285D01*
X516458Y389322D01*
X516358Y389362D01*
X516260Y389406D01*
X516164Y389453D01*
X516070Y389504D01*
X515977Y389558D01*
X515887Y389615D01*
X515798Y389676D01*
X515712Y389740D01*
X515629Y389807D01*
X515547Y389877D01*
X515469Y389950D01*
X515393Y390026D01*
X515320Y390104D01*
X515250Y390186D01*
X515183Y390269D01*
X515119Y390355D01*
X515058Y390444D01*
X515001Y390534D01*
X514947Y390627D01*
X514896Y390721D01*
X514849Y390817D01*
X514805Y390915D01*
X514765Y391015D01*
X514728Y391115D01*
X514695Y391217D01*
X514666Y391321D01*
X514641Y391425D01*
X514620Y391530D01*
X514602Y391636D01*
X514589Y391742D01*
X514579Y391849D01*
X514573Y391956D01*
X514571Y392063D01*
X514571Y399401D01*
X514573Y399508D01*
X514579Y399615D01*
X514589Y399722D01*
X514602Y399828D01*
X514620Y399934D01*
X514641Y400039D01*
X514666Y400143D01*
X514695Y400247D01*
X514728Y400349D01*
X514765Y400449D01*
X514805Y400549D01*
X514849Y400647D01*
X514896Y400743D01*
X514947Y400837D01*
X515001Y400930D01*
X515058Y401020D01*
X515119Y401109D01*
X515183Y401195D01*
X515250Y401278D01*
X515320Y401360D01*
X515393Y401438D01*
X515469Y401514D01*
X515547Y401587D01*
X515629Y401657D01*
X515712Y401724D01*
X515798Y401788D01*
X515887Y401849D01*
X515977Y401906D01*
X516070Y401960D01*
X516164Y402011D01*
X516260Y402058D01*
X516358Y402102D01*
X516458Y402142D01*
X516558Y402179D01*
X516660Y402212D01*
X516764Y402241D01*
X516868Y402266D01*
X516973Y402287D01*
X517079Y402305D01*
X517185Y402318D01*
X517292Y402328D01*
X517399Y402334D01*
X517506Y402336D01*
X520441Y402336D01*
X525725Y402336D02*
X525725Y389128D01*
X531595Y389128D01*
X536820Y389128D02*
X542690Y389128D01*
X536820Y389128D02*
X536820Y402336D01*
X542690Y402336D01*
X541222Y396466D02*
X536820Y396466D01*
X546730Y389128D02*
X551132Y402336D01*
X555535Y389128D01*
X554434Y392430D02*
X547830Y392430D01*
X560770Y389128D02*
X560770Y402336D01*
X564439Y402336D01*
X564559Y402334D01*
X564679Y402328D01*
X564799Y402318D01*
X564918Y402305D01*
X565037Y402287D01*
X565155Y402266D01*
X565272Y402240D01*
X565389Y402211D01*
X565504Y402178D01*
X565618Y402141D01*
X565731Y402101D01*
X565843Y402057D01*
X565953Y402009D01*
X566062Y401958D01*
X566169Y401903D01*
X566274Y401844D01*
X566376Y401783D01*
X566477Y401718D01*
X566576Y401649D01*
X566673Y401578D01*
X566767Y401503D01*
X566858Y401426D01*
X566947Y401345D01*
X567033Y401261D01*
X567117Y401175D01*
X567198Y401086D01*
X567275Y400995D01*
X567350Y400901D01*
X567421Y400804D01*
X567490Y400705D01*
X567555Y400604D01*
X567616Y400502D01*
X567675Y400397D01*
X567730Y400290D01*
X567781Y400181D01*
X567829Y400071D01*
X567873Y399959D01*
X567913Y399846D01*
X567950Y399732D01*
X567983Y399617D01*
X568012Y399500D01*
X568038Y399383D01*
X568059Y399265D01*
X568077Y399146D01*
X568090Y399027D01*
X568100Y398907D01*
X568106Y398787D01*
X568108Y398667D01*
X568106Y398547D01*
X568100Y398427D01*
X568090Y398307D01*
X568077Y398188D01*
X568059Y398069D01*
X568038Y397951D01*
X568012Y397834D01*
X567983Y397717D01*
X567950Y397602D01*
X567913Y397488D01*
X567873Y397375D01*
X567829Y397263D01*
X567781Y397153D01*
X567730Y397044D01*
X567675Y396937D01*
X567616Y396833D01*
X567555Y396730D01*
X567490Y396629D01*
X567421Y396530D01*
X567350Y396433D01*
X567275Y396339D01*
X567198Y396248D01*
X567117Y396159D01*
X567033Y396073D01*
X566947Y395989D01*
X566858Y395908D01*
X566767Y395831D01*
X566673Y395756D01*
X566576Y395685D01*
X566477Y395616D01*
X566376Y395551D01*
X566274Y395490D01*
X566169Y395431D01*
X566062Y395376D01*
X565953Y395325D01*
X565843Y395277D01*
X565731Y395233D01*
X565618Y395193D01*
X565504Y395156D01*
X565389Y395123D01*
X565272Y395094D01*
X565155Y395068D01*
X565037Y395047D01*
X564918Y395029D01*
X564799Y395016D01*
X564679Y395006D01*
X564559Y395000D01*
X564439Y394998D01*
X560770Y394998D01*
X565173Y394998D02*
X568108Y389128D01*
D14*
X502530Y704032D02*
X502530Y710819D01*
X502529Y704032D02*
X502531Y703931D01*
X502537Y703830D01*
X502547Y703729D01*
X502560Y703629D01*
X502578Y703529D01*
X502599Y703430D01*
X502625Y703332D01*
X502654Y703235D01*
X502686Y703139D01*
X502723Y703045D01*
X502763Y702952D01*
X502807Y702860D01*
X502854Y702771D01*
X502905Y702683D01*
X502959Y702597D01*
X503016Y702514D01*
X503076Y702432D01*
X503140Y702354D01*
X503206Y702277D01*
X503276Y702204D01*
X503348Y702133D01*
X503423Y702065D01*
X503501Y702000D01*
X503581Y701938D01*
X503663Y701879D01*
X503748Y701823D01*
X503835Y701771D01*
X503923Y701722D01*
X504014Y701676D01*
X504106Y701635D01*
X504200Y701596D01*
X504295Y701562D01*
X504391Y701531D01*
X504489Y701504D01*
X504587Y701480D01*
X504687Y701461D01*
X504787Y701445D01*
X504887Y701433D01*
X504988Y701425D01*
X505089Y701421D01*
X505191Y701421D01*
X505292Y701425D01*
X505393Y701433D01*
X505493Y701445D01*
X505593Y701461D01*
X505693Y701480D01*
X505791Y701504D01*
X505889Y701531D01*
X505985Y701562D01*
X506080Y701596D01*
X506174Y701635D01*
X506266Y701676D01*
X506357Y701722D01*
X506445Y701771D01*
X506532Y701823D01*
X506617Y701879D01*
X506699Y701938D01*
X506779Y702000D01*
X506857Y702065D01*
X506932Y702133D01*
X507004Y702204D01*
X507074Y702277D01*
X507140Y702354D01*
X507204Y702432D01*
X507264Y702514D01*
X507321Y702597D01*
X507375Y702683D01*
X507426Y702771D01*
X507473Y702860D01*
X507517Y702952D01*
X507557Y703045D01*
X507594Y703139D01*
X507626Y703235D01*
X507655Y703332D01*
X507681Y703430D01*
X507702Y703529D01*
X507720Y703629D01*
X507733Y703729D01*
X507743Y703830D01*
X507749Y703931D01*
X507751Y704032D01*
X507751Y710819D01*
X516895Y703509D02*
X516893Y703420D01*
X516887Y703332D01*
X516878Y703244D01*
X516865Y703156D01*
X516848Y703069D01*
X516828Y702983D01*
X516803Y702898D01*
X516776Y702813D01*
X516744Y702730D01*
X516710Y702649D01*
X516671Y702569D01*
X516630Y702491D01*
X516585Y702414D01*
X516537Y702340D01*
X516486Y702267D01*
X516432Y702197D01*
X516374Y702130D01*
X516314Y702064D01*
X516252Y702002D01*
X516186Y701942D01*
X516119Y701884D01*
X516049Y701830D01*
X515976Y701779D01*
X515902Y701731D01*
X515825Y701686D01*
X515747Y701645D01*
X515667Y701606D01*
X515586Y701572D01*
X515503Y701540D01*
X515418Y701513D01*
X515333Y701488D01*
X515247Y701468D01*
X515160Y701451D01*
X515072Y701438D01*
X514984Y701429D01*
X514896Y701423D01*
X514807Y701421D01*
X514678Y701423D01*
X514549Y701429D01*
X514420Y701438D01*
X514292Y701451D01*
X514164Y701468D01*
X514037Y701489D01*
X513910Y701513D01*
X513784Y701541D01*
X513659Y701573D01*
X513535Y701608D01*
X513412Y701647D01*
X513290Y701690D01*
X513170Y701736D01*
X513051Y701786D01*
X512933Y701839D01*
X512817Y701895D01*
X512703Y701955D01*
X512590Y702018D01*
X512480Y702085D01*
X512371Y702154D01*
X512265Y702227D01*
X512160Y702303D01*
X512058Y702382D01*
X511959Y702464D01*
X511861Y702548D01*
X511766Y702636D01*
X511674Y702726D01*
X511935Y708731D02*
X511937Y708820D01*
X511943Y708908D01*
X511952Y708996D01*
X511965Y709084D01*
X511982Y709171D01*
X512002Y709257D01*
X512027Y709342D01*
X512054Y709427D01*
X512086Y709510D01*
X512120Y709591D01*
X512159Y709671D01*
X512200Y709749D01*
X512245Y709826D01*
X512293Y709900D01*
X512344Y709973D01*
X512398Y710043D01*
X512456Y710110D01*
X512516Y710176D01*
X512578Y710238D01*
X512644Y710298D01*
X512711Y710356D01*
X512781Y710410D01*
X512854Y710461D01*
X512928Y710509D01*
X513005Y710554D01*
X513083Y710595D01*
X513163Y710634D01*
X513244Y710668D01*
X513327Y710700D01*
X513412Y710727D01*
X513497Y710752D01*
X513583Y710772D01*
X513670Y710789D01*
X513758Y710802D01*
X513846Y710811D01*
X513934Y710817D01*
X514023Y710819D01*
X514143Y710817D01*
X514263Y710812D01*
X514383Y710802D01*
X514502Y710790D01*
X514621Y710773D01*
X514739Y710753D01*
X514857Y710729D01*
X514973Y710702D01*
X515089Y710671D01*
X515204Y710637D01*
X515318Y710599D01*
X515431Y710557D01*
X515542Y710512D01*
X515652Y710464D01*
X515760Y710413D01*
X515867Y710358D01*
X515972Y710300D01*
X516075Y710238D01*
X516176Y710174D01*
X516276Y710106D01*
X516373Y710036D01*
X512979Y706904D02*
X512901Y706952D01*
X512825Y707004D01*
X512752Y707058D01*
X512681Y707116D01*
X512612Y707177D01*
X512546Y707241D01*
X512483Y707308D01*
X512423Y707377D01*
X512366Y707449D01*
X512312Y707523D01*
X512262Y707600D01*
X512214Y707679D01*
X512171Y707759D01*
X512130Y707842D01*
X512094Y707926D01*
X512061Y708011D01*
X512032Y708098D01*
X512006Y708187D01*
X511984Y708276D01*
X511967Y708366D01*
X511953Y708456D01*
X511943Y708548D01*
X511937Y708639D01*
X511935Y708731D01*
X515851Y705336D02*
X515929Y705288D01*
X516005Y705236D01*
X516078Y705182D01*
X516149Y705124D01*
X516218Y705063D01*
X516284Y704999D01*
X516347Y704932D01*
X516407Y704863D01*
X516464Y704791D01*
X516518Y704717D01*
X516568Y704640D01*
X516616Y704561D01*
X516659Y704481D01*
X516700Y704398D01*
X516736Y704314D01*
X516769Y704229D01*
X516798Y704142D01*
X516824Y704053D01*
X516846Y703964D01*
X516863Y703874D01*
X516877Y703784D01*
X516887Y703692D01*
X516893Y703601D01*
X516895Y703509D01*
X515851Y705337D02*
X512979Y706903D01*
X520949Y706642D02*
X523560Y706642D01*
X523560Y706643D02*
X523661Y706641D01*
X523762Y706635D01*
X523863Y706625D01*
X523963Y706612D01*
X524063Y706594D01*
X524162Y706573D01*
X524260Y706547D01*
X524357Y706518D01*
X524453Y706486D01*
X524547Y706449D01*
X524640Y706409D01*
X524732Y706365D01*
X524821Y706318D01*
X524909Y706267D01*
X524995Y706213D01*
X525078Y706156D01*
X525160Y706096D01*
X525238Y706032D01*
X525315Y705966D01*
X525388Y705896D01*
X525459Y705824D01*
X525527Y705749D01*
X525592Y705671D01*
X525654Y705591D01*
X525713Y705509D01*
X525769Y705424D01*
X525821Y705338D01*
X525870Y705249D01*
X525916Y705158D01*
X525957Y705066D01*
X525996Y704972D01*
X526030Y704877D01*
X526061Y704781D01*
X526088Y704683D01*
X526112Y704585D01*
X526131Y704485D01*
X526147Y704385D01*
X526159Y704285D01*
X526167Y704184D01*
X526171Y704083D01*
X526171Y703981D01*
X526167Y703880D01*
X526159Y703779D01*
X526147Y703679D01*
X526131Y703579D01*
X526112Y703479D01*
X526088Y703381D01*
X526061Y703283D01*
X526030Y703187D01*
X525996Y703092D01*
X525957Y702998D01*
X525916Y702906D01*
X525870Y702815D01*
X525821Y702727D01*
X525769Y702640D01*
X525713Y702555D01*
X525654Y702473D01*
X525592Y702393D01*
X525527Y702315D01*
X525459Y702240D01*
X525388Y702168D01*
X525315Y702098D01*
X525238Y702032D01*
X525160Y701968D01*
X525078Y701908D01*
X524995Y701851D01*
X524909Y701797D01*
X524821Y701746D01*
X524732Y701699D01*
X524640Y701655D01*
X524547Y701615D01*
X524453Y701578D01*
X524357Y701546D01*
X524260Y701517D01*
X524162Y701491D01*
X524063Y701470D01*
X523963Y701452D01*
X523863Y701439D01*
X523762Y701429D01*
X523661Y701423D01*
X523560Y701421D01*
X520949Y701421D01*
X520949Y710819D01*
X523560Y710819D01*
X523650Y710817D01*
X523739Y710811D01*
X523829Y710802D01*
X523918Y710788D01*
X524006Y710771D01*
X524093Y710750D01*
X524180Y710725D01*
X524265Y710696D01*
X524349Y710664D01*
X524431Y710629D01*
X524512Y710589D01*
X524591Y710547D01*
X524668Y710501D01*
X524743Y710451D01*
X524816Y710399D01*
X524887Y710343D01*
X524955Y710285D01*
X525020Y710223D01*
X525083Y710159D01*
X525143Y710092D01*
X525200Y710023D01*
X525254Y709951D01*
X525305Y709877D01*
X525353Y709801D01*
X525397Y709723D01*
X525438Y709643D01*
X525476Y709561D01*
X525510Y709478D01*
X525540Y709393D01*
X525567Y709307D01*
X525590Y709221D01*
X525609Y709133D01*
X525624Y709044D01*
X525636Y708955D01*
X525644Y708866D01*
X525648Y708776D01*
X525648Y708686D01*
X525644Y708596D01*
X525636Y708507D01*
X525624Y708418D01*
X525609Y708329D01*
X525590Y708241D01*
X525567Y708155D01*
X525540Y708069D01*
X525510Y707984D01*
X525476Y707901D01*
X525438Y707819D01*
X525397Y707739D01*
X525353Y707661D01*
X525305Y707585D01*
X525254Y707511D01*
X525200Y707439D01*
X525143Y707370D01*
X525083Y707303D01*
X525020Y707239D01*
X524955Y707177D01*
X524887Y707119D01*
X524816Y707063D01*
X524743Y707011D01*
X524668Y706961D01*
X524591Y706915D01*
X524512Y706873D01*
X524431Y706833D01*
X524349Y706798D01*
X524265Y706766D01*
X524180Y706737D01*
X524093Y706712D01*
X524006Y706691D01*
X523918Y706674D01*
X523829Y706660D01*
X523739Y706651D01*
X523650Y706645D01*
X523560Y706643D01*
X495172Y695579D02*
X495172Y686181D01*
X498304Y690358D02*
X495172Y695579D01*
X498304Y690358D02*
X501437Y695579D01*
X501437Y686181D01*
X506534Y686181D02*
X506534Y695579D01*
X505490Y686181D02*
X507578Y686181D01*
X507578Y695579D02*
X505490Y695579D01*
X513301Y686181D02*
X515390Y686181D01*
X513301Y686181D02*
X513212Y686183D01*
X513124Y686189D01*
X513036Y686198D01*
X512948Y686211D01*
X512861Y686228D01*
X512775Y686248D01*
X512690Y686273D01*
X512605Y686300D01*
X512522Y686332D01*
X512441Y686366D01*
X512361Y686405D01*
X512283Y686446D01*
X512206Y686491D01*
X512132Y686539D01*
X512059Y686590D01*
X511989Y686644D01*
X511922Y686702D01*
X511856Y686762D01*
X511794Y686824D01*
X511734Y686890D01*
X511676Y686957D01*
X511622Y687027D01*
X511571Y687100D01*
X511523Y687174D01*
X511478Y687251D01*
X511437Y687329D01*
X511398Y687409D01*
X511364Y687490D01*
X511332Y687573D01*
X511305Y687658D01*
X511280Y687743D01*
X511260Y687829D01*
X511243Y687916D01*
X511230Y688004D01*
X511221Y688092D01*
X511215Y688180D01*
X511213Y688269D01*
X511213Y693491D01*
X511215Y693582D01*
X511221Y693673D01*
X511231Y693764D01*
X511245Y693854D01*
X511262Y693943D01*
X511284Y694031D01*
X511310Y694119D01*
X511339Y694205D01*
X511372Y694290D01*
X511409Y694373D01*
X511449Y694455D01*
X511493Y694535D01*
X511540Y694613D01*
X511591Y694689D01*
X511644Y694762D01*
X511701Y694833D01*
X511762Y694902D01*
X511825Y694967D01*
X511890Y695030D01*
X511959Y695090D01*
X512030Y695148D01*
X512103Y695201D01*
X512179Y695252D01*
X512257Y695299D01*
X512337Y695343D01*
X512419Y695383D01*
X512502Y695420D01*
X512587Y695453D01*
X512673Y695482D01*
X512761Y695508D01*
X512849Y695530D01*
X512938Y695547D01*
X513028Y695561D01*
X513119Y695571D01*
X513210Y695577D01*
X513301Y695579D01*
X515390Y695579D01*
X519220Y695579D02*
X519220Y686181D01*
X519220Y695579D02*
X521831Y695579D01*
X521932Y695577D01*
X522033Y695571D01*
X522134Y695561D01*
X522234Y695548D01*
X522334Y695530D01*
X522433Y695509D01*
X522531Y695483D01*
X522628Y695454D01*
X522724Y695422D01*
X522818Y695385D01*
X522911Y695345D01*
X523003Y695301D01*
X523092Y695254D01*
X523180Y695203D01*
X523266Y695149D01*
X523349Y695092D01*
X523431Y695032D01*
X523509Y694968D01*
X523586Y694902D01*
X523659Y694832D01*
X523730Y694760D01*
X523798Y694685D01*
X523863Y694607D01*
X523925Y694527D01*
X523984Y694445D01*
X524040Y694360D01*
X524092Y694274D01*
X524141Y694185D01*
X524187Y694094D01*
X524228Y694002D01*
X524267Y693908D01*
X524301Y693813D01*
X524332Y693717D01*
X524359Y693619D01*
X524383Y693521D01*
X524402Y693421D01*
X524418Y693321D01*
X524430Y693221D01*
X524438Y693120D01*
X524442Y693019D01*
X524442Y692917D01*
X524438Y692816D01*
X524430Y692715D01*
X524418Y692615D01*
X524402Y692515D01*
X524383Y692415D01*
X524359Y692317D01*
X524332Y692219D01*
X524301Y692123D01*
X524267Y692028D01*
X524228Y691934D01*
X524187Y691842D01*
X524141Y691751D01*
X524092Y691663D01*
X524040Y691576D01*
X523984Y691491D01*
X523925Y691409D01*
X523863Y691329D01*
X523798Y691251D01*
X523730Y691176D01*
X523659Y691104D01*
X523586Y691034D01*
X523509Y690968D01*
X523431Y690904D01*
X523349Y690844D01*
X523266Y690787D01*
X523180Y690733D01*
X523092Y690682D01*
X523003Y690635D01*
X522911Y690591D01*
X522818Y690551D01*
X522724Y690514D01*
X522628Y690482D01*
X522531Y690453D01*
X522433Y690427D01*
X522334Y690406D01*
X522234Y690388D01*
X522134Y690375D01*
X522033Y690365D01*
X521932Y690359D01*
X521831Y690357D01*
X521831Y690358D02*
X519220Y690358D01*
X522353Y690358D02*
X524441Y686181D01*
X528307Y688792D02*
X528307Y692968D01*
X528309Y693069D01*
X528315Y693170D01*
X528325Y693271D01*
X528338Y693371D01*
X528356Y693471D01*
X528377Y693570D01*
X528403Y693668D01*
X528432Y693765D01*
X528464Y693861D01*
X528501Y693955D01*
X528541Y694048D01*
X528585Y694140D01*
X528632Y694229D01*
X528683Y694317D01*
X528737Y694403D01*
X528794Y694486D01*
X528854Y694568D01*
X528918Y694646D01*
X528984Y694723D01*
X529054Y694796D01*
X529126Y694867D01*
X529201Y694935D01*
X529279Y695000D01*
X529359Y695062D01*
X529441Y695121D01*
X529526Y695177D01*
X529613Y695229D01*
X529701Y695278D01*
X529792Y695324D01*
X529884Y695365D01*
X529978Y695404D01*
X530073Y695438D01*
X530169Y695469D01*
X530267Y695496D01*
X530365Y695520D01*
X530465Y695539D01*
X530565Y695555D01*
X530665Y695567D01*
X530766Y695575D01*
X530867Y695579D01*
X530969Y695579D01*
X531070Y695575D01*
X531171Y695567D01*
X531271Y695555D01*
X531371Y695539D01*
X531471Y695520D01*
X531569Y695496D01*
X531667Y695469D01*
X531763Y695438D01*
X531858Y695404D01*
X531952Y695365D01*
X532044Y695324D01*
X532135Y695278D01*
X532224Y695229D01*
X532310Y695177D01*
X532395Y695121D01*
X532477Y695062D01*
X532557Y695000D01*
X532635Y694935D01*
X532710Y694867D01*
X532782Y694796D01*
X532852Y694723D01*
X532918Y694646D01*
X532982Y694568D01*
X533042Y694486D01*
X533099Y694403D01*
X533153Y694317D01*
X533204Y694229D01*
X533251Y694140D01*
X533295Y694048D01*
X533335Y693955D01*
X533372Y693861D01*
X533404Y693765D01*
X533433Y693668D01*
X533459Y693570D01*
X533480Y693471D01*
X533498Y693371D01*
X533511Y693271D01*
X533521Y693170D01*
X533527Y693069D01*
X533529Y692968D01*
X533528Y692968D02*
X533528Y688792D01*
X533529Y688792D02*
X533527Y688691D01*
X533521Y688590D01*
X533511Y688489D01*
X533498Y688389D01*
X533480Y688289D01*
X533459Y688190D01*
X533433Y688092D01*
X533404Y687995D01*
X533372Y687899D01*
X533335Y687805D01*
X533295Y687712D01*
X533251Y687620D01*
X533204Y687531D01*
X533153Y687443D01*
X533099Y687357D01*
X533042Y687274D01*
X532982Y687192D01*
X532918Y687114D01*
X532852Y687037D01*
X532782Y686964D01*
X532710Y686893D01*
X532635Y686825D01*
X532557Y686760D01*
X532477Y686698D01*
X532395Y686639D01*
X532310Y686583D01*
X532224Y686531D01*
X532135Y686482D01*
X532044Y686436D01*
X531952Y686395D01*
X531858Y686356D01*
X531763Y686322D01*
X531667Y686291D01*
X531569Y686264D01*
X531471Y686240D01*
X531371Y686221D01*
X531271Y686205D01*
X531171Y686193D01*
X531070Y686185D01*
X530969Y686181D01*
X530867Y686181D01*
X530766Y686185D01*
X530665Y686193D01*
X530565Y686205D01*
X530465Y686221D01*
X530365Y686240D01*
X530267Y686264D01*
X530169Y686291D01*
X530073Y686322D01*
X529978Y686356D01*
X529884Y686395D01*
X529792Y686436D01*
X529701Y686482D01*
X529613Y686531D01*
X529526Y686583D01*
X529441Y686639D01*
X529359Y686698D01*
X529279Y686760D01*
X529201Y686825D01*
X529126Y686893D01*
X529054Y686964D01*
X528984Y687037D01*
X528918Y687114D01*
X528854Y687192D01*
X528794Y687274D01*
X528737Y687357D01*
X528683Y687443D01*
X528632Y687531D01*
X528585Y687620D01*
X528541Y687712D01*
X528501Y687805D01*
X528464Y687899D01*
X528432Y687995D01*
X528403Y688092D01*
X528377Y688190D01*
X528356Y688289D01*
X528338Y688389D01*
X528325Y688489D01*
X528315Y688590D01*
X528309Y688691D01*
X528307Y688792D01*
D17*
X590550Y660400D02*
X628650Y660400D01*
X628650Y711200D01*
X590550Y711200D01*
X590550Y660400D01*
D16*
X597709Y687642D02*
X597709Y693484D01*
X599331Y693484D01*
X599411Y693482D01*
X599490Y693476D01*
X599569Y693466D01*
X599648Y693453D01*
X599725Y693435D01*
X599802Y693414D01*
X599878Y693389D01*
X599952Y693360D01*
X600025Y693328D01*
X600096Y693292D01*
X600165Y693253D01*
X600233Y693210D01*
X600298Y693165D01*
X600361Y693116D01*
X600421Y693064D01*
X600479Y693009D01*
X600534Y692951D01*
X600586Y692891D01*
X600635Y692828D01*
X600680Y692763D01*
X600723Y692695D01*
X600762Y692626D01*
X600798Y692555D01*
X600830Y692482D01*
X600859Y692408D01*
X600884Y692332D01*
X600905Y692255D01*
X600923Y692178D01*
X600936Y692099D01*
X600946Y692020D01*
X600952Y691941D01*
X600954Y691861D01*
X600952Y691781D01*
X600946Y691702D01*
X600936Y691623D01*
X600923Y691544D01*
X600905Y691467D01*
X600884Y691390D01*
X600859Y691314D01*
X600830Y691240D01*
X600798Y691167D01*
X600762Y691096D01*
X600723Y691027D01*
X600680Y690959D01*
X600635Y690894D01*
X600586Y690831D01*
X600534Y690771D01*
X600479Y690713D01*
X600421Y690658D01*
X600361Y690606D01*
X600298Y690557D01*
X600233Y690512D01*
X600165Y690469D01*
X600096Y690430D01*
X600025Y690394D01*
X599952Y690362D01*
X599878Y690333D01*
X599802Y690308D01*
X599725Y690287D01*
X599648Y690269D01*
X599569Y690256D01*
X599490Y690246D01*
X599411Y690240D01*
X599331Y690238D01*
X597709Y690238D01*
X599656Y690238D02*
X600954Y687642D01*
X603589Y687642D02*
X606185Y687642D01*
X603589Y687642D02*
X603589Y693484D01*
X606185Y693484D01*
X605536Y690887D02*
X603589Y690887D01*
X610097Y687642D02*
X610167Y687644D01*
X610237Y687650D01*
X610307Y687659D01*
X610376Y687672D01*
X610444Y687689D01*
X610511Y687710D01*
X610577Y687734D01*
X610642Y687762D01*
X610705Y687793D01*
X610766Y687828D01*
X610825Y687866D01*
X610883Y687907D01*
X610937Y687951D01*
X610990Y687998D01*
X611039Y688047D01*
X611086Y688100D01*
X611130Y688154D01*
X611171Y688212D01*
X611209Y688271D01*
X611244Y688332D01*
X611275Y688395D01*
X611303Y688460D01*
X611327Y688526D01*
X611348Y688593D01*
X611365Y688661D01*
X611378Y688730D01*
X611387Y688800D01*
X611393Y688870D01*
X611395Y688940D01*
X610097Y687642D02*
X609994Y687644D01*
X609891Y687650D01*
X609788Y687659D01*
X609686Y687673D01*
X609585Y687690D01*
X609484Y687711D01*
X609384Y687736D01*
X609285Y687765D01*
X609187Y687797D01*
X609090Y687834D01*
X608995Y687873D01*
X608901Y687916D01*
X608809Y687963D01*
X608719Y688013D01*
X608631Y688067D01*
X608545Y688123D01*
X608461Y688183D01*
X608380Y688246D01*
X608301Y688312D01*
X608224Y688381D01*
X608150Y688453D01*
X608312Y692185D02*
X608314Y692255D01*
X608320Y692325D01*
X608329Y692395D01*
X608342Y692464D01*
X608359Y692532D01*
X608380Y692599D01*
X608404Y692665D01*
X608432Y692730D01*
X608463Y692793D01*
X608498Y692854D01*
X608536Y692913D01*
X608577Y692971D01*
X608621Y693025D01*
X608668Y693078D01*
X608717Y693127D01*
X608770Y693174D01*
X608824Y693218D01*
X608882Y693259D01*
X608941Y693297D01*
X609002Y693332D01*
X609065Y693363D01*
X609130Y693391D01*
X609196Y693415D01*
X609263Y693436D01*
X609331Y693453D01*
X609400Y693466D01*
X609470Y693475D01*
X609540Y693481D01*
X609610Y693483D01*
X609708Y693481D01*
X609806Y693475D01*
X609903Y693465D01*
X610000Y693452D01*
X610096Y693434D01*
X610192Y693412D01*
X610286Y693387D01*
X610380Y693358D01*
X610472Y693325D01*
X610563Y693289D01*
X610652Y693249D01*
X610740Y693205D01*
X610825Y693158D01*
X610909Y693107D01*
X610991Y693053D01*
X611070Y692996D01*
X608961Y691049D02*
X608903Y691086D01*
X608847Y691125D01*
X608793Y691167D01*
X608741Y691212D01*
X608692Y691259D01*
X608645Y691309D01*
X608601Y691361D01*
X608560Y691416D01*
X608521Y691473D01*
X608486Y691531D01*
X608453Y691591D01*
X608424Y691653D01*
X608398Y691716D01*
X608375Y691781D01*
X608356Y691847D01*
X608340Y691913D01*
X608328Y691981D01*
X608319Y692048D01*
X608314Y692117D01*
X608312Y692185D01*
X610746Y690076D02*
X610804Y690040D01*
X610860Y690001D01*
X610914Y689959D01*
X610966Y689914D01*
X611015Y689866D01*
X611062Y689816D01*
X611106Y689764D01*
X611147Y689710D01*
X611186Y689653D01*
X611221Y689594D01*
X611254Y689534D01*
X611283Y689472D01*
X611309Y689409D01*
X611332Y689344D01*
X611351Y689279D01*
X611367Y689212D01*
X611379Y689145D01*
X611388Y689077D01*
X611393Y689008D01*
X611395Y688940D01*
X610746Y690076D02*
X608961Y691049D01*
X613876Y687642D02*
X616472Y687642D01*
X613876Y687642D02*
X613876Y693484D01*
X616472Y693484D01*
X615823Y690887D02*
X613876Y690887D01*
X619869Y693484D02*
X619869Y687642D01*
X621491Y693484D02*
X618246Y693484D01*
X598173Y679415D02*
X598171Y679345D01*
X598165Y679275D01*
X598156Y679205D01*
X598143Y679136D01*
X598126Y679068D01*
X598105Y679001D01*
X598081Y678935D01*
X598053Y678870D01*
X598022Y678807D01*
X597987Y678746D01*
X597949Y678687D01*
X597908Y678629D01*
X597864Y678575D01*
X597817Y678522D01*
X597768Y678473D01*
X597715Y678426D01*
X597661Y678382D01*
X597603Y678341D01*
X597544Y678303D01*
X597483Y678268D01*
X597420Y678237D01*
X597355Y678209D01*
X597289Y678185D01*
X597222Y678164D01*
X597154Y678147D01*
X597085Y678134D01*
X597015Y678125D01*
X596945Y678119D01*
X596875Y678117D01*
X596772Y678119D01*
X596669Y678125D01*
X596566Y678134D01*
X596464Y678148D01*
X596363Y678165D01*
X596262Y678186D01*
X596162Y678211D01*
X596063Y678240D01*
X595965Y678272D01*
X595868Y678309D01*
X595773Y678348D01*
X595679Y678391D01*
X595587Y678438D01*
X595497Y678488D01*
X595409Y678542D01*
X595323Y678598D01*
X595239Y678658D01*
X595158Y678721D01*
X595079Y678787D01*
X595002Y678856D01*
X594928Y678928D01*
X595091Y682660D02*
X595093Y682730D01*
X595099Y682800D01*
X595108Y682870D01*
X595121Y682939D01*
X595138Y683007D01*
X595159Y683074D01*
X595183Y683140D01*
X595211Y683205D01*
X595242Y683268D01*
X595277Y683329D01*
X595315Y683388D01*
X595356Y683446D01*
X595400Y683500D01*
X595447Y683553D01*
X595496Y683602D01*
X595549Y683649D01*
X595603Y683693D01*
X595661Y683734D01*
X595720Y683772D01*
X595781Y683807D01*
X595844Y683838D01*
X595909Y683866D01*
X595975Y683890D01*
X596042Y683911D01*
X596110Y683928D01*
X596179Y683941D01*
X596249Y683950D01*
X596319Y683956D01*
X596389Y683958D01*
X596487Y683956D01*
X596585Y683950D01*
X596682Y683940D01*
X596779Y683927D01*
X596875Y683909D01*
X596971Y683887D01*
X597065Y683862D01*
X597159Y683833D01*
X597251Y683800D01*
X597342Y683764D01*
X597431Y683724D01*
X597519Y683680D01*
X597604Y683633D01*
X597688Y683582D01*
X597770Y683528D01*
X597849Y683471D01*
X595740Y681524D02*
X595682Y681561D01*
X595626Y681600D01*
X595572Y681642D01*
X595520Y681687D01*
X595471Y681734D01*
X595424Y681784D01*
X595380Y681836D01*
X595339Y681891D01*
X595300Y681948D01*
X595265Y682006D01*
X595232Y682066D01*
X595203Y682128D01*
X595177Y682191D01*
X595154Y682256D01*
X595135Y682322D01*
X595119Y682388D01*
X595107Y682456D01*
X595098Y682523D01*
X595093Y682592D01*
X595091Y682660D01*
X597525Y680551D02*
X597583Y680515D01*
X597639Y680476D01*
X597693Y680434D01*
X597745Y680389D01*
X597794Y680341D01*
X597841Y680291D01*
X597885Y680239D01*
X597926Y680185D01*
X597965Y680128D01*
X598000Y680069D01*
X598033Y680009D01*
X598062Y679947D01*
X598088Y679884D01*
X598111Y679819D01*
X598130Y679754D01*
X598146Y679687D01*
X598158Y679620D01*
X598167Y679552D01*
X598172Y679483D01*
X598174Y679415D01*
X597524Y680551D02*
X595739Y681524D01*
X600241Y683959D02*
X601539Y678117D01*
X602837Y682011D01*
X604136Y678117D01*
X605434Y683959D01*
X608171Y683959D02*
X608171Y678117D01*
X607522Y678117D02*
X608820Y678117D01*
X608820Y683959D02*
X607522Y683959D01*
X612362Y683959D02*
X612362Y678117D01*
X610739Y683959D02*
X613985Y683959D01*
X617355Y678117D02*
X618653Y678117D01*
X617355Y678117D02*
X617285Y678119D01*
X617215Y678125D01*
X617145Y678134D01*
X617076Y678147D01*
X617008Y678164D01*
X616941Y678185D01*
X616875Y678209D01*
X616810Y678237D01*
X616747Y678268D01*
X616686Y678303D01*
X616627Y678341D01*
X616569Y678382D01*
X616515Y678426D01*
X616462Y678473D01*
X616413Y678522D01*
X616366Y678575D01*
X616322Y678629D01*
X616281Y678687D01*
X616243Y678746D01*
X616208Y678807D01*
X616177Y678870D01*
X616149Y678935D01*
X616125Y679001D01*
X616104Y679068D01*
X616087Y679136D01*
X616074Y679205D01*
X616065Y679275D01*
X616059Y679345D01*
X616057Y679415D01*
X616057Y682660D01*
X616059Y682730D01*
X616065Y682800D01*
X616074Y682870D01*
X616087Y682939D01*
X616104Y683007D01*
X616125Y683074D01*
X616149Y683140D01*
X616177Y683205D01*
X616208Y683268D01*
X616243Y683329D01*
X616281Y683388D01*
X616322Y683446D01*
X616366Y683500D01*
X616413Y683553D01*
X616462Y683602D01*
X616515Y683649D01*
X616569Y683693D01*
X616627Y683734D01*
X616686Y683772D01*
X616747Y683807D01*
X616810Y683838D01*
X616875Y683866D01*
X616941Y683890D01*
X617008Y683911D01*
X617076Y683928D01*
X617145Y683941D01*
X617215Y683950D01*
X617285Y683956D01*
X617355Y683958D01*
X617355Y683959D02*
X618653Y683959D01*
X621026Y683959D02*
X621026Y678117D01*
X621026Y681362D02*
X624272Y681362D01*
X624272Y683959D02*
X624272Y678117D01*
D11*
X685800Y622300D02*
X711200Y622300D01*
X711200Y469900D01*
X685800Y469900D01*
X685800Y622300D01*
X711200Y622300D02*
X717550Y622300D01*
X717550Y469900D01*
X711200Y469900D01*
D10*
X675584Y559990D02*
X666496Y559990D01*
X675584Y559989D02*
X675683Y559987D01*
X675783Y559981D01*
X675882Y559972D01*
X675980Y559959D01*
X676078Y559942D01*
X676176Y559921D01*
X676272Y559896D01*
X676367Y559868D01*
X676461Y559836D01*
X676554Y559801D01*
X676646Y559762D01*
X676736Y559719D01*
X676824Y559674D01*
X676911Y559624D01*
X676995Y559572D01*
X677078Y559516D01*
X677158Y559458D01*
X677236Y559396D01*
X677311Y559331D01*
X677384Y559263D01*
X677454Y559193D01*
X677522Y559120D01*
X677587Y559045D01*
X677649Y558967D01*
X677707Y558887D01*
X677763Y558804D01*
X677815Y558720D01*
X677865Y558633D01*
X677910Y558545D01*
X677953Y558455D01*
X677992Y558363D01*
X678027Y558270D01*
X678059Y558176D01*
X678087Y558081D01*
X678112Y557985D01*
X678133Y557887D01*
X678150Y557789D01*
X678163Y557691D01*
X678172Y557592D01*
X678178Y557492D01*
X678180Y557393D01*
X678180Y556095D01*
X666496Y568833D02*
X666498Y568940D01*
X666504Y569046D01*
X666514Y569152D01*
X666527Y569258D01*
X666545Y569364D01*
X666566Y569468D01*
X666591Y569572D01*
X666620Y569675D01*
X666652Y569776D01*
X666689Y569876D01*
X666729Y569975D01*
X666772Y570073D01*
X666819Y570169D01*
X666870Y570263D01*
X666924Y570355D01*
X666981Y570445D01*
X667041Y570533D01*
X667105Y570618D01*
X667172Y570701D01*
X667242Y570782D01*
X667314Y570860D01*
X667390Y570936D01*
X667468Y571008D01*
X667549Y571078D01*
X667632Y571145D01*
X667717Y571209D01*
X667805Y571269D01*
X667895Y571326D01*
X667987Y571380D01*
X668081Y571431D01*
X668177Y571478D01*
X668275Y571521D01*
X668374Y571561D01*
X668474Y571598D01*
X668575Y571630D01*
X668678Y571659D01*
X668782Y571684D01*
X668886Y571705D01*
X668992Y571723D01*
X669098Y571736D01*
X669204Y571746D01*
X669310Y571752D01*
X669417Y571754D01*
X666496Y568833D02*
X666498Y568712D01*
X666504Y568591D01*
X666514Y568471D01*
X666527Y568350D01*
X666545Y568231D01*
X666566Y568111D01*
X666591Y567993D01*
X666620Y567876D01*
X666653Y567759D01*
X666689Y567644D01*
X666730Y567530D01*
X666773Y567417D01*
X666821Y567305D01*
X666872Y567196D01*
X666927Y567088D01*
X666985Y566981D01*
X667046Y566877D01*
X667111Y566775D01*
X667179Y566675D01*
X667250Y566577D01*
X667324Y566481D01*
X667401Y566388D01*
X667482Y566298D01*
X667565Y566210D01*
X667651Y566125D01*
X667740Y566042D01*
X667831Y565963D01*
X667925Y565886D01*
X668021Y565813D01*
X668119Y565743D01*
X668220Y565676D01*
X668323Y565612D01*
X668428Y565552D01*
X668535Y565494D01*
X668643Y565441D01*
X668753Y565391D01*
X668865Y565345D01*
X668978Y565302D01*
X669093Y565263D01*
X671689Y570780D02*
X671611Y570859D01*
X671531Y570935D01*
X671448Y571008D01*
X671362Y571078D01*
X671275Y571145D01*
X671184Y571209D01*
X671092Y571269D01*
X670998Y571327D01*
X670901Y571381D01*
X670803Y571431D01*
X670703Y571478D01*
X670602Y571522D01*
X670499Y571562D01*
X670394Y571598D01*
X670289Y571630D01*
X670182Y571659D01*
X670075Y571684D01*
X669966Y571706D01*
X669857Y571723D01*
X669748Y571737D01*
X669638Y571746D01*
X669527Y571752D01*
X669417Y571754D01*
X671689Y570780D02*
X678180Y565263D01*
X678180Y571754D01*
D18*
X698500Y558800D03*
X698500Y584200D03*
X698500Y609600D03*
X698500Y533400D03*
X698500Y508000D03*
X698500Y482600D03*
D11*
X342900Y546100D02*
X317500Y546100D01*
X317500Y647700D01*
X342900Y647700D01*
X342900Y546100D01*
X317500Y546100D02*
X311150Y546100D01*
X311150Y647700D01*
X317500Y647700D01*
D10*
X350520Y568791D02*
X359608Y568791D01*
X359608Y568790D02*
X359707Y568788D01*
X359807Y568782D01*
X359906Y568773D01*
X360004Y568760D01*
X360102Y568743D01*
X360200Y568722D01*
X360296Y568697D01*
X360391Y568669D01*
X360485Y568637D01*
X360578Y568602D01*
X360670Y568563D01*
X360760Y568520D01*
X360848Y568475D01*
X360935Y568425D01*
X361019Y568373D01*
X361102Y568317D01*
X361182Y568259D01*
X361260Y568197D01*
X361335Y568132D01*
X361408Y568064D01*
X361478Y567994D01*
X361546Y567921D01*
X361611Y567846D01*
X361673Y567768D01*
X361731Y567688D01*
X361787Y567605D01*
X361839Y567521D01*
X361889Y567434D01*
X361934Y567346D01*
X361977Y567256D01*
X362016Y567164D01*
X362051Y567071D01*
X362083Y566977D01*
X362111Y566882D01*
X362136Y566786D01*
X362157Y566688D01*
X362174Y566590D01*
X362187Y566492D01*
X362196Y566393D01*
X362202Y566293D01*
X362204Y566194D01*
X362204Y564896D01*
X362204Y574064D02*
X362204Y577310D01*
X362202Y577423D01*
X362196Y577536D01*
X362186Y577649D01*
X362172Y577762D01*
X362155Y577874D01*
X362133Y577985D01*
X362108Y578095D01*
X362078Y578205D01*
X362045Y578313D01*
X362008Y578420D01*
X361968Y578526D01*
X361923Y578630D01*
X361875Y578733D01*
X361824Y578834D01*
X361769Y578933D01*
X361711Y579030D01*
X361649Y579125D01*
X361584Y579218D01*
X361516Y579308D01*
X361445Y579396D01*
X361370Y579482D01*
X361293Y579565D01*
X361213Y579645D01*
X361130Y579722D01*
X361044Y579797D01*
X360956Y579868D01*
X360866Y579936D01*
X360773Y580001D01*
X360678Y580063D01*
X360581Y580121D01*
X360482Y580176D01*
X360381Y580227D01*
X360278Y580275D01*
X360174Y580320D01*
X360068Y580360D01*
X359961Y580397D01*
X359853Y580430D01*
X359743Y580460D01*
X359633Y580485D01*
X359522Y580507D01*
X359410Y580524D01*
X359297Y580538D01*
X359184Y580548D01*
X359071Y580554D01*
X358958Y580556D01*
X358845Y580554D01*
X358732Y580548D01*
X358619Y580538D01*
X358506Y580524D01*
X358394Y580507D01*
X358283Y580485D01*
X358173Y580460D01*
X358063Y580430D01*
X357955Y580397D01*
X357848Y580360D01*
X357742Y580320D01*
X357638Y580275D01*
X357535Y580227D01*
X357434Y580176D01*
X357335Y580121D01*
X357238Y580063D01*
X357143Y580001D01*
X357050Y579936D01*
X356960Y579868D01*
X356872Y579797D01*
X356786Y579722D01*
X356703Y579645D01*
X356623Y579565D01*
X356546Y579482D01*
X356471Y579396D01*
X356400Y579308D01*
X356332Y579218D01*
X356267Y579125D01*
X356205Y579030D01*
X356147Y578933D01*
X356092Y578834D01*
X356041Y578733D01*
X355993Y578630D01*
X355948Y578526D01*
X355908Y578420D01*
X355871Y578313D01*
X355838Y578205D01*
X355808Y578095D01*
X355783Y577985D01*
X355761Y577874D01*
X355744Y577762D01*
X355730Y577649D01*
X355720Y577536D01*
X355714Y577423D01*
X355712Y577310D01*
X350520Y577959D02*
X350520Y574064D01*
X350520Y577959D02*
X350522Y578060D01*
X350528Y578160D01*
X350538Y578260D01*
X350551Y578360D01*
X350569Y578459D01*
X350590Y578558D01*
X350615Y578655D01*
X350644Y578752D01*
X350677Y578847D01*
X350713Y578941D01*
X350753Y579033D01*
X350796Y579124D01*
X350843Y579213D01*
X350893Y579300D01*
X350947Y579386D01*
X351004Y579469D01*
X351064Y579549D01*
X351127Y579628D01*
X351194Y579704D01*
X351263Y579777D01*
X351335Y579847D01*
X351409Y579915D01*
X351486Y579980D01*
X351566Y580041D01*
X351648Y580100D01*
X351732Y580155D01*
X351818Y580207D01*
X351906Y580256D01*
X351996Y580301D01*
X352088Y580343D01*
X352181Y580381D01*
X352276Y580415D01*
X352371Y580446D01*
X352468Y580473D01*
X352566Y580496D01*
X352665Y580516D01*
X352765Y580531D01*
X352865Y580543D01*
X352965Y580551D01*
X353066Y580555D01*
X353166Y580555D01*
X353267Y580551D01*
X353367Y580543D01*
X353467Y580531D01*
X353567Y580516D01*
X353666Y580496D01*
X353764Y580473D01*
X353861Y580446D01*
X353956Y580415D01*
X354051Y580381D01*
X354144Y580343D01*
X354236Y580301D01*
X354326Y580256D01*
X354414Y580207D01*
X354500Y580155D01*
X354584Y580100D01*
X354666Y580041D01*
X354746Y579980D01*
X354823Y579915D01*
X354897Y579847D01*
X354969Y579777D01*
X355038Y579704D01*
X355105Y579628D01*
X355168Y579549D01*
X355228Y579469D01*
X355285Y579386D01*
X355339Y579300D01*
X355389Y579213D01*
X355436Y579124D01*
X355479Y579033D01*
X355519Y578941D01*
X355555Y578847D01*
X355588Y578752D01*
X355617Y578655D01*
X355642Y578558D01*
X355663Y578459D01*
X355681Y578360D01*
X355694Y578260D01*
X355704Y578160D01*
X355710Y578060D01*
X355712Y577959D01*
X355713Y577959D02*
X355713Y575362D01*
D18*
X330200Y584200D03*
X330200Y609600D03*
X330200Y635000D03*
X330200Y558800D03*
D11*
X317500Y508000D02*
X342900Y508000D01*
X342900Y406400D01*
X317500Y406400D01*
X317500Y508000D01*
X342900Y508000D02*
X349250Y508000D01*
X349250Y406400D01*
X342900Y406400D01*
D10*
X307284Y477440D02*
X298196Y477440D01*
X307284Y477439D02*
X307383Y477437D01*
X307483Y477431D01*
X307582Y477422D01*
X307680Y477409D01*
X307778Y477392D01*
X307876Y477371D01*
X307972Y477346D01*
X308067Y477318D01*
X308161Y477286D01*
X308254Y477251D01*
X308346Y477212D01*
X308436Y477169D01*
X308524Y477124D01*
X308611Y477074D01*
X308695Y477022D01*
X308778Y476966D01*
X308858Y476908D01*
X308936Y476846D01*
X309011Y476781D01*
X309084Y476713D01*
X309154Y476643D01*
X309222Y476570D01*
X309287Y476495D01*
X309349Y476417D01*
X309407Y476337D01*
X309463Y476254D01*
X309515Y476170D01*
X309565Y476083D01*
X309610Y475995D01*
X309653Y475905D01*
X309692Y475813D01*
X309727Y475720D01*
X309759Y475626D01*
X309787Y475531D01*
X309812Y475435D01*
X309833Y475337D01*
X309850Y475239D01*
X309863Y475141D01*
X309872Y475042D01*
X309878Y474942D01*
X309880Y474843D01*
X309880Y473545D01*
X309880Y482713D02*
X309880Y486608D01*
X309878Y486707D01*
X309872Y486807D01*
X309863Y486906D01*
X309850Y487004D01*
X309833Y487102D01*
X309812Y487200D01*
X309787Y487296D01*
X309759Y487391D01*
X309727Y487485D01*
X309692Y487578D01*
X309653Y487670D01*
X309610Y487760D01*
X309565Y487848D01*
X309515Y487935D01*
X309463Y488019D01*
X309407Y488102D01*
X309349Y488182D01*
X309287Y488260D01*
X309222Y488335D01*
X309154Y488408D01*
X309084Y488478D01*
X309011Y488546D01*
X308936Y488611D01*
X308858Y488673D01*
X308778Y488731D01*
X308695Y488787D01*
X308611Y488839D01*
X308524Y488889D01*
X308436Y488934D01*
X308346Y488977D01*
X308254Y489016D01*
X308161Y489051D01*
X308067Y489083D01*
X307972Y489111D01*
X307876Y489136D01*
X307778Y489157D01*
X307680Y489174D01*
X307582Y489187D01*
X307483Y489196D01*
X307383Y489202D01*
X307284Y489204D01*
X305985Y489204D01*
X305886Y489202D01*
X305786Y489196D01*
X305687Y489187D01*
X305589Y489174D01*
X305491Y489157D01*
X305393Y489136D01*
X305297Y489111D01*
X305202Y489083D01*
X305108Y489051D01*
X305015Y489016D01*
X304923Y488977D01*
X304833Y488934D01*
X304745Y488889D01*
X304658Y488839D01*
X304574Y488787D01*
X304491Y488731D01*
X304411Y488673D01*
X304333Y488611D01*
X304258Y488546D01*
X304185Y488478D01*
X304115Y488408D01*
X304047Y488335D01*
X303982Y488260D01*
X303920Y488182D01*
X303862Y488102D01*
X303806Y488019D01*
X303754Y487935D01*
X303704Y487848D01*
X303659Y487760D01*
X303616Y487670D01*
X303577Y487578D01*
X303542Y487485D01*
X303510Y487391D01*
X303482Y487296D01*
X303457Y487200D01*
X303436Y487102D01*
X303419Y487004D01*
X303406Y486906D01*
X303397Y486807D01*
X303391Y486707D01*
X303389Y486608D01*
X303389Y482713D01*
X298196Y482713D01*
X298196Y489204D01*
D18*
X330200Y469900D03*
X330200Y444500D03*
X330200Y419100D03*
X330200Y495300D03*
D19*
X717550Y157480D02*
X742950Y157480D01*
X717550Y157480D02*
X641350Y157480D01*
X641350Y246380D01*
X742950Y246380D02*
X742950Y157480D01*
D20*
X717550Y157480D02*
X717550Y246380D01*
D19*
X641350Y246380D01*
X717550Y246380D02*
X742950Y246380D01*
D11*
X629356Y230028D02*
X616712Y230028D01*
X629356Y230027D02*
X629474Y230025D01*
X629592Y230019D01*
X629710Y230010D01*
X629827Y229996D01*
X629944Y229979D01*
X630061Y229958D01*
X630176Y229933D01*
X630291Y229904D01*
X630405Y229871D01*
X630517Y229835D01*
X630628Y229795D01*
X630738Y229752D01*
X630847Y229705D01*
X630954Y229655D01*
X631059Y229600D01*
X631162Y229543D01*
X631263Y229482D01*
X631363Y229418D01*
X631460Y229351D01*
X631555Y229281D01*
X631647Y229207D01*
X631738Y229131D01*
X631825Y229051D01*
X631910Y228969D01*
X631992Y228884D01*
X632072Y228797D01*
X632148Y228706D01*
X632222Y228614D01*
X632292Y228519D01*
X632359Y228422D01*
X632423Y228322D01*
X632484Y228221D01*
X632541Y228118D01*
X632596Y228013D01*
X632646Y227906D01*
X632693Y227797D01*
X632736Y227687D01*
X632776Y227576D01*
X632812Y227464D01*
X632845Y227350D01*
X632874Y227235D01*
X632899Y227120D01*
X632920Y227003D01*
X632937Y226886D01*
X632951Y226769D01*
X632960Y226651D01*
X632966Y226533D01*
X632968Y226415D01*
X632968Y224609D01*
X620324Y237095D02*
X616712Y241610D01*
X632968Y241610D01*
X632968Y237095D02*
X632968Y246126D01*
D21*
X679450Y183388D03*
X679450Y223012D03*
D17*
X660450Y750200D02*
X708610Y750200D01*
X660450Y750200D02*
X660450Y736200D01*
X650370Y735200D02*
X716150Y735200D01*
X716150Y642200D02*
X655450Y642200D01*
X708610Y736200D02*
X708610Y750200D01*
X655450Y646300D02*
X655450Y642200D01*
X716150Y712050D02*
X716150Y735200D01*
X716150Y690750D02*
X716150Y642200D01*
X650370Y724750D02*
X650370Y735200D01*
X650370Y705990D02*
X650370Y670140D01*
D10*
X635508Y657897D02*
X647192Y650108D01*
X647192Y657897D02*
X635508Y650108D01*
X635508Y665757D02*
X635510Y665864D01*
X635516Y665970D01*
X635526Y666076D01*
X635539Y666182D01*
X635557Y666288D01*
X635578Y666392D01*
X635603Y666496D01*
X635632Y666599D01*
X635664Y666700D01*
X635701Y666800D01*
X635741Y666899D01*
X635784Y666997D01*
X635831Y667093D01*
X635882Y667187D01*
X635936Y667279D01*
X635993Y667369D01*
X636053Y667457D01*
X636117Y667542D01*
X636184Y667625D01*
X636254Y667706D01*
X636326Y667784D01*
X636402Y667860D01*
X636480Y667932D01*
X636561Y668002D01*
X636644Y668069D01*
X636729Y668133D01*
X636817Y668193D01*
X636907Y668250D01*
X636999Y668304D01*
X637093Y668355D01*
X637189Y668402D01*
X637287Y668445D01*
X637386Y668485D01*
X637486Y668522D01*
X637587Y668554D01*
X637690Y668583D01*
X637794Y668608D01*
X637898Y668629D01*
X638004Y668647D01*
X638110Y668660D01*
X638216Y668670D01*
X638322Y668676D01*
X638429Y668678D01*
X635508Y665757D02*
X635510Y665636D01*
X635516Y665515D01*
X635526Y665395D01*
X635539Y665274D01*
X635557Y665155D01*
X635578Y665035D01*
X635603Y664917D01*
X635632Y664800D01*
X635665Y664683D01*
X635701Y664568D01*
X635742Y664454D01*
X635785Y664341D01*
X635833Y664229D01*
X635884Y664120D01*
X635939Y664012D01*
X635997Y663905D01*
X636058Y663801D01*
X636123Y663699D01*
X636191Y663599D01*
X636262Y663501D01*
X636336Y663405D01*
X636413Y663312D01*
X636494Y663222D01*
X636577Y663134D01*
X636663Y663049D01*
X636752Y662966D01*
X636843Y662887D01*
X636937Y662810D01*
X637033Y662737D01*
X637131Y662667D01*
X637232Y662600D01*
X637335Y662536D01*
X637440Y662476D01*
X637547Y662418D01*
X637655Y662365D01*
X637765Y662315D01*
X637877Y662269D01*
X637990Y662226D01*
X638105Y662187D01*
X640701Y667704D02*
X640623Y667783D01*
X640543Y667859D01*
X640460Y667932D01*
X640374Y668002D01*
X640287Y668069D01*
X640196Y668133D01*
X640104Y668193D01*
X640010Y668251D01*
X639913Y668305D01*
X639815Y668355D01*
X639715Y668402D01*
X639614Y668446D01*
X639511Y668486D01*
X639406Y668522D01*
X639301Y668554D01*
X639194Y668583D01*
X639087Y668608D01*
X638978Y668630D01*
X638869Y668647D01*
X638760Y668661D01*
X638650Y668670D01*
X638539Y668676D01*
X638429Y668678D01*
X640701Y667705D02*
X647192Y662187D01*
X647192Y668678D01*
M02*
