G04 EAGLE Gerber X2 export*
%TF.Part,Single*%
%TF.FileFunction,Soldermask,Bot,1*%
%TF.FilePolarity,Negative*%
%TF.GenerationSoftware,Autodesk,EAGLE,8.7.1*%
%TF.CreationDate,2021-04-30T08:45:36Z*%
G75*
%MOMM*%
%FSLAX34Y34*%
%LPD*%
%AMOC8*
5,1,8,0,0,1.08239X$1,22.5*%
G01*
%ADD10R,1.727200X1.727200*%
%ADD11P,1.649562X8X22.500000*%
%ADD12C,1.701200*%
%ADD13R,1.701200X1.701200*%
%ADD14C,2.032000*%
%ADD15C,1.727200*%
%ADD16C,2.717800*%
%ADD17C,1.903200*%
%ADD18C,1.303200*%
%ADD19P,5.718483X8X22.500000*%


D10*
X604200Y216300D03*
X604200Y266300D03*
X310200Y164300D03*
X310200Y318300D03*
D11*
X469900Y635000D03*
X571500Y635000D03*
X361950Y361950D03*
X463550Y361950D03*
D12*
X656950Y426200D03*
X701950Y426200D03*
X656950Y361200D03*
D13*
X701950Y361200D03*
D14*
X409194Y635000D02*
X390906Y635000D01*
X390906Y609600D02*
X409194Y609600D01*
X409194Y584200D02*
X390906Y584200D01*
X390906Y558800D02*
X409194Y558800D01*
X409194Y533400D02*
X390906Y533400D01*
X390906Y508000D02*
X409194Y508000D01*
X409194Y482600D02*
X390906Y482600D01*
X390906Y457200D02*
X409194Y457200D01*
X619506Y635000D02*
X637794Y635000D01*
X637794Y609600D02*
X619506Y609600D01*
X619506Y584200D02*
X637794Y584200D01*
X637794Y558800D02*
X619506Y558800D01*
X619506Y533400D02*
X637794Y533400D01*
X637794Y508000D02*
X619506Y508000D01*
X619506Y482600D02*
X637794Y482600D01*
X637794Y457200D02*
X619506Y457200D01*
D15*
X690880Y609600D02*
X706120Y609600D01*
X706120Y584200D02*
X690880Y584200D01*
X690880Y558800D02*
X706120Y558800D01*
X706120Y533400D02*
X690880Y533400D01*
X690880Y508000D02*
X706120Y508000D01*
X706120Y482600D02*
X690880Y482600D01*
X337820Y558800D02*
X322580Y558800D01*
X322580Y584200D02*
X337820Y584200D01*
X337820Y609600D02*
X322580Y609600D01*
X322580Y635000D02*
X337820Y635000D01*
X337820Y495300D02*
X322580Y495300D01*
X322580Y469900D02*
X337820Y469900D01*
X337820Y444500D02*
X322580Y444500D01*
X322580Y419100D02*
X337820Y419100D01*
D16*
X666877Y183388D02*
X692023Y183388D01*
X692023Y223012D02*
X666877Y223012D01*
D17*
X660950Y724360D03*
X708110Y703740D03*
X660950Y654200D03*
D18*
X684530Y724662D03*
X684530Y663900D03*
D19*
X304800Y723900D03*
X304800Y95250D03*
X711200Y95250D03*
M02*
